<svg width="40" height="40" viewBox="0 0 40 40" fill="none" xmlns="http://www.w3.org/2000/svg">
<path d="M10.0666 12.954C5.96709 13.8816 3.91735 14.3454 3.42969 15.9135C2.94202 17.4817 4.3394 19.1158 7.13415 22.3838L7.85719 23.2293C8.65137 24.158 9.04845 24.6223 9.22709 25.1968C9.40574 25.7713 9.3457 26.3908 9.22562 27.63L9.11632 28.758C8.69379 33.1183 8.48252 35.2985 9.75924 36.2677C11.036 37.2368 12.9551 36.3532 16.7935 34.586L17.7865 34.1287C18.8772 33.6265 19.4225 33.3753 20.0007 33.3753C20.5788 33.3753 21.1242 33.6265 22.2148 34.1287L23.2078 34.586C27.0462 36.3532 28.9653 37.2368 30.2422 36.2677C31.5188 35.2985 31.3075 33.1183 30.885 28.758M32.8672 22.3838C35.662 19.1158 37.0593 17.4817 36.5717 15.9135C36.084 14.3454 34.0342 13.8816 29.9348 12.954L28.8742 12.7141C27.7092 12.4505 27.1268 12.3187 26.6592 11.9637C26.1913 11.6086 25.8915 11.0705 25.2915 9.99437L24.7453 9.0146C22.6343 5.22752 21.5788 3.33398 20.0007 3.33398C18.4225 3.33398 17.367 5.22753 15.2559 9.01462" stroke="#02A6FF" stroke-width="2" stroke-linecap="round"/>
</svg>
