<svg width="30" height="30" viewBox="0 0 30 30" fill="none" xmlns="http://www.w3.org/2000/svg">
<g clip-path="url(#clip0_1508_532)">
<path d="M28.716 1.14574C28.4407 0.967017 28.1328 0.844299 27.81 0.784596C27.4872 0.724894 27.1557 0.729375 26.8347 0.797785C26.5136 0.866195 26.2091 0.997193 25.9387 1.1833C25.6683 1.3694 25.4371 1.60696 25.2585 1.88241L11.2502 23.4749L4.41853 17.1582C4.1775 16.9354 3.89494 16.7622 3.58697 16.6485C3.279 16.5348 2.95166 16.483 2.62363 16.4958C1.96116 16.5217 1.33613 16.8098 0.886034 17.2966C0.43594 17.7834 0.197654 18.429 0.223596 19.0915C0.249539 19.7539 0.537585 20.379 1.02437 20.8291L9.99437 29.1224C9.99437 29.1224 10.2519 29.3441 10.371 29.4216C10.6464 29.6004 10.9544 29.7232 11.2773 29.783C11.6002 29.8428 11.9317 29.8383 12.2529 29.7699C12.574 29.7015 12.8786 29.5705 13.1491 29.3843C13.4196 29.1981 13.6508 28.9605 13.8294 28.6849L29.4527 4.60324C29.6314 4.32787 29.7541 4.01998 29.8138 3.69717C29.8735 3.37436 29.8691 3.04295 29.8007 2.72187C29.7322 2.4008 29.6012 2.09634 29.4151 1.8259C29.229 1.55547 28.9915 1.32434 28.716 1.14574Z" fill="#0088CC"/>
</g>
<defs>
<clipPath id="clip0_1508_532">
<rect width="30" height="30" fill="white"/>
</clipPath>
</defs>
</svg>
