<svg width="26" height="26" viewBox="0 0 26 26" fill="none" xmlns="http://www.w3.org/2000/svg">
<g clip-path="url(#clip0_5469_32)">
<path d="M24.8865 0.992664C24.6479 0.837772 24.381 0.731417 24.1013 0.679674C23.8215 0.627932 23.5343 0.631816 23.256 0.691104C22.9777 0.750393 22.7139 0.863924 22.4795 1.02521C22.2451 1.1865 22.0448 1.39239 21.89 1.63111L9.74946 20.3446L3.82868 14.8702C3.61979 14.677 3.3749 14.5269 3.10799 14.4284C2.84108 14.3299 2.55739 14.2849 2.2731 14.2961C1.69896 14.3185 1.15726 14.5682 0.76718 14.9901C0.377098 15.4119 0.170584 15.9715 0.193067 16.5456C0.215551 17.1198 0.465191 17.6615 0.887069 18.0516L8.66107 25.2391C8.66107 25.2391 8.88424 25.4312 8.98751 25.4984C9.2262 25.6534 9.49309 25.7598 9.77293 25.8116C10.0528 25.8634 10.3401 25.8596 10.6184 25.8003C10.8968 25.741 11.1607 25.6274 11.3952 25.4661C11.6296 25.3047 11.8299 25.0988 11.9847 24.8599L25.525 3.98916C25.6798 3.75051 25.7862 3.48368 25.8379 3.20391C25.8897 2.92414 25.8858 2.63692 25.8265 2.35865C25.7672 2.08038 25.6537 1.81652 25.4924 1.58214C25.3311 1.34776 25.1252 1.14745 24.8865 0.992664Z" fill="#4CAF50"/>
</g>
<defs>
<clipPath id="clip0_5469_32">
<rect width="26" height="26" fill="white"/>
</clipPath>
</defs>
</svg>
