<svg width="275" height="76" viewBox="0 0 275 76" fill="none" xmlns="http://www.w3.org/2000/svg">
<path d="M1 4.79965V3.79965H0V4.79965H1ZM10.312 4.79965H11.312V3.79965H10.312V4.79965ZM10.312 74.2077V75.2077H11.312V74.2077H10.312ZM1 74.2077H0V75.2077H1V74.2077ZM1 5.79965H10.312V3.79965H1V5.79965ZM9.312 4.79965V74.2077H11.312V4.79965H9.312ZM10.312 73.2077H1V75.2077H10.312V73.2077ZM2 74.2077V4.79965H0V74.2077H2ZM39.6579 32.7357L40.6545 32.8187L40.6579 32.7773V32.7357H39.6579ZM39.37 36.1917L38.3734 36.1087L38.0747 39.6931L40.1806 36.7772L39.37 36.1917ZM40.618 34.4637L39.8958 33.7719L39.8479 33.822L39.8074 33.8782L40.618 34.4637ZM69.034 4.79965V3.79965H68.6071L68.3119 4.10789L69.034 4.79965ZM81.034 4.79965L81.7537 5.49387L83.3878 3.79965H81.034V4.79965ZM52.33 34.5597L51.6102 33.8655L51.0132 34.4844L51.5359 35.1674L52.33 34.5597ZM82.666 74.2077V75.2077H84.6902L83.4602 73.6L82.666 74.2077ZM70.858 74.2077L70.0588 74.8088L70.3588 75.2077H70.858V74.2077ZM45.514 40.5117L46.3131 39.9106L45.6326 39.0058L44.8187 39.7929L45.514 40.5117ZM39.6579 46.1757L38.9627 45.4569L38.6579 45.7517V46.1757H39.6579ZM39.6579 74.2077V75.2077H40.6579V74.2077H39.6579ZM30.25 74.2077H29.25V75.2077H30.25V74.2077ZM30.25 4.79965V3.79965H29.25V4.79965H30.25ZM39.6579 4.79965H40.6579V3.79965H39.6579V4.79965ZM38.6614 32.6527L38.3734 36.1087L40.3666 36.2747L40.6545 32.8187L38.6614 32.6527ZM40.1806 36.7772L41.4286 35.0492L39.8074 33.8782L38.5593 35.6062L40.1806 36.7772ZM41.3401 35.1555L69.7561 5.4914L68.3119 4.10789L39.8958 33.7719L41.3401 35.1555ZM69.034 5.79965H81.034V3.79965H69.034V5.79965ZM80.3142 4.10542L51.6102 33.8655L53.0497 35.2539L81.7537 5.49387L80.3142 4.10542ZM51.5359 35.1674L81.8718 74.8154L83.4602 73.6L53.1241 33.952L51.5359 35.1674ZM82.666 73.2077H70.858V75.2077H82.666V73.2077ZM71.6572 73.6066L46.3131 39.9106L44.7148 41.1128L70.0588 74.8088L71.6572 73.6066ZM44.8187 39.7929L38.9627 45.4569L40.3532 46.8945L46.2092 41.2305L44.8187 39.7929ZM38.6579 46.1757V74.2077H40.6579V46.1757H38.6579ZM39.6579 73.2077H30.25V75.2077H39.6579V73.2077ZM31.25 74.2077V4.79965H29.25V74.2077H31.25ZM30.25 5.79965H39.6579V3.79965H30.25V5.79965ZM38.6579 4.79965V32.7357H40.6579V4.79965H38.6579ZM95.4062 4.79965V3.79965H94.4062V4.79965H95.4062ZM104.718 4.79965H105.718V3.79965H104.718V4.79965ZM104.718 74.2077V75.2077H105.718V74.2077H104.718ZM95.4062 74.2077H94.4062V75.2077H95.4062V74.2077ZM95.4062 5.79965H104.718V3.79965H95.4062V5.79965ZM103.718 4.79965V74.2077H105.718V4.79965H103.718ZM104.718 73.2077H95.4062V75.2077H104.718V73.2077ZM96.4062 74.2077V4.79965H94.4062V74.2077H96.4062ZM178.992 68.2557L179.647 69.0114L179.992 68.7123V68.2557H178.992ZM174.96 70.7517L175.366 71.6655L175.38 71.6593L175.394 71.6527L174.96 70.7517ZM169.2 72.8637L168.91 71.9066L168.902 71.9092L169.2 72.8637ZM162.768 74.3997L162.599 73.4141L162.594 73.4149L162.768 74.3997ZM141.552 72.3837L141.188 73.315L141.192 73.3167L141.552 72.3837ZM130.128 65.1837L129.428 65.8981L129.435 65.9051L130.128 65.1837ZM122.832 54.3357L121.903 54.7071L121.908 54.7193L122.832 54.3357ZM123.12 25.3437L122.197 24.9591L122.194 24.9656L123.12 25.3437ZM142.32 6.52765L142.67 7.46463L142.682 7.45991L142.32 6.52765ZM176.304 9.11965L177.242 9.46731L177.539 8.66575L176.793 8.2475L176.304 9.11965ZM173.136 17.6637L172.622 18.5212L173.655 19.1411L174.074 18.0114L173.136 17.6637ZM168.336 15.5517L168.01 16.4971L168.02 16.5004L168.336 15.5517ZM162.576 14.0157L162.356 14.9911L162.371 14.9945L162.386 14.9975L162.576 14.0157ZM145.872 15.2637L146.215 16.203L146.223 16.2001L146.231 16.197L145.872 15.2637ZM137.328 20.6397L138.025 21.3565L138.035 21.3468L137.328 20.6397ZM131.856 29.0877L132.787 29.4528L132.789 29.4467L131.856 29.0877ZM137.328 58.6557L136.631 59.3725L136.641 59.3822L137.328 58.6557ZM145.776 63.9357L145.411 64.8667L145.422 64.8709L145.433 64.875L145.776 63.9357ZM163.728 65.0877L163.919 66.0693L163.932 66.0668L163.945 66.0639L163.728 65.0877ZM169.68 62.9757L170.154 63.8562L170.68 63.573V62.9757H169.68ZM169.68 49.1517H170.68V48.1517H169.68V49.1517ZM155.856 49.1517H154.856V50.1517H155.856V49.1517ZM155.856 40.2237V39.2237H154.856V40.2237H155.856ZM178.992 40.2237H179.992V39.2237H178.992V40.2237ZM178.337 67.5C177.469 68.2525 176.211 69.0397 174.526 69.8507L175.394 71.6527C177.165 70.7997 178.595 69.9229 179.647 69.0114L178.337 67.5ZM174.554 69.8379C172.869 70.5866 170.989 71.2766 168.91 71.9066L169.49 73.8207C171.635 73.1707 173.595 72.4528 175.366 71.6655L174.554 69.8379ZM168.902 71.9092C166.899 72.5352 164.798 73.0371 162.599 73.4141L162.937 75.3853C165.218 74.9943 167.406 74.4722 169.498 73.8182L168.902 71.9092ZM162.594 73.4149C160.467 73.7903 158.478 73.9757 156.624 73.9757V75.9757C158.61 75.9757 160.717 75.7771 162.942 75.3845L162.594 73.4149ZM156.624 73.9757C151.16 73.9757 146.26 73.1279 141.912 71.4507L141.192 73.3167C145.804 75.0955 150.952 75.9757 156.624 75.9757V73.9757ZM141.916 71.4525C137.614 69.7689 133.92 67.4374 130.821 64.4623L129.435 65.9051C132.736 69.074 136.658 71.5426 141.188 73.315L141.916 71.4525ZM130.828 64.4693C127.79 61.4938 125.433 57.9912 123.755 53.9521L121.908 54.7193C123.687 59.0002 126.194 62.7294 129.428 65.8981L130.828 64.4693ZM123.76 53.9643C122.148 49.9321 121.336 45.5474 121.336 40.7997H119.336C119.336 45.78 120.187 50.4191 121.903 54.7071L123.76 53.9643ZM121.336 40.7997C121.336 35.1471 122.247 30.1269 124.046 25.7218L122.194 24.9656C120.281 29.6485 119.336 34.9321 119.336 40.7997H121.336ZM124.043 25.7283C125.916 21.2339 128.434 17.4803 131.589 14.4488L130.203 13.0066C126.83 16.2471 124.164 20.2373 122.197 24.9591L124.043 25.7283ZM131.589 14.4488C134.819 11.3426 138.511 9.01643 142.67 7.46463L141.97 5.59074C137.553 7.23898 133.629 9.71258 130.203 13.0066L131.589 14.4488ZM142.682 7.45991C146.849 5.8426 151.27 5.03165 155.952 5.03165V3.03165C151.034 3.03165 146.367 3.88466 141.958 5.59538L142.682 7.45991ZM155.952 5.03165C159.905 5.03165 163.558 5.50215 166.916 6.43517L167.452 4.50813C163.898 3.52113 160.063 3.03165 155.952 3.03165V5.03165ZM166.916 6.43517C170.309 7.37768 173.273 8.56565 175.815 9.99179L176.793 8.2475C174.087 6.7296 170.971 5.48563 167.452 4.50813L166.916 6.43517ZM175.366 8.77199L172.198 17.316L174.074 18.0114L177.242 9.46731L175.366 8.77199ZM173.651 16.8062C172.29 15.99 170.619 15.2585 168.652 14.603L168.02 16.5004C169.893 17.1249 171.422 17.8012 172.622 18.5212L173.651 16.8062ZM168.662 14.6063C166.76 13.9505 164.795 13.4266 162.766 13.0339L162.386 14.9975C164.325 15.3728 166.2 15.8727 168.01 16.4971L168.662 14.6063ZM162.796 13.0403C160.752 12.5786 158.822 12.3437 157.008 12.3437V14.3437C158.65 14.3437 160.432 14.5566 162.356 14.9911L162.796 13.0403ZM157.008 12.3437C152.807 12.3437 148.971 13.0002 145.513 14.3304L146.231 16.197C149.429 14.967 153.017 14.3437 157.008 14.3437V12.3437ZM145.529 14.3244C142.072 15.5874 139.098 17.4556 136.621 19.9326L138.035 21.3468C140.294 19.0876 143.016 17.372 146.215 16.203L145.529 14.3244ZM136.631 19.923C134.151 22.3356 132.25 25.2766 130.923 28.7287L132.789 29.4467C134.022 26.2426 135.769 23.5519 138.025 21.3565L136.631 19.923ZM130.925 28.7226C129.592 32.1207 128.936 35.9273 128.936 40.1277H130.936C130.936 36.1359 131.56 32.5827 132.787 29.4528L130.925 28.7226ZM128.936 40.1277C128.936 44.0184 129.596 47.6045 130.93 50.8736L132.782 50.1178C131.556 47.1147 130.936 43.789 130.936 40.1277H128.936ZM130.93 50.8736C132.261 54.1338 134.161 56.97 136.631 59.3725L138.025 57.939C135.759 55.7333 134.011 53.1296 132.782 50.1178L130.93 50.8736ZM136.641 59.3822C139.109 61.7169 142.037 63.5434 145.411 64.8667L146.141 63.0047C142.987 61.768 140.283 60.0745 138.015 57.9292L136.641 59.3822ZM145.433 64.875C148.883 66.1357 152.649 66.7597 156.72 66.7597V64.7597C152.855 64.7597 149.325 64.1677 146.119 62.9964L145.433 64.875ZM156.72 66.7597C159.151 66.7597 161.551 66.5297 163.919 66.0693L163.537 64.1061C161.297 64.5417 159.025 64.7597 156.72 64.7597V66.7597ZM163.945 66.0639C166.317 65.5367 168.392 64.805 170.154 63.8562L169.206 62.0952C167.64 62.9384 165.747 63.6147 163.511 64.1115L163.945 66.0639ZM170.68 62.9757V49.1517H168.68V62.9757H170.68ZM169.68 48.1517H155.856V50.1517H169.68V48.1517ZM156.856 49.1517V40.2237H154.856V49.1517H156.856ZM155.856 41.2237H178.992V39.2237H155.856V41.2237ZM177.992 40.2237V68.2557H179.992V40.2237H177.992ZM189.838 74.2077L188.916 73.8207L188.334 75.2077H189.838V74.2077ZM220.174 1.91965V0.919647H219.509L219.252 1.53269L220.174 1.91965ZM220.75 1.91965L221.672 1.53373L221.415 0.919647H220.75V1.91965ZM250.99 74.2077V75.2077H252.492L251.912 73.8218L250.99 74.2077ZM190.76 74.5947L221.096 2.30661L219.252 1.53269L188.916 73.8207L190.76 74.5947ZM220.174 2.91965H220.75V0.919647H220.174V2.91965ZM219.827 2.30557L250.067 74.5936L251.912 73.8218L221.672 1.53373L219.827 2.30557ZM250.99 73.2077L240.375 73.3397L239.654 75.2077H250.99V73.2077ZM231.375 47.9037L220.172 19.6544L219.537 21.2077L230.172 47.9037H231.375ZM220.172 19.6544L208.04 49.3397H209.672L220.777 21.2077L220.172 19.6544ZM198.958 73.2077H189.838V75.2077H199.37L199.097 74.2077L198.958 73.2077ZM208.04 49.3397H231.875L231.375 47.9037H209.672L208.04 49.3397ZM234.279 55.247L207.5 55L206.588 57.1469L233.457 57.2077L234.279 55.247ZM264.062 4.79965V3.79965H263.062V4.79965H264.062ZM273.374 4.79965H274.374V3.79965H273.374V4.79965ZM273.374 74.2077V75.2077H274.374V74.2077H273.374ZM264.062 74.2077H263.062V75.2077H264.062V74.2077ZM264.062 5.79965H273.374V3.79965H264.062V5.79965ZM272.374 4.79965V74.2077H274.374V4.79965H272.374ZM273.374 73.2077H264.062V75.2077H273.374V73.2077ZM265.062 74.2077V4.79965H263.062V74.2077H265.062Z" fill="#005380"/>
<path d="M1 4.79965V3.79965H0V4.79965H1ZM10.312 4.79965H11.312V3.79965H10.312V4.79965ZM10.312 74.2077V75.2077H11.312V74.2077H10.312ZM1 74.2077H0V75.2077H1V74.2077ZM1 5.79965H10.312V3.79965H1V5.79965ZM9.312 4.79965V74.2077H11.312V4.79965H9.312ZM10.312 73.2077H1V75.2077H10.312V73.2077ZM2 74.2077V4.79965H0V74.2077H2ZM39.6579 32.7357L40.6545 32.8187L40.6579 32.7773V32.7357H39.6579ZM39.37 36.1917L38.3734 36.1087L38.0747 39.6931L40.1806 36.7772L39.37 36.1917ZM40.618 34.4637L39.8958 33.7719L39.8479 33.822L39.8074 33.8782L40.618 34.4637ZM69.034 4.79965V3.79965H68.6071L68.3119 4.10789L69.034 4.79965ZM81.034 4.79965L81.7537 5.49387L83.3878 3.79965H81.034V4.79965ZM52.33 34.5597L51.6102 33.8655L51.0132 34.4844L51.5359 35.1674L52.33 34.5597ZM82.666 74.2077V75.2077H84.6902L83.4602 73.6L82.666 74.2077ZM70.858 74.2077L70.0588 74.8088L70.3588 75.2077H70.858V74.2077ZM45.514 40.5117L46.3131 39.9106L45.6326 39.0058L44.8187 39.7929L45.514 40.5117ZM39.6579 46.1757L38.9627 45.4569L38.6579 45.7517V46.1757H39.6579ZM39.6579 74.2077V75.2077H40.6579V74.2077H39.6579ZM30.25 74.2077H29.25V75.2077H30.25V74.2077ZM30.25 4.79965V3.79965H29.25V4.79965H30.25ZM39.6579 4.79965H40.6579V3.79965H39.6579V4.79965ZM38.6614 32.6527L38.3734 36.1087L40.3666 36.2747L40.6545 32.8187L38.6614 32.6527ZM40.1806 36.7772L41.4286 35.0492L39.8074 33.8782L38.5593 35.6062L40.1806 36.7772ZM41.3401 35.1555L69.7561 5.4914L68.3119 4.10789L39.8958 33.7719L41.3401 35.1555ZM69.034 5.79965H81.034V3.79965H69.034V5.79965ZM80.3142 4.10542L51.6102 33.8655L53.0497 35.2539L81.7537 5.49387L80.3142 4.10542ZM51.5359 35.1674L81.8718 74.8154L83.4602 73.6L53.1241 33.952L51.5359 35.1674ZM82.666 73.2077H70.858V75.2077H82.666V73.2077ZM71.6572 73.6066L46.3131 39.9106L44.7148 41.1128L70.0588 74.8088L71.6572 73.6066ZM44.8187 39.7929L38.9627 45.4569L40.3532 46.8945L46.2092 41.2305L44.8187 39.7929ZM38.6579 46.1757V74.2077H40.6579V46.1757H38.6579ZM39.6579 73.2077H30.25V75.2077H39.6579V73.2077ZM31.25 74.2077V4.79965H29.25V74.2077H31.25ZM30.25 5.79965H39.6579V3.79965H30.25V5.79965ZM38.6579 4.79965V32.7357H40.6579V4.79965H38.6579ZM95.4062 4.79965V3.79965H94.4062V4.79965H95.4062ZM104.718 4.79965H105.718V3.79965H104.718V4.79965ZM104.718 74.2077V75.2077H105.718V74.2077H104.718ZM95.4062 74.2077H94.4062V75.2077H95.4062V74.2077ZM95.4062 5.79965H104.718V3.79965H95.4062V5.79965ZM103.718 4.79965V74.2077H105.718V4.79965H103.718ZM104.718 73.2077H95.4062V75.2077H104.718V73.2077ZM96.4062 74.2077V4.79965H94.4062V74.2077H96.4062ZM178.992 68.2557L179.647 69.0114L179.992 68.7123V68.2557H178.992ZM174.96 70.7517L175.366 71.6655L175.38 71.6593L175.394 71.6527L174.96 70.7517ZM169.2 72.8637L168.91 71.9066L168.902 71.9092L169.2 72.8637ZM162.768 74.3997L162.599 73.4141L162.594 73.4149L162.768 74.3997ZM141.552 72.3837L141.188 73.315L141.192 73.3167L141.552 72.3837ZM130.128 65.1837L129.428 65.8981L129.435 65.9051L130.128 65.1837ZM122.832 54.3357L121.903 54.7071L121.908 54.7193L122.832 54.3357ZM123.12 25.3437L122.197 24.9591L122.194 24.9656L123.12 25.3437ZM142.32 6.52765L142.67 7.46463L142.682 7.45991L142.32 6.52765ZM176.304 9.11965L177.242 9.46731L177.539 8.66575L176.793 8.2475L176.304 9.11965ZM173.136 17.6637L172.622 18.5212L173.655 19.1411L174.074 18.0114L173.136 17.6637ZM168.336 15.5517L168.01 16.4971L168.02 16.5004L168.336 15.5517ZM162.576 14.0157L162.356 14.9911L162.371 14.9945L162.386 14.9975L162.576 14.0157ZM145.872 15.2637L146.215 16.203L146.223 16.2001L146.231 16.197L145.872 15.2637ZM137.328 20.6397L138.025 21.3565L138.035 21.3468L137.328 20.6397ZM131.856 29.0877L132.787 29.4528L132.789 29.4467L131.856 29.0877ZM137.328 58.6557L136.631 59.3725L136.641 59.3822L137.328 58.6557ZM145.776 63.9357L145.411 64.8667L145.422 64.8709L145.433 64.875L145.776 63.9357ZM163.728 65.0877L163.919 66.0693L163.932 66.0668L163.945 66.0639L163.728 65.0877ZM169.68 62.9757L170.154 63.8562L170.68 63.573V62.9757H169.68ZM169.68 49.1517H170.68V48.1517H169.68V49.1517ZM155.856 49.1517H154.856V50.1517H155.856V49.1517ZM155.856 40.2237V39.2237H154.856V40.2237H155.856ZM178.992 40.2237H179.992V39.2237H178.992V40.2237ZM178.337 67.5C177.469 68.2525 176.211 69.0397 174.526 69.8507L175.394 71.6527C177.165 70.7997 178.595 69.9229 179.647 69.0114L178.337 67.5ZM174.554 69.8379C172.869 70.5866 170.989 71.2766 168.91 71.9066L169.49 73.8207C171.635 73.1707 173.595 72.4528 175.366 71.6655L174.554 69.8379ZM168.902 71.9092C166.899 72.5352 164.798 73.0371 162.599 73.4141L162.937 75.3853C165.218 74.9943 167.406 74.4722 169.498 73.8182L168.902 71.9092ZM162.594 73.4149C160.467 73.7903 158.478 73.9757 156.624 73.9757V75.9757C158.61 75.9757 160.717 75.7771 162.942 75.3845L162.594 73.4149ZM156.624 73.9757C151.16 73.9757 146.26 73.1279 141.912 71.4507L141.192 73.3167C145.804 75.0955 150.952 75.9757 156.624 75.9757V73.9757ZM141.916 71.4525C137.614 69.7689 133.92 67.4374 130.821 64.4623L129.435 65.9051C132.736 69.074 136.658 71.5426 141.188 73.315L141.916 71.4525ZM130.828 64.4693C127.79 61.4938 125.433 57.9912 123.755 53.9521L121.908 54.7193C123.687 59.0002 126.194 62.7294 129.428 65.8981L130.828 64.4693ZM123.76 53.9643C122.148 49.9321 121.336 45.5474 121.336 40.7997H119.336C119.336 45.78 120.187 50.4191 121.903 54.7071L123.76 53.9643ZM121.336 40.7997C121.336 35.1471 122.247 30.1269 124.046 25.7218L122.194 24.9656C120.281 29.6485 119.336 34.9321 119.336 40.7997H121.336ZM124.043 25.7283C125.916 21.2339 128.434 17.4803 131.589 14.4488L130.203 13.0066C126.83 16.2471 124.164 20.2373 122.197 24.9591L124.043 25.7283ZM131.589 14.4488C134.819 11.3426 138.511 9.01643 142.67 7.46463L141.97 5.59074C137.553 7.23898 133.629 9.71258 130.203 13.0066L131.589 14.4488ZM142.682 7.45991C146.849 5.8426 151.27 5.03165 155.952 5.03165V3.03165C151.034 3.03165 146.367 3.88466 141.958 5.59538L142.682 7.45991ZM155.952 5.03165C159.905 5.03165 163.558 5.50215 166.916 6.43517L167.452 4.50813C163.898 3.52113 160.063 3.03165 155.952 3.03165V5.03165ZM166.916 6.43517C170.309 7.37768 173.273 8.56565 175.815 9.99179L176.793 8.2475C174.087 6.7296 170.971 5.48563 167.452 4.50813L166.916 6.43517ZM175.366 8.77199L172.198 17.316L174.074 18.0114L177.242 9.46731L175.366 8.77199ZM173.651 16.8062C172.29 15.99 170.619 15.2585 168.652 14.603L168.02 16.5004C169.893 17.1249 171.422 17.8012 172.622 18.5212L173.651 16.8062ZM168.662 14.6063C166.76 13.9505 164.795 13.4266 162.766 13.0339L162.386 14.9975C164.325 15.3728 166.2 15.8727 168.01 16.4971L168.662 14.6063ZM162.796 13.0403C160.752 12.5786 158.822 12.3437 157.008 12.3437V14.3437C158.65 14.3437 160.432 14.5566 162.356 14.9911L162.796 13.0403ZM157.008 12.3437C152.807 12.3437 148.971 13.0002 145.513 14.3304L146.231 16.197C149.429 14.967 153.017 14.3437 157.008 14.3437V12.3437ZM145.529 14.3244C142.072 15.5874 139.098 17.4556 136.621 19.9326L138.035 21.3468C140.294 19.0876 143.016 17.372 146.215 16.203L145.529 14.3244ZM136.631 19.923C134.151 22.3356 132.25 25.2766 130.923 28.7287L132.789 29.4467C134.022 26.2426 135.769 23.5519 138.025 21.3565L136.631 19.923ZM130.925 28.7226C129.592 32.1207 128.936 35.9273 128.936 40.1277H130.936C130.936 36.1359 131.56 32.5827 132.787 29.4528L130.925 28.7226ZM128.936 40.1277C128.936 44.0184 129.596 47.6045 130.93 50.8736L132.782 50.1178C131.556 47.1147 130.936 43.789 130.936 40.1277H128.936ZM130.93 50.8736C132.261 54.1338 134.161 56.97 136.631 59.3725L138.025 57.939C135.759 55.7333 134.011 53.1296 132.782 50.1178L130.93 50.8736ZM136.641 59.3822C139.109 61.7169 142.037 63.5434 145.411 64.8667L146.141 63.0047C142.987 61.768 140.283 60.0745 138.015 57.9292L136.641 59.3822ZM145.433 64.875C148.883 66.1357 152.649 66.7597 156.72 66.7597V64.7597C152.855 64.7597 149.325 64.1677 146.119 62.9964L145.433 64.875ZM156.72 66.7597C159.151 66.7597 161.551 66.5297 163.919 66.0693L163.537 64.1061C161.297 64.5417 159.025 64.7597 156.72 64.7597V66.7597ZM163.945 66.0639C166.317 65.5367 168.392 64.805 170.154 63.8562L169.206 62.0952C167.64 62.9384 165.747 63.6147 163.511 64.1115L163.945 66.0639ZM170.68 62.9757V49.1517H168.68V62.9757H170.68ZM169.68 48.1517H155.856V50.1517H169.68V48.1517ZM156.856 49.1517V40.2237H154.856V49.1517H156.856ZM155.856 41.2237H178.992V39.2237H155.856V41.2237ZM177.992 40.2237V68.2557H179.992V40.2237H177.992ZM189.838 74.2077L188.916 73.8207L188.334 75.2077H189.838V74.2077ZM220.174 1.91965V0.919647H219.509L219.252 1.53269L220.174 1.91965ZM220.75 1.91965L221.672 1.53373L221.415 0.919647H220.75V1.91965ZM250.99 74.2077V75.2077H252.492L251.912 73.8218L250.99 74.2077ZM190.76 74.5947L221.096 2.30661L219.252 1.53269L188.916 73.8207L190.76 74.5947ZM220.174 2.91965H220.75V0.919647H220.174V2.91965ZM219.827 2.30557L250.067 74.5936L251.912 73.8218L221.672 1.53373L219.827 2.30557ZM250.99 73.2077L240.375 73.3397L239.654 75.2077H250.99V73.2077ZM231.375 47.9037L220.172 19.6544L219.537 21.2077L230.172 47.9037H231.375ZM220.172 19.6544L208.04 49.3397H209.672L220.777 21.2077L220.172 19.6544ZM198.958 73.2077H189.838V75.2077H199.37L199.097 74.2077L198.958 73.2077ZM208.04 49.3397H231.875L231.375 47.9037H209.672L208.04 49.3397ZM234.279 55.247L207.5 55L206.588 57.1469L233.457 57.2077L234.279 55.247ZM264.062 4.79965V3.79965H263.062V4.79965H264.062ZM273.374 4.79965H274.374V3.79965H273.374V4.79965ZM273.374 74.2077V75.2077H274.374V74.2077H273.374ZM264.062 74.2077H263.062V75.2077H264.062V74.2077ZM264.062 5.79965H273.374V3.79965H264.062V5.79965ZM272.374 4.79965V74.2077H274.374V4.79965H272.374ZM273.374 73.2077H264.062V75.2077H273.374V73.2077ZM265.062 74.2077V4.79965H263.062V74.2077H265.062Z" fill="#005380"/>
<path d="M239.654 75.2077L233.457 57.2077L234.279 55.247L240.375 73.3397L239.654 75.2077Z" fill="#005380"/>
<path d="M207.5 55H206L198.958 73.2077L199.097 74.2077L199.37 75.2077L207.5 55Z" fill="#005380"/>
</svg>
