<svg width="50" height="50" viewBox="0 0 50 50" fill="none" xmlns="http://www.w3.org/2000/svg">
<circle cx="25" cy="25" r="24.25" stroke="#0285CC" stroke-width="1.5"/>
<path d="M16.0811 13H11.2162C10.5116 13 10 13.4882 10 14.1606V36.5995C10 37.2719 10.5116 37.7601 11.2162 37.7601H16.0811H33.9189H38.7838C39.4884 37.7601 40 37.2719 40 36.5995V14.1606C40 13.4882 39.4884 13 38.7838 13H33.9189H16.0811ZM10.8108 36.5995V14.1606C10.8108 13.9184 10.9624 13.7738 11.2162 13.7738H15.6757V36.9864H11.2162C10.9624 36.9864 10.8108 36.8417 10.8108 36.5995ZM16.4865 36.9864V13.7738H33.5135V36.9864H16.4865ZM39.1892 14.1606V36.5995C39.1892 36.8417 39.0376 36.9864 38.7838 36.9864H34.3243V13.7738H38.7838C39.0376 13.7738 39.1892 13.9184 39.1892 14.1606Z" fill="#02A6FF"/>
<path d="M21.9816 20.8033C21.8575 20.7243 21.697 20.7166 21.5648 20.7839C21.4343 20.8512 21.3516 20.982 21.3516 21.1251V30.4102C21.3516 30.5533 21.4343 30.6841 21.5656 30.7514C21.6256 30.7816 21.6913 30.7971 21.757 30.7971C21.8356 30.7971 21.9135 30.7754 21.9816 30.7321L29.2789 26.0896C29.3916 26.0176 29.4597 25.8969 29.4597 25.7677C29.4597 25.6385 29.3916 25.5177 29.2789 25.4458L21.9816 20.8033ZM22.1624 29.6875V21.8478L28.3237 25.7677L22.1624 29.6875Z" fill="#02A6FF"/>
<path d="M14.0544 19.1895H12.4327C12.209 19.1895 12.0273 19.3628 12.0273 19.5763C12.0273 19.7899 12.209 19.9632 12.4327 19.9632H14.0544C14.2782 19.9632 14.4598 19.7899 14.4598 19.5763C14.4598 19.3628 14.2782 19.1895 14.0544 19.1895Z" fill="#02A6FF"/>
<path d="M12.4327 16.8695H14.0544C14.2782 16.8695 14.4598 16.6961 14.4598 16.4826C14.4598 16.269 14.2782 16.0957 14.0544 16.0957H12.4327C12.209 16.0957 12.0273 16.269 12.0273 16.4826C12.0273 16.6961 12.209 16.8695 12.4327 16.8695Z" fill="#02A6FF"/>
<path d="M14.0544 22.2852H12.4327C12.209 22.2852 12.0273 22.4585 12.0273 22.672C12.0273 22.8856 12.209 23.0589 12.4327 23.0589H14.0544C14.2782 23.0589 14.4598 22.8856 14.4598 22.672C14.4598 22.4585 14.2782 22.2852 14.0544 22.2852Z" fill="#02A6FF"/>
<path d="M14.0544 25.3809H12.4327C12.209 25.3809 12.0273 25.5542 12.0273 25.7677C12.0273 25.9813 12.209 26.1546 12.4327 26.1546H14.0544C14.2782 26.1546 14.4598 25.9813 14.4598 25.7677C14.4598 25.5542 14.2782 25.3809 14.0544 25.3809Z" fill="#02A6FF"/>
<path d="M14.0544 28.4746H12.4327C12.209 28.4746 12.0273 28.6479 12.0273 28.8615C12.0273 29.075 12.209 29.2484 12.4327 29.2484H14.0544C14.2782 29.2484 14.4598 29.075 14.4598 28.8615C14.4598 28.6479 14.2782 28.4746 14.0544 28.4746Z" fill="#02A6FF"/>
<path d="M14.0544 31.5703H12.4327C12.209 31.5703 12.0273 31.7436 12.0273 31.9572C12.0273 32.1707 12.209 32.3441 12.4327 32.3441H14.0544C14.2782 32.3441 14.4598 32.1707 14.4598 31.9572C14.4598 31.7436 14.2782 31.5703 14.0544 31.5703Z" fill="#02A6FF"/>
<path d="M14.0544 34.666H12.4327C12.209 34.666 12.0273 34.8393 12.0273 35.0529C12.0273 35.2664 12.209 35.4398 12.4327 35.4398H14.0544C14.2782 35.4398 14.4598 35.2664 14.4598 35.0529C14.4598 34.8393 14.2782 34.666 14.0544 34.666Z" fill="#02A6FF"/>
<path d="M35.9464 19.9632H37.568C37.7918 19.9632 37.9734 19.7899 37.9734 19.5763C37.9734 19.3628 37.7918 19.1895 37.568 19.1895H35.9464C35.7226 19.1895 35.541 19.3628 35.541 19.5763C35.541 19.7899 35.7226 19.9632 35.9464 19.9632Z" fill="#02A6FF"/>
<path d="M35.9464 16.8695H37.568C37.7918 16.8695 37.9734 16.6961 37.9734 16.4826C37.9734 16.269 37.7918 16.0957 37.568 16.0957H35.9464C35.7226 16.0957 35.541 16.269 35.541 16.4826C35.541 16.6961 35.7226 16.8695 35.9464 16.8695Z" fill="#02A6FF"/>
<path d="M35.9464 23.0589H37.568C37.7918 23.0589 37.9734 22.8856 37.9734 22.672C37.9734 22.4585 37.7918 22.2852 37.568 22.2852H35.9464C35.7226 22.2852 35.541 22.4585 35.541 22.672C35.541 22.8856 35.7226 23.0589 35.9464 23.0589Z" fill="#02A6FF"/>
<path d="M35.9464 26.1546H37.568C37.7918 26.1546 37.9734 25.9813 37.9734 25.7677C37.9734 25.5542 37.7918 25.3809 37.568 25.3809H35.9464C35.7226 25.3809 35.541 25.5542 35.541 25.7677C35.541 25.9813 35.7226 26.1546 35.9464 26.1546Z" fill="#02A6FF"/>
<path d="M35.9464 29.2484H37.568C37.7918 29.2484 37.9734 29.075 37.9734 28.8615C37.9734 28.6479 37.7918 28.4746 37.568 28.4746H35.9464C35.7226 28.4746 35.541 28.6479 35.541 28.8615C35.541 29.075 35.7226 29.2484 35.9464 29.2484Z" fill="#02A6FF"/>
<path d="M35.9464 32.3441H37.568C37.7918 32.3441 37.9734 32.1707 37.9734 31.9572C37.9734 31.7436 37.7918 31.5703 37.568 31.5703H35.9464C35.7226 31.5703 35.541 31.7436 35.541 31.9572C35.541 32.1707 35.7226 32.3441 35.9464 32.3441Z" fill="#02A6FF"/>
<path d="M37.568 34.666H35.9464C35.7226 34.666 35.541 34.8393 35.541 35.0529C35.541 35.2664 35.7226 35.4398 35.9464 35.4398H37.568C37.7918 35.4398 37.9734 35.2664 37.9734 35.0529C37.9734 34.8393 37.7918 34.666 37.568 34.666Z" fill="#02A6FF"/>
</svg>
