<svg width="50" height="50" viewBox="0 0 50 50" fill="none" xmlns="http://www.w3.org/2000/svg">
<circle cx="25" cy="25" r="24.25" stroke="#0285CC" stroke-width="1.5"/>
<path d="M38.8895 10.9609H11.1099C10.0675 10.9609 9.06785 11.3746 8.33081 12.1108C7.59376 12.8471 7.17969 13.8457 7.17969 14.8869V34.395C7.17969 35.4362 7.59376 36.4348 8.33081 37.171C9.06785 37.9073 10.0675 38.3209 11.1099 38.3209H38.8895C39.9319 38.3209 40.9315 37.9073 41.6686 37.171C42.4056 36.4348 42.8197 35.4362 42.8197 34.395V14.8869C42.8197 13.8457 42.4056 12.8471 41.6686 12.1108C40.9315 11.3746 39.9319 10.9609 38.8895 10.9609ZM11.1099 12.4484H38.8895C39.5369 12.4484 40.1578 12.7053 40.6156 13.1626C41.0734 13.62 41.3306 14.2402 41.3306 14.8869V16.6426H8.66876V14.8869C8.66876 14.2402 8.92594 13.62 9.38374 13.1626C9.84153 12.7053 10.4624 12.4484 11.1099 12.4484ZM38.8895 36.8335H11.1099C10.4624 36.8335 9.84153 36.5765 9.38374 36.1192C8.92594 35.6619 8.66876 35.0417 8.66876 34.395V18.1301H41.3306V34.395C41.3306 34.7152 41.2675 35.0323 41.1448 35.3281C41.0221 35.624 40.8423 35.8928 40.6156 36.1192C40.389 36.3457 40.1199 36.5253 39.8237 36.6478C39.5275 36.7704 39.2101 36.8335 38.8895 36.8335Z" fill="#0285CC"/>
<path d="M10.7984 15.2451C10.922 15.256 11.0459 15.2291 11.1538 15.168C11.2617 15.1069 11.3485 15.0145 11.4027 14.9029C11.4569 14.7914 11.4759 14.666 11.4573 14.5434C11.4386 14.4208 11.3832 14.3068 11.2983 14.2164C11.2134 14.126 11.103 14.0636 10.9818 14.0373C10.8607 14.0111 10.7343 14.0222 10.6196 14.0694C10.5049 14.1165 10.4073 14.1973 10.3395 14.3012C10.2718 14.4051 10.2373 14.5271 10.2404 14.6511C10.2443 14.8013 10.3033 14.9449 10.4062 15.0545C10.5091 15.164 10.6487 15.2319 10.7984 15.2451Z" fill="#0285CC"/>
<path d="M12.3286 15.2433C12.4511 15.2468 12.5719 15.2135 12.6752 15.1477C12.7786 15.0818 12.8598 14.9864 12.9083 14.8739C12.9569 14.7614 12.9705 14.6369 12.9475 14.5165C12.9244 14.3961 12.8658 14.2854 12.7791 14.1988C12.6925 14.1121 12.5818 14.0535 12.4614 14.0304C12.341 14.0074 12.2165 14.021 12.104 14.0696C11.9915 14.1181 11.8961 14.1993 11.8302 14.3027C11.7644 14.406 11.7311 14.5268 11.7346 14.6493C11.7392 14.8054 11.8032 14.9539 11.9136 15.0643C12.0241 15.1747 12.1725 15.2387 12.3286 15.2433Z" fill="#0285CC"/>
<path d="M13.8404 15.2433C13.9629 15.2468 14.0836 15.2135 14.187 15.1477C14.2903 15.0818 14.3715 14.9864 14.4201 14.8739C14.4686 14.7614 14.4822 14.6369 14.4592 14.5165C14.4361 14.3961 14.3775 14.2854 14.2908 14.1988C14.2042 14.1121 14.0935 14.0535 13.9731 14.0304C13.8528 14.0074 13.7283 14.021 13.6157 14.0696C13.5032 14.1181 13.4078 14.1993 13.342 14.3027C13.2761 14.406 13.2428 14.5268 13.2464 14.6493C13.2509 14.8054 13.3149 14.9539 13.4253 15.0643C13.5358 15.1747 13.6842 15.2387 13.8404 15.2433Z" fill="#0285CC"/>
<path d="M26.8006 25.3067L26.0986 26.8907L25.3786 25.3067C25.3786 25.3067 25.3786 25.3067 25.2526 25.1807C25.1266 25.0547 25.2526 25.0727 25.1086 25.0367C25.1086 25.0367 24.9826 25.0367 24.9106 25.0367C24.841 25.0104 24.7642 25.0104 24.6946 25.0367C24.6946 25.0367 24.5866 25.1447 24.5506 25.1807C24.5146 25.2167 24.4426 25.1807 24.4066 25.3067L23.7046 26.8907L23.0026 25.3067C22.9772 25.2292 22.9356 25.158 22.8806 25.0978C22.8256 25.0375 22.7585 24.9897 22.6836 24.9574C22.6087 24.925 22.5279 24.909 22.4463 24.9102C22.3648 24.9115 22.2844 24.9301 22.2106 24.9647C22.1453 24.9939 22.0864 25.0357 22.0373 25.0878C21.9883 25.1399 21.9501 25.2012 21.925 25.2682C21.8999 25.3352 21.8883 25.4065 21.891 25.478C21.8937 25.5495 21.9105 25.6198 21.9406 25.6847L23.2006 28.5647C23.2608 28.6695 23.3478 28.7564 23.4526 28.8167H23.6686H23.8846C23.996 28.7591 24.0894 28.6719 24.1546 28.5647L24.8566 26.9627L25.5766 28.5647C25.6368 28.6695 25.7238 28.7564 25.8286 28.8167C25.9055 28.8351 25.9857 28.8351 26.0626 28.8167H26.2786C26.3834 28.7564 26.4703 28.6695 26.5306 28.5647L27.7546 25.8467C27.8093 25.7128 27.8098 25.5628 27.7561 25.4285C27.7024 25.2942 27.5986 25.186 27.4666 25.1267C27.352 25.0743 27.2227 25.0636 27.1011 25.0965C26.9795 25.1294 26.8732 25.2037 26.8006 25.3067Z" fill="#0285CC"/>
<path d="M32.9565 25.3075L32.2545 26.8915L31.5345 25.3075C31.5345 25.3075 31.4445 25.3075 31.4085 25.1815C31.3725 25.0555 31.4085 25.0735 31.2645 25.0375C31.1949 25.0112 31.1182 25.0112 31.0485 25.0375C31.0485 25.0375 30.9225 25.0375 30.8505 25.0375C30.8505 25.0375 30.7605 25.1275 30.7065 25.1815C30.6525 25.2355 30.5985 25.1815 30.5805 25.3075L29.8605 26.8915L29.1585 25.3075C29.1294 25.2421 29.0875 25.1832 29.0354 25.1342C28.9833 25.0852 28.922 25.047 28.855 25.0219C28.788 24.9968 28.7167 24.9852 28.6452 24.9879C28.5737 24.9906 28.5035 25.0074 28.4385 25.0375C28.3716 25.0649 28.3109 25.1055 28.26 25.1569C28.2091 25.2083 28.169 25.2693 28.1421 25.3365C28.1153 25.4037 28.1022 25.4755 28.1036 25.5478C28.1051 25.6202 28.121 25.6914 28.1505 25.7575L29.3385 28.5655C29.3988 28.6703 29.4858 28.7572 29.5905 28.8175H29.8065C29.8835 28.8358 29.9636 28.8358 30.0405 28.8175C30.185 28.7753 30.3115 28.6868 30.4005 28.5655L31.1205 26.9635L31.8225 28.5655C31.8828 28.6703 31.9698 28.7572 32.0745 28.8175C32.1517 28.834 32.2314 28.834 32.3085 28.8175H32.5245C32.6345 28.7577 32.7274 28.671 32.7945 28.5655L34.0005 25.7575C34.0301 25.6914 34.046 25.6202 34.0475 25.5478C34.0489 25.4755 34.0358 25.4037 34.009 25.3365C33.9821 25.2693 33.942 25.2083 33.8911 25.1569C33.8402 25.1055 33.7795 25.0649 33.7125 25.0375C33.6459 25.0015 33.5725 24.98 33.497 24.9742C33.4216 24.9685 33.3457 24.9787 33.2744 25.0041C33.2031 25.0296 33.138 25.0697 33.0832 25.122C33.0285 25.1743 32.9853 25.2374 32.9565 25.3075Z" fill="#0285CC"/>
<path d="M20.6093 25.3063L19.9073 26.8903L19.2053 25.3063C19.1654 25.2606 19.1163 25.2238 19.0613 25.1983C19.0413 25.1062 18.9905 25.0237 18.9173 24.9643C18.8477 24.9381 18.7709 24.9381 18.7013 24.9643C18.7013 24.9643 18.5753 24.9643 18.5033 24.9643L18.3593 25.1083C18.3593 25.1083 18.2513 25.1083 18.2333 25.2343L17.5133 26.8183L16.8113 25.2343C16.784 25.1566 16.7393 25.0861 16.6806 25.0282C16.6219 24.9704 16.5507 24.9268 16.4725 24.9008C16.3943 24.8747 16.3112 24.8669 16.2295 24.8779C16.1478 24.8889 16.0698 24.9185 16.0013 24.9643C15.8693 25.0236 15.7655 25.1318 15.7118 25.2661C15.6581 25.4005 15.6586 25.5504 15.7133 25.6843L16.9913 28.5643C17.0516 28.6691 17.1385 28.7561 17.2433 28.8163H17.4593C17.5362 28.8347 17.6164 28.8347 17.6933 28.8163H17.8013C17.8798 28.7472 17.9413 28.661 17.9813 28.5643L18.7013 26.9623L19.4033 28.5643C19.4635 28.6691 19.5505 28.7561 19.6553 28.8163H19.8713H20.0873C20.2185 28.7675 20.3316 28.6795 20.4113 28.5643L21.6173 25.8463C21.6795 25.7808 21.7242 25.7006 21.7473 25.6133C21.7705 25.5259 21.7714 25.4342 21.7499 25.3464C21.7284 25.2587 21.6852 25.1777 21.6243 25.1109C21.5634 25.0442 21.4867 24.9938 21.4013 24.9643C21.3275 24.9297 21.2471 24.9111 21.1656 24.9099C21.084 24.9086 21.0031 24.9247 20.9283 24.957C20.8534 24.9893 20.7863 25.0372 20.7313 25.0974C20.6763 25.1576 20.6347 25.2288 20.6093 25.3063Z" fill="#0285CC"/>
</svg>
