<svg width="50" height="50" viewBox="0 0 50 50" fill="none" xmlns="http://www.w3.org/2000/svg">
<circle cx="25" cy="25" r="24.25" stroke="#005380" stroke-width="1.5"/>
<path d="M42.9998 11.9299C43.0168 10.9092 42.6472 9.96811 41.9591 9.27998C41.5857 8.90666 40.9804 8.90666 40.6071 9.28003C40.2338 9.65339 40.2337 10.2587 40.6071 10.632C40.9256 10.9504 41.0964 11.4 41.0881 11.8979C41.0802 12.373 40.9003 12.8317 40.6071 13.1249C39.9988 13.7332 33.9357 19.0562 29.2004 23.1979L28.0398 22.0375C31.4967 18.0822 35.7866 13.1914 37.4646 11.3344L37.8463 11.7162C38.2197 12.0896 38.825 12.0896 39.1983 11.7163C39.5717 11.343 39.5717 10.7377 39.1984 10.3643L38.1143 9.28008C37.935 9.10078 37.6918 9.00002 37.4383 9.00002H37.4382C37.1847 9.00002 36.9416 9.10073 36.7623 9.27998C36.1805 9.86171 32.6219 13.9034 29.411 17.5676C28.5475 16.2606 27.3942 15.1362 26.0223 14.2731C24.0171 13.0117 21.6794 12.3721 19.074 12.3721C18.5008 12.3721 17.9338 12.4082 17.3887 12.4796C16.8652 12.5481 16.4963 13.028 16.5648 13.5516C16.6334 14.0751 17.1132 14.4439 17.6368 14.3754C18.0999 14.3148 18.5835 14.284 19.0739 14.284C23.041 14.284 26.3688 16.0626 28.0944 19.071C26.4841 20.9111 25.1006 22.4959 24.4334 23.2606C23.2424 23.4229 22.3536 23.9103 21.727 24.7461C21.1443 25.5232 20.8889 26.4513 20.6186 27.4339C20.2926 28.6186 19.9555 29.8437 18.9942 30.805C18.7207 31.0784 18.639 31.4896 18.7869 31.8468C18.9349 32.2041 19.2835 32.437 19.6702 32.437C22.243 32.437 24.2822 31.8886 25.7312 30.8071C27.0369 29.8324 27.8152 28.4486 27.9993 26.7869C30.4625 24.6356 41.0756 15.3603 41.9591 14.4769C42.6042 13.8318 42.9835 12.9034 42.9998 11.9299ZM27.7577 24.4593C27.4704 24.7103 27.1919 24.9536 26.9241 25.1874L26.0513 24.3146C26.2849 24.0468 26.5281 23.7681 26.7791 23.4807L27.7577 24.4593ZM24.5875 29.2749C23.8355 29.8362 22.8347 30.2103 21.5995 30.3935C22.0198 29.5484 22.2556 28.6915 22.4621 27.9411C22.9052 26.3308 23.1751 25.5226 24.2669 25.2342L26.0321 26.9993C25.8378 27.939 25.3542 28.7026 24.5875 29.2749Z" fill="#005380"/>
<path d="M14.4042 15.2948C14.5434 15.2948 14.6849 15.2642 14.8187 15.1997C14.9045 15.1583 14.9926 15.1176 15.0806 15.0789C15.5636 14.8656 15.7823 14.3012 15.5691 13.8182C15.3558 13.3352 14.7915 13.1165 14.3084 13.3297C14.201 13.3771 14.0933 13.4268 13.9883 13.4774C13.5127 13.7067 13.3131 14.2782 13.5423 14.7537C13.7071 15.0955 14.0486 15.2948 14.4042 15.2948Z" fill="#005380"/>
<path d="M21.3116 33.4996C20.7841 33.4945 20.3509 33.9169 20.3449 34.4448C20.3036 38.12 19.7488 39.7595 16.5704 39.7595C14.7886 39.7595 12.9187 38.4561 11.4402 36.1835C9.80986 33.6775 8.91199 30.4239 8.91199 27.022C8.91199 22.6057 10.2456 18.931 12.6672 16.675C13.0535 16.3152 13.0749 15.7102 12.715 15.3239C12.3552 14.9376 11.7502 14.9162 11.3639 15.276C9.93749 16.6049 8.83384 18.3315 8.08353 20.408C7.36452 22.3977 7 24.623 7 27.022C7 30.7897 8.00776 34.4136 9.83754 37.2261C11.6755 40.0513 14.1296 41.6716 16.5704 41.6716C18.905 41.6716 20.5322 40.85 21.4066 39.2299C22.1573 37.8387 22.2391 36.0416 22.2567 34.4663C22.2627 33.9383 21.8395 33.5055 21.3116 33.4996Z" fill="#005380"/>
<path d="M26.0165 19.3412C26.0165 17.585 24.5877 16.1562 22.8315 16.1562C21.0753 16.1562 19.6465 17.585 19.6465 19.3412C19.6465 21.0974 21.0753 22.5262 22.8315 22.5262C24.5877 22.5262 26.0165 21.0974 26.0165 19.3412ZM21.5585 19.3412C21.5585 18.6393 22.1295 18.0682 22.8315 18.0682C23.5335 18.0682 24.1045 18.6393 24.1045 19.3412C24.1045 20.0432 23.5335 20.6143 22.8315 20.6143C22.1295 20.6142 21.5585 20.0431 21.5585 19.3412Z" fill="#005380"/>
<path d="M15.2397 23.6707C16.9959 23.6707 18.4247 22.2419 18.4247 20.4858C18.4247 18.7296 16.9959 17.3008 15.2397 17.3008C13.4835 17.3008 12.0547 18.7296 12.0547 20.4858C12.0547 22.2419 13.4835 23.6707 15.2397 23.6707ZM15.2397 19.2128C15.9416 19.2128 16.5127 19.7838 16.5127 20.4858C16.5127 21.1877 15.9416 21.7587 15.2397 21.7587C14.5377 21.7587 13.9667 21.1877 13.9667 20.4858C13.9667 19.7838 14.5378 19.2128 15.2397 19.2128Z" fill="#005380"/>
<path d="M15.9852 27.8042C15.9852 26.048 14.5564 24.6191 12.8002 24.6191C11.044 24.6191 9.61523 26.048 9.61523 27.8042C9.61523 29.5604 11.044 30.9891 12.8002 30.9891C14.5564 30.9891 15.9852 29.5604 15.9852 27.8042ZM12.8002 29.0771C12.0983 29.0771 11.5272 28.5061 11.5272 27.8042C11.5272 27.1022 12.0983 26.5311 12.8002 26.5311C13.5022 26.5311 14.0732 27.1022 14.0732 27.8042C14.0732 28.5061 13.5022 29.0771 12.8002 29.0771Z" fill="#005380"/>
<path d="M16.1478 38.4402C17.9041 38.4402 19.3329 37.0114 19.3329 35.2553C19.3329 33.4991 17.9041 32.0703 16.1478 32.0703C14.3917 32.0703 12.9629 33.4991 12.9629 35.2553C12.9629 37.0114 14.3917 38.4402 16.1478 38.4402ZM16.1478 33.9823C16.8498 33.9823 17.4209 34.5533 17.4209 35.2553C17.4209 35.9572 16.8498 36.5282 16.1478 36.5282C15.4459 36.5282 14.8749 35.9572 14.8749 35.2553C14.8749 34.5533 15.4459 33.9823 16.1478 33.9823Z" fill="#005380"/>
</svg>
