<svg width="50" height="50" viewBox="0 0 50 50" fill="none" xmlns="http://www.w3.org/2000/svg">
<circle cx="25" cy="25" r="24.25" stroke="#0285CC" stroke-width="1.5"/>
<path fill-rule="evenodd" clip-rule="evenodd" d="M21.362 13.4805C18.7252 13.5427 16.2174 14.6339 14.3745 16.5208C12.5317 18.4077 11.5 20.9406 11.5 23.5781C11.5 26.2156 12.5317 28.7484 14.3745 30.6353C16.2174 32.5222 18.7252 33.6134 21.362 33.6757H21.8124V25.6696C21.8124 25.0729 22.2684 24.3072 22.8708 24.3072H31.4286C31.4286 23.975 31.4624 23.7442 31.4624 23.564C31.449 20.8909 30.38 18.3313 28.4883 16.4427C26.5965 14.554 24.0351 13.4893 21.362 13.4805ZM29.4243 22.7138H26.8232C26.7737 20.6169 26.2866 18.5535 25.3931 16.6558C26.4872 17.2858 27.4205 18.1606 28.1199 19.2116C28.8193 20.2626 29.2657 21.4614 29.4243 22.7138ZM20.2078 16.0759V22.7138H17.8994C18.074 19.5497 19.0705 17.05 20.2078 16.0759ZM20.2078 24.4423V31.0745C19.0818 30.1005 18.074 27.612 17.8994 24.4423H20.2078ZM22.5161 22.7138V16.0759C23.6422 17.05 24.6556 19.5497 24.8245 22.7138H22.5161ZM17.3252 16.6558C16.447 18.5586 15.9625 20.6192 15.9008 22.7138H13.2828C13.4408 21.4598 13.8883 20.2597 14.5899 19.2083C15.2914 18.157 16.2279 17.2831 17.3252 16.6558ZM13.2884 24.7294H15.9064C15.9547 26.8198 16.4379 28.8772 17.3252 30.7705C16.2316 30.1436 15.298 29.2719 14.5977 28.2238C13.8973 27.1757 13.4492 25.9797 13.2884 24.7294Z" fill="#0285CC"/>
<path fill-rule="evenodd" clip-rule="evenodd" d="M37.092 26.0195H24.8353C24.462 26.0195 24.104 26.1678 23.84 26.4318C23.576 26.6957 23.4277 27.0538 23.4277 27.4271V34.2676C23.4277 34.6409 23.576 34.9989 23.84 35.2629C24.104 35.5269 24.462 35.6752 24.8353 35.6752H37.092C37.4653 35.6752 37.8233 35.5269 38.0873 35.2629C38.3512 34.9989 38.4995 34.6409 38.4995 34.2676V27.4271C38.4995 27.0538 38.3512 26.6957 38.0873 26.4318C37.8233 26.1678 37.4653 26.0195 37.092 26.0195ZM26.4849 34.2676C26.4909 34.0517 26.4543 33.8367 26.3771 33.635C26.3 33.4332 26.1839 33.2486 26.0354 33.0918C25.8869 32.9349 25.709 32.8089 25.5117 32.7208C25.3145 32.6328 25.1018 32.5844 24.8859 32.5786H24.8409V29.0823C25.2765 29.0929 25.6987 28.9307 26.0151 28.6311C26.3316 28.3316 26.5167 27.9189 26.5299 27.4834V27.4439H35.4311C35.4311 27.8746 35.6006 28.2879 35.903 28.5946C36.2054 28.9012 36.6164 29.0764 37.047 29.0823H37.092V32.6011C36.8754 32.5959 36.6598 32.6334 36.4576 32.7115C36.2555 32.7896 36.0707 32.9067 35.9139 33.0563C35.757 33.2058 35.6312 33.3848 35.5435 33.583C35.4558 33.7812 35.4081 33.9947 35.403 34.2113V34.262L26.4849 34.2676Z" fill="#0285CC"/>
<path d="M30.9623 33.0906C32.2683 33.0906 33.3269 32.0319 33.3269 30.726C33.3269 29.42 32.2683 28.3613 30.9623 28.3613C29.6563 28.3613 28.5977 29.42 28.5977 30.726C28.5977 32.0319 29.6563 33.0906 30.9623 33.0906Z" fill="#0285CC"/>
</svg>
