<svg width="376" height="37" viewBox="0 0 376 37" fill="none" xmlns="http://www.w3.org/2000/svg">
<mask id="path-1-outside-1_2962_2" maskUnits="userSpaceOnUse" x="2" y="4" width="374" height="31" fill="black">
<rect fill="white" x="2" y="4" width="374" height="31"/>
<path d="M7.75324 33H4.06724V5.773H7.75324V33ZM24.0846 17.705H25.4716C25.953 17.705 26.3393 17.648 26.6306 17.534C26.922 17.4073 27.188 17.1983 27.4286 16.907L36.4916 6.647C36.745 6.31766 37.011 6.08966 37.2896 5.963C37.5683 5.83633 37.9103 5.773 38.3156 5.773H41.4316L31.0576 17.496C30.8043 17.8 30.5573 18.0533 30.3166 18.256C30.0886 18.446 29.8416 18.6043 29.5756 18.731C29.9176 18.845 30.228 19.016 30.5066 19.244C30.7853 19.4593 31.0576 19.7443 31.3236 20.099L42.1536 33H38.9616C38.721 33 38.512 32.9873 38.3346 32.962C38.17 32.924 38.0243 32.8733 37.8976 32.81C37.771 32.734 37.657 32.6517 37.5556 32.563C37.467 32.4617 37.3783 32.3477 37.2896 32.221L27.9036 21.41C27.6503 21.0933 27.378 20.8717 27.0866 20.745C26.7953 20.6057 26.352 20.536 25.7566 20.536H24.0846V33H20.4176V5.773H24.0846V17.705ZM54.9638 33H51.2778V5.773H54.9638V33ZM89.7442 19.909V30.359C88.3762 31.347 86.9132 32.088 85.3552 32.582C83.8098 33.0633 82.1125 33.304 80.2632 33.304C78.0718 33.304 76.0958 32.9683 74.3352 32.297C72.5745 31.613 71.0672 30.663 69.8132 29.447C68.5718 28.2183 67.6155 26.749 66.9442 25.039C66.2728 23.329 65.9372 21.448 65.9372 19.396C65.9372 17.3187 66.2602 15.425 66.9062 13.715C67.5648 12.005 68.4958 10.542 69.6992 9.326C70.9025 8.09733 72.3655 7.14733 74.0882 6.476C75.8108 5.80466 77.7362 5.469 79.8642 5.469C80.9408 5.469 81.9415 5.55133 82.8662 5.716C83.7908 5.868 84.6458 6.096 85.4312 6.4C86.2165 6.69133 86.9448 7.05233 87.6162 7.483C88.2875 7.901 88.9145 8.376 89.4972 8.908L88.4522 10.58C88.2875 10.8333 88.0722 10.998 87.8062 11.074C87.5528 11.1373 87.2678 11.074 86.9512 10.884C86.6472 10.7067 86.2988 10.4913 85.9062 10.238C85.5135 9.98467 85.0322 9.744 84.4622 9.516C83.9048 9.27533 83.2398 9.07267 82.4672 8.908C81.7072 8.74333 80.8015 8.661 79.7502 8.661C78.2175 8.661 76.8305 8.91433 75.5892 9.421C74.3478 9.915 73.2902 10.6307 72.4162 11.568C71.5422 12.4927 70.8708 13.62 70.4022 14.95C69.9335 16.2673 69.6992 17.7493 69.6992 19.396C69.6992 21.106 69.9398 22.6387 70.4212 23.994C70.9152 25.3367 71.6118 26.483 72.5112 27.433C73.4232 28.3703 74.5252 29.086 75.8172 29.58C77.1092 30.074 78.5595 30.321 80.1682 30.321C81.4348 30.321 82.5558 30.1817 83.5312 29.903C84.5192 29.6117 85.4818 29.2127 86.4192 28.706V22.721H82.1822C81.9415 22.721 81.7452 22.6513 81.5932 22.512C81.4538 22.3727 81.3842 22.2017 81.3842 21.999V19.909H89.7442ZM115.322 22.892L111.047 11.815C110.921 11.4857 110.788 11.1057 110.648 10.675C110.509 10.2317 110.376 9.763 110.249 9.269C109.983 10.295 109.711 11.15 109.432 11.834L105.157 22.892H115.322ZM122.998 33H120.148C119.819 33 119.553 32.9177 119.35 32.753C119.148 32.5883 118.996 32.3793 118.894 32.126L116.348 25.552H104.131L101.585 32.126C101.509 32.354 101.364 32.5567 101.148 32.734C100.933 32.9113 100.667 33 100.35 33H97.5003L108.387 5.773H112.111L122.998 33ZM135.966 33H132.28V5.773H135.966V33ZM183.167 27.376C183.37 27.376 183.547 27.4583 183.699 27.623L185.162 29.2C184.048 30.492 182.692 31.499 181.096 32.221C179.513 32.943 177.594 33.304 175.339 33.304C173.389 33.304 171.615 32.9683 170.019 32.297C168.423 31.613 167.062 30.663 165.934 29.447C164.807 28.2183 163.933 26.749 163.312 25.039C162.692 23.329 162.381 21.448 162.381 19.396C162.381 17.344 162.704 15.463 163.35 13.753C163.996 12.043 164.902 10.5737 166.067 9.345C167.245 8.11633 168.651 7.16633 170.285 6.495C171.919 5.811 173.724 5.469 175.7 5.469C177.638 5.469 179.348 5.77933 180.83 6.4C182.312 7.02067 183.617 7.863 184.744 8.927L183.528 10.618C183.452 10.7447 183.351 10.8523 183.224 10.941C183.11 11.017 182.952 11.055 182.749 11.055C182.521 11.055 182.243 10.9347 181.913 10.694C181.584 10.4407 181.153 10.162 180.621 9.858C180.089 9.554 179.424 9.28167 178.626 9.041C177.828 8.78767 176.847 8.661 175.681 8.661C174.275 8.661 172.99 8.908 171.824 9.402C170.659 9.88333 169.652 10.5863 168.803 11.511C167.967 12.4357 167.315 13.563 166.846 14.893C166.378 16.223 166.143 17.724 166.143 19.396C166.143 21.0933 166.384 22.607 166.865 23.937C167.359 25.267 168.024 26.3943 168.86 27.319C169.709 28.231 170.703 28.9277 171.843 29.409C172.996 29.8903 174.237 30.131 175.567 30.131C176.378 30.131 177.106 30.0867 177.752 29.998C178.411 29.8967 179.013 29.7447 179.557 29.542C180.115 29.3393 180.628 29.086 181.096 28.782C181.578 28.4653 182.053 28.0917 182.521 27.661C182.737 27.471 182.952 27.376 183.167 27.376ZM202.679 18.959C203.743 18.959 204.68 18.8323 205.491 18.579C206.314 18.313 206.998 17.9457 207.543 17.477C208.1 16.9957 208.518 16.4257 208.797 15.767C209.076 15.1083 209.215 14.38 209.215 13.582C209.215 11.9607 208.683 10.7383 207.619 9.915C206.555 9.09167 204.959 8.68 202.831 8.68H198.803V18.959H202.679ZM215.257 33H211.989C211.318 33 210.824 32.7403 210.507 32.221L203.439 22.493C203.224 22.189 202.989 21.9737 202.736 21.847C202.495 21.7077 202.115 21.638 201.596 21.638H198.803V33H195.136V5.773H202.831C204.554 5.773 206.042 5.95033 207.296 6.305C208.55 6.647 209.582 7.14733 210.393 7.806C211.216 8.46467 211.824 9.26267 212.217 10.2C212.61 11.1247 212.806 12.1633 212.806 13.316C212.806 14.2787 212.654 15.178 212.35 16.014C212.046 16.85 211.603 17.6037 211.02 18.275C210.45 18.9337 209.747 19.4973 208.911 19.966C208.088 20.4347 207.15 20.7893 206.099 21.03C206.568 21.296 206.973 21.6823 207.315 22.189L215.257 33ZM241.456 29.998L241.437 33H224.66V5.773H241.437V8.775H228.346V17.819H238.948V20.707H228.346V29.998H241.456ZM266.751 22.892L262.476 11.815C262.349 11.4857 262.216 11.1057 262.077 10.675C261.938 10.2317 261.805 9.763 261.678 9.269C261.412 10.295 261.14 11.15 260.861 11.834L256.586 22.892H266.751ZM274.427 33H271.577C271.248 33 270.982 32.9177 270.779 32.753C270.576 32.5883 270.424 32.3793 270.323 32.126L267.777 25.552H255.56L253.014 32.126C252.938 32.354 252.792 32.5567 252.577 32.734C252.362 32.9113 252.096 33 251.779 33H248.929L259.816 5.773H263.54L274.427 33ZM299.448 8.87H290.632V33H286.965V8.87H278.13V5.773H299.448V8.87ZM312.874 33H309.188V5.773H312.874V33ZM347.673 5.773L336.577 33H333.271L322.175 5.773H325.12C325.45 5.773 325.716 5.85533 325.918 6.02C326.121 6.18467 326.273 6.39367 326.374 6.647L334.05 25.856C334.215 26.2867 334.373 26.7553 334.525 27.262C334.69 27.7687 334.836 28.3007 334.962 28.858C335.089 28.3007 335.222 27.7687 335.361 27.262C335.501 26.7553 335.653 26.2867 335.817 25.856L343.474 6.647C343.55 6.43167 343.696 6.23533 343.911 6.058C344.139 5.868 344.412 5.773 344.728 5.773H347.673ZM373.751 29.998L373.732 33H356.955V5.773H373.732V8.775H360.641V17.819H371.243V20.707H360.641V29.998H373.751Z"/>
</mask>
<path d="M7.75324 33H4.06724V5.773H7.75324V33ZM24.0846 17.705H25.4716C25.953 17.705 26.3393 17.648 26.6306 17.534C26.922 17.4073 27.188 17.1983 27.4286 16.907L36.4916 6.647C36.745 6.31766 37.011 6.08966 37.2896 5.963C37.5683 5.83633 37.9103 5.773 38.3156 5.773H41.4316L31.0576 17.496C30.8043 17.8 30.5573 18.0533 30.3166 18.256C30.0886 18.446 29.8416 18.6043 29.5756 18.731C29.9176 18.845 30.228 19.016 30.5066 19.244C30.7853 19.4593 31.0576 19.7443 31.3236 20.099L42.1536 33H38.9616C38.721 33 38.512 32.9873 38.3346 32.962C38.17 32.924 38.0243 32.8733 37.8976 32.81C37.771 32.734 37.657 32.6517 37.5556 32.563C37.467 32.4617 37.3783 32.3477 37.2896 32.221L27.9036 21.41C27.6503 21.0933 27.378 20.8717 27.0866 20.745C26.7953 20.6057 26.352 20.536 25.7566 20.536H24.0846V33H20.4176V5.773H24.0846V17.705ZM54.9638 33H51.2778V5.773H54.9638V33ZM89.7442 19.909V30.359C88.3762 31.347 86.9132 32.088 85.3552 32.582C83.8098 33.0633 82.1125 33.304 80.2632 33.304C78.0718 33.304 76.0958 32.9683 74.3352 32.297C72.5745 31.613 71.0672 30.663 69.8132 29.447C68.5718 28.2183 67.6155 26.749 66.9442 25.039C66.2728 23.329 65.9372 21.448 65.9372 19.396C65.9372 17.3187 66.2602 15.425 66.9062 13.715C67.5648 12.005 68.4958 10.542 69.6992 9.326C70.9025 8.09733 72.3655 7.14733 74.0882 6.476C75.8108 5.80466 77.7362 5.469 79.8642 5.469C80.9408 5.469 81.9415 5.55133 82.8662 5.716C83.7908 5.868 84.6458 6.096 85.4312 6.4C86.2165 6.69133 86.9448 7.05233 87.6162 7.483C88.2875 7.901 88.9145 8.376 89.4972 8.908L88.4522 10.58C88.2875 10.8333 88.0722 10.998 87.8062 11.074C87.5528 11.1373 87.2678 11.074 86.9512 10.884C86.6472 10.7067 86.2988 10.4913 85.9062 10.238C85.5135 9.98467 85.0322 9.744 84.4622 9.516C83.9048 9.27533 83.2398 9.07267 82.4672 8.908C81.7072 8.74333 80.8015 8.661 79.7502 8.661C78.2175 8.661 76.8305 8.91433 75.5892 9.421C74.3478 9.915 73.2902 10.6307 72.4162 11.568C71.5422 12.4927 70.8708 13.62 70.4022 14.95C69.9335 16.2673 69.6992 17.7493 69.6992 19.396C69.6992 21.106 69.9398 22.6387 70.4212 23.994C70.9152 25.3367 71.6118 26.483 72.5112 27.433C73.4232 28.3703 74.5252 29.086 75.8172 29.58C77.1092 30.074 78.5595 30.321 80.1682 30.321C81.4348 30.321 82.5558 30.1817 83.5312 29.903C84.5192 29.6117 85.4818 29.2127 86.4192 28.706V22.721H82.1822C81.9415 22.721 81.7452 22.6513 81.5932 22.512C81.4538 22.3727 81.3842 22.2017 81.3842 21.999V19.909H89.7442ZM115.322 22.892L111.047 11.815C110.921 11.4857 110.788 11.1057 110.648 10.675C110.509 10.2317 110.376 9.763 110.249 9.269C109.983 10.295 109.711 11.15 109.432 11.834L105.157 22.892H115.322ZM122.998 33H120.148C119.819 33 119.553 32.9177 119.35 32.753C119.148 32.5883 118.996 32.3793 118.894 32.126L116.348 25.552H104.131L101.585 32.126C101.509 32.354 101.364 32.5567 101.148 32.734C100.933 32.9113 100.667 33 100.35 33H97.5003L108.387 5.773H112.111L122.998 33ZM135.966 33H132.28V5.773H135.966V33ZM183.167 27.376C183.37 27.376 183.547 27.4583 183.699 27.623L185.162 29.2C184.048 30.492 182.692 31.499 181.096 32.221C179.513 32.943 177.594 33.304 175.339 33.304C173.389 33.304 171.615 32.9683 170.019 32.297C168.423 31.613 167.062 30.663 165.934 29.447C164.807 28.2183 163.933 26.749 163.312 25.039C162.692 23.329 162.381 21.448 162.381 19.396C162.381 17.344 162.704 15.463 163.35 13.753C163.996 12.043 164.902 10.5737 166.067 9.345C167.245 8.11633 168.651 7.16633 170.285 6.495C171.919 5.811 173.724 5.469 175.7 5.469C177.638 5.469 179.348 5.77933 180.83 6.4C182.312 7.02067 183.617 7.863 184.744 8.927L183.528 10.618C183.452 10.7447 183.351 10.8523 183.224 10.941C183.11 11.017 182.952 11.055 182.749 11.055C182.521 11.055 182.243 10.9347 181.913 10.694C181.584 10.4407 181.153 10.162 180.621 9.858C180.089 9.554 179.424 9.28167 178.626 9.041C177.828 8.78767 176.847 8.661 175.681 8.661C174.275 8.661 172.99 8.908 171.824 9.402C170.659 9.88333 169.652 10.5863 168.803 11.511C167.967 12.4357 167.315 13.563 166.846 14.893C166.378 16.223 166.143 17.724 166.143 19.396C166.143 21.0933 166.384 22.607 166.865 23.937C167.359 25.267 168.024 26.3943 168.86 27.319C169.709 28.231 170.703 28.9277 171.843 29.409C172.996 29.8903 174.237 30.131 175.567 30.131C176.378 30.131 177.106 30.0867 177.752 29.998C178.411 29.8967 179.013 29.7447 179.557 29.542C180.115 29.3393 180.628 29.086 181.096 28.782C181.578 28.4653 182.053 28.0917 182.521 27.661C182.737 27.471 182.952 27.376 183.167 27.376ZM202.679 18.959C203.743 18.959 204.68 18.8323 205.491 18.579C206.314 18.313 206.998 17.9457 207.543 17.477C208.1 16.9957 208.518 16.4257 208.797 15.767C209.076 15.1083 209.215 14.38 209.215 13.582C209.215 11.9607 208.683 10.7383 207.619 9.915C206.555 9.09167 204.959 8.68 202.831 8.68H198.803V18.959H202.679ZM215.257 33H211.989C211.318 33 210.824 32.7403 210.507 32.221L203.439 22.493C203.224 22.189 202.989 21.9737 202.736 21.847C202.495 21.7077 202.115 21.638 201.596 21.638H198.803V33H195.136V5.773H202.831C204.554 5.773 206.042 5.95033 207.296 6.305C208.55 6.647 209.582 7.14733 210.393 7.806C211.216 8.46467 211.824 9.26267 212.217 10.2C212.61 11.1247 212.806 12.1633 212.806 13.316C212.806 14.2787 212.654 15.178 212.35 16.014C212.046 16.85 211.603 17.6037 211.02 18.275C210.45 18.9337 209.747 19.4973 208.911 19.966C208.088 20.4347 207.15 20.7893 206.099 21.03C206.568 21.296 206.973 21.6823 207.315 22.189L215.257 33ZM241.456 29.998L241.437 33H224.66V5.773H241.437V8.775H228.346V17.819H238.948V20.707H228.346V29.998H241.456ZM266.751 22.892L262.476 11.815C262.349 11.4857 262.216 11.1057 262.077 10.675C261.938 10.2317 261.805 9.763 261.678 9.269C261.412 10.295 261.14 11.15 260.861 11.834L256.586 22.892H266.751ZM274.427 33H271.577C271.248 33 270.982 32.9177 270.779 32.753C270.576 32.5883 270.424 32.3793 270.323 32.126L267.777 25.552H255.56L253.014 32.126C252.938 32.354 252.792 32.5567 252.577 32.734C252.362 32.9113 252.096 33 251.779 33H248.929L259.816 5.773H263.54L274.427 33ZM299.448 8.87H290.632V33H286.965V8.87H278.13V5.773H299.448V8.87ZM312.874 33H309.188V5.773H312.874V33ZM347.673 5.773L336.577 33H333.271L322.175 5.773H325.12C325.45 5.773 325.716 5.85533 325.918 6.02C326.121 6.18467 326.273 6.39367 326.374 6.647L334.05 25.856C334.215 26.2867 334.373 26.7553 334.525 27.262C334.69 27.7687 334.836 28.3007 334.962 28.858C335.089 28.3007 335.222 27.7687 335.361 27.262C335.501 26.7553 335.653 26.2867 335.817 25.856L343.474 6.647C343.55 6.43167 343.696 6.23533 343.911 6.058C344.139 5.868 344.412 5.773 344.728 5.773H347.673ZM373.751 29.998L373.732 33H356.955V5.773H373.732V8.775H360.641V17.819H371.243V20.707H360.641V29.998H373.751Z" fill="#009AEC" fill-opacity="0.1"/>
<path d="M7.75324 33V34.4H9.15324V33H7.75324ZM4.06724 33H2.66724V34.4H4.06724V33ZM4.06724 5.773V4.373H2.66724V5.773H4.06724ZM7.75324 5.773H9.15324V4.373H7.75324V5.773ZM7.75324 31.6H4.06724V34.4H7.75324V31.6ZM5.46724 33V5.773H2.66724V33H5.46724ZM4.06724 7.173H7.75324V4.373H4.06724V7.173ZM6.35324 5.773V33H9.15324V5.773H6.35324ZM24.0846 17.705H22.6846V19.105H24.0846V17.705ZM26.6306 17.534L27.1408 18.8377L27.165 18.8283L27.1889 18.8179L26.6306 17.534ZM27.4286 16.907L26.3794 15.9802L26.364 15.9975L26.3493 16.0154L27.4286 16.907ZM36.4916 6.647L37.5409 7.57385L37.5723 7.53824L37.6013 7.50059L36.4916 6.647ZM37.2896 5.963L37.869 7.23751L37.869 7.23751L37.2896 5.963ZM41.4316 5.773L42.4801 6.70079L44.54 4.373H41.4316V5.773ZM31.0576 17.496L30.0092 16.5682L29.9954 16.5838L29.9821 16.5997L31.0576 17.496ZM30.3166 18.256L31.2129 19.3315L31.2184 19.3269L30.3166 18.256ZM29.5756 18.731L28.9737 17.467L25.8372 18.9606L29.1329 20.0592L29.5756 18.731ZM30.5066 19.244L29.6201 20.3275L29.6352 20.3399L29.6506 20.3518L30.5066 19.244ZM31.3236 20.099L30.2036 20.939L30.2267 20.9697L30.2514 20.9991L31.3236 20.099ZM42.1536 33V34.4H45.1568L43.2259 32.0999L42.1536 33ZM38.3346 32.962L38.0198 34.3261L38.0778 34.3395L38.1366 34.3479L38.3346 32.962ZM37.8976 32.81L37.1773 34.0105L37.2234 34.0382L37.2715 34.0622L37.8976 32.81ZM37.5556 32.563L36.502 33.4849L36.5635 33.5551L36.6337 33.6166L37.5556 32.563ZM37.2896 32.221L38.4366 31.4182L38.3947 31.3583L38.3468 31.3032L37.2896 32.221ZM27.9036 21.41L26.8104 22.2846L26.828 22.3066L26.8465 22.3278L27.9036 21.41ZM27.0866 20.745L26.4826 22.008L26.5053 22.0189L26.5284 22.0289L27.0866 20.745ZM24.0846 20.536V19.136H22.6846V20.536H24.0846ZM24.0846 33V34.4H25.4846V33H24.0846ZM20.4176 33H19.0176V34.4H20.4176V33ZM20.4176 5.773V4.373H19.0176V5.773H20.4176ZM24.0846 5.773H25.4846V4.373H24.0846V5.773ZM24.0846 19.105H25.4716V16.305H24.0846V19.105ZM25.4716 19.105C26.0435 19.105 26.6236 19.0401 27.1408 18.8377L26.1205 16.2303C26.055 16.2559 25.8624 16.305 25.4716 16.305V19.105ZM27.1889 18.8179C27.7173 18.5882 28.1533 18.2279 28.508 17.7986L26.3493 16.0154C26.2226 16.1687 26.1267 16.2265 26.0724 16.2501L27.1889 18.8179ZM28.4779 17.8338L37.5409 7.57385L35.4424 5.72015L26.3794 15.9802L28.4779 17.8338ZM37.6013 7.50059C37.7626 7.29092 37.86 7.2416 37.869 7.23751L36.7103 4.68848C36.162 4.93773 35.7273 5.34441 35.382 5.7934L37.6013 7.50059ZM37.869 7.23751C37.9168 7.21575 38.0485 7.173 38.3156 7.173V4.373C37.7721 4.373 37.2198 4.45692 36.7103 4.68849L37.869 7.23751ZM38.3156 7.173H41.4316V4.373H38.3156V7.173ZM40.3832 4.84521L30.0092 16.5682L32.1061 18.4238L42.4801 6.70079L40.3832 4.84521ZM29.9821 16.5997C29.7687 16.8559 29.579 17.0469 29.4148 17.1851L31.2184 19.3269C31.5356 19.0597 31.8399 18.7441 32.1331 18.3923L29.9821 16.5997ZM29.4204 17.1805C29.2816 17.2962 29.1333 17.391 28.9737 17.467L30.1775 19.995C30.5499 19.8177 30.8957 19.5958 31.2129 19.3315L29.4204 17.1805ZM29.1329 20.0592C29.3135 20.1194 29.4734 20.2075 29.6201 20.3275L31.3932 18.1605C30.9825 17.8245 30.5217 17.5706 30.0184 17.4028L29.1329 20.0592ZM29.6506 20.3518C29.8078 20.4733 29.9946 20.6603 30.2036 20.939L32.4436 19.259C32.1206 18.8283 31.7628 18.4454 31.3627 18.1362L29.6506 20.3518ZM30.2514 20.9991L41.0814 33.9001L43.2259 32.0999L32.3959 19.1989L30.2514 20.9991ZM42.1536 31.6H38.9616V34.4H42.1536V31.6ZM38.9616 31.6C38.7663 31.6 38.6265 31.5895 38.5326 31.5761L38.1366 34.3479C38.3974 34.3852 38.6756 34.4 38.9616 34.4V31.6ZM38.6494 31.5979C38.5725 31.5801 38.5346 31.5632 38.5237 31.5578L37.2715 34.0622C37.514 34.1834 37.7674 34.2679 38.0198 34.3261L38.6494 31.5979ZM38.6179 31.6095C38.5559 31.5723 38.5105 31.5382 38.4775 31.5094L36.6337 33.6166C36.8035 33.7651 36.986 33.8957 37.1773 34.0105L38.6179 31.6095ZM38.6092 31.6411C38.5582 31.5828 38.5004 31.5094 38.4366 31.4182L36.1427 33.0238C36.2562 33.1859 36.3757 33.3405 36.502 33.4849L38.6092 31.6411ZM38.3468 31.3032L28.9608 20.4922L26.8465 22.3278L36.2325 33.1388L38.3468 31.3032ZM28.9968 20.5354C28.6395 20.0887 28.195 19.7003 27.6448 19.4611L26.5284 22.0289C26.5609 22.043 26.6611 22.0979 26.8104 22.2846L28.9968 20.5354ZM27.6907 19.482C27.112 19.2053 26.4135 19.136 25.7566 19.136V21.936C26.0035 21.936 26.1874 21.9507 26.3183 21.9713C26.4539 21.9926 26.4966 22.0147 26.4826 22.008L27.6907 19.482ZM25.7566 19.136H24.0846V21.936H25.7566V19.136ZM22.6846 20.536V33H25.4846V20.536H22.6846ZM24.0846 31.6H20.4176V34.4H24.0846V31.6ZM21.8176 33V5.773H19.0176V33H21.8176ZM20.4176 7.173H24.0846V4.373H20.4176V7.173ZM22.6846 5.773V17.705H25.4846V5.773H22.6846ZM54.9638 33V34.4H56.3638V33H54.9638ZM51.2778 33H49.8778V34.4H51.2778V33ZM51.2778 5.773V4.373H49.8778V5.773H51.2778ZM54.9638 5.773H56.3638V4.373H54.9638V5.773ZM54.9638 31.6H51.2778V34.4H54.9638V31.6ZM52.6778 33V5.773H49.8778V33H52.6778ZM51.2778 7.173H54.9638V4.373H51.2778V7.173ZM53.5638 5.773V33H56.3638V5.773H53.5638ZM89.7442 19.909H91.1442V18.509H89.7442V19.909ZM89.7442 30.359L90.5639 31.494L91.1442 31.0748V30.359H89.7442ZM85.3552 32.582L85.7715 33.9187L85.7783 33.9165L85.3552 32.582ZM74.3352 32.297L73.8282 33.602L73.8364 33.6051L74.3352 32.297ZM69.8132 29.447L68.8283 30.442L68.8334 30.4471L68.8386 30.4521L69.8132 29.447ZM66.9442 25.039L68.2473 24.5274L68.2473 24.5274L66.9442 25.039ZM66.9062 13.715L65.5997 13.2118L65.5965 13.2202L66.9062 13.715ZM69.6992 9.326L70.6943 10.3108L70.6994 10.3056L69.6992 9.326ZM74.0882 6.476L74.5965 7.78045L74.5965 7.78045L74.0882 6.476ZM82.8662 5.716L82.6207 7.09431L82.6299 7.09595L82.6391 7.09746L82.8662 5.716ZM85.4312 6.4L84.9258 7.70559L84.935 7.70916L84.9442 7.71259L85.4312 6.4ZM87.6162 7.483L86.8602 8.66137L86.8682 8.66647L86.8762 8.67146L87.6162 7.483ZM89.4972 8.908L90.6844 9.65L91.3027 8.66072L90.4412 7.87412L89.4972 8.908ZM88.4522 10.58L89.626 11.343L89.6328 11.3326L89.6394 11.322L88.4522 10.58ZM87.8062 11.074L88.1457 12.4322L88.1684 12.4265L88.1908 12.4201L87.8062 11.074ZM86.9512 10.884L87.6715 9.68351L87.6641 9.67906L87.6566 9.67471L86.9512 10.884ZM85.9062 10.238L86.6652 9.06158L86.6652 9.06158L85.9062 10.238ZM84.4622 9.516L83.9072 10.8013L83.9246 10.8088L83.9422 10.8159L84.4622 9.516ZM82.4672 8.908L82.1707 10.2763L82.1754 10.2773L82.4672 8.908ZM75.5892 9.421L76.1069 10.7218L76.1182 10.7172L75.5892 9.421ZM72.4162 11.568L73.4336 12.5297L73.4401 12.5228L72.4162 11.568ZM70.4022 14.95L71.7212 15.4193L71.7226 15.4153L70.4022 14.95ZM70.4212 23.994L69.1019 24.4625L69.1046 24.47L69.1073 24.4774L70.4212 23.994ZM72.5112 27.433L71.4945 28.3955L71.5011 28.4024L71.5078 28.4093L72.5112 27.433ZM83.5312 29.903L83.9158 31.2492L83.9271 31.2458L83.5312 29.903ZM86.4192 28.706L87.0849 29.9376L87.8192 29.5407V28.706H86.4192ZM86.4192 22.721H87.8192V21.321H86.4192V22.721ZM81.5932 22.512L80.6032 23.5019L80.6247 23.5235L80.6472 23.544L81.5932 22.512ZM81.3842 19.909V18.509H79.9842V19.909H81.3842ZM88.3442 19.909V30.359H91.1442V19.909H88.3442ZM88.9245 29.224C87.6733 30.1277 86.3435 30.7999 84.932 31.2475L85.7783 33.9165C87.4829 33.3761 89.0791 32.5663 90.5639 31.494L88.9245 29.224ZM84.9388 31.2453C83.5459 31.6792 81.9911 31.904 80.2632 31.904V34.704C82.2339 34.704 84.0737 34.4475 85.7715 33.9187L84.9388 31.2453ZM80.2632 31.904C78.215 31.904 76.4117 31.5904 74.834 30.9889L73.8364 33.6051C75.78 34.3462 77.9287 34.704 80.2632 34.704V31.904ZM74.8421 30.992C73.2415 30.3702 71.8969 29.5174 70.7878 28.4419L68.8386 30.4521C70.2375 31.8086 71.9075 32.8558 73.8282 33.602L74.8421 30.992ZM70.798 28.452C69.7025 27.3676 68.8512 26.0654 68.2473 24.5274L65.641 25.5506C66.3798 27.4326 67.4412 29.0691 68.8283 30.442L70.798 28.452ZM68.2473 24.5274C67.6471 22.9984 67.3372 21.2933 67.3372 19.396H64.5372C64.5372 21.6027 64.8986 23.6596 65.641 25.5506L68.2473 24.5274ZM67.3372 19.396C67.3372 17.4649 67.6371 15.7416 68.2158 14.2098L65.5965 13.2202C64.8832 15.1084 64.5372 17.1725 64.5372 19.396H67.3372ZM68.2126 14.2182C68.8069 12.6755 69.6363 11.3799 70.6943 10.3108L68.7041 8.34125C67.3554 9.70413 66.3228 11.3345 65.5997 13.2118L68.2126 14.2182ZM70.6994 10.3056C71.7535 9.22932 73.0449 8.38512 74.5965 7.78045L73.5798 5.17155C71.6861 5.90954 70.0516 6.96535 68.699 8.34641L70.6994 10.3056ZM74.5965 7.78045C76.1346 7.18104 77.8842 6.869 79.8642 6.869V4.069C77.5882 4.069 75.4871 4.42829 73.5798 5.17155L74.5965 7.78045ZM79.8642 6.869C80.8702 6.869 81.7878 6.94599 82.6207 7.09431L83.1116 4.33768C82.0952 4.15668 81.0115 4.069 79.8642 4.069V6.869ZM82.6391 7.09746C83.4791 7.23555 84.2398 7.44004 84.9258 7.70559L85.9366 5.0944C85.0519 4.75196 84.1026 4.50045 83.0933 4.33454L82.6391 7.09746ZM84.9442 7.71259C85.6401 7.97072 86.2776 8.28762 86.8602 8.66137L88.3721 6.30463C87.6121 5.81705 86.793 5.41195 85.9181 5.08741L84.9442 7.71259ZM86.8762 8.67146C87.4751 9.04437 88.0338 9.46766 88.5532 9.94188L90.4412 7.87412C89.7952 7.28434 89.0999 6.75763 88.3562 6.29454L86.8762 8.67146ZM88.31 8.166L87.265 9.838L89.6394 11.322L90.6844 9.65L88.31 8.166ZM87.2784 9.81701C87.2732 9.82495 87.2838 9.80659 87.3167 9.7814C87.3512 9.75503 87.3895 9.73701 87.4216 9.72787L88.1908 12.4201C88.8125 12.2425 89.2955 11.8514 89.626 11.343L87.2784 9.81701ZM87.4666 9.7158C87.5746 9.6888 87.6618 9.69748 87.7061 9.70734C87.7435 9.71564 87.7333 9.72063 87.6715 9.68351L86.2309 12.0845C86.7326 12.3855 87.4051 12.6173 88.1457 12.4322L87.4666 9.7158ZM87.6566 9.67471C87.3754 9.5107 87.0455 9.30698 86.6652 9.06158L85.1472 11.4144C85.5522 11.6757 85.9189 11.9026 86.2458 12.0933L87.6566 9.67471ZM86.6652 9.06158C86.1777 8.74712 85.6112 8.46778 84.9821 8.21613L83.9422 10.8159C84.4531 11.0202 84.8493 11.2222 85.1472 11.4144L86.6652 9.06158ZM85.0172 8.23071C84.3542 7.94442 83.5966 7.71725 82.759 7.53875L82.1754 10.2773C82.8831 10.4281 83.4555 10.6062 83.9072 10.8013L85.0172 8.23071ZM82.7636 7.53975C81.879 7.34808 80.8688 7.261 79.7502 7.261V10.061C80.7342 10.061 81.5353 10.1386 82.1707 10.2763L82.7636 7.53975ZM79.7502 7.261C78.0619 7.261 76.4917 7.54049 75.0601 8.12481L76.1182 10.7172C77.1693 10.2882 78.3732 10.061 79.7502 10.061V7.261ZM75.0715 8.12022C73.6463 8.68739 72.4134 9.51811 71.3922 10.6132L73.4401 12.5228C74.167 11.7432 75.0494 11.1426 76.1068 10.7218L75.0715 8.12022ZM71.3987 10.6063C70.3762 11.6882 69.6085 12.99 69.0818 14.4847L71.7226 15.4153C72.1332 14.25 72.7082 13.2972 73.4336 12.5297L71.3987 10.6063ZM69.0832 14.4807C68.5523 15.9728 68.2992 17.6172 68.2992 19.396H71.0992C71.0992 17.8815 71.3147 16.5618 71.7212 15.4193L69.0832 14.4807ZM68.2992 19.396C68.2992 21.2363 68.5581 22.9314 69.1019 24.4625L71.7405 23.5255C71.3216 22.346 71.0992 20.9757 71.0992 19.396H68.2992ZM69.1073 24.4774C69.6607 25.9815 70.4529 27.2951 71.4945 28.3955L73.5279 26.4705C72.7708 25.6709 72.1697 24.6919 71.7351 23.5106L69.1073 24.4774ZM71.5078 28.4093C72.5696 29.5007 73.8465 30.3253 75.3172 30.8877L76.3172 28.2723C75.2039 27.8467 74.2767 27.24 73.5146 26.4567L71.5078 28.4093ZM75.3172 30.8877C76.7926 31.4518 78.416 31.721 80.1682 31.721V28.921C78.703 28.921 77.4258 28.6962 76.3172 28.2723L75.3172 30.8877ZM80.1682 31.721C81.5341 31.721 82.7889 31.5711 83.9158 31.2491L83.1466 28.5569C82.3228 28.7922 81.3356 28.921 80.1682 28.921V31.721ZM83.9271 31.2458C85.0119 30.926 86.0647 30.489 87.0849 29.9376L85.7535 27.4744C84.899 27.9363 84.0265 28.2973 83.1352 28.5602L83.9271 31.2458ZM87.8192 28.706V22.721H85.0192V28.706H87.8192ZM86.4192 21.321H82.1822V24.121H86.4192V21.321ZM82.1822 21.321C82.197 21.321 82.2491 21.3233 82.3226 21.3494C82.3995 21.3766 82.4753 21.4214 82.5392 21.48L80.6472 23.544C81.0999 23.9591 81.6536 24.121 82.1822 24.121V21.321ZM82.5831 21.522C82.6364 21.5753 82.6928 21.6523 82.733 21.751C82.7728 21.8489 82.7842 21.937 82.7842 21.999H79.9842C79.9842 22.5611 80.1931 23.0918 80.6032 23.5019L82.5831 21.522ZM82.7842 21.999V19.909H79.9842V21.999H82.7842ZM81.3842 21.309H89.7442V18.509H81.3842V21.309ZM115.322 22.892V24.292H117.363L116.628 22.3879L115.322 22.892ZM111.047 11.815L109.741 12.3176L109.741 12.3191L111.047 11.815ZM110.648 10.675L109.313 11.0948L109.316 11.1059L110.648 10.675ZM110.249 9.269L111.605 8.92127L108.894 8.91765L110.249 9.269ZM109.432 11.834L108.136 11.3058L108.131 11.3174L108.127 11.3292L109.432 11.834ZM105.157 22.892L103.852 22.3872L103.115 24.292H105.157V22.892ZM122.998 33V34.4H125.066L124.298 32.4802L122.998 33ZM119.35 32.753L118.468 33.8396L118.468 33.8396L119.35 32.753ZM118.894 32.126L117.589 32.6316L117.592 32.6388L117.594 32.6459L118.894 32.126ZM116.348 25.552L117.654 25.0464L117.307 24.152H116.348V25.552ZM104.131 25.552V24.152H103.172L102.826 25.0464L104.131 25.552ZM101.585 32.126L100.28 31.6204L100.268 31.6516L100.257 31.6833L101.585 32.126ZM101.148 32.734L102.038 33.8147L102.038 33.8147L101.148 32.734ZM97.5003 33L96.2004 32.4802L95.4328 34.4H97.5003V33ZM108.387 5.773V4.373H107.439L107.087 5.25321L108.387 5.773ZM112.111 5.773L113.411 5.25321L113.059 4.373H112.111V5.773ZM116.628 22.3879L112.353 11.3109L109.741 12.3191L114.016 23.3961L116.628 22.3879ZM112.354 11.3124C112.239 11.0122 112.114 10.657 111.98 10.244L109.316 11.1059C109.461 11.5544 109.603 11.9591 109.741 12.3176L112.354 11.3124ZM111.984 10.2552C111.853 9.83789 111.727 9.39338 111.605 8.92127L108.893 9.61672C109.025 10.1326 109.165 10.6254 109.313 11.0948L111.984 10.2552ZM108.894 8.91765C108.638 9.90696 108.383 10.6982 108.136 11.3058L110.729 12.3622C111.039 11.6018 111.329 10.683 111.605 9.62035L108.894 8.91765ZM108.127 11.3292L103.852 22.3872L106.463 23.3968L110.738 12.3388L108.127 11.3292ZM105.157 24.292H115.322V21.492H105.157V24.292ZM122.998 31.6H120.148V34.4H122.998V31.6ZM120.148 31.6C120.099 31.6 120.093 31.5937 120.116 31.6008C120.128 31.6045 120.145 31.6112 120.167 31.6225C120.189 31.634 120.211 31.6487 120.233 31.6664L118.468 33.8396C118.979 34.2552 119.583 34.4 120.148 34.4V31.6ZM120.233 31.6664C120.224 31.6589 120.211 31.6484 120.194 31.6061L117.594 32.6459C117.78 33.1103 118.071 33.5177 118.468 33.8396L120.233 31.6664ZM120.2 31.6204L117.654 25.0464L115.043 26.0576L117.589 32.6316L120.2 31.6204ZM116.348 24.152H104.131V26.952H116.348V24.152ZM102.826 25.0464L100.28 31.6204L102.891 32.6316L105.437 26.0576L102.826 25.0464ZM100.257 31.6833C100.261 31.6717 100.266 31.661 100.27 31.6515C100.275 31.6422 100.28 31.6356 100.282 31.6319C100.288 31.6243 100.283 31.6326 100.258 31.6533L102.038 33.8147C102.424 33.4975 102.742 33.0843 102.913 32.5687L100.257 31.6833ZM100.258 31.6533C100.27 31.6438 100.284 31.634 100.3 31.625C100.316 31.6161 100.332 31.6097 100.345 31.6053C100.372 31.5964 100.377 31.6 100.35 31.6V34.4C100.945 34.4 101.539 34.2262 102.038 33.8147L100.258 31.6533ZM100.35 31.6H97.5003V34.4H100.35V31.6ZM98.8003 33.5198L109.687 6.29279L107.087 5.25321L96.2004 32.4802L98.8003 33.5198ZM108.387 7.173H112.111V4.373H108.387V7.173ZM110.811 6.29279L121.698 33.5198L124.298 32.4802L113.411 5.25321L110.811 6.29279ZM135.966 33V34.4H137.366V33H135.966ZM132.28 33H130.88V34.4H132.28V33ZM132.28 5.773V4.373H130.88V5.773H132.28ZM135.966 5.773H137.366V4.373H135.966V5.773ZM135.966 31.6H132.28V34.4H135.966V31.6ZM133.68 33V5.773H130.88V33H133.68ZM132.28 7.173H135.966V4.373H132.28V7.173ZM134.566 5.773V33H137.366V5.773H134.566ZM183.699 27.623L182.67 28.5726L182.673 28.5752L183.699 27.623ZM185.162 29.2L186.222 30.1145L187.04 29.1661L186.189 28.2478L185.162 29.2ZM181.096 32.221L180.519 30.9454L180.515 30.9472L181.096 32.221ZM170.019 32.297L169.468 33.5838L169.476 33.5875L170.019 32.297ZM165.934 29.447L164.903 30.3935L164.907 30.3988L165.934 29.447ZM163.312 25.039L164.628 24.5613L164.628 24.5613L163.312 25.039ZM163.35 13.753L164.66 14.2478L164.66 14.2478L163.35 13.753ZM166.067 9.345L165.057 8.37609L165.051 8.38158L166.067 9.345ZM170.285 6.495L170.817 7.78999L170.826 7.78642L170.285 6.495ZM180.83 6.4L181.371 5.10867L181.371 5.10867L180.83 6.4ZM184.744 8.927L185.881 9.74435L186.596 8.74974L185.705 7.90886L184.744 8.927ZM183.528 10.618L182.392 9.80064L182.358 9.84785L182.328 9.8977L183.528 10.618ZM183.224 10.941L184.001 12.1059L184.014 12.097L184.027 12.0879L183.224 10.941ZM181.913 10.694L181.06 11.8037L181.073 11.8142L181.087 11.8243L181.913 10.694ZM180.621 9.858L181.316 8.64246L181.316 8.64246L180.621 9.858ZM178.626 9.041L178.203 10.3754L178.212 10.3784L178.222 10.3814L178.626 9.041ZM171.824 9.402L172.359 10.696L172.371 10.691L171.824 9.402ZM168.803 11.511L167.772 10.5643L167.765 10.5721L168.803 11.511ZM166.846 14.893L165.526 14.4277L165.526 14.4277L166.846 14.893ZM166.865 23.937L165.549 24.4134L165.553 24.4245L166.865 23.937ZM168.86 27.319L167.822 28.2579L167.828 28.2654L167.835 28.2727L168.86 27.319ZM171.843 29.409L171.299 30.6988L171.304 30.7009L171.843 29.409ZM177.752 29.998L177.943 31.385L177.954 31.3834L177.965 31.3817L177.752 29.998ZM179.557 29.542L179.079 28.2263L179.069 28.2299L179.557 29.542ZM181.096 28.782L181.858 29.9566L181.866 29.9516L181.096 28.782ZM182.521 27.661L181.595 26.6112L181.584 26.6206L181.574 26.6301L182.521 27.661ZM183.167 28.776C183.073 28.776 182.965 28.7553 182.863 28.7076C182.763 28.6613 182.701 28.6052 182.67 28.5726L184.728 26.6734C184.342 26.2554 183.804 25.976 183.167 25.976V28.776ZM182.673 28.5752L184.136 30.1522L186.189 28.2478L184.726 26.6708L182.673 28.5752ZM184.102 28.2855C183.124 29.4193 181.935 30.305 180.519 30.9454L181.673 33.4966C183.449 32.693 184.971 31.5647 186.222 30.1145L184.102 28.2855ZM180.515 30.9472C179.16 31.5653 177.45 31.904 175.339 31.904V34.704C177.737 34.704 179.866 34.3207 181.677 33.4948L180.515 30.9472ZM175.339 31.904C173.551 31.904 171.966 31.597 170.562 31.0065L169.476 33.5875C171.265 34.3397 173.226 34.704 175.339 34.704V31.904ZM170.571 31.0102C169.146 30.3997 167.949 29.5607 166.961 28.4952L164.907 30.3988C166.174 31.7653 167.7 32.8263 169.468 33.5838L170.571 31.0102ZM166.966 28.5005C165.974 27.4198 165.192 26.1137 164.628 24.5613L161.996 25.5167C162.674 27.3843 163.64 29.0169 164.903 30.3935L166.966 28.5005ZM164.628 24.5613C164.07 23.0227 163.781 21.3058 163.781 19.396H160.981C160.981 21.5902 161.313 23.6353 161.996 25.5167L164.628 24.5613ZM163.781 19.396C163.781 17.4924 164.08 15.7815 164.66 14.2478L162.041 13.2582C161.328 15.1445 160.981 17.1956 160.981 19.396H163.781ZM164.66 14.2478C165.245 12.698 166.056 11.3915 167.083 10.3084L165.051 8.38158C163.748 9.7558 162.747 11.388 162.041 13.2582L164.66 14.2478ZM167.078 10.3139C168.116 9.23143 169.357 8.39001 170.817 7.78996L169.753 5.20003C167.946 5.94265 166.375 7.00124 165.057 8.37611L167.078 10.3139ZM170.826 7.78642C172.27 7.18193 173.888 6.869 175.7 6.869V4.069C173.56 4.069 171.569 4.44007 169.745 5.20358L170.826 7.78642ZM175.7 6.869C177.49 6.869 179.01 7.15555 180.289 7.69132L181.371 5.10867C179.686 4.40311 177.786 4.069 175.7 4.069V6.869ZM180.289 7.69132C181.622 8.24935 182.783 9.00093 183.783 9.94513L185.705 7.90886C184.451 6.72507 183.003 5.79198 181.371 5.10867L180.289 7.69132ZM183.608 8.10964L182.392 9.80064L184.665 11.4354L185.881 9.74435L183.608 8.10964ZM182.328 9.8977C182.341 9.87496 182.358 9.85336 182.376 9.83424C182.394 9.81525 182.41 9.80214 182.421 9.79408L184.027 12.0879C184.307 11.8919 184.547 11.6414 184.729 11.3383L182.328 9.8977ZM182.448 9.77613C182.551 9.70722 182.642 9.67756 182.693 9.66516C182.743 9.65313 182.766 9.655 182.749 9.655V12.455C183.103 12.455 183.571 12.3923 184.001 12.1059L182.448 9.77613ZM182.749 9.655C182.815 9.655 182.864 9.66368 182.892 9.67032C182.92 9.67689 182.931 9.68241 182.924 9.67946C182.918 9.67658 182.898 9.66756 182.865 9.64814C182.833 9.62885 182.791 9.60147 182.739 9.56365L181.087 11.8243C181.49 12.1187 182.069 12.455 182.749 12.455V9.655ZM182.767 9.58433C182.369 9.2786 181.88 8.96475 181.316 8.64246L179.927 11.0735C180.427 11.3593 180.798 11.6027 181.06 11.8037L182.767 9.58433ZM181.316 8.64246C180.666 8.27109 179.896 7.96169 179.03 7.70063L178.222 10.3814C178.952 10.6016 179.512 10.8369 179.927 11.0735L181.316 8.64246ZM179.05 7.70663C178.073 7.39649 176.938 7.261 175.681 7.261V10.061C176.755 10.061 177.583 10.1788 178.203 10.3754L179.05 7.70663ZM175.681 7.261C174.108 7.261 172.634 7.53804 171.278 8.11303L172.371 10.691C173.345 10.278 174.442 10.061 175.681 10.061V7.261ZM171.29 8.10803C169.936 8.66708 168.759 9.48828 167.772 10.5643L169.835 12.4577C170.544 11.6844 171.381 11.0996 172.359 10.696L171.29 8.10803ZM167.765 10.5721C166.789 11.6513 166.048 12.9456 165.526 14.4277L168.167 15.3583C168.582 14.1804 169.145 13.22 169.842 12.4499L167.765 10.5721ZM165.526 14.4277C164.996 15.932 164.743 17.5942 164.743 19.396H167.543C167.543 17.8538 167.759 16.514 168.167 15.3583L165.526 14.4277ZM164.743 19.396C164.743 21.2242 165.002 22.9035 165.549 24.4134L168.182 23.4606C167.765 22.3105 167.543 20.9625 167.543 19.396H164.743ZM165.553 24.4245C166.1 25.8981 166.851 27.1846 167.822 28.2579L169.899 26.3801C169.197 25.6041 168.618 24.6359 168.178 23.4495L165.553 24.4245ZM167.835 28.2727C168.818 29.3284 169.975 30.14 171.299 30.6987L172.388 28.1193C171.431 27.7153 170.6 27.1336 169.885 26.3653L167.835 28.2727ZM171.304 30.7009C172.638 31.2581 174.064 31.531 175.567 31.531V28.731C174.41 28.731 173.354 28.5225 172.383 28.1171L171.304 30.7009ZM175.567 31.531C176.427 31.531 177.22 31.4841 177.943 31.385L177.562 28.611C176.992 28.6892 176.329 28.731 175.567 28.731V31.531ZM177.965 31.3817C178.704 31.268 179.4 31.0943 180.045 30.8541L179.069 28.2299C178.625 28.395 178.117 28.5253 177.539 28.6143L177.965 31.3817ZM180.036 30.8577C180.686 30.6211 181.295 30.3216 181.858 29.9565L180.334 27.6075C179.96 27.8504 179.543 28.0576 179.079 28.2263L180.036 30.8577ZM181.866 29.9516C182.416 29.5895 182.95 29.1683 183.468 28.6919L181.574 26.6301C181.155 27.0151 180.739 27.3412 180.327 27.6124L181.866 29.9516ZM183.447 28.7108C183.47 28.6907 183.458 28.7065 183.409 28.7281C183.356 28.7518 183.272 28.776 183.167 28.776V25.976C182.511 25.976 181.979 26.2719 181.595 26.6112L183.447 28.7108ZM205.491 18.579L205.909 19.9153L205.921 19.9112L205.491 18.579ZM207.543 17.477L208.456 18.5382L208.458 18.5366L207.543 17.477ZM208.797 15.767L210.086 16.3125L210.086 16.3125L208.797 15.767ZM207.619 9.915L206.762 11.0222L206.762 11.0222L207.619 9.915ZM198.803 8.68V7.28H197.403V8.68H198.803ZM198.803 18.959H197.403V20.359H198.803V18.959ZM215.257 33V34.4H218.023L216.385 32.1711L215.257 33ZM210.507 32.221L211.702 31.4921L211.673 31.4439L211.64 31.3981L210.507 32.221ZM203.439 22.493L202.297 23.3022L202.301 23.3091L202.306 23.3159L203.439 22.493ZM202.736 21.847L202.035 23.0586L202.072 23.08L202.11 23.0992L202.736 21.847ZM198.803 21.638V20.238H197.403V21.638H198.803ZM198.803 33V34.4H200.203V33H198.803ZM195.136 33H193.736V34.4H195.136V33ZM195.136 5.773V4.373H193.736V5.773H195.136ZM207.296 6.305L206.915 7.65221L206.928 7.65567L207.296 6.305ZM210.393 7.806L209.51 8.89259L209.518 8.89921L210.393 7.806ZM212.217 10.2L210.926 10.7409L210.928 10.7472L212.217 10.2ZM212.35 16.014L213.666 16.4924L213.666 16.4924L212.35 16.014ZM211.02 18.275L209.963 17.3573L209.961 17.3589L211.02 18.275ZM208.911 19.966L208.226 18.7448L208.218 18.7493L208.911 19.966ZM206.099 21.03L205.787 19.6653L202.275 20.4692L205.408 22.2476L206.099 21.03ZM207.315 22.189L206.155 22.9723L206.17 22.9954L206.187 23.0179L207.315 22.189ZM202.679 20.359C203.85 20.359 204.934 20.2199 205.909 19.9153L205.073 17.2427C204.427 17.4447 203.636 17.559 202.679 17.559V20.359ZM205.921 19.9112C206.887 19.5993 207.744 19.1506 208.456 18.5382L206.63 16.4158C206.252 16.7408 205.742 17.0267 205.061 17.2468L205.921 19.9112ZM208.458 18.5366C209.173 17.9191 209.721 17.1749 210.086 16.3125L207.508 15.2215C207.315 15.6764 207.028 16.0722 206.628 16.4174L208.458 18.5366ZM210.086 16.3125C210.446 15.4623 210.615 14.5457 210.615 13.582H207.815C207.815 14.2143 207.705 14.7544 207.508 15.2215L210.086 16.3125ZM210.615 13.582C210.615 11.6266 209.954 9.95157 208.476 8.80778L206.762 11.0222C207.412 11.5251 207.815 12.2947 207.815 13.582H210.615ZM208.476 8.80778C207.06 7.71239 205.101 7.28 202.831 7.28V10.08C204.817 10.08 206.05 10.4709 206.762 11.0222L208.476 8.80778ZM202.831 7.28H198.803V10.08H202.831V7.28ZM197.403 8.68V18.959H200.203V8.68H197.403ZM198.803 20.359H202.679V17.559H198.803V20.359ZM215.257 31.6H211.989V34.4H215.257V31.6ZM211.989 31.6C211.835 31.6 211.776 31.5709 211.766 31.566C211.76 31.5628 211.755 31.5592 211.748 31.5523C211.74 31.545 211.724 31.5275 211.702 31.4921L209.312 32.9499C209.913 33.9353 210.89 34.4 211.989 34.4V31.6ZM211.64 31.3981L204.572 21.6701L202.306 23.3159L209.374 33.0439L211.64 31.3981ZM204.581 21.6838C204.274 21.2491 203.876 20.8518 203.362 20.5948L202.11 23.0992C202.103 23.0956 202.174 23.1289 202.297 23.3022L204.581 21.6838ZM203.437 20.6354C202.869 20.3061 202.181 20.238 201.596 20.238V23.038C201.798 23.038 201.934 23.0519 202.018 23.0673C202.107 23.0836 202.096 23.0941 202.035 23.0586L203.437 20.6354ZM201.596 20.238H198.803V23.038H201.596V20.238ZM197.403 21.638V33H200.203V21.638H197.403ZM198.803 31.6H195.136V34.4H198.803V31.6ZM196.536 33V5.773H193.736V33H196.536ZM195.136 7.173H202.831V4.373H195.136V7.173ZM202.831 7.173C204.464 7.173 205.817 7.34173 206.915 7.65215L207.677 4.95784C206.267 4.55894 204.644 4.373 202.831 4.373V7.173ZM206.928 7.65567C208.038 7.95856 208.883 8.38291 209.51 8.89256L211.276 6.71944C210.282 5.91175 209.062 5.33544 207.664 4.95433L206.928 7.65567ZM209.518 8.89921C210.166 9.41725 210.627 10.0279 210.926 10.7409L213.508 9.65906C213.022 8.49741 212.267 7.51208 211.268 6.71278L209.518 8.89921ZM210.928 10.7472C211.237 11.4752 211.406 12.3238 211.406 13.316H214.206C214.206 12.0028 213.982 10.7742 213.506 9.65278L210.928 10.7472ZM211.406 13.316C211.406 14.1289 211.278 14.8651 211.034 15.5356L213.666 16.4924C214.03 15.4909 214.206 14.4284 214.206 13.316H211.406ZM211.034 15.5356C210.789 16.2107 210.433 16.8155 209.963 17.3573L212.077 19.1927C212.772 18.3919 213.303 17.4893 213.666 16.4924L211.034 15.5356ZM209.961 17.3589C209.508 17.8833 208.935 18.3475 208.226 18.7448L209.596 21.1872C210.559 20.6472 211.392 19.9841 212.079 19.1911L209.961 17.3589ZM208.218 18.7493C207.529 19.1417 206.723 19.451 205.787 19.6653L206.411 22.3947C207.578 22.1277 208.646 21.7276 209.604 21.1827L208.218 18.7493ZM205.408 22.2476C205.665 22.3934 205.917 22.6204 206.155 22.9723L208.475 21.4057C208.029 20.7442 207.47 20.1986 206.79 19.8124L205.408 22.2476ZM206.187 23.0179L214.129 33.8289L216.385 32.1711L208.443 21.3601L206.187 23.0179ZM241.456 29.998L242.856 30.0069L242.865 28.598H241.456V29.998ZM241.437 33V34.4H242.828L242.837 33.0089L241.437 33ZM224.66 33H223.26V34.4H224.66V33ZM224.66 5.773V4.373H223.26V5.773H224.66ZM241.437 5.773H242.837V4.373H241.437V5.773ZM241.437 8.775V10.175H242.837V8.775H241.437ZM228.346 8.775V7.375H226.946V8.775H228.346ZM228.346 17.819H226.946V19.219H228.346V17.819ZM238.948 17.819H240.348V16.419H238.948V17.819ZM238.948 20.707V22.107H240.348V20.707H238.948ZM228.346 20.707V19.307H226.946V20.707H228.346ZM228.346 29.998H226.946V31.398H228.346V29.998ZM240.056 29.9891L240.037 32.9911L242.837 33.0089L242.856 30.0069L240.056 29.9891ZM241.437 31.6H224.66V34.4H241.437V31.6ZM226.06 33V5.773H223.26V33H226.06ZM224.66 7.173H241.437V4.373H224.66V7.173ZM240.037 5.773V8.775H242.837V5.773H240.037ZM241.437 7.375H228.346V10.175H241.437V7.375ZM226.946 8.775V17.819H229.746V8.775H226.946ZM228.346 19.219H238.948V16.419H228.346V19.219ZM237.548 17.819V20.707H240.348V17.819H237.548ZM238.948 19.307H228.346V22.107H238.948V19.307ZM226.946 20.707V29.998H229.746V20.707H226.946ZM228.346 31.398H241.456V28.598H228.346V31.398ZM266.751 22.892V24.292H268.792L268.057 22.3879L266.751 22.892ZM262.476 11.815L261.169 12.3176L261.17 12.3191L262.476 11.815ZM262.077 10.675L260.741 11.0948L260.745 11.1059L262.077 10.675ZM261.678 9.269L263.034 8.92127L260.323 8.91765L261.678 9.269ZM260.861 11.834L259.564 11.3058L259.56 11.3174L259.555 11.3292L260.861 11.834ZM256.586 22.892L255.28 22.3872L254.544 24.292H256.586V22.892ZM274.427 33V34.4H276.494L275.727 32.4802L274.427 33ZM270.779 32.753L269.896 33.8396L269.896 33.8396L270.779 32.753ZM270.323 32.126L269.017 32.6316L269.02 32.6388L269.023 32.6459L270.323 32.126ZM267.777 25.552L269.082 25.0464L268.736 24.152H267.777V25.552ZM255.56 25.552V24.152H254.601L254.254 25.0464L255.56 25.552ZM253.014 32.126L251.708 31.6204L251.696 31.6516L251.686 31.6833L253.014 32.126ZM252.577 32.734L253.467 33.8147L253.467 33.8147L252.577 32.734ZM248.929 33L247.629 32.4802L246.861 34.4H248.929V33ZM259.816 5.773V4.373H258.868L258.516 5.25321L259.816 5.773ZM263.54 5.773L264.84 5.25321L264.488 4.373H263.54V5.773ZM268.057 22.3879L263.782 11.3109L261.17 12.3191L265.445 23.3961L268.057 22.3879ZM263.783 11.3124C263.667 11.0122 263.542 10.657 263.409 10.244L260.745 11.1059C260.89 11.5544 261.031 11.9591 261.169 12.3176L263.783 11.3124ZM263.412 10.2552C263.281 9.83789 263.155 9.39338 263.034 8.92127L260.322 9.61672C260.454 10.1326 260.594 10.6254 260.741 11.0948L263.412 10.2552ZM260.323 8.91765C260.066 9.90696 259.812 10.6982 259.564 11.3058L262.157 12.3622C262.467 11.6018 262.758 10.683 263.033 9.62035L260.323 8.91765ZM259.555 11.3292L255.28 22.3872L257.892 23.3968L262.167 12.3388L259.555 11.3292ZM256.586 24.292H266.751V21.492H256.586V24.292ZM274.427 31.6H271.577V34.4H274.427V31.6ZM271.577 31.6C271.528 31.6 271.521 31.5937 271.544 31.6008C271.556 31.6045 271.574 31.6112 271.595 31.6225C271.617 31.634 271.64 31.6487 271.662 31.6664L269.896 33.8396C270.408 34.2552 271.012 34.4 271.577 34.4V31.6ZM271.662 31.6664C271.652 31.6589 271.64 31.6484 271.623 31.6061L269.023 32.6459C269.209 33.1103 269.5 33.5177 269.896 33.8396L271.662 31.6664ZM271.628 31.6204L269.082 25.0464L266.471 26.0576L269.017 32.6316L271.628 31.6204ZM267.777 24.152H255.56V26.952H267.777V24.152ZM254.254 25.0464L251.708 31.6204L254.319 32.6316L256.865 26.0576L254.254 25.0464ZM251.686 31.6833C251.69 31.6717 251.694 31.661 251.699 31.6515C251.704 31.6422 251.708 31.6356 251.711 31.6319C251.716 31.6243 251.712 31.6326 251.687 31.6533L253.467 33.8147C253.852 33.4975 254.17 33.0843 254.342 32.5687L251.686 31.6833ZM251.687 31.6533C251.698 31.6438 251.713 31.634 251.729 31.625C251.745 31.6161 251.76 31.6097 251.773 31.6053C251.8 31.5964 251.806 31.6 251.779 31.6V34.4C252.374 34.4 252.967 34.2262 253.467 33.8147L251.687 31.6533ZM251.779 31.6H248.929V34.4H251.779V31.6ZM250.229 33.5198L261.116 6.29279L258.516 5.25321L247.629 32.4802L250.229 33.5198ZM259.816 7.173H263.54V4.373H259.816V7.173ZM262.24 6.29279L273.127 33.5198L275.727 32.4802L264.84 5.25321L262.24 6.29279ZM299.448 8.87V10.27H300.848V8.87H299.448ZM290.632 8.87V7.47H289.232V8.87H290.632ZM290.632 33V34.4H292.032V33H290.632ZM286.965 33H285.565V34.4H286.965V33ZM286.965 8.87H288.365V7.47H286.965V8.87ZM278.13 8.87H276.73V10.27H278.13V8.87ZM278.13 5.773V4.373H276.73V5.773H278.13ZM299.448 5.773H300.848V4.373H299.448V5.773ZM299.448 7.47H290.632V10.27H299.448V7.47ZM289.232 8.87V33H292.032V8.87H289.232ZM290.632 31.6H286.965V34.4H290.632V31.6ZM288.365 33V8.87H285.565V33H288.365ZM286.965 7.47H278.13V10.27H286.965V7.47ZM279.53 8.87V5.773H276.73V8.87H279.53ZM278.13 7.173H299.448V4.373H278.13V7.173ZM298.048 5.773V8.87H300.848V5.773H298.048ZM312.874 33V34.4H314.274V33H312.874ZM309.188 33H307.788V34.4H309.188V33ZM309.188 5.773V4.373H307.788V5.773H309.188ZM312.874 5.773H314.274V4.373H312.874V5.773ZM312.874 31.6H309.188V34.4H312.874V31.6ZM310.588 33V5.773H307.788V33H310.588ZM309.188 7.173H312.874V4.373H309.188V7.173ZM311.474 5.773V33H314.274V5.773H311.474ZM347.673 5.773L348.97 6.30136L349.756 4.373H347.673V5.773ZM336.577 33V34.4H337.519L337.874 33.5284L336.577 33ZM333.271 33L331.975 33.5284L332.33 34.4H333.271V33ZM322.175 5.773V4.373H320.093L320.879 6.30136L322.175 5.773ZM326.374 6.647L327.674 6.12749L327.674 6.12705L326.374 6.647ZM334.05 25.856L335.358 25.356L335.354 25.3462L335.35 25.3365L334.05 25.856ZM334.525 27.262L333.184 27.6643L333.189 27.6796L333.194 27.6947L334.525 27.262ZM334.962 28.858L333.597 29.1683H336.328L334.962 28.858ZM335.361 27.262L336.711 27.6332L336.711 27.6332L335.361 27.262ZM335.817 25.856L334.517 25.3376L334.513 25.3468L334.51 25.356L335.817 25.856ZM343.474 6.647L344.775 7.16539L344.785 7.13936L344.795 7.11294L343.474 6.647ZM343.911 6.058L344.801 7.13872L344.808 7.13351L343.911 6.058ZM346.377 5.24464L335.281 32.4716L337.874 33.5284L348.97 6.30136L346.377 5.24464ZM336.577 31.6H333.271V34.4H336.577V31.6ZM334.568 32.4716L323.472 5.24464L320.879 6.30136L331.975 33.5284L334.568 32.4716ZM322.175 7.173H325.12V4.373H322.175V7.173ZM325.12 7.173C325.17 7.173 325.176 7.17925 325.153 7.17215C325.141 7.1685 325.123 7.16183 325.102 7.15046C325.08 7.13899 325.057 7.12433 325.036 7.10656L326.801 4.93344C326.29 4.51778 325.685 4.373 325.12 4.373V7.173ZM325.036 7.10656C325.045 7.11408 325.058 7.12459 325.074 7.16695L327.674 6.12705C327.488 5.66274 327.197 5.25525 326.801 4.93344L325.036 7.10656ZM325.074 7.1665L332.75 26.3755L335.35 25.3365L327.674 6.12749L325.074 7.1665ZM332.743 26.356C332.893 26.7502 333.041 27.1859 333.184 27.6643L335.866 26.8597C335.706 26.3248 335.537 25.8231 335.358 25.356L332.743 26.356ZM333.194 27.6947C333.345 28.1583 333.479 28.6493 333.597 29.1683L336.328 28.5477C336.192 27.952 336.035 27.379 335.857 26.8293L333.194 27.6947ZM336.328 29.1683C336.45 28.6296 336.578 28.118 336.711 27.6332L334.011 26.8908C333.866 27.4193 333.728 27.9717 333.597 28.5477L336.328 29.1683ZM336.711 27.6332C336.84 27.1642 336.979 26.7391 337.125 26.356L334.51 25.356C334.327 25.8342 334.161 26.3464 334.011 26.8908L336.711 27.6332ZM337.118 26.3744L344.775 7.16539L342.174 6.1286L334.517 25.3376L337.118 26.3744ZM344.795 7.11294C344.789 7.1288 344.783 7.14219 344.777 7.1528C344.771 7.16333 344.767 7.16984 344.765 7.17243C344.761 7.17743 344.769 7.16498 344.801 7.1387L343.021 4.9773C342.653 5.28072 342.332 5.67733 342.154 6.18105L344.795 7.11294ZM344.808 7.13351C344.803 7.13728 344.795 7.14328 344.784 7.1498C344.772 7.15635 344.76 7.16191 344.748 7.16613C344.722 7.17516 344.712 7.173 344.728 7.173V4.373C344.108 4.373 343.512 4.56815 343.015 4.98249L344.808 7.13351ZM344.728 7.173H347.673V4.373H344.728V7.173ZM373.751 29.998L375.151 30.0069L375.16 28.598H373.751V29.998ZM373.732 33V34.4H375.123L375.132 33.0089L373.732 33ZM356.955 33H355.555V34.4H356.955V33ZM356.955 5.773V4.373H355.555V5.773H356.955ZM373.732 5.773H375.132V4.373H373.732V5.773ZM373.732 8.775V10.175H375.132V8.775H373.732ZM360.641 8.775V7.375H359.241V8.775H360.641ZM360.641 17.819H359.241V19.219H360.641V17.819ZM371.243 17.819H372.643V16.419H371.243V17.819ZM371.243 20.707V22.107H372.643V20.707H371.243ZM360.641 20.707V19.307H359.241V20.707H360.641ZM360.641 29.998H359.241V31.398H360.641V29.998ZM372.351 29.9891L372.332 32.9911L375.132 33.0089L375.151 30.0069L372.351 29.9891ZM373.732 31.6H356.955V34.4H373.732V31.6ZM358.355 33V5.773H355.555V33H358.355ZM356.955 7.173H373.732V4.373H356.955V7.173ZM372.332 5.773V8.775H375.132V5.773H372.332ZM373.732 7.375H360.641V10.175H373.732V7.375ZM359.241 8.775V17.819H362.041V8.775H359.241ZM360.641 19.219H371.243V16.419H360.641V19.219ZM369.843 17.819V20.707H372.643V17.819H369.843ZM371.243 19.307H360.641V22.107H371.243V19.307ZM359.241 20.707V29.998H362.041V20.707H359.241ZM360.641 31.398H373.751V28.598H360.641V31.398Z" fill="#005380" mask="url(#path-1-outside-1_2962_2)"/>
</svg>
