<svg width="40" height="40" viewBox="0 0 40 40" fill="none" xmlns="http://www.w3.org/2000/svg">
<g clip-path="url(#clip0_2540_5825)">
<path d="M13.25 33.3332H26.5833C27.2725 33.3332 27.8333 32.7723 27.8333 32.0832V7.9165C27.8333 7.22734 27.2725 6.6665 26.5833 6.6665H13.25C12.5608 6.6665 12 7.22734 12 7.9165V32.0832C12 32.7723 12.5608 33.3332 13.25 33.3332ZM12.8333 7.9165C12.8333 7.6865 13.02 7.49984 13.25 7.49984H26.5833C26.8133 7.49984 27 7.6865 27 7.9165V32.0832C27 32.3132 26.8133 32.4998 26.5833 32.4998H13.25C13.02 32.4998 12.8333 32.3132 12.8333 32.0832V7.9165Z" fill="#EC5200"/>
<path d="M14.0827 29.1666H25.7493C25.9793 29.1666 26.166 28.9799 26.166 28.7499V11.2499C26.166 11.0199 25.9793 10.8333 25.7493 10.8333H14.0827C13.8527 10.8333 13.666 11.0199 13.666 11.2499V28.7499C13.666 28.9799 13.8527 29.1666 14.0827 29.1666ZM14.4993 11.6666H25.3327V28.3333H14.4993V11.6666Z" fill="#EC5200"/>
<path d="M20.3333 31.6664C20.7936 31.6664 21.1667 31.2933 21.1667 30.8331C21.1667 30.3729 20.7936 29.9998 20.3333 29.9998C19.8731 29.9998 19.5 30.3729 19.5 30.8331C19.5 31.2933 19.8731 31.6664 20.3333 31.6664Z" fill="#EC5200"/>
<path d="M18.2507 9.99984H21.584C21.814 9.99984 22.0007 9.81317 22.0007 9.58317C22.0007 9.35317 21.814 9.1665 21.584 9.1665H18.2507C18.0207 9.1665 17.834 9.35317 17.834 9.58317C17.834 9.81317 18.0207 9.99984 18.2507 9.99984Z" fill="#EC5200"/>
</g>
<circle cx="20" cy="20" r="19.5" stroke="#EC5200"/>
<defs>
<clipPath id="clip0_2540_5825">
<rect width="26.6667" height="26.6667" fill="white" transform="translate(6.66602 6.6665)"/>
</clipPath>
</defs>
</svg>
