<svg width="42" height="32" viewBox="0 0 42 32" fill="none" xmlns="http://www.w3.org/2000/svg">
<path d="M14.612 5.6097C14.121 5.6097 13.7066 5.94019 13.5772 6.39012H9.26891L8.06986 5.1912H10.9612C11.0907 5.64113 11.5052 5.97162 11.9961 5.97162C12.5902 5.97162 13.0735 5.4882 13.0735 4.89407C13.0735 4.29994 12.5902 3.81652 11.9961 3.81652C11.5051 3.81652 11.0906 4.14701 10.9612 4.59694H7.4756L6.6853 3.80664L3.80469 6.68725L6.6853 9.56786L7.4756 8.77744H10.9611C11.0906 9.22737 11.5051 9.55786 11.9959 9.55786C12.5901 9.55786 13.0734 9.07444 13.0734 8.4803C13.0734 7.88617 12.5901 7.40288 11.9959 7.40288C11.505 7.40288 11.0904 7.73324 10.9611 8.18317H8.06986L9.26878 6.98425H13.5771C13.7065 7.43419 14.1209 7.76455 14.6119 7.76455C15.206 7.76455 15.6894 7.28126 15.6894 6.68712C15.6896 6.09299 15.2061 5.6097 14.612 5.6097ZM11.9962 4.41065C12.2627 4.41065 12.4794 4.62747 12.4794 4.89394C12.4794 5.16041 12.2627 5.37723 11.9962 5.37723C11.7297 5.37723 11.5129 5.16041 11.5129 4.89394C11.5129 4.62747 11.7297 4.41065 11.9962 4.41065ZM11.9962 7.99715C12.2627 7.99715 12.4794 8.21383 12.4794 8.4803C12.4794 8.74677 12.2627 8.96359 11.9962 8.96359C11.7297 8.96359 11.5129 8.74677 11.5129 8.4803C11.5129 8.21383 11.7297 7.99715 11.9962 7.99715ZM6.68543 8.72753L4.64515 6.68725L6.68543 4.64697L8.72571 6.68725L6.68543 8.72753ZM14.612 7.17041C14.3455 7.17041 14.1289 6.95372 14.1289 6.68725C14.1289 6.42078 14.3455 6.20396 14.612 6.20396C14.8785 6.20396 15.0953 6.42078 15.0953 6.68725C15.0953 6.95359 14.8785 7.17041 14.612 7.17041Z" fill="#0088CC"/>
<path d="M10.8852 9.1767H8.92447L6.68738 11.4138L1.96086 6.68726L6.68738 1.96086L8.92447 4.19795H10.8853L6.68738 0L0 6.68726L6.68738 13.3745L10.8852 9.1767Z" fill="#0088CC"/>
<path d="M14.612 5.6097C14.121 5.6097 13.7066 5.94019 13.5772 6.39012H9.26891L8.06986 5.1912H10.9612C11.0907 5.64113 11.5052 5.97162 11.9961 5.97162C12.5902 5.97162 13.0735 5.4882 13.0735 4.89407C13.0735 4.29994 12.5902 3.81652 11.9961 3.81652C11.5051 3.81652 11.0906 4.14701 10.9612 4.59694H7.4756L6.6853 3.80664L3.80469 6.68725L6.6853 9.56786L7.4756 8.77744H10.9611C11.0906 9.22737 11.5051 9.55786 11.9959 9.55786C12.5901 9.55786 13.0734 9.07444 13.0734 8.4803C13.0734 7.88617 12.5901 7.40288 11.9959 7.40288C11.505 7.40288 11.0904 7.73324 10.9611 8.18317H8.06986L9.26878 6.98425H13.5771C13.7065 7.43419 14.1209 7.76455 14.6119 7.76455C15.206 7.76455 15.6894 7.28126 15.6894 6.68712C15.6896 6.09299 15.2061 5.6097 14.612 5.6097ZM11.9962 4.41065C12.2627 4.41065 12.4794 4.62747 12.4794 4.89394C12.4794 5.16041 12.2627 5.37723 11.9962 5.37723C11.7297 5.37723 11.5129 5.16041 11.5129 4.89394C11.5129 4.62747 11.7297 4.41065 11.9962 4.41065ZM11.9962 7.99715C12.2627 7.99715 12.4794 8.21383 12.4794 8.4803C12.4794 8.74677 12.2627 8.96359 11.9962 8.96359C11.7297 8.96359 11.5129 8.74677 11.5129 8.4803C11.5129 8.21383 11.7297 7.99715 11.9962 7.99715ZM6.68543 8.72753L4.64515 6.68725L6.68543 4.64697L8.72571 6.68725L6.68543 8.72753ZM14.612 7.17041C14.3455 7.17041 14.1289 6.95372 14.1289 6.68725C14.1289 6.42078 14.3455 6.20396 14.612 6.20396C14.8785 6.20396 15.0953 6.42078 15.0953 6.68725C15.0953 6.95359 14.8785 7.17041 14.612 7.17041Z" fill="#0088CC"/>
<path d="M10.8852 9.1767H8.92447L6.68738 11.4138L1.96086 6.68726L6.68738 1.96086L8.92447 4.19795H10.8853L6.68738 0L0 6.68726L6.68738 13.3745L10.8852 9.1767Z" fill="#0088CC"/>
<path d="M22.5089 10.3624C22.5089 10.7946 22.7998 11.1593 23.1958 11.2733V15.0654L22.1406 16.1208V13.5758C22.5366 13.4619 22.8275 13.097 22.8275 12.665C22.8275 12.142 22.402 11.7166 21.879 11.7166C21.3561 11.7166 20.9306 12.142 20.9306 12.665C20.9306 13.0971 21.2215 13.462 21.6175 13.5758V16.6439L20.9219 17.3395L23.4574 19.875L25.9929 17.3395L25.2972 16.6439V13.5759C25.6932 13.462 25.9841 13.0971 25.9841 12.6651C25.9841 12.1421 25.5586 11.7167 25.0356 11.7167C24.5127 11.7167 24.0873 12.1421 24.0873 12.6651C24.0873 13.0972 24.3781 13.4621 24.7741 13.5759V16.1208L23.7188 15.0655V11.2734C24.1148 11.1594 24.4056 10.7947 24.4056 10.3625C24.4056 9.83957 23.9802 9.41407 23.4573 9.41407C22.9343 9.41396 22.5089 9.83946 22.5089 10.3624ZM21.4535 12.6648C21.4535 12.4303 21.6444 12.2396 21.8789 12.2396C22.1135 12.2396 22.3043 12.4303 22.3043 12.6648C22.3043 12.8994 22.1135 13.0902 21.8789 13.0902C21.6444 13.0902 21.4535 12.8994 21.4535 12.6648ZM24.6103 12.6648C24.6103 12.4303 24.8011 12.2396 25.0356 12.2396C25.2702 12.2396 25.461 12.4303 25.461 12.6648C25.461 12.8994 25.2702 13.0902 25.0356 13.0902C24.8011 13.0902 24.6103 12.8994 24.6103 12.6648ZM25.2532 17.3394L23.4574 19.1352L21.6615 17.3394L23.4574 15.5435L25.2532 17.3394ZM23.8827 10.3624C23.8827 10.597 23.6919 10.7877 23.4574 10.7877C23.2228 10.7877 23.032 10.597 23.032 10.3624C23.032 10.1279 23.2228 9.93703 23.4574 9.93703C23.6918 9.93703 23.8827 10.1279 23.8827 10.3624Z" fill="#0088CC"/>
<path d="M22.5089 10.3624C22.5089 10.7946 22.7998 11.1593 23.1958 11.2733V15.0654L22.1406 16.1208V13.5758C22.5366 13.4619 22.8275 13.097 22.8275 12.665C22.8275 12.142 22.402 11.7166 21.879 11.7166C21.3561 11.7166 20.9306 12.142 20.9306 12.665C20.9306 13.0971 21.2215 13.462 21.6175 13.5758V16.6439L20.9219 17.3395L23.4574 19.875L25.9929 17.3395L25.2972 16.6439V13.5759C25.6932 13.462 25.9841 13.0971 25.9841 12.6651C25.9841 12.1421 25.5586 11.7167 25.0356 11.7167C24.5127 11.7167 24.0873 12.1421 24.0873 12.6651C24.0873 13.0972 24.3781 13.4621 24.7741 13.5759V16.1208L23.7188 15.0655V11.2734C24.1148 11.1594 24.4056 10.7947 24.4056 10.3625C24.4056 9.83957 23.9802 9.41407 23.4573 9.41407C22.9343 9.41396 22.5089 9.83946 22.5089 10.3624ZM21.4535 12.6648C21.4535 12.4303 21.6444 12.2396 21.8789 12.2396C22.1135 12.2396 22.3043 12.4303 22.3043 12.6648C22.3043 12.8994 22.1135 13.0902 21.8789 13.0902C21.6444 13.0902 21.4535 12.8994 21.4535 12.6648ZM24.6103 12.6648C24.6103 12.4303 24.8011 12.2396 25.0356 12.2396C25.2702 12.2396 25.461 12.4303 25.461 12.6648C25.461 12.8994 25.2702 13.0902 25.0356 13.0902C24.8011 13.0902 24.6103 12.8994 24.6103 12.6648ZM25.2532 17.3394L23.4574 19.1352L21.6615 17.3394L23.4574 15.5435L25.2532 17.3394ZM23.8827 10.3624C23.8827 10.597 23.6919 10.7877 23.4574 10.7877C23.2228 10.7877 23.032 10.597 23.032 10.3624C23.032 10.1279 23.2228 9.93703 23.4574 9.93703C23.6918 9.93703 23.8827 10.1279 23.8827 10.3624Z" fill="#0088CC"/>
<path d="M24.4051 24.1571C24.4051 23.725 24.1142 23.3602 23.7182 23.2463V19.4541L24.7735 18.3987V20.9437C24.3775 21.0577 24.0866 21.4225 24.0866 21.8546C24.0866 22.3775 24.5121 22.8029 25.035 22.8029C25.558 22.8029 25.9835 22.3775 25.9835 21.8546C25.9835 21.4224 25.6926 21.0575 25.2966 20.9437V17.8757L25.9922 17.18L23.4567 14.6445L20.9212 17.18L21.6169 17.8757V20.9436C21.2209 21.0575 20.93 21.4224 20.93 21.8545C20.93 22.3774 21.3555 22.8028 21.8784 22.8028C22.4014 22.8028 22.8268 22.3774 22.8268 21.8545C22.8268 21.4223 22.536 21.0574 22.14 20.9436V18.3987L23.1953 19.454V23.2462C22.7992 23.3601 22.5084 23.7248 22.5084 24.157C22.5084 24.68 22.9338 25.1055 23.4568 25.1055C23.9797 25.1056 24.4051 24.6801 24.4051 24.1571ZM25.4605 21.8547C25.4605 22.0892 25.2697 22.28 25.0351 22.28C24.8006 22.28 24.6098 22.0892 24.6098 21.8547C24.6098 21.6201 24.8006 21.4293 25.0351 21.4293C25.2697 21.4293 25.4605 21.6201 25.4605 21.8547ZM22.3037 21.8547C22.3037 22.0892 22.113 22.28 21.8784 22.28C21.6439 22.28 21.453 22.0892 21.453 21.8547C21.453 21.6201 21.6439 21.4293 21.8784 21.4293C22.113 21.4293 22.3037 21.6201 22.3037 21.8547ZM21.6608 17.1802L23.4567 15.3843L25.2525 17.1802L23.4567 18.976L21.6608 17.1802ZM23.0314 24.1571C23.0314 23.9226 23.2221 23.7318 23.4567 23.7318C23.6912 23.7318 23.8821 23.9226 23.8821 24.1571C23.8821 24.3917 23.6912 24.5825 23.4567 24.5825C23.2222 24.5825 23.0314 24.3917 23.0314 24.1571Z" fill="#0088CC"/>
<path d="M24.4051 24.1571C24.4051 23.725 24.1142 23.3602 23.7182 23.2463V19.4541L24.7735 18.3987V20.9437C24.3775 21.0577 24.0866 21.4225 24.0866 21.8546C24.0866 22.3775 24.5121 22.8029 25.035 22.8029C25.558 22.8029 25.9835 22.3775 25.9835 21.8546C25.9835 21.4224 25.6926 21.0575 25.2966 20.9437V17.8757L25.9922 17.18L23.4567 14.6445L20.9212 17.18L21.6169 17.8757V20.9436C21.2209 21.0575 20.93 21.4224 20.93 21.8545C20.93 22.3774 21.3555 22.8028 21.8784 22.8028C22.4014 22.8028 22.8268 22.3774 22.8268 21.8545C22.8268 21.4223 22.536 21.0574 22.14 20.9436V18.3987L23.1953 19.454V23.2462C22.7992 23.3601 22.5084 23.7248 22.5084 24.157C22.5084 24.68 22.9338 25.1055 23.4568 25.1055C23.9797 25.1056 24.4051 24.6801 24.4051 24.1571ZM25.4605 21.8547C25.4605 22.0892 25.2697 22.28 25.0351 22.28C24.8006 22.28 24.6098 22.0892 24.6098 21.8547C24.6098 21.6201 24.8006 21.4293 25.0351 21.4293C25.2697 21.4293 25.4605 21.6201 25.4605 21.8547ZM22.3037 21.8547C22.3037 22.0892 22.113 22.28 21.8784 22.28C21.6439 22.28 21.453 22.0892 21.453 21.8547C21.453 21.6201 21.6439 21.4293 21.8784 21.4293C22.113 21.4293 22.3037 21.6201 22.3037 21.8547ZM21.6608 17.1802L23.4567 15.3843L25.2525 17.1802L23.4567 18.976L21.6608 17.1802ZM23.0314 24.1571C23.0314 23.9226 23.2221 23.7318 23.4567 23.7318C23.6912 23.7318 23.8821 23.9226 23.8821 24.1571C23.8821 24.3917 23.6912 24.5825 23.4567 24.5825C23.2222 24.5825 23.0314 24.3917 23.0314 24.1571Z" fill="#0088CC"/>
<path d="M0.785156 25.1663V12.0293L6.65148 17.503L12.2922 12.0293V25.1663L6.65148 30.859L0.785156 25.1663Z" stroke="#0088CC" stroke-width="1.5"/>
<path d="M40.7046 31.1574L33.9481 19.3879L30.2803 26.9393L32.3186 31.1574H40.7046Z" stroke="#0088CC" stroke-width="1.5"/>
<path d="M32.3903 1.79688L28.6277 13.1975V23.3717L29.3597 24.9427L40.793 1.79688H32.3903Z" stroke="#0088CC" stroke-width="1.5"/>
<rect x="19.5781" y="1.79688" width="7.39179" height="29.3597" stroke="#0088CC" stroke-width="1.5"/>
</svg>
