<svg width="376" height="37" viewBox="0 0 376 37" fill="none" xmlns="http://www.w3.org/2000/svg">
<path d="M31.1832 34H28.066V7.39258H31.1832V34ZM60.5144 34H56.1726L45.8934 21.8281C45.5099 21.3704 45.2749 21.0612 45.1883 20.9004H45.1141V34H41.9969V7.39258H45.1141V19.8984H45.1883C45.3615 19.6263 45.5965 19.3232 45.8934 18.9893L55.8387 7.39258H59.7166L48.3055 20.1582L60.5144 34ZM70.957 34H67.8398V7.39258H70.957V34ZM101.661 32.1816C98.9894 33.6908 96.0207 34.4453 92.7551 34.4453C88.9575 34.4453 85.8837 33.2207 83.5334 30.7715C81.1955 28.3223 80.0266 25.0814 80.0266 21.0488C80.0266 16.9297 81.3254 13.5527 83.923 10.918C86.5331 8.27083 89.8358 6.94727 93.8312 6.94727C96.7258 6.94727 99.1564 7.41732 101.123 8.35742V11.8086C98.9709 10.4479 96.4227 9.76758 93.4787 9.76758C90.4976 9.76758 88.0546 10.7943 86.1496 12.8477C84.2447 14.901 83.2922 17.5605 83.2922 20.8262C83.2922 24.1908 84.1766 26.8379 85.9455 28.7676C87.7144 30.6849 90.1141 31.6436 93.1447 31.6436C95.2228 31.6436 97.0227 31.2292 98.5441 30.4004V22.9414H92.718V20.1211H101.661V32.1816ZM132.254 34H128.803L125.983 26.541H114.702L112.048 34H108.579L118.784 7.39258H122.012L132.254 34ZM124.962 23.7393L120.787 12.4023C120.651 12.0312 120.515 11.4375 120.379 10.6211H120.305C120.181 11.3757 120.039 11.9694 119.878 12.4023L115.741 23.7393H124.962ZM143.105 34H139.988V7.39258H143.105V34ZM186.256 32.8867C184.289 33.9258 181.84 34.4453 178.908 34.4453C175.123 34.4453 172.092 33.2269 169.816 30.79C167.54 28.3532 166.402 25.1556 166.402 21.1973C166.402 16.9421 167.683 13.5033 170.243 10.8809C172.804 8.25846 176.051 6.94727 179.984 6.94727C182.508 6.94727 184.598 7.31217 186.256 8.04199V11.3633C184.351 10.2995 182.248 9.76758 179.947 9.76758C176.892 9.76758 174.412 10.7881 172.507 12.8291C170.614 14.8701 169.668 17.5977 169.668 21.0117C169.668 24.2526 170.552 26.8379 172.321 28.7676C174.103 30.6849 176.434 31.6436 179.316 31.6436C181.988 31.6436 184.301 31.0498 186.256 29.8623V32.8867ZM214.548 34H210.837L206.384 26.541C205.976 25.8483 205.58 25.2607 205.196 24.7783C204.813 24.2835 204.417 23.8815 204.009 23.5723C203.613 23.263 203.18 23.0404 202.71 22.9043C202.252 22.7559 201.733 22.6816 201.152 22.6816H198.591V34H195.474V7.39258H203.415C204.578 7.39258 205.648 7.54102 206.625 7.83789C207.615 8.1224 208.468 8.56152 209.186 9.15527C209.916 9.74902 210.485 10.4912 210.893 11.3818C211.301 12.2601 211.505 13.293 211.505 14.4805C211.505 15.4082 211.363 16.2617 211.078 17.041C210.806 17.8079 210.41 18.4945 209.891 19.1006C209.384 19.7067 208.765 20.2262 208.035 20.6592C207.318 21.0798 206.508 21.4076 205.605 21.6426V21.7168C206.05 21.9147 206.433 22.1436 206.755 22.4033C207.089 22.6507 207.404 22.9476 207.701 23.2939C207.998 23.6403 208.289 24.0361 208.573 24.4814C208.87 24.9144 209.198 25.4215 209.557 26.0029L214.548 34ZM198.591 10.2129V19.8613H202.821C203.601 19.8613 204.318 19.7438 204.974 19.5088C205.642 19.2738 206.217 18.9398 206.699 18.5068C207.182 18.0615 207.559 17.5234 207.831 16.8926C208.103 16.2493 208.239 15.5319 208.239 14.7402C208.239 13.3177 207.776 12.2106 206.848 11.4189C205.932 10.6149 204.603 10.2129 202.859 10.2129H198.591ZM236.123 34H222.022V7.39258H235.53V10.2129H225.139V19.0635H234.75V21.8652H225.139V31.1797H236.123V34ZM265.64 34H262.189L259.369 26.541H248.087L245.434 34H241.964L252.17 7.39258H255.398L265.64 34ZM258.348 23.7393L254.173 12.4023C254.037 12.0312 253.901 11.4375 253.765 10.6211H253.691C253.567 11.3757 253.425 11.9694 253.264 12.4023L249.127 23.7393H258.348ZM286.362 10.2129H278.68V34H275.563V10.2129H267.9V7.39258H286.362V10.2129ZM297.473 34H294.355V7.39258H297.473V34ZM328.066 7.39258L318.213 34H314.78L305.132 7.39258H308.602L315.968 28.4893C316.203 29.1696 316.382 29.9551 316.506 30.8457H316.58C316.679 30.1035 316.883 29.3057 317.193 28.4521L324.707 7.39258H328.066ZM349.789 34H335.688V7.39258H349.196V10.2129H338.805V19.0635H348.416V21.8652H338.805V31.1797H349.789V34Z" fill="#0088CC"/>
</svg>
