<svg width="40" height="40" viewBox="0 0 40 40" fill="none" xmlns="http://www.w3.org/2000/svg">
<path d="M30.2131 10.3201C30.0335 10.1632 29.8147 10.059 29.5807 10.0188C29.3466 9.97862 29.1061 10.004 28.8853 10.0921L8.82727 18.0562C8.56507 18.1603 8.34326 18.3474 8.19506 18.5896C8.04685 18.8317 7.98021 19.1158 8.0051 19.3994C8.03 19.683 8.14509 19.9509 8.33316 20.1628C8.52123 20.3748 8.77216 20.5196 9.0484 20.5754L14.4927 21.6759V28.4678C14.49 28.7291 14.5654 28.9852 14.7091 29.2024C14.8527 29.4197 15.0579 29.5881 15.2978 29.6855C15.4585 29.7535 15.631 29.7888 15.8052 29.7892C15.9755 29.7887 16.1439 29.754 16.3008 29.6871C16.4577 29.6203 16.5999 29.5226 16.7191 29.3998L19.827 26.2587L24.4127 30.3372C24.649 30.5493 24.9539 30.6666 25.27 30.6669C25.4073 30.6667 25.5439 30.6449 25.6745 30.602C25.8901 30.5329 26.0839 30.4079 26.2367 30.2395C26.3895 30.0711 26.496 29.8651 26.5454 29.6421L30.6334 11.6134C30.6867 11.3796 30.6758 11.1355 30.6017 10.9075C30.5276 10.6795 30.3933 10.4764 30.2131 10.3201ZM8.87116 19.3217C8.86034 19.2268 8.88152 19.131 8.93126 19.0498C8.98099 18.9685 9.05639 18.9066 9.14525 18.874L27.5315 11.5737L14.8266 20.8473L9.21891 19.7138C9.12576 19.6975 9.04076 19.65 8.97766 19.5788C8.91455 19.5077 8.87703 19.4171 8.87116 19.3217ZM16.1043 28.7785C16.0435 28.8399 15.966 28.8818 15.8817 28.8987C15.7974 28.9157 15.71 28.907 15.6305 28.8737C15.5511 28.8405 15.4832 28.7841 15.4355 28.7119C15.3877 28.6397 15.3622 28.5547 15.3622 28.4678V22.2877L19.173 25.677L16.1043 28.7785ZM29.7859 11.4171L25.6979 29.4458C25.6811 29.52 25.6455 29.5884 25.5946 29.6445C25.5437 29.7006 25.4793 29.7424 25.4076 29.7658C25.3359 29.7891 25.2595 29.7933 25.1858 29.7778C25.112 29.7623 25.0435 29.7277 24.987 29.6775L15.6236 21.3496L29.7156 11.0635C29.7527 11.1134 29.7782 11.171 29.7904 11.2322C29.8026 11.2934 29.801 11.3566 29.7859 11.4171Z" fill="#EC5200"/>
<circle cx="20" cy="20" r="19.5" stroke="#EC5200"/>
</svg>
