<svg width="40" height="40" viewBox="0 0 40 40" fill="none" xmlns="http://www.w3.org/2000/svg">
<path d="M27.2179 29.1198C25.2566 30.5932 22.8186 31.4664 20.1767 31.4664C13.6966 31.4664 8.44336 26.2133 8.44336 19.7331C8.44336 13.253 13.6966 7.99976 20.1767 7.99976C26.6569 7.99976 31.91 13.253 31.91 19.7331V21.6886C31.91 23.4887 30.4508 24.9479 28.6508 24.9479C26.8507 24.9479 25.3915 23.4887 25.3915 21.6886V14.5183M25.3915 19.7331C25.3915 22.6131 23.0567 24.9479 20.1767 24.9479C17.2966 24.9479 14.9619 22.6131 14.9619 19.7331C14.9619 16.853 17.2966 14.5183 20.1767 14.5183C23.0567 14.5183 25.3915 16.853 25.3915 19.7331Z" stroke="#EC5200" stroke-width="2" stroke-linecap="round" stroke-linejoin="round"/>
<circle cx="20" cy="20" r="19.5" stroke="#EC5200"/>
</svg>
