<svg width="40" height="40" viewBox="0 0 40 40" fill="none" xmlns="http://www.w3.org/2000/svg">
<g clip-path="url(#clip0_3933_10973)">
<path d="M13.2461 33.3327H26.5794C27.2686 33.3327 27.8294 32.7718 27.8294 32.0827V7.91602C27.8294 7.22685 27.2686 6.66602 26.5794 6.66602H13.2461C12.5569 6.66602 11.9961 7.22685 11.9961 7.91602V32.0827C11.9961 32.7718 12.5569 33.3327 13.2461 33.3327ZM12.8294 7.91602C12.8294 7.68602 13.0161 7.49935 13.2461 7.49935H26.5794C26.8094 7.49935 26.9961 7.68602 26.9961 7.91602V32.0827C26.9961 32.3127 26.8094 32.4993 26.5794 32.4993H13.2461C13.0161 32.4993 12.8294 32.3127 12.8294 32.0827V7.91602Z" fill="#0088CC"/>
<path d="M14.0807 29.1654H25.7474C25.9774 29.1654 26.1641 28.9787 26.1641 28.7487V11.2487C26.1641 11.0187 25.9774 10.832 25.7474 10.832H14.0807C13.8507 10.832 13.6641 11.0187 13.6641 11.2487V28.7487C13.6641 28.9787 13.8507 29.1654 14.0807 29.1654ZM14.4974 11.6654H25.3307V28.332H14.4974V11.6654Z" fill="#0088CC"/>
<path d="M20.3294 31.6667C20.7897 31.6667 21.1628 31.2936 21.1628 30.8333C21.1628 30.3731 20.7897 30 20.3294 30C19.8692 30 19.4961 30.3731 19.4961 30.8333C19.4961 31.2936 19.8692 31.6667 20.3294 31.6667Z" fill="#0088CC"/>
<path d="M18.2448 9.99935H21.5781C21.8081 9.99935 21.9948 9.81268 21.9948 9.58268C21.9948 9.35268 21.8081 9.16602 21.5781 9.16602H18.2448C18.0148 9.16602 17.8281 9.35268 17.8281 9.58268C17.8281 9.81268 18.0148 9.99935 18.2448 9.99935Z" fill="#0088CC"/>
</g>
<circle cx="20" cy="20" r="19.5" stroke="#0088CC"/>
<defs>
<clipPath id="clip0_3933_10973">
<rect width="26.6667" height="26.6667" fill="white" transform="translate(6.66406 6.66602)"/>
</clipPath>
</defs>
</svg>
