<svg width="40" height="40" viewBox="0 0 40 40" fill="none" xmlns="http://www.w3.org/2000/svg">
<path d="M30.217 10.3198C30.0374 10.1629 29.8187 10.0587 29.5846 10.0186C29.3505 9.97838 29.11 10.0037 28.8892 10.0919L8.83118 18.056C8.56897 18.1601 8.34717 18.3472 8.19896 18.5893C8.05076 18.8314 7.98411 19.1156 8.00901 19.3992C8.0339 19.6828 8.149 19.9506 8.33707 20.1626C8.52513 20.3746 8.77607 20.5193 9.05231 20.5751L14.4966 21.6757V28.4676C14.4939 28.7289 14.5693 28.9849 14.713 29.2022C14.8566 29.4194 15.0618 29.5878 15.3017 29.6853C15.4624 29.7533 15.6349 29.7885 15.8091 29.789C15.9794 29.7885 16.1478 29.7538 16.3047 29.6869C16.4616 29.62 16.6038 29.5223 16.723 29.3995L19.8309 26.2584L24.4166 30.3369C24.6529 30.549 24.9578 30.6663 25.2739 30.6667C25.4113 30.6665 25.5478 30.6446 25.6784 30.6018C25.894 30.5327 26.0878 30.4077 26.2406 30.2393C26.3935 30.0708 26.4999 29.8648 26.5493 29.6418L30.6373 11.6131C30.6906 11.3793 30.6797 11.1352 30.6056 10.9072C30.5315 10.6793 30.3972 10.4761 30.217 10.3198ZM8.87506 19.3215C8.86425 19.2266 8.88542 19.1308 8.93516 19.0495C8.9849 18.9683 9.0603 18.9063 9.14916 18.8738L27.5354 11.5734L14.8305 20.8471L9.22281 19.7136C9.12966 19.6973 9.04467 19.6497 8.98156 19.5786C8.91846 19.5074 8.88094 19.4169 8.87506 19.3215ZM16.1082 28.7782C16.0474 28.8397 15.9699 28.8815 15.8856 28.8985C15.8013 28.9154 15.7139 28.9067 15.6345 28.8735C15.555 28.8402 15.4871 28.7839 15.4394 28.7117C15.3916 28.6394 15.3661 28.5545 15.3661 28.4676V22.2874L19.1769 25.6768L16.1082 28.7782ZM29.7898 11.4168L25.7019 29.4455C25.685 29.5197 25.6494 29.5882 25.5985 29.6443C25.5476 29.7004 25.4832 29.7422 25.4115 29.7655C25.3398 29.7889 25.2634 29.793 25.1897 29.7775C25.1159 29.7621 25.0474 29.7275 24.9909 29.6772L15.6275 21.3494L29.7195 11.0632C29.7566 11.1131 29.7822 11.1708 29.7943 11.232C29.8065 11.2932 29.8049 11.3563 29.7898 11.4168Z" fill="#0088CC"/>
<circle cx="20" cy="20" r="19.5" stroke="#0088CC"/>
</svg>
