<svg width="40" height="40" viewBox="0 0 40 40" fill="none" xmlns="http://www.w3.org/2000/svg">
<path d="M27.2159 29.12C25.2546 30.5934 22.8167 31.4667 20.1747 31.4667C13.6946 31.4667 8.44141 26.2135 8.44141 19.7333C8.44141 13.2532 13.6946 8 20.1747 8C26.6549 8 31.9081 13.2532 31.9081 19.7333V21.6889C31.9081 23.4889 30.4488 24.9481 28.6488 24.9481C26.8488 24.9481 25.3896 23.4889 25.3896 21.6889V14.5185M25.3896 19.7333C25.3896 22.6133 23.0548 24.9481 20.1747 24.9481C17.2947 24.9481 14.9599 22.6133 14.9599 19.7333C14.9599 16.8533 17.2947 14.5185 20.1747 14.5185C23.0548 14.5185 25.3896 16.8533 25.3896 19.7333Z" stroke="#0088CC" stroke-linecap="round" stroke-linejoin="round"/>
<circle cx="20" cy="20" r="19.5" stroke="#0088CC"/>
</svg>
