<svg width="40" height="40" viewBox="0 0 40 40" fill="none" xmlns="http://www.w3.org/2000/svg">
<circle cx="20" cy="20" r="19.5" stroke="#0088CC"/>
<path d="M10.8812 10H15.8727C16.0986 10 16.3153 10.0895 16.475 10.2488C16.6348 10.4082 16.7245 10.6243 16.7245 10.8496C16.6966 11.9827 16.8874 13.1105 17.2867 14.1716C17.4586 14.5268 17.4964 14.932 17.3932 15.3127C17.2899 15.6935 17.0525 16.0244 16.7245 16.2447L14.9784 17.9439C15.7526 19.452 16.765 20.8261 17.9766 22.0136C19.1575 23.2419 20.5295 24.2719 22.0397 25.0637L23.7433 23.322C24.595 22.4724 24.9869 22.4724 25.8216 22.7613C26.8855 23.1595 28.0162 23.3499 29.1521 23.322C29.3747 23.3323 29.5854 23.4252 29.7429 23.5823C29.9005 23.7395 29.9935 23.9496 30.0039 24.1716V29.1504C29.9935 29.3724 29.9005 29.5825 29.7429 29.7397C29.5854 29.8968 29.3747 29.9897 29.1521 30C24.1416 29.7823 19.392 27.7104 15.8301 24.1886C12.2938 20.6396 10.2157 15.8999 10.0039 10.9006C10.0059 10.6667 10.0982 10.4427 10.2616 10.2749C10.425 10.1072 10.6469 10.0087 10.8812 10Z" stroke="#0088CC" stroke-linecap="round" stroke-linejoin="round"/>
</svg>
