<svg width="370" height="29" viewBox="0 0 370 29" fill="none" xmlns="http://www.w3.org/2000/svg">
<mask id="path-1-outside-1_2538_2610" maskUnits="userSpaceOnUse" x="-2" y="-1" width="374" height="31" fill="black">
<rect fill="white" x="-2" y="-1" width="374" height="31"/>
<path d="M3.75324 28H0.0672407V0.772998H3.75324V28ZM20.0846 12.705H21.4716C21.953 12.705 22.3393 12.648 22.6306 12.534C22.922 12.4073 23.188 12.1983 23.4286 11.907L32.4916 1.647C32.745 1.31766 33.011 1.08966 33.2896 0.962998C33.5683 0.836332 33.9103 0.772998 34.3156 0.772998H37.4316L27.0576 12.496C26.8043 12.8 26.5573 13.0533 26.3166 13.256C26.0886 13.446 25.8416 13.6043 25.5756 13.731C25.9176 13.845 26.228 14.016 26.5066 14.244C26.7853 14.4593 27.0576 14.7443 27.3236 15.099L38.1536 28H34.9616C34.721 28 34.512 27.9873 34.3346 27.962C34.17 27.924 34.0243 27.8733 33.8976 27.81C33.771 27.734 33.657 27.6517 33.5556 27.563C33.467 27.4617 33.3783 27.3477 33.2896 27.221L23.9036 16.41C23.6503 16.0933 23.378 15.8717 23.0866 15.745C22.7953 15.6057 22.352 15.536 21.7566 15.536H20.0846V28H16.4176V0.772998H20.0846V12.705ZM50.9638 28H47.2778V0.772998H50.9638V28ZM85.7442 14.909V25.359C84.3762 26.347 82.9132 27.088 81.3552 27.582C79.8099 28.0633 78.1125 28.304 76.2632 28.304C74.0719 28.304 72.0959 27.9683 70.3352 27.297C68.5745 26.613 67.0672 25.663 65.8132 24.447C64.5719 23.2183 63.6155 21.749 62.9442 20.039C62.2729 18.329 61.9372 16.448 61.9372 14.396C61.9372 12.3187 62.2602 10.425 62.9062 8.715C63.5649 7.005 64.4959 5.542 65.6992 4.326C66.9025 3.09733 68.3655 2.14733 70.0882 1.476C71.8109 0.804665 73.7362 0.468998 75.8642 0.468998C76.9409 0.468998 77.9415 0.551331 78.8662 0.715998C79.7909 0.867999 80.6459 1.096 81.4312 1.4C82.2165 1.69133 82.9449 2.05233 83.6162 2.483C84.2875 2.901 84.9145 3.376 85.4972 3.908L84.4522 5.58C84.2875 5.83333 84.0722 5.998 83.8062 6.074C83.5529 6.13733 83.2679 6.074 82.9512 5.884C82.6472 5.70667 82.2989 5.49133 81.9062 5.238C81.5135 4.98467 81.0322 4.744 80.4622 4.516C79.9049 4.27533 79.2399 4.07267 78.4672 3.908C77.7072 3.74333 76.8015 3.661 75.7502 3.661C74.2175 3.661 72.8305 3.91433 71.5892 4.421C70.3479 4.915 69.2902 5.63067 68.4162 6.568C67.5422 7.49267 66.8709 8.62 66.4022 9.95C65.9335 11.2673 65.6992 12.7493 65.6992 14.396C65.6992 16.106 65.9399 17.6387 66.4212 18.994C66.9152 20.3367 67.6119 21.483 68.5112 22.433C69.4232 23.3703 70.5252 24.086 71.8172 24.58C73.1092 25.074 74.5595 25.321 76.1682 25.321C77.4349 25.321 78.5559 25.1817 79.5312 24.903C80.5192 24.6117 81.4819 24.2127 82.4192 23.706V17.721H78.1822C77.9415 17.721 77.7452 17.6513 77.5932 17.512C77.4539 17.3727 77.3842 17.2017 77.3842 16.999V14.909H85.7442ZM111.322 17.892L107.047 6.815C106.921 6.48567 106.788 6.10567 106.648 5.675C106.509 5.23167 106.376 4.763 106.249 4.269C105.983 5.295 105.711 6.15 105.432 6.834L101.157 17.892H111.322ZM118.998 28H116.148C115.819 28 115.553 27.9177 115.35 27.753C115.148 27.5883 114.996 27.3793 114.894 27.126L112.348 20.552H100.131L97.5853 27.126C97.5093 27.354 97.3637 27.5567 97.1483 27.734C96.933 27.9113 96.667 28 96.3503 28H93.5003L104.387 0.772998H108.111L118.998 28ZM131.966 28H128.28V0.772998H131.966V28ZM179.167 22.376C179.37 22.376 179.547 22.4583 179.699 22.623L181.162 24.2C180.048 25.492 178.692 26.499 177.096 27.221C175.513 27.943 173.594 28.304 171.339 28.304C169.389 28.304 167.615 27.9683 166.019 27.297C164.423 26.613 163.062 25.663 161.934 24.447C160.807 23.2183 159.933 21.749 159.312 20.039C158.692 18.329 158.381 16.448 158.381 14.396C158.381 12.344 158.704 10.463 159.35 8.753C159.996 7.043 160.902 5.57367 162.067 4.345C163.245 3.11633 164.651 2.16633 166.285 1.495C167.919 0.810998 169.724 0.468998 171.7 0.468998C173.638 0.468998 175.348 0.779331 176.83 1.4C178.312 2.02067 179.617 2.863 180.744 3.927L179.528 5.618C179.452 5.74466 179.351 5.85233 179.224 5.941C179.11 6.017 178.952 6.055 178.749 6.055C178.521 6.055 178.243 5.93467 177.913 5.694C177.584 5.44067 177.153 5.162 176.621 4.858C176.089 4.554 175.424 4.28167 174.626 4.041C173.828 3.78767 172.847 3.661 171.681 3.661C170.275 3.661 168.99 3.908 167.824 4.402C166.659 4.88333 165.652 5.58633 164.803 6.511C163.967 7.43567 163.315 8.563 162.846 9.893C162.378 11.223 162.143 12.724 162.143 14.396C162.143 16.0933 162.384 17.607 162.865 18.937C163.359 20.267 164.024 21.3943 164.86 22.319C165.709 23.231 166.703 23.9277 167.843 24.409C168.996 24.8903 170.237 25.131 171.567 25.131C172.378 25.131 173.106 25.0867 173.752 24.998C174.411 24.8967 175.013 24.7447 175.557 24.542C176.115 24.3393 176.628 24.086 177.096 23.782C177.578 23.4653 178.053 23.0917 178.521 22.661C178.737 22.471 178.952 22.376 179.167 22.376ZM198.679 13.959C199.743 13.959 200.68 13.8323 201.491 13.579C202.314 13.313 202.998 12.9457 203.543 12.477C204.1 11.9957 204.518 11.4257 204.797 10.767C205.076 10.1083 205.215 9.38 205.215 8.582C205.215 6.96066 204.683 5.73833 203.619 4.915C202.555 4.09167 200.959 3.68 198.831 3.68H194.803V13.959H198.679ZM211.257 28H207.989C207.318 28 206.824 27.7403 206.507 27.221L199.439 17.493C199.224 17.189 198.989 16.9737 198.736 16.847C198.495 16.7077 198.115 16.638 197.596 16.638H194.803V28H191.136V0.772998H198.831C200.554 0.772998 202.042 0.950332 203.296 1.305C204.55 1.647 205.582 2.14733 206.393 2.806C207.216 3.46467 207.824 4.26267 208.217 5.2C208.61 6.12467 208.806 7.16333 208.806 8.316C208.806 9.27867 208.654 10.178 208.35 11.014C208.046 11.85 207.603 12.6037 207.02 13.275C206.45 13.9337 205.747 14.4973 204.911 14.966C204.088 15.4347 203.15 15.7893 202.099 16.03C202.568 16.296 202.973 16.6823 203.315 17.189L211.257 28ZM237.456 24.998L237.437 28H220.66V0.772998H237.437V3.775H224.346V12.819H234.948V15.707H224.346V24.998H237.456ZM262.751 17.892L258.476 6.815C258.349 6.48567 258.216 6.10567 258.077 5.675C257.938 5.23167 257.805 4.763 257.678 4.269C257.412 5.295 257.14 6.15 256.861 6.834L252.586 17.892H262.751ZM270.427 28H267.577C267.248 28 266.982 27.9177 266.779 27.753C266.576 27.5883 266.424 27.3793 266.323 27.126L263.777 20.552H251.56L249.014 27.126C248.938 27.354 248.792 27.5567 248.577 27.734C248.362 27.9113 248.096 28 247.779 28H244.929L255.816 0.772998H259.54L270.427 28ZM295.448 3.87H286.632V28H282.965V3.87H274.13V0.772998H295.448V3.87ZM308.874 28H305.188V0.772998H308.874V28ZM343.673 0.772998L332.577 28H329.271L318.175 0.772998H321.12C321.45 0.772998 321.716 0.855332 321.918 1.02C322.121 1.18467 322.273 1.39367 322.374 1.647L330.05 20.856C330.215 21.2867 330.373 21.7553 330.525 22.262C330.69 22.7687 330.836 23.3007 330.962 23.858C331.089 23.3007 331.222 22.7687 331.361 22.262C331.501 21.7553 331.653 21.2867 331.817 20.856L339.474 1.647C339.55 1.43167 339.696 1.23533 339.911 1.058C340.139 0.867998 340.412 0.772998 340.728 0.772998H343.673ZM369.751 24.998L369.732 28H352.955V0.772998H369.732V3.775H356.641V12.819H367.243V15.707H356.641V24.998H369.751Z"/>
</mask>
<path d="M3.75324 28H0.0672407V0.772998H3.75324V28ZM20.0846 12.705H21.4716C21.953 12.705 22.3393 12.648 22.6306 12.534C22.922 12.4073 23.188 12.1983 23.4286 11.907L32.4916 1.647C32.745 1.31766 33.011 1.08966 33.2896 0.962998C33.5683 0.836332 33.9103 0.772998 34.3156 0.772998H37.4316L27.0576 12.496C26.8043 12.8 26.5573 13.0533 26.3166 13.256C26.0886 13.446 25.8416 13.6043 25.5756 13.731C25.9176 13.845 26.228 14.016 26.5066 14.244C26.7853 14.4593 27.0576 14.7443 27.3236 15.099L38.1536 28H34.9616C34.721 28 34.512 27.9873 34.3346 27.962C34.17 27.924 34.0243 27.8733 33.8976 27.81C33.771 27.734 33.657 27.6517 33.5556 27.563C33.467 27.4617 33.3783 27.3477 33.2896 27.221L23.9036 16.41C23.6503 16.0933 23.378 15.8717 23.0866 15.745C22.7953 15.6057 22.352 15.536 21.7566 15.536H20.0846V28H16.4176V0.772998H20.0846V12.705ZM50.9638 28H47.2778V0.772998H50.9638V28ZM85.7442 14.909V25.359C84.3762 26.347 82.9132 27.088 81.3552 27.582C79.8099 28.0633 78.1125 28.304 76.2632 28.304C74.0719 28.304 72.0959 27.9683 70.3352 27.297C68.5745 26.613 67.0672 25.663 65.8132 24.447C64.5719 23.2183 63.6155 21.749 62.9442 20.039C62.2729 18.329 61.9372 16.448 61.9372 14.396C61.9372 12.3187 62.2602 10.425 62.9062 8.715C63.5649 7.005 64.4959 5.542 65.6992 4.326C66.9025 3.09733 68.3655 2.14733 70.0882 1.476C71.8109 0.804665 73.7362 0.468998 75.8642 0.468998C76.9409 0.468998 77.9415 0.551331 78.8662 0.715998C79.7909 0.867999 80.6459 1.096 81.4312 1.4C82.2165 1.69133 82.9449 2.05233 83.6162 2.483C84.2875 2.901 84.9145 3.376 85.4972 3.908L84.4522 5.58C84.2875 5.83333 84.0722 5.998 83.8062 6.074C83.5529 6.13733 83.2679 6.074 82.9512 5.884C82.6472 5.70667 82.2989 5.49133 81.9062 5.238C81.5135 4.98467 81.0322 4.744 80.4622 4.516C79.9049 4.27533 79.2399 4.07267 78.4672 3.908C77.7072 3.74333 76.8015 3.661 75.7502 3.661C74.2175 3.661 72.8305 3.91433 71.5892 4.421C70.3479 4.915 69.2902 5.63067 68.4162 6.568C67.5422 7.49267 66.8709 8.62 66.4022 9.95C65.9335 11.2673 65.6992 12.7493 65.6992 14.396C65.6992 16.106 65.9399 17.6387 66.4212 18.994C66.9152 20.3367 67.6119 21.483 68.5112 22.433C69.4232 23.3703 70.5252 24.086 71.8172 24.58C73.1092 25.074 74.5595 25.321 76.1682 25.321C77.4349 25.321 78.5559 25.1817 79.5312 24.903C80.5192 24.6117 81.4819 24.2127 82.4192 23.706V17.721H78.1822C77.9415 17.721 77.7452 17.6513 77.5932 17.512C77.4539 17.3727 77.3842 17.2017 77.3842 16.999V14.909H85.7442ZM111.322 17.892L107.047 6.815C106.921 6.48567 106.788 6.10567 106.648 5.675C106.509 5.23167 106.376 4.763 106.249 4.269C105.983 5.295 105.711 6.15 105.432 6.834L101.157 17.892H111.322ZM118.998 28H116.148C115.819 28 115.553 27.9177 115.35 27.753C115.148 27.5883 114.996 27.3793 114.894 27.126L112.348 20.552H100.131L97.5853 27.126C97.5093 27.354 97.3637 27.5567 97.1483 27.734C96.933 27.9113 96.667 28 96.3503 28H93.5003L104.387 0.772998H108.111L118.998 28ZM131.966 28H128.28V0.772998H131.966V28ZM179.167 22.376C179.37 22.376 179.547 22.4583 179.699 22.623L181.162 24.2C180.048 25.492 178.692 26.499 177.096 27.221C175.513 27.943 173.594 28.304 171.339 28.304C169.389 28.304 167.615 27.9683 166.019 27.297C164.423 26.613 163.062 25.663 161.934 24.447C160.807 23.2183 159.933 21.749 159.312 20.039C158.692 18.329 158.381 16.448 158.381 14.396C158.381 12.344 158.704 10.463 159.35 8.753C159.996 7.043 160.902 5.57367 162.067 4.345C163.245 3.11633 164.651 2.16633 166.285 1.495C167.919 0.810998 169.724 0.468998 171.7 0.468998C173.638 0.468998 175.348 0.779331 176.83 1.4C178.312 2.02067 179.617 2.863 180.744 3.927L179.528 5.618C179.452 5.74466 179.351 5.85233 179.224 5.941C179.11 6.017 178.952 6.055 178.749 6.055C178.521 6.055 178.243 5.93467 177.913 5.694C177.584 5.44067 177.153 5.162 176.621 4.858C176.089 4.554 175.424 4.28167 174.626 4.041C173.828 3.78767 172.847 3.661 171.681 3.661C170.275 3.661 168.99 3.908 167.824 4.402C166.659 4.88333 165.652 5.58633 164.803 6.511C163.967 7.43567 163.315 8.563 162.846 9.893C162.378 11.223 162.143 12.724 162.143 14.396C162.143 16.0933 162.384 17.607 162.865 18.937C163.359 20.267 164.024 21.3943 164.86 22.319C165.709 23.231 166.703 23.9277 167.843 24.409C168.996 24.8903 170.237 25.131 171.567 25.131C172.378 25.131 173.106 25.0867 173.752 24.998C174.411 24.8967 175.013 24.7447 175.557 24.542C176.115 24.3393 176.628 24.086 177.096 23.782C177.578 23.4653 178.053 23.0917 178.521 22.661C178.737 22.471 178.952 22.376 179.167 22.376ZM198.679 13.959C199.743 13.959 200.68 13.8323 201.491 13.579C202.314 13.313 202.998 12.9457 203.543 12.477C204.1 11.9957 204.518 11.4257 204.797 10.767C205.076 10.1083 205.215 9.38 205.215 8.582C205.215 6.96066 204.683 5.73833 203.619 4.915C202.555 4.09167 200.959 3.68 198.831 3.68H194.803V13.959H198.679ZM211.257 28H207.989C207.318 28 206.824 27.7403 206.507 27.221L199.439 17.493C199.224 17.189 198.989 16.9737 198.736 16.847C198.495 16.7077 198.115 16.638 197.596 16.638H194.803V28H191.136V0.772998H198.831C200.554 0.772998 202.042 0.950332 203.296 1.305C204.55 1.647 205.582 2.14733 206.393 2.806C207.216 3.46467 207.824 4.26267 208.217 5.2C208.61 6.12467 208.806 7.16333 208.806 8.316C208.806 9.27867 208.654 10.178 208.35 11.014C208.046 11.85 207.603 12.6037 207.02 13.275C206.45 13.9337 205.747 14.4973 204.911 14.966C204.088 15.4347 203.15 15.7893 202.099 16.03C202.568 16.296 202.973 16.6823 203.315 17.189L211.257 28ZM237.456 24.998L237.437 28H220.66V0.772998H237.437V3.775H224.346V12.819H234.948V15.707H224.346V24.998H237.456ZM262.751 17.892L258.476 6.815C258.349 6.48567 258.216 6.10567 258.077 5.675C257.938 5.23167 257.805 4.763 257.678 4.269C257.412 5.295 257.14 6.15 256.861 6.834L252.586 17.892H262.751ZM270.427 28H267.577C267.248 28 266.982 27.9177 266.779 27.753C266.576 27.5883 266.424 27.3793 266.323 27.126L263.777 20.552H251.56L249.014 27.126C248.938 27.354 248.792 27.5567 248.577 27.734C248.362 27.9113 248.096 28 247.779 28H244.929L255.816 0.772998H259.54L270.427 28ZM295.448 3.87H286.632V28H282.965V3.87H274.13V0.772998H295.448V3.87ZM308.874 28H305.188V0.772998H308.874V28ZM343.673 0.772998L332.577 28H329.271L318.175 0.772998H321.12C321.45 0.772998 321.716 0.855332 321.918 1.02C322.121 1.18467 322.273 1.39367 322.374 1.647L330.05 20.856C330.215 21.2867 330.373 21.7553 330.525 22.262C330.69 22.7687 330.836 23.3007 330.962 23.858C331.089 23.3007 331.222 22.7687 331.361 22.262C331.501 21.7553 331.653 21.2867 331.817 20.856L339.474 1.647C339.55 1.43167 339.696 1.23533 339.911 1.058C340.139 0.867998 340.412 0.772998 340.728 0.772998H343.673ZM369.751 24.998L369.732 28H352.955V0.772998H369.732V3.775H356.641V12.819H367.243V15.707H356.641V24.998H369.751Z" fill="#009AEC" fill-opacity="0.1"/>
<path d="M3.75324 28V29.4H5.15324V28H3.75324ZM0.0672379 28H-1.33276V29.4H0.0672379V28ZM0.0672379 0.772999V-0.627002H-1.33276V0.772999H0.0672379ZM3.75324 0.772999H5.15324V-0.627002H3.75324V0.772999ZM3.75324 26.6H0.0672379V29.4H3.75324V26.6ZM1.46724 28V0.772999H-1.33276V28H1.46724ZM0.0672379 2.173H3.75324V-0.627002H0.0672379V2.173ZM2.35324 0.772999V28H5.15324V0.772999H2.35324ZM20.0846 12.705H18.6846V14.105H20.0846V12.705ZM22.6306 12.534L23.1408 13.8377L23.165 13.8283L23.1888 13.8179L22.6306 12.534ZM23.4286 11.907L22.3794 10.9802L22.364 10.9975L22.3493 11.0154L23.4286 11.907ZM32.4916 1.647L33.5409 2.57385L33.5723 2.53824L33.6013 2.50059L32.4916 1.647ZM33.2896 0.962998L33.869 2.23751V2.23751L33.2896 0.962998ZM37.4316 0.772999L38.4801 1.70078L40.54 -0.627002H37.4316V0.772999ZM27.0576 12.496L26.0092 11.5682L25.9954 11.5838L25.9821 11.5997L27.0576 12.496ZM26.3166 13.256L27.2129 14.3315L27.2184 14.3269L26.3166 13.256ZM25.5756 13.731L24.9737 12.467L21.8372 13.9606L25.1329 15.0592L25.5756 13.731ZM26.5066 14.244L25.6201 15.3275L25.6352 15.3399L25.6506 15.3518L26.5066 14.244ZM27.3236 15.099L26.2036 15.939L26.2267 15.9697L26.2514 15.9991L27.3236 15.099ZM38.1536 28V29.4H41.1568L39.2259 27.0999L38.1536 28ZM34.3346 27.962L34.0198 29.3261L34.0778 29.3395L34.1366 29.3479L34.3346 27.962ZM33.8976 27.81L33.1773 29.0105L33.2234 29.0382L33.2715 29.0622L33.8976 27.81ZM33.5556 27.563L32.502 28.4849L32.5635 28.5551L32.6337 28.6166L33.5556 27.563ZM33.2896 27.221L34.4366 26.4182L34.3947 26.3583L34.3468 26.3032L33.2896 27.221ZM23.9036 16.41L22.8104 17.2846L22.828 17.3066L22.8465 17.3278L23.9036 16.41ZM23.0866 15.745L22.4826 17.008L22.5053 17.0189L22.5284 17.0289L23.0866 15.745ZM20.0846 15.536V14.136H18.6846V15.536H20.0846ZM20.0846 28V29.4H21.4846V28H20.0846ZM16.4176 28H15.0176V29.4H16.4176V28ZM16.4176 0.772999V-0.627002H15.0176V0.772999H16.4176ZM20.0846 0.772999H21.4846V-0.627002H20.0846V0.772999ZM20.0846 14.105H21.4716V11.305H20.0846V14.105ZM21.4716 14.105C22.0435 14.105 22.6236 14.0401 23.1408 13.8377L22.1205 11.2303C22.055 11.2559 21.8624 11.305 21.4716 11.305V14.105ZM23.1888 13.8179C23.7173 13.5882 24.1534 13.2279 24.508 12.7986L22.3493 11.0154C22.2226 11.1687 22.1267 11.2265 22.0724 11.2501L23.1888 13.8179ZM24.4779 12.8338L33.5409 2.57385L31.4424 0.72015L22.3794 10.9802L24.4779 12.8338ZM33.6013 2.50059C33.7626 2.29092 33.86 2.2416 33.869 2.23751L32.7103 -0.311516C32.162 -0.062273 31.7273 0.344413 31.382 0.793405L33.6013 2.50059ZM33.869 2.23751C33.9168 2.21575 34.0484 2.173 34.3156 2.173V-0.627002C33.7721 -0.627002 33.2198 -0.543083 32.7103 -0.311515L33.869 2.23751ZM34.3156 2.173H37.4316V-0.627002H34.3156V2.173ZM36.3832 -0.154788L26.0092 11.5682L28.1061 13.4238L38.4801 1.70078L36.3832 -0.154788ZM25.9821 11.5997C25.7687 11.8559 25.5789 12.0469 25.4148 12.1851L27.2184 14.3269C27.5356 14.0597 27.8399 13.7441 28.1331 13.3923L25.9821 11.5997ZM25.4204 12.1805C25.2816 12.2962 25.1333 12.391 24.9737 12.467L26.1775 14.995C26.5499 14.8177 26.8957 14.5958 27.2129 14.3315L25.4204 12.1805ZM25.1329 15.0592C25.3135 15.1194 25.4734 15.2075 25.6201 15.3275L27.3932 13.1605C26.9825 12.8245 26.5217 12.5706 26.0183 12.4028L25.1329 15.0592ZM25.6506 15.3518C25.8078 15.4733 25.9946 15.6603 26.2036 15.939L28.4436 14.259C28.1206 13.8283 27.7628 13.4454 27.3627 13.1362L25.6506 15.3518ZM26.2514 15.9991L37.0814 28.9001L39.2259 27.0999L28.3959 14.1989L26.2514 15.9991ZM38.1536 26.6H34.9616V29.4H38.1536V26.6ZM34.9616 26.6C34.7663 26.6 34.6265 26.5895 34.5326 26.5761L34.1366 29.3479C34.3974 29.3852 34.6756 29.4 34.9616 29.4V26.6ZM34.6494 26.5979C34.5725 26.5801 34.5346 26.5632 34.5237 26.5578L33.2715 29.0622C33.514 29.1834 33.7674 29.2679 34.0198 29.3261L34.6494 26.5979ZM34.6179 26.6095C34.5559 26.5723 34.5105 26.5382 34.4775 26.5094L32.6337 28.6166C32.8035 28.7651 32.986 28.8957 33.1773 29.0105L34.6179 26.6095ZM34.6092 26.6411C34.5582 26.5828 34.5004 26.5094 34.4366 26.4182L32.1427 28.0238C32.2562 28.1859 32.3757 28.3405 32.502 28.4849L34.6092 26.6411ZM34.3468 26.3032L24.9608 15.4922L22.8465 17.3278L32.2325 28.1388L34.3468 26.3032ZM24.9968 15.5354C24.6395 15.0887 24.195 14.7003 23.6449 14.4611L22.5284 17.0289C22.5609 17.043 22.6611 17.0979 22.8104 17.2846L24.9968 15.5354ZM23.6907 14.482C23.112 14.2053 22.4135 14.136 21.7566 14.136V16.936C22.0035 16.936 22.1874 16.9507 22.3183 16.9713C22.4539 16.9926 22.4966 17.0147 22.4826 17.008L23.6907 14.482ZM21.7566 14.136H20.0846V16.936H21.7566V14.136ZM18.6846 15.536V28H21.4846V15.536H18.6846ZM20.0846 26.6H16.4176V29.4H20.0846V26.6ZM17.8176 28V0.772999H15.0176V28H17.8176ZM16.4176 2.173H20.0846V-0.627002H16.4176V2.173ZM18.6846 0.772999V12.705H21.4846V0.772999H18.6846ZM50.9638 28V29.4H52.3638V28H50.9638ZM47.2778 28H45.8778V29.4H47.2778V28ZM47.2778 0.772999V-0.627002H45.8778V0.772999H47.2778ZM50.9638 0.772999H52.3638V-0.627002H50.9638V0.772999ZM50.9638 26.6H47.2778V29.4H50.9638V26.6ZM48.6778 28V0.772999H45.8778V28H48.6778ZM47.2778 2.173H50.9638V-0.627002H47.2778V2.173ZM49.5638 0.772999V28H52.3638V0.772999H49.5638ZM85.7442 14.909H87.1442V13.509H85.7442V14.909ZM85.7442 25.359L86.5639 26.4939L87.1442 26.0748V25.359H85.7442ZM81.3552 27.582L81.7715 28.9187L81.7783 28.9165L81.3552 27.582ZM70.3352 27.297L69.8282 28.602L69.8364 28.6051L70.3352 27.297ZM65.8132 24.447L64.8283 25.442L64.8334 25.4471L64.8386 25.4521L65.8132 24.447ZM62.9442 20.039L64.2474 19.5274L62.9442 20.039ZM62.9062 8.715L61.5997 8.21177L61.5965 8.22024L62.9062 8.715ZM65.6992 4.326L66.6943 5.31077L66.6994 5.30558L65.6992 4.326ZM70.0882 1.476L70.5965 2.78045L70.5965 2.78045L70.0882 1.476ZM78.8662 0.715998L78.6207 2.09431L78.6299 2.09595L78.6391 2.09746L78.8662 0.715998ZM81.4312 1.4L80.9258 2.70559L80.935 2.70916L80.9443 2.71259L81.4312 1.4ZM83.6162 2.483L82.8602 3.66137L82.8682 3.66647L82.8762 3.67146L83.6162 2.483ZM85.4972 3.908L86.6844 4.65L87.3027 3.66072L86.4412 2.87412L85.4972 3.908ZM84.4522 5.58L85.626 6.34298L85.6328 6.33255L85.6394 6.322L84.4522 5.58ZM83.8062 6.074L84.1457 7.4322L84.1684 7.42654L84.1908 7.42013L83.8062 6.074ZM82.9512 5.884L83.6715 4.68351L83.6641 4.67906L83.6566 4.67471L82.9512 5.884ZM81.9062 5.238L82.6652 4.06158V4.06158L81.9062 5.238ZM80.4622 4.516L79.9072 5.80128L79.9246 5.80881L79.9422 5.81587L80.4622 4.516ZM78.4672 3.908L78.1707 5.27626L78.1754 5.27725L78.4672 3.908ZM71.5892 4.421L72.1069 5.72183L72.1182 5.71719L71.5892 4.421ZM68.4162 6.568L69.4336 7.52971L69.4401 7.52275L68.4162 6.568ZM66.4022 9.95L67.7212 10.4193L67.7226 10.4153L66.4022 9.95ZM66.4212 18.994L65.1019 19.4625L65.1046 19.47L65.1073 19.4774L66.4212 18.994ZM68.5112 22.433L67.4945 23.3955L67.5011 23.4024L67.5078 23.4093L68.5112 22.433ZM79.5312 24.903L79.9158 26.2492L79.9272 26.2458L79.5312 24.903ZM82.4192 23.706L83.0849 24.9376L83.8192 24.5407V23.706H82.4192ZM82.4192 17.721H83.8192V16.321H82.4192V17.721ZM77.5932 17.512L76.6032 18.5019L76.6247 18.5235L76.6472 18.544L77.5932 17.512ZM77.3842 14.909V13.509H75.9842V14.909H77.3842ZM84.3442 14.909V25.359H87.1442V14.909H84.3442ZM84.9245 24.224C83.6733 25.1277 82.3435 25.7999 80.932 26.2475L81.7783 28.9165C83.4829 28.3761 85.0791 27.5663 86.5639 26.4939L84.9245 24.224ZM80.9388 26.2453C79.5459 26.6792 77.9911 26.904 76.2632 26.904V29.704C78.2339 29.704 80.0738 29.4475 81.7715 28.9187L80.9388 26.2453ZM76.2632 26.904C74.215 26.904 72.4117 26.5904 70.834 25.9889L69.8364 28.6051C71.78 29.3462 73.9287 29.704 76.2632 29.704V26.904ZM70.8422 25.992C69.2415 25.3702 67.8969 24.5174 66.7878 23.4419L64.8386 25.4521C66.2375 26.8086 67.9075 27.8558 69.8282 28.602L70.8422 25.992ZM66.798 23.452C65.7025 22.3676 64.8512 21.0654 64.2474 19.5274L61.641 20.5506C62.3799 22.4326 63.4412 24.0691 64.8283 25.442L66.798 23.452ZM64.2474 19.5274C63.6471 17.9984 63.3372 16.2933 63.3372 14.396H60.5372C60.5372 16.6027 60.8986 18.6596 61.641 20.5506L64.2474 19.5274ZM63.3372 14.396C63.3372 12.4649 63.6371 10.7416 64.2159 9.20976L61.5965 8.22024C60.8832 10.1084 60.5372 12.1725 60.5372 14.396H63.3372ZM64.2126 9.21822C64.8069 7.67548 65.6363 6.37986 66.6943 5.31075L64.7041 3.34125C63.3554 4.70413 62.3228 6.33452 61.5997 8.21178L64.2126 9.21822ZM66.6994 5.30558C67.7535 4.22932 69.0449 3.38512 70.5965 2.78045L69.5798 0.171554C67.6861 0.909542 66.0516 1.96535 64.699 3.34641L66.6994 5.30558ZM70.5965 2.78045C72.1346 2.18104 73.8842 1.869 75.8642 1.869V-0.931003C73.5882 -0.931003 71.4871 -0.57171 69.5798 0.171554L70.5965 2.78045ZM75.8642 1.869C76.8702 1.869 77.7878 1.94599 78.6207 2.09431L79.1116 -0.662317C78.0952 -0.843324 77.0115 -0.931003 75.8642 -0.931003V1.869ZM78.6391 2.09746C79.4791 2.23555 80.2398 2.44004 80.9258 2.70559L81.9366 0.0944023C81.0519 -0.248044 80.1026 -0.49955 79.0933 -0.665462L78.6391 2.09746ZM80.9443 2.71259C81.6401 2.97072 82.2776 3.28762 82.8602 3.66137L84.3721 1.30463C83.6121 0.817047 82.793 0.411946 81.9181 0.0874052L80.9443 2.71259ZM82.8762 3.67146C83.4751 4.04437 84.0338 4.46766 84.5532 4.94188L86.4412 2.87412C85.7952 2.28434 85.0999 1.75763 84.3562 1.29454L82.8762 3.67146ZM84.31 3.166L83.265 4.838L85.6394 6.322L86.6844 4.65L84.31 3.166ZM83.2784 4.81701C83.2732 4.82495 83.2838 4.80659 83.3168 4.7814C83.3512 4.75503 83.3896 4.73701 83.4216 4.72787L84.1908 7.42013C84.8125 7.2425 85.2955 6.85139 85.626 6.34298L83.2784 4.81701ZM83.4666 4.7158C83.5746 4.6888 83.6618 4.69748 83.7061 4.70734C83.7435 4.71564 83.7334 4.72063 83.6715 4.68351L82.2309 7.08449C82.7326 7.38552 83.4051 7.61735 84.1457 7.4322L83.4666 4.7158ZM83.6566 4.67471C83.3754 4.5107 83.0455 4.30698 82.6652 4.06158L81.1472 6.41441C81.5522 6.67568 81.9189 6.90263 82.2458 7.09329L83.6566 4.67471ZM82.6652 4.06158C82.1777 3.74712 81.6113 3.46778 80.9821 3.21613L79.9422 5.81587C80.4531 6.02022 80.8493 6.22221 81.1472 6.41441L82.6652 4.06158ZM81.0172 3.23071C80.3542 2.94442 79.5966 2.71725 78.759 2.53875L78.1754 5.27725C78.8831 5.42808 79.4555 5.60624 79.9072 5.80128L81.0172 3.23071ZM78.7636 2.53975C77.879 2.34808 76.8689 2.261 75.7502 2.261V5.061C76.7342 5.061 77.5353 5.13858 78.1707 5.27625L78.7636 2.53975ZM75.7502 2.261C74.0619 2.261 72.4917 2.54049 71.0601 3.12481L72.1182 5.71719C73.1693 5.28818 74.3732 5.061 75.7502 5.061V2.261ZM71.0715 3.12022C69.6463 3.68739 68.4134 4.51811 67.3922 5.61325L69.4401 7.52275C70.167 6.74322 71.0494 6.1426 72.1068 5.72178L71.0715 3.12022ZM67.3988 5.60632C66.3762 6.68815 65.6085 7.99 65.0818 9.48471L67.7226 10.4153C68.1332 9.25 68.7082 8.29718 69.4336 7.52968L67.3988 5.60632ZM65.0832 9.48074C64.5523 10.9728 64.2992 12.6172 64.2992 14.396H67.0992C67.0992 12.8815 67.3147 11.5618 67.7212 10.4193L65.0832 9.48074ZM64.2992 14.396C64.2992 16.2363 64.5581 17.9314 65.1019 19.4625L67.7405 18.5255C67.3216 17.346 67.0992 15.9757 67.0992 14.396H64.2992ZM65.1073 19.4774C65.6607 20.9815 66.4529 22.2951 67.4945 23.3955L69.5279 21.4705C68.7708 20.6709 68.1697 19.6919 67.7351 18.5106L65.1073 19.4774ZM67.5078 23.4093C68.5696 24.5007 69.8465 25.3253 71.3172 25.8877L72.3172 23.2723C71.2039 22.8467 70.2767 22.24 69.5146 21.4567L67.5078 23.4093ZM71.3172 25.8877C72.7926 26.4518 74.416 26.721 76.1682 26.721V23.921C74.703 23.921 73.4258 23.6962 72.3172 23.2723L71.3172 25.8877ZM76.1682 26.721C77.5341 26.721 78.7889 26.5711 79.9158 26.2491L79.1466 23.5569C78.3228 23.7922 77.3356 23.921 76.1682 23.921V26.721ZM79.9272 26.2458C81.0119 25.926 82.0647 25.489 83.0849 24.9376L81.7535 22.4744C80.899 22.9363 80.0265 23.2973 79.1352 23.5602L79.9272 26.2458ZM83.8192 23.706V17.721H81.0192V23.706H83.8192ZM82.4192 16.321H78.1822V19.121H82.4192V16.321ZM78.1822 16.321C78.197 16.321 78.2491 16.3233 78.3226 16.3494C78.3995 16.3766 78.4753 16.4214 78.5392 16.48L76.6472 18.544C77.0999 18.9591 77.6536 19.121 78.1822 19.121V16.321ZM78.5831 16.522C78.6364 16.5753 78.6928 16.6523 78.733 16.751C78.7729 16.8489 78.7842 16.937 78.7842 16.999H75.9842C75.9842 17.5611 76.1931 18.0918 76.6032 18.5019L78.5831 16.522ZM78.7842 16.999V14.909H75.9842V16.999H78.7842ZM77.3842 16.309H85.7442V13.509H77.3842V16.309ZM111.322 17.892V19.292H113.363L112.628 17.3879L111.322 17.892ZM107.047 6.815L105.741 7.31757L105.741 7.31907L107.047 6.815ZM106.648 5.675L105.313 6.09477L105.316 6.10595L106.648 5.675ZM106.249 4.269L107.605 3.92127L104.894 3.91765L106.249 4.269ZM105.432 6.834L104.136 6.30578L104.131 6.31744L104.127 6.32917L105.432 6.834ZM101.157 17.892L99.8515 17.3872L99.1151 19.292H101.157V17.892ZM118.998 28V29.4H121.066L120.298 27.4802L118.998 28ZM115.35 27.753L114.467 28.8396L114.468 28.8396L115.35 27.753ZM114.894 27.126L113.589 27.6316L113.592 27.6388L113.594 27.6459L114.894 27.126ZM112.348 20.552L113.654 20.0464L113.307 19.152H112.348V20.552ZM100.131 20.552V19.152H99.1722L98.8258 20.0464L100.131 20.552ZM97.5853 27.126L96.2798 26.6204L96.2677 26.6516L96.2572 26.6833L97.5853 27.126ZM97.1483 27.734L98.0383 28.8147L97.1483 27.734ZM93.5003 28L92.2004 27.4802L91.4328 29.4H93.5003V28ZM104.387 0.772999V-0.627002H103.439L103.087 0.253208L104.387 0.772999ZM108.111 0.772999L109.411 0.253208L109.059 -0.627002H108.111V0.772999ZM112.628 17.3879L108.353 6.31093L105.741 7.31907L110.016 18.3961L112.628 17.3879ZM108.354 6.31243C108.239 6.01223 108.114 5.65696 107.98 5.24405L105.316 6.10595C105.461 6.55437 105.603 6.9591 105.741 7.31757L108.354 6.31243ZM107.984 5.25524C107.853 4.83789 107.727 4.39338 107.605 3.92127L104.893 4.61672C105.025 5.13261 105.165 5.62544 105.313 6.09476L107.984 5.25524ZM104.894 3.91765C104.638 4.90696 104.383 5.69817 104.136 6.30578L106.729 7.36222C107.039 6.60183 107.329 5.68303 107.605 4.62035L104.894 3.91765ZM104.127 6.32917L99.8515 17.3872L102.463 18.3968L106.738 7.33882L104.127 6.32917ZM101.157 19.292H111.322V16.492H101.157V19.292ZM118.998 26.6H116.148V29.4H118.998V26.6ZM116.148 26.6C116.099 26.6 116.093 26.5938 116.116 26.6008C116.128 26.6045 116.145 26.6112 116.167 26.6225C116.189 26.634 116.211 26.6487 116.233 26.6664L114.468 28.8396C114.979 29.2552 115.583 29.4 116.148 29.4V26.6ZM116.233 26.6664C116.224 26.6589 116.211 26.6484 116.194 26.6061L113.594 27.6459C113.78 28.1103 114.071 28.5177 114.467 28.8396L116.233 26.6664ZM116.2 26.6204L113.654 20.0464L111.043 21.0576L113.589 27.6316L116.2 26.6204ZM112.348 19.152H100.131V21.952H112.348V19.152ZM98.8258 20.0464L96.2798 26.6204L98.8909 27.6316L101.437 21.0576L98.8258 20.0464ZM96.2572 26.6833C96.261 26.6717 96.2656 26.661 96.2705 26.6516C96.2753 26.6422 96.2796 26.6356 96.2823 26.6319C96.2877 26.6243 96.2835 26.6326 96.2583 26.6533L98.0383 28.8147C98.4235 28.4975 98.7416 28.0843 98.9135 27.5687L96.2572 26.6833ZM96.2583 26.6533C96.2699 26.6438 96.284 26.634 96.3002 26.625C96.3163 26.6161 96.3316 26.6097 96.3446 26.6053C96.3715 26.5964 96.3774 26.6 96.3503 26.6V29.4C96.9453 29.4 97.5387 29.2262 98.0383 28.8147L96.2583 26.6533ZM96.3503 26.6H93.5003V29.4H96.3503V26.6ZM94.8003 28.5198L105.687 1.29279L103.087 0.253208L92.2004 27.4802L94.8003 28.5198ZM104.387 2.173H108.111V-0.627002H104.387V2.173ZM106.811 1.29279L117.698 28.5198L120.298 27.4802L109.411 0.253208L106.811 1.29279ZM131.966 28V29.4H133.366V28H131.966ZM128.28 28H126.88V29.4H128.28V28ZM128.28 0.772999V-0.627002H126.88V0.772999H128.28ZM131.966 0.772999H133.366V-0.627002H131.966V0.772999ZM131.966 26.6H128.28V29.4H131.966V26.6ZM129.68 28V0.772999H126.88V28H129.68ZM128.28 2.173H131.966V-0.627002H128.28V2.173ZM130.566 0.772999V28H133.366V0.772999H130.566ZM179.699 22.623L178.67 23.5726L178.673 23.5752L179.699 22.623ZM181.162 24.2L182.222 25.1145L183.04 24.1661L182.189 23.2478L181.162 24.2ZM177.096 27.221L176.519 25.9454L176.515 25.9472L177.096 27.221ZM166.019 27.297L165.468 28.5838L165.476 28.5875L166.019 27.297ZM161.934 24.447L160.903 25.3935L160.908 25.3988L161.934 24.447ZM159.312 20.039L160.628 19.5613L159.312 20.039ZM159.35 8.753L160.66 9.24776L159.35 8.753ZM162.067 4.345L161.057 3.37609L161.051 3.38158L162.067 4.345ZM166.285 1.495L166.817 2.78999L166.826 2.78642L166.285 1.495ZM176.83 1.4L177.371 0.108672L176.83 1.4ZM180.744 3.927L181.881 4.74435L182.596 3.74974L181.705 2.90886L180.744 3.927ZM179.528 5.618L178.392 4.80064L178.358 4.84785L178.328 4.8977L179.528 5.618ZM179.224 5.941L180.001 7.10587L180.014 7.09705L180.027 7.08792L179.224 5.941ZM177.913 5.694L177.06 6.80367L177.073 6.81418L177.087 6.82435L177.913 5.694ZM176.621 4.858L177.316 3.64246V3.64246L176.621 4.858ZM174.626 4.041L174.203 5.37537L174.212 5.37844L174.222 5.38137L174.626 4.041ZM167.824 4.402L168.359 5.69602L168.371 5.69097L167.824 4.402ZM164.803 6.511L163.772 5.56432L163.765 5.57209L164.803 6.511ZM162.846 9.893L161.526 9.42771L162.846 9.893ZM162.865 18.937L161.549 19.4134L161.553 19.4245L162.865 18.937ZM164.86 22.319L163.822 23.2579L163.828 23.2654L163.835 23.2727L164.86 22.319ZM167.843 24.409L167.299 25.6988L167.304 25.7009L167.843 24.409ZM173.752 24.998L173.943 26.385L173.954 26.3834L173.965 26.3817L173.752 24.998ZM175.557 24.542L175.079 23.2263L175.069 23.2299L175.557 24.542ZM177.096 23.782L177.858 24.9566L177.866 24.9516L177.096 23.782ZM178.521 22.661L177.595 21.6112L177.584 21.6206L177.574 21.6301L178.521 22.661ZM179.167 23.776C179.073 23.776 178.965 23.7553 178.863 23.7076C178.763 23.6613 178.701 23.6052 178.67 23.5726L180.728 21.6734C180.342 21.2554 179.804 20.976 179.167 20.976V23.776ZM178.673 23.5752L180.136 25.1522L182.189 23.2478L180.726 21.6708L178.673 23.5752ZM180.102 23.2855C179.124 24.4193 177.935 25.305 176.519 25.9454L177.673 28.4966C179.449 27.693 180.971 26.5647 182.222 25.1145L180.102 23.2855ZM176.515 25.9472C175.16 26.5653 173.45 26.904 171.339 26.904V29.704C173.737 29.704 175.866 29.3207 177.677 28.4948L176.515 25.9472ZM171.339 26.904C169.551 26.904 167.966 26.597 166.562 26.0065L165.476 28.5875C167.265 29.3397 169.226 29.704 171.339 29.704V26.904ZM166.571 26.0102C165.146 25.3997 163.949 24.5607 162.961 23.4952L160.908 25.3988C162.174 26.7653 163.7 27.8263 165.468 28.5838L166.571 26.0102ZM162.966 23.5005C161.974 22.4198 161.192 21.1137 160.628 19.5613L157.996 20.5167C158.674 22.3843 159.64 24.0169 160.903 25.3935L162.966 23.5005ZM160.628 19.5613C160.07 18.0227 159.781 16.3058 159.781 14.396H156.981C156.981 16.5902 157.313 18.6353 157.996 20.5167L160.628 19.5613ZM159.781 14.396C159.781 12.4924 160.08 10.7815 160.66 9.24776L158.04 8.25824C157.328 10.1445 156.981 12.1956 156.981 14.396H159.781ZM160.66 9.24776C161.245 7.69799 162.056 6.39153 163.083 5.30842L161.051 3.38158C159.748 4.7558 158.747 6.38801 158.04 8.25824L160.66 9.24776ZM163.078 5.31389C164.116 4.23143 165.357 3.39001 166.817 2.78996L165.753 0.200034C163.946 0.942652 162.375 2.00124 161.057 3.37611L163.078 5.31389ZM166.826 2.78642C168.27 2.18193 169.888 1.869 171.7 1.869V-0.931003C169.56 -0.931003 167.569 -0.559935 165.745 0.203581L166.826 2.78642ZM171.7 1.869C173.49 1.869 175.01 2.15555 176.289 2.69132L177.371 0.108672C175.686 -0.596892 173.786 -0.931003 171.7 -0.931003V1.869ZM176.289 2.69132C177.622 3.24935 178.783 4.00093 179.783 4.94513L181.705 2.90886C180.451 1.72507 179.003 0.791983 177.371 0.108672L176.289 2.69132ZM179.608 3.10964L178.392 4.80064L180.665 6.43535L181.881 4.74435L179.608 3.10964ZM178.328 4.8977C178.341 4.87496 178.358 4.85336 178.376 4.83424C178.394 4.81525 178.41 4.80214 178.421 4.79408L180.027 7.08792C180.307 6.89191 180.547 6.64137 180.729 6.3383L178.328 4.8977ZM178.448 4.77613C178.551 4.70722 178.642 4.67756 178.693 4.66516C178.743 4.65312 178.766 4.655 178.749 4.655V7.455C179.103 7.455 179.571 7.39229 180.001 7.10587L178.448 4.77613ZM178.749 4.655C178.815 4.655 178.864 4.66368 178.892 4.67032C178.92 4.67689 178.931 4.68241 178.924 4.67946C178.918 4.67658 178.898 4.66756 178.865 4.64814C178.833 4.62885 178.791 4.60147 178.739 4.56365L177.087 6.82435C177.49 7.11865 178.069 7.455 178.749 7.455V4.655ZM178.767 4.58432C178.369 4.2786 177.88 3.96474 177.316 3.64246L175.927 6.07354C176.427 6.35925 176.798 6.60273 177.06 6.80367L178.767 4.58432ZM177.316 3.64246C176.666 3.27109 175.896 2.96169 175.03 2.70063L174.222 5.38137C174.952 5.60164 175.512 5.8369 175.927 6.07354L177.316 3.64246ZM175.05 2.70662C174.073 2.39649 172.938 2.261 171.681 2.261V5.061C172.755 5.061 173.583 5.17885 174.203 5.37537L175.05 2.70662ZM171.681 2.261C170.108 2.261 168.634 2.53804 167.278 3.11303L168.371 5.69097C169.345 5.27796 170.442 5.061 171.681 5.061V2.261ZM167.29 3.10803C165.936 3.66708 164.759 4.48828 163.772 5.56435L165.835 7.45765C166.544 6.68438 167.381 6.09959 168.359 5.69596L167.29 3.10803ZM163.765 5.57209C162.789 6.65131 162.048 7.9456 161.526 9.42771L164.167 10.3583C164.582 9.1804 165.145 8.22002 165.842 7.44991L163.765 5.57209ZM161.526 9.42771C160.996 10.932 160.743 12.5942 160.743 14.396H163.543C163.543 12.8538 163.759 11.514 164.167 10.3583L161.526 9.42771ZM160.743 14.396C160.743 16.2242 161.002 17.9035 161.549 19.4134L164.182 18.4606C163.765 17.3105 163.543 15.9625 163.543 14.396H160.743ZM161.553 19.4245C162.1 20.8981 162.851 22.1846 163.822 23.2579L165.899 21.3801C165.197 20.6041 164.618 19.6359 164.178 18.4495L161.553 19.4245ZM163.835 23.2727C164.818 24.3284 165.975 25.14 167.299 25.6987L168.388 23.1193C167.431 22.7153 166.6 22.1336 165.885 21.3653L163.835 23.2727ZM167.304 25.7009C168.638 26.2581 170.064 26.531 171.567 26.531V23.731C170.41 23.731 169.354 23.5225 168.383 23.1171L167.304 25.7009ZM171.567 26.531C172.427 26.531 173.22 26.4841 173.943 26.385L173.562 23.611C172.992 23.6892 172.329 23.731 171.567 23.731V26.531ZM173.965 26.3817C174.704 26.268 175.4 26.0943 176.045 25.8541L175.069 23.2299C174.625 23.395 174.117 23.5253 173.539 23.6143L173.965 26.3817ZM176.036 25.8577C176.686 25.6211 177.295 25.3216 177.858 24.9565L176.334 22.6075C175.96 22.8504 175.543 23.0576 175.079 23.2263L176.036 25.8577ZM177.866 24.9516C178.416 24.5895 178.95 24.1683 179.468 23.6919L177.574 21.6301C177.155 22.0151 176.739 22.3412 176.327 22.6124L177.866 24.9516ZM179.447 23.7108C179.47 23.6907 179.458 23.7065 179.409 23.7281C179.356 23.7518 179.272 23.776 179.167 23.776V20.976C178.511 20.976 177.979 21.2719 177.595 21.6112L179.447 23.7108ZM201.491 13.579L201.909 14.9153L201.921 14.9112L201.491 13.579ZM203.543 12.477L204.456 13.5382L204.458 13.5366L203.543 12.477ZM204.797 10.767L206.086 11.3125L204.797 10.767ZM203.619 4.915L202.762 6.02222V6.02222L203.619 4.915ZM194.803 3.68V2.28H193.403V3.68H194.803ZM194.803 13.959H193.403V15.359H194.803V13.959ZM211.257 28V29.4H214.023L212.385 27.1711L211.257 28ZM206.507 27.221L207.702 26.4921L207.673 26.4439L207.64 26.3981L206.507 27.221ZM199.439 17.493L198.297 18.3022L198.301 18.3091L198.306 18.3159L199.439 17.493ZM198.736 16.847L198.035 18.0586L198.072 18.08L198.11 18.0992L198.736 16.847ZM194.803 16.638V15.238H193.403V16.638H194.803ZM194.803 28V29.4H196.203V28H194.803ZM191.136 28H189.736V29.4H191.136V28ZM191.136 0.772999V-0.627002H189.736V0.772999H191.136ZM203.296 1.305L202.915 2.65221L202.928 2.65567L203.296 1.305ZM206.393 2.806L205.51 3.89259L205.518 3.89921L206.393 2.806ZM208.217 5.2L206.926 5.74094L206.928 5.74722L208.217 5.2ZM208.35 11.014L209.666 11.4924V11.4924L208.35 11.014ZM207.02 13.275L205.963 12.3573L205.961 12.3589L207.02 13.275ZM204.911 14.966L204.226 13.7448L204.218 13.7493L204.911 14.966ZM202.099 16.03L201.787 14.6653L198.275 15.4692L201.408 17.2476L202.099 16.03ZM203.315 17.189L202.155 17.9723L202.17 17.9954L202.187 18.0179L203.315 17.189ZM198.679 15.359C199.85 15.359 200.934 15.2199 201.909 14.9153L201.073 12.2427C200.427 12.4447 199.636 12.559 198.679 12.559V15.359ZM201.921 14.9112C202.887 14.5993 203.744 14.1506 204.456 13.5382L202.63 11.4158C202.252 11.7408 201.742 12.0267 201.061 12.2468L201.921 14.9112ZM204.458 13.5366C205.173 12.9191 205.721 12.1749 206.086 11.3125L203.508 10.2215C203.315 10.6764 203.028 11.0722 202.628 11.4174L204.458 13.5366ZM206.086 11.3125C206.446 10.4623 206.615 9.54568 206.615 8.582H203.815C203.815 9.21431 203.705 9.75437 203.508 10.2215L206.086 11.3125ZM206.615 8.582C206.615 6.62663 205.954 4.95157 204.476 3.80778L202.762 6.02222C203.412 6.52509 203.815 7.2947 203.815 8.582H206.615ZM204.476 3.80778C203.06 2.71239 201.101 2.28 198.831 2.28V5.08C200.817 5.08 202.05 5.47094 202.762 6.02222L204.476 3.80778ZM198.831 2.28H194.803V5.08H198.831V2.28ZM193.403 3.68V13.959H196.203V3.68H193.403ZM194.803 15.359H198.679V12.559H194.803V15.359ZM211.257 26.6H207.989V29.4H211.257V26.6ZM207.989 26.6C207.835 26.6 207.776 26.5709 207.766 26.566C207.76 26.5628 207.755 26.5592 207.748 26.5523C207.74 26.545 207.724 26.5275 207.702 26.4921L205.312 27.9499C205.913 28.9353 206.89 29.4 207.989 29.4V26.6ZM207.64 26.3981L200.572 16.6701L198.306 18.3159L205.374 28.0439L207.64 26.3981ZM200.581 16.6838C200.274 16.2491 199.876 15.8518 199.362 15.5948L198.11 18.0992C198.103 18.0956 198.174 18.1289 198.297 18.3022L200.581 16.6838ZM199.437 15.6354C198.869 15.3061 198.181 15.238 197.596 15.238V18.038C197.798 18.038 197.934 18.0519 198.018 18.0673C198.107 18.0836 198.096 18.0941 198.035 18.0586L199.437 15.6354ZM197.596 15.238H194.803V18.038H197.596V15.238ZM193.403 16.638V28H196.203V16.638H193.403ZM194.803 26.6H191.136V29.4H194.803V26.6ZM192.536 28V0.772999H189.736V28H192.536ZM191.136 2.173H198.831V-0.627002H191.136V2.173ZM198.831 2.173C200.464 2.173 201.817 2.34173 202.915 2.65215L203.677 -0.0421572C202.267 -0.441062 200.644 -0.627002 198.831 -0.627002V2.173ZM202.928 2.65567C204.038 2.95856 204.883 3.38291 205.51 3.89256L207.276 1.71944C206.282 0.911751 205.062 0.33544 203.664 -0.0456705L202.928 2.65567ZM205.518 3.89921C206.166 4.41725 206.627 5.02792 206.926 5.74094L209.508 4.65906C209.022 3.49741 208.267 2.51208 207.268 1.71278L205.518 3.89921ZM206.928 5.74722C207.237 6.47516 207.406 7.32384 207.406 8.316H210.206C210.206 7.00282 209.982 5.77417 209.506 4.65278L206.928 5.74722ZM207.406 8.316C207.406 9.12893 207.278 9.86505 207.034 10.5356L209.666 11.4924C210.03 10.4909 210.206 9.4284 210.206 8.316H207.406ZM207.034 10.5356C206.789 11.2107 206.433 11.8155 205.963 12.3573L208.077 14.1927C208.772 13.3919 209.303 12.4893 209.666 11.4924L207.034 10.5356ZM205.961 12.3589C205.508 12.8833 204.935 13.3475 204.226 13.7448L205.596 16.1872C206.559 15.6472 207.392 14.9841 208.079 14.1911L205.961 12.3589ZM204.218 13.7493C203.529 14.1417 202.723 14.451 201.787 14.6653L202.411 17.3947C203.578 17.1277 204.646 16.7276 205.604 16.1827L204.218 13.7493ZM201.408 17.2476C201.665 17.3934 201.917 17.6204 202.155 17.9723L204.475 16.4057C204.029 15.7442 203.47 15.1986 202.79 14.8124L201.408 17.2476ZM202.187 18.0179L210.129 28.8289L212.385 27.1711L204.443 16.3601L202.187 18.0179ZM237.456 24.998L238.856 25.0069L238.865 23.598H237.456V24.998ZM237.437 28V29.4H238.828L238.837 28.0089L237.437 28ZM220.66 28H219.26V29.4H220.66V28ZM220.66 0.772999V-0.627002H219.26V0.772999H220.66ZM237.437 0.772999H238.837V-0.627002H237.437V0.772999ZM237.437 3.775V5.175H238.837V3.775H237.437ZM224.346 3.775V2.375H222.946V3.775H224.346ZM224.346 12.819H222.946V14.219H224.346V12.819ZM234.948 12.819H236.348V11.419H234.948V12.819ZM234.948 15.707V17.107H236.348V15.707H234.948ZM224.346 15.707V14.307H222.946V15.707H224.346ZM224.346 24.998H222.946V26.398H224.346V24.998ZM236.056 24.9891L236.037 27.9911L238.837 28.0089L238.856 25.0069L236.056 24.9891ZM237.437 26.6H220.66V29.4H237.437V26.6ZM222.06 28V0.772999H219.26V28H222.06ZM220.66 2.173H237.437V-0.627002H220.66V2.173ZM236.037 0.772999V3.775H238.837V0.772999H236.037ZM237.437 2.375H224.346V5.175H237.437V2.375ZM222.946 3.775V12.819H225.746V3.775H222.946ZM224.346 14.219H234.948V11.419H224.346V14.219ZM233.548 12.819V15.707H236.348V12.819H233.548ZM234.948 14.307H224.346V17.107H234.948V14.307ZM222.946 15.707V24.998H225.746V15.707H222.946ZM224.346 26.398H237.456V23.598H224.346V26.398ZM262.751 17.892V19.292H264.792L264.057 17.3879L262.751 17.892ZM258.476 6.815L257.169 7.31757L257.17 7.31907L258.476 6.815ZM258.077 5.675L256.741 6.09477L256.745 6.10595L258.077 5.675ZM257.678 4.269L259.034 3.92127L256.323 3.91765L257.678 4.269ZM256.861 6.834L255.564 6.30578L255.56 6.31744L255.555 6.32917L256.861 6.834ZM252.586 17.892L251.28 17.3872L250.544 19.292H252.586V17.892ZM270.427 28V29.4H272.494L271.727 27.4802L270.427 28ZM266.779 27.753L265.896 28.8396V28.8396L266.779 27.753ZM266.323 27.126L265.017 27.6316L265.02 27.6388L265.023 27.6459L266.323 27.126ZM263.777 20.552L265.082 20.0464L264.736 19.152H263.777V20.552ZM251.56 20.552V19.152H250.601L250.254 20.0464L251.56 20.552ZM249.014 27.126L247.708 26.6204L247.696 26.6516L247.686 26.6833L249.014 27.126ZM248.577 27.734L249.467 28.8147L248.577 27.734ZM244.929 28L243.629 27.4802L242.861 29.4H244.929V28ZM255.816 0.772999V-0.627002H254.868L254.516 0.253208L255.816 0.772999ZM259.54 0.772999L260.84 0.253208L260.488 -0.627002H259.54V0.772999ZM264.057 17.3879L259.782 6.31093L257.17 7.31907L261.445 18.3961L264.057 17.3879ZM259.783 6.31243C259.667 6.01223 259.542 5.65696 259.409 5.24405L256.745 6.10595C256.89 6.55437 257.031 6.9591 257.169 7.31757L259.783 6.31243ZM259.412 5.25524C259.281 4.83789 259.155 4.39338 259.034 3.92127L256.322 4.61672C256.454 5.13261 256.594 5.62544 256.741 6.09476L259.412 5.25524ZM256.323 3.91765C256.066 4.90696 255.812 5.69817 255.564 6.30578L258.157 7.36222C258.467 6.60183 258.758 5.68303 259.033 4.62035L256.323 3.91765ZM255.555 6.32917L251.28 17.3872L253.892 18.3968L258.167 7.33882L255.555 6.32917ZM252.586 19.292H262.751V16.492H252.586V19.292ZM270.427 26.6H267.577V29.4H270.427V26.6ZM267.577 26.6C267.528 26.6 267.521 26.5938 267.544 26.6008C267.556 26.6045 267.574 26.6112 267.595 26.6225C267.617 26.634 267.64 26.6487 267.662 26.6664L265.896 28.8396C266.408 29.2552 267.012 29.4 267.577 29.4V26.6ZM267.662 26.6664C267.652 26.6589 267.64 26.6484 267.623 26.6061L265.023 27.6459C265.209 28.1103 265.5 28.5177 265.896 28.8396L267.662 26.6664ZM267.628 26.6204L265.082 20.0464L262.471 21.0576L265.017 27.6316L267.628 26.6204ZM263.777 19.152H251.56V21.952H263.777V19.152ZM250.254 20.0464L247.708 26.6204L250.319 27.6316L252.865 21.0576L250.254 20.0464ZM247.686 26.6833C247.69 26.6717 247.694 26.661 247.699 26.6516C247.704 26.6422 247.708 26.6356 247.711 26.6319C247.716 26.6243 247.712 26.6326 247.687 26.6533L249.467 28.8147C249.852 28.4975 250.17 28.0843 250.342 27.5687L247.686 26.6833ZM247.687 26.6533C247.698 26.6438 247.713 26.634 247.729 26.625C247.745 26.6161 247.76 26.6097 247.773 26.6053C247.8 26.5964 247.806 26.6 247.779 26.6V29.4C248.374 29.4 248.967 29.2262 249.467 28.8147L247.687 26.6533ZM247.779 26.6H244.929V29.4H247.779V26.6ZM246.229 28.5198L257.116 1.29279L254.516 0.253208L243.629 27.4802L246.229 28.5198ZM255.816 2.173H259.54V-0.627002H255.816V2.173ZM258.24 1.29279L269.127 28.5198L271.727 27.4802L260.84 0.253208L258.24 1.29279ZM295.448 3.87V5.27H296.848V3.87H295.448ZM286.632 3.87V2.47H285.232V3.87H286.632ZM286.632 28V29.4H288.032V28H286.632ZM282.965 28H281.565V29.4H282.965V28ZM282.965 3.87H284.365V2.47H282.965V3.87ZM274.13 3.87H272.73V5.27H274.13V3.87ZM274.13 0.772999V-0.627002H272.73V0.772999H274.13ZM295.448 0.772999H296.848V-0.627002H295.448V0.772999ZM295.448 2.47H286.632V5.27H295.448V2.47ZM285.232 3.87V28H288.032V3.87H285.232ZM286.632 26.6H282.965V29.4H286.632V26.6ZM284.365 28V3.87H281.565V28H284.365ZM282.965 2.47H274.13V5.27H282.965V2.47ZM275.53 3.87V0.772999H272.73V3.87H275.53ZM274.13 2.173H295.448V-0.627002H274.13V2.173ZM294.048 0.772999V3.87H296.848V0.772999H294.048ZM308.874 28V29.4H310.274V28H308.874ZM305.188 28H303.788V29.4H305.188V28ZM305.188 0.772999V-0.627002H303.788V0.772999H305.188ZM308.874 0.772999H310.274V-0.627002H308.874V0.772999ZM308.874 26.6H305.188V29.4H308.874V26.6ZM306.588 28V0.772999H303.788V28H306.588ZM305.188 2.173H308.874V-0.627002H305.188V2.173ZM307.474 0.772999V28H310.274V0.772999H307.474ZM343.673 0.772999L344.97 1.30136L345.756 -0.627002H343.673V0.772999ZM332.577 28V29.4H333.519L333.874 28.5284L332.577 28ZM329.271 28L327.975 28.5284L328.33 29.4H329.271V28ZM318.175 0.772999V-0.627002H316.093L316.879 1.30136L318.175 0.772999ZM322.374 1.647L323.674 1.12749L323.674 1.12705L322.374 1.647ZM330.05 20.856L331.358 20.356L331.354 20.3462L331.35 20.3365L330.05 20.856ZM330.525 22.262L329.184 22.6643L329.189 22.6796L329.194 22.6947L330.525 22.262ZM330.962 23.858L329.597 24.1683H332.328L330.962 23.858ZM331.361 22.262L332.711 22.6332V22.6332L331.361 22.262ZM331.817 20.856L330.517 20.3376L330.513 20.3468L330.51 20.356L331.817 20.856ZM339.474 1.647L340.775 2.16539L340.785 2.13936L340.795 2.11294L339.474 1.647ZM339.911 1.058L340.801 2.13872L340.808 2.13351L339.911 1.058ZM342.377 0.244639L331.281 27.4716L333.874 28.5284L344.97 1.30136L342.377 0.244639ZM332.577 26.6H329.271V29.4H332.577V26.6ZM330.568 27.4716L319.472 0.244639L316.879 1.30136L327.975 28.5284L330.568 27.4716ZM318.175 2.173H321.12V-0.627002H318.175V2.173ZM321.12 2.173C321.17 2.173 321.176 2.17925 321.153 2.17215C321.141 2.1685 321.123 2.16183 321.102 2.15046C321.08 2.13899 321.057 2.12433 321.036 2.10656L322.801 -0.0665607C322.29 -0.482216 321.685 -0.627002 321.12 -0.627002V2.173ZM321.036 2.10656C321.045 2.11408 321.058 2.12459 321.074 2.16695L323.674 1.12705C323.488 0.662741 323.197 0.255251 322.801 -0.0665607L321.036 2.10656ZM321.074 2.1665L328.75 21.3755L331.35 20.3365L323.674 1.12749L321.074 2.1665ZM328.743 21.356C328.893 21.7502 329.041 22.1859 329.184 22.6643L331.866 21.8597C331.706 21.3248 331.537 20.8231 331.358 20.356L328.743 21.356ZM329.194 22.6947C329.345 23.1583 329.479 23.6493 329.597 24.1683L332.328 23.5477C332.192 22.952 332.035 22.379 331.857 21.8293L329.194 22.6947ZM332.328 24.1683C332.45 23.6296 332.578 23.118 332.711 22.6332L330.011 21.8908C329.866 22.4193 329.728 22.9717 329.597 23.5477L332.328 24.1683ZM332.711 22.6332C332.84 22.1642 332.979 21.7391 333.125 21.356L330.51 20.356C330.327 20.8342 330.161 21.3464 330.011 21.8908L332.711 22.6332ZM333.118 21.3744L340.775 2.16539L338.174 1.1286L330.517 20.3376L333.118 21.3744ZM340.795 2.11294C340.789 2.1288 340.783 2.14219 340.777 2.1528C340.771 2.16333 340.767 2.16984 340.765 2.17243C340.761 2.17743 340.769 2.16498 340.801 2.1387L339.021 -0.0227041C338.653 0.280724 338.332 0.677328 338.154 1.18106L340.795 2.11294ZM340.808 2.13351C340.803 2.13728 340.795 2.14328 340.784 2.1498C340.772 2.15635 340.76 2.16191 340.748 2.16613C340.722 2.17515 340.712 2.173 340.728 2.173V-0.627002C340.108 -0.627002 339.512 -0.431846 339.015 -0.0175123L340.808 2.13351ZM340.728 2.173H343.673V-0.627002H340.728V2.173ZM369.751 24.998L371.151 25.0069L371.16 23.598H369.751V24.998ZM369.732 28V29.4H371.123L371.132 28.0089L369.732 28ZM352.955 28H351.555V29.4H352.955V28ZM352.955 0.772999V-0.627002H351.555V0.772999H352.955ZM369.732 0.772999H371.132V-0.627002H369.732V0.772999ZM369.732 3.775V5.175H371.132V3.775H369.732ZM356.641 3.775V2.375H355.241V3.775H356.641ZM356.641 12.819H355.241V14.219H356.641V12.819ZM367.243 12.819H368.643V11.419H367.243V12.819ZM367.243 15.707V17.107H368.643V15.707H367.243ZM356.641 15.707V14.307H355.241V15.707H356.641ZM356.641 24.998H355.241V26.398H356.641V24.998ZM368.351 24.9891L368.332 27.9911L371.132 28.0089L371.151 25.0069L368.351 24.9891ZM369.732 26.6H352.955V29.4H369.732V26.6ZM354.355 28V0.772999H351.555V28H354.355ZM352.955 2.173H369.732V-0.627002H352.955V2.173ZM368.332 0.772999V3.775H371.132V0.772999H368.332ZM369.732 2.375H356.641V5.175H369.732V2.375ZM355.241 3.775V12.819H358.041V3.775H355.241ZM356.641 14.219H367.243V11.419H356.641V14.219ZM365.843 12.819V15.707H368.643V12.819H365.843ZM367.243 14.307H356.641V17.107H367.243V14.307ZM355.241 15.707V24.998H358.041V15.707H355.241ZM356.641 26.398H369.751V23.598H356.641V26.398Z" fill="#005380" mask="url(#path-1-outside-1_2538_2610)"/>
</svg>
