<svg width="40" height="40" viewBox="0 0 40 40" fill="none" xmlns="http://www.w3.org/2000/svg">
<circle cx="20" cy="20" r="19.5" stroke="#EC5200"/>
<path d="M10.8773 10H15.8688C16.0947 10 16.3114 10.0895 16.4711 10.2488C16.6309 10.4082 16.7206 10.6243 16.7206 10.8496C16.6927 11.9827 16.8835 13.1105 17.2828 14.1716C17.4547 14.5268 17.4925 14.932 17.3893 15.3127C17.286 15.6935 17.0486 16.0244 16.7206 16.2447L14.9744 17.9439C15.7487 19.452 16.761 20.8261 17.9727 22.0136C19.1536 23.2419 20.5256 24.2719 22.0358 25.0637L23.7394 23.322C24.5911 22.4724 24.983 22.4724 25.8177 22.7613C26.8816 23.1595 28.0123 23.3499 29.1482 23.322C29.3708 23.3323 29.5815 23.4252 29.739 23.5823C29.8966 23.7395 29.9896 23.9496 30 24.1716V29.1504C29.9896 29.3724 29.8966 29.5825 29.739 29.7397C29.5815 29.8968 29.3708 29.9897 29.1482 30C24.1376 29.7823 19.3881 27.7104 15.8262 24.1886C12.2899 20.6396 10.2118 15.8999 10 10.9006C10.002 10.6667 10.0943 10.4427 10.2577 10.2749C10.4211 10.1072 10.643 10.0087 10.8773 10Z" stroke="#EC5200" stroke-width="2" stroke-linecap="round" stroke-linejoin="round"/>
</svg>
