<svg width="40" height="40" viewBox="0 0 40 40" fill="none" xmlns="http://www.w3.org/2000/svg">
<circle cx="20" cy="20" r="19.5" stroke="#EC5200"/>
<path d="M32.5 11.9063C31.1009 11.6947 29.6904 11.5677 28.276 11.5261C27.5084 10.7207 26.4974 10.1897 25.3986 10.0148C24.2998 9.83989 23.174 10.0307 22.1942 10.5579C21.2144 11.0851 20.4348 11.9194 19.9753 12.9328C19.5159 13.9461 19.4019 15.0823 19.651 16.1667C15.4427 15.9532 12.2552 13.7917 9.27604 10.5782C8.86979 11.3698 8.09896 13.8959 8.69792 15.7188C9.4092 17.5206 10.6311 19.0755 12.2135 20.1927C10.6907 20.1231 9.19058 19.7974 7.77604 19.2292C8.51042 21.6407 11.0312 25.1407 14.9948 25.6875C13.2046 27.1017 10.9897 27.8706 8.70833 27.8698C8.30478 27.8746 7.9013 27.8554 7.5 27.8125C9.81234 29.3068 12.5073 30.1008 15.2604 30.099C24.5677 30.099 29.6615 22.3438 29.6615 15.6146V14.9532L32.5 11.9063Z" stroke="#EC5200" stroke-width="2"/>
</svg>
