<svg width="35" height="32" viewBox="0 0 35 32" fill="none" xmlns="http://www.w3.org/2000/svg">
<rect x="10.3017" y="7.13086" width="8.88465" height="8.88465" transform="rotate(-45 10.3017 7.13086)" stroke="#0088CC" stroke-width="1.2"/>
<rect x="19.2597" y="7.12305" width="3.78598" height="3.78598" transform="rotate(135 19.2597 7.12305)" stroke="#0088CC" stroke-width="0.5"/>
<rect x="1.47743" y="15.9551" width="8.88465" height="8.88465" transform="rotate(-45 1.47743 15.9551)" stroke="#0088CC" stroke-width="1.2"/>
<rect x="10.4355" y="15.9473" width="3.78598" height="3.78598" transform="rotate(135 10.4355 15.9473)" stroke="#0088CC" stroke-width="0.5"/>
<rect x="10.3017" y="24.7793" width="8.88465" height="8.88465" transform="rotate(-45 10.3017 24.7793)" stroke="#0088CC" stroke-width="1.2"/>
<rect x="19.2597" y="24.7715" width="3.78598" height="3.78598" transform="rotate(135 19.2597 24.7715)" stroke="#0088CC" stroke-width="0.5"/>
<path d="M33.8526 14.8049C33.3292 14.8049 32.8875 15.1572 32.7495 15.6368H28.1569L26.8787 14.3587H29.9609C30.0989 14.8384 30.5408 15.1907 31.064 15.1907C31.6974 15.1907 32.2125 14.6754 32.2125 14.042C32.2125 13.4087 31.6974 12.8933 31.064 12.8933C30.5406 12.8933 30.0988 13.2456 29.9609 13.7253H26.2452L25.4028 12.8828L22.332 15.9535L25.4028 19.0243L26.2452 18.1817H29.9608C30.0988 18.6613 30.5406 19.0136 31.0639 19.0136C31.6972 19.0136 32.2124 18.4983 32.2124 17.8649C32.2124 17.2316 31.6972 16.7164 31.0639 16.7164C30.5405 16.7164 30.0986 17.0686 29.9608 17.5482H26.8787L28.1567 16.2701H32.7493C32.8873 16.7498 33.3291 17.1019 33.8525 17.1019C34.4858 17.1019 35.0011 16.5867 35.0011 15.9534C35.0013 15.3201 34.4859 14.8049 33.8526 14.8049ZM31.0642 13.5267C31.3482 13.5267 31.5792 13.7578 31.5792 14.0419C31.5792 14.3259 31.3482 14.5571 31.0642 14.5571C30.7801 14.5571 30.549 14.3259 30.549 14.0419C30.549 13.7578 30.7801 13.5267 31.0642 13.5267ZM31.0642 17.3499C31.3482 17.3499 31.5792 17.5809 31.5792 17.8649C31.5792 18.149 31.3482 18.3801 31.0642 18.3801C30.7801 18.3801 30.549 18.149 30.549 17.8649C30.549 17.5809 30.7801 17.3499 31.0642 17.3499ZM25.4029 18.1285L23.228 15.9535L25.4029 13.7786L27.5778 15.9535L25.4029 18.1285ZM33.8526 16.4686C33.5685 16.4686 33.3376 16.2376 33.3376 15.9535C33.3376 15.6695 33.5685 15.4383 33.8526 15.4383C34.1367 15.4383 34.3678 15.6695 34.3678 15.9535C34.3678 16.2375 34.1367 16.4686 33.8526 16.4686Z" fill="#0088CC"/>
<path d="M25.4061 22.3743L18.9845 15.9528L25.4061 9.53132L28.674 12.7992H27.9979L25.7596 10.5609L25.4061 10.2074L25.0525 10.5609L20.0141 15.5993L19.6605 15.9528L20.0141 16.3064L25.0525 21.3448L25.4061 21.6984L25.7596 21.3448L27.9979 19.1065H28.6738L25.4061 22.3743Z" stroke="#0088CC"/>
</svg>
