<svg width="35" height="32" viewBox="0 0 35 32" fill="none" xmlns="http://www.w3.org/2000/svg">
<rect x="10.2997" y="7.13092" width="8.88465" height="8.88465" transform="rotate(-45 10.2997 7.13092)" stroke="#005380" stroke-width="1.2"/>
<rect x="19.2578" y="7.12231" width="3.78598" height="3.78598" transform="rotate(135 19.2578 7.12231)" stroke="#005380" stroke-width="0.5"/>
<rect x="1.47548" y="15.955" width="8.88465" height="8.88465" transform="rotate(-45 1.47548 15.955)" stroke="#005380" stroke-width="1.2"/>
<rect x="10.4336" y="15.9464" width="3.78598" height="3.78598" transform="rotate(135 10.4336 15.9464)" stroke="#005380" stroke-width="0.5"/>
<rect x="10.2997" y="24.7791" width="8.88465" height="8.88465" transform="rotate(-45 10.2997 24.7791)" stroke="#005380" stroke-width="1.2"/>
<rect x="19.2578" y="24.7704" width="3.78598" height="3.78598" transform="rotate(135 19.2578 24.7704)" stroke="#005380" stroke-width="0.5"/>
<path d="M33.8506 14.8041C33.3273 14.8041 32.8855 15.1564 32.7475 15.6361H28.1549L26.8767 14.358H29.9589C30.0969 14.8376 30.5388 15.1899 31.0621 15.1899C31.6954 15.1899 32.2106 14.6746 32.2106 14.0413C32.2106 13.4079 31.6954 12.8926 31.0621 12.8926C30.5387 12.8926 30.0968 13.2449 29.9589 13.7245H26.2433L25.4008 12.8821L22.3301 15.9528L25.4008 19.0235L26.2433 18.1809H29.9588C30.0968 18.6606 30.5387 19.0129 31.0619 19.0129C31.6953 19.0129 32.2105 18.4975 32.2105 17.8642C32.2105 17.2308 31.6953 16.7157 31.0619 16.7157C30.5385 16.7157 30.0967 17.0678 29.9588 17.5474H26.8767L28.1548 16.2694H32.7474C32.8854 16.749 33.3271 17.1012 33.8505 17.1012C34.4839 17.1012 34.9992 16.586 34.9992 15.9527C34.9993 15.3193 34.484 14.8041 33.8506 14.8041ZM31.0622 13.526C31.3463 13.526 31.5772 13.7571 31.5772 14.0411C31.5772 14.3252 31.3463 14.5563 31.0622 14.5563C30.7781 14.5563 30.547 14.3252 30.547 14.0411C30.547 13.7571 30.7781 13.526 31.0622 13.526ZM31.0622 17.3491C31.3463 17.3491 31.5772 17.5801 31.5772 17.8642C31.5772 18.1482 31.3463 18.3794 31.0622 18.3794C30.7781 18.3794 30.547 18.1482 30.547 17.8642C30.547 17.5801 30.7781 17.3491 31.0622 17.3491ZM25.4009 18.1277L23.226 15.9528L25.4009 13.7779L27.5759 15.9528L25.4009 18.1277ZM33.8506 16.4678C33.5666 16.4678 33.3356 16.2369 33.3356 15.9528C33.3356 15.6687 33.5666 15.4376 33.8506 15.4376C34.1347 15.4376 34.3658 15.6687 34.3658 15.9528C34.3658 16.2367 34.1347 16.4678 33.8506 16.4678Z" fill="#005380"/>
<path d="M25.4041 22.3741L18.9825 15.9526L25.4041 9.53114L28.672 12.799H27.9959L25.7577 10.5608L25.4041 10.2072L25.0506 10.5608L20.0121 15.5991L19.6586 15.9526L20.0121 16.3062L25.0506 21.3446L25.4041 21.6982L25.7577 21.3446L27.9959 19.1064H28.6719L25.4041 22.3741Z" stroke="#005380"/>
</svg>
