<svg width="45" height="45" viewBox="0 0 45 45" fill="none" xmlns="http://www.w3.org/2000/svg">
<circle cx="22.5" cy="22.5" r="22" stroke="#02A6FF"/>
<path d="M36.5625 13.3944C34.9886 13.1563 33.4017 13.0135 31.8105 12.9667C30.9469 12.0607 29.8096 11.4633 28.5735 11.2665C27.3373 11.0697 26.0707 11.2844 24.9684 11.8775C23.8662 12.4705 22.9892 13.4092 22.4723 14.5492C21.9554 15.6892 21.8272 16.9675 22.1074 18.1874C17.373 17.9472 13.7871 15.5155 10.4355 11.9003C9.97852 12.7909 9.11133 15.6327 9.78516 17.6835C10.5853 19.7105 11.9599 21.4598 13.7402 22.7167C12.0271 22.6384 10.3394 22.2719 8.74805 21.6327C9.57422 24.3456 12.4102 28.2831 16.8691 28.8983C14.8552 30.4893 12.3634 31.3543 9.79687 31.3534C9.34288 31.3587 8.88896 31.3372 8.4375 31.289C11.0389 32.97 14.0707 33.8633 17.168 33.8612C27.6387 33.8612 33.3691 25.1366 33.3691 17.5663V16.8222L36.5625 13.3944Z" stroke="#02A6FF" stroke-width="2"/>
</svg>
