<svg width="45" height="45" viewBox="0 0 45 45" fill="none" xmlns="http://www.w3.org/2000/svg">
<g clip-path="url(#clip0_2539_4275)">
<path d="M29.6943 17.969L29.1205 20.819C28.933 21.7574 28.0312 22.4924 27.0674 22.4924H25.1249V35.6249C25.1249 36.6599 24.3365 37.4999 23.2959 37.4999H20.4655C19.4249 37.4999 18.5784 36.658 18.5784 35.624V22.4924H17.6352C16.5946 22.4924 15.748 21.6515 15.748 20.6165V17.803C15.748 16.769 16.5946 15.9271 17.6352 15.9271H18.5784V13.1277C18.5784 10.0461 21.0871 7.53833 24.1818 7.51208C24.2015 7.51115 24.2184 7.50083 24.239 7.50083H28.0134C28.5337 7.50083 28.8749 7.9199 28.8749 8.4374V13.1249C28.8749 13.6433 28.5337 14.0661 28.0134 14.0661H25.1821L25.1812 15.9271H28.0115C28.5421 15.9271 29.0315 16.1511 29.3521 16.5411C29.6737 16.9302 29.7984 17.4515 29.6943 17.969ZM24.2737 17.803C24.2605 17.804 24.2502 17.8105 24.2371 17.8105C23.7159 17.8096 23.293 17.3896 23.294 16.8721V16.8655L23.2959 13.1277C23.2959 12.6093 23.7177 12.1902 24.239 12.1902H27.0693V9.37677H24.2755C24.2596 9.37677 24.2465 9.38521 24.2296 9.38521C22.154 9.38521 20.4655 11.0643 20.4655 13.1277V16.8796C20.4655 17.398 20.0427 17.818 19.5215 17.818C19.4962 17.818 19.4746 17.8049 19.4493 17.803H17.6352V20.6165H19.5215C20.0427 20.6165 20.4655 21.0365 20.4655 21.5549C20.4655 21.6036 20.4449 21.6449 20.4374 21.6918V35.6249L23.2959 35.624V21.5643C23.2959 21.5605 23.294 21.5577 23.294 21.5549C23.294 21.0365 23.7159 20.6165 24.2371 20.6165H27.0674C27.1359 20.6165 27.2577 20.518 27.2699 20.4524L27.8034 17.803H24.2737Z" fill="#02A6FF"/>
</g>
<circle cx="22.5" cy="22.5" r="22" stroke="#02A6FF"/>
<defs>
<clipPath id="clip0_2539_4275">
<rect width="13.9744" height="30" fill="white" transform="translate(15.75 7.5)"/>
</clipPath>
</defs>
</svg>
