<svg width="45" height="45" viewBox="0 0 45 45" fill="none" xmlns="http://www.w3.org/2000/svg">
<g clip-path="url(#clip0_2539_4283)">
<path d="M14.9062 37.5H29.9062C30.6816 37.5 31.3125 36.869 31.3125 36.0937V8.9062C31.3125 8.13089 30.6816 7.49995 29.9062 7.49995H14.9062C14.1309 7.49995 13.5 8.13089 13.5 8.9062V36.0937C13.5 36.869 14.1309 37.5 14.9062 37.5ZM14.4375 8.9062C14.4375 8.64745 14.6475 8.43745 14.9062 8.43745H29.9062C30.165 8.43745 30.375 8.64745 30.375 8.9062V36.0937C30.375 36.3525 30.165 36.5625 29.9062 36.5625H14.9062C14.6475 36.5625 14.4375 36.3525 14.4375 36.0937V8.9062Z" fill="#02A6FF"/>
<path d="M15.8438 32.8125H28.9688C29.2275 32.8125 29.4375 32.6025 29.4375 32.3437V12.6562C29.4375 12.3975 29.2275 12.1875 28.9688 12.1875H15.8438C15.585 12.1875 15.375 12.3975 15.375 12.6562V32.3437C15.375 32.6025 15.585 32.8125 15.8438 32.8125ZM16.3125 13.125H28.5V31.875H16.3125V13.125Z" fill="#02A6FF"/>
<path d="M22.875 35.625C23.3928 35.625 23.8125 35.2052 23.8125 34.6875C23.8125 34.1697 23.3928 33.75 22.875 33.75C22.3572 33.75 21.9375 34.1697 21.9375 34.6875C21.9375 35.2052 22.3572 35.625 22.875 35.625Z" fill="#02A6FF"/>
<path d="M20.5312 11.25H24.2812C24.54 11.25 24.75 11.04 24.75 10.7812C24.75 10.5225 24.54 10.3125 24.2812 10.3125H20.5312C20.2725 10.3125 20.0625 10.5225 20.0625 10.7812C20.0625 11.04 20.2725 11.25 20.5312 11.25Z" fill="#02A6FF"/>
</g>
<circle cx="22.5" cy="22.5" r="22" stroke="#02A6FF"/>
<defs>
<clipPath id="clip0_2539_4283">
<rect width="30" height="30" fill="white" transform="translate(7.5 7.49995)"/>
</clipPath>
</defs>
</svg>
