<svg width="36" height="36" viewBox="0 0 36 36" fill="none" xmlns="http://www.w3.org/2000/svg">
<path d="M25.6043 30.915H14.6843C13.8887 30.915 13.1256 30.5989 12.563 30.0363C12.0004 29.4737 11.6843 28.7107 11.6843 27.915C11.6843 27.1194 12.0004 26.3563 12.563 25.7937C13.1256 25.2311 13.8887 24.915 14.6843 24.915H17.4893L7.49933 14.79C6.97345 14.2772 6.65396 13.5893 6.60144 12.8567C6.54891 12.124 6.76698 11.3976 7.21433 10.815C7.48261 10.4914 7.81985 10.2319 8.20136 10.0554C8.58287 9.8789 8.99901 9.78994 9.41933 9.79501C9.79526 9.78733 10.1688 9.85655 10.517 9.99842C10.8652 10.1403 11.1808 10.3518 11.4443 10.62L17.5343 16.71L23.6543 12.12C24.2069 11.7053 24.8907 11.5042 25.5798 11.5539C26.2689 11.6035 26.9169 11.9004 27.4043 12.39C30.2379 15.2296 32.3695 18.6914 33.6293 22.5L33.7193 22.785" stroke="#0285CC" stroke-width="2" stroke-miterlimit="10"/>
<path d="M15.9448 15.18C16.3345 14.2552 16.5237 13.2583 16.4998 12.255C16.4849 10.8376 16.0503 9.45648 15.2508 8.28605C14.4513 7.11561 13.3228 6.2084 12.008 5.67903C10.6931 5.14966 9.25083 5.02189 7.86338 5.31185C6.47593 5.60182 5.20555 6.29651 4.21275 7.30817C3.21995 8.31982 2.54927 9.60304 2.28545 10.9957C2.02163 12.3884 2.17651 13.828 2.73051 15.1326C3.28451 16.4373 4.21279 17.5485 5.39805 18.3258C6.58332 19.1032 7.97239 19.5118 9.38977 19.5C10.1812 19.5023 10.9674 19.3704 11.7148 19.11" stroke="#0285CC" stroke-width="2" stroke-miterlimit="10"/>
</svg>
