<svg width="36" height="36" viewBox="0 0 36 36" fill="none" xmlns="http://www.w3.org/2000/svg">
<path d="M25.6043 30.9155H14.6843C13.8887 30.9155 13.1256 30.5994 12.563 30.0368C12.0004 29.4742 11.6843 28.7111 11.6843 27.9155C11.6843 27.1198 12.0004 26.3568 12.563 25.7942C13.1256 25.2316 13.8887 24.9155 14.6843 24.9155H17.4893L7.49933 14.7905C6.97345 14.2777 6.65396 13.5898 6.60144 12.8572C6.54891 12.1245 6.76698 11.3981 7.21433 10.8155C7.48261 10.4919 7.81985 10.2323 8.20136 10.0559C8.58287 9.87938 8.99901 9.79043 9.41933 9.7955C9.79526 9.78782 10.1688 9.85704 10.517 9.99891C10.8652 10.1408 11.1808 10.3523 11.4443 10.6205L17.5343 16.7105L23.6543 12.1205C24.2069 11.7058 24.8907 11.5047 25.5798 11.5543C26.2689 11.604 26.9169 11.9009 27.4043 12.3905C30.2379 15.23 32.3695 18.6919 33.6293 22.5005L33.7193 22.7855" stroke="#007AB8" stroke-width="2" stroke-miterlimit="10"/>
<path d="M15.9448 15.1799C16.3345 14.2551 16.5237 13.2582 16.4998 12.2549C16.4849 10.8376 16.0503 9.45642 15.2508 8.28599C14.4513 7.11555 13.3228 6.20834 12.008 5.67897C10.6931 5.1496 9.25083 5.02183 7.86338 5.31179C6.47593 5.60176 5.20555 6.29645 4.21275 7.30811C3.21995 8.31976 2.54927 9.60297 2.28545 10.9956C2.02163 12.3883 2.17651 13.8279 2.73051 15.1326C3.28451 16.4372 4.21279 17.5484 5.39805 18.3258C6.58332 19.1031 7.97239 19.5117 9.38977 19.4999C10.1812 19.5022 10.9674 19.3703 11.7148 19.1099" stroke="#007AB8" stroke-width="2" stroke-miterlimit="10"/>
</svg>
