<svg width="515" height="392" viewBox="0 0 515 392" fill="none" xmlns="http://www.w3.org/2000/svg">
<path d="M179.63 68.5716C173.629 68.5716 168.563 72.6113 166.981 78.1111H114.319L99.6625 63.4561H135.005C136.588 68.9558 141.655 72.9956 147.655 72.9956C154.917 72.9956 160.824 67.0865 160.824 59.8241C160.824 52.5618 154.917 46.6527 147.655 46.6527C141.653 46.6527 136.586 50.6925 135.005 56.1922H92.3986L82.7384 46.532L47.5273 81.743L82.7384 116.954L92.3986 107.292H135.004C136.586 112.792 141.653 116.832 147.653 116.832C154.915 116.832 160.823 110.923 160.823 103.66C160.823 96.398 154.915 90.4905 147.653 90.4905C141.651 90.4905 136.585 94.5287 135.004 100.028H99.6625L114.317 85.3735H166.98C168.562 90.8732 173.627 94.9113 179.629 94.9113C186.891 94.9113 192.8 89.0039 192.8 81.7415C192.802 74.4791 186.893 68.5716 179.63 68.5716ZM147.656 53.9151C150.913 53.9151 153.562 56.5654 153.562 59.8226C153.562 63.0798 150.913 65.73 147.656 65.73C144.399 65.73 141.749 63.0798 141.749 59.8226C141.749 56.5654 144.399 53.9151 147.656 53.9151ZM147.656 97.7545C150.913 97.7545 153.562 100.403 153.562 103.66C153.562 106.918 150.913 109.568 147.656 109.568C144.399 109.568 141.749 106.918 141.749 103.66C141.749 100.403 144.399 97.7545 147.656 97.7545ZM82.74 106.682L57.8007 81.743L82.74 56.8038L107.679 81.743L82.74 106.682ZM179.63 87.6489C176.373 87.6489 173.724 85.0002 173.724 81.743C173.724 78.4859 176.373 75.8356 179.63 75.8356C182.888 75.8356 185.538 78.4859 185.538 81.743C185.538 84.9987 182.888 87.6489 179.63 87.6489Z" fill="url(#paint0_linear_2538_2624)"/>
<path d="M134.055 112.171H110.088L82.743 139.516L24.9686 81.7415L82.743 23.9685L110.088 51.3135H134.057L82.743 0L1 81.7415L82.743 163.483L134.055 112.171Z" fill="url(#paint1_linear_2538_2624)"/>
<path d="M179.63 68.5716C173.629 68.5716 168.563 72.6113 166.981 78.1111H114.319L99.6625 63.4561H135.005C136.588 68.9558 141.655 72.9956 147.655 72.9956C154.917 72.9956 160.824 67.0865 160.824 59.8241C160.824 52.5618 154.917 46.6527 147.655 46.6527C141.653 46.6527 136.586 50.6925 135.005 56.1922H92.3986L82.7384 46.532L47.5273 81.743L82.7384 116.954L92.3986 107.292H135.004C136.586 112.792 141.653 116.832 147.653 116.832C154.915 116.832 160.823 110.923 160.823 103.66C160.823 96.398 154.915 90.4905 147.653 90.4905C141.651 90.4905 136.585 94.5287 135.004 100.028H99.6625L114.317 85.3735H166.98C168.562 90.8732 173.627 94.9113 179.629 94.9113C186.891 94.9113 192.8 89.0039 192.8 81.7415C192.802 74.4791 186.893 68.5716 179.63 68.5716ZM147.656 53.9151C150.913 53.9151 153.562 56.5654 153.562 59.8226C153.562 63.0798 150.913 65.73 147.656 65.73C144.399 65.73 141.749 63.0798 141.749 59.8226C141.749 56.5654 144.399 53.9151 147.656 53.9151ZM147.656 97.7545C150.913 97.7545 153.562 100.403 153.562 103.66C153.562 106.918 150.913 109.568 147.656 109.568C144.399 109.568 141.749 106.918 141.749 103.66C141.749 100.403 144.399 97.7545 147.656 97.7545ZM82.74 106.682L57.8007 81.743L82.74 56.8038L107.679 81.743L82.74 106.682ZM179.63 87.6489C176.373 87.6489 173.724 85.0002 173.724 81.743C173.724 78.4859 176.373 75.8356 179.63 75.8356C182.888 75.8356 185.538 78.4859 185.538 81.743C185.538 84.9987 182.888 87.6489 179.63 87.6489Z" fill="url(#paint2_linear_2538_2624)"/>
<path d="M134.055 112.171H110.088L82.743 139.516L24.9686 81.7415L82.743 23.9685L110.088 51.3135H134.057L82.743 0L1 81.7415L82.743 163.483L134.055 112.171Z" fill="url(#paint3_linear_2538_2624)"/>
<path d="M276.134 126.674C276.134 131.957 279.689 136.415 284.53 137.808V184.161L271.631 197.062V165.953C276.472 164.56 280.028 160.1 280.028 154.819C280.028 148.427 274.826 143.227 268.434 143.227C262.042 143.227 256.841 148.427 256.841 154.819C256.841 160.102 260.396 164.561 265.237 165.953V203.455L256.734 211.958L287.727 242.951L318.72 211.958L310.216 203.455V165.954C315.056 164.561 318.612 160.102 318.612 154.82C318.612 148.428 313.411 143.228 307.019 143.228C300.626 143.228 295.427 148.428 295.427 154.82C295.427 160.103 298.981 164.563 303.822 165.954V197.062L290.923 184.162V137.809C295.763 136.416 299.318 131.958 299.318 126.675C299.318 120.283 294.118 115.082 287.726 115.082C281.333 115.081 276.134 120.282 276.134 126.674ZM263.233 154.818C263.233 151.951 265.566 149.619 268.433 149.619C271.3 149.619 273.632 151.951 273.632 154.818C273.632 157.685 271.3 160.017 268.433 160.017C265.566 160.017 263.233 157.685 263.233 154.818ZM301.82 154.818C301.82 151.951 304.152 149.619 307.019 149.619C309.886 149.619 312.218 151.951 312.218 154.818C312.218 157.685 309.886 160.017 307.019 160.017C304.152 160.017 301.82 157.685 301.82 154.818ZM309.679 211.957L287.727 233.908L265.776 211.957L287.727 190.005L309.679 211.957ZM292.925 126.674C292.925 129.541 290.594 131.872 287.727 131.872C284.86 131.872 282.527 129.541 282.527 126.674C282.527 123.807 284.86 121.474 287.727 121.474C290.593 121.474 292.925 123.807 292.925 126.674Z" fill="url(#paint4_linear_2538_2624)"/>
<path d="M276.134 126.674C276.134 131.957 279.689 136.415 284.53 137.808V184.161L271.631 197.062V165.953C276.472 164.56 280.028 160.1 280.028 154.819C280.028 148.427 274.826 143.227 268.434 143.227C262.042 143.227 256.841 148.427 256.841 154.819C256.841 160.102 260.396 164.561 265.237 165.953V203.455L256.734 211.958L287.727 242.951L318.72 211.958L310.216 203.455V165.954C315.056 164.561 318.612 160.102 318.612 154.82C318.612 148.428 313.411 143.228 307.019 143.228C300.626 143.228 295.427 148.428 295.427 154.82C295.427 160.103 298.981 164.563 303.822 165.954V197.062L290.923 184.162V137.809C295.763 136.416 299.318 131.958 299.318 126.675C299.318 120.283 294.118 115.082 287.726 115.082C281.333 115.081 276.134 120.282 276.134 126.674ZM263.233 154.818C263.233 151.951 265.566 149.619 268.433 149.619C271.3 149.619 273.632 151.951 273.632 154.818C273.632 157.685 271.3 160.017 268.433 160.017C265.566 160.017 263.233 157.685 263.233 154.818ZM301.82 154.818C301.82 151.951 304.152 149.619 307.019 149.619C309.886 149.619 312.218 151.951 312.218 154.818C312.218 157.685 309.886 160.017 307.019 160.017C304.152 160.017 301.82 157.685 301.82 154.818ZM309.679 211.957L287.727 233.908L265.776 211.957L287.727 190.005L309.679 211.957ZM292.925 126.674C292.925 129.541 290.594 131.872 287.727 131.872C284.86 131.872 282.527 129.541 282.527 126.674C282.527 123.807 284.86 121.474 287.727 121.474C290.593 121.474 292.925 123.807 292.925 126.674Z" fill="url(#paint5_linear_2538_2624)"/>
<path d="M299.323 295.293C299.323 290.011 295.768 285.552 290.927 284.159V237.806L303.826 224.906V256.014C298.985 257.407 295.429 261.867 295.429 267.148C295.429 273.54 300.631 278.74 307.023 278.74C313.415 278.74 318.616 273.54 318.616 267.148C318.616 261.866 315.061 257.406 310.22 256.014V218.512L318.723 210.009L287.73 179.016L256.737 210.009L265.242 218.512V256.013C260.401 257.406 256.845 261.866 256.845 267.147C256.845 273.539 262.046 278.739 268.438 278.739C274.831 278.739 280.03 273.539 280.03 267.147C280.03 261.864 276.476 257.404 271.635 256.013V224.906L284.534 237.805V284.158C279.694 285.551 276.139 290.009 276.139 295.292C276.139 301.684 281.339 306.885 287.731 306.885C294.124 306.887 299.323 301.686 299.323 295.293ZM312.224 267.149C312.224 270.016 309.891 272.348 307.024 272.348C304.157 272.348 301.825 270.016 301.825 267.149C301.825 264.283 304.157 261.95 307.024 261.95C309.891 261.95 312.224 264.283 312.224 267.149ZM273.637 267.149C273.637 270.016 271.305 272.348 268.438 272.348C265.571 272.348 263.239 270.016 263.239 267.149C263.239 264.283 265.571 261.95 268.438 261.95C271.305 261.95 273.637 264.283 273.637 267.149ZM265.778 210.01L287.73 188.059L309.681 210.01L287.73 231.962L265.778 210.01ZM282.532 295.293C282.532 292.426 284.863 290.095 287.73 290.095C290.597 290.095 292.93 292.426 292.93 295.293C292.93 298.16 290.597 300.493 287.73 300.493C284.864 300.493 282.532 298.16 282.532 295.293Z" fill="url(#paint6_linear_2538_2624)"/>
<path d="M299.323 295.293C299.323 290.011 295.768 285.552 290.927 284.159V237.806L303.826 224.906V256.014C298.985 257.407 295.429 261.867 295.429 267.148C295.429 273.54 300.631 278.74 307.023 278.74C313.415 278.74 318.616 273.54 318.616 267.148C318.616 261.866 315.061 257.406 310.22 256.014V218.512L318.723 210.009L287.73 179.016L256.737 210.009L265.242 218.512V256.013C260.401 257.406 256.845 261.866 256.845 267.147C256.845 273.539 262.046 278.739 268.438 278.739C274.831 278.739 280.03 273.539 280.03 267.147C280.03 261.864 276.476 257.404 271.635 256.013V224.906L284.534 237.805V284.158C279.694 285.551 276.139 290.009 276.139 295.292C276.139 301.684 281.339 306.885 287.731 306.885C294.124 306.887 299.323 301.686 299.323 295.293ZM312.224 267.149C312.224 270.016 309.891 272.348 307.024 272.348C304.157 272.348 301.825 270.016 301.825 267.149C301.825 264.283 304.157 261.95 307.024 261.95C309.891 261.95 312.224 264.283 312.224 267.149ZM273.637 267.149C273.637 270.016 271.305 272.348 268.438 272.348C265.571 272.348 263.239 270.016 263.239 267.149C263.239 264.283 265.571 261.95 268.438 261.95C271.305 261.95 273.637 264.283 273.637 267.149ZM265.778 210.01L287.73 188.059L309.681 210.01L287.73 231.962L265.778 210.01ZM282.532 295.293C282.532 292.426 284.863 290.095 287.73 290.095C290.597 290.095 292.93 292.426 292.93 295.293C292.93 298.16 290.597 300.493 287.73 300.493C284.864 300.493 282.532 298.16 282.532 295.293Z" fill="url(#paint7_linear_2538_2624)"/>
<path d="M10.5898 307.629V147.049L82.2967 213.957L151.246 147.049V307.629L82.2967 377.213L10.5898 307.629Z" stroke="#015C8E" stroke-width="21"/>
<path d="M496.267 379.5L416.078 239.816L372.627 329.274L396.898 379.5H496.267Z" stroke="url(#paint8_linear_2538_2624)" stroke-width="21"/>
<path d="M397.902 23.2868L352.279 161.524V285.379L359.929 301.797L497.505 23.2868H397.902Z" stroke="url(#paint9_linear_2538_2624)" stroke-width="21"/>
<rect x="241.666" y="23.2868" width="87.6885" height="356.213" stroke="url(#paint10_linear_2538_2624)" stroke-width="21"/>
<defs>
<linearGradient id="paint0_linear_2538_2624" x1="47.5288" y1="81.7421" x2="192.801" y2="81.7421" gradientUnits="userSpaceOnUse">
<stop stop-color="#EC5200"/>
<stop offset="1" stop-color="#7F2D00"/>
</linearGradient>
<linearGradient id="paint1_linear_2538_2624" x1="120.006" y1="10.9267" x2="36.3544" y2="148.06" gradientUnits="userSpaceOnUse">
<stop stop-color="#009AEC"/>
<stop offset="1" stop-color="#005380"/>
</linearGradient>
<linearGradient id="paint2_linear_2538_2624" x1="47.5288" y1="81.7421" x2="192.801" y2="81.7421" gradientUnits="userSpaceOnUse">
<stop stop-color="#EC5200"/>
<stop offset="1" stop-color="#7F2D00"/>
</linearGradient>
<linearGradient id="paint3_linear_2538_2624" x1="120.006" y1="10.9267" x2="36.3544" y2="148.06" gradientUnits="userSpaceOnUse">
<stop stop-color="#009AEC"/>
<stop offset="1" stop-color="#005380"/>
</linearGradient>
<linearGradient id="paint4_linear_2538_2624" x1="287.726" y1="242.95" x2="287.726" y2="115.081" gradientUnits="userSpaceOnUse">
<stop stop-color="#EC5200"/>
<stop offset="1" stop-color="#7F2D00"/>
</linearGradient>
<linearGradient id="paint5_linear_2538_2624" x1="287.726" y1="242.95" x2="287.726" y2="115.081" gradientUnits="userSpaceOnUse">
<stop stop-color="#EC5200"/>
<stop offset="1" stop-color="#7F2D00"/>
</linearGradient>
<linearGradient id="paint6_linear_2538_2624" x1="287.731" y1="179.018" x2="287.731" y2="306.886" gradientUnits="userSpaceOnUse">
<stop stop-color="#EC5200"/>
<stop offset="1" stop-color="#7F2D00"/>
</linearGradient>
<linearGradient id="paint7_linear_2538_2624" x1="287.731" y1="179.018" x2="287.731" y2="306.886" gradientUnits="userSpaceOnUse">
<stop stop-color="#EC5200"/>
<stop offset="1" stop-color="#7F2D00"/>
</linearGradient>
<linearGradient id="paint8_linear_2538_2624" x1="437.681" y1="217.377" x2="437.681" y2="390" gradientUnits="userSpaceOnUse">
<stop stop-color="#009AEC"/>
<stop offset="1" stop-color="#005380"/>
</linearGradient>
<linearGradient id="paint9_linear_2538_2624" x1="428.091" y1="12.7868" x2="428.091" y2="326.065" gradientUnits="userSpaceOnUse">
<stop stop-color="#009AEC"/>
<stop offset="1" stop-color="#005380"/>
</linearGradient>
<linearGradient id="paint10_linear_2538_2624" x1="285.51" y1="12.7868" x2="285.51" y2="390" gradientUnits="userSpaceOnUse">
<stop stop-color="#009AEC"/>
<stop offset="1" stop-color="#005380"/>
</linearGradient>
</defs>
</svg>
