<svg width="108" height="108" viewBox="0 0 108 108" fill="none" xmlns="http://www.w3.org/2000/svg">
<path fill-rule="evenodd" clip-rule="evenodd" d="M43.4335 19.8666C35.6209 20.0511 28.1903 23.2842 22.73 28.875C17.2697 34.4657 14.2129 41.9706 14.2129 49.7854C14.2129 57.6002 17.2697 65.105 22.73 70.6958C28.1903 76.2865 35.6209 79.5197 43.4335 79.7042H44.7681V55.9827C44.7681 54.2144 46.1193 51.9457 47.9042 51.9457H73.2606C73.2606 50.9614 73.3606 50.2775 73.3606 49.7437C73.3211 41.8233 70.1538 34.2393 64.5485 28.6434C58.9432 23.0475 51.3539 19.8929 43.4335 19.8666ZM67.3218 47.2247H59.6148C59.4683 41.0117 58.025 34.8978 55.3777 29.2751C58.6194 31.1416 61.3848 33.7335 63.457 36.8477C65.5293 39.9619 66.8521 43.5137 67.3218 47.2247ZM40.0137 27.5569V47.2247H33.1742C33.6913 37.8496 36.644 30.4428 40.0137 27.5569ZM40.0137 52.346V71.9972C36.6774 69.1112 33.6913 61.7379 33.1742 52.346H40.0137ZM46.8533 47.2247V27.5569C50.1896 30.4428 53.1924 37.8496 53.6928 47.2247H46.8533ZM31.4727 29.2751C28.8707 34.9128 27.4352 41.0183 27.2522 47.2247H19.4951C19.9635 43.5091 21.2894 39.9532 23.3681 36.8381C25.4468 33.7229 28.2214 31.1337 31.4727 29.2751ZM19.5118 53.1968H27.2689C27.4119 59.3905 28.8436 65.4865 31.4727 71.0964C28.2324 69.2388 25.4663 66.656 23.3911 63.5506C21.316 60.4451 19.9882 56.9013 19.5118 53.1968Z" fill="#0285CC"/>
<path fill-rule="evenodd" clip-rule="evenodd" d="M90.0434 57.017H53.7271C52.621 57.017 51.5602 57.4564 50.7781 58.2385C49.996 59.0206 49.5566 60.0813 49.5566 61.1874V81.4558C49.5566 82.5619 49.996 83.6226 50.7781 84.4047C51.5602 85.1869 52.621 85.6262 53.7271 85.6262H90.0434C91.1494 85.6262 92.2102 85.1869 92.9923 84.4047C93.7744 83.6226 94.2138 82.5619 94.2138 81.4558V61.1874C94.2138 60.0813 93.7744 59.0206 92.9923 58.2385C92.2102 57.4564 91.1494 57.017 90.0434 57.017ZM58.6149 81.4558C58.6326 80.8161 58.5242 80.1791 58.2956 79.5813C58.0671 78.9835 57.723 78.4366 57.2831 77.9718C56.8431 77.507 56.3158 77.1335 55.7314 76.8726C55.1471 76.6117 54.517 76.4685 53.8772 76.4513H53.7438V66.0919C55.0346 66.1233 56.2854 65.6427 57.223 64.7551C58.1607 63.8674 58.709 62.6448 58.7483 61.3542V61.2375H85.1222C85.1221 62.5135 85.6244 63.7382 86.5204 64.6467C87.4164 65.5551 88.634 66.0743 89.9099 66.0919H90.0434V76.518C89.4014 76.5025 88.7628 76.6136 88.1638 76.845C87.5648 77.0764 87.0173 77.4235 86.5526 77.8666C86.0878 78.3097 85.7149 78.8399 85.4552 79.4272C85.1955 80.0144 85.054 80.6471 85.0388 81.289V81.4391L58.6149 81.4558Z" fill="#0285CC"/>
<path d="M71.8755 77.9692C75.745 77.9692 78.8819 74.8324 78.8819 70.9629C78.8819 67.0934 75.745 63.9565 71.8755 63.9565C68.006 63.9565 64.8691 67.0934 64.8691 70.9629C64.8691 74.8324 68.006 77.9692 71.8755 77.9692Z" fill="#0285CC"/>
</svg>
