<svg width="24" height="24" viewBox="0 0 24 24" fill="none" xmlns="http://www.w3.org/2000/svg">
<path d="M1.81027 9.72753C2.09157 9.44633 2.47303 9.28835 2.87077 9.28835C3.26852 9.28835 3.64998 9.44633 3.93127 9.72753L9.23527 15.0315L19.8403 4.42503C19.9795 4.28567 20.1449 4.1751 20.3269 4.09964C20.5089 4.02417 20.704 3.9853 20.901 3.98523C21.098 3.98516 21.2931 4.0239 21.4752 4.09923C21.6572 4.17456 21.8227 4.28502 21.962 4.42428C22.1014 4.56355 22.212 4.7289 22.2874 4.9109C22.3629 5.0929 22.4018 5.28798 22.4018 5.485C22.4019 5.68203 22.3632 5.87713 22.2878 6.05919C22.2125 6.24124 22.102 6.40667 21.9628 6.54603L9.23527 19.2735L1.81027 11.8485C1.52907 11.5672 1.37109 11.1858 1.37109 10.788C1.37109 10.3903 1.52907 10.0088 1.81027 9.72753Z" fill="#EC5200"/>
</svg>
