<svg width="60" height="60" viewBox="0 0 60 60" fill="none" xmlns="http://www.w3.org/2000/svg">
<path d="M45.3197 15.4797C45.0502 15.2444 44.7221 15.0881 44.371 15.0278C44.0199 14.9676 43.6592 15.0056 43.3279 15.1378L13.2409 27.0839C12.8476 27.2401 12.5149 27.5208 12.2926 27.884C12.0703 28.2472 11.9703 28.6734 12.0077 29.0988C12.045 29.5242 12.2176 29.9259 12.4997 30.2439C12.7818 30.5619 13.1582 30.779 13.5726 30.8627L21.7391 32.5136V42.7014C21.735 43.0933 21.8481 43.4774 22.0636 43.8033C22.2791 44.1292 22.5869 44.3817 22.9467 44.5279C23.1878 44.6299 23.4464 44.6828 23.7078 44.6835C23.9632 44.6827 24.2159 44.6306 24.4512 44.5303C24.6865 44.43 24.8998 44.2835 25.0787 44.0993L29.7405 39.3877L36.619 45.5054C36.9734 45.8235 37.4309 45.9995 37.9049 46C38.111 45.9998 38.3158 45.9669 38.5118 45.9027C38.8351 45.799 39.1259 45.6115 39.3551 45.3589C39.5843 45.1062 39.744 44.7972 39.8181 44.4628L45.95 17.4197C46.0301 17.069 46.0137 16.7028 45.9026 16.3609C45.7915 16.0189 45.5899 15.7142 45.3197 15.4797ZM13.3067 28.9823C13.2905 28.8399 13.3223 28.6961 13.3969 28.5743C13.4715 28.4524 13.5846 28.3595 13.7179 28.3106L41.2973 17.3601L22.24 31.2706L13.8284 29.5703C13.6886 29.5459 13.5611 29.4746 13.4665 29.3679C13.3718 29.2611 13.3155 29.1253 13.3067 28.9823ZM24.1564 43.1673C24.0652 43.2595 23.9491 43.3223 23.8226 43.3477C23.6961 43.3731 23.565 43.3601 23.4458 43.3102C23.3267 43.2603 23.2248 43.1759 23.1532 43.0675C23.0815 42.9591 23.0433 42.8317 23.0433 42.7014V33.4311L28.7595 38.5152L24.1564 43.1673ZM44.6788 17.1253L38.5469 44.1683C38.5217 44.2796 38.4683 44.3823 38.3919 44.4665C38.3156 44.5506 38.2189 44.6133 38.1114 44.6483C38.0039 44.6833 37.8892 44.6895 37.7786 44.6663C37.668 44.6431 37.5653 44.5912 37.4805 44.5158L23.4354 32.0241L44.5734 16.5949C44.629 16.6697 44.6674 16.7562 44.6856 16.848C44.7038 16.9398 44.7015 17.0345 44.6788 17.1253Z" fill="#EC5200"/>
<circle cx="30" cy="30" r="29" stroke="#EC5200" stroke-width="2"/>
</svg>
