<svg width="60" height="60" viewBox="0 0 60 60" fill="none" xmlns="http://www.w3.org/2000/svg">
<g clip-path="url(#clip0_1505_43)">
<path d="M39.593 23.9587L38.828 27.7587C38.578 29.01 37.3755 29.99 36.0905 29.99H33.5005V47.5C33.5005 48.88 32.4493 50 31.0618 50H27.288C25.9005 50 24.7718 48.8775 24.7718 47.4987V29.99H23.5143C22.1268 29.99 20.998 28.8687 20.998 27.4887V23.7375C20.998 22.3587 22.1268 21.2362 23.5143 21.2362H24.7718V17.5037C24.7718 13.395 28.1168 10.0512 32.243 10.0162C32.2693 10.015 32.2918 10.0012 32.3193 10.0012H37.3518C38.0455 10.0012 38.5005 10.56 38.5005 11.25V17.5C38.5005 18.1912 38.0455 18.755 37.3518 18.755H33.5768L33.5755 21.2362H37.3493C38.0568 21.2362 38.7093 21.535 39.1368 22.055C39.5655 22.5737 39.7318 23.2687 39.593 23.9587ZM32.3655 23.7375C32.348 23.7387 32.3343 23.7475 32.3168 23.7475C31.6218 23.7462 31.058 23.1862 31.0593 22.4962V22.4875L31.0618 17.5037C31.0618 16.8125 31.6243 16.2537 32.3193 16.2537H36.093V12.5025H32.368C32.3468 12.5025 32.3293 12.5137 32.3068 12.5137C29.5393 12.5137 27.288 14.7525 27.288 17.5037V22.5062C27.288 23.1975 26.7243 23.7575 26.0293 23.7575C25.9955 23.7575 25.9668 23.74 25.933 23.7375H23.5143V27.4887H26.0293C26.7243 27.4887 27.288 28.0487 27.288 28.74C27.288 28.805 27.2605 28.86 27.2505 28.9225V47.5L31.0618 47.4987V28.7525C31.0618 28.7475 31.0593 28.7437 31.0593 28.74C31.0593 28.0487 31.6218 27.4887 32.3168 27.4887H36.0905C36.1818 27.4887 36.3443 27.3575 36.3605 27.27L37.0718 23.7375H32.3655Z" fill="#EC5200"/>
</g>
<circle cx="30" cy="30" r="29" stroke="#EC5200" stroke-width="2"/>
<defs>
<clipPath id="clip0_1505_43">
<rect width="18.6325" height="40" fill="white" transform="translate(21 10)"/>
</clipPath>
</defs>
</svg>
