<svg width="50" height="50" viewBox="0 0 50 50" fill="none" xmlns="http://www.w3.org/2000/svg">
<g clip-path="url(#clip0_1504_9)">
<path d="M44.3762 4.99829C47.4828 4.99829 50.0013 7.51675 50.0013 10.6234V39.3857C50.0013 42.4923 47.4828 45.0108 44.3762 45.0108H5.62515C2.51846 45.0108 0 42.4923 0 39.3857V10.6234C0 7.51675 2.51846 4.99829 5.62515 4.99829H44.3762ZM44.3762 8.74839H5.62515C4.58959 8.74839 3.7501 9.58788 3.7501 10.6234V39.3857C3.7501 40.4212 4.58959 41.2607 5.62515 41.2607H44.3762C45.4117 41.2607 46.2512 40.4212 46.2512 39.3857V10.6234C46.2512 9.58788 45.4117 8.74839 44.3762 8.74839ZM19.3755 26.2488C20.4111 26.2488 21.2506 27.0883 21.2506 28.1239V29.3558L21.2308 29.6271C20.8238 32.4096 18.4947 33.7514 15.0003 33.7514C11.5056 33.7514 9.17644 32.4082 8.76991 29.6243L8.75023 29.3533V28.1239C8.75023 27.0883 9.58972 26.2488 10.6253 26.2488H19.3755ZM28.1315 27.4892H39.376C40.4116 27.4892 41.2511 28.3287 41.2511 29.3643C41.2511 30.3135 40.5457 31.098 39.6305 31.2222L39.376 31.2393H28.1315C27.0959 31.2393 26.2564 30.3998 26.2564 29.3643C26.2564 28.415 26.9618 27.6305 27.877 27.5063L28.1315 27.4892ZM15.0004 16.254C17.0715 16.254 18.7504 17.933 18.7504 20.0041C18.7504 22.0752 17.0715 23.7541 15.0004 23.7541C12.9293 23.7541 11.2504 22.0752 11.2504 20.0041C11.2504 17.933 12.9293 16.254 15.0004 16.254ZM28.1315 18.7486H39.376C40.4116 18.7486 41.2511 19.5881 41.2511 20.6237C41.2511 21.573 40.5457 22.3575 39.6305 22.4816L39.376 22.4987H28.1315C27.0959 22.4987 26.2564 21.6593 26.2564 20.6237C26.2564 19.6744 26.9618 18.8899 27.877 18.7658L28.1315 18.7486Z" fill="#B73F00"/>
</g>
<defs>
<clipPath id="clip0_1504_9">
<rect width="50" height="50" fill="white"/>
</clipPath>
</defs>
</svg>
