<svg width="40" height="40" viewBox="0 0 40 40" fill="none" xmlns="http://www.w3.org/2000/svg">
<path d="M3.01712 16.2131C3.48594 15.7444 4.12171 15.4811 4.78462 15.4811C5.44753 15.4811 6.0833 15.7444 6.55212 16.2131L15.3921 25.0531L33.0671 7.37558C33.2992 7.14331 33.5748 6.95903 33.8782 6.83326C34.1815 6.70749 34.5066 6.64269 34.835 6.64258C35.1634 6.64246 35.4885 6.70703 35.792 6.83258C36.0954 6.95813 36.3711 7.14222 36.6034 7.37433C36.8357 7.60645 37.0199 7.88203 37.1457 8.18537C37.2715 8.4887 37.3363 8.81383 37.3364 9.1422C37.3365 9.47057 37.2719 9.79575 37.1464 10.0992C37.0208 10.4026 36.8367 10.6783 36.6046 10.9106L15.3921 32.1231L3.01712 19.7481C2.54844 19.2793 2.28516 18.6435 2.28516 17.9806C2.28516 17.3177 2.54844 16.6819 3.01712 16.2131Z" fill="#02A6FF"/>
</svg>
