<svg width="40" height="40" viewBox="0 0 40 40" fill="none" xmlns="http://www.w3.org/2000/svg">
<path d="M22.35 0C18.1 0 14.95 1.3 12.95 3.3C10.95 5.3 10.25 7.8 10 9.7L15 10.35C15.2 9.1 15.6 7.85 16.55 6.9C17.5 5.95 19 5 22.35 5C25.65 5 27.45 5.8 28.45 6.7C29.45 7.6 29.85 8.7 29.85 10C29.85 14.15 28.15 15.3 25.65 17.5C23.15 19.7 19.85 22.9 19.85 28.75V30H24.85V28.75C24.85 24.6 26.4 23.45 28.9 21.25C31.4 19.05 34.85 15.85 34.85 10C34.85 7.6 34 4.9 31.9 2.95C29.75 1 26.55 0 22.35 0ZM19.85 35V40H24.85V35H19.85Z" fill="#02A6FF"/>
</svg>
