<svg width="42" height="42" viewBox="0 0 42 42" fill="none" xmlns="http://www.w3.org/2000/svg">
<g clip-path="url(#clip0_1821_1304)">
<path d="M40.5994 15.6432H37.1689C35.4785 10.5604 31.4572 6.54036 26.3745 4.85013V1.41824C26.3745 0.644074 25.7479 0.0175781 24.9739 0.0175781H17.0261C16.2521 0.0175781 15.6255 0.643986 15.6255 1.41824V4.85013C10.5428 6.54045 6.52154 10.5605 4.83113 15.6432H1.40057C0.62623 15.6432 0 16.2697 0 17.0438V24.955C0 25.7292 0.62623 26.3555 1.40057 26.3555H4.83113C6.52154 31.4384 10.5428 35.4585 15.6255 37.1488V40.5806C15.6255 41.3548 16.2521 41.9813 17.0261 41.9813H24.9739C25.7479 41.9813 26.3745 41.3549 26.3745 40.5806V37.1488C31.4572 35.4584 35.4785 31.4384 37.1689 26.3555H40.5994C41.3738 26.3555 42 25.7291 42 24.955V17.0438C42 16.2697 41.3738 15.6432 40.5994 15.6432ZM18.4267 2.81872H23.5733V7.92887H18.4267V2.81872ZM2.80114 23.5545V18.4445H7.9112V23.5545H2.80114ZM23.5733 39.1801H18.4267V34.0699H23.5733V39.1801ZM26.3745 34.1686V32.6694C26.3745 31.8953 25.7479 31.2688 24.9739 31.2688H17.0261C16.2521 31.2688 15.6255 31.8953 15.6255 32.6694V34.1686C12.0856 32.7242 9.25705 29.8956 7.81276 26.3555H9.31177C10.086 26.3555 10.7123 25.7291 10.7123 24.955V17.0438C10.7123 16.2696 10.086 15.6432 9.31177 15.6432H7.81276C9.25714 12.1034 12.0856 9.27481 15.6255 7.83025V9.32953C15.6255 10.1037 16.2521 10.7302 17.0261 10.7302H24.9739C25.7479 10.7302 26.3745 10.1038 26.3745 9.32953V7.83033C29.9145 9.27489 32.7429 12.1035 34.1872 15.6433H32.6882C31.9139 15.6433 31.2877 16.2697 31.2877 17.0439V24.9551C31.2877 25.7293 31.9139 26.3556 32.6882 26.3556H34.1872C32.7429 29.8957 29.9144 32.7242 26.3745 34.1686ZM39.1989 23.5545H34.0888V18.4445H39.1989V23.5545Z" fill="#02A6FF"/>
</g>
<defs>
<clipPath id="clip0_1821_1304">
<rect width="42" height="42" fill="white"/>
</clipPath>
</defs>
</svg>
