<svg width="40" height="40" viewBox="0 0 40 40" fill="none" xmlns="http://www.w3.org/2000/svg">
<path d="M23.75 10.9398C21.6172 9.70611 19.141 9 16.5 9C8.49187 9 2 15.4919 2 23.5C2 25.8195 2.54464 28.0119 3.51302 29.9561C3.77036 30.4727 3.85602 31.0634 3.70681 31.6209L2.84319 34.8486C2.46828 36.2498 3.75017 37.5316 5.15136 37.1568L8.37911 36.2932C8.93671 36.144 9.52726 36.2297 10.0439 36.4869C11.9881 37.4553 14.1805 38 16.5 38C24.5082 38 31 31.5082 31 23.5C31 20.859 30.2939 18.3828 29.0601 16.25" stroke="#02A6FF" stroke-width="2" stroke-linecap="round"/>
<path d="M30.96 25C31.077 24.949 31.193 24.8961 31.308 24.8412C31.9452 24.5369 32.6603 24.4231 33.3371 24.6124L34.175 24.8468C35.8757 25.3223 37.4315 23.696 36.9766 21.9183L36.7523 21.0424C36.5712 20.335 36.6802 19.5875 36.9713 18.9213C37.6318 17.4096 38 15.7289 38 13.9583C38 11.6143 37.3548 9.42784 36.24 7.58233M16 9.35085C17.7259 5.03371 21.804 2 26.56 2C28.8279 2 30.9419 2.6899 32.72 3.87988" stroke="#02A6FF" stroke-width="2" stroke-linecap="round"/>
<path d="M10 24H10.0167M16.4914 24H16.5081M22.9833 24H23" stroke="#02A6FF" stroke-width="4" stroke-linecap="round" stroke-linejoin="round"/>
</svg>
