<svg width="462" height="80" viewBox="0 0 462 80" fill="none" xmlns="http://www.w3.org/2000/svg">
<path d="M241.47 75.25L233.5 55L234.5 53.5L242 73.25L241.47 75.25Z" fill="#005380"/>
<path d="M198.867 74L206.367 55H207.867L200.1 75.25L198.867 74Z" fill="#005380"/>
<path d="M56.296 69.0723L56.8507 69.9043L57.5715 69.4239L57.1987 68.642L56.296 69.0723ZM44.584 74.0643L44.3524 73.0915L44.3471 73.0928L44.584 74.0643ZM35.944 75.0243L35.9321 76.0243H35.944V75.0243ZM21.352 72.1443L20.9548 73.062L20.9597 73.0641L21.352 72.1443ZM3.4 53.5203L2.46484 53.8745L2.46811 53.8831L2.47152 53.8917L3.4 53.5203ZM3.496 25.7763L2.56472 25.4119L2.56194 25.4192L3.496 25.7763ZM10.696 14.3523L11.4174 15.0449L11.4242 15.0377L10.696 14.3523ZM21.544 6.76832L21.1535 5.84772L21.1484 5.84991L21.544 6.76832ZM46.696 5.80831L46.3744 6.7552L46.3825 6.75793L46.3906 6.76053L46.696 5.80831ZM55.432 9.74432L56.3496 10.1419L56.6901 9.35613L55.966 8.89883L55.432 9.74432ZM51.688 18.3843L51.1333 19.2163L52.1295 19.8805L52.6056 18.7819L51.688 18.3843ZM44.68 14.7363L44.2861 15.6555L44.2939 15.6587L44.68 14.7363ZM12.616 29.2323L11.6913 28.8515L11.6875 28.8609L12.616 29.2323ZM12.424 50.1603L11.481 50.4931L11.485 50.5044L11.4892 50.5155L12.424 50.1603ZM17.512 58.5123L16.7757 59.1889L16.7806 59.1942L16.7856 59.1995L17.512 58.5123ZM52.36 60.8163L53.2627 60.386L52.7371 59.2835L51.76 60.0163L52.36 60.8163ZM55.7413 68.2402C54.6429 68.9725 53.1203 69.8139 51.1565 70.7641L52.0276 72.5645C54.0318 71.5947 55.6452 70.7081 56.8507 69.9043L55.7413 68.2402ZM51.1565 70.7641C49.2516 71.6859 46.9869 72.4642 44.3524 73.0915L44.8156 75.0371C47.5572 74.3844 49.9645 73.5627 52.0276 72.5645L51.1565 70.7641ZM44.3471 73.0928C41.8119 73.7111 39.0127 74.0243 35.944 74.0243V76.0243C39.1474 76.0243 42.1082 75.6975 44.821 75.0358L44.3471 73.0928ZM35.9559 74.0244C30.693 73.9617 25.9607 73.0226 21.7443 71.2245L20.9597 73.0641C25.4474 74.978 30.443 75.959 35.9321 76.0243L35.9559 74.0244ZM21.7493 71.2266C17.5783 69.4212 14.0453 66.9697 11.1367 63.8754L9.67938 65.2452C12.7867 68.5509 16.5497 71.1554 20.9548 73.062L21.7493 71.2266ZM11.1367 63.8754C8.21601 60.7683 5.94701 57.1952 4.32847 53.1489L2.47152 53.8917C4.18099 58.1654 6.584 61.9523 9.67938 65.2452L11.1367 63.8754ZM4.33517 53.1661C2.78009 49.0607 1.99999 44.7012 1.99999 40.0803H0C0 44.9314 0.819913 49.5319 2.46484 53.8745L4.33517 53.1661ZM1.99999 40.0803C1.99999 35.0047 2.81429 30.3593 4.43006 26.1334L2.56194 25.4192C0.849712 29.8973 0 34.7879 0 40.0803H1.99999ZM4.42725 26.1407C6.11082 21.8383 8.44231 18.144 11.4174 15.0449L9.97462 13.6598C6.8057 16.9607 4.33716 20.8823 2.56472 25.4119L4.42725 26.1407ZM11.4242 15.0377C14.4015 11.8744 17.9039 9.4252 21.9396 7.68673L21.1484 5.84991C16.8641 7.69544 13.1346 10.3023 9.96781 13.6669L11.4242 15.0377ZM21.9346 7.6889C26.0245 5.95377 30.4983 5.08032 35.368 5.08032V3.08032C30.2537 3.08032 25.5115 3.99885 21.1535 5.84772L21.9346 7.6889ZM35.368 5.08032C39.4359 5.08032 43.1012 5.64353 46.3744 6.7552L47.0176 4.86143C43.5069 3.66911 39.6201 3.08032 35.368 3.08032V5.08032ZM46.3906 6.76053C49.7205 7.8286 52.552 9.1081 54.898 10.5898L55.966 8.89883C53.4481 7.30855 50.4556 5.96404 47.0015 4.8561L46.3906 6.76053ZM54.5145 9.34671L50.7705 17.9867L52.6056 18.7819L56.3496 10.1419L54.5145 9.34671ZM52.2427 17.5522C50.2568 16.2283 47.861 14.9838 45.0662 13.8139L44.2939 15.6587C47.0031 16.7928 49.2793 17.9803 51.1333 19.2163L52.2427 17.5522ZM45.0739 13.8172C42.2454 12.6049 39.1008 12.0083 35.656 12.0083V14.0083C38.8672 14.0083 41.7386 14.5638 44.2861 15.6555L45.0739 13.8172ZM35.656 12.0083C32.1277 12.0083 28.7883 12.7082 25.6481 14.1113L26.464 15.9373C29.3398 14.6524 32.4003 14.0083 35.656 14.0083V12.0083ZM25.6481 14.1113C22.5183 15.5097 19.7547 17.475 17.3621 20.0006L18.814 21.376C21.0293 19.0376 23.5778 17.2269 26.464 15.9373L25.6481 14.1113ZM17.3621 20.0006C14.9691 22.5265 13.0796 25.48 11.6913 28.8515L13.5407 29.613C14.8404 26.4565 16.599 23.7141 18.814 21.376L17.3621 20.0006ZM11.6875 28.8609C10.3567 32.1879 9.69601 35.771 9.69601 39.6003H11.696C11.696 36.0056 12.3153 32.6767 13.5445 29.6037L11.6875 28.8609ZM9.69601 39.6003C9.69601 43.4794 10.288 47.1129 11.481 50.4931L13.367 49.8275C12.256 46.6797 11.696 43.2732 11.696 39.6003H9.69601ZM11.4892 50.5155C12.7474 53.8265 14.5083 56.7215 16.7757 59.1889L18.2484 57.8357C16.1638 55.5671 14.5326 52.8941 13.3588 49.8051L11.4892 50.5155ZM16.7856 59.1995C19.1238 61.6713 21.9266 63.6042 25.1821 64.9994L25.9699 63.1612C22.9535 61.8684 20.3803 60.0893 18.2385 57.8251L16.7856 59.1995ZM25.1821 64.9994C28.4593 66.4039 32.116 67.0963 36.136 67.0963V65.0963C32.348 65.0963 28.9648 64.4447 25.9699 63.1612L25.1821 64.9994ZM36.136 67.0963C39.7586 67.0963 43.0227 66.5364 45.9117 65.3943L45.1764 63.5343C42.5613 64.5682 39.5535 65.0963 36.136 65.0963V67.0963ZM45.9117 65.3943C48.7217 64.2833 51.0781 63.0277 52.96 61.6163L51.76 60.0163C50.0579 61.2929 47.8703 62.4693 45.1764 63.5343L45.9117 65.3943ZM51.4574 61.2466L55.3934 69.5026L57.1987 68.642L53.2627 60.386L51.4574 61.2466ZM100.104 6.28832L99.7943 7.23905L99.8065 7.24304L99.8188 7.24671L100.104 6.28832ZM107.88 10.4163L107.231 11.1772L107.243 11.1874L107.256 11.1972L107.88 10.4163ZM113.064 17.1363L112.153 17.5485L112.159 17.5617L112.166 17.5747L113.064 17.1363ZM113.736 34.4163L112.783 34.1141L112.78 34.1247L112.777 34.1354L113.736 34.4163ZM109.8 41.6163L110.552 42.2764L110.556 42.2709L110.561 42.2652L109.8 41.6163ZM81.2883 48.7203V47.7203H80.2883V48.7203H81.2883ZM81.2883 74.2563V75.2563H82.2883V74.2563H81.2883ZM71.9763 74.2563H70.9763V75.2563H71.9763V74.2563ZM71.9763 4.84832V3.84832H70.9763V4.84832H71.9763ZM98.1843 38.5443L97.7752 37.6317L97.7632 37.6373L98.1843 38.5443ZM102.504 35.3763L103.285 36.001L103.293 35.9918L103.3 35.9823L102.504 35.3763ZM104.616 22.4163L103.656 22.6963L103.664 22.7208L103.672 22.7448L104.616 22.4163ZM102.312 18.1923L101.532 18.817L101.541 18.8286L101.55 18.8399L102.312 18.1923ZM98.1843 15.0243L97.7371 15.9187L97.7437 15.9221L97.7505 15.9253L98.1843 15.0243ZM81.2883 13.7763V12.7763H80.2883V13.7763H81.2883ZM81.2883 39.7923H80.2883V40.7923H81.2883V39.7923ZM103.3 45.541L103.883 45.0039L103.642 45.1337L103.3 45.3119V45.541ZM120.936 74.2563V75.2563H122.736L121.786 73.7283L120.936 74.2563ZM110.184 74.2563L109.341 74.7941L109.636 75.2563H110.184V74.2563ZM90.4083 5.84832C93.8372 5.84832 96.963 6.31581 99.7943 7.23905L100.414 5.33759C97.3576 4.34083 94.0194 3.84832 90.4083 3.84832V5.84832ZM99.8188 7.24671C102.706 8.10682 105.171 9.4201 107.231 11.1772L108.529 9.65549C106.237 7.70055 103.518 6.26182 100.39 5.32993L99.8188 7.24671ZM107.256 11.1972C109.369 12.8877 111 15 112.153 17.5485L113.975 16.7241C112.696 13.8966 110.872 11.5289 108.505 9.63546L107.256 11.1972ZM112.166 17.5747C113.367 20.0369 113.984 22.9534 113.984 26.3523H115.984C115.984 22.7112 115.322 19.4837 113.963 16.6979L112.166 17.5747ZM113.984 26.3523C113.984 29.0017 113.584 31.5878 112.783 34.1141L114.69 34.7185C115.553 31.9968 115.984 29.2069 115.984 26.3523H113.984ZM112.777 34.1354C112.05 36.6178 110.808 38.8936 109.04 40.9674L110.561 42.2652C112.504 39.987 113.887 37.4628 114.696 34.6972L112.777 34.1354ZM109.049 40.9562C107.303 42.9432 105.024 44.8456 102.124 46.1409L102.504 46.8003C105.621 45.4076 108.586 44.5134 110.552 42.2764L109.049 40.9562ZM92.4592 47.7108L81.2883 47.7203V49.7203L92.9647 48.5218L92.4592 47.7108ZM80.2883 48.7203V74.2563H82.2883V48.7203H80.2883ZM81.2883 73.2563H71.9763V75.2563H81.2883V73.2563ZM72.9763 74.2563V4.84832H70.9763V74.2563H72.9763ZM71.9763 5.84832H90.4083V3.84832H71.9763V5.84832ZM91.3683 40.7923C94.2122 40.7923 96.6403 40.3637 98.6054 39.4513L97.7632 37.6373C96.1443 38.3889 94.0283 38.7923 91.3683 38.7923V40.7923ZM98.5933 39.4568C100.56 38.5751 102.141 37.4315 103.285 36.001L101.724 34.7516C100.82 35.8811 99.5204 36.8493 97.7752 37.6317L98.5933 39.4568ZM103.3 35.9823C104.394 34.5462 105.188 32.9967 105.672 31.3363L103.752 30.7763C103.341 32.1879 102.663 33.5184 101.709 34.7703L103.3 35.9823ZM105.672 31.3363C106.142 29.7261 106.384 28.1911 106.384 26.7363H104.384C104.384 27.9695 104.179 29.3145 103.752 30.7763L105.672 31.3363ZM106.384 26.7363C106.384 25.2052 106.106 23.6542 105.561 22.0878L103.672 22.7448C104.151 24.1224 104.384 25.4514 104.384 26.7363H106.384ZM105.576 22.1363C105.087 20.4584 104.249 18.9264 103.074 17.5446L101.55 18.8399C102.552 20.0182 103.25 21.3021 103.656 22.6963L105.576 22.1363ZM103.093 17.5676C101.961 16.1524 100.458 15.0093 98.6181 14.1233L97.7505 15.9253C99.3664 16.7033 100.616 17.6722 101.532 18.817L103.093 17.5676ZM98.6315 14.1299C96.7927 13.2105 94.5816 12.7763 92.0403 12.7763V14.7763C94.3629 14.7763 96.2479 15.1741 97.7371 15.9187L98.6315 14.1299ZM92.0403 12.7763H81.2883V14.7763H92.0403V12.7763ZM80.2883 13.7763V39.7923H82.2883V13.7763H80.2883ZM81.2883 40.7923H91.3683V38.7923H81.2883V40.7923ZM102.504 46.8003L120.087 74.7843L121.786 73.7283L103.883 45.0039L102.504 46.8003ZM120.936 73.2563H110.184V75.2563H120.936V73.2563ZM111.027 73.7185L93.8828 47.6541L92.4592 47.7108L109.341 74.7941L111.027 73.7185ZM135.258 4.84832V3.84832H134.258V4.84832H135.258ZM180.378 4.84832H181.378V3.84832H180.378V4.84832ZM180.378 13.7763V14.7763H181.378V13.7763H180.378ZM144.57 13.7763V12.7763H143.57V13.7763H144.57ZM144.57 34.8963H143.57V35.8963H144.57V34.8963ZM176.538 34.8963H177.538V33.8963H176.538V34.8963ZM176.538 43.8243V44.8243H177.538V43.8243H176.538ZM144.57 43.8243V42.8243H143.57V43.8243H144.57ZM144.57 65.3283H143.57V66.3283H144.57V65.3283ZM181.722 65.3283H182.722V64.3283H181.722V65.3283ZM181.722 74.2563V75.2563H182.722V74.2563H181.722ZM135.258 74.2563H134.258V75.2563H135.258V74.2563ZM135.258 5.84832H180.378V3.84832H135.258V5.84832ZM179.378 4.84832V13.7763H181.378V4.84832H179.378ZM180.378 12.7763H144.57V14.7763H180.378V12.7763ZM143.57 13.7763V34.8963H145.57V13.7763H143.57ZM144.57 35.8963H176.538V33.8963H144.57V35.8963ZM175.538 34.8963V43.8243H177.538V34.8963H175.538ZM176.538 42.8243H144.57V44.8243H176.538V42.8243ZM143.57 43.8243V65.3283H145.57V43.8243H143.57ZM144.57 66.3283H181.722V64.3283H144.57V66.3283ZM180.722 65.3283V74.2563H182.722V65.3283H180.722ZM181.722 73.2563H135.258V75.2563H181.722V73.2563ZM136.258 74.2563V4.84832H134.258V74.2563H136.258ZM190.971 74.2563L190.049 73.8693L189.466 75.2563H190.971V74.2563ZM221.307 1.96832V0.968323H220.642L220.385 1.58136L221.307 1.96832ZM221.883 1.96832L222.805 1.5824L222.548 0.968323H221.883V1.96832ZM252.123 74.2563V75.2563H253.625L253.045 73.8704L252.123 74.2563ZM191.893 74.6433L222.229 2.35528L220.385 1.58136L190.049 73.8693L191.893 74.6433ZM221.307 2.96832H221.883V0.968323H221.307V2.96832ZM220.96 2.35424L251.2 74.6422L253.045 73.8704L222.805 1.5824L220.96 2.35424ZM252.123 73.2563H241.467V75.2563H252.123V73.2563ZM232.64 48.9523L222 21.7563H220.5L231 48.9523H232.64ZM220.5 21.7563L209.368 48.9523L210.5 48.9683L222 21.7563H220.5ZM200.091 73.2563H190.971V75.2563H200.091V73.2563ZM209.368 48.9523H232.64L232 47.3164L210.18 46.9683L209.368 48.9523ZM233.5 55L206.358 55.0163L207 53.5H217H234.5L233.5 55ZM254.67 4.84832V3.84832H253.67V4.84832H254.67ZM300.75 4.84832H301.75V3.84832H300.75V4.84832ZM300.75 13.7763V14.7763H301.75V13.7763H300.75ZM282.126 13.7763V12.7763H281.126V13.7763H282.126ZM282.126 74.2563V75.2563H283.126V74.2563H282.126ZM272.814 74.2563H271.814V75.2563H272.814V74.2563ZM272.814 13.7763H273.814V12.7763H272.814V13.7763ZM254.67 13.7763H253.67V14.7763H254.67V13.7763ZM254.67 5.84832H300.75V3.84832H254.67V5.84832ZM299.75 4.84832V13.7763H301.75V4.84832H299.75ZM300.75 12.7763H282.126V14.7763H300.75V12.7763ZM281.126 13.7763V74.2563H283.126V13.7763H281.126ZM282.126 73.2563H272.814V75.2563H282.126V73.2563ZM273.814 74.2563V13.7763H271.814V74.2563H273.814ZM272.814 12.7763H254.67V14.7763H272.814V12.7763ZM255.67 13.7763V4.84832H253.67V13.7763H255.67ZM315.539 4.84832V3.84832H314.539V4.84832H315.539ZM324.851 4.84832H325.851V3.84832H324.851V4.84832ZM324.851 74.2563V75.2563H325.851V74.2563H324.851ZM315.539 74.2563H314.539V75.2563H315.539V74.2563ZM315.539 5.84832H324.851V3.84832H315.539V5.84832ZM323.851 4.84832V74.2563H325.851V4.84832H323.851ZM324.851 73.2563H315.539V75.2563H324.851V73.2563ZM316.539 74.2563V4.84832H314.539V74.2563H316.539ZM349.781 4.84832L350.71 4.47853L350.459 3.84832H349.781V4.84832ZM370.339 56.2563L369.762 57.7563L369.883 55.7563L370.339 56.2563ZM389.045 4.84832V3.84832H388.358L388.112 4.48902L389.045 4.84832ZM399.893 4.84832L400.814 5.23708L401.4 3.84832H399.893V4.84832ZM369.269 77.4243L368.347 77.812L369.267 80L370.19 77.8131L369.269 77.4243ZM338.741 4.84832V3.84832H337.235L337.819 5.23604L338.741 4.84832ZM348.852 5.2181L369.762 57.7563L369.883 55.7563L350.71 4.47853L348.852 5.2181ZM370.339 56.2563L369.696 55.2563L369.762 57.7563L370.339 56.2563ZM369.762 57.7563L389.978 5.20761L388.112 4.48902L369.696 55.2563L369.762 57.7563ZM389.045 5.84832H399.893V3.84832H389.045V5.84832ZM398.972 4.45955L368.348 77.0355L370.19 77.8131L400.814 5.23708L398.972 4.45955ZM370.191 77.0366L339.663 4.46059L337.819 5.23604L368.347 77.812L370.191 77.0366ZM338.741 5.84832H349.781V3.84832H338.741V5.84832ZM413.789 4.84832V3.84832H412.789V4.84832H413.789ZM458.909 4.84832H459.909V3.84832H458.909V4.84832ZM458.909 13.7763V14.7763H459.909V13.7763H458.909ZM423.101 13.7763V12.7763H422.101V13.7763H423.101ZM423.101 34.8963H422.101V35.8963H423.101V34.8963ZM455.069 34.8963H456.069V33.8963H455.069V34.8963ZM455.069 43.8243V44.8243H456.069V43.8243H455.069ZM423.101 43.8243V42.8243H422.101V43.8243H423.101ZM423.101 65.3283H422.101V66.3283H423.101V65.3283ZM460.253 65.3283H461.253V64.3283H460.253V65.3283ZM460.253 74.2563V75.2563H461.253V74.2563H460.253ZM413.789 74.2563H412.789V75.2563H413.789V74.2563ZM413.789 5.84832H458.909V3.84832H413.789V5.84832ZM457.909 4.84832V13.7763H459.909V4.84832H457.909ZM458.909 12.7763H423.101V14.7763H458.909V12.7763ZM422.101 13.7763V34.8963H424.101V13.7763H422.101ZM423.101 35.8963H455.069V33.8963H423.101V35.8963ZM454.069 34.8963V43.8243H456.069V34.8963H454.069ZM455.069 42.8243H423.101V44.8243H455.069V42.8243ZM422.101 43.8243V65.3283H424.101V43.8243H422.101ZM423.101 66.3283H460.253V64.3283H423.101V66.3283ZM459.253 65.3283V74.2563H461.253V65.3283H459.253ZM460.253 73.2563H413.789V75.2563H460.253V73.2563ZM414.789 74.2563V4.84832H412.789V74.2563H414.789Z" fill="#005380"/>
</svg>
