<svg width="40" height="40" viewBox="0 0 40 40" fill="none" xmlns="http://www.w3.org/2000/svg">
<path d="M19.0935 10.0323H20.9058V22.7184H19.0935V10.0323ZM21.812 27.2491C21.812 26.8907 21.7057 26.5403 21.5065 26.2422C21.3074 25.9442 21.0244 25.7119 20.6932 25.5748C20.3621 25.4376 19.9977 25.4017 19.6461 25.4716C19.2946 25.5416 18.9716 25.7142 18.7182 25.9676C18.4647 26.2211 18.2921 26.544 18.2222 26.8955C18.1523 27.2471 18.1882 27.6115 18.3253 27.9426C18.4625 28.2738 18.6948 28.5568 18.9928 28.756C19.2909 28.9551 19.6412 29.0614 19.9997 29.0614C20.48 29.0604 20.9404 28.8692 21.2801 28.5295C21.6198 28.1899 21.811 27.7295 21.812 27.2491ZM38.6663 19.9999C38.6663 23.6918 37.5716 27.3008 35.5204 30.3706C33.4693 33.4403 30.554 35.8328 27.1431 37.2457C23.7322 38.6585 19.979 39.0282 16.358 38.3079C12.737 37.5876 9.41094 35.8098 6.80036 33.1992C4.18978 30.5887 2.41195 27.2626 1.69169 23.6416C0.971434 20.0206 1.3411 16.2674 2.75393 12.8565C4.16677 9.44561 6.55932 6.53027 9.62904 4.47915C12.6988 2.42803 16.3078 1.33325 19.9997 1.33325C22.4512 1.33254 24.8789 1.81488 27.1439 2.75271C29.409 3.69055 31.4671 5.0655 33.2006 6.799C34.9341 8.5325 36.309 10.5906 37.2469 12.8556C38.1847 15.1207 38.6671 17.5484 38.6663 19.9999ZM36.854 19.9999C36.854 16.6664 35.8656 13.4078 34.0136 10.6361C32.1616 7.86444 29.5293 5.70418 26.4496 4.42851C23.3698 3.15285 19.981 2.81907 16.7116 3.4694C13.4421 4.11973 10.439 5.72495 8.08184 8.08208C5.72472 10.4392 4.1195 13.4424 3.46917 16.7118C2.81884 19.9812 3.15261 23.3701 4.42828 26.4498C5.70394 29.5295 7.86421 32.1618 10.6359 34.0138C13.4076 35.8658 16.6662 36.8543 19.9997 36.8543C24.4683 36.8495 28.7525 35.0722 31.9122 31.9125C35.072 28.7527 36.8492 24.4685 36.854 19.9999Z" fill="#0285CC"/>
</svg>
