<svg width="85" height="65" viewBox="0 0 85 65" fill="none" xmlns="http://www.w3.org/2000/svg">
<path d="M29.3132 11.2527C28.3283 11.2527 27.4971 11.9157 27.2374 12.8182H18.5955L16.1903 10.4133H21.9901C22.2498 11.3158 23.0813 11.9787 24.0659 11.9787C25.2577 11.9787 26.2271 11.009 26.2271 9.81726C26.2271 8.62549 25.2577 7.6558 24.0659 7.6558C23.081 7.6558 22.2495 8.31873 21.9901 9.22125H14.9983L13.413 7.63599L7.63477 13.4142L13.413 19.1924L14.9983 17.6069H21.9899C22.2495 18.5094 23.081 19.1724 24.0656 19.1724C25.2574 19.1724 26.2268 18.2027 26.2268 17.0109C26.2268 15.8191 25.2574 14.8497 24.0656 14.8497C23.0808 14.8497 22.2493 15.5124 21.9899 16.4149H16.1903L18.5952 14.01H27.2372C27.4968 14.9125 28.3281 15.5752 29.3129 15.5752C30.5047 15.5752 31.4744 14.6057 31.4744 13.414C31.4747 12.2222 30.505 11.2527 29.3132 11.2527ZM24.0661 8.84758C24.6007 8.84758 25.0353 9.2825 25.0353 9.81701C25.0353 10.3515 24.6007 10.7864 24.0661 10.7864C23.5316 10.7864 23.0967 10.3515 23.0967 9.81701C23.0967 9.2825 23.5316 8.84758 24.0661 8.84758ZM24.0661 16.0417C24.6007 16.0417 25.0353 16.4764 25.0353 17.0109C25.0353 17.5454 24.6007 17.9803 24.0661 17.9803C23.5316 17.9803 23.0967 17.5454 23.0967 17.0109C23.0967 16.4764 23.5316 16.0417 24.0661 16.0417ZM13.4132 17.5068L9.32065 13.4142L13.4132 9.32161L17.5058 13.4142L13.4132 17.5068ZM29.3132 14.3834C28.7787 14.3834 28.344 13.9487 28.344 13.4142C28.344 12.8797 28.7787 12.4448 29.3132 12.4448C29.8477 12.4448 30.2826 12.8797 30.2826 13.4142C30.2826 13.9485 29.8477 14.3834 29.3132 14.3834Z" fill="url(#paint0_linear_1297_3417)"/>
<path d="M21.8347 18.4076H17.9016L13.4142 22.8949L3.9333 13.414L13.4142 3.9333L17.9016 8.42067H21.8349L13.4142 0L0 13.414L13.4142 26.828L21.8347 18.4076Z" fill="url(#paint1_linear_1297_3417)"/>
<path d="M29.3132 11.2527C28.3283 11.2527 27.4971 11.9157 27.2374 12.8182H18.5955L16.1903 10.4133H21.9901C22.2498 11.3158 23.0813 11.9787 24.0659 11.9787C25.2577 11.9787 26.2271 11.009 26.2271 9.81726C26.2271 8.62549 25.2577 7.6558 24.0659 7.6558C23.081 7.6558 22.2495 8.31873 21.9901 9.22125H14.9983L13.413 7.63599L7.63477 13.4142L13.413 19.1924L14.9983 17.6069H21.9899C22.2495 18.5094 23.081 19.1724 24.0656 19.1724C25.2574 19.1724 26.2268 18.2027 26.2268 17.0109C26.2268 15.8191 25.2574 14.8497 24.0656 14.8497C23.0808 14.8497 22.2493 15.5124 21.9899 16.4149H16.1903L18.5952 14.01H27.2372C27.4968 14.9125 28.3281 15.5752 29.3129 15.5752C30.5047 15.5752 31.4744 14.6057 31.4744 13.414C31.4747 12.2222 30.505 11.2527 29.3132 11.2527ZM24.0661 8.84758C24.6007 8.84758 25.0353 9.2825 25.0353 9.81701C25.0353 10.3515 24.6007 10.7864 24.0661 10.7864C23.5316 10.7864 23.0967 10.3515 23.0967 9.81701C23.0967 9.2825 23.5316 8.84758 24.0661 8.84758ZM24.0661 16.0417C24.6007 16.0417 25.0353 16.4764 25.0353 17.0109C25.0353 17.5454 24.6007 17.9803 24.0661 17.9803C23.5316 17.9803 23.0967 17.5454 23.0967 17.0109C23.0967 16.4764 23.5316 16.0417 24.0661 16.0417ZM13.4132 17.5068L9.32065 13.4142L13.4132 9.32161L17.5058 13.4142L13.4132 17.5068ZM29.3132 14.3834C28.7787 14.3834 28.344 13.9487 28.344 13.4142C28.344 12.8797 28.7787 12.4448 29.3132 12.4448C29.8477 12.4448 30.2826 12.8797 30.2826 13.4142C30.2826 13.9485 29.8477 14.3834 29.3132 14.3834Z" fill="url(#paint2_linear_1297_3417)"/>
<path d="M21.8347 18.4076H17.9016L13.4142 22.8949L3.9333 13.414L13.4142 3.9333L17.9016 8.42067H21.8349L13.4142 0L0 13.414L13.4142 26.828L21.8347 18.4076Z" fill="url(#paint3_linear_1297_3417)"/>
<path d="M45.1522 20.7875C45.1522 21.6544 45.7357 22.386 46.5301 22.6146V30.2213L44.4133 32.3383V27.2333C45.2077 27.0047 45.7912 26.2728 45.7912 25.4062C45.7912 24.3572 44.9377 23.5039 43.8887 23.5039C42.8397 23.5039 41.9862 24.3572 41.9862 25.4062C41.9862 26.2731 42.5697 27.005 43.3641 27.2333V33.3875L41.9688 34.7829L47.0547 39.8688L52.1407 34.7829L50.7451 33.3875V27.2335C51.5395 27.0049 52.123 26.2731 52.123 25.4064C52.123 24.3574 51.2695 23.5041 50.2205 23.5041C49.1715 23.5041 48.3182 24.3574 48.3182 25.4064C48.3182 26.2733 48.9015 27.0052 49.6959 27.2335V32.3383L47.5791 30.2215V22.6148C48.3735 22.3863 48.9568 21.6546 48.9568 20.7877C48.9568 19.7387 48.1035 18.8852 47.0545 18.8852C46.0055 18.885 45.1522 19.7385 45.1522 20.7875ZM43.0352 25.406C43.0352 24.9355 43.418 24.5529 43.8885 24.5529C44.359 24.5529 44.7418 24.9355 44.7418 25.406C44.7418 25.8764 44.359 26.2593 43.8885 26.2593C43.418 26.2593 43.0352 25.8764 43.0352 25.406ZM49.3675 25.406C49.3675 24.9355 49.7501 24.5529 50.2205 24.5529C50.691 24.5529 51.0738 24.9355 51.0738 25.406C51.0738 25.8764 50.691 26.2593 50.2205 26.2593C49.7501 26.2593 49.3675 25.8764 49.3675 25.406ZM50.657 34.7826L47.0547 38.3849L43.4524 34.7826L47.0547 31.1803L50.657 34.7826ZM47.9078 20.7875C47.9078 21.258 47.5252 21.6406 47.0547 21.6406C46.5843 21.6406 46.2014 21.258 46.2014 20.7875C46.2014 20.317 46.5843 19.9342 47.0547 19.9342C47.525 19.9342 47.9078 20.317 47.9078 20.7875Z" fill="url(#paint4_linear_1297_3417)"/>
<path d="M45.1522 20.7875C45.1522 21.6544 45.7357 22.386 46.5301 22.6146V30.2213L44.4133 32.3383V27.2333C45.2077 27.0047 45.7912 26.2728 45.7912 25.4062C45.7912 24.3572 44.9377 23.5039 43.8887 23.5039C42.8397 23.5039 41.9862 24.3572 41.9862 25.4062C41.9862 26.2731 42.5697 27.005 43.3641 27.2333V33.3875L41.9688 34.7829L47.0547 39.8688L52.1407 34.7829L50.7451 33.3875V27.2335C51.5395 27.0049 52.123 26.2731 52.123 25.4064C52.123 24.3574 51.2695 23.5041 50.2205 23.5041C49.1715 23.5041 48.3182 24.3574 48.3182 25.4064C48.3182 26.2733 48.9015 27.0052 49.6959 27.2335V32.3383L47.5791 30.2215V22.6148C48.3735 22.3863 48.9568 21.6546 48.9568 20.7877C48.9568 19.7387 48.1035 18.8852 47.0545 18.8852C46.0055 18.885 45.1522 19.7385 45.1522 20.7875ZM43.0352 25.406C43.0352 24.9355 43.418 24.5529 43.8885 24.5529C44.359 24.5529 44.7418 24.9355 44.7418 25.406C44.7418 25.8764 44.359 26.2593 43.8885 26.2593C43.418 26.2593 43.0352 25.8764 43.0352 25.406ZM49.3675 25.406C49.3675 24.9355 49.7501 24.5529 50.2205 24.5529C50.691 24.5529 51.0738 24.9355 51.0738 25.406C51.0738 25.8764 50.691 26.2593 50.2205 26.2593C49.7501 26.2593 49.3675 25.8764 49.3675 25.406ZM50.657 34.7826L47.0547 38.3849L43.4524 34.7826L47.0547 31.1803L50.657 34.7826ZM47.9078 20.7875C47.9078 21.258 47.5252 21.6406 47.0547 21.6406C46.5843 21.6406 46.2014 21.258 46.2014 20.7875C46.2014 20.317 46.5843 19.9342 47.0547 19.9342C47.525 19.9342 47.9078 20.317 47.9078 20.7875Z" fill="url(#paint5_linear_1297_3417)"/>
<path d="M48.9552 48.4585C48.9552 47.5916 48.3717 46.8599 47.5773 46.6314V39.0247L49.6941 36.9077V42.0127C48.8997 42.2412 48.3162 42.9731 48.3162 43.8398C48.3162 44.8888 49.1697 45.7421 50.2187 45.7421C51.2677 45.7421 52.1212 44.8888 52.1212 43.8398C52.1212 42.9729 51.5377 42.241 50.7433 42.0127V35.8585L52.1387 34.4631L47.0527 29.3771L41.9667 34.4631L43.3623 35.8585V42.0125C42.5679 42.241 41.9844 42.9729 41.9844 43.8396C41.9844 44.8885 42.8379 45.7418 43.8869 45.7418C44.9359 45.7418 45.7892 44.8885 45.7892 43.8396C45.7892 42.9727 45.2059 42.2408 44.4115 42.0125V36.9077L46.5283 39.0245V46.6311C45.7339 46.8597 45.1506 47.5913 45.1506 48.4582C45.1506 49.5072 46.0039 50.3607 47.0529 50.3607C48.1019 50.361 48.9552 49.5075 48.9552 48.4585ZM51.0722 43.84C51.0722 44.3105 50.6894 44.6931 50.2189 44.6931C49.7485 44.6931 49.3657 44.3105 49.3657 43.84C49.3657 43.3695 49.7485 42.9867 50.2189 42.9867C50.6894 42.9867 51.0722 43.3695 51.0722 43.84ZM44.74 43.84C44.74 44.3105 44.3574 44.6931 43.8869 44.6931C43.4164 44.6931 43.0336 44.3105 43.0336 43.84C43.0336 43.3695 43.4164 42.9867 43.8869 42.9867C44.3574 42.9867 44.74 43.3695 44.74 43.84ZM43.4504 34.4633L47.0527 30.861L50.655 34.4633L47.0527 38.0656L43.4504 34.4633ZM46.1996 48.4585C46.1996 47.988 46.5822 47.6054 47.0527 47.6054C47.5232 47.6054 47.906 47.988 47.906 48.4585C47.906 48.9289 47.5232 49.3117 47.0527 49.3117C46.5824 49.3117 46.1996 48.9289 46.1996 48.4585Z" fill="url(#paint6_linear_1297_3417)"/>
<path d="M48.9552 48.4585C48.9552 47.5916 48.3717 46.8599 47.5773 46.6314V39.0247L49.6941 36.9077V42.0127C48.8997 42.2412 48.3162 42.9731 48.3162 43.8398C48.3162 44.8888 49.1697 45.7421 50.2187 45.7421C51.2677 45.7421 52.1212 44.8888 52.1212 43.8398C52.1212 42.9729 51.5377 42.241 50.7433 42.0127V35.8585L52.1387 34.4631L47.0527 29.3771L41.9667 34.4631L43.3623 35.8585V42.0125C42.5679 42.241 41.9844 42.9729 41.9844 43.8396C41.9844 44.8885 42.8379 45.7418 43.8869 45.7418C44.9359 45.7418 45.7892 44.8885 45.7892 43.8396C45.7892 42.9727 45.2059 42.2408 44.4115 42.0125V36.9077L46.5283 39.0245V46.6311C45.7339 46.8597 45.1506 47.5913 45.1506 48.4582C45.1506 49.5072 46.0039 50.3607 47.0529 50.3607C48.1019 50.361 48.9552 49.5075 48.9552 48.4585ZM51.0722 43.84C51.0722 44.3105 50.6894 44.6931 50.2189 44.6931C49.7485 44.6931 49.3657 44.3105 49.3657 43.84C49.3657 43.3695 49.7485 42.9867 50.2189 42.9867C50.6894 42.9867 51.0722 43.3695 51.0722 43.84ZM44.74 43.84C44.74 44.3105 44.3574 44.6931 43.8869 44.6931C43.4164 44.6931 43.0336 44.3105 43.0336 43.84C43.0336 43.3695 43.4164 42.9867 43.8869 42.9867C44.3574 42.9867 44.74 43.3695 44.74 43.84ZM43.4504 34.4633L47.0527 30.861L50.655 34.4633L47.0527 38.0656L43.4504 34.4633ZM46.1996 48.4585C46.1996 47.988 46.5822 47.6054 47.0527 47.6054C47.5232 47.6054 47.906 47.988 47.906 48.4585C47.906 48.9289 47.5232 49.3117 47.0527 49.3117C46.5824 49.3117 46.1996 48.9289 46.1996 48.4585Z" fill="url(#paint7_linear_1297_3417)"/>
<path d="M1.57422 50.4826V24.1311L13.3415 35.1109L24.6562 24.1311V50.4826L13.3415 61.9016L1.57422 50.4826Z" stroke="#015C8E" stroke-width="3"/>
<path d="M81.6573 62.4999L68.0964 38.8776L60.7345 54.0344L64.8253 62.4999H81.6573Z" stroke="url(#paint8_linear_1297_3417)" stroke-width="3"/>
<path d="M64.9687 3.59833L57.4202 26.4706V46.8808L58.8928 50.0413L81.8341 3.59833H64.9687Z" stroke="url(#paint9_linear_1297_3417)" stroke-width="3"/>
<rect x="39.2676" y="3.59833" width="14.8361" height="58.9016" stroke="url(#paint10_linear_1297_3417)" stroke-width="3"/>
<defs>
<linearGradient id="paint0_linear_1297_3417" x1="7.635" y1="13.4141" x2="31.4746" y2="13.4141" gradientUnits="userSpaceOnUse">
<stop stop-color="#EC5200"/>
<stop offset="1" stop-color="#7F2D00"/>
</linearGradient>
<linearGradient id="paint1_linear_1297_3417" x1="19.5292" y1="1.7931" x2="5.80175" y2="24.2971" gradientUnits="userSpaceOnUse">
<stop stop-color="#009AEC"/>
<stop offset="1" stop-color="#005380"/>
</linearGradient>
<linearGradient id="paint2_linear_1297_3417" x1="7.635" y1="13.4141" x2="31.4746" y2="13.4141" gradientUnits="userSpaceOnUse">
<stop stop-color="#009AEC"/>
<stop offset="1" stop-color="#005380"/>
</linearGradient>
<linearGradient id="paint3_linear_1297_3417" x1="19.5292" y1="1.7931" x2="5.80175" y2="24.2971" gradientUnits="userSpaceOnUse">
<stop stop-color="#009AEC"/>
<stop offset="1" stop-color="#005380"/>
</linearGradient>
<linearGradient id="paint4_linear_1297_3417" x1="47.0546" y1="39.8686" x2="47.0546" y2="18.885" gradientUnits="userSpaceOnUse">
<stop stop-color="#009AEC"/>
<stop offset="1" stop-color="#005380"/>
</linearGradient>
<linearGradient id="paint5_linear_1297_3417" x1="47.0546" y1="39.8686" x2="47.0546" y2="18.885" gradientUnits="userSpaceOnUse">
<stop stop-color="#009AEC"/>
<stop offset="1" stop-color="#005380"/>
</linearGradient>
<linearGradient id="paint6_linear_1297_3417" x1="47.0528" y1="29.3773" x2="47.0528" y2="50.3609" gradientUnits="userSpaceOnUse">
<stop stop-color="#009AEC"/>
<stop offset="1" stop-color="#005380"/>
</linearGradient>
<linearGradient id="paint7_linear_1297_3417" x1="47.0528" y1="29.3773" x2="47.0528" y2="50.3609" gradientUnits="userSpaceOnUse">
<stop stop-color="#009AEC"/>
<stop offset="1" stop-color="#005380"/>
</linearGradient>
<linearGradient id="paint8_linear_1297_3417" x1="71.6579" y1="2.10623" x2="71.6579" y2="63.9999" gradientUnits="userSpaceOnUse">
<stop stop-color="#009AEC"/>
<stop offset="1" stop-color="#005380"/>
</linearGradient>
<linearGradient id="paint9_linear_1297_3417" x1="70.0841" y1="2.09833" x2="70.0841" y2="64.241" gradientUnits="userSpaceOnUse">
<stop stop-color="#009AEC"/>
<stop offset="1" stop-color="#005380"/>
</linearGradient>
<linearGradient id="paint10_linear_1297_3417" x1="46.6856" y1="2.09833" x2="46.6856" y2="64" gradientUnits="userSpaceOnUse">
<stop stop-color="#009AEC"/>
<stop offset="1" stop-color="#005380"/>
</linearGradient>
</defs>
</svg>
