<svg width="50" height="50" viewBox="0 0 50 50" fill="none" xmlns="http://www.w3.org/2000/svg">
<circle cx="25" cy="25" r="24.25" stroke="#2E2E2E" stroke-width="1.5"/>
<g clip-path="url(#clip0_1863_1815)">
<path d="M41.7995 20.409H38.859C37.4101 16.0524 33.9633 12.6066 29.6067 11.1578V8.21619C29.6067 7.55262 29.0696 7.01562 28.4062 7.01562H21.5938C20.9304 7.01562 20.3933 7.55255 20.3933 8.21619V11.1578C16.0367 12.6067 12.5899 16.0524 11.141 20.409H8.20049C7.53677 20.409 7 20.946 7 21.6096V28.3906C7 29.0542 7.53677 29.591 8.20049 29.591H11.141C12.5899 33.9478 16.0367 37.3936 20.3933 38.8424V41.784C20.3933 42.4475 20.9304 42.9845 21.5938 42.9845H28.4062C29.0696 42.9845 29.6067 42.4476 29.6067 41.784V38.8424C33.9633 37.3935 37.4101 33.9477 38.859 29.591H41.7995C42.4632 29.591 43 29.0541 43 28.3906V21.6096C43 20.946 42.4632 20.409 41.7995 20.409ZM22.7943 9.4166H27.2057V13.7967H22.7943V9.4166ZM9.40098 27.1901V22.8101H13.781V27.1901H9.40098ZM27.2057 40.5835H22.7943V36.2034H27.2057V40.5835ZM29.6067 36.288V35.0029C29.6067 34.3394 29.0696 33.8024 28.4062 33.8024H21.5938C20.9304 33.8024 20.3933 34.3394 20.3933 35.0029V36.288C17.3591 35.0498 14.9346 32.6254 13.6966 29.591H14.9815C15.6452 29.591 16.1819 29.0541 16.1819 28.3906V21.6096C16.1819 20.9459 15.6452 20.409 14.9815 20.409H13.6966C14.9347 17.3749 17.3591 14.9504 20.3933 13.7122V14.9973C20.3933 15.6609 20.9304 16.1979 21.5938 16.1979H28.4062C29.0696 16.1979 29.6067 15.6609 29.6067 14.9973V13.7123C32.641 14.9505 35.0654 17.375 36.3033 20.4091H35.0185C34.3548 20.4091 33.818 20.946 33.818 21.6096V28.3907C33.818 29.0542 34.3548 29.5911 35.0185 29.5911H36.3033C35.0654 32.6254 32.6409 35.0498 29.6067 36.288ZM40.599 27.1901H36.219V22.8101H40.599V27.1901Z" fill="#02A6FF"/>
</g>
<defs>
<clipPath id="clip0_1863_1815">
<rect width="36" height="36" fill="white" transform="translate(7 7)"/>
</clipPath>
</defs>
</svg>
