<svg width="50" height="50" viewBox="0 0 50 50" fill="none" xmlns="http://www.w3.org/2000/svg">
<path d="M46.875 6.25H3.125C1.39766 6.25 0 7.64766 0 9.375V40.625C0 42.3523 1.39766 43.75 3.125 43.75H46.875C48.6023 43.75 50 42.3523 50 40.625V9.375C50 7.64766 48.6023 6.25 46.875 6.25ZM3.125 7.8125H46.875C47.7375 7.8125 48.4375 8.5125 48.4375 9.375V11.3039L25 28.7141L1.5625 11.3039V9.375C1.5625 8.5125 2.2625 7.8125 3.125 7.8125ZM46.875 42.1875H3.125C2.2625 42.1875 1.5625 41.4875 1.5625 40.625V38.4313L16.0812 27.9773C16.4312 27.7258 16.5109 27.2375 16.2594 26.8867C16.0078 26.5375 15.5203 26.4578 15.1688 26.7086L1.5625 36.507V13.2508L24.5336 30.3148C24.6727 30.418 24.8359 30.4688 25 30.4688C25.1641 30.4688 25.3273 30.418 25.4664 30.3148L48.4375 13.2508V36.507L34.8312 26.7102C34.4813 26.4586 33.9922 26.5375 33.7406 26.8883C33.4891 27.2383 33.568 27.7266 33.9188 27.9789L48.4375 38.4313V40.625C48.4375 41.4875 47.7375 42.1875 46.875 42.1875Z" fill="#009AEC"/>
</svg>
