<svg width="782" height="800" viewBox="0 0 782 800" fill="none" xmlns="http://www.w3.org/2000/svg">
<g clip-path="url(#clip0_1574_4730)">
<path fill-rule="evenodd" clip-rule="evenodd" d="M479.347 1.416C473.817 3.445 459.638 13.999 454.008 20.276C447.006 28.083 442.444 36.177 440.949 43.443C439.845 48.812 439.879 50.938 441.173 57.573C442.011 61.868 443.348 70.222 444.144 76.136C445.544 86.542 446.845 90.449 450.773 96.037C451.968 97.737 452.642 100.436 452.648 103.537C452.661 110.474 457.221 127.458 460.755 133.732C462.412 136.674 463.367 138.833 462.877 138.53C460.831 137.266 437.651 143.968 427.25 148.831C416.213 153.991 409.268 160.152 396.189 176.383C392.2 181.333 386.456 187.86 383.425 190.887C373.769 200.53 368.534 210.25 361.613 231.383C360.352 235.233 357.191 242.665 354.588 247.899C349.493 258.144 346.639 266.498 346.639 271.167C346.639 272.774 344.339 278.655 341.528 284.236C332.69 301.784 331.446 305.899 331.152 318.551C330.856 331.276 330.602 331.845 321.288 340.654C312.015 349.424 305.74 351.409 282.624 352.888C273.557 353.468 262.435 354.212 257.908 354.54C251.583 354.999 249.151 354.798 247.408 353.673C243.365 351.062 235.412 348.883 229.928 348.883C222.445 348.883 216.444 352.208 206.431 361.902C198.245 369.828 188.077 375.967 176.139 380.192C153.327 388.265 147.39 391.337 138.901 399.462L134.639 403.54C134.639 403.54 132.722 408.365 132.5 410.5C132.276 412.645 132.5 415 132.5 415C132.5 421.689 135.107 425.747 135.889 427.147C138.805 432.364 144.068 438.05 148.249 440.5C152.365 442.912 153.41 443.088 160.937 442.636C174.754 441.805 193.146 434.279 202.187 425.756C203.863 424.176 205.566 422.883 205.971 422.883C206.376 422.883 206.422 425.037 206.073 427.671C205.375 432.931 206.88 445.302 209.262 453.883C211.343 461.38 221.29 492.105 223.83 498.883C227.406 508.422 228.407 511.131 232.146 521.383C234.152 526.883 236.617 533.408 237.625 535.883C238.633 538.358 240.446 542.858 241.653 545.883C245.306 555.039 246.568 557.778 254.456 573.677C261.732 588.341 261.991 589.103 260.749 592.177C260.037 593.94 258.853 597.183 258.119 599.383C257.384 601.583 254.684 609.233 252.118 616.383C249.553 623.533 245.062 636.133 242.139 644.383C239.216 652.633 235.196 663.883 233.205 669.383C225.95 689.425 223.387 698.725 224.088 702.463C224.924 706.92 227.84 709.883 231.389 709.883C236.166 709.882 258.595 705.929 260.405 704.768C265.458 701.528 280.554 680.042 284.592 670.342C287.349 663.719 287.639 661.992 287.64 652.203C287.641 643.165 287.128 639.53 284.526 630.133C282.47 622.709 280.94 618.883 280.025 618.883C278.097 618.883 278.271 622.89 280.541 630.775C283.683 641.689 284.944 650.705 284.339 657.925C283.813 664.194 281.78 670.217 279.91 671.043C278.857 671.507 274.303 678.605 272.313 682.883C271.417 684.808 270.643 685.708 270.591 684.883C270.53 683.891 270.23 684.06 269.705 685.383C269.255 686.519 269.333 687.654 269.886 688.011C270.429 688.36 269.16 690.915 267.019 693.784C262.813 699.418 260.971 700.224 249.639 701.397C245.832 701.79 240.985 703.142 237.939 704.659C233.648 706.797 232.319 707.058 230.332 706.153C226.141 704.243 226.199 700.079 230.58 688.086C244 651.355 261.991 599.708 262.937 595.199C263.55 592.275 264.409 589.883 264.845 589.883C266.596 589.883 265.354 586.551 259.2 574.74C249.296 555.733 230.62 507.737 218.593 470.383C211.8 449.285 210.3 442.262 210.259 431.366C210.224 421.755 210.349 421.165 213.346 416.809C217.539 410.715 223.92 405.089 229.376 402.675C232.995 401.074 235.525 400.76 242.499 401.042C250.525 401.366 251.792 401.728 260.33 406.137C265.386 408.747 270.187 410.883 270.999 410.883C271.811 410.883 274.835 412.897 277.718 415.358C280.782 417.973 285.906 420.968 290.049 422.566C293.949 424.069 300.514 427.387 304.639 429.94C311.417 434.135 321.214 439.677 339.552 449.689C347.574 454.069 381.761 469.684 387.139 471.425C389.339 472.137 396.089 474.19 402.139 475.988C408.189 477.786 420.339 481.915 429.139 485.163C442.976 490.271 446.364 491.143 454.2 491.612C463.537 492.171 473.197 490.986 481.494 488.264C487.176 486.4 506.699 474.79 506.015 473.682C504.9 471.879 500.924 473.156 492.485 478.027C480.742 484.804 472.856 487.007 460.139 487.062C452.222 487.097 448.889 486.646 444.139 484.896C437.434 482.427 430.481 480.136 407.139 472.706C398.339 469.905 384.839 465.15 377.139 462.141C357.887 454.617 325.564 438.62 311.244 429.531C304.702 425.379 295.527 420.497 290.855 418.682C284.34 416.152 281.655 414.509 279.333 411.633C277.667 409.571 275.647 407.883 274.843 407.883C274.039 407.883 269.276 405.875 264.26 403.422C253.27 398.046 246.611 396.491 237.214 397.105C227.107 397.765 217.072 403.62 210.667 412.594C207.379 417.202 194.497 427.413 187.639 430.849C176.635 436.361 169.756 438.212 159.942 438.3L150.746 438.383L146.571 434.383C144.274 432.183 140.875 428.042 139.017 425.181C136.095 420.682 135.639 419.135 135.639 413.732C135.639 407.491 135.644 407.48 140.873 402.571C148.269 395.627 153.039 392.608 161.639 389.427C181.069 382.241 185.66 380.366 192.71 376.74C197.681 374.184 203.349 369.985 209.21 364.517C220.795 353.711 223.155 352.508 231.582 353.111C235.197 353.37 239.726 354.404 241.647 355.409C243.568 356.414 247.839 357.997 251.139 358.928C254.439 359.858 261.127 361.804 266.001 363.251C270.875 364.699 277.028 365.883 279.675 365.883C282.321 365.883 286.658 366.316 289.313 366.844C298.994 368.773 315.4 370.795 326.139 371.382C340.556 372.172 351.825 374.259 361.929 378.012C380.416 384.88 384.337 386.479 387.66 388.506C392.318 391.348 409.489 397.155 411.243 396.481C414.876 395.087 412.198 392.968 402.889 389.871C392.674 386.474 388.144 384.501 385.639 382.36C384.814 381.655 381.889 380.41 379.139 379.594C365.016 375.403 356.475 369.151 346.506 355.704C343.73 351.959 339.925 345.257 338.049 340.81C334.92 333.39 334.639 331.885 334.639 322.514C334.639 309.325 336.165 303.698 344.577 285.883C348.343 277.908 351.673 270.622 351.978 269.691C352.837 267.067 357.297 264.634 361.41 264.545C366.606 264.433 375.216 268.793 380.955 274.442C385.236 278.656 385.74 279.605 385.495 282.99C385.344 285.084 385.576 287.154 386.011 287.589C387.302 288.88 389.639 284.76 389.639 281.195C389.639 274.607 378.207 265.829 365.225 262.447C360.214 261.142 358.943 261.133 355.346 262.372C353.075 263.154 350.994 263.571 350.721 263.298C350.448 263.025 351.01 261.583 351.97 260.093C353.823 257.216 362.283 240.044 367.593 228.383C372.882 216.769 385.608 194.446 389.135 190.596C390.955 188.61 394.621 184.149 397.282 180.684C405.607 169.843 416.746 158.908 423.597 154.852C431.336 150.271 447.533 144.733 460.417 142.263C469.109 140.597 471.834 138.939 468.184 137.539C464.854 136.261 459.404 122.108 457.671 110.236C457.041 105.917 456.306 100.925 456.039 99.144C455.765 97.323 453.82 93.903 451.596 91.333C448.921 88.243 447.639 85.809 447.639 83.822C447.639 80.091 448.192 80.118 450.172 83.947C453.012 89.438 454.172 87.087 453.782 76.63L453.425 67.051L457.782 64.009C460.178 62.336 463.005 60.352 464.063 59.6C465.302 58.719 465.752 57.62 465.328 56.514C464.566 54.529 463.258 55.023 455.446 60.246C451.016 63.207 450.718 63.692 450.134 68.883C448.973 79.209 449.124 79.438 446.094 62.756C443.931 50.85 444.474 41.945 447.765 35.319C450.834 29.14 462.96 16.256 471.323 10.289C474.928 7.717 481.086 4.349 485.008 2.806L492.139 0L487.639 0.012C485.164 0.019 481.433 0.65 479.347 1.416ZM510.639 0.651C510.639 2.806 515.481 4.601 522.758 5.142C538.151 6.287 546.738 14.705 550.129 31.973C550.93 36.048 552.775 42.753 554.229 46.871C558.697 59.523 556.458 72.878 549.866 72.887C546.351 72.892 541.004 76.157 540.161 78.813C539.625 80.503 539.151 80.692 537.572 79.847C536.509 79.278 535.632 77.816 535.624 76.598C535.615 75.38 535.233 73.791 534.774 73.067C533.819 71.561 528.989 68.883 527.228 68.883C526.577 68.883 524.307 67.103 522.182 64.927C517.651 60.287 514.029 59.234 508.204 60.865C505.026 61.755 502.934 61.77 499.805 60.928C497.514 60.311 495.639 59.566 495.639 59.273C495.639 58.979 496.729 56.859 498.062 54.561C502.125 47.557 511.546 23.624 511.614 20.133C511.628 19.446 511.221 18.883 510.71 18.883C510.199 18.883 509.286 21.265 508.682 24.176C508.078 27.088 505.803 32.364 503.628 35.9C501.453 39.437 498.469 45.165 496.997 48.628C494.87 53.634 493.79 55.029 491.73 55.434C490.305 55.714 486.021 56.882 482.21 58.029C478.399 59.175 473.592 60.091 471.529 60.062C466.538 59.993 464.333 62.436 468.095 63.866C472.165 65.414 476.617 65.098 484.172 62.727L491.042 60.57L494.979 62.836C501.177 66.404 504.164 66.93 509.348 65.37C514.547 63.805 515.277 64.049 519.089 68.615C520.599 70.425 523.512 72.364 525.709 73.022C528.908 73.981 529.803 74.817 530.559 77.555C531.069 79.401 532.645 82.29 534.062 83.974C535.48 85.659 536.639 88.127 536.639 89.46C536.639 91.163 537.196 91.883 538.516 91.883C539.811 91.883 541.05 90.354 542.516 86.948C543.684 84.233 544.639 81.603 544.639 81.103C544.639 79.258 548.384 76.883 551.293 76.883C556.055 76.883 560.639 82.91 560.639 89.169C560.639 94.152 556.985 98.758 549.998 102.582C545.641 104.967 543.535 106.806 542.748 108.913C542.138 110.547 541.117 113.274 540.48 114.974C539.843 116.674 537.536 120.826 535.355 124.201C532.11 129.221 531.217 131.706 530.442 137.86C529.922 141.998 529.774 147.657 530.115 150.435C530.62 154.562 530.404 155.771 528.936 157.035C527.081 158.634 511.254 165.222 506.389 166.422C502.197 167.455 503.109 168.883 507.962 168.883C513.139 168.883 530.002 161.17 533.165 157.356L535.191 154.912L539.165 156.808C541.351 157.851 545.284 159.622 547.905 160.744C555.99 164.206 577.514 184.245 586.158 196.357C592.655 205.462 596.237 213.192 611.19 250.383C618.709 269.083 626.639 288.779 628.812 294.151C632.906 304.274 633.014 306.329 629.613 309.406C626.92 311.844 627.128 314.552 630.581 322.021C635.177 331.961 637.26 352.867 634.234 358.683C629.612 367.567 616.799 371.882 595.048 371.883C581.831 371.883 577.722 372.976 567.432 379.231C563.193 381.808 558.366 384.188 556.704 384.52C555.043 384.852 553.258 385.637 552.739 386.263C552.219 386.889 551.58 391.448 551.32 396.392C550.73 407.583 548.901 425.954 548.319 426.536C548.08 426.775 545.94 427.964 543.563 429.177C539.249 431.379 539.237 431.401 536.877 441.204C533.953 453.348 534.384 454.286 542.613 453.691C545.668 453.47 550.322 452.246 552.956 450.972C555.589 449.697 557.963 448.873 558.231 449.141C558.499 449.409 559.24 454.856 559.879 461.245C560.985 472.316 560.933 473.193 558.755 479.955C557.042 485.272 555.449 488.04 552.392 491.007C544.064 499.089 524.127 506.202 504.639 508.045C491.2 509.315 416.233 508.59 387.639 506.913C377.464 506.316 361.714 504.943 352.639 503.862C343.564 502.781 332.089 501.938 327.139 501.989L318.139 502.083L324.139 504.024C338.748 508.75 411.073 513.943 460.639 513.825C494.156 513.745 512.829 512.435 523.139 509.439C534.616 506.105 549.295 499.092 554.342 494.532C559.367 489.993 563.187 482.907 564.512 475.67C565.69 469.233 564.52 455.468 562.229 448.819C561.469 446.612 561.061 443.984 561.324 442.979C561.587 441.975 560.879 436.704 559.752 431.268C555.406 410.31 555.339 398.885 559.518 391.102C560.797 388.72 568.202 382.883 569.945 382.883C570.498 382.883 572.568 381.648 574.545 380.138C578.03 377.476 578.638 377.374 594.639 376.764C618.518 375.854 629.294 372.682 633.393 365.357C635.237 362.064 635.875 364.43 634.687 370.153C633.839 374.236 632.283 377.166 628.408 381.975C619.579 392.931 615.654 401.114 606.624 427.383C600.58 444.969 594.882 463.669 592.61 473.383C586.888 497.839 583.192 505.312 571.35 516.375L562.562 524.585L563.502 528.484C565.706 537.62 597.324 625.836 602.287 636.696C604.126 640.718 608.613 652.915 612.259 663.799C618.434 682.232 618.794 683.787 617.512 686.463C615.778 690.08 611.668 691.673 608.176 690.082C605.536 688.879 604.19 686.407 598.27 671.883C596.365 667.208 592.359 657.533 589.369 650.383C583.258 635.774 580.591 628.363 578.032 618.883C575.744 610.41 563.631 580.68 561.102 577.332L559.139 574.732L525.639 575.912C507.214 576.562 491.283 577.548 490.237 578.104C488.402 579.08 488.367 580.145 489.237 608.249C489.733 624.273 490.073 658.893 489.991 685.182C489.882 720.758 490.137 732.884 490.991 732.601C491.748 732.349 492.231 728.163 492.409 720.301C492.635 710.374 492.969 708.167 494.409 707.091C495.943 705.945 496.176 703.219 496.46 683.091C496.761 661.864 496.023 648.51 493.685 632.883C493.15 629.308 492.403 616.707 492.024 604.881C491.426 586.199 491.537 583.212 492.872 582.105C495.241 580.139 556.429 578.211 558.142 580.048C558.826 580.782 560.739 584.758 562.393 588.883C564.046 593.008 568.323 603.371 571.896 611.913C576.505 622.927 578.557 629.2 578.954 633.489C579.351 637.775 581.252 643.589 585.483 653.459C588.766 661.117 592.643 670.533 594.098 674.383C595.553 678.233 597.15 682.283 597.647 683.383C598.143 684.483 599.207 687.035 600.011 689.055C601.983 694.011 605.634 696.245 611.406 696.027C617.089 695.812 620.363 693.787 622.223 689.337C624.287 684.397 624.081 682.589 620.008 669.883C613.43 649.362 608.6 637.535 605.693 634.831C604.084 633.335 602.084 629.613 600.857 625.831C597.788 616.375 576.908 555.947 572.713 544.383C571.517 541.083 569.573 535.496 568.393 531.968L566.249 525.554L568.694 524.031C570.039 523.194 573.843 519.78 577.148 516.446C584.489 509.039 590.767 497.043 593.667 484.883C597.427 469.115 598.783 464.448 606.165 441.883C618.597 403.879 622.405 395.056 630.431 385.651C632.792 382.885 635.337 379.434 636.088 377.982C639.62 371.152 640.526 355.449 638.459 336.867C637.262 326.097 638.171 299.318 640.701 270.883C641.263 264.558 641.816 248.808 641.928 235.883C642.123 213.492 642.022 212.077 639.794 205.892C636.747 197.435 631.205 189.734 624.514 184.659C616.767 178.782 596.498 169.344 584.139 165.858C582.489 165.393 576.414 163.669 570.639 162.028C564.864 160.387 556.729 158.299 552.562 157.387C548.395 156.476 542.545 154.502 539.562 153L534.139 150.269L534.446 141.124C534.746 132.182 534.85 131.833 539.166 125.398C541.593 121.778 544.105 116.919 544.749 114.6C546.006 110.072 548.097 107.796 554.553 103.928C559.656 100.872 563.647 95.239 564.333 90.129C564.905 85.863 562.463 79.84 558.829 76.554C556.906 74.815 556.885 74.545 558.401 71.054C560.855 65.403 560.517 50.524 557.814 45.226C556.664 42.971 554.969 37.009 554.049 31.976C552.836 25.347 551.427 21.25 548.936 17.105C542.141 5.797 537.428 2.815 524.639 1.734C519.964 1.339 514.901 0.708 513.389 0.333C511.765 -0.071 510.639 0.06 510.639 0.651ZM493.945 8.298C490.431 11.322 491.598 12.75 495.906 10.696C497.688 9.846 500.608 8.829 502.393 8.437C507.091 7.405 506.377 5.883 501.195 5.883C497.937 5.883 496.001 6.528 493.945 8.298ZM520.405 32.883C519.06 37.973 518.488 46.883 519.506 46.883C520.787 46.883 521.903 39.624 521.428 34.383C521.116 30.946 520.972 30.735 520.405 32.883ZM544.751 40.383C544.774 41.483 545.386 44.183 546.111 46.383L547.429 50.383L547.499 46.883C547.537 44.958 546.925 42.258 546.139 40.883C544.886 38.692 544.715 38.63 544.751 40.383ZM535.294 64.251C534.88 65.828 534.778 67.355 535.067 67.644C535.872 68.449 536.856 65.229 536.428 63.191C536.147 61.858 535.849 62.137 535.294 64.251ZM458.639 86.261C458.639 88.419 460.949 89.814 466.121 90.781C468.744 91.271 471.265 92.278 471.723 93.019C472.841 94.828 475.139 92.629 474.331 90.523C472.957 86.941 458.639 83.052 458.639 86.261ZM499.889 89.522C497.017 90.554 495.639 91.637 495.639 92.859C495.639 95.055 497.983 96.139 499.484 94.638C500.084 94.038 503.626 93.286 507.356 92.966C513.278 92.457 514.139 92.129 514.139 90.383C514.139 88.676 513.408 88.355 509.139 88.189C506.389 88.082 502.226 88.682 499.889 89.522ZM463.65 97.862C461.186 102.467 465.781 107.817 471.062 106.492C473.204 105.954 473.639 105.266 473.639 102.421C473.639 96.79 466.072 93.337 463.65 97.862ZM501.954 98.89C500.753 99.374 499.244 100.752 498.602 101.951C497.64 103.749 497.778 104.594 499.386 106.758C502.197 110.541 506.782 110.787 509.523 107.303C512.158 103.954 512.182 102.426 509.639 99.883C507.501 97.745 505.453 97.48 501.954 98.89ZM487.639 111.914C487.639 113.724 488.261 115.184 489.182 115.538C491.3 116.351 491.474 115.887 490.46 112.133C489.354 108.039 487.639 107.907 487.639 111.914ZM488.889 130.598C483.85 131.072 483.311 132.56 487.889 133.361C491.526 133.997 496.459 132.91 496.87 131.383C497.177 130.241 494.981 130.026 488.889 130.598ZM574.188 166.989C607.624 176.574 626.234 187.14 633.418 200.62C638.087 209.379 639.021 217.529 638.205 242.383C637.463 264.959 635.286 295.569 634.355 296.5C633.771 297.085 631.655 290.468 631.645 288.024C631.642 287.276 629.585 281.876 627.075 276.024C620.96 261.767 617.955 254.418 610.252 234.883C602.497 215.216 597 203.732 591.045 194.756C585.715 186.721 569.887 171.357 562.511 167.058C557.319 164.032 557.243 163.926 560.246 163.905C561.955 163.893 568.229 165.281 574.188 166.989ZM547.044 251.383C547.714 258.91 553.916 277.485 556.775 280.528C559.171 283.079 559.153 283.858 556.189 305.883C553.688 324.459 552.915 335.873 554.094 336.802C554.669 337.255 557.393 338.191 560.148 338.881C564.357 339.937 567.071 339.866 577.148 338.434C583.743 337.497 590.151 336.491 591.389 336.198C594.197 335.534 594.283 332.988 591.643 328.657C589.24 324.717 589.056 319.161 591.225 316.064C594.518 311.362 601.949 307.898 614.27 305.32C619.237 304.281 621.316 304.234 623.257 305.119C626.651 306.665 628.343 304.322 625.838 301.543C622.617 297.968 608.909 300.332 595.694 306.742C588.387 310.286 580.061 317.933 580.959 320.275C581.397 321.416 582.266 321.819 583.466 321.438C585.575 320.769 589.21 324.15 588.178 325.82C587.215 327.377 583.418 327.117 580.848 325.317C579.618 324.456 577.729 322.019 576.649 319.903C574.344 315.384 562.639 286.368 562.639 285.172C562.639 284.722 561.733 282.663 560.626 280.598C559.519 278.532 556.322 270.439 553.52 262.613C547.23 245.037 546.342 243.496 547.044 251.383ZM403.717 253.383C395.361 271.431 394.503 274.524 392.96 292.158C392.633 295.884 391.991 299.165 391.532 299.449C391.073 299.733 389.362 299.274 387.73 298.43C385.078 297.059 384.823 296.522 385.332 293.389C386.061 288.893 384.263 288.753 382.044 293.133C381.139 294.921 379.705 297.173 378.858 298.139C378.011 299.105 377.503 300.032 377.728 300.198C378.93 301.085 393.102 302.819 393.754 302.16C394.177 301.732 394.97 298.595 395.517 295.187C396.063 291.78 396.989 288.097 397.575 287.003C398.16 285.909 398.639 284.143 398.639 283.078C398.639 282.013 400.022 276.471 401.713 270.762C406.891 253.28 407.765 249.761 407.354 248.04C407.117 247.049 405.655 249.196 403.717 253.383ZM367.647 294.813C363.656 295.864 362.455 299.341 363.05 308.122C363.68 317.419 367.223 329.883 369.236 329.883C371.066 329.883 371.052 325.663 369.202 319.315C367.319 312.856 365.51 299.383 366.262 297.424C367.007 295.482 367.977 295.489 371.8 297.466C373.957 298.581 374.738 298.681 374.445 297.802C373.73 295.656 370.252 294.127 367.647 294.813ZM387.639 294.383C387.639 294.658 387.864 294.883 388.139 294.883C388.414 294.883 388.639 294.658 388.639 294.383C388.639 294.108 388.414 293.883 388.139 293.883C387.864 293.883 387.639 294.108 387.639 294.383ZM565.65 307.383C572.353 324.693 575.709 328.986 583.495 330.213C586.771 330.729 588.855 331.773 587.056 331.997C586.552 332.06 585.014 332.254 583.639 332.428C567.43 334.482 565.253 334.615 562.098 333.744C558.851 332.847 558.64 332.532 558.647 328.586C558.656 324.178 560.25 308.746 561.285 303.058C562.02 299.017 562.655 299.646 565.65 307.383ZM386.139 308.677C388.059 310.765 410.143 326.686 410.56 326.282C411.433 325.437 405.934 320.619 397.516 314.853C389.098 309.087 383.945 306.29 386.139 308.677ZM634.624 312.692C634.615 314.172 634.214 316.005 633.733 316.765C632.502 318.708 631.253 314.558 632.078 311.27C632.864 308.139 634.644 309.133 634.624 312.692ZM461.139 317.825C456.374 319.536 448.639 323.646 448.639 324.467C448.639 324.95 456.859 321.73 463.014 318.837C467.303 316.821 468.704 315.779 466.889 315.956C466.476 315.996 463.889 316.837 461.139 317.825ZM541.139 335.411C538.939 336.136 535.249 336.764 532.938 336.806C527.33 336.909 518.639 338.823 518.639 339.956C518.639 341.325 539.396 339.938 544.933 338.199C548.864 336.964 549.517 336.44 548.56 335.288C547.194 333.642 546.472 333.654 541.139 335.411ZM333.028 339.133C334.056 344.599 339.066 354.005 345.065 361.734C348.203 365.776 350.534 369.321 350.244 369.611C349.955 369.901 346.212 369.606 341.928 368.956C337.644 368.305 328.289 367.345 321.139 366.822C300.658 365.323 292.31 364.314 289.955 363.053C288.753 362.409 286.016 361.883 283.872 361.883C279.181 361.883 268.485 359.911 267.268 358.821C266.175 357.843 271.886 357.133 286.82 356.39C306.299 355.422 315.557 351.908 325.562 341.685C328.629 338.551 331.426 335.964 331.778 335.935C332.129 335.906 332.691 337.345 333.028 339.133ZM553.08 344.415C554.148 345.222 555.498 345.869 556.08 345.851C556.663 345.834 556.265 345.159 555.198 344.351C554.13 343.544 552.78 342.897 552.198 342.915C551.615 342.932 552.013 343.607 553.08 344.415ZM565.639 350.2C563.23 351.44 563.151 351.793 563.456 359.877C563.631 364.491 564.209 369.08 564.742 370.075C565.928 372.291 568.769 372.384 572.726 370.338L575.714 368.793L575.035 361.088C574.662 356.85 573.981 352.371 573.522 351.133C572.571 348.565 569.516 348.203 565.639 350.2ZM494.884 355.925C490.894 357.542 480.186 360.911 471.088 363.412C461.99 365.913 453.036 368.68 451.19 369.56C447.605 371.27 445.323 374.895 446.273 377.371C447.111 379.555 447.928 379.241 449.752 376.034C451.48 372.996 450.236 373.435 475.639 366.914C482.514 365.15 491.914 361.946 496.527 359.794C503.002 356.775 506.139 355.883 510.277 355.883C515.473 355.883 517.292 354.731 514.057 353.49C510.247 352.028 501.884 353.09 494.884 355.925ZM381.032 356.465C381.366 357.335 381.639 358.223 381.639 358.439C381.639 359.352 387.569 361.805 388.018 361.078C388.495 360.308 382.424 354.883 381.085 354.883C380.722 354.883 380.698 355.595 381.032 356.465ZM569.933 361.133C570.186 363.746 569.999 365.883 569.516 365.883C569.034 365.883 568.675 363.296 568.718 360.133C568.806 353.685 569.247 354.048 569.933 361.133ZM555.639 364.312C555.639 367.982 556.268 371.139 557.371 373.006C559.091 375.917 559.082 375.955 556.121 378.375C553.897 380.192 553.572 380.82 554.842 380.847C557.235 380.898 561.639 378.762 561.639 377.551C561.639 376.995 560.907 375.732 560.013 374.744C559.073 373.705 558.104 370.209 557.715 366.45C556.852 358.109 555.639 356.86 555.639 364.312ZM282.639 372.228C278.947 374.105 277.569 375.65 274.964 380.833C270.919 388.882 269.881 395.648 272.095 399.539C273.313 401.682 273.566 401.837 273.119 400.166C271.11 392.661 278.563 377.145 285.906 373.548C287.966 372.538 289.397 371.301 289.086 370.798C288.294 369.516 287.724 369.642 282.639 372.228ZM380.639 371.776C380.639 372.831 383.118 373.896 385.471 373.851C386.91 373.824 386.872 373.618 385.198 372.351C383.031 370.712 380.639 370.41 380.639 371.776ZM393.043 376.727C394.128 378.484 400.457 381.422 406.139 382.807C411.983 384.231 415.143 386.851 416.697 391.56C417.63 394.387 418.907 395.449 424.476 398.028C428.141 399.724 432.959 401.687 435.183 402.388C437.407 403.089 440.957 404.838 443.072 406.273C446.268 408.442 448.047 408.883 453.597 408.883C457.27 408.883 462.702 409.603 465.667 410.484C471.623 412.253 478.099 411.842 484.154 409.312C488.567 407.469 490.384 407.975 498.079 413.19C504.107 417.275 511.931 420.404 523.582 423.388C527.126 424.295 532.016 425.714 534.448 426.54C536.915 427.377 540.016 427.754 541.459 427.392L544.045 426.743L541.092 424.89C539.468 423.871 531.084 421 522.46 418.51C510.866 415.162 505.525 413.088 501.96 410.552C499.309 408.666 495.318 406.206 493.092 405.086L489.046 403.05L480.222 405.334C473.299 407.126 470.617 407.412 467.769 406.66C462.627 405.304 451.759 404.039 449.752 404.564C448.822 404.807 447.255 404.116 446.27 403.028C444.835 401.443 444.701 400.635 445.594 398.966C446.846 396.628 448.774 396.326 451.518 398.039C452.971 398.947 455.255 398.735 462.131 397.055C471.394 394.791 482.961 389.962 480.941 389.202C480.282 388.954 475.077 389.919 469.374 391.347C458.69 394.023 443.087 395.417 442.08 393.787C440.998 392.037 442.79 388.856 445.707 387.348C447.316 386.516 453.472 385.189 459.386 384.401C465.3 383.612 472.276 382.23 474.889 381.331C483.389 378.404 479.513 375.292 470.632 377.915C468.711 378.482 462.538 379.563 456.915 380.317C445.795 381.807 440.056 384.375 439.07 388.3C438.76 389.539 439.435 393.199 440.572 396.433C441.709 399.667 442.639 402.442 442.639 402.598C442.639 404.05 438.069 401.879 430.714 396.934C423.694 392.213 421.425 390.072 419.728 386.566C416.284 379.453 413.281 377.687 407.413 379.326C404.936 380.018 401.317 379.193 394.225 376.319C392.868 375.769 392.524 375.888 393.043 376.727ZM284.882 379.133C281.744 383.051 279.314 389.821 279.23 394.883C279.093 403.148 280.924 402.263 282.813 393.151C283.734 388.71 285.197 383.705 286.063 382.029C286.93 380.353 287.639 378.735 287.639 378.433C287.639 377.424 285.897 377.867 284.882 379.133ZM542.846 382.904C537.848 383.632 519.82 391.397 520.815 392.393C521.07 392.648 524.397 391.94 528.209 390.819C534.471 388.979 538.902 387.828 545.36 386.363C547.363 385.909 550.799 381.71 548.924 382.008C548.492 382.076 545.757 382.48 542.846 382.904ZM476.639 399.468C473.364 400.809 473.331 400.864 476.139 400.321C477.789 400.002 479.567 399.323 480.089 398.812C481.287 397.641 480.942 397.706 476.639 399.468ZM568.042 404.04C566.432 406.644 567.567 425.655 570.092 438.383C571.51 445.533 573.113 455.433 573.654 460.383C574.195 465.333 574.822 470.958 575.048 472.883C575.273 474.808 575.324 470.308 575.16 462.883C574.924 452.206 574.287 447.083 572.111 438.383C569.918 429.613 569.338 424.9 569.25 415.135C569.189 408.399 569.053 402.886 568.948 402.885C568.843 402.884 568.435 403.404 568.042 404.04ZM555.039 421.133C555.423 428.421 556.237 436.368 556.848 438.795C557.872 442.865 557.783 443.348 555.7 445.035C554.457 446.041 550.516 447.767 546.941 448.871C540.743 450.786 537.965 450.782 539.152 448.861C539.453 448.376 540.5 444.716 541.48 440.728C543.133 434.004 543.49 433.419 546.406 432.664C551.554 431.329 552.639 428.719 552.639 417.66C552.639 412.283 553.022 407.883 553.489 407.883C553.957 407.883 554.654 413.845 555.039 421.133ZM273.639 434.239C273.639 435.086 281.668 446.883 282.244 446.883C283.196 446.883 277.71 437.252 275.747 435.478C274.588 434.43 273.639 433.873 273.639 434.239ZM322.139 473.416C316.089 474.115 309.564 475.178 307.639 475.779C304.253 476.836 304.286 476.85 308.639 476.213C311.114 475.852 321.464 475.458 331.639 475.338C347.636 475.149 358.639 473.93 358.639 472.344C358.639 471.421 332.853 472.178 322.139 473.416ZM366.889 472.572C367.852 472.824 369.426 472.824 370.389 472.572C371.352 472.321 370.564 472.115 368.639 472.115C366.714 472.115 365.926 472.321 366.889 472.572ZM297.639 477.883C297.639 478.433 298.116 478.883 298.698 478.883C299.28 478.883 299.479 478.433 299.139 477.883C298.799 477.333 298.323 476.883 298.08 476.883C297.837 476.883 297.639 477.333 297.639 477.883ZM301.639 477.383C301.639 477.658 301.864 477.883 302.139 477.883C302.414 477.883 302.639 477.658 302.639 477.383C302.639 477.108 302.414 476.883 302.139 476.883C301.864 476.883 301.639 477.108 301.639 477.383ZM303.049 491.383C303.291 492.483 303.806 494.958 304.192 496.883C304.578 498.808 305.496 501.248 306.232 502.306C307.442 504.046 307.63 504.07 308.211 502.556C308.564 501.636 308.558 500.321 308.197 499.633C304.674 492.916 302.685 489.728 303.049 491.383ZM307.71 507.383C307.71 508.483 308.353 510.508 309.139 511.883C310.401 514.091 310.568 514.15 310.568 512.383C310.568 511.283 309.925 509.258 309.139 507.883C307.877 505.675 307.71 505.616 307.71 507.383ZM549.889 524.892C545.909 526.738 543.639 528.391 543.639 529.445C543.639 530.748 544.224 530.956 546.389 530.422C551.515 529.158 560.707 524.586 560.344 523.482C559.688 521.486 556.223 521.954 549.889 524.892ZM313.337 527.133C311.764 528.3 311.797 529.071 313.836 538.713C315.579 546.952 315.78 549.428 314.83 550.949C313.484 553.103 313.361 558.026 314.297 572.164C314.884 581.033 315.198 582.198 317.66 584.664C320.46 587.469 322.157 594.427 320.639 596.884C319.725 598.363 317.639 597.353 317.639 595.431C317.639 592.181 312.531 592.698 297.198 597.502C292.766 598.89 287.808 600.537 286.182 601.162C282.959 602.399 275.639 609.215 275.639 610.979C275.639 611.582 274.064 615.394 272.139 619.45C270.214 623.507 266.56 631.901 264.018 638.104C256.942 655.376 253.377 664.048 246.635 680.383C243.231 688.633 240.2 696.454 239.901 697.764C239 701.7 241.861 699.817 244.368 694.823C246.423 690.73 259.677 659.647 263.319 650.383C264.183 648.183 265.494 645.033 266.23 643.383C270.268 634.342 274.552 623.555 275.105 621.038C275.452 619.457 277.064 616.892 278.688 615.336C280.517 613.584 281.639 611.491 281.639 609.832C281.639 607.6 282.352 606.882 285.922 605.519C288.278 604.619 290.597 603.883 291.076 603.883C291.554 603.883 294.359 602.741 297.309 601.346C300.258 599.951 305.213 598.339 308.319 597.765C315.423 596.452 317.947 597.628 319.557 603.004C320.203 605.16 321.611 607.473 322.685 608.144C324.095 609.025 324.639 610.48 324.64 613.374C324.644 624.087 333.095 649.09 340.679 660.824C345.723 668.628 347.639 674.543 347.639 682.312C347.639 687.882 347.295 689.04 344.866 691.64C341.99 694.718 335.434 697.085 326.222 698.37C318.333 699.47 313.962 703.13 309.117 712.693C306.519 717.82 306.334 719.808 308.584 718.417C309.177 718.05 311.171 715.418 313.015 712.567C318.202 704.546 320.56 702.835 327.794 701.841C331.284 701.362 338.023 700.081 342.771 698.996C347.518 697.91 355.843 696.759 361.271 696.437C377.745 695.46 398.239 693.251 399.731 692.289C401.193 691.348 385.955 689.722 384.301 690.643C383.408 691.14 377.754 691.21 365.639 690.871L358.139 690.662L363.639 689.292C366.664 688.538 373.17 687.208 378.097 686.335C383.024 685.463 387.735 684.369 388.566 683.904C390.812 682.647 374.277 683.787 366.139 685.451C362.289 686.237 357.451 686.882 355.387 686.882L351.635 686.883L351.984 679.383C352.176 675.258 352.002 671.883 351.598 671.883C351.193 671.883 350.564 670.295 350.2 668.355C349.836 666.415 349.111 665.091 348.588 665.414C348.066 665.737 347.639 665.299 347.639 664.442C347.639 663.585 347.073 662.883 346.382 662.883C341.8 662.883 328.639 625.982 328.639 613.134C328.639 609.717 328.052 607.887 326.389 606.116C324.344 603.939 324.17 602.924 324.482 594.989C324.802 586.831 324.657 586.057 322.269 583.22C319.975 580.493 319.605 578.848 318.661 567.154C317.467 552.372 317.789 550.453 321.314 551.338C322.636 551.669 333.395 551.632 345.222 551.254C364.129 550.65 366.687 550.375 366.409 548.975C366.132 547.574 363.34 547.383 343.195 547.383H320.297L319.44 544.383C318.969 542.733 318.177 539.358 317.681 536.883C317.184 534.408 316.499 531.663 316.159 530.784C315.482 529.033 314.628 528.96 332.639 532.201C337.314 533.042 346.168 534.473 352.313 535.379C362.752 536.919 363.657 536.917 366.051 535.349C368.362 533.835 369.787 533.788 380.535 534.873C392.757 536.106 396.639 535.755 396.639 533.415C396.639 531.915 390.29 530.256 381.139 529.365C377.839 529.044 373.452 528.539 371.389 528.244C368.142 527.779 367.639 527.972 367.639 529.678C367.639 530.763 366.815 531.865 365.808 532.129C363.838 532.644 342.809 530.042 328.139 527.468C317.262 525.56 315.51 525.52 313.337 527.133ZM468.895 533.84C465.03 534.779 462.639 536.587 462.639 538.573C462.639 539.568 462.01 539.818 460.617 539.376C459.486 539.017 455.631 539.747 451.867 541.032C445.932 543.059 443.37 543.315 430.139 543.205C421.889 543.136 411.989 542.542 408.139 541.886C404.289 541.229 399.764 540.471 398.083 540.201C396.093 539.881 394.595 540.232 393.785 541.207C392.179 543.143 392.871 543.516 401.778 545.52C411.946 547.807 445.82 547.768 453.139 545.46C457.943 543.946 458.193 543.962 459.511 545.883C460.829 547.804 464.639 548.712 464.639 547.106C464.639 546.678 463.925 545.309 463.052 544.063C461.866 542.369 461.746 541.459 462.577 540.458C463.893 538.872 476.231 536.883 484.753 536.883C489.959 536.883 490.74 536.643 490.451 535.133C490.165 533.636 488.816 533.359 481.128 533.218C476.184 533.127 470.679 533.407 468.895 533.84ZM534.532 533.323C533.607 534.248 514.66 536.828 504.237 537.448C494.549 538.024 493.069 538.362 490.948 540.483C488.975 542.456 488.752 543.226 489.663 544.928C490.74 546.94 491.271 546.973 513.452 546.396C525.93 546.071 538.554 545.559 541.506 545.258L546.873 544.71L546.295 541.153C545.513 536.332 542.108 532.883 538.131 532.883C536.394 532.883 534.774 533.081 534.532 533.323ZM420.367 536.605C422.142 536.826 425.292 536.829 427.367 536.613C429.441 536.396 427.989 536.216 424.139 536.211C420.289 536.207 418.591 536.384 420.367 536.605ZM541.435 539.455C541.724 541.472 541.089 541.561 517.603 542.823C500.255 543.755 493.17 543.814 492.39 543.034C490.78 541.424 492.467 541.131 507.639 540.383C515.064 540.017 524.514 539.119 528.639 538.387C538.533 536.632 541.062 536.843 541.435 539.455ZM363.639 541.251C363.639 545.24 364.85 546.539 366.602 544.427C368.257 542.434 367.5 538.472 365.389 538.07C363.991 537.803 363.639 538.443 363.639 541.251ZM473.389 544.545C474.077 544.823 475.202 544.823 475.889 544.545C476.577 544.268 476.014 544.041 474.639 544.041C473.264 544.041 472.702 544.268 473.389 544.545ZM389.139 547.938C388.039 548.381 383.257 548.774 378.511 548.813C372.473 548.862 369.541 549.297 368.74 550.261C367.077 552.266 369.323 552.547 381.853 551.905C392.699 551.348 396.646 550.001 392.996 548.101C391.972 547.568 390.242 547.495 389.139 547.938ZM434.639 553.44C434.639 556.643 463.06 567.438 464.664 564.843C465.545 563.417 464.819 560.654 463.738 561.322C462.889 561.847 454.637 559.109 444.639 554.984C436.125 551.472 434.639 551.242 434.639 553.44ZM462.639 554.801C462.639 555.856 462.927 557.469 463.278 558.385C463.788 559.714 464.088 559.781 464.763 558.717C466.165 556.505 465.777 552.883 464.139 552.883C463.314 552.883 462.639 553.746 462.639 554.801ZM384.812 581.633C382.915 583.254 382.648 585.453 381.197 611.383C380.336 626.783 379.633 643.026 379.635 647.478C379.638 654.054 379.296 655.884 377.81 657.228C375.379 659.428 369.37 659.373 367.446 657.133C364.956 654.234 364.831 652.763 366.228 642.874C367.999 630.334 368.133 587.062 366.412 583.284L365.185 580.592L345.663 581.286C334.926 581.668 325.694 582.428 325.148 582.974C322.798 585.324 327.635 585.864 345.346 585.23L363.552 584.578L363.846 614.48C364.067 637.012 363.831 644.929 362.889 646.598C361.399 649.239 361.261 652.531 362.606 653.363C363.138 653.692 363.319 655.231 363.009 656.784C362.197 660.844 366.667 663.883 373.449 663.883C377.66 663.883 379.085 663.352 382.471 660.524C386.074 657.514 386.333 657.006 384.967 655.64C383.613 654.285 383.033 651.358 382.441 642.883C382.345 641.508 382.845 634.533 383.551 627.383C384.258 620.233 385.135 607.987 385.501 600.169C385.879 592.092 386.641 585.481 387.265 584.857C388.008 584.114 394.472 583.86 407.251 584.071L426.139 584.384L434.139 588.336C438.539 590.51 447.042 594.335 453.034 596.836C459.027 599.337 464.272 602.058 464.69 602.883C465.108 603.708 465.882 608.345 466.409 613.187C467.183 620.289 467.081 622.801 465.879 626.187C464.993 628.685 464.392 633.924 464.393 639.133C464.395 643.946 464.31 647.883 464.205 647.883C464.1 647.883 455.267 648.795 444.576 649.91C433.886 651.025 420.247 652.356 414.268 652.867C401.061 653.996 394.744 654.904 394.221 655.748C393.79 656.443 396.372 656.355 420.139 654.864C434.481 653.964 448.118 652.297 460.389 649.941L464.639 649.125L464.722 653.254C464.768 655.525 464.997 658.508 465.23 659.883C465.464 661.258 465.871 668.908 466.136 676.883C466.401 684.858 467.116 694.44 467.726 698.176C468.335 701.912 468.557 706.075 468.218 707.426C467.667 709.621 467.042 709.897 462.37 710.011C459.493 710.081 456.014 710.293 454.639 710.482C453.264 710.67 450.339 710.877 448.139 710.941C440.329 711.168 415.723 714.866 385.639 720.335C348.383 727.108 331.733 730.757 314.507 735.923C296.908 741.2 296.464 741.158 301.834 734.724C309.125 725.988 310.415 724.883 313.344 724.873C314.881 724.867 326.24 723.968 338.586 722.876C363.571 720.665 383.825 717.675 390.639 715.192C396.045 713.222 398.409 711.428 394.24 712.458C391.993 713.014 391.522 712.882 392.146 711.871C392.761 710.876 392.382 710.737 390.545 711.283C386.875 712.374 355.27 716.432 335.639 718.333C326.014 719.265 315.247 720.672 311.713 721.459C305.653 722.809 304.9 723.31 298.514 730.241C292.436 736.836 291.107 737.769 285.556 739.326C281.839 740.369 275.333 741.126 269.255 741.222C257.945 741.402 251.274 739.606 246.389 735.065C241.989 730.975 242.684 728.117 250.243 719.223C257.71 710.436 257.189 707.969 249.46 715.517C243.833 721.012 240.637 726.477 240.643 730.593C240.648 734.459 243.931 739.465 247.758 741.444C260.122 747.838 273.63 749.173 293.083 745.924C300.202 744.734 306.307 743.588 306.65 743.376C307.404 742.91 320.163 739.42 331.139 736.678C343.45 733.602 359.015 730.766 402.139 723.739C415.889 721.499 429.164 719.265 431.639 718.775C434.114 718.285 437.264 717.682 438.639 717.435C440.014 717.188 443.614 716.474 446.639 715.848C449.664 715.222 453.601 714.704 455.387 714.698C457.173 714.691 458.41 714.322 458.136 713.878C457.312 712.545 467.246 711.603 469.486 712.801C470.598 713.396 471.705 713.883 471.945 713.883C473.417 713.883 473.504 703.026 472.174 685.509C471.333 674.44 470.159 659.026 469.565 651.257C468.924 642.882 468.77 630.059 469.187 619.757C469.839 603.63 469.755 602.226 468.014 600.2C466.983 599 459.389 595.106 451.139 591.549C442.889 587.991 433.664 583.915 430.639 582.491C425.324 579.989 424.497 579.902 406 579.893C389.21 579.884 386.609 580.098 384.812 581.633ZM268.468 590.388C267.76 591.096 271.322 603.966 272.573 605.217C274.589 607.233 274.878 600.852 273.004 595.683C271.259 590.868 269.749 589.106 268.468 590.388ZM311.183 606.811C310.482 607.946 314.221 609.26 315.646 608.378C316.21 608.03 316.413 607.326 316.096 606.814C315.352 605.61 311.927 605.608 311.183 606.811ZM352.639 632.383C352.639 632.658 352.864 632.883 353.139 632.883C353.414 632.883 353.639 632.658 353.639 632.383C353.639 632.108 353.414 631.883 353.139 631.883C352.864 631.883 352.639 632.108 352.639 632.383ZM385.639 644.383C384.921 645.248 384.824 645.883 385.41 645.883C385.968 645.883 386.684 645.208 387.001 644.383C387.317 643.558 387.42 642.883 387.23 642.883C387.04 642.883 386.324 643.558 385.639 644.383ZM385.639 647.383C385.639 647.658 385.864 647.883 386.139 647.883C386.414 647.883 386.639 647.658 386.639 647.383C386.639 647.108 386.414 646.883 386.139 646.883C385.864 646.883 385.639 647.108 385.639 647.383ZM260.639 670.383C260.639 670.658 260.864 670.883 261.139 670.883C261.414 670.883 261.639 670.658 261.639 670.383C261.639 670.108 261.414 669.883 261.139 669.883C260.864 669.883 260.639 670.108 260.639 670.383ZM393.972 682.55C394.339 682.916 394.939 682.916 395.306 682.55C395.672 682.183 395.372 681.883 394.639 681.883C393.906 681.883 393.606 682.183 393.972 682.55ZM257.639 690.383C257.639 690.658 257.864 690.883 258.139 690.883C258.414 690.883 258.639 690.658 258.639 690.383C258.639 690.108 258.414 689.883 258.139 689.883C257.864 689.883 257.639 690.108 257.639 690.383ZM404.139 691.883C404.479 692.433 404.955 692.883 405.198 692.883C405.441 692.883 405.639 692.433 405.639 691.883C405.639 691.333 405.162 690.883 404.58 690.883C403.998 690.883 403.799 691.333 404.139 691.883ZM410.139 691.883C410.479 692.433 410.982 692.883 411.257 692.883C411.532 692.883 411.479 692.433 411.139 691.883C410.799 691.333 410.296 690.883 410.021 690.883C409.746 690.883 409.799 691.333 410.139 691.883ZM345.639 706.383C345.639 706.658 345.864 706.883 346.139 706.883C346.414 706.883 346.639 706.658 346.639 706.383C346.639 706.108 346.414 705.883 346.139 705.883C345.864 705.883 345.639 706.108 345.639 706.383ZM396.639 710.383C396.639 710.658 396.864 710.883 397.139 710.883C397.414 710.883 397.639 710.658 397.639 710.383C397.639 710.108 397.414 709.883 397.139 709.883C396.864 709.883 396.639 710.108 396.639 710.383ZM581.389 716.545C582.077 716.823 583.202 716.823 583.889 716.545C584.577 716.268 584.014 716.041 582.639 716.041C581.264 716.041 580.702 716.268 581.389 716.545ZM472.683 721.633C472.707 723.696 473.116 728.743 473.591 732.849C474.964 744.712 477.766 745.69 498.639 741.592C511.701 739.028 538.964 734.08 543.639 733.426C546.114 733.08 553.089 731.932 559.139 730.876C577.43 727.684 594.807 724.926 600.917 724.245C606.559 723.616 608.631 722.614 606.724 721.436C606.203 721.114 605.521 721.265 605.207 721.773C604.382 723.107 600.439 721.847 600.985 720.423C601.337 719.506 600.315 719.519 596.613 720.48C593.956 721.169 590.895 721.501 589.812 721.218C588.73 720.935 586.861 721.229 585.659 721.872C583.847 722.842 583.223 722.73 581.994 721.212C581.114 720.125 580.326 719.819 580.052 720.456C579.798 721.046 578.224 721.329 576.555 721.084C574.362 720.762 573.679 720.222 574.094 719.14C574.543 717.97 574.173 717.8 572.404 718.364C571.158 718.761 567.439 719.467 564.139 719.932C560.839 720.398 557.464 720.957 556.639 721.174C555.814 721.392 554.014 721.856 552.639 722.206C550.402 722.775 525.818 728.007 502.519 732.873C493.048 734.851 490.992 735.716 488.399 738.808C486.127 741.517 482.368 741.445 479.28 738.633C477.284 736.816 476.695 735.094 476.221 729.69C475.352 719.806 472.588 713.51 472.683 721.633ZM619.452 719.566C620.173 719.855 621.036 719.819 621.368 719.487C621.7 719.155 621.11 718.919 620.056 718.962C618.891 719.01 618.654 719.247 619.452 719.566ZM573.368 722.487C573.036 722.819 572.173 722.855 571.452 722.566C570.654 722.247 570.891 722.01 572.056 721.962C573.11 721.919 573.7 722.155 573.368 722.487ZM610.452 722.566C611.173 722.855 612.036 722.819 612.368 722.487C612.7 722.155 612.11 721.919 611.056 721.962C609.891 722.01 609.654 722.247 610.452 722.566ZM470.139 737.883C470.479 738.433 470.982 738.883 471.257 738.883C471.532 738.883 471.479 738.433 471.139 737.883C470.799 737.333 470.296 736.883 470.021 736.883C469.746 736.883 469.799 737.333 470.139 737.883Z" fill="#005380"/>
</g>
<defs>
<clipPath id="clip0_1574_4730">
<rect width="782" height="800" fill="white"/>
</clipPath>
</defs>
</svg>
