<svg width="80" height="61" viewBox="0 0 80 61" fill="none" xmlns="http://www.w3.org/2000/svg">
<path d="M27.8354 10.6854C26.9002 10.6854 26.1109 11.3149 25.8643 12.1719H17.658L15.3741 9.88824H20.8816C21.1281 10.7453 21.9177 11.3748 22.8527 11.3748C23.9844 11.3748 24.9049 10.454 24.9049 9.32227C24.9049 8.19059 23.9844 7.26979 22.8527 7.26979C21.9175 7.26979 21.1279 7.8993 20.8816 8.75631H14.2422L12.7369 7.25098L7.25 12.7379L12.7369 18.2247L14.2422 16.7192H20.8813C21.1279 17.5762 21.9175 18.2057 22.8524 18.2057C23.9841 18.2057 24.9047 17.2849 24.9047 16.1532C24.9047 15.0215 23.9841 14.101 22.8524 14.101C21.9172 14.101 21.1276 14.7302 20.8813 15.5872H15.3741L17.6578 13.3036H25.8641C26.1106 14.1606 26.9 14.7899 27.8352 14.7899C28.9669 14.7899 29.8876 13.8693 29.8876 12.7376C29.8879 11.6059 28.9671 10.6854 27.8354 10.6854ZM22.8529 8.40148C23.3605 8.40148 23.7732 8.81447 23.7732 9.32203C23.7732 9.82959 23.3605 10.2426 22.8529 10.2426C22.3453 10.2426 21.9324 9.82959 21.9324 9.32203C21.9324 8.81447 22.3453 8.40148 22.8529 8.40148ZM22.8529 15.2329C23.3605 15.2329 23.7732 15.6456 23.7732 16.1532C23.7732 16.6608 23.3605 17.0738 22.8529 17.0738C22.3453 17.0738 21.9324 16.6608 21.9324 16.1532C21.9324 15.6456 22.3453 15.2329 22.8529 15.2329ZM12.7371 16.6241L8.85088 12.7379L12.7371 8.85161L16.6234 12.7379L12.7371 16.6241ZM27.8354 13.6582C27.3278 13.6582 26.9151 13.2454 26.9151 12.7379C26.9151 12.2303 27.3278 11.8173 27.8354 11.8173C28.343 11.8173 28.756 12.2303 28.756 12.7379C28.756 13.2452 28.343 13.6582 27.8354 13.6582Z" fill="url(#paint0_linear_1621_4820)"/>
<path d="M20.7337 17.4794H16.999L12.7379 21.7406L3.73498 12.7376L12.7379 3.73498L16.999 7.9961H20.734L12.7379 0L0 12.7376L12.7379 25.4753L20.7337 17.4794Z" fill="url(#paint1_linear_1621_4820)"/>
<path d="M27.8354 10.6854C26.9002 10.6854 26.1109 11.3149 25.8643 12.1719H17.658L15.3741 9.88824H20.8816C21.1281 10.7453 21.9177 11.3748 22.8527 11.3748C23.9844 11.3748 24.9049 10.454 24.9049 9.32227C24.9049 8.19059 23.9844 7.26979 22.8527 7.26979C21.9175 7.26979 21.1279 7.8993 20.8816 8.75631H14.2422L12.7369 7.25098L7.25 12.7379L12.7369 18.2247L14.2422 16.7192H20.8813C21.1279 17.5762 21.9175 18.2057 22.8524 18.2057C23.9841 18.2057 24.9047 17.2849 24.9047 16.1532C24.9047 15.0215 23.9841 14.101 22.8524 14.101C21.9172 14.101 21.1276 14.7302 20.8813 15.5872H15.3741L17.6578 13.3036H25.8641C26.1106 14.1606 26.9 14.7899 27.8352 14.7899C28.9669 14.7899 29.8876 13.8693 29.8876 12.7376C29.8879 11.6059 28.9671 10.6854 27.8354 10.6854ZM22.8529 8.40148C23.3605 8.40148 23.7732 8.81447 23.7732 9.32203C23.7732 9.82959 23.3605 10.2426 22.8529 10.2426C22.3453 10.2426 21.9324 9.82959 21.9324 9.32203C21.9324 8.81447 22.3453 8.40148 22.8529 8.40148ZM22.8529 15.2329C23.3605 15.2329 23.7732 15.6456 23.7732 16.1532C23.7732 16.6608 23.3605 17.0738 22.8529 17.0738C22.3453 17.0738 21.9324 16.6608 21.9324 16.1532C21.9324 15.6456 22.3453 15.2329 22.8529 15.2329ZM12.7371 16.6241L8.85088 12.7379L12.7371 8.85161L16.6234 12.7379L12.7371 16.6241ZM27.8354 13.6582C27.3278 13.6582 26.9151 13.2454 26.9151 12.7379C26.9151 12.2303 27.3278 11.8173 27.8354 11.8173C28.343 11.8173 28.756 12.2303 28.756 12.7379C28.756 13.2452 28.343 13.6582 27.8354 13.6582Z" fill="url(#paint2_linear_1621_4820)"/>
<path d="M20.7337 17.4794H16.999L12.7379 21.7406L3.73498 12.7376L12.7379 3.73498L16.999 7.9961H20.734L12.7379 0L0 12.7376L12.7379 25.4753L20.7337 17.4794Z" fill="url(#paint3_linear_1621_4820)"/>
<path d="M42.8755 19.7394C42.8755 20.5626 43.4296 21.2573 44.1839 21.4744V28.6975L42.1739 30.7078V25.8602C42.9282 25.6431 43.4823 24.9482 43.4823 24.1252C43.4823 23.1291 42.6718 22.3188 41.6757 22.3188C40.6796 22.3188 39.8691 23.1291 39.8691 24.1252C39.8691 24.9484 40.4232 25.6434 41.1775 25.8602V31.7041L39.8525 33.0291L44.6821 37.8586L49.5116 33.0291L48.1864 31.7041V25.8604C48.9408 25.6434 49.4948 24.9484 49.4948 24.1254C49.4948 23.1293 48.6844 22.319 47.6883 22.319C46.6922 22.319 45.8819 23.1293 45.8819 24.1254C45.8819 24.9486 46.4358 25.6436 47.1901 25.8604V30.7078L45.18 28.6977V21.4746C45.9344 21.2576 46.4882 20.5628 46.4882 19.7396C46.4882 18.7435 45.678 17.933 44.6819 17.933C43.6858 17.9328 42.8755 18.7433 42.8755 19.7394ZM40.8652 24.125C40.8652 23.6782 41.2287 23.3149 41.6755 23.3149C42.1222 23.3149 42.4857 23.6782 42.4857 24.125C42.4857 24.5717 42.1222 24.9353 41.6755 24.9353C41.2287 24.9353 40.8652 24.5717 40.8652 24.125ZM46.8782 24.125C46.8782 23.6782 47.2415 23.3149 47.6883 23.3149C48.135 23.3149 48.4985 23.6782 48.4985 24.125C48.4985 24.5717 48.135 24.9353 47.6883 24.9353C47.2415 24.9353 46.8782 24.5717 46.8782 24.125ZM48.1027 33.0289L44.6821 36.4496L41.2614 33.0289L44.6821 29.6082L48.1027 33.0289ZM45.4921 19.7394C45.4921 20.1862 45.1288 20.5495 44.6821 20.5495C44.2353 20.5495 43.8718 20.1862 43.8718 19.7394C43.8718 19.2927 44.2353 18.9291 44.6821 18.9291C45.1286 18.9291 45.4921 19.2927 45.4921 19.7394Z" fill="url(#paint4_linear_1621_4820)"/>
<path d="M42.8755 19.7394C42.8755 20.5626 43.4296 21.2573 44.1839 21.4744V28.6975L42.1739 30.7078V25.8602C42.9282 25.6431 43.4823 24.9482 43.4823 24.1252C43.4823 23.1291 42.6718 22.3188 41.6757 22.3188C40.6796 22.3188 39.8691 23.1291 39.8691 24.1252C39.8691 24.9484 40.4232 25.6434 41.1775 25.8602V31.7041L39.8525 33.0291L44.6821 37.8586L49.5116 33.0291L48.1864 31.7041V25.8604C48.9408 25.6434 49.4948 24.9484 49.4948 24.1254C49.4948 23.1293 48.6844 22.319 47.6883 22.319C46.6922 22.319 45.8819 23.1293 45.8819 24.1254C45.8819 24.9486 46.4358 25.6436 47.1901 25.8604V30.7078L45.18 28.6977V21.4746C45.9344 21.2576 46.4882 20.5628 46.4882 19.7396C46.4882 18.7435 45.678 17.933 44.6819 17.933C43.6858 17.9328 42.8755 18.7433 42.8755 19.7394ZM40.8652 24.125C40.8652 23.6782 41.2287 23.3149 41.6755 23.3149C42.1222 23.3149 42.4857 23.6782 42.4857 24.125C42.4857 24.5717 42.1222 24.9353 41.6755 24.9353C41.2287 24.9353 40.8652 24.5717 40.8652 24.125ZM46.8782 24.125C46.8782 23.6782 47.2415 23.3149 47.6883 23.3149C48.135 23.3149 48.4985 23.6782 48.4985 24.125C48.4985 24.5717 48.135 24.9353 47.6883 24.9353C47.2415 24.9353 46.8782 24.5717 46.8782 24.125ZM48.1027 33.0289L44.6821 36.4496L41.2614 33.0289L44.6821 29.6082L48.1027 33.0289ZM45.4921 19.7394C45.4921 20.1862 45.1288 20.5495 44.6821 20.5495C44.2353 20.5495 43.8718 20.1862 43.8718 19.7394C43.8718 19.2927 44.2353 18.9291 44.6821 18.9291C45.1286 18.9291 45.4921 19.2927 45.4921 19.7394Z" fill="url(#paint5_linear_1621_4820)"/>
<path d="M46.4858 46.0152C46.4858 45.192 45.9317 44.4972 45.1774 44.2802V37.0571L47.1875 35.0468V39.8944C46.4331 40.1114 45.879 40.8064 45.879 41.6294C45.879 42.6255 46.6895 43.4357 47.6856 43.4357C48.6817 43.4357 49.4922 42.6255 49.4922 41.6294C49.4922 40.8062 48.9381 40.1112 48.1838 39.8944V34.0505L49.5088 32.7255L44.6792 27.8959L39.8497 32.7255L41.1749 34.0505V39.8942C40.4206 40.1112 39.8665 40.8062 39.8665 41.6292C39.8665 42.6253 40.677 43.4355 41.6731 43.4355C42.6692 43.4355 43.4794 42.6253 43.4794 41.6292C43.4794 40.806 42.9256 40.111 42.1712 39.8942V35.0468L44.1813 37.0569V44.28C43.427 44.497 42.8731 45.1918 42.8731 46.015C42.8731 47.0111 43.6834 47.8215 44.6795 47.8215C45.6756 47.8218 46.4858 47.0113 46.4858 46.0152ZM48.4961 41.6296C48.4961 42.0763 48.1326 42.4396 47.6859 42.4396C47.2391 42.4396 46.8756 42.0763 46.8756 41.6296C46.8756 41.1828 47.2391 40.8193 47.6859 40.8193C48.1326 40.8193 48.4961 41.1828 48.4961 41.6296ZM42.4831 41.6296C42.4831 42.0763 42.1198 42.4396 41.6731 42.4396C41.2263 42.4396 40.8628 42.0763 40.8628 41.6296C40.8628 41.1828 41.2263 40.8193 41.6731 40.8193C42.1198 40.8193 42.4831 41.1828 42.4831 41.6296ZM41.2586 32.7257L44.6792 29.305L48.0999 32.7257L44.6792 36.1464L41.2586 32.7257ZM43.8692 46.0152C43.8692 45.5684 44.2325 45.2051 44.6792 45.2051C45.126 45.2051 45.4895 45.5684 45.4895 46.0152C45.4895 46.4619 45.126 46.8254 44.6792 46.8254C44.2327 46.8254 43.8692 46.4619 43.8692 46.0152Z" fill="url(#paint6_linear_1621_4820)"/>
<path d="M46.4858 46.0152C46.4858 45.192 45.9317 44.4972 45.1774 44.2802V37.0571L47.1875 35.0468V39.8944C46.4331 40.1114 45.879 40.8064 45.879 41.6294C45.879 42.6255 46.6895 43.4357 47.6856 43.4357C48.6817 43.4357 49.4922 42.6255 49.4922 41.6294C49.4922 40.8062 48.9381 40.1112 48.1838 39.8944V34.0505L49.5088 32.7255L44.6792 27.8959L39.8497 32.7255L41.1749 34.0505V39.8942C40.4206 40.1112 39.8665 40.8062 39.8665 41.6292C39.8665 42.6253 40.677 43.4355 41.6731 43.4355C42.6692 43.4355 43.4794 42.6253 43.4794 41.6292C43.4794 40.806 42.9256 40.111 42.1712 39.8942V35.0468L44.1813 37.0569V44.28C43.427 44.497 42.8731 45.1918 42.8731 46.015C42.8731 47.0111 43.6834 47.8215 44.6795 47.8215C45.6756 47.8218 46.4858 47.0113 46.4858 46.0152ZM48.4961 41.6296C48.4961 42.0763 48.1326 42.4396 47.6859 42.4396C47.2391 42.4396 46.8756 42.0763 46.8756 41.6296C46.8756 41.1828 47.2391 40.8193 47.6859 40.8193C48.1326 40.8193 48.4961 41.1828 48.4961 41.6296ZM42.4831 41.6296C42.4831 42.0763 42.1198 42.4396 41.6731 42.4396C41.2263 42.4396 40.8628 42.0763 40.8628 41.6296C40.8628 41.1828 41.2263 40.8193 41.6731 40.8193C42.1198 40.8193 42.4831 41.1828 42.4831 41.6296ZM41.2586 32.7257L44.6792 29.305L48.0999 32.7257L44.6792 36.1464L41.2586 32.7257ZM43.8692 46.0152C43.8692 45.5684 44.2325 45.2051 44.6792 45.2051C45.126 45.2051 45.4895 45.5684 45.4895 46.0152C45.4895 46.4619 45.126 46.8254 44.6792 46.8254C44.2327 46.8254 43.8692 46.4619 43.8692 46.0152Z" fill="url(#paint7_linear_1621_4820)"/>
<path d="M1.49414 47.9373V22.9144L12.6681 33.3406L23.4123 22.9144V47.9373L12.6681 58.7805L1.49414 47.9373Z" stroke="#015C8E" stroke-width="3"/>
<path d="M77.4083 59.273L64.6673 37.079L57.7551 51.3101L61.603 59.273H77.4083Z" stroke="url(#paint8_linear_1621_4820)" stroke-width="3"/>
<path d="M61.7464 3.49255L54.5995 25.1481V44.5003L55.9241 47.3434L77.585 3.49255H61.7464Z" stroke="url(#paint9_linear_1621_4820)" stroke-width="3"/>
<rect x="37.3633" y="3.49255" width="13.9368" height="55.7805" stroke="url(#paint10_linear_1621_4820)" stroke-width="3"/>
<defs>
<linearGradient id="paint0_linear_1621_4820" x1="7.25022" y1="12.7377" x2="29.8878" y2="12.7377" gradientUnits="userSpaceOnUse">
<stop stop-color="#EC5200"/>
<stop offset="1" stop-color="#7F2D00"/>
</linearGradient>
<linearGradient id="paint1_linear_1621_4820" x1="18.5445" y1="1.70269" x2="5.50922" y2="23.072" gradientUnits="userSpaceOnUse">
<stop stop-color="#009AEC"/>
<stop offset="1" stop-color="#005380"/>
</linearGradient>
<linearGradient id="paint2_linear_1621_4820" x1="7.25022" y1="12.7377" x2="29.8878" y2="12.7377" gradientUnits="userSpaceOnUse">
<stop stop-color="#009AEC"/>
<stop offset="1" stop-color="#005380"/>
</linearGradient>
<linearGradient id="paint3_linear_1621_4820" x1="18.5445" y1="1.70269" x2="5.50922" y2="23.072" gradientUnits="userSpaceOnUse">
<stop stop-color="#009AEC"/>
<stop offset="1" stop-color="#005380"/>
</linearGradient>
<linearGradient id="paint4_linear_1621_4820" x1="44.682" y1="37.8584" x2="44.682" y2="17.9329" gradientUnits="userSpaceOnUse">
<stop stop-color="#009AEC"/>
<stop offset="1" stop-color="#005380"/>
</linearGradient>
<linearGradient id="paint5_linear_1621_4820" x1="44.682" y1="37.8584" x2="44.682" y2="17.9329" gradientUnits="userSpaceOnUse">
<stop stop-color="#009AEC"/>
<stop offset="1" stop-color="#005380"/>
</linearGradient>
<linearGradient id="paint6_linear_1621_4820" x1="44.6794" y1="27.8961" x2="44.6794" y2="47.8217" gradientUnits="userSpaceOnUse">
<stop stop-color="#009AEC"/>
<stop offset="1" stop-color="#005380"/>
</linearGradient>
<linearGradient id="paint7_linear_1621_4820" x1="44.6794" y1="27.8961" x2="44.6794" y2="47.8217" gradientUnits="userSpaceOnUse">
<stop stop-color="#009AEC"/>
<stop offset="1" stop-color="#005380"/>
</linearGradient>
<linearGradient id="paint8_linear_1621_4820" x1="68.0437" y1="2.00004" x2="68.0437" y2="60.773" gradientUnits="userSpaceOnUse">
<stop stop-color="#009AEC"/>
<stop offset="1" stop-color="#005380"/>
</linearGradient>
<linearGradient id="paint9_linear_1621_4820" x1="66.5492" y1="1.99255" x2="66.5492" y2="61.002" gradientUnits="userSpaceOnUse">
<stop stop-color="#009AEC"/>
<stop offset="1" stop-color="#005380"/>
</linearGradient>
<linearGradient id="paint10_linear_1621_4820" x1="44.3317" y1="1.99255" x2="44.3317" y2="60.7731" gradientUnits="userSpaceOnUse">
<stop stop-color="#009AEC"/>
<stop offset="1" stop-color="#005380"/>
</linearGradient>
</defs>
</svg>
