<svg width="80" height="61" viewBox="0 0 80 61" fill="none" xmlns="http://www.w3.org/2000/svg">
<path d="M1.49414 47.9158V22.8929L12.6681 33.3191L23.4123 22.8929V47.9158L12.6681 58.759L1.49414 47.9158Z" stroke="#015C8E" stroke-width="3"/>
<path d="M77.4083 59.2516L64.6673 37.0575L57.7551 51.2886L61.603 59.2516H77.4083Z" stroke="url(#paint0_linear_1621_4803)" stroke-width="3"/>
<path d="M61.7464 3.47107L54.5995 25.1266V44.4788L55.9241 47.3219L77.585 3.47107H61.7464Z" stroke="url(#paint1_linear_1621_4803)" stroke-width="3"/>
<rect x="37.3633" y="3.47107" width="13.9368" height="55.7805" stroke="url(#paint2_linear_1621_4803)" stroke-width="3"/>
<rect x="1.90919" y="12.7285" width="15.3009" height="15.3" transform="rotate(-45 1.90919 12.7285)" stroke="url(#paint3_linear_1621_4803)" stroke-width="2.7"/>
<defs>
<linearGradient id="paint0_linear_1621_4803" x1="68.0437" y1="1.97855" x2="68.0437" y2="60.7516" gradientUnits="userSpaceOnUse">
<stop stop-color="#009AEC"/>
<stop offset="1" stop-color="#005380"/>
</linearGradient>
<linearGradient id="paint1_linear_1621_4803" x1="66.5492" y1="1.97107" x2="66.5492" y2="60.9805" gradientUnits="userSpaceOnUse">
<stop stop-color="#009AEC"/>
<stop offset="1" stop-color="#005380"/>
</linearGradient>
<linearGradient id="paint2_linear_1621_4803" x1="44.3317" y1="1.97107" x2="44.3317" y2="60.7516" gradientUnits="userSpaceOnUse">
<stop stop-color="#009AEC"/>
<stop offset="1" stop-color="#005380"/>
</linearGradient>
<linearGradient id="paint3_linear_1621_4803" x1="14.3189" y1="12.5517" x2="4.77297" y2="30.583" gradientUnits="userSpaceOnUse">
<stop stop-color="#009AEC"/>
<stop offset="1" stop-color="#005380"/>
</linearGradient>
</defs>
</svg>
