<svg width="641" height="488" viewBox="0 0 641 488" fill="none" xmlns="http://www.w3.org/2000/svg">
<path d="M224.141 85.275C216.678 85.275 210.379 90.2987 208.411 97.1381H142.921L124.694 78.9134H168.646C170.614 85.7528 176.915 90.7765 184.377 90.7765C193.408 90.7765 200.754 83.4281 200.754 74.3967C200.754 65.3653 193.408 58.0169 184.377 58.0169C176.913 58.0169 170.612 63.0406 168.646 69.88H115.661L103.647 57.8667L59.8594 101.655L103.647 145.443L115.661 133.428H168.644C170.612 140.267 176.913 145.291 184.375 145.291C193.406 145.291 200.752 137.942 200.752 128.911C200.752 119.88 193.406 112.533 184.375 112.533C176.911 112.533 170.61 117.555 168.644 124.394H124.694L142.919 106.17H208.409C210.377 113.009 216.676 118.031 224.139 118.031C233.171 118.031 240.519 110.684 240.519 101.653C240.521 92.6214 233.173 85.275 224.141 85.275ZM184.378 67.0483C188.429 67.0483 191.723 70.3442 191.723 74.3947C191.723 78.4453 188.429 81.7412 184.378 81.7412C180.328 81.7412 177.032 78.4453 177.032 74.3947C177.032 70.3442 180.328 67.0483 184.378 67.0483ZM184.378 121.566C188.429 121.566 191.723 124.86 191.723 128.911C191.723 132.962 188.429 136.257 184.378 136.257C180.328 136.257 177.032 132.962 177.032 128.911C177.032 124.86 180.328 121.566 184.378 121.566ZM103.649 132.669L72.6352 101.655L103.649 70.6406L134.664 101.655L103.649 132.669ZM224.141 108.999C220.091 108.999 216.797 105.705 216.797 101.655C216.797 97.6042 220.091 94.3084 224.141 94.3084C228.192 94.3084 231.488 97.6042 231.488 101.655C231.488 105.703 228.192 108.999 224.141 108.999Z" fill="url(#paint0_linear_1321_1568)"/>
<path d="M167.466 139.495H137.661L103.655 173.501L31.8071 101.653L103.655 29.807L137.661 63.8129H167.468L103.655 0L2 101.653L103.655 203.306L167.466 139.495Z" fill="url(#paint1_linear_1321_1568)"/>
<path d="M224.141 85.275C216.678 85.275 210.379 90.2987 208.411 97.1381H142.921L124.694 78.9134H168.646C170.614 85.7528 176.915 90.7765 184.377 90.7765C193.408 90.7765 200.754 83.4281 200.754 74.3967C200.754 65.3653 193.408 58.0169 184.377 58.0169C176.913 58.0169 170.612 63.0406 168.646 69.88H115.661L103.647 57.8667L59.8594 101.655L103.647 145.443L115.661 133.428H168.644C170.612 140.267 176.913 145.291 184.375 145.291C193.406 145.291 200.752 137.942 200.752 128.911C200.752 119.88 193.406 112.533 184.375 112.533C176.911 112.533 170.61 117.555 168.644 124.394H124.694L142.919 106.17H208.409C210.377 113.009 216.676 118.031 224.139 118.031C233.171 118.031 240.519 110.684 240.519 101.653C240.521 92.6214 233.173 85.275 224.141 85.275ZM184.378 67.0483C188.429 67.0483 191.723 70.3442 191.723 74.3947C191.723 78.4453 188.429 81.7412 184.378 81.7412C180.328 81.7412 177.032 78.4453 177.032 74.3947C177.032 70.3442 180.328 67.0483 184.378 67.0483ZM184.378 121.566C188.429 121.566 191.723 124.86 191.723 128.911C191.723 132.962 188.429 136.257 184.378 136.257C180.328 136.257 177.032 132.962 177.032 128.911C177.032 124.86 180.328 121.566 184.378 121.566ZM103.649 132.669L72.6352 101.655L103.649 70.6406L134.664 101.655L103.649 132.669ZM224.141 108.999C220.091 108.999 216.797 105.705 216.797 101.655C216.797 97.6042 220.091 94.3084 224.141 94.3084C228.192 94.3084 231.488 97.6042 231.488 101.655C231.488 105.703 228.192 108.999 224.141 108.999Z" fill="url(#paint2_linear_1321_1568)"/>
<path d="M167.466 139.495H137.661L103.655 173.501L31.8071 101.653L103.655 29.807L137.661 63.8129H167.468L103.655 0L2 101.653L103.655 203.306L167.466 139.495Z" fill="url(#paint3_linear_1321_1568)"/>
<path d="M344.156 157.531C344.156 164.1 348.578 169.644 354.598 171.376V229.021L338.556 245.064V206.377C344.577 204.645 348.998 199.099 348.998 192.531C348.998 184.582 342.53 178.116 334.581 178.116C326.631 178.116 320.163 184.582 320.163 192.531C320.163 199.101 324.585 204.647 330.605 206.377V253.015L320.031 263.589L358.573 302.131L397.116 263.589L386.54 253.015V206.379C392.56 204.647 396.982 199.101 396.982 192.533C396.982 184.584 390.514 178.117 382.564 178.117C374.615 178.117 368.148 184.584 368.148 192.533C368.148 199.102 372.569 204.649 378.589 206.379V245.064L362.547 229.022V171.378C368.567 169.646 372.988 164.102 372.988 157.532C372.988 149.583 366.521 143.115 358.572 143.115C350.622 143.113 344.156 149.581 344.156 157.531ZM328.113 192.53C328.113 188.964 331.014 186.065 334.579 186.065C338.145 186.065 341.046 188.964 341.046 192.53C341.046 196.095 338.145 198.996 334.579 198.996C331.014 198.996 328.113 196.095 328.113 192.53ZM376.1 192.53C376.1 188.964 378.999 186.065 382.564 186.065C386.13 186.065 389.031 188.964 389.031 192.53C389.031 196.095 386.13 198.996 382.564 198.996C378.999 198.996 376.1 196.095 376.1 192.53ZM385.872 263.587L358.573 290.886L331.275 263.587L358.573 236.289L385.872 263.587ZM365.038 157.531C365.038 161.096 362.139 163.995 358.573 163.995C355.008 163.995 352.107 161.096 352.107 157.531C352.107 153.965 355.008 151.064 358.573 151.064C362.137 151.064 365.038 153.965 365.038 157.531Z" fill="url(#paint4_linear_1321_1568)"/>
<path d="M344.156 157.531C344.156 164.1 348.578 169.644 354.598 171.376V229.021L338.556 245.064V206.377C344.577 204.645 348.998 199.099 348.998 192.531C348.998 184.582 342.53 178.116 334.581 178.116C326.631 178.116 320.163 184.582 320.163 192.531C320.163 199.101 324.585 204.647 330.605 206.377V253.015L320.031 263.589L358.573 302.131L397.116 263.589L386.54 253.015V206.379C392.56 204.647 396.982 199.101 396.982 192.533C396.982 184.584 390.514 178.117 382.564 178.117C374.615 178.117 368.148 184.584 368.148 192.533C368.148 199.102 372.569 204.649 378.589 206.379V245.064L362.547 229.022V171.378C368.567 169.646 372.988 164.102 372.988 157.532C372.988 149.583 366.521 143.115 358.572 143.115C350.622 143.113 344.156 149.581 344.156 157.531ZM328.113 192.53C328.113 188.964 331.014 186.065 334.579 186.065C338.145 186.065 341.046 188.964 341.046 192.53C341.046 196.095 338.145 198.996 334.579 198.996C331.014 198.996 328.113 196.095 328.113 192.53ZM376.1 192.53C376.1 188.964 378.999 186.065 382.564 186.065C386.13 186.065 389.031 188.964 389.031 192.53C389.031 196.095 386.13 198.996 382.564 198.996C378.999 198.996 376.1 196.095 376.1 192.53ZM385.872 263.587L358.573 290.886L331.275 263.587L358.573 236.289L385.872 263.587ZM365.038 157.531C365.038 161.096 362.139 163.995 358.573 163.995C355.008 163.995 352.107 161.096 352.107 157.531C352.107 153.965 355.008 151.064 358.573 151.064C362.137 151.064 365.038 153.965 365.038 157.531Z" fill="url(#paint5_linear_1321_1568)"/>
<path d="M372.991 367.224C372.991 360.654 368.569 355.11 362.549 353.378V295.733L378.59 279.69V318.377C372.57 320.109 368.148 325.655 368.148 332.223C368.148 340.172 374.616 346.638 382.566 346.638C390.515 346.638 396.983 340.172 396.983 332.223C396.983 325.653 392.561 320.107 386.541 318.377V271.739L397.115 261.165L358.573 222.623L320.031 261.165L330.607 271.739V318.375C324.587 320.107 320.165 325.653 320.165 332.221C320.165 340.17 326.633 346.637 334.582 346.637C342.532 346.637 348.998 340.17 348.998 332.221C348.998 325.652 344.578 320.105 338.558 318.375V279.69L354.599 295.732V353.376C348.579 355.108 344.159 360.653 344.159 367.222C344.159 375.171 350.625 381.639 358.575 381.639C366.524 381.641 372.991 375.173 372.991 367.224ZM389.034 332.224C389.034 335.79 386.133 338.689 382.567 338.689C379.002 338.689 376.101 335.79 376.101 332.224C376.101 328.659 379.002 325.758 382.567 325.758C386.133 325.758 389.034 328.659 389.034 332.224ZM341.047 332.224C341.047 335.79 338.148 338.689 334.582 338.689C331.017 338.689 328.116 335.79 328.116 332.224C328.116 328.659 331.017 325.758 334.582 325.758C338.148 325.758 341.047 328.659 341.047 332.224ZM331.274 261.167L358.573 233.868L385.872 261.167L358.573 288.465L331.274 261.167ZM352.108 367.224C352.108 363.658 355.008 360.759 358.573 360.759C362.138 360.759 365.039 363.658 365.039 367.224C365.039 370.789 362.138 373.69 358.573 373.69C355.009 373.69 352.108 370.789 352.108 367.224Z" fill="url(#paint6_linear_1321_1568)"/>
<path d="M372.991 367.224C372.991 360.654 368.569 355.11 362.549 353.378V295.733L378.59 279.69V318.377C372.57 320.109 368.148 325.655 368.148 332.223C368.148 340.172 374.616 346.638 382.566 346.638C390.515 346.638 396.983 340.172 396.983 332.223C396.983 325.653 392.561 320.107 386.541 318.377V271.739L397.115 261.165L358.573 222.623L320.031 261.165L330.607 271.739V318.375C324.587 320.107 320.165 325.653 320.165 332.221C320.165 340.17 326.633 346.637 334.582 346.637C342.532 346.637 348.998 340.17 348.998 332.221C348.998 325.652 344.578 320.105 338.558 318.375V279.69L354.599 295.732V353.376C348.579 355.108 344.159 360.653 344.159 367.222C344.159 375.171 350.625 381.639 358.575 381.639C366.524 381.641 372.991 375.173 372.991 367.224ZM389.034 332.224C389.034 335.79 386.133 338.689 382.567 338.689C379.002 338.689 376.101 335.79 376.101 332.224C376.101 328.659 379.002 325.758 382.567 325.758C386.133 325.758 389.034 328.659 389.034 332.224ZM341.047 332.224C341.047 335.79 338.148 338.689 334.582 338.689C331.017 338.689 328.116 335.79 328.116 332.224C328.116 328.659 331.017 325.758 334.582 325.758C338.148 325.758 341.047 328.659 341.047 332.224ZM331.274 261.167L358.573 233.868L385.872 261.167L358.573 288.465L331.274 261.167ZM352.108 367.224C352.108 363.658 355.008 360.759 358.573 360.759C362.138 360.759 365.039 363.658 365.039 367.224C365.039 370.789 362.138 373.69 358.573 373.69C355.009 373.69 352.108 370.789 352.108 367.224Z" fill="url(#paint7_linear_1321_1568)"/>
<path d="M13.9277 382.564V182.869L103.102 266.075L188.846 182.869V382.564L103.102 469.098L13.9277 382.564Z" stroke="#015C8E" stroke-width="26"/>
<path d="M618.008 472L518.182 298.109L464.087 409.482L494.297 472H618.008Z" stroke="url(#paint8_linear_1321_1568)" stroke-width="26"/>
<path d="M495.54 28.9015L438.789 200.86V354.907L448.358 375.445L619.54 28.9015H495.54Z" stroke="url(#paint9_linear_1321_1568)" stroke-width="26"/>
<rect x="301.23" y="28.9015" width="109.164" height="443.098" stroke="url(#paint10_linear_1321_1568)" stroke-width="26"/>
<defs>
<linearGradient id="paint0_linear_1321_1568" x1="59.8611" y1="101.654" x2="240.521" y2="101.654" gradientUnits="userSpaceOnUse">
<stop stop-color="#EC5200"/>
<stop offset="1" stop-color="#7F2D00"/>
</linearGradient>
<linearGradient id="paint1_linear_1321_1568" x1="149.995" y1="13.5883" x2="45.9664" y2="184.126" gradientUnits="userSpaceOnUse">
<stop stop-color="#009AEC"/>
<stop offset="1" stop-color="#005380"/>
</linearGradient>
<linearGradient id="paint2_linear_1321_1568" x1="59.8611" y1="101.654" x2="240.521" y2="101.654" gradientUnits="userSpaceOnUse">
<stop stop-color="#EC5200"/>
<stop offset="1" stop-color="#7F2D00"/>
</linearGradient>
<linearGradient id="paint3_linear_1321_1568" x1="149.995" y1="13.5883" x2="45.9664" y2="184.126" gradientUnits="userSpaceOnUse">
<stop stop-color="#009AEC"/>
<stop offset="1" stop-color="#005380"/>
</linearGradient>
<linearGradient id="paint4_linear_1321_1568" x1="358.572" y1="302.13" x2="358.572" y2="143.113" gradientUnits="userSpaceOnUse">
<stop stop-color="#EC5200"/>
<stop offset="1" stop-color="#7F2D00"/>
</linearGradient>
<linearGradient id="paint5_linear_1321_1568" x1="358.572" y1="302.13" x2="358.572" y2="143.113" gradientUnits="userSpaceOnUse">
<stop stop-color="#EC5200"/>
<stop offset="1" stop-color="#7F2D00"/>
</linearGradient>
<linearGradient id="paint6_linear_1321_1568" x1="358.574" y1="222.624" x2="358.574" y2="381.641" gradientUnits="userSpaceOnUse">
<stop stop-color="#EC5200"/>
<stop offset="1" stop-color="#7F2D00"/>
</linearGradient>
<linearGradient id="paint7_linear_1321_1568" x1="358.574" y1="222.624" x2="358.574" y2="381.641" gradientUnits="userSpaceOnUse">
<stop stop-color="#EC5200"/>
<stop offset="1" stop-color="#7F2D00"/>
</linearGradient>
<linearGradient id="paint8_linear_1321_1568" x1="545.051" y1="270.328" x2="545.051" y2="485" gradientUnits="userSpaceOnUse">
<stop stop-color="#009AEC"/>
<stop offset="1" stop-color="#005380"/>
</linearGradient>
<linearGradient id="paint9_linear_1321_1568" x1="533.125" y1="15.9015" x2="533.125" y2="405.492" gradientUnits="userSpaceOnUse">
<stop stop-color="#009AEC"/>
<stop offset="1" stop-color="#005380"/>
</linearGradient>
<linearGradient id="paint10_linear_1321_1568" x1="355.812" y1="15.9015" x2="355.812" y2="485" gradientUnits="userSpaceOnUse">
<stop stop-color="#009AEC"/>
<stop offset="1" stop-color="#005380"/>
</linearGradient>
</defs>
</svg>
