<svg width="201" height="200" viewBox="0 0 201 200" fill="none" xmlns="http://www.w3.org/2000/svg">
<path fill-rule="evenodd" clip-rule="evenodd" d="M80.1871 36C65.5384 36.3459 51.6061 42.4081 41.368 52.8907C31.13 63.3734 25.3984 77.445 25.3984 92.0978C25.3984 106.751 31.13 120.822 41.368 131.305C51.6061 141.787 65.5384 147.85 80.1871 148.195H82.6894V103.718C82.6894 100.402 85.2229 96.1483 88.5697 96.1483H136.113C136.113 94.3029 136.3 93.0205 136.3 92.0196C136.226 77.1689 130.288 62.9489 119.778 52.4566C109.268 41.9642 95.0379 36.0493 80.1871 36ZM124.978 87.2965H110.527C110.252 75.6471 107.546 64.1836 102.582 53.641C108.661 57.1406 113.846 62.0005 117.731 67.8396C121.617 73.6787 124.097 80.3383 124.978 87.2965ZM73.775 50.4193V87.2965H60.9509C61.9205 69.7181 67.4568 55.8305 73.775 50.4193ZM73.775 96.899V133.745C67.5194 128.334 61.9205 114.509 60.9509 96.899H73.775ZM86.5992 87.2965V50.4193C92.8548 55.8305 98.4849 69.7181 99.4233 87.2965H86.5992ZM57.7605 53.641C52.8819 64.2117 50.1902 75.6594 49.8471 87.2965H35.3026C36.1808 80.3297 38.6669 73.6625 42.5645 67.8216C46.462 61.9806 51.6644 57.1259 57.7605 53.641ZM35.3339 98.4942H49.8784C50.1466 110.107 52.831 121.537 57.7605 132.056C51.685 128.573 46.4985 123.73 42.6077 117.907C38.7168 112.085 36.2272 105.44 35.3339 98.4942Z" fill="#009AEC" fill-opacity="0.6"/>
<path fill-rule="evenodd" clip-rule="evenodd" d="M167.579 105.657H99.4856C97.4117 105.657 95.4228 106.481 93.9563 107.947C92.4899 109.414 91.666 111.403 91.666 113.477V151.48C91.666 153.554 92.4899 155.543 93.9563 157.009C95.4228 158.476 97.4117 159.299 99.4856 159.299H167.579C169.652 159.299 171.641 158.476 173.108 157.009C174.574 155.543 175.398 153.554 175.398 151.48V113.477C175.398 111.403 174.574 109.414 173.108 107.947C171.641 106.481 169.652 105.657 167.579 105.657ZM108.65 151.48C108.683 150.28 108.48 149.086 108.052 147.965C107.623 146.844 106.978 145.819 106.153 144.947C105.328 144.076 104.34 143.376 103.244 142.886C102.148 142.397 100.967 142.129 99.7671 142.096H99.5169V122.672C101.937 122.731 104.282 121.83 106.04 120.166C107.799 118.502 108.827 116.209 108.9 113.789V113.57H158.351C158.351 115.963 159.293 118.259 160.973 119.963C162.653 121.666 164.936 122.64 167.328 122.672H167.579V142.221C166.375 142.192 165.177 142.401 164.054 142.835C162.931 143.268 161.905 143.919 161.033 144.75C160.162 145.581 159.463 146.575 158.976 147.676C158.489 148.777 158.224 149.963 158.195 151.167V151.449L108.65 151.48Z" fill="#009AEC" fill-opacity="0.6"/>
<path d="M133.518 144.943C140.773 144.943 146.655 139.061 146.655 131.806C146.655 124.55 140.773 118.669 133.518 118.669C126.262 118.669 120.381 124.55 120.381 131.806C120.381 139.061 126.262 144.943 133.518 144.943Z" fill="#009AEC" fill-opacity="0.6"/>
</svg>
