<svg width="200" height="200" viewBox="0 0 200 200" fill="none" xmlns="http://www.w3.org/2000/svg">
<path d="M177.166 10H22.8342C17.0434 10 11.4898 12.2979 7.3951 16.3883C3.30039 20.4787 1 26.0264 1 31.8111V140.189C1 145.974 3.30039 151.521 7.3951 155.612C11.4898 159.702 17.0434 162 22.8342 162H177.166C182.957 162 188.51 159.702 192.605 155.612C196.7 151.521 199 145.974 199 140.189V31.8111C199 26.0264 196.7 20.4787 192.605 16.3883C188.51 12.2979 182.957 10 177.166 10ZM22.8342 18.2638H177.166C180.763 18.2638 184.212 19.6911 186.755 22.2317C189.299 24.7723 190.727 28.2181 190.727 31.8111V41.5651H9.2726V31.8111C9.2726 28.2181 10.7014 24.7723 13.2447 22.2317C15.788 19.6911 19.2375 18.2638 22.8342 18.2638ZM177.166 153.736H22.8342C19.2375 153.736 15.788 152.309 13.2447 149.768C10.7014 147.228 9.2726 143.782 9.2726 140.189V49.8289H190.727V140.189C190.727 141.968 190.377 143.73 189.695 145.373C189.014 147.017 188.015 148.51 186.755 149.768C185.496 151.026 184.001 152.024 182.356 152.705C180.71 153.386 178.947 153.736 177.166 153.736Z" fill="#009AEC" fill-opacity="0.6"/>
<path d="M21.1011 33.7986C21.7873 33.8591 22.4758 33.7098 23.0753 33.3703C23.6748 33.0309 24.157 32.5174 24.4581 31.8977C24.7592 31.2781 24.8649 30.5816 24.7614 29.9006C24.6578 29.2195 24.3498 28.5859 23.8781 28.0838C23.4064 27.5817 22.7933 27.2347 22.12 27.0888C21.4468 26.9429 20.745 27.005 20.1078 27.2668C19.4706 27.5287 18.928 27.9779 18.5518 28.555C18.1755 29.1321 17.9835 29.8099 18.0011 30.4986C18.0224 31.3333 18.3502 32.131 18.9219 32.7396C19.4936 33.3482 20.2693 33.7251 21.1011 33.7986Z" fill="#009AEC" fill-opacity="0.6"/>
<path d="M29.6022 33.7986C30.2828 33.8183 30.9536 33.6333 31.5278 33.2674C32.102 32.9015 32.5531 32.3717 32.8228 31.7465C33.0924 31.1213 33.1682 30.4296 33.0402 29.7609C32.9122 29.0922 32.5864 28.4773 32.1049 27.9958C31.6235 27.5144 31.0086 27.1886 30.3399 27.0606C29.6712 26.9326 28.9794 27.0084 28.3543 27.278C27.7291 27.5476 27.1992 27.9988 26.8334 28.573C26.4675 29.1472 26.2825 29.818 26.3022 30.4986C26.3274 31.3658 26.6831 32.1907 27.2966 32.8042C27.9101 33.4177 28.735 33.7734 29.6022 33.7986Z" fill="#009AEC" fill-opacity="0.6"/>
<path d="M38.0026 33.7986C38.6832 33.8183 39.354 33.6333 39.9282 33.2674C40.5024 32.9015 40.9535 32.3717 41.2232 31.7465C41.4928 31.1213 41.5685 30.4296 41.4406 29.7609C41.3126 29.0922 40.9868 28.4773 40.5053 27.9958C40.0239 27.5144 39.409 27.1886 38.7403 27.0606C38.0716 26.9326 37.3798 27.0084 36.7546 27.278C36.1295 27.5476 35.5996 27.9988 35.2338 28.573C34.8679 29.1472 34.6829 29.818 34.7026 30.4986C34.7278 31.3658 35.0835 32.1907 35.697 32.8042C36.3105 33.4177 37.1353 33.7734 38.0026 33.7986Z" fill="#009AEC" fill-opacity="0.6"/>
<path d="M110 89.7001L106.1 98.5001L102.1 89.7001C102.1 89.7001 102.1 89.7001 101.4 89.0001C100.7 88.3001 101.4 88.4001 100.6 88.2001C100.6 88.2001 99.9002 88.2001 99.5002 88.2001C99.1135 88.0542 98.6869 88.0542 98.3002 88.2001C98.3002 88.2001 97.7002 88.8001 97.5002 89.0001C97.3002 89.2001 96.9002 89.0001 96.7002 89.7001L92.8002 98.5001L88.9002 89.7001C88.7591 89.2696 88.5281 88.8739 88.2226 88.5394C87.9171 88.2048 87.544 87.9389 87.1281 87.7593C86.7121 87.5797 86.2628 87.4904 85.8098 87.4975C85.3568 87.5045 84.9104 87.6077 84.5002 87.8001C84.1373 87.9621 83.8101 88.1945 83.5377 88.484C83.2654 88.7735 83.0532 89.1142 82.9137 89.4864C82.7741 89.8586 82.7099 90.2547 82.7248 90.6519C82.7396 91.0491 82.8333 91.4394 83.0002 91.8001L90.0002 107.8C90.335 108.382 90.8181 108.865 91.4002 109.2H92.6002H93.8002C94.4192 108.88 94.9381 108.395 95.3002 107.8L99.2002 98.9001L103.2 107.8C103.535 108.382 104.018 108.865 104.6 109.2C105.028 109.302 105.473 109.302 105.9 109.2H107.1C107.682 108.865 108.165 108.382 108.5 107.8L115.3 92.7001C115.604 91.956 115.607 91.123 115.309 90.3768C115.01 89.6305 114.433 89.0294 113.7 88.7001C113.064 88.409 112.345 88.3496 111.67 88.5322C110.994 88.7148 110.403 89.128 110 89.7001Z" fill="#009AEC" fill-opacity="0.6"/>
<path d="M144.2 89.6999L140.3 98.4999L136.3 89.6999C136.3 89.6999 135.8 89.6999 135.6 88.9999C135.4 88.2999 135.6 88.3999 134.8 88.1999C134.413 88.054 133.986 88.054 133.6 88.1999C133.6 88.1999 132.9 88.1999 132.5 88.1999C132.5 88.1999 132 88.6999 131.7 88.9999C131.4 89.2999 131.1 88.9999 131 89.6999L127 98.4999L123.1 89.6999C122.938 89.3369 122.705 89.0097 122.416 88.7374C122.126 88.465 121.785 88.2529 121.413 88.1133C121.041 87.9738 120.645 87.9095 120.248 87.9244C119.851 87.9393 119.46 88.0329 119.1 88.1999C118.728 88.3524 118.39 88.5781 118.108 88.8634C117.825 89.1488 117.602 89.4881 117.453 89.8612C117.304 90.2343 117.231 90.6336 117.239 91.0353C117.247 91.437 117.336 91.8331 117.5 92.1999L124.1 107.8C124.434 108.382 124.917 108.865 125.5 109.2H126.7C127.127 109.302 127.572 109.302 128 109.2C128.802 108.966 129.505 108.474 130 107.8L134 98.8999L137.9 107.8C138.234 108.382 138.717 108.865 139.3 109.2C139.728 109.292 140.171 109.292 140.6 109.2H141.8C142.41 108.868 142.926 108.386 143.3 107.8L150 92.1999C150.164 91.8331 150.252 91.437 150.26 91.0353C150.268 90.6336 150.196 90.2343 150.046 89.8612C149.897 89.4881 149.674 89.1488 149.392 88.8634C149.109 88.5781 148.771 88.3524 148.4 88.1999C148.03 88.0001 147.622 87.8804 147.202 87.8485C146.783 87.8166 146.362 87.8732 145.966 88.0146C145.57 88.1561 145.208 88.3792 144.903 88.6695C144.599 88.9598 144.359 89.3109 144.2 89.6999Z" fill="#009AEC" fill-opacity="0.6"/>
<path d="M75.6 89.7001L71.7 98.5001L67.8 89.7001C67.5784 89.4462 67.3059 89.2417 67 89.1001C66.8891 88.5884 66.6069 88.1298 66.2 87.8001C65.8133 87.6543 65.3867 87.6543 65 87.8001C65 87.8001 64.3 87.8001 63.9 87.8001L63.1 88.6001C63.1 88.6001 62.5 88.6001 62.4 89.3001L58.4 98.1001L54.5 89.3001C54.3485 88.8681 54.1001 88.4764 53.7738 88.1552C53.4476 87.834 53.0521 87.5917 52.6178 87.4469C52.1834 87.3021 51.7217 87.2587 51.2679 87.3199C50.8142 87.3811 50.3805 87.5454 50 87.8001C49.2668 88.1294 48.6901 88.7305 48.3916 89.4768C48.0931 90.223 48.0961 91.056 48.4 91.8001L55.5 107.8C55.8348 108.382 56.3178 108.865 56.9 109.2H58.1C58.5274 109.302 58.9727 109.302 59.4 109.2H60C60.436 108.816 60.7781 108.337 61 107.8L65 98.9001L68.9 107.8C69.2348 108.382 69.7178 108.865 70.3 109.2H71.5H72.7C73.4292 108.929 74.0575 108.44 74.5 107.8L81.2 92.7001C81.5453 92.3358 81.7937 91.8906 81.9224 91.4054C82.051 90.9202 82.0559 90.4104 81.9365 89.9228C81.8171 89.4352 81.5772 88.9854 81.2389 88.6146C80.9006 88.2437 80.4746 87.9637 80 87.8001C79.5899 87.6077 79.1435 87.5045 78.6905 87.4975C78.2375 87.4904 77.7881 87.5797 77.3722 87.7593C76.9562 87.9389 76.5831 88.2048 76.2776 88.5394C75.9721 88.874 75.7412 89.2696 75.6 89.7001Z" fill="#009AEC" fill-opacity="0.6"/>
</svg>
