<svg width="102" height="102" viewBox="0 0 102 102" fill="none" xmlns="http://www.w3.org/2000/svg">
<g clip-path="url(#clip0_3_2)">
<path fill-rule="evenodd" clip-rule="evenodd" d="M37.1305 8.53003C27.2114 8.76426 17.7773 12.8692 10.8448 19.9673C3.91227 27.0655 0.03125 36.5938 0.03125 46.5157C0.03125 56.4376 3.91227 65.9659 10.8448 73.064C17.7773 80.1622 27.2114 84.2671 37.1305 84.5013H38.8249V54.3839C38.8249 52.1389 40.5404 49.2584 42.8066 49.2584H74.9996C74.9996 48.0088 75.1267 47.1405 75.1267 46.4627C75.0765 36.4068 71.0552 26.7781 63.9386 19.6733C56.8219 12.5686 47.1864 8.56342 37.1305 8.53003ZM67.4597 43.2646H57.6747C57.4886 35.3764 55.6562 27.6141 52.2951 20.4753C56.4108 22.8451 59.9218 26.1358 62.5528 30.0897C65.1838 34.0435 66.8633 38.553 67.4597 43.2646ZM32.7887 18.2938V43.2646H24.105C24.7616 31.3617 28.5104 21.9579 32.7887 18.2938ZM32.7887 49.7668V74.7164C28.5527 71.0523 24.7616 61.6909 24.105 49.7668H32.7887ZM41.4723 43.2646V18.2938C45.7082 21.9579 49.5206 31.3617 50.1559 43.2646H41.4723ZM21.9447 20.4753C18.6412 27.6331 16.8186 35.3847 16.5862 43.2646H6.73772C7.33236 38.5472 9.01576 34.0326 11.6549 30.0775C14.2941 26.1224 17.8168 22.8351 21.9447 20.4753ZM6.7589 50.8469H16.6074C16.7891 58.7106 18.6067 66.4502 21.9447 73.5727C17.8307 71.2142 14.3188 67.9351 11.6842 63.9923C9.04955 60.0495 7.36375 55.5502 6.7589 50.8469Z" fill="#EDEDED"/>
<path fill-rule="evenodd" clip-rule="evenodd" d="M96.304 55.697H50.1959C48.7916 55.697 47.4448 56.2549 46.4518 57.2479C45.4589 58.2409 44.901 59.5876 44.901 60.9919V86.7252C44.901 88.1295 45.4589 89.4762 46.4518 90.4692C47.4448 91.4622 48.7916 92.0201 50.1959 92.0201H96.304C97.7083 92.0201 99.055 91.4622 100.048 90.4692C101.041 89.4762 101.599 88.1295 101.599 86.7252V60.9919C101.599 59.5876 101.041 58.2409 100.048 57.2479C99.055 56.2549 97.7083 55.697 96.304 55.697ZM56.4015 86.7252C56.4241 85.9129 56.2864 85.1042 55.9962 84.3452C55.7061 83.5863 55.2693 82.8919 54.7107 82.3018C54.1521 81.7117 53.4826 81.2375 52.7407 80.9063C51.9987 80.575 51.1988 80.3932 50.3865 80.3713H50.2171V67.2187C51.8559 67.2587 53.444 66.6485 54.6344 65.5215C55.8249 64.3945 56.5211 62.8423 56.571 61.2037V61.0555H90.056C90.0558 62.6755 90.6935 64.2304 91.8311 65.3839C92.9687 66.5373 94.5146 67.1965 96.1345 67.2187H96.304V80.456C95.489 80.4363 94.6781 80.5774 93.9176 80.8712C93.1572 81.1649 92.462 81.6057 91.872 82.1682C91.2819 82.7307 90.8085 83.404 90.4787 84.1496C90.1489 84.8951 89.9693 85.6984 89.9501 86.5134V86.704L56.4015 86.7252Z" fill="#EDEDED"/>
<path d="M73.2444 82.2986C78.1573 82.2986 82.1399 78.3159 82.1399 73.4031C82.1399 68.4903 78.1573 64.5077 73.2444 64.5077C68.3316 64.5077 64.349 68.4903 64.349 73.4031C64.349 78.3159 68.3316 82.2986 73.2444 82.2986Z" fill="#EDEDED"/>
</g>
<defs>
<clipPath id="clip0_3_2">
<rect width="101.57" height="101.57" fill="white"/>
</clipPath>
</defs>
</svg>
