<svg width="40" height="40" viewBox="0 0 40 40" fill="none" xmlns="http://www.w3.org/2000/svg">
<circle cx="20" cy="20" r="19.5" stroke="#0088CC"/>
<path d="M32.5039 11.9078C31.1049 11.6961 29.6943 11.5691 28.2799 11.5275C27.5123 10.7222 26.5013 10.1912 25.4025 10.0163C24.3037 9.84136 23.1779 10.0322 22.1981 10.5593C21.2183 11.0865 20.4387 11.9209 19.9792 12.9342C19.5198 13.9476 19.4058 15.0838 19.6549 16.1682C15.4466 15.9546 12.2591 13.7932 9.27995 10.5796C8.8737 11.3713 8.10286 13.8973 8.70182 15.7203C9.41311 17.5221 10.635 19.077 12.2174 20.1942C10.6947 20.1246 9.19448 19.7989 7.77995 19.2307C8.51432 21.6421 11.0352 25.1421 14.9987 25.689C13.2085 27.1032 10.9936 27.8721 8.71224 27.8713C8.30868 27.876 7.9052 27.8569 7.50391 27.814C9.81625 29.3082 12.5112 30.1023 15.2643 30.1005C24.5716 30.1005 29.6654 22.3453 29.6654 15.6161V14.9546L32.5039 11.9078Z" stroke="#0088CC"/>
</svg>
