<svg width="40" height="40" viewBox="0 0 40 40" fill="none" xmlns="http://www.w3.org/2000/svg">
<g clip-path="url(#clip0_3933_10985)">
<path d="M26.3967 15.971L25.8867 18.5043C25.72 19.3385 24.9183 19.9918 24.0617 19.9918H22.335V31.6652C22.335 32.5852 21.6342 33.3319 20.7092 33.3319H18.1933C17.2683 33.3319 16.5158 32.5835 16.5158 31.6644V19.9918H15.6775C14.7525 19.9918 14 19.2443 14 18.3243V15.8235C14 14.9043 14.7525 14.156 15.6775 14.156H16.5158V11.6677C16.5158 8.92852 18.7458 6.69935 21.4967 6.67602C21.5142 6.67518 21.5292 6.66602 21.5475 6.66602H24.9025C25.365 6.66602 25.6683 7.03852 25.6683 7.49852V11.6652C25.6683 12.126 25.365 12.5018 24.9025 12.5018H22.3858L22.385 14.156H24.9008C25.3725 14.156 25.8075 14.3552 26.0925 14.7018C26.3783 15.0477 26.4892 15.511 26.3967 15.971ZM21.5783 15.8235C21.5667 15.8243 21.5575 15.8302 21.5458 15.8302C21.0825 15.8293 20.7067 15.456 20.7075 14.996V14.9902L20.7092 11.6677C20.7092 11.2068 21.0842 10.8343 21.5475 10.8343H24.0633V8.33352H21.58C21.5658 8.33352 21.5542 8.34102 21.5392 8.34102C19.6942 8.34102 18.1933 9.83352 18.1933 11.6677V15.0027C18.1933 15.4635 17.8175 15.8368 17.3542 15.8368C17.3317 15.8368 17.3125 15.8252 17.29 15.8235H15.6775V18.3243H17.3542C17.8175 18.3243 18.1933 18.6977 18.1933 19.1585C18.1933 19.2018 18.175 19.2385 18.1683 19.2802V31.6652L20.7092 31.6644V19.1668C20.7092 19.1635 20.7075 19.161 20.7075 19.1585C20.7075 18.6977 21.0825 18.3243 21.5458 18.3243H24.0617C24.1225 18.3243 24.2308 18.2368 24.2417 18.1785L24.7158 15.8235H21.5783Z" fill="#0088CC"/>
</g>
<circle cx="20" cy="20" r="19.5" stroke="#0088CC"/>
<defs>
<clipPath id="clip0_3933_10985">
<rect width="12.4217" height="26.6667" fill="white" transform="translate(14 6.66602)"/>
</clipPath>
</defs>
</svg>
