<svg width="45" height="45" viewBox="0 0 45 45" fill="none" xmlns="http://www.w3.org/2000/svg">
<circle cx="22.5" cy="22.5" r="22" stroke="#02A6FF"/>
<path d="M12.237 11.2501H17.8524C18.1066 11.2501 18.3503 11.3508 18.53 11.53C18.7097 11.7093 18.8107 11.9524 18.8107 12.2059C18.7793 13.4806 18.994 14.7494 19.4431 15.9432C19.6366 16.3428 19.6791 16.7985 19.5629 17.2269C19.4468 17.6553 19.1797 18.0275 18.8107 18.2754L16.8463 20.187C17.7173 21.8836 18.8562 23.4295 20.2193 24.7654C21.5478 26.1472 23.0913 27.3059 24.7902 28.1968L26.7068 26.2373C27.665 25.2815 28.1058 25.2815 29.0449 25.6065C30.2418 26.0545 31.5138 26.2687 32.7917 26.2373C33.0421 26.249 33.2791 26.3534 33.4564 26.5302C33.6336 26.707 33.7383 26.9434 33.75 27.1932V32.7943C33.7383 33.044 33.6336 33.2804 33.4564 33.4572C33.2791 33.634 33.0421 33.7385 32.7917 33.7501C27.1549 33.5051 21.8116 31.1743 17.8045 27.2123C13.8262 23.2196 11.4883 17.8875 11.25 12.2633C11.2523 12.0002 11.3561 11.7481 11.5399 11.5594C11.7238 11.3707 11.9734 11.2599 12.237 11.2501Z" stroke="#02A6FF" stroke-width="2" stroke-linecap="round" stroke-linejoin="round"/>
</svg>
