<svg width="45" height="45" viewBox="0 0 45 45" fill="none" xmlns="http://www.w3.org/2000/svg">
<path d="M30.6213 32.76C28.4149 34.4176 25.6722 35.4 22.7 35.4C15.4098 35.4 9.5 29.4902 9.5 22.2C9.5 14.9098 15.4098 8.99995 22.7 8.99995C29.9902 8.99995 35.9 14.9098 35.9 22.2V24.4C35.9 26.425 34.2584 28.0666 32.2333 28.0666C30.2083 28.0666 28.5667 26.425 28.5667 24.4V16.3333M28.5667 22.2C28.5667 25.44 25.94 28.0666 22.7 28.0666C19.4599 28.0666 16.8333 25.44 16.8333 22.2C16.8333 18.9599 19.4599 16.3333 22.7 16.3333C25.94 16.3333 28.5667 18.9599 28.5667 22.2Z" stroke="#02A6FF" stroke-width="2" stroke-linecap="round" stroke-linejoin="round"/>
<circle cx="22.5" cy="22.5" r="22" stroke="#02A6FF"/>
</svg>
