<svg width="45" height="45" viewBox="0 0 45 45" fill="none" xmlns="http://www.w3.org/2000/svg">
<path d="M33.9898 11.6098C33.7877 11.4333 33.5416 11.3161 33.2783 11.2709C33.0149 11.2257 32.7444 11.2542 32.4959 11.3534L9.93068 20.313C9.6357 20.4301 9.38617 20.6406 9.21944 20.913C9.05271 21.1854 8.97773 21.5051 9.00574 21.8241C9.03375 22.1432 9.16323 22.4445 9.3748 22.683C9.58638 22.9214 9.86868 23.0843 10.1795 23.1471L16.3043 24.3852V32.0261C16.3013 32.32 16.3861 32.6081 16.5477 32.8525C16.7093 33.0969 16.9402 33.2863 17.21 33.396C17.3909 33.4725 17.5848 33.5121 17.7808 33.5127C17.9724 33.5121 18.1619 33.473 18.3384 33.3978C18.5149 33.3226 18.6749 33.2127 18.809 33.0745L22.3054 29.5408L27.4642 34.1291C27.7301 34.3677 28.0732 34.4997 28.4287 34.5C28.5833 34.4999 28.7368 34.4752 28.8839 34.427C29.1263 34.3493 29.3444 34.2087 29.5163 34.0192C29.6882 33.8297 29.808 33.598 29.8636 33.3471L34.4625 13.0648C34.5226 12.8018 34.5103 12.5272 34.4269 12.2707C34.3436 12.0142 34.1924 11.7857 33.9898 11.6098ZM9.98005 21.7367C9.96789 21.63 9.99171 21.5222 10.0477 21.4307C10.1036 21.3393 10.1884 21.2697 10.2884 21.233L30.973 13.0201L16.68 23.453L10.3713 22.1778C10.2665 22.1595 10.1709 22.106 10.0999 22.0259C10.0289 21.9459 9.98666 21.844 9.98005 21.7367ZM18.1173 32.3755C18.0489 32.4447 17.9618 32.4917 17.8669 32.5108C17.7721 32.5299 17.6737 32.5201 17.5844 32.4827C17.495 32.4453 17.4186 32.3819 17.3649 32.3007C17.3111 32.2194 17.2825 32.1238 17.2825 32.0261V25.0734L21.5696 28.8864L18.1173 32.3755ZM33.5091 12.844L28.9102 33.1263C28.8913 33.2097 28.8512 33.2868 28.7939 33.3499C28.7367 33.413 28.6642 33.46 28.5836 33.4863C28.5029 33.5125 28.4169 33.5172 28.334 33.4998C28.251 33.4824 28.174 33.4435 28.1104 33.3869L17.5765 24.0181L33.4301 12.4462C33.4718 12.5023 33.5005 12.5672 33.5142 12.636C33.5279 12.7049 33.5261 12.7759 33.5091 12.844Z" fill="#02A6FF"/>
<circle cx="22.5" cy="22.5" r="22" stroke="#02A6FF"/>
</svg>
