<svg width="515" height="392" viewBox="0 0 515 392" fill="none" xmlns="http://www.w3.org/2000/svg">
<path d="M179.63 68.5709C173.629 68.5709 168.563 72.6106 166.981 78.1103H114.319L99.6625 63.4554H135.005C136.588 68.9551 141.655 72.9948 147.655 72.9948C154.917 72.9948 160.824 67.0858 160.824 59.8234C160.824 52.561 154.917 46.652 147.655 46.652C141.653 46.652 136.586 50.6917 135.005 56.1914H92.3986L82.7384 46.5312L47.5273 81.7423L82.7384 116.953L92.3986 107.292H135.004C136.586 112.791 141.653 116.831 147.653 116.831C154.915 116.831 160.823 110.922 160.823 103.66C160.823 96.3972 154.915 90.4898 147.653 90.4898C141.651 90.4898 136.585 94.5279 135.004 100.028H99.6625L114.317 85.3727H166.98C168.562 90.8724 173.627 94.9106 179.629 94.9106C186.891 94.9106 192.8 89.0031 192.8 81.7407C192.802 74.4784 186.893 68.5709 179.63 68.5709ZM147.656 53.9144C150.913 53.9144 153.562 56.5647 153.562 59.8218C153.562 63.079 150.913 65.7293 147.656 65.7293C144.399 65.7293 141.749 63.079 141.749 59.8218C141.749 56.5647 144.399 53.9144 147.656 53.9144ZM147.656 97.7538C150.913 97.7538 153.562 100.402 153.562 103.66C153.562 106.917 150.913 109.567 147.656 109.567C144.399 109.567 141.749 106.917 141.749 103.66C141.749 100.402 144.399 97.7538 147.656 97.7538ZM82.74 106.682L57.8007 81.7423L82.74 56.803L107.679 81.7423L82.74 106.682ZM179.63 87.6482C176.373 87.6482 173.724 84.9995 173.724 81.7423C173.724 78.4851 176.373 75.8349 179.63 75.8349C182.888 75.8349 185.538 78.4851 185.538 81.7423C185.538 84.9979 182.888 87.6482 179.63 87.6482Z" fill="#0088CC"/>
<path d="M134.055 112.171H110.088L82.743 139.516L24.9686 81.7415L82.743 23.9685L110.088 51.3135H134.057L82.743 0L1 81.7415L82.743 163.483L134.055 112.171Z" fill="#0088CC"/>
<path d="M179.63 68.5709C173.629 68.5709 168.563 72.6106 166.981 78.1103H114.319L99.6625 63.4554H135.005C136.588 68.9551 141.655 72.9948 147.655 72.9948C154.917 72.9948 160.824 67.0858 160.824 59.8234C160.824 52.561 154.917 46.652 147.655 46.652C141.653 46.652 136.586 50.6917 135.005 56.1914H92.3986L82.7384 46.5312L47.5273 81.7423L82.7384 116.953L92.3986 107.292H135.004C136.586 112.791 141.653 116.831 147.653 116.831C154.915 116.831 160.823 110.922 160.823 103.66C160.823 96.3972 154.915 90.4898 147.653 90.4898C141.651 90.4898 136.585 94.5279 135.004 100.028H99.6625L114.317 85.3727H166.98C168.562 90.8724 173.627 94.9106 179.629 94.9106C186.891 94.9106 192.8 89.0031 192.8 81.7407C192.802 74.4784 186.893 68.5709 179.63 68.5709ZM147.656 53.9144C150.913 53.9144 153.562 56.5647 153.562 59.8218C153.562 63.079 150.913 65.7293 147.656 65.7293C144.399 65.7293 141.749 63.079 141.749 59.8218C141.749 56.5647 144.399 53.9144 147.656 53.9144ZM147.656 97.7538C150.913 97.7538 153.562 100.402 153.562 103.66C153.562 106.917 150.913 109.567 147.656 109.567C144.399 109.567 141.749 106.917 141.749 103.66C141.749 100.402 144.399 97.7538 147.656 97.7538ZM82.74 106.682L57.8007 81.7423L82.74 56.803L107.679 81.7423L82.74 106.682ZM179.63 87.6482C176.373 87.6482 173.724 84.9995 173.724 81.7423C173.724 78.4851 176.373 75.8349 179.63 75.8349C182.888 75.8349 185.538 78.4851 185.538 81.7423C185.538 84.9979 182.888 87.6482 179.63 87.6482Z" fill="#0088CC"/>
<path d="M134.055 112.171H110.088L82.743 139.516L24.9686 81.7415L82.743 23.9685L110.088 51.3135H134.057L82.743 0L1 81.7415L82.743 163.483L134.055 112.171Z" fill="#0088CC"/>
<path d="M276.134 126.674C276.134 131.957 279.689 136.415 284.53 137.808V184.161L271.631 197.062V165.953C276.472 164.56 280.028 160.101 280.028 154.819C280.028 148.427 274.826 143.227 268.434 143.227C262.042 143.227 256.841 148.427 256.841 154.819C256.841 160.102 260.396 164.562 265.237 165.953V203.456L256.734 211.958L287.727 242.951L318.72 211.958L310.216 203.456V165.955C315.056 164.562 318.612 160.102 318.612 154.821C318.612 148.428 313.411 143.229 307.019 143.229C300.626 143.229 295.427 148.428 295.427 154.821C295.427 160.103 298.981 164.563 303.822 165.955V197.062L290.923 184.163V137.81C295.763 136.417 299.318 131.958 299.318 126.676C299.318 120.283 294.118 115.082 287.726 115.082C281.333 115.081 276.134 120.282 276.134 126.674ZM263.233 154.818C263.233 151.951 265.566 149.62 268.433 149.62C271.3 149.62 273.632 151.951 273.632 154.818C273.632 157.685 271.3 160.018 268.433 160.018C265.566 160.018 263.233 157.685 263.233 154.818ZM301.82 154.818C301.82 151.951 304.152 149.62 307.019 149.62C309.886 149.62 312.218 151.951 312.218 154.818C312.218 157.685 309.886 160.018 307.019 160.018C304.152 160.018 301.82 157.685 301.82 154.818ZM309.679 211.957L287.727 233.909L265.776 211.957L287.727 190.006L309.679 211.957ZM292.925 126.674C292.925 129.541 290.594 131.873 287.727 131.873C284.86 131.873 282.527 129.541 282.527 126.674C282.527 123.807 284.86 121.475 287.727 121.475C290.593 121.475 292.925 123.807 292.925 126.674Z" fill="#0088CC"/>
<path d="M276.134 126.674C276.134 131.957 279.689 136.415 284.53 137.808V184.161L271.631 197.062V165.953C276.472 164.56 280.028 160.101 280.028 154.819C280.028 148.427 274.826 143.227 268.434 143.227C262.042 143.227 256.841 148.427 256.841 154.819C256.841 160.102 260.396 164.562 265.237 165.953V203.456L256.734 211.958L287.727 242.951L318.72 211.958L310.216 203.456V165.955C315.056 164.562 318.612 160.102 318.612 154.821C318.612 148.428 313.411 143.229 307.019 143.229C300.626 143.229 295.427 148.428 295.427 154.821C295.427 160.103 298.981 164.563 303.822 165.955V197.062L290.923 184.163V137.81C295.763 136.417 299.318 131.958 299.318 126.676C299.318 120.283 294.118 115.082 287.726 115.082C281.333 115.081 276.134 120.282 276.134 126.674ZM263.233 154.818C263.233 151.951 265.566 149.62 268.433 149.62C271.3 149.62 273.632 151.951 273.632 154.818C273.632 157.685 271.3 160.018 268.433 160.018C265.566 160.018 263.233 157.685 263.233 154.818ZM301.82 154.818C301.82 151.951 304.152 149.62 307.019 149.62C309.886 149.62 312.218 151.951 312.218 154.818C312.218 157.685 309.886 160.018 307.019 160.018C304.152 160.018 301.82 157.685 301.82 154.818ZM309.679 211.957L287.727 233.909L265.776 211.957L287.727 190.006L309.679 211.957ZM292.925 126.674C292.925 129.541 290.594 131.873 287.727 131.873C284.86 131.873 282.527 129.541 282.527 126.674C282.527 123.807 284.86 121.475 287.727 121.475C290.593 121.475 292.925 123.807 292.925 126.674Z" fill="#0088CC"/>
<path d="M299.323 295.292C299.323 290.01 295.768 285.551 290.927 284.159V237.806L303.826 224.905V256.014C298.985 257.406 295.429 261.866 295.429 267.147C295.429 273.54 300.631 278.739 307.023 278.739C313.415 278.739 318.616 273.54 318.616 267.147C318.616 261.865 315.061 257.405 310.22 256.014V218.511L318.723 210.008L287.73 179.016L256.737 210.008L265.242 218.511V256.012C260.401 257.405 256.845 261.865 256.845 267.146C256.845 273.538 262.046 278.738 268.438 278.738C274.831 278.738 280.03 273.538 280.03 267.146C280.03 261.863 276.476 257.404 271.635 256.012V224.905L284.534 237.804V284.157C279.694 285.55 276.139 290.008 276.139 295.291C276.139 301.683 281.339 306.884 287.731 306.884C294.124 306.886 299.323 301.685 299.323 295.292ZM312.224 267.149C312.224 270.016 309.891 272.347 307.024 272.347C304.157 272.347 301.825 270.016 301.825 267.149C301.825 264.282 304.157 261.949 307.024 261.949C309.891 261.949 312.224 264.282 312.224 267.149ZM273.637 267.149C273.637 270.016 271.305 272.347 268.438 272.347C265.571 272.347 263.239 270.016 263.239 267.149C263.239 264.282 265.571 261.949 268.438 261.949C271.305 261.949 273.637 264.282 273.637 267.149ZM265.778 210.01L287.73 188.058L309.681 210.01L287.73 231.961L265.778 210.01ZM282.532 295.292C282.532 292.425 284.863 290.094 287.73 290.094C290.597 290.094 292.93 292.425 292.93 295.292C292.93 298.159 290.597 300.492 287.73 300.492C284.864 300.492 282.532 298.159 282.532 295.292Z" fill="#0088CC"/>
<path d="M299.323 295.292C299.323 290.01 295.768 285.551 290.927 284.159V237.806L303.826 224.905V256.014C298.985 257.406 295.429 261.866 295.429 267.147C295.429 273.54 300.631 278.739 307.023 278.739C313.415 278.739 318.616 273.54 318.616 267.147C318.616 261.865 315.061 257.405 310.22 256.014V218.511L318.723 210.008L287.73 179.016L256.737 210.008L265.242 218.511V256.012C260.401 257.405 256.845 261.865 256.845 267.146C256.845 273.538 262.046 278.738 268.438 278.738C274.831 278.738 280.03 273.538 280.03 267.146C280.03 261.863 276.476 257.404 271.635 256.012V224.905L284.534 237.804V284.157C279.694 285.55 276.139 290.008 276.139 295.291C276.139 301.683 281.339 306.884 287.731 306.884C294.124 306.886 299.323 301.685 299.323 295.292ZM312.224 267.149C312.224 270.016 309.891 272.347 307.024 272.347C304.157 272.347 301.825 270.016 301.825 267.149C301.825 264.282 304.157 261.949 307.024 261.949C309.891 261.949 312.224 264.282 312.224 267.149ZM273.637 267.149C273.637 270.016 271.305 272.347 268.438 272.347C265.571 272.347 263.239 270.016 263.239 267.149C263.239 264.282 265.571 261.949 268.438 261.949C271.305 261.949 273.637 264.282 273.637 267.149ZM265.778 210.01L287.73 188.058L309.681 210.01L287.73 231.961L265.778 210.01ZM282.532 295.292C282.532 292.425 284.863 290.094 287.73 290.094C290.597 290.094 292.93 292.425 292.93 295.292C292.93 298.159 290.597 300.492 287.73 300.492C284.864 300.492 282.532 298.159 282.532 295.292Z" fill="#0088CC"/>
<path d="M10.5898 307.628V147.049L82.2967 213.957L151.246 147.049V307.628L82.2967 377.213L10.5898 307.628Z" stroke="#0088CC" stroke-width="21"/>
<path d="M496.271 379.5L416.082 239.816L372.631 329.274L396.901 379.5H496.271Z" stroke="#0088CC" stroke-width="21"/>
<path d="M397.905 23.2871L352.283 161.524V285.379L359.933 301.798L497.508 23.2871H397.905Z" stroke="#0088CC" stroke-width="21"/>
<rect x="241.668" y="23.2871" width="87.6885" height="356.213" stroke="#0088CC" stroke-width="21"/>
</svg>
