<svg width="24" height="24" viewBox="0 0 24 24" fill="none" xmlns="http://www.w3.org/2000/svg">
<g clip-path="url(#clip0_2539_5288)">
<path d="M14.2492 6.56393C12.9696 5.82369 11.4838 5.40002 9.89922 5.40002C5.09434 5.40002 1.19922 9.29514 1.19922 14.1C1.19922 15.4917 1.526 16.8071 2.10703 17.9737C2.26143 18.2836 2.31283 18.6381 2.22331 18.9726L1.70513 20.9092C1.48019 21.7499 2.24932 22.519 3.09003 22.2941L5.02669 21.7759C5.36124 21.6864 5.71557 21.7379 6.02557 21.8922C7.19209 22.4732 8.50749 22.8 9.89922 22.8C14.7041 22.8 18.5992 18.9049 18.5992 14.1C18.5992 12.5154 18.1755 11.0297 17.4353 9.75002" stroke="#0285CC" stroke-width="2" stroke-linecap="round"/>
<path d="M18.5756 15C18.6458 14.9694 18.7154 14.9376 18.7844 14.9047C19.1668 14.7221 19.5958 14.6538 20.0018 14.7674L20.5046 14.908C21.525 15.1933 22.4585 14.2175 22.1855 13.1509L22.051 12.6254C21.9423 12.2009 22.0077 11.7525 22.1824 11.3527C22.5787 10.4457 22.7996 9.43728 22.7996 8.37492C22.7996 6.96854 22.4125 5.65665 21.7436 4.54935M9.59961 5.61046C10.6351 3.02017 13.082 1.19995 15.9356 1.19995C17.2964 1.19995 18.5647 1.61389 19.6316 2.32788" stroke="#0285CC" stroke-width="2" stroke-linecap="round"/>
<path d="M6 14.4H6.01004M9.89482 14.4H9.90486M13.79 14.4H13.8" stroke="#0285CC" stroke-width="2" stroke-linecap="round" stroke-linejoin="round"/>
</g>
<defs>
<clipPath id="clip0_2539_5288">
<rect width="24" height="24" fill="white"/>
</clipPath>
</defs>
</svg>
