<svg width="24" height="24" viewBox="0 0 24 24" fill="none" xmlns="http://www.w3.org/2000/svg">
<path d="M1.81027 9.72668C2.09157 9.44547 2.47303 9.2875 2.87077 9.2875C3.26852 9.2875 3.64998 9.44547 3.93127 9.72668L9.23527 15.0307L19.8403 4.42418C19.9795 4.28481 20.1449 4.17424 20.3269 4.09878C20.5089 4.02332 20.704 3.98444 20.901 3.98438C21.098 3.98431 21.2931 4.02304 21.4752 4.09838C21.6572 4.17371 21.8227 4.28416 21.962 4.42343C22.1014 4.5627 22.212 4.72805 22.2874 4.91005C22.3629 5.09205 22.4018 5.28713 22.4018 5.48415C22.4019 5.68117 22.3632 5.87628 22.2878 6.05833C22.2125 6.24038 22.102 6.40581 21.9628 6.54518L9.23527 19.2727L1.81027 11.8477C1.52907 11.5664 1.37109 11.1849 1.37109 10.7872C1.37109 10.3894 1.52907 10.008 1.81027 9.72668Z" fill="#4CAF50"/>
</svg>
