<svg width="20" height="20" viewBox="0 0 20 20" fill="none" xmlns="http://www.w3.org/2000/svg">
<g clip-path="url(#clip0_8_2)">
<mask id="mask0_8_2" style="mask-type:luminance" maskUnits="userSpaceOnUse" x="0" y="0" width="20" height="20">
<path d="M20 0H0V20H20V0Z" fill="white"/>
</mask>
<g mask="url(#mask0_8_2)">
<path d="M9.99996 0C10.4602 0 10.8333 0.373096 10.8333 0.833333V3.33333C10.8333 3.79357 10.4602 4.16667 9.99996 4.16667C9.53971 4.16667 9.16663 3.79357 9.16663 3.33333V0.833333C9.16663 0.373096 9.53971 0 9.99996 0Z" fill="#F3F3F3"/>
<path fill-rule="evenodd" clip-rule="evenodd" d="M5.83337 9.99998C5.83337 7.6988 7.69886 5.83331 10 5.83331C12.3012 5.83331 14.1667 7.6988 14.1667 9.99998C14.1667 12.3011 12.3012 14.1666 10 14.1666C7.69886 14.1666 5.83337 12.3011 5.83337 9.99998ZM10 7.49998C8.61929 7.49998 7.50004 8.61923 7.50004 9.99998C7.50004 11.3807 8.61929 12.5 10 12.5C11.3808 12.5 12.5 11.3807 12.5 9.99998C12.5 8.61923 11.3808 7.49998 10 7.49998Z" fill="#F3F3F3"/>
<path d="M17.071 4.10747C17.3964 3.78203 17.3964 3.25439 17.071 2.92895C16.7456 2.60352 16.2179 2.60352 15.8925 2.92895L14.1247 4.69673C13.7993 5.02216 13.7993 5.5498 14.1247 5.87523C14.4502 6.20067 14.9778 6.20067 15.3033 5.87523L17.071 4.10747Z" fill="#F3F3F3"/>
<path d="M20 10C20 10.4603 19.627 10.8334 19.1667 10.8334H16.6667C16.2065 10.8334 15.8334 10.4603 15.8334 10C15.8334 9.53977 16.2065 9.16669 16.6667 9.16669H19.1667C19.627 9.16669 20 9.53977 20 10Z" fill="#F3F3F3"/>
<path d="M15.8926 17.0711C16.2181 17.3965 16.7457 17.3965 17.0711 17.0711C17.3966 16.7457 17.3966 16.218 17.0711 15.8926L15.3034 14.1249C14.9779 13.7994 14.4503 13.7994 14.1248 14.1249C13.7994 14.4503 13.7994 14.9779 14.1248 15.3034L15.8926 17.0711Z" fill="#F3F3F3"/>
<path d="M9.99996 20C9.53971 20 9.16663 19.6269 9.16663 19.1666V16.6666C9.16663 16.2064 9.53971 15.8333 9.99996 15.8333C10.4602 15.8333 10.8333 16.2064 10.8333 16.6666V19.1666C10.8333 19.6269 10.4602 20 9.99996 20Z" fill="#F3F3F3"/>
<path d="M2.92902 15.8926C2.60358 16.218 2.60358 16.7457 2.92902 17.0711C3.25445 17.3965 3.78209 17.3965 4.10753 17.0711L5.87529 15.3033C6.20073 14.9778 6.20073 14.4502 5.87529 14.1247C5.54986 13.7993 5.02222 13.7993 4.69678 14.1247L2.92902 15.8926Z" fill="#F3F3F3"/>
<path d="M0 10C0 9.53977 0.373096 9.16669 0.833333 9.16669H3.33333C3.79357 9.16669 4.16667 9.53977 4.16667 10C4.16667 10.4603 3.79357 10.8334 3.33333 10.8334H0.833333C0.373096 10.8334 0 10.4603 0 10Z" fill="#F3F3F3"/>
<path d="M4.10741 2.9289C3.78196 2.60345 3.25433 2.60345 2.92889 2.9289C2.60346 3.25433 2.60346 3.78196 2.92889 4.1074L4.69666 5.87517C5.0221 6.2006 5.54974 6.2006 5.87517 5.87517C6.20061 5.54973 6.20061 5.0221 5.87517 4.69665L4.10741 2.9289Z" fill="#F3F3F3"/>
</g>
</g>
<defs>
<clipPath id="clip0_8_2">
<rect width="20" height="20" fill="white"/>
</clipPath>
</defs>
</svg>
