<svg width="400" height="400" viewBox="0 0 400 400" fill="none" xmlns="http://www.w3.org/2000/svg">
<path d="M399.992 50.5545C400.182 39.2138 396.075 28.7568 388.429 21.1109C384.28 16.9629 377.555 16.9629 373.407 21.1114C369.259 25.2599 369.258 31.9854 373.407 36.1333C376.946 39.6716 378.843 44.6667 378.751 50.1992C378.663 55.4774 376.665 60.5739 373.407 63.8323C366.648 70.5906 299.28 129.735 246.666 175.755L233.77 162.861C272.18 118.913 319.846 64.5716 338.49 43.938L342.732 48.1799C346.88 52.3284 353.606 52.329 357.753 48.181C361.902 44.033 361.903 37.3076 357.755 33.1591L345.709 21.112C343.717 19.1198 341.015 18.0002 338.198 18.0002H338.197C335.38 18.0002 332.679 19.1192 330.687 21.1109C324.222 27.5745 284.683 72.4824 249.006 113.195C239.412 98.673 226.597 86.1803 211.353 76.5906C189.074 62.5741 163.099 55.4673 134.15 55.4673C127.782 55.4673 121.481 55.8688 115.425 56.6618C109.608 57.4234 105.51 62.7557 106.271 68.5729C107.032 74.3896 112.364 78.4877 118.181 77.7266C123.327 77.0532 128.7 76.7117 134.15 76.7117C178.229 76.7117 215.203 96.4732 234.377 129.9C216.485 150.345 201.113 167.955 193.7 176.451C180.466 178.254 170.591 183.67 163.628 192.957C157.154 201.591 154.316 211.903 151.312 222.821C147.69 235.985 143.945 249.597 133.264 260.278C130.225 263.316 129.317 267.884 130.961 271.854C132.605 275.823 136.479 278.411 140.775 278.411C169.362 278.411 192.019 272.318 208.119 260.301C222.627 249.471 231.275 234.096 233.32 215.632C260.69 191.729 378.613 88.6701 388.429 78.8541C395.597 71.6868 399.811 61.3716 399.992 50.5545ZM230.636 189.77C227.444 192.559 224.349 195.262 221.374 197.86L211.676 188.162C214.271 185.187 216.974 182.09 219.762 178.897L230.636 189.77ZM195.411 243.277C187.056 249.514 175.936 253.67 162.212 255.706C166.882 246.315 169.502 236.794 171.796 228.456C176.719 210.564 179.718 201.584 191.849 198.38L211.463 217.993C209.303 228.433 203.93 236.918 195.411 243.277Z" fill="#E8E8E8"/>
<path d="M82.2595 87.9525C83.8066 87.9525 85.3782 87.6126 86.8647 86.8961C87.8181 86.4362 88.7974 85.9842 89.7747 85.5535C95.1415 83.1842 97.5719 76.9128 95.2026 71.546C92.8333 66.1797 86.5625 63.7493 81.1952 66.118C80.0018 66.6449 78.8052 67.1973 77.6383 67.7597C72.3543 70.3074 70.1359 76.6568 72.6831 81.9408C74.5143 85.7383 78.308 87.9525 82.2595 87.9525Z" fill="#E8E8E8"/>
<path d="M159.018 290.215C153.157 290.158 148.343 294.851 148.277 300.717C147.818 341.552 141.654 359.77 106.338 359.77C86.5405 359.77 65.7635 345.287 49.3353 320.036C31.2207 292.191 21.2444 256.04 21.2444 218.242C21.2444 169.171 36.0623 128.342 62.9688 103.275C67.2613 99.2767 67.4992 92.555 63.5005 88.2626C59.5018 83.9701 52.78 83.7322 48.4876 87.7309C32.6388 102.496 20.376 121.681 12.0392 144.752C4.05024 166.86 0 191.586 0 218.242C0 260.104 11.1974 300.371 31.5282 331.621C51.9499 363.012 79.2176 381.015 106.338 381.015C132.278 381.015 150.358 371.887 160.073 353.885C168.415 338.427 169.323 318.459 169.519 300.956C169.585 295.09 164.884 290.281 159.018 290.215Z" fill="#E8E8E8"/>
<path d="M211.286 132.904C211.286 113.391 195.41 97.5156 175.897 97.5156C156.384 97.5156 140.508 113.391 140.508 132.904C140.508 152.417 156.384 168.293 175.897 168.293C195.41 168.293 211.286 152.417 211.286 132.904ZM161.752 132.904C161.752 125.105 168.097 118.76 175.897 118.76C183.697 118.76 190.041 125.105 190.041 132.904C190.041 140.704 183.697 147.049 175.897 147.049C168.097 147.048 161.752 140.703 161.752 132.904Z" fill="#E8E8E8"/>
<path d="M91.5607 181.012C111.074 181.012 126.95 165.136 126.95 145.623C126.95 126.11 111.074 110.234 91.5607 110.234C72.0473 110.234 56.1719 126.11 56.1719 145.623C56.1719 165.136 72.0473 181.012 91.5607 181.012ZM91.5607 131.479C99.3601 131.479 105.705 137.824 105.705 145.623C105.705 153.423 99.3601 159.767 91.5607 159.767C83.7614 159.767 77.4162 153.423 77.4162 145.623C77.4162 137.824 83.7619 131.479 91.5607 131.479Z" fill="#E8E8E8"/>
<path d="M99.8402 226.932C99.8402 207.419 83.9648 191.543 64.4514 191.543C44.9379 191.543 29.0625 207.419 29.0625 226.932C29.0625 246.445 44.9379 262.321 64.4514 262.321C83.9648 262.321 99.8402 246.445 99.8402 226.932ZM64.4514 241.076C56.652 241.076 50.3069 234.732 50.3069 226.932C50.3069 219.132 56.652 212.787 64.4514 212.787C72.2507 212.787 78.5959 219.132 78.5959 226.932C78.5959 234.731 72.2507 241.076 64.4514 241.076Z" fill="#E8E8E8"/>
<path d="M101.634 345.124C121.148 345.124 137.024 329.249 137.024 309.736C137.024 290.223 121.148 274.348 101.634 274.348C82.1215 274.348 66.2461 290.223 66.2461 309.736C66.2461 329.249 82.1215 345.124 101.634 345.124ZM101.634 295.592C109.434 295.592 115.779 301.937 115.779 309.736C115.779 317.535 109.434 323.88 101.634 323.88C93.8356 323.88 87.4905 317.535 87.4905 309.736C87.4905 301.937 93.8356 295.592 101.634 295.592Z" fill="#E8E8E8"/>
</svg>
