<svg width="201" height="200" viewBox="0 0 201 200" fill="none" xmlns="http://www.w3.org/2000/svg">
<path d="M100.799 20C59.3757 20 25.7988 53.5769 25.7988 95C25.7988 136.423 59.3757 170 100.799 170C142.222 170 175.799 136.423 175.799 95C175.799 53.5769 142.222 20 100.799 20ZM100.799 158.281C65.8485 158.281 37.5176 129.95 37.5176 95C37.5176 60.0497 65.8485 31.7188 100.799 31.7188C135.749 31.7188 164.08 60.0497 164.08 95C164.08 129.95 135.749 158.281 100.799 158.281Z" fill="#E8E8E8" fill-opacity="1"/>
<path fill-rule="evenodd" clip-rule="evenodd" d="M120.574 82.2434H106.078V71.664C106.078 68.4189 109.435 67.6663 111.002 67.6663C112.558 67.6663 120.366 67.6663 120.366 67.6663V53.3892L109.634 53.3333C94.9906 53.3333 91.6488 63.9788 91.6488 70.8046V82.2437H81.0234V96.953H91.6488C91.6488 115.838 91.6488 136.667 91.6488 136.667H106.078C106.078 136.667 106.078 115.625 106.078 96.953H118.336L120.574 82.2434Z" fill="#E8E8E8" fill-opacity="1"/>
</svg>
