<svg width="103" height="103" viewBox="0 0 103 103" fill="none" xmlns="http://www.w3.org/2000/svg">
<path fill-rule="evenodd" clip-rule="evenodd" d="M41.4904 19.7683C34.0511 19.944 26.9756 23.0227 21.7762 28.3463C16.5768 33.6699 13.666 40.8161 13.666 48.2576C13.666 55.699 16.5768 62.8452 21.7762 68.1688C26.9756 73.4924 34.0511 76.5711 41.4904 76.7468H42.7612V54.1587C42.7612 52.4749 44.0479 50.3146 45.7475 50.3146H69.8923C69.8923 49.3774 69.9876 48.7261 69.9876 48.2178C69.95 40.6759 66.934 33.4543 61.5965 28.1258C56.259 22.7972 49.0324 19.7934 41.4904 19.7683ZM64.2374 45.8192H56.8986C56.759 39.9031 55.3848 34.0813 52.8639 28.7273C55.9507 30.5046 58.584 32.9727 60.5572 35.938C62.5304 38.9034 63.7901 42.2855 64.2374 45.8192ZM38.2341 27.0912V45.8192H31.7213C32.2138 36.892 35.0254 29.8392 38.2341 27.0912ZM38.2341 50.6959V69.4081C35.0571 66.66 32.2138 59.639 31.7213 50.6959H38.2341ZM44.7468 45.8192V27.0912C47.9237 29.8392 50.783 36.892 51.2595 45.8192H44.7468ZM30.1011 28.7273C27.6235 34.0956 26.2565 39.9093 26.0823 45.8192H18.6959C19.1418 42.2812 20.4044 38.8952 22.3838 35.9289C24.3632 32.9626 27.0052 30.4971 30.1011 28.7273ZM18.7118 51.506H26.0981C26.2344 57.4037 27.5976 63.2085 30.1011 68.5503C27.0156 66.7814 24.3817 64.3221 22.4057 61.365C20.4297 58.4079 19.1654 55.0334 18.7118 51.506Z" fill="#2196F3" fill-opacity="0.8"/>
<path fill-rule="evenodd" clip-rule="evenodd" d="M85.8725 55.1436H51.2915C50.2383 55.1436 49.2282 55.5619 48.4834 56.3067C47.7387 57.0514 47.3203 58.0615 47.3203 59.1147V78.4147C47.3203 79.4679 47.7387 80.478 48.4834 81.2227C49.2282 81.9675 50.2383 82.3858 51.2915 82.3858H85.8725C86.9257 82.3858 87.9358 81.9675 88.6806 81.2227C89.4253 80.478 89.8437 79.4679 89.8437 78.4147V59.1147C89.8437 58.0615 89.4253 57.0514 88.6806 56.3067C87.9358 55.5619 86.9257 55.1436 85.8725 55.1436ZM55.9457 78.4147C55.9626 77.8055 55.8593 77.199 55.6417 76.6297C55.4242 76.0605 55.0965 75.5397 54.6776 75.0972C54.2586 74.6546 53.7565 74.2989 53.2001 74.0505C52.6436 73.8021 52.0436 73.6657 51.4345 73.6492H51.3074V63.7848C52.5365 63.8148 53.7275 63.3572 54.6204 62.5119C55.5133 61.6667 56.0354 60.5025 56.0728 59.2736V59.1624H81.1865C81.1864 60.3774 81.6647 61.5436 82.5179 62.4087C83.3711 63.2738 84.5305 63.7681 85.7454 63.7848H85.8725V73.7128C85.2613 73.698 84.6531 73.8038 84.0828 74.0242C83.5124 74.2445 82.9911 74.5751 82.5485 74.997C82.106 75.4188 81.7509 75.9238 81.5036 76.483C81.2563 77.0421 81.1215 77.6446 81.1071 78.2558V78.3988L55.9457 78.4147Z" fill="#2196F3" fill-opacity="0.8"/>
<path d="M68.5739 75.0949C72.2585 75.0949 75.2455 72.1079 75.2455 68.4233C75.2455 64.7387 72.2585 61.7517 68.5739 61.7517C64.8893 61.7517 61.9023 64.7387 61.9023 68.4233C61.9023 72.1079 64.8893 75.0949 68.5739 75.0949Z" fill="#2196F3" fill-opacity="0.8"/>
</svg>
