<svg width="30" height="30" viewBox="0 0 30 30" fill="none" xmlns="http://www.w3.org/2000/svg">
<circle cx="15" cy="15" r="14.5" stroke="#0088CC"/>
<path d="M24.375 8.92984C23.3257 8.77111 22.2678 8.67589 21.207 8.64468C20.6313 8.04065 19.8731 7.64243 19.049 7.51124C18.2249 7.38004 17.3805 7.52314 16.6456 7.91852C15.9108 8.31391 15.3261 8.93971 14.9815 9.69971C14.6369 10.4597 14.5515 11.3119 14.7383 12.1252C11.582 11.965 9.19141 10.3439 6.95703 7.93374C6.65234 8.52749 6.07422 10.422 6.52344 11.7892C7.0569 13.1406 7.9733 14.3068 9.16016 15.1447C8.01806 15.0925 6.89293 14.8482 5.83203 14.422C6.38281 16.2306 8.27344 18.8556 11.2461 19.2658C9.90347 20.3264 8.24228 20.9031 6.53125 20.9025C6.22858 20.906 5.92597 20.8917 5.625 20.8595C7.35925 21.9802 9.38047 22.5757 11.4453 22.5744C18.4258 22.5744 22.2461 16.758 22.2461 11.7111V11.215L24.375 8.92984Z" stroke="#0088CC"/>
</svg>
