<svg width="30" height="30" viewBox="0 0 30 30" fill="none" xmlns="http://www.w3.org/2000/svg">
<path d="M22.6598 7.73986C22.5251 7.62219 22.3611 7.54406 22.1855 7.51392C22.0099 7.48378 21.8296 7.5028 21.664 7.5689L6.62045 13.542C6.4238 13.62 6.25745 13.7604 6.14629 13.942C6.03514 14.1236 5.98516 14.3367 6.00383 14.5494C6.0225 14.7621 6.10882 14.963 6.24987 15.122C6.39092 15.2809 6.57912 15.3895 6.7863 15.4314L10.8696 16.2568V21.3507C10.8675 21.5467 10.9241 21.7387 11.0318 21.9016C11.1395 22.0646 11.2934 22.1909 11.4734 22.264C11.5939 22.315 11.7232 22.3414 11.8539 22.3418C11.9816 22.3413 12.1079 22.3153 12.2256 22.2652C12.3433 22.215 12.4499 22.1418 12.5393 22.0496L14.8703 19.6938L18.3095 22.7527C18.4867 22.9118 18.7154 22.9997 18.9525 23C19.0555 22.9999 19.1579 22.9835 19.2559 22.9513C19.4176 22.8995 19.5629 22.8058 19.6776 22.6794C19.7922 22.5531 19.872 22.3986 19.9091 22.2314L22.975 8.70985C23.0151 8.5345 23.0068 8.35141 22.9513 8.18043C22.8957 8.00945 22.7949 7.85709 22.6598 7.73986ZM6.65337 14.4911C6.64526 14.4199 6.66114 14.3481 6.69844 14.2871C6.73575 14.2262 6.79229 14.1798 6.85894 14.1553L20.6486 8.68007L11.12 15.6353L6.91418 14.7852C6.84432 14.773 6.78057 14.7373 6.73324 14.6839C6.68592 14.6306 6.65777 14.5626 6.65337 14.4911ZM12.0782 21.5837C12.0326 21.6297 11.9745 21.6611 11.9113 21.6738C11.848 21.6866 11.7825 21.68 11.7229 21.6551C11.6633 21.6302 11.6124 21.5879 11.5766 21.5337C11.5408 21.4796 11.5216 21.4158 11.5216 21.3507V16.7156L14.3798 19.2576L12.0782 21.5837ZM22.3394 8.56263L19.2735 22.0841C19.2608 22.1398 19.2341 22.1912 19.196 22.2332C19.1578 22.2753 19.1095 22.3066 19.0557 22.3241C19.002 22.3417 18.9446 22.3448 18.8893 22.3332C18.834 22.3216 18.7827 22.2956 18.7403 22.2579L11.7177 16.012L22.2867 8.29743C22.3145 8.33486 22.3337 8.3781 22.3428 8.42399C22.3519 8.46988 22.3508 8.51725 22.3394 8.56263Z" fill="#EC5200"/>
<circle cx="15" cy="15" r="14.5" stroke="#EC5200"/>
</svg>
