<svg width="30" height="30" viewBox="0 0 30 30" fill="none" xmlns="http://www.w3.org/2000/svg">
<g clip-path="url(#clip0_2695_25968)">
<path d="M20.4149 21.84C18.9439 22.9451 17.1155 23.6 15.134 23.6C10.2739 23.6 6.33398 19.6601 6.33398 14.8C6.33398 9.9399 10.2739 6 15.134 6C19.9941 6 23.934 9.9399 23.934 14.8V16.2667C23.934 17.6167 22.8396 18.7111 21.4895 18.7111C20.1395 18.7111 19.0451 17.6167 19.0451 16.2667V10.8889M19.0451 14.8C19.0451 16.96 17.294 18.7111 15.134 18.7111C12.9739 18.7111 11.2229 16.96 11.2229 14.8C11.2229 12.64 12.9739 10.8889 15.134 10.8889C17.294 10.8889 19.0451 12.64 19.0451 14.8Z" stroke="#EC5200" stroke-linecap="round" stroke-linejoin="round"/>
</g>
<circle cx="15" cy="15" r="14.5" stroke="#EC5200"/>
<defs>
<clipPath id="clip0_2695_25968">
<rect width="20" height="20" fill="white" transform="translate(5 5)"/>
</clipPath>
</defs>
</svg>
