<svg width="30" height="30" viewBox="0 0 30 30" fill="none" xmlns="http://www.w3.org/2000/svg">
<g clip-path="url(#clip0_3343_2724)">
<path d="M20.4129 21.84C18.9419 22.9451 17.1135 23.6 15.132 23.6C10.2719 23.6 6.33203 19.6601 6.33203 14.8C6.33203 9.9399 10.2719 6 15.132 6C19.9922 6 23.932 9.9399 23.932 14.8V16.2667C23.932 17.6167 22.8376 18.7111 21.4876 18.7111C20.1376 18.7111 19.0431 17.6167 19.0431 16.2667V10.8889M19.0431 14.8C19.0431 16.96 17.292 18.7111 15.132 18.7111C12.972 18.7111 11.2209 16.96 11.2209 14.8C11.2209 12.64 12.972 10.8889 15.132 10.8889C17.292 10.8889 19.0431 12.64 19.0431 14.8Z" stroke="#0088CC" stroke-linecap="round" stroke-linejoin="round"/>
</g>
<circle cx="15" cy="15" r="14.5" stroke="#0088CC"/>
<defs>
<clipPath id="clip0_3343_2724">
<rect width="20" height="20" fill="white" transform="translate(5 5)"/>
</clipPath>
</defs>
</svg>
