<svg width="42" height="32" viewBox="0 0 42 32" fill="none" xmlns="http://www.w3.org/2000/svg">
<path d="M14.612 5.60988C14.121 5.60988 13.7066 5.94037 13.5772 6.3903H9.26891L8.06986 5.19139H10.9612C11.0907 5.64132 11.5052 5.9718 11.9961 5.9718C12.5902 5.9718 13.0735 5.48839 13.0735 4.89425C13.0735 4.30012 12.5902 3.8167 11.9961 3.8167C11.5051 3.8167 11.0906 4.14719 10.9612 4.59712H7.4756L6.6853 3.80682L3.80469 6.68744L6.6853 9.56805L7.4756 8.77762H10.9611C11.0906 9.22755 11.5051 9.55804 11.9959 9.55804C12.5901 9.55804 13.0734 9.07462 13.0734 8.48049C13.0734 7.88635 12.5901 7.40306 11.9959 7.40306C11.505 7.40306 11.0904 7.73343 10.9611 8.18336H8.06986L9.26878 6.98444H13.5771C13.7065 7.43437 14.1209 7.76473 14.6119 7.76473C15.206 7.76473 15.6894 7.28144 15.6894 6.68731C15.6896 6.09317 15.2061 5.60988 14.612 5.60988ZM11.9962 4.41084C12.2627 4.41084 12.4794 4.62766 12.4794 4.89412C12.4794 5.16059 12.2627 5.37741 11.9962 5.37741C11.7297 5.37741 11.5129 5.16059 11.5129 4.89412C11.5129 4.62766 11.7297 4.41084 11.9962 4.41084ZM11.9962 7.99733C12.2627 7.99733 12.4794 8.21402 12.4794 8.48049C12.4794 8.74696 12.2627 8.96378 11.9962 8.96378C11.7297 8.96378 11.5129 8.74696 11.5129 8.48049C11.5129 8.21402 11.7297 7.99733 11.9962 7.99733ZM6.68543 8.72771L4.64515 6.68744L6.68543 4.64716L8.72571 6.68744L6.68543 8.72771ZM14.612 7.17059C14.3455 7.17059 14.1289 6.9539 14.1289 6.68744C14.1289 6.42097 14.3455 6.20415 14.612 6.20415C14.8785 6.20415 15.0953 6.42097 15.0953 6.68744C15.0953 6.95378 14.8785 7.17059 14.612 7.17059Z" fill="url(#paint0_linear_2564_8162)"/>
<path d="M10.8852 9.1767H8.92447L6.68738 11.4138L1.96086 6.68726L6.68738 1.96086L8.92447 4.19795H10.8853L6.68738 0L0 6.68726L6.68738 13.3745L10.8852 9.1767Z" fill="url(#paint1_linear_2564_8162)"/>
<path d="M14.612 5.60988C14.121 5.60988 13.7066 5.94037 13.5772 6.3903H9.26891L8.06986 5.19139H10.9612C11.0907 5.64132 11.5052 5.9718 11.9961 5.9718C12.5902 5.9718 13.0735 5.48839 13.0735 4.89425C13.0735 4.30012 12.5902 3.8167 11.9961 3.8167C11.5051 3.8167 11.0906 4.14719 10.9612 4.59712H7.4756L6.6853 3.80682L3.80469 6.68744L6.6853 9.56805L7.4756 8.77762H10.9611C11.0906 9.22755 11.5051 9.55804 11.9959 9.55804C12.5901 9.55804 13.0734 9.07462 13.0734 8.48049C13.0734 7.88635 12.5901 7.40306 11.9959 7.40306C11.505 7.40306 11.0904 7.73343 10.9611 8.18336H8.06986L9.26878 6.98444H13.5771C13.7065 7.43437 14.1209 7.76473 14.6119 7.76473C15.206 7.76473 15.6894 7.28144 15.6894 6.68731C15.6896 6.09317 15.2061 5.60988 14.612 5.60988ZM11.9962 4.41084C12.2627 4.41084 12.4794 4.62766 12.4794 4.89412C12.4794 5.16059 12.2627 5.37741 11.9962 5.37741C11.7297 5.37741 11.5129 5.16059 11.5129 4.89412C11.5129 4.62766 11.7297 4.41084 11.9962 4.41084ZM11.9962 7.99733C12.2627 7.99733 12.4794 8.21402 12.4794 8.48049C12.4794 8.74696 12.2627 8.96378 11.9962 8.96378C11.7297 8.96378 11.5129 8.74696 11.5129 8.48049C11.5129 8.21402 11.7297 7.99733 11.9962 7.99733ZM6.68543 8.72771L4.64515 6.68744L6.68543 4.64716L8.72571 6.68744L6.68543 8.72771ZM14.612 7.17059C14.3455 7.17059 14.1289 6.9539 14.1289 6.68744C14.1289 6.42097 14.3455 6.20415 14.612 6.20415C14.8785 6.20415 15.0953 6.42097 15.0953 6.68744C15.0953 6.95378 14.8785 7.17059 14.612 7.17059Z" fill="url(#paint2_linear_2564_8162)"/>
<path d="M10.8852 9.1767H8.92447L6.68738 11.4138L1.96086 6.68726L6.68738 1.96086L8.92447 4.19795H10.8853L6.68738 0L0 6.68726L6.68738 13.3745L10.8852 9.1767Z" fill="url(#paint3_linear_2564_8162)"/>
<path d="M22.5109 10.3631C22.5109 10.7953 22.8018 11.1601 23.1978 11.274V15.0661L22.1425 16.1215V13.5765C22.5385 13.4626 22.8294 13.0977 22.8294 12.6657C22.8294 12.1427 22.4039 11.7173 21.881 11.7173C21.358 11.7173 20.9325 12.1427 20.9325 12.6657C20.9325 13.0979 21.2234 13.4627 21.6194 13.5765V16.6446L20.9238 17.3402L23.4593 19.8757L25.9948 17.3402L25.2991 16.6446V13.5767C25.6951 13.4627 25.986 13.0979 25.986 12.6658C25.986 12.1428 25.5605 11.7175 25.0376 11.7175C24.5146 11.7175 24.0892 12.1428 24.0892 12.6658C24.0892 13.098 24.38 13.4628 24.776 13.5767V16.1215L23.7208 15.0663V11.2741C24.1168 11.1602 24.4076 10.7954 24.4076 10.3633C24.4076 9.8403 23.9822 9.4148 23.4592 9.4148C22.9363 9.41469 22.5109 9.84019 22.5109 10.3631ZM21.4555 12.6656C21.4555 12.431 21.6463 12.2403 21.8809 12.2403C22.1154 12.2403 22.3063 12.431 22.3063 12.6656C22.3063 12.9001 22.1154 13.091 21.8809 13.091C21.6463 13.091 21.4555 12.9001 21.4555 12.6656ZM24.6123 12.6656C24.6123 12.431 24.803 12.2403 25.0376 12.2403C25.2721 12.2403 25.463 12.431 25.463 12.6656C25.463 12.9001 25.2721 13.091 25.0376 13.091C24.803 13.091 24.6123 12.9001 24.6123 12.6656ZM25.2552 17.3401L23.4593 19.136L21.6635 17.3401L23.4593 15.5443L25.2552 17.3401ZM23.8846 10.3631C23.8846 10.5977 23.6939 10.7884 23.4593 10.7884C23.2248 10.7884 23.0339 10.5977 23.0339 10.3631C23.0339 10.1286 23.2248 9.93776 23.4593 9.93776C23.6938 9.93776 23.8846 10.1286 23.8846 10.3631Z" fill="url(#paint4_linear_2564_8162)"/>
<path d="M22.5109 10.3631C22.5109 10.7953 22.8018 11.1601 23.1978 11.274V15.0661L22.1425 16.1215V13.5765C22.5385 13.4626 22.8294 13.0977 22.8294 12.6657C22.8294 12.1427 22.4039 11.7173 21.881 11.7173C21.358 11.7173 20.9325 12.1427 20.9325 12.6657C20.9325 13.0979 21.2234 13.4627 21.6194 13.5765V16.6446L20.9238 17.3402L23.4593 19.8757L25.9948 17.3402L25.2991 16.6446V13.5767C25.6951 13.4627 25.986 13.0979 25.986 12.6658C25.986 12.1428 25.5605 11.7175 25.0376 11.7175C24.5146 11.7175 24.0892 12.1428 24.0892 12.6658C24.0892 13.098 24.38 13.4628 24.776 13.5767V16.1215L23.7208 15.0663V11.2741C24.1168 11.1602 24.4076 10.7954 24.4076 10.3633C24.4076 9.8403 23.9822 9.4148 23.4592 9.4148C22.9363 9.41469 22.5109 9.84019 22.5109 10.3631ZM21.4555 12.6656C21.4555 12.431 21.6463 12.2403 21.8809 12.2403C22.1154 12.2403 22.3063 12.431 22.3063 12.6656C22.3063 12.9001 22.1154 13.091 21.8809 13.091C21.6463 13.091 21.4555 12.9001 21.4555 12.6656ZM24.6123 12.6656C24.6123 12.431 24.803 12.2403 25.0376 12.2403C25.2721 12.2403 25.463 12.431 25.463 12.6656C25.463 12.9001 25.2721 13.091 25.0376 13.091C24.803 13.091 24.6123 12.9001 24.6123 12.6656ZM25.2552 17.3401L23.4593 19.136L21.6635 17.3401L23.4593 15.5443L25.2552 17.3401ZM23.8846 10.3631C23.8846 10.5977 23.6939 10.7884 23.4593 10.7884C23.2248 10.7884 23.0339 10.5977 23.0339 10.3631C23.0339 10.1286 23.2248 9.93776 23.4593 9.93776C23.6938 9.93776 23.8846 10.1286 23.8846 10.3631Z" fill="url(#paint5_linear_2564_8162)"/>
<path d="M24.4051 24.1578C24.4051 23.7257 24.1142 23.3609 23.7182 23.247V19.4549L24.7735 18.3995V20.9445C24.3775 21.0584 24.0866 21.4233 24.0866 21.8553C24.0866 22.3783 24.5121 22.8037 25.035 22.8037C25.558 22.8037 25.9835 22.3783 25.9835 21.8553C25.9835 21.4231 25.6926 21.0583 25.2966 20.9445V17.8764L25.9922 17.1808L23.4567 14.6453L20.9212 17.1808L21.6169 17.8764V20.9443C21.2209 21.0583 20.93 21.4231 20.93 21.8552C20.93 22.3781 21.3555 22.8035 21.8784 22.8035C22.4014 22.8035 22.8268 22.3781 22.8268 21.8552C22.8268 21.423 22.536 21.0582 22.14 20.9443V18.3995L23.1953 19.4547V23.2469C22.7992 23.3608 22.5084 23.7256 22.5084 24.1577C22.5084 24.6807 22.9338 25.1062 23.4568 25.1062C23.9797 25.1063 24.4051 24.6808 24.4051 24.1578ZM25.4605 21.8554C25.4605 22.09 25.2697 22.2807 25.0351 22.2807C24.8006 22.2807 24.6098 22.09 24.6098 21.8554C24.6098 21.6209 24.8006 21.43 25.0351 21.43C25.2697 21.43 25.4605 21.6209 25.4605 21.8554ZM22.3037 21.8554C22.3037 22.09 22.113 22.2807 21.8784 22.2807C21.6439 22.2807 21.453 22.09 21.453 21.8554C21.453 21.6209 21.6439 21.43 21.8784 21.43C22.113 21.43 22.3037 21.6209 22.3037 21.8554ZM21.6608 17.1809L23.4567 15.385L25.2525 17.1809L23.4567 18.9767L21.6608 17.1809ZM23.0314 24.1578C23.0314 23.9233 23.2221 23.7326 23.4567 23.7326C23.6912 23.7326 23.8821 23.9233 23.8821 24.1578C23.8821 24.3924 23.6912 24.5832 23.4567 24.5832C23.2222 24.5832 23.0314 24.3924 23.0314 24.1578Z" fill="url(#paint6_linear_2564_8162)"/>
<path d="M24.4051 24.1578C24.4051 23.7257 24.1142 23.3609 23.7182 23.247V19.4549L24.7735 18.3995V20.9445C24.3775 21.0584 24.0866 21.4233 24.0866 21.8553C24.0866 22.3783 24.5121 22.8037 25.035 22.8037C25.558 22.8037 25.9835 22.3783 25.9835 21.8553C25.9835 21.4231 25.6926 21.0583 25.2966 20.9445V17.8764L25.9922 17.1808L23.4567 14.6453L20.9212 17.1808L21.6169 17.8764V20.9443C21.2209 21.0583 20.93 21.4231 20.93 21.8552C20.93 22.3781 21.3555 22.8035 21.8784 22.8035C22.4014 22.8035 22.8268 22.3781 22.8268 21.8552C22.8268 21.423 22.536 21.0582 22.14 20.9443V18.3995L23.1953 19.4547V23.2469C22.7992 23.3608 22.5084 23.7256 22.5084 24.1577C22.5084 24.6807 22.9338 25.1062 23.4568 25.1062C23.9797 25.1063 24.4051 24.6808 24.4051 24.1578ZM25.4605 21.8554C25.4605 22.09 25.2697 22.2807 25.0351 22.2807C24.8006 22.2807 24.6098 22.09 24.6098 21.8554C24.6098 21.6209 24.8006 21.43 25.0351 21.43C25.2697 21.43 25.4605 21.6209 25.4605 21.8554ZM22.3037 21.8554C22.3037 22.09 22.113 22.2807 21.8784 22.2807C21.6439 22.2807 21.453 22.09 21.453 21.8554C21.453 21.6209 21.6439 21.43 21.8784 21.43C22.113 21.43 22.3037 21.6209 22.3037 21.8554ZM21.6608 17.1809L23.4567 15.385L25.2525 17.1809L23.4567 18.9767L21.6608 17.1809ZM23.0314 24.1578C23.0314 23.9233 23.2221 23.7326 23.4567 23.7326C23.6912 23.7326 23.8821 23.9233 23.8821 24.1578C23.8821 24.3924 23.6912 24.5832 23.4567 24.5832C23.2222 24.5832 23.0314 24.3924 23.0314 24.1578Z" fill="url(#paint7_linear_2564_8162)"/>
<path d="M0.785156 25.167V12.03L6.65148 17.5038L12.2922 12.03V25.167L6.65148 30.8597L0.785156 25.167Z" stroke="#015C8E" stroke-width="1.5"/>
<path d="M40.7046 31.1558L33.9481 19.3863L30.2803 26.9377L32.3186 31.1558H40.7046Z" stroke="url(#paint8_linear_2564_8162)" stroke-width="1.5"/>
<path d="M32.3903 1.79608L28.6277 13.1967V23.3709L29.3597 24.9419L40.793 1.79608H32.3903Z" stroke="url(#paint9_linear_2564_8162)" stroke-width="1.5"/>
<rect x="19.5801" y="1.79608" width="7.39179" height="29.3597" stroke="url(#paint10_linear_2564_8162)" stroke-width="1.5"/>
<defs>
<linearGradient id="paint0_linear_2564_8162" x1="3.8048" y1="6.68736" x2="15.6895" y2="6.68736" gradientUnits="userSpaceOnUse">
<stop stop-color="#EC5200"/>
<stop offset="1" stop-color="#7F2D00"/>
</linearGradient>
<linearGradient id="paint1_linear_2564_8162" x1="9.73586" y1="0.89391" x2="2.89234" y2="12.1128" gradientUnits="userSpaceOnUse">
<stop stop-color="#009AEC"/>
<stop offset="1" stop-color="#005380"/>
</linearGradient>
<linearGradient id="paint2_linear_2564_8162" x1="3.8048" y1="6.68736" x2="15.6895" y2="6.68736" gradientUnits="userSpaceOnUse">
<stop stop-color="#009AEC"/>
<stop offset="1" stop-color="#005380"/>
</linearGradient>
<linearGradient id="paint3_linear_2564_8162" x1="9.73586" y1="0.89391" x2="2.89234" y2="12.1128" gradientUnits="userSpaceOnUse">
<stop stop-color="#009AEC"/>
<stop offset="1" stop-color="#005380"/>
</linearGradient>
<linearGradient id="paint4_linear_2564_8162" x1="23.4593" y1="19.8756" x2="23.4593" y2="9.41471" gradientUnits="userSpaceOnUse">
<stop stop-color="#009AEC"/>
<stop offset="1" stop-color="#005380"/>
</linearGradient>
<linearGradient id="paint5_linear_2564_8162" x1="23.4593" y1="19.8756" x2="23.4593" y2="9.41471" gradientUnits="userSpaceOnUse">
<stop stop-color="#009AEC"/>
<stop offset="1" stop-color="#005380"/>
</linearGradient>
<linearGradient id="paint6_linear_2564_8162" x1="23.4567" y1="14.6454" x2="23.4567" y2="25.1063" gradientUnits="userSpaceOnUse">
<stop stop-color="#009AEC"/>
<stop offset="1" stop-color="#005380"/>
</linearGradient>
<linearGradient id="paint7_linear_2564_8162" x1="23.4567" y1="14.6454" x2="23.4567" y2="25.1063" gradientUnits="userSpaceOnUse">
<stop stop-color="#009AEC"/>
<stop offset="1" stop-color="#005380"/>
</linearGradient>
<linearGradient id="paint8_linear_2564_8162" x1="35.7234" y1="1.04998" x2="35.7234" y2="31.9058" gradientUnits="userSpaceOnUse">
<stop stop-color="#009AEC"/>
<stop offset="1" stop-color="#005380"/>
</linearGradient>
<linearGradient id="paint9_linear_2564_8162" x1="34.9389" y1="1.04608" x2="34.9389" y2="32.026" gradientUnits="userSpaceOnUse">
<stop stop-color="#009AEC"/>
<stop offset="1" stop-color="#005380"/>
</linearGradient>
<linearGradient id="paint10_linear_2564_8162" x1="23.276" y1="1.04608" x2="23.276" y2="31.9058" gradientUnits="userSpaceOnUse">
<stop stop-color="#009AEC"/>
<stop offset="1" stop-color="#005380"/>
</linearGradient>
</defs>
</svg>
