<svg width="30" height="30" viewBox="0 0 30 30" fill="none" xmlns="http://www.w3.org/2000/svg">
<path d="M9.9375 25H19.9375C20.4544 25 20.875 24.5794 20.875 24.0625V5.9375C20.875 5.42062 20.4544 5 19.9375 5H9.9375C9.42062 5 9 5.42062 9 5.9375V24.0625C9 24.5794 9.42062 25 9.9375 25ZM9.625 5.9375C9.625 5.765 9.765 5.625 9.9375 5.625H19.9375C20.11 5.625 20.25 5.765 20.25 5.9375V24.0625C20.25 24.235 20.11 24.375 19.9375 24.375H9.9375C9.765 24.375 9.625 24.235 9.625 24.0625V5.9375Z" fill="#EC5200"/>
<path d="M10.5625 21.875H19.3125C19.485 21.875 19.625 21.735 19.625 21.5625V8.4375C19.625 8.265 19.485 8.125 19.3125 8.125H10.5625C10.39 8.125 10.25 8.265 10.25 8.4375V21.5625C10.25 21.735 10.39 21.875 10.5625 21.875ZM10.875 8.75H19V21.25H10.875V8.75Z" fill="#EC5200"/>
<path d="M15.25 23.75C15.5952 23.75 15.875 23.4702 15.875 23.125C15.875 22.7798 15.5952 22.5 15.25 22.5C14.9048 22.5 14.625 22.7798 14.625 23.125C14.625 23.4702 14.9048 23.75 15.25 23.75Z" fill="#EC5200"/>
<path d="M13.6875 7.5H16.1875C16.36 7.5 16.5 7.36 16.5 7.1875C16.5 7.015 16.36 6.875 16.1875 6.875H13.6875C13.515 6.875 13.375 7.015 13.375 7.1875C13.375 7.36 13.515 7.5 13.6875 7.5Z" fill="#EC5200"/>
<circle cx="15" cy="15" r="14.5" stroke="#EC5200"/>
</svg>
