<svg width="30" height="30" viewBox="0 0 30 30" fill="none" xmlns="http://www.w3.org/2000/svg">
<g clip-path="url(#clip0_2695_25972)">
<path d="M19.7955 11.9792L19.413 13.8792C19.288 14.5049 18.6868 14.9949 18.0443 14.9949H16.7493V23.7499C16.7493 24.4399 16.2237 24.9999 15.5299 24.9999H13.643C12.9493 24.9999 12.3849 24.4386 12.3849 23.7492V14.9949H11.7562C11.0624 14.9949 10.498 14.4342 10.498 13.7442V11.8686C10.498 11.1792 11.0624 10.618 11.7562 10.618H12.3849V8.75174C12.3849 6.69736 14.0574 5.02549 16.1205 5.00799C16.1337 5.00736 16.1449 5.00049 16.1587 5.00049H18.6749C19.0218 5.00049 19.2493 5.27986 19.2493 5.62486V8.74986C19.2493 9.09549 19.0218 9.37736 18.6749 9.37736H16.7874L16.7868 10.618H18.6737C19.0274 10.618 19.3537 10.7674 19.5674 11.0274C19.7818 11.2867 19.8649 11.6342 19.7955 11.9792ZM16.1818 11.8686C16.173 11.8692 16.1662 11.8736 16.1574 11.8736C15.8099 11.873 15.528 11.593 15.5287 11.248V11.2436L15.5299 8.75174C15.5299 8.40611 15.8112 8.12674 16.1587 8.12674H18.0455V6.25111H16.183C16.1724 6.25111 16.1637 6.25674 16.1524 6.25674C14.7687 6.25674 13.643 7.37611 13.643 8.75174V11.253C13.643 11.5986 13.3612 11.8786 13.0137 11.8786C12.9968 11.8786 12.9824 11.8699 12.9655 11.8686H11.7562V13.7442H13.0137C13.3612 13.7442 13.643 14.0242 13.643 14.3699C13.643 14.4024 13.6293 14.4299 13.6243 14.4611V23.7499L15.5299 23.7492V14.3761C15.5299 14.3736 15.5287 14.3717 15.5287 14.3699C15.5287 14.0242 15.8099 13.7442 16.1574 13.7442H18.0443C18.0899 13.7442 18.1712 13.6786 18.1793 13.6349L18.5349 11.8686H16.1818Z" fill="#EC5200"/>
</g>
<circle cx="15" cy="15" r="14.5" stroke="#EC5200"/>
<defs>
<clipPath id="clip0_2695_25972">
<rect width="9.31625" height="20" fill="white" transform="translate(10.5 5)"/>
</clipPath>
</defs>
</svg>
