<svg width="30" height="30" viewBox="0 0 30 30" fill="none" xmlns="http://www.w3.org/2000/svg">
<circle cx="15" cy="15" r="14.5" stroke="#EC5200"/>
<path d="M24.375 8.92959C23.3257 8.77087 22.2678 8.67564 21.207 8.64444C20.6313 8.0404 19.8731 7.64218 19.049 7.51099C18.2249 7.3798 17.3805 7.52289 16.6456 7.91828C15.9108 8.31367 15.3261 8.93946 14.9815 9.69946C14.6369 10.4595 14.5515 11.3116 14.7383 12.1249C11.582 11.9648 9.19141 10.3437 6.95703 7.9335C6.65234 8.52725 6.07422 10.4218 6.52344 11.789C7.0569 13.1403 7.9733 14.3065 9.16016 15.1444C8.01806 15.0922 6.89293 14.8479 5.83203 14.4218C6.38281 16.2304 8.27344 18.8554 11.2461 19.2655C9.90347 20.3262 8.24228 20.9029 6.53125 20.9023C6.22858 20.9058 5.92597 20.8915 5.625 20.8593C7.35925 21.98 9.38047 22.5755 11.4453 22.5741C18.4258 22.5741 22.2461 16.7577 22.2461 11.7108V11.2148L24.375 8.92959Z" stroke="#EC5200"/>
</svg>
