<svg width="293" height="23" viewBox="0 0 293 23" fill="none" xmlns="http://www.w3.org/2000/svg">
<mask id="path-1-outside-1_2635_18276" maskUnits="userSpaceOnUse" x="-1" y="-1" width="295" height="25" fill="black">
<rect fill="white" x="-1" y="-1" width="295" height="25"/>
<path d="M3.69992 22H0.789922V0.504999H3.69992V22ZM16.5931 9.925H17.6881C18.0681 9.925 18.3731 9.88 18.6031 9.79C18.8331 9.69 19.0431 9.525 19.2331 9.295L26.3881 1.195C26.5881 0.934999 26.7981 0.754998 27.0181 0.654999C27.2381 0.554999 27.5081 0.504999 27.8281 0.504999H30.2881L22.0981 9.76C21.8981 10 21.7031 10.2 21.5131 10.36C21.3331 10.51 21.1381 10.635 20.9281 10.735C21.1981 10.825 21.4431 10.96 21.6631 11.14C21.8831 11.31 22.0981 11.535 22.3081 11.815L30.8581 22H28.3381C28.1481 22 27.9831 21.99 27.8431 21.97C27.7131 21.94 27.5981 21.9 27.4981 21.85C27.3981 21.79 27.3081 21.725 27.2281 21.655C27.1581 21.575 27.0881 21.485 27.0181 21.385L19.6081 12.85C19.4081 12.6 19.1931 12.425 18.9631 12.325C18.7331 12.215 18.3831 12.16 17.9131 12.16H16.5931V22H13.6981V0.504999H16.5931V9.925ZM40.9714 22H38.0614V0.504999H40.9714V22ZM68.4296 11.665V19.915C67.3496 20.695 66.1946 21.28 64.9646 21.67C63.7446 22.05 62.4046 22.24 60.9446 22.24C59.2146 22.24 57.6546 21.975 56.2646 21.445C54.8746 20.905 53.6846 20.155 52.6946 19.195C51.7146 18.225 50.9596 17.065 50.4296 15.715C49.8996 14.365 49.6346 12.88 49.6346 11.26C49.6346 9.62 49.8896 8.125 50.3996 6.775C50.9196 5.425 51.6546 4.27 52.6046 3.31C53.5546 2.34 54.7096 1.59 56.0696 1.06C57.4296 0.529999 58.9496 0.264998 60.6296 0.264998C61.4796 0.264998 62.2696 0.329998 62.9996 0.459998C63.7296 0.579999 64.4046 0.759999 65.0246 0.999999C65.6446 1.23 66.2196 1.515 66.7496 1.855C67.2796 2.185 67.7746 2.56 68.2346 2.98L67.4096 4.3C67.2796 4.5 67.1096 4.63 66.8996 4.69C66.6996 4.74 66.4746 4.69 66.2246 4.54C65.9846 4.4 65.7096 4.23 65.3996 4.03C65.0896 3.83 64.7096 3.64 64.2596 3.46C63.8196 3.27 63.2946 3.11 62.6846 2.98C62.0846 2.85 61.3696 2.785 60.5396 2.785C59.3296 2.785 58.2346 2.985 57.2546 3.385C56.2746 3.775 55.4396 4.34 54.7496 5.08C54.0596 5.81 53.5296 6.7 53.1596 7.75C52.7896 8.79 52.6046 9.96 52.6046 11.26C52.6046 12.61 52.7946 13.82 53.1746 14.89C53.5646 15.95 54.1146 16.855 54.8246 17.605C55.5446 18.345 56.4146 18.91 57.4346 19.3C58.4546 19.69 59.5996 19.885 60.8696 19.885C61.8696 19.885 62.7546 19.775 63.5246 19.555C64.3046 19.325 65.0646 19.01 65.8046 18.61V13.885H62.4596C62.2696 13.885 62.1146 13.83 61.9946 13.72C61.8846 13.61 61.8296 13.475 61.8296 13.315V11.665H68.4296ZM88.6229 14.02L85.2479 5.275C85.1479 5.015 85.0429 4.715 84.9329 4.375C84.8229 4.025 84.7179 3.655 84.6179 3.265C84.4079 4.075 84.1929 4.75 83.9729 5.29L80.5979 14.02H88.6229ZM94.6829 22H92.4329C92.1729 22 91.9629 21.935 91.8029 21.805C91.6429 21.675 91.5229 21.51 91.4429 21.31L89.4329 16.12H79.7879L77.7779 21.31C77.7179 21.49 77.6029 21.65 77.4329 21.79C77.2629 21.93 77.0529 22 76.8029 22H74.5529L83.1479 0.504999H86.0879L94.6829 22ZM104.921 22H102.011V0.504999H104.921V22ZM142.185 17.56C142.345 17.56 142.485 17.625 142.605 17.755L143.76 19C142.88 20.02 141.81 20.815 140.55 21.385C139.3 21.955 137.785 22.24 136.005 22.24C134.465 22.24 133.065 21.975 131.805 21.445C130.545 20.905 129.47 20.155 128.58 19.195C127.69 18.225 127 17.065 126.51 15.715C126.02 14.365 125.775 12.88 125.775 11.26C125.775 9.64 126.03 8.155 126.54 6.805C127.05 5.455 127.765 4.295 128.685 3.325C129.615 2.355 130.725 1.605 132.015 1.075C133.305 0.534998 134.73 0.264998 136.29 0.264998C137.82 0.264998 139.17 0.509998 140.34 0.999999C141.51 1.49 142.54 2.155 143.43 2.995L142.47 4.33C142.41 4.43 142.33 4.515 142.23 4.585C142.14 4.645 142.015 4.675 141.855 4.675C141.675 4.675 141.455 4.58 141.195 4.39C140.935 4.19 140.595 3.97 140.175 3.73C139.755 3.49 139.23 3.275 138.6 3.085C137.97 2.885 137.195 2.785 136.275 2.785C135.165 2.785 134.15 2.98 133.23 3.37C132.31 3.75 131.515 4.305 130.845 5.035C130.185 5.765 129.67 6.655 129.3 7.705C128.93 8.755 128.745 9.94 128.745 11.26C128.745 12.6 128.935 13.795 129.315 14.845C129.705 15.895 130.23 16.785 130.89 17.515C131.56 18.235 132.345 18.785 133.245 19.165C134.155 19.545 135.135 19.735 136.185 19.735C136.825 19.735 137.4 19.7 137.91 19.63C138.43 19.55 138.905 19.43 139.335 19.27C139.775 19.11 140.18 18.91 140.55 18.67C140.93 18.42 141.305 18.125 141.675 17.785C141.845 17.635 142.015 17.56 142.185 17.56ZM157.589 10.915C158.429 10.915 159.169 10.815 159.809 10.615C160.459 10.405 160.999 10.115 161.429 9.745C161.869 9.365 162.199 8.915 162.419 8.395C162.639 7.875 162.749 7.3 162.749 6.67C162.749 5.39 162.329 4.425 161.489 3.775C160.649 3.125 159.389 2.8 157.709 2.8H154.529V10.915H157.589ZM167.519 22H164.939C164.409 22 164.019 21.795 163.769 21.385L158.189 13.705C158.019 13.465 157.834 13.295 157.634 13.195C157.444 13.085 157.144 13.03 156.734 13.03H154.529V22H151.634V0.504999H157.709C159.069 0.504999 160.244 0.644999 161.234 0.924999C162.224 1.195 163.039 1.59 163.679 2.11C164.329 2.63 164.809 3.26 165.119 4C165.429 4.73 165.584 5.55 165.584 6.46C165.584 7.22 165.464 7.93 165.224 8.59C164.984 9.25 164.634 9.845 164.174 10.375C163.724 10.895 163.169 11.34 162.509 11.71C161.859 12.08 161.119 12.36 160.289 12.55C160.659 12.76 160.979 13.065 161.249 13.465L167.519 22ZM188.202 19.63L188.187 22H174.942V0.504999H188.187V2.875H177.852V10.015H186.222V12.295H177.852V19.63H188.202ZM208.172 14.02L204.797 5.275C204.697 5.015 204.592 4.715 204.482 4.375C204.372 4.025 204.267 3.655 204.167 3.265C203.957 4.075 203.742 4.75 203.522 5.29L200.147 14.02H208.172ZM214.232 22H211.982C211.722 22 211.512 21.935 211.352 21.805C211.192 21.675 211.072 21.51 210.992 21.31L208.982 16.12H199.337L197.327 21.31C197.267 21.49 197.152 21.65 196.982 21.79C196.812 21.93 196.602 22 196.352 22H194.102L202.697 0.504999H205.637L214.232 22ZM233.985 2.95H227.025V22H224.13V2.95H217.155V0.504999H233.985V2.95ZM244.585 22H241.675V0.504999H244.585V22ZM272.058 0.504999L263.298 22H260.688L251.928 0.504999H254.253C254.513 0.504999 254.723 0.569999 254.883 0.699999C255.043 0.829999 255.163 0.994999 255.243 1.195L261.303 16.36C261.433 16.7 261.558 17.07 261.678 17.47C261.808 17.87 261.923 18.29 262.023 18.73C262.123 18.29 262.228 17.87 262.338 17.47C262.448 17.07 262.568 16.7 262.698 16.36L268.743 1.195C268.803 1.025 268.918 0.869999 269.088 0.729998C269.268 0.579999 269.483 0.504999 269.733 0.504999H272.058ZM292.646 19.63L292.631 22H279.386V0.504999H292.631V2.875H282.296V10.015H290.666V12.295H282.296V19.63H292.646Z"/>
</mask>
<path d="M3.69992 22H0.789922V0.504999H3.69992V22ZM16.5931 9.925H17.6881C18.0681 9.925 18.3731 9.88 18.6031 9.79C18.8331 9.69 19.0431 9.525 19.2331 9.295L26.3881 1.195C26.5881 0.934999 26.7981 0.754998 27.0181 0.654999C27.2381 0.554999 27.5081 0.504999 27.8281 0.504999H30.2881L22.0981 9.76C21.8981 10 21.7031 10.2 21.5131 10.36C21.3331 10.51 21.1381 10.635 20.9281 10.735C21.1981 10.825 21.4431 10.96 21.6631 11.14C21.8831 11.31 22.0981 11.535 22.3081 11.815L30.8581 22H28.3381C28.1481 22 27.9831 21.99 27.8431 21.97C27.7131 21.94 27.5981 21.9 27.4981 21.85C27.3981 21.79 27.3081 21.725 27.2281 21.655C27.1581 21.575 27.0881 21.485 27.0181 21.385L19.6081 12.85C19.4081 12.6 19.1931 12.425 18.9631 12.325C18.7331 12.215 18.3831 12.16 17.9131 12.16H16.5931V22H13.6981V0.504999H16.5931V9.925ZM40.9714 22H38.0614V0.504999H40.9714V22ZM68.4296 11.665V19.915C67.3496 20.695 66.1946 21.28 64.9646 21.67C63.7446 22.05 62.4046 22.24 60.9446 22.24C59.2146 22.24 57.6546 21.975 56.2646 21.445C54.8746 20.905 53.6846 20.155 52.6946 19.195C51.7146 18.225 50.9596 17.065 50.4296 15.715C49.8996 14.365 49.6346 12.88 49.6346 11.26C49.6346 9.62 49.8896 8.125 50.3996 6.775C50.9196 5.425 51.6546 4.27 52.6046 3.31C53.5546 2.34 54.7096 1.59 56.0696 1.06C57.4296 0.529999 58.9496 0.264998 60.6296 0.264998C61.4796 0.264998 62.2696 0.329998 62.9996 0.459998C63.7296 0.579999 64.4046 0.759999 65.0246 0.999999C65.6446 1.23 66.2196 1.515 66.7496 1.855C67.2796 2.185 67.7746 2.56 68.2346 2.98L67.4096 4.3C67.2796 4.5 67.1096 4.63 66.8996 4.69C66.6996 4.74 66.4746 4.69 66.2246 4.54C65.9846 4.4 65.7096 4.23 65.3996 4.03C65.0896 3.83 64.7096 3.64 64.2596 3.46C63.8196 3.27 63.2946 3.11 62.6846 2.98C62.0846 2.85 61.3696 2.785 60.5396 2.785C59.3296 2.785 58.2346 2.985 57.2546 3.385C56.2746 3.775 55.4396 4.34 54.7496 5.08C54.0596 5.81 53.5296 6.7 53.1596 7.75C52.7896 8.79 52.6046 9.96 52.6046 11.26C52.6046 12.61 52.7946 13.82 53.1746 14.89C53.5646 15.95 54.1146 16.855 54.8246 17.605C55.5446 18.345 56.4146 18.91 57.4346 19.3C58.4546 19.69 59.5996 19.885 60.8696 19.885C61.8696 19.885 62.7546 19.775 63.5246 19.555C64.3046 19.325 65.0646 19.01 65.8046 18.61V13.885H62.4596C62.2696 13.885 62.1146 13.83 61.9946 13.72C61.8846 13.61 61.8296 13.475 61.8296 13.315V11.665H68.4296ZM88.6229 14.02L85.2479 5.275C85.1479 5.015 85.0429 4.715 84.9329 4.375C84.8229 4.025 84.7179 3.655 84.6179 3.265C84.4079 4.075 84.1929 4.75 83.9729 5.29L80.5979 14.02H88.6229ZM94.6829 22H92.4329C92.1729 22 91.9629 21.935 91.8029 21.805C91.6429 21.675 91.5229 21.51 91.4429 21.31L89.4329 16.12H79.7879L77.7779 21.31C77.7179 21.49 77.6029 21.65 77.4329 21.79C77.2629 21.93 77.0529 22 76.8029 22H74.5529L83.1479 0.504999H86.0879L94.6829 22ZM104.921 22H102.011V0.504999H104.921V22ZM142.185 17.56C142.345 17.56 142.485 17.625 142.605 17.755L143.76 19C142.88 20.02 141.81 20.815 140.55 21.385C139.3 21.955 137.785 22.24 136.005 22.24C134.465 22.24 133.065 21.975 131.805 21.445C130.545 20.905 129.47 20.155 128.58 19.195C127.69 18.225 127 17.065 126.51 15.715C126.02 14.365 125.775 12.88 125.775 11.26C125.775 9.64 126.03 8.155 126.54 6.805C127.05 5.455 127.765 4.295 128.685 3.325C129.615 2.355 130.725 1.605 132.015 1.075C133.305 0.534998 134.73 0.264998 136.29 0.264998C137.82 0.264998 139.17 0.509998 140.34 0.999999C141.51 1.49 142.54 2.155 143.43 2.995L142.47 4.33C142.41 4.43 142.33 4.515 142.23 4.585C142.14 4.645 142.015 4.675 141.855 4.675C141.675 4.675 141.455 4.58 141.195 4.39C140.935 4.19 140.595 3.97 140.175 3.73C139.755 3.49 139.23 3.275 138.6 3.085C137.97 2.885 137.195 2.785 136.275 2.785C135.165 2.785 134.15 2.98 133.23 3.37C132.31 3.75 131.515 4.305 130.845 5.035C130.185 5.765 129.67 6.655 129.3 7.705C128.93 8.755 128.745 9.94 128.745 11.26C128.745 12.6 128.935 13.795 129.315 14.845C129.705 15.895 130.23 16.785 130.89 17.515C131.56 18.235 132.345 18.785 133.245 19.165C134.155 19.545 135.135 19.735 136.185 19.735C136.825 19.735 137.4 19.7 137.91 19.63C138.43 19.55 138.905 19.43 139.335 19.27C139.775 19.11 140.18 18.91 140.55 18.67C140.93 18.42 141.305 18.125 141.675 17.785C141.845 17.635 142.015 17.56 142.185 17.56ZM157.589 10.915C158.429 10.915 159.169 10.815 159.809 10.615C160.459 10.405 160.999 10.115 161.429 9.745C161.869 9.365 162.199 8.915 162.419 8.395C162.639 7.875 162.749 7.3 162.749 6.67C162.749 5.39 162.329 4.425 161.489 3.775C160.649 3.125 159.389 2.8 157.709 2.8H154.529V10.915H157.589ZM167.519 22H164.939C164.409 22 164.019 21.795 163.769 21.385L158.189 13.705C158.019 13.465 157.834 13.295 157.634 13.195C157.444 13.085 157.144 13.03 156.734 13.03H154.529V22H151.634V0.504999H157.709C159.069 0.504999 160.244 0.644999 161.234 0.924999C162.224 1.195 163.039 1.59 163.679 2.11C164.329 2.63 164.809 3.26 165.119 4C165.429 4.73 165.584 5.55 165.584 6.46C165.584 7.22 165.464 7.93 165.224 8.59C164.984 9.25 164.634 9.845 164.174 10.375C163.724 10.895 163.169 11.34 162.509 11.71C161.859 12.08 161.119 12.36 160.289 12.55C160.659 12.76 160.979 13.065 161.249 13.465L167.519 22ZM188.202 19.63L188.187 22H174.942V0.504999H188.187V2.875H177.852V10.015H186.222V12.295H177.852V19.63H188.202ZM208.172 14.02L204.797 5.275C204.697 5.015 204.592 4.715 204.482 4.375C204.372 4.025 204.267 3.655 204.167 3.265C203.957 4.075 203.742 4.75 203.522 5.29L200.147 14.02H208.172ZM214.232 22H211.982C211.722 22 211.512 21.935 211.352 21.805C211.192 21.675 211.072 21.51 210.992 21.31L208.982 16.12H199.337L197.327 21.31C197.267 21.49 197.152 21.65 196.982 21.79C196.812 21.93 196.602 22 196.352 22H194.102L202.697 0.504999H205.637L214.232 22ZM233.985 2.95H227.025V22H224.13V2.95H217.155V0.504999H233.985V2.95ZM244.585 22H241.675V0.504999H244.585V22ZM272.058 0.504999L263.298 22H260.688L251.928 0.504999H254.253C254.513 0.504999 254.723 0.569999 254.883 0.699999C255.043 0.829999 255.163 0.994999 255.243 1.195L261.303 16.36C261.433 16.7 261.558 17.07 261.678 17.47C261.808 17.87 261.923 18.29 262.023 18.73C262.123 18.29 262.228 17.87 262.338 17.47C262.448 17.07 262.568 16.7 262.698 16.36L268.743 1.195C268.803 1.025 268.918 0.869999 269.088 0.729998C269.268 0.579999 269.483 0.504999 269.733 0.504999H272.058ZM292.646 19.63L292.631 22H279.386V0.504999H292.631V2.875H282.296V10.015H290.666V12.295H282.296V19.63H292.646Z" fill="#009AEC" fill-opacity="0.1"/>
<path d="M3.69992 22V23H4.69992V22H3.69992ZM0.789922 22H-0.210078V23H0.789922V22ZM0.789922 0.504999V-0.495001H-0.210078V0.504999H0.789922ZM3.69992 0.504999H4.69992V-0.495001H3.69992V0.504999ZM3.69992 21H0.789922V23H3.69992V21ZM1.78992 22V0.504999H-0.210078V22H1.78992ZM0.789922 1.505H3.69992V-0.495001H0.789922V1.505ZM2.69992 0.504999V22H4.69992V0.504999H2.69992ZM16.5931 9.925H15.5931V10.925H16.5931V9.925ZM18.6031 9.79L18.9675 10.7212L18.9848 10.7145L19.0019 10.7071L18.6031 9.79ZM19.2331 9.295L18.4837 8.63296L18.4727 8.64536L18.4622 8.65812L19.2331 9.295ZM26.3881 1.195L27.1376 1.85703L27.1601 1.8316L27.1808 1.80471L26.3881 1.195ZM27.0181 0.654999L27.4319 1.56537L27.4319 1.56536L27.0181 0.654999ZM30.2881 0.504999L31.037 1.1677L32.5084 -0.495001H30.2881V0.504999ZM22.0981 9.76L21.3492 9.09729L21.3394 9.10841L21.3299 9.11982L22.0981 9.76ZM21.5131 10.36L22.1533 11.1282L22.1573 11.1249L21.5131 10.36ZM20.9281 10.735L20.4982 9.83214L18.2578 10.899L20.6119 11.6837L20.9281 10.735ZM21.6631 11.14L21.0299 11.914L21.0407 11.9228L21.0517 11.9313L21.6631 11.14ZM22.3081 11.815L21.5081 12.415L21.5246 12.4369L21.5422 12.458L22.3081 11.815ZM30.8581 22V23H33.0032L31.624 21.357L30.8581 22ZM27.8431 21.97L27.6183 22.9444L27.6597 22.9539L27.7017 22.9599L27.8431 21.97ZM27.4981 21.85L26.9836 22.7075L27.0166 22.7273L27.0509 22.7444L27.4981 21.85ZM27.2281 21.655L26.4755 22.3135L26.5194 22.3637L26.5696 22.4076L27.2281 21.655ZM27.0181 21.385L27.8374 20.8115L27.8074 20.7688L27.7732 20.7294L27.0181 21.385ZM19.6081 12.85L18.8273 13.4747L18.8398 13.4904L18.853 13.5056L19.6081 12.85ZM18.9631 12.325L18.5317 13.2271L18.5479 13.2349L18.5644 13.2421L18.9631 12.325ZM16.5931 12.16V11.16H15.5931V12.16H16.5931ZM16.5931 22V23H17.5931V22H16.5931ZM13.6981 22H12.6981V23H13.6981V22ZM13.6981 0.504999V-0.495001H12.6981V0.504999H13.6981ZM16.5931 0.504999H17.5931V-0.495001H16.5931V0.504999ZM16.5931 10.925H17.6881V8.925H16.5931V10.925ZM17.6881 10.925C18.1328 10.925 18.5762 10.8744 18.9675 10.7212L18.2387 8.85876C18.17 8.88564 18.0035 8.925 17.6881 8.925V10.925ZM19.0019 10.7071C19.4012 10.5334 19.7327 10.2604 20.0041 9.93188L18.4622 8.65812C18.3536 8.78958 18.2651 8.84656 18.2044 8.87293L19.0019 10.7071ZM19.9826 9.95703L27.1376 1.85703L25.6387 0.532964L18.4837 8.63296L19.9826 9.95703ZM27.1808 1.80471C27.315 1.63018 27.4045 1.57781 27.4319 1.56537L26.6043 -0.255369C26.1917 -0.0678142 25.8612 0.239818 25.5955 0.585289L27.1808 1.80471ZM27.4319 1.56536C27.4871 1.5403 27.6068 1.505 27.8281 1.505V-0.495001C27.4094 -0.495001 26.9892 -0.430298 26.6043 -0.255368L27.4319 1.56536ZM27.8281 1.505H30.2881V-0.495001H27.8281V1.505ZM29.5392 -0.157706L21.3492 9.09729L22.847 10.4227L31.037 1.1677L29.5392 -0.157706ZM21.3299 9.11982C21.1584 9.32563 21.0043 9.48113 20.869 9.59509L22.1573 11.1249C22.4019 10.9189 22.6379 10.6744 22.8663 10.4002L21.3299 9.11982ZM20.8729 9.59178C20.7566 9.68869 20.6322 9.76833 20.4982 9.83214L21.3581 11.6379C21.6441 11.5017 21.9096 11.3313 22.1533 11.1282L20.8729 9.59178ZM20.6119 11.6837C20.7666 11.7353 20.9042 11.8111 21.0299 11.914L22.2964 10.366C21.9821 10.1089 21.6296 9.91474 21.2444 9.78632L20.6119 11.6837ZM21.0517 11.9313C21.1849 12.0342 21.3388 12.1893 21.5081 12.415L23.1081 11.215C22.8574 10.8807 22.5813 10.5858 22.2746 10.3487L21.0517 11.9313ZM21.5422 12.458L30.0922 22.643L31.624 21.357L23.074 11.172L21.5422 12.458ZM30.8581 21H28.3381V23H30.8581V21ZM28.3381 21C28.1805 21 28.0649 20.9915 27.9845 20.9801L27.7017 22.9599C27.9013 22.9885 28.1158 23 28.3381 23V21ZM28.068 20.9956C28.0007 20.9801 27.9626 20.9642 27.9453 20.9556L27.0509 22.7444C27.2336 22.8358 27.4256 22.8999 27.6183 22.9444L28.068 20.9956ZM28.0126 20.9925C27.9588 20.9602 27.9178 20.9297 27.8866 20.9024L26.5696 22.4076C26.6985 22.5203 26.8375 22.6198 26.9836 22.7075L28.0126 20.9925ZM27.9807 20.9965C27.9376 20.9472 27.8896 20.8862 27.8374 20.8115L26.1989 21.9585C26.2866 22.0838 26.3786 22.2028 26.4755 22.3135L27.9807 20.9965ZM27.7732 20.7294L20.3632 12.1944L18.853 13.5056L26.263 22.0406L27.7732 20.7294ZM20.389 12.2253C20.1147 11.8824 19.7767 11.5883 19.3619 11.4079L18.5644 13.2421C18.6095 13.2617 18.7015 13.3176 18.8273 13.4747L20.389 12.2253ZM19.3946 11.4229C18.9593 11.2147 18.4271 11.16 17.9131 11.16V13.16C18.1118 13.16 18.2627 13.1718 18.3729 13.1891C18.4271 13.1977 18.4669 13.2068 18.4945 13.2146C18.5223 13.2226 18.5332 13.2279 18.5317 13.2271L19.3946 11.4229ZM17.9131 11.16H16.5931V13.16H17.9131V11.16ZM15.5931 12.16V22H17.5931V12.16H15.5931ZM16.5931 21H13.6981V23H16.5931V21ZM14.6981 22V0.504999H12.6981V22H14.6981ZM13.6981 1.505H16.5931V-0.495001H13.6981V1.505ZM15.5931 0.504999V9.925H17.5931V0.504999H15.5931ZM40.9714 22V23H41.9714V22H40.9714ZM38.0614 22H37.0614V23H38.0614V22ZM38.0614 0.504999V-0.495001H37.0614V0.504999H38.0614ZM40.9714 0.504999H41.9714V-0.495001H40.9714V0.504999ZM40.9714 21H38.0614V23H40.9714V21ZM39.0614 22V0.504999H37.0614V22H39.0614ZM38.0614 1.505H40.9714V-0.495001H38.0614V1.505ZM39.9714 0.504999V22H41.9714V0.504999H39.9714ZM68.4296 11.665H69.4296V10.665H68.4296V11.665ZM68.4296 19.915L69.0151 20.7257L69.4296 20.4263V19.915H68.4296ZM64.9646 21.67L65.262 22.6248L65.2669 22.6232L64.9646 21.67ZM56.2646 21.445L55.9025 22.3771L55.9083 22.3794L56.2646 21.445ZM52.6946 19.195L51.9911 19.9058L51.9985 19.9129L52.6946 19.195ZM50.4296 15.715L51.3604 15.3496L51.3604 15.3496L50.4296 15.715ZM50.3996 6.775L49.4664 6.41555L49.4641 6.4216L50.3996 6.775ZM52.6046 3.31L53.3154 4.0134L53.319 4.0097L52.6046 3.31ZM56.0696 1.06L56.4327 1.99175L56.4327 1.99175L56.0696 1.06ZM62.9996 0.459998L62.8243 1.4446L62.8374 1.44676L62.9996 0.459998ZM65.0246 0.999999L64.6636 1.93266L64.6768 1.93756L65.0246 0.999999ZM66.7496 1.855L66.2096 2.69677L66.2211 2.7039L66.7496 1.855ZM68.2346 2.98L69.0826 3.51L69.5243 2.80337L68.9089 2.24151L68.2346 2.98ZM67.4096 4.3L68.2481 4.84499L68.2529 4.83754L68.2576 4.83L67.4096 4.3ZM66.8996 4.69L67.1421 5.66014L67.1583 5.6561L67.1743 5.65152L66.8996 4.69ZM66.2246 4.54L66.7391 3.68244L66.7285 3.67622L66.2246 4.54ZM65.3996 4.03L65.9417 3.1897L65.9417 3.1897L65.3996 4.03ZM64.2596 3.46L63.8632 4.37806L63.8756 4.38344L63.8882 4.38848L64.2596 3.46ZM62.6846 2.98L62.4729 3.95733L62.4762 3.95804L62.6846 2.98ZM57.2546 3.385L57.6244 4.31416L57.6325 4.31085L57.2546 3.385ZM54.7496 5.08L55.4764 5.76693L55.481 5.76197L54.7496 5.08ZM53.1596 7.75L54.1018 8.08519L54.1028 8.08235L53.1596 7.75ZM53.1746 14.89L52.2322 15.2247L52.2361 15.2353L53.1746 14.89ZM54.8246 17.605L54.0983 18.2925L54.1079 18.3024L54.8246 17.605ZM63.5246 19.555L63.7993 20.5166L63.8074 20.5142L63.5246 19.555ZM65.8046 18.61L66.2801 19.4897L66.8046 19.2062V18.61H65.8046ZM65.8046 13.885H66.8046V12.885H65.8046V13.885ZM61.9946 13.72L61.2875 14.4271L61.3029 14.4425L61.3189 14.4572L61.9946 13.72ZM61.8296 11.665V10.665H60.8296V11.665H61.8296ZM67.4296 11.665V19.915H69.4296V11.665H67.4296ZM67.8441 19.1043C66.8475 19.8241 65.7877 20.36 64.6624 20.7168L65.2669 22.6232C66.6015 22.2 67.8517 21.5659 69.0151 20.7257L67.8441 19.1043ZM64.6672 20.7152C63.5561 21.0613 62.3179 21.24 60.9446 21.24V23.24C62.4913 23.24 63.9331 23.0387 65.262 22.6248L64.6672 20.7152ZM60.9446 21.24C59.3169 21.24 57.8802 20.9908 56.6209 20.5106L55.9083 22.3794C57.429 22.9592 59.1124 23.24 60.9446 23.24V21.24ZM56.6267 20.5129C55.351 20.0173 54.2773 19.3367 53.3908 18.4771L51.9985 19.9129C53.092 20.9733 54.3982 21.7927 55.9025 22.3771L56.6267 20.5129ZM53.3981 18.4843C52.5222 17.6173 51.8422 16.5767 51.3604 15.3496L49.4988 16.0804C50.077 17.5533 50.907 18.8327 51.9911 19.9057L53.3981 18.4843ZM51.3604 15.3496C50.8812 14.1288 50.6346 12.7695 50.6346 11.26H48.6346C48.6346 12.9905 48.918 14.6012 49.4988 16.0804L51.3604 15.3496ZM50.6346 11.26C50.6346 9.72442 50.8732 8.35115 51.3351 7.1284L49.4641 6.4216C48.9061 7.89885 48.6346 9.51558 48.6346 11.26H50.6346ZM51.3328 7.13444C51.8068 5.90391 52.4692 4.86847 53.3154 4.01339L51.8938 2.6066C50.84 3.67152 50.0325 4.94608 49.4664 6.41556L51.3328 7.13444ZM53.319 4.0097C54.1624 3.14856 55.1949 2.47414 56.4327 1.99175L55.7065 0.128252C54.2243 0.705863 52.9468 1.53144 51.8902 2.6103L53.319 4.0097ZM56.4327 1.99175C57.6609 1.51312 59.0553 1.265 60.6296 1.265V-0.735002C58.8439 -0.735002 57.1983 -0.453126 55.7065 0.128252L56.4327 1.99175ZM60.6296 1.265C61.4292 1.265 62.1598 1.32618 62.8243 1.44451L63.1749 -0.524512C62.3794 -0.666184 61.5301 -0.735002 60.6296 -0.735002V1.265ZM62.8374 1.44676C63.507 1.55682 64.1146 1.72003 64.6636 1.93257L65.3856 0.0674303C64.6947 -0.200032 63.9523 -0.396821 63.1618 -0.526758L62.8374 1.44676ZM64.6768 1.93756C65.2329 2.14385 65.743 2.39735 66.2097 2.69669L67.2896 1.01331C66.6962 0.632652 66.0564 0.316152 65.3724 0.0624323L64.6768 1.93756ZM66.2211 2.7039C66.6993 3.00169 67.1455 3.33976 67.5603 3.71848L68.9089 2.24151C68.4037 1.78024 67.8599 1.3683 67.2782 1.0061L66.2211 2.7039ZM67.3866 2.45L66.5616 3.77L68.2576 4.83L69.0826 3.51L67.3866 2.45ZM66.5712 3.75501C66.5613 3.7702 66.5617 3.76495 66.5772 3.75314C66.5844 3.74759 66.593 3.74213 66.6024 3.73745C66.6117 3.73278 66.6196 3.72998 66.6249 3.72848L67.1743 5.65152C67.6384 5.51893 67.9996 5.22719 68.2481 4.84499L66.5712 3.75501ZM66.6571 3.71986C66.6888 3.71192 66.7188 3.70875 66.7449 3.70875C66.7706 3.70875 66.7888 3.71181 66.7978 3.71381C66.8138 3.71736 66.7952 3.71617 66.7391 3.68251L65.7101 5.39749C66.0923 5.6268 66.5941 5.79715 67.1421 5.66014L66.6571 3.71986ZM66.7285 3.67622C66.5048 3.54574 66.243 3.38404 65.9417 3.1897L64.8575 4.87029C65.1763 5.07596 65.4644 5.25426 65.7207 5.40378L66.7285 3.67622ZM65.9417 3.1897C65.5641 2.94604 65.1232 2.72841 64.631 2.53152L63.8882 4.38848C64.296 4.55158 64.6152 4.71396 64.8575 4.8703L65.9417 3.1897ZM64.656 2.54194C64.1406 2.31935 63.5494 2.14184 62.893 2.00196L62.4762 3.95804C63.0398 4.07815 63.4986 4.22065 63.8632 4.37806L64.656 2.54194ZM62.8964 2.00268C62.2074 1.85339 61.4177 1.785 60.5396 1.785V3.785C61.3215 3.785 61.9619 3.84661 62.4729 3.95732L62.8964 2.00268ZM60.5396 1.785C59.2184 1.785 57.9926 2.00368 56.8767 2.45915L57.6325 4.31085C58.4766 3.96632 59.4408 3.785 60.5396 3.785V1.785ZM56.8849 2.45587C55.7735 2.89814 54.8133 3.54532 54.0182 4.39803L55.481 5.76197C56.0659 5.13468 56.7757 4.65186 57.6244 4.31413L56.8849 2.45587ZM54.0229 4.39308C53.2268 5.23535 52.6279 6.25 52.2165 7.41765L54.1028 8.08235C54.4313 7.15 54.8925 6.38465 55.4763 5.76692L54.0229 4.39308ZM52.2175 7.41481C51.8031 8.57963 51.6046 9.86562 51.6046 11.26H53.6046C53.6046 10.0544 53.7762 9.00036 54.1018 8.08519L52.2175 7.41481ZM51.6046 11.26C51.6046 12.703 51.8077 14.0291 52.2323 15.2247L54.1169 14.5553C53.7816 13.6109 53.6046 12.517 53.6046 11.26H51.6046ZM52.2361 15.2353C52.6685 16.4106 53.2868 17.4351 54.0984 18.2925L55.5508 16.9175C54.9425 16.2749 54.4607 15.4894 54.1131 14.5447L52.2361 15.2353ZM54.1079 18.3024C54.9349 19.1524 55.9298 19.7952 57.0775 20.2341L57.7917 18.3659C56.8994 18.0248 56.1543 17.5376 55.5413 16.9076L54.1079 18.3024ZM57.0775 20.2341C58.2285 20.6741 59.4971 20.885 60.8696 20.885V18.885C59.7021 18.885 58.6808 18.7059 57.7917 18.3659L57.0775 20.2341ZM60.8696 20.885C61.9405 20.885 62.921 20.7675 63.7993 20.5165L63.2499 18.5935C62.5882 18.7825 61.7987 18.885 60.8696 18.885V20.885ZM63.8074 20.5142C64.6565 20.2638 65.481 19.9217 66.2801 19.4897L65.3291 17.7303C64.6483 18.0983 63.9527 18.3862 63.2418 18.5958L63.8074 20.5142ZM66.8046 18.61V13.885H64.8046V18.61H66.8046ZM65.8046 12.885H62.4596V14.885H65.8046V12.885ZM62.4596 12.885C62.4612 12.885 62.4902 12.8853 62.5353 12.9013C62.5828 12.9182 62.6304 12.9463 62.6703 12.9828L61.3189 14.4572C61.6537 14.7641 62.064 14.885 62.4596 14.885V12.885ZM62.7017 13.0129C62.7345 13.0457 62.7709 13.0949 62.797 13.159C62.8228 13.2225 62.8296 13.2783 62.8296 13.315H60.8296C60.8296 13.7318 60.9841 14.1237 61.2875 14.4271L62.7017 13.0129ZM62.8296 13.315V11.665H60.8296V13.315H62.8296ZM61.8296 12.665H68.4296V10.665H61.8296V12.665ZM88.6229 14.02V15.02H90.0807L89.5558 13.6599L88.6229 14.02ZM85.2479 5.275L84.3145 5.63398L84.315 5.63505L85.2479 5.275ZM84.9329 4.375L83.9789 4.67484L83.9814 4.68282L84.9329 4.375ZM84.6179 3.265L85.5866 3.01662L83.6499 3.01404L84.6179 3.265ZM83.9729 5.29L83.0468 4.9127L83.0434 4.92103L83.0402 4.92941L83.9729 5.29ZM80.5979 14.02L79.6652 13.6594L79.1392 15.02H80.5979V14.02ZM94.6829 22V23H96.1597L95.6114 21.6287L94.6829 22ZM91.8029 21.805L91.1723 22.5811L91.1723 22.5811L91.8029 21.805ZM91.4429 21.31L90.5103 21.6712L90.5144 21.6814L91.4429 21.31ZM89.4329 16.12L90.3654 15.7589L90.118 15.12H89.4329V16.12ZM79.7879 16.12V15.12H79.1028L78.8554 15.7589L79.7879 16.12ZM77.7779 21.31L76.8454 20.9489L76.8368 20.9711L76.8292 20.9938L77.7779 21.31ZM77.4329 21.79L78.0686 22.5619L78.0686 22.5619L77.4329 21.79ZM74.5529 22L73.6244 21.6287L73.076 23H74.5529V22ZM83.1479 0.504999V-0.495001H82.4708L82.2194 0.13372L83.1479 0.504999ZM86.0879 0.504999L87.0164 0.13372L86.765 -0.495001H86.0879V0.504999ZM89.5558 13.6599L86.1808 4.91495L84.315 5.63505L87.69 14.3801L89.5558 13.6599ZM86.1812 4.91602C86.0892 4.67683 85.9902 4.3945 85.8843 4.06718L83.9814 4.68282C84.0955 5.0355 84.2065 5.35317 84.3145 5.63398L86.1812 4.91602ZM85.8869 4.07517C85.7827 3.74373 85.6825 3.39099 85.5866 3.01662L83.6492 3.51337C83.7532 3.91901 83.8631 4.30626 83.9789 4.67483L85.8869 4.07517ZM83.6499 3.01404C83.4467 3.79783 83.2446 4.42726 83.0468 4.9127L84.899 5.6673C85.1412 5.07273 85.3691 4.35217 85.5859 3.51596L83.6499 3.01404ZM83.0402 4.92941L79.6652 13.6594L81.5306 14.3806L84.9056 5.65059L83.0402 4.92941ZM80.5979 15.02H88.6229V13.02H80.5979V15.02ZM94.6829 21H92.4329V23H94.6829V21ZM92.4329 21C92.3854 21 92.3697 20.994 92.3761 20.996C92.3795 20.997 92.3875 20.9999 92.3985 21.0057C92.4096 21.0115 92.4217 21.0193 92.4335 21.0289L91.1723 22.5811C91.5529 22.8904 92.0045 23 92.4329 23V21ZM92.4335 21.0289C92.4116 21.0111 92.3911 20.9879 92.3714 20.9386L90.5144 21.6814C90.6547 22.0321 90.8741 22.3389 91.1723 22.5811L92.4335 21.0289ZM92.3754 20.9489L90.3654 15.7589L88.5004 16.4811L90.5104 21.6711L92.3754 20.9489ZM89.4329 15.12H79.7879V17.12H89.4329V15.12ZM78.8554 15.7589L76.8454 20.9489L78.7104 21.6711L80.7204 16.4811L78.8554 15.7589ZM76.8292 20.9938C76.8305 20.9898 76.8321 20.9863 76.8334 20.9836C76.8348 20.9809 76.8355 20.9802 76.8346 20.9814C76.833 20.9836 76.8232 20.9966 76.7972 21.0181L78.0686 22.5619C78.3599 22.322 78.5981 22.0116 78.7266 21.6262L76.8292 20.9938ZM76.7972 21.0181C76.8014 21.0146 76.8072 21.0105 76.8142 21.0066C76.8212 21.0028 76.8274 21.0003 76.8317 20.9988C76.8359 20.9974 76.8365 20.9976 76.8324 20.9983C76.8283 20.9989 76.8187 21 76.8029 21V23C77.2516 23 77.6955 22.8692 78.0686 22.5619L76.7972 21.0181ZM76.8029 21H74.5529V23H76.8029V21ZM75.4814 22.3713L84.0764 0.876278L82.2194 0.13372L73.6244 21.6287L75.4814 22.3713ZM83.1479 1.505H86.0879V-0.495001H83.1479V1.505ZM85.1594 0.876278L93.7544 22.3713L95.6114 21.6287L87.0164 0.13372L85.1594 0.876278ZM104.921 22V23H105.921V22H104.921ZM102.011 22H101.011V23H102.011V22ZM102.011 0.504999V-0.495001H101.011V0.504999H102.011ZM104.921 0.504999H105.921V-0.495001H104.921V0.504999ZM104.921 21H102.011V23H104.921V21ZM103.011 22V0.504999H101.011V22H103.011ZM102.011 1.505H104.921V-0.495001H102.011V1.505ZM103.921 0.504999V22H105.921V0.504999H103.921ZM142.605 17.755L141.87 18.4333L141.872 18.4351L142.605 17.755ZM143.76 19L144.517 19.6532L145.101 18.9758L144.493 18.3199L143.76 19ZM140.55 21.385L140.137 20.4739L140.135 20.4751L140.55 21.385ZM131.805 21.445L131.411 22.3642L131.417 22.3668L131.805 21.445ZM128.58 19.195L127.843 19.8711L127.846 19.8749L128.58 19.195ZM126.51 15.715L127.45 15.3738L127.45 15.3738L126.51 15.715ZM126.54 6.805L127.475 7.1584L127.475 7.1584L126.54 6.805ZM128.685 3.325L127.963 2.63292L127.959 2.63684L128.685 3.325ZM132.015 1.075L132.395 1.99999L132.401 1.99744L132.015 1.075ZM140.34 0.999999L140.726 0.077623L140.726 0.0776229L140.34 0.999999ZM143.43 2.995L144.241 3.57882L144.752 2.86838L144.116 2.26776L143.43 2.995ZM142.47 4.33L141.658 3.74617L141.633 3.77989L141.612 3.8155L142.47 4.33ZM142.23 4.585L142.784 5.41705L142.794 5.41075L142.803 5.40423L142.23 4.585ZM141.195 4.39L140.585 5.18262L140.595 5.19013L140.605 5.19739L141.195 4.39ZM140.175 3.73L140.671 2.86176L140.671 2.86176L140.175 3.73ZM138.6 3.085L138.297 4.03812L138.304 4.04032L138.311 4.04241L138.6 3.085ZM133.23 3.37L133.611 4.2943L133.62 4.29069L133.23 3.37ZM130.845 5.035L130.108 4.3588L130.103 4.36435L130.845 5.035ZM129.3 7.705L128.356 7.37265L129.3 7.705ZM129.315 14.845L128.374 15.1853L128.377 15.1932L129.315 14.845ZM130.89 17.515L130.148 18.1856L130.153 18.191L130.158 18.1962L130.89 17.515ZM133.245 19.165L132.856 20.0863L132.859 20.0878L133.245 19.165ZM137.91 19.63L138.046 20.6207L138.054 20.6196L138.062 20.6184L137.91 19.63ZM139.335 19.27L138.993 18.3302L138.986 18.3328L139.335 19.27ZM140.55 18.67L141.094 19.509L141.099 19.5054L140.55 18.67ZM141.675 17.785L141.013 17.0352L141.005 17.0418L140.998 17.0487L141.675 17.785ZM142.185 18.56C142.125 18.56 142.055 18.5468 141.988 18.5158C141.924 18.4858 141.886 18.4504 141.87 18.4333L143.339 17.0767C143.052 16.7657 142.655 16.56 142.185 16.56V18.56ZM141.872 18.4351L143.027 19.6801L144.493 18.3199L143.338 17.0749L141.872 18.4351ZM143.002 18.3468C142.22 19.2538 141.269 19.9621 140.137 20.4739L140.962 22.2961C142.351 21.6679 143.539 20.7862 144.517 19.6532L143.002 18.3468ZM140.135 20.4751C139.047 20.9709 137.682 21.24 136.005 21.24V23.24C137.887 23.24 139.552 22.9391 140.965 22.2949L140.135 20.4751ZM136.005 21.24C134.581 21.24 133.315 20.9954 132.192 20.5232L131.417 22.3668C132.814 22.9546 134.348 23.24 136.005 23.24V21.24ZM132.199 20.5259C131.061 20.0383 130.103 19.3677 129.313 18.5151L127.846 19.8749C128.836 20.9423 130.028 21.7717 131.411 22.3641L132.199 20.5259ZM129.316 18.5189C128.523 17.6546 127.899 16.6112 127.45 15.3738L125.57 16.0562C126.1 17.5188 126.856 18.7954 127.843 19.8711L129.316 18.5189ZM127.45 15.3738C127.004 14.1462 126.775 12.7784 126.775 11.26H124.775C124.775 12.9816 125.035 14.5838 125.57 16.0562L127.45 15.3738ZM126.775 11.26C126.775 9.74603 127.013 8.38248 127.475 7.1584L125.604 6.4516C125.047 7.92752 124.775 9.53397 124.775 11.26H126.775ZM127.475 7.1584C127.942 5.92285 128.589 4.87919 129.41 4.01316L127.959 2.63684C126.94 3.71081 126.157 4.98715 125.604 6.4516L127.475 7.1584ZM129.406 4.01707C130.236 3.1515 131.229 2.47906 132.395 1.99997L131.635 0.150024C130.221 0.730941 128.993 1.5585 127.963 2.63293L129.406 4.01707ZM132.401 1.99744C133.555 1.51424 134.847 1.265 136.29 1.265V-0.735002C134.612 -0.735002 133.054 -0.444239 131.628 0.152558L132.401 1.99744ZM136.29 1.265C137.714 1.265 138.928 1.49301 139.953 1.92237L140.726 0.0776229C139.411 -0.473018 137.926 -0.735002 136.29 -0.735002V1.265ZM139.953 1.92237C141.016 2.36763 141.944 2.96781 142.743 3.72224L144.116 2.26776C143.135 1.34219 142.003 0.612369 140.726 0.077623L139.953 1.92237ZM142.618 2.41117L141.658 3.74617L143.281 4.91382L144.241 3.57882L142.618 2.41117ZM141.612 3.8155C141.619 3.80402 141.627 3.793 141.636 3.78339C141.645 3.77387 141.653 3.7682 141.656 3.76577L142.803 5.40423C143.013 5.25756 143.191 5.0705 143.327 4.8445L141.612 3.8155ZM141.675 3.75295C141.744 3.70659 141.804 3.68755 141.835 3.68011C141.865 3.67295 141.874 3.675 141.855 3.675V5.675C142.123 5.675 142.469 5.62735 142.784 5.41705L141.675 3.75295ZM141.855 3.675C141.938 3.675 141.975 3.69611 141.951 3.68569C141.928 3.67585 141.874 3.6476 141.785 3.58261L140.605 5.19739C140.917 5.4257 141.352 5.675 141.855 5.675V3.675ZM141.804 3.59738C141.496 3.35995 141.114 3.11482 140.671 2.86176L139.678 4.59824C140.076 4.82518 140.374 5.02005 140.585 5.18262L141.804 3.59738ZM140.671 2.86176C140.167 2.57364 139.567 2.33216 138.888 2.12759L138.311 4.04241C138.893 4.21784 139.343 4.40636 139.678 4.59824L140.671 2.86176ZM138.902 2.13188C138.144 1.8913 137.26 1.785 136.275 1.785V3.785C137.129 3.785 137.795 3.8787 138.297 4.03812L138.902 2.13188ZM136.275 1.785C135.045 1.785 133.896 2.00145 132.839 2.44931L133.62 4.29069C134.403 3.95854 135.284 3.785 136.275 3.785V1.785ZM132.848 2.44574C131.793 2.88124 130.877 3.52068 130.108 4.35882L131.581 5.71118C132.152 5.08932 132.826 4.61875 133.611 4.29426L132.848 2.44574ZM130.103 4.36435C129.343 5.20475 128.765 6.214 128.356 7.37265L130.243 8.03735C130.574 7.096 131.026 6.32525 131.586 5.70565L130.103 4.36435ZM128.356 7.37265C127.943 8.54716 127.745 9.84728 127.745 11.26H129.745C129.745 10.0327 129.917 8.96283 130.243 8.03735L128.356 7.37265ZM127.745 11.26C127.745 12.6935 127.948 14.0068 128.374 15.1853L130.255 14.5047C129.921 13.5832 129.745 12.5065 129.745 11.26H127.745ZM128.377 15.1932C128.805 16.3458 129.392 17.3495 130.148 18.1856L131.631 16.8444C131.067 16.2205 130.604 15.4442 130.252 14.4968L128.377 15.1932ZM130.158 18.1962C130.923 19.0188 131.825 19.651 132.856 20.0862L133.634 18.2438C132.865 17.919 132.196 17.4512 131.622 16.8338L130.158 18.1962ZM132.859 20.0878C133.899 20.522 135.011 20.735 136.185 20.735V18.735C135.258 18.735 134.41 18.568 133.63 18.2422L132.859 20.0878ZM136.185 20.735C136.86 20.735 137.481 20.6982 138.046 20.6207L137.774 18.6393C137.318 18.7018 136.79 18.735 136.185 18.735V20.735ZM138.062 20.6184C138.639 20.5295 139.181 20.3941 139.683 20.2072L138.986 18.3328C138.628 18.4659 138.22 18.5705 137.758 18.6416L138.062 20.6184ZM139.676 20.2098C140.183 20.0255 140.657 19.7926 141.094 19.509L140.005 17.831C139.703 18.0274 139.366 18.1945 138.993 18.3302L139.676 20.2098ZM141.099 19.5054C141.529 19.223 141.946 18.894 142.351 18.5213L140.998 17.0487C140.664 17.356 140.331 17.617 140 17.8346L141.099 19.5054ZM142.336 18.5348C142.361 18.5134 142.36 18.5193 142.333 18.5312C142.303 18.5445 142.251 18.56 142.185 18.56V16.56C141.7 16.56 141.304 16.7785 141.013 17.0352L142.336 18.5348ZM159.809 10.615L160.107 11.5695L160.116 11.5666L159.809 10.615ZM161.429 9.745L162.081 10.503L162.082 10.5018L161.429 9.745ZM162.419 8.395L163.34 8.78464L163.34 8.78464L162.419 8.395ZM161.489 3.775L160.877 4.56587L160.877 4.56587L161.489 3.775ZM154.529 2.8V1.8H153.529V2.8H154.529ZM154.529 10.915H153.529V11.915H154.529V10.915ZM167.519 22V23H169.494L168.325 21.408L167.519 22ZM163.769 21.385L164.622 20.8644L164.601 20.8299L164.578 20.7972L163.769 21.385ZM158.189 13.705L157.373 14.2831L157.38 14.2928L158.189 13.705ZM157.634 13.195L157.133 14.0604L157.159 14.0757L157.186 14.0894L157.634 13.195ZM154.529 13.03V12.03H153.529V13.03H154.529ZM154.529 22V23H155.529V22H154.529ZM151.634 22H150.634V23H151.634V22ZM151.634 0.504999V-0.495001H150.634V0.504999H151.634ZM161.234 0.924999L160.962 1.8873L160.971 1.88976L161.234 0.924999ZM163.679 2.11L163.048 2.88614L163.054 2.89087L163.679 2.11ZM165.119 4L164.196 4.38639L164.198 4.39087L165.119 4ZM165.224 8.59L166.163 8.93174L166.163 8.93174L165.224 8.59ZM164.174 10.375L163.418 9.71953L163.418 9.72062L164.174 10.375ZM162.509 11.71L162.02 10.8377L162.014 10.8409L162.509 11.71ZM160.289 12.55L160.066 11.5752L157.557 12.1494L159.795 13.4197L160.289 12.55ZM161.249 13.465L160.42 14.0245L160.431 14.041L160.443 14.057L161.249 13.465ZM157.589 11.915C158.505 11.915 159.35 11.8062 160.107 11.5695L159.51 9.66052C158.988 9.82385 158.352 9.915 157.589 9.915V11.915ZM160.116 11.5666C160.867 11.3238 161.532 10.9756 162.081 10.503L160.776 8.98699C160.466 9.25436 160.05 9.48618 159.501 9.66343L160.116 11.5666ZM162.082 10.5018C162.635 10.0246 163.058 9.45019 163.34 8.78464L161.498 8.00536C161.339 8.37981 161.103 8.70537 160.775 8.98818L162.082 10.5018ZM163.34 8.78464C163.618 8.12783 163.749 7.41835 163.749 6.67H161.749C161.749 7.18165 161.66 7.62217 161.498 8.00536L163.34 8.78464ZM163.749 6.67C163.749 5.1514 163.236 3.86303 162.101 2.98413L160.877 4.56587C161.421 4.98697 161.749 5.6286 161.749 6.67H163.749ZM162.101 2.98413C161.01 2.1398 159.49 1.8 157.709 1.8V3.8C159.287 3.8 160.288 4.11019 160.877 4.56587L162.101 2.98413ZM157.709 1.8H154.529V3.8H157.709V1.8ZM153.529 2.8V10.915H155.529V2.8H153.529ZM154.529 11.915H157.589V9.915H154.529V11.915ZM167.519 21H164.939V23H167.519V21ZM164.939 21C164.803 21 164.739 20.9743 164.714 20.9611C164.693 20.9502 164.662 20.9293 164.622 20.8644L162.915 21.9056C163.368 22.6486 164.103 23 164.939 23V21ZM164.578 20.7972L158.998 13.1172L157.38 14.2928L162.96 21.9728L164.578 20.7972ZM159.005 13.127C158.769 12.7936 158.467 12.4936 158.081 12.3006L157.186 14.0894C157.2 14.0964 157.269 14.1364 157.373 14.283L159.005 13.127ZM158.135 12.3296C157.71 12.0839 157.191 12.03 156.734 12.03V14.03C156.897 14.03 157.012 14.0412 157.086 14.0549C157.164 14.0691 157.167 14.0805 157.133 14.0604L158.135 12.3296ZM156.734 12.03H154.529V14.03H156.734V12.03ZM153.529 13.03V22H155.529V13.03H153.529ZM154.529 21H151.634V23H154.529V21ZM152.634 22V0.504999H150.634V22H152.634ZM151.634 1.505H157.709V-0.495001H151.634V1.505ZM157.709 1.505C159.004 1.505 160.083 1.63885 160.962 1.88725L161.506 -0.0372554C160.404 -0.348854 159.133 -0.495001 157.709 -0.495001V1.505ZM160.971 1.88976C161.858 2.13183 162.539 2.47256 163.048 2.88611L164.309 1.33388C163.538 0.707441 162.589 0.258171 161.497 -0.039765L160.971 1.88976ZM163.054 2.89087C163.578 3.31042 163.953 3.80661 164.196 4.38638L166.041 3.61361C165.664 2.71339 165.079 1.94958 164.303 1.32913L163.054 2.89087ZM164.198 4.39087C164.449 4.98035 164.584 5.66465 164.584 6.46H166.584C166.584 5.43535 166.409 4.47965 166.039 3.60913L164.198 4.39087ZM164.584 6.46C164.584 7.11305 164.481 7.70647 164.284 8.24826L166.163 8.93174C166.446 8.15353 166.584 7.32695 166.584 6.46H164.584ZM164.284 8.24826C164.086 8.79335 163.798 9.282 163.418 9.71953L164.929 11.0305C165.469 10.408 165.882 9.70665 166.163 8.93174L164.284 8.24826ZM163.418 9.72062C163.05 10.1447 162.589 10.5187 162.02 10.8377L162.998 12.5823C163.749 12.1613 164.397 11.6453 164.93 11.0294L163.418 9.72062ZM162.014 10.8409C161.46 11.1565 160.813 11.404 160.066 11.5752L160.512 13.5248C161.424 13.316 162.258 13.0035 163.003 12.5791L162.014 10.8409ZM159.795 13.4197C160.014 13.5439 160.224 13.7351 160.42 14.0245L162.078 12.9055C161.733 12.3949 161.303 11.9761 160.782 11.6803L159.795 13.4197ZM160.443 14.057L166.713 22.592L168.325 21.408L162.055 12.873L160.443 14.057ZM188.202 19.63L189.202 19.6363L189.209 18.63H188.202V19.63ZM188.187 22V23H189.181L189.187 22.0063L188.187 22ZM174.942 22H173.942V23H174.942V22ZM174.942 0.504999V-0.495001H173.942V0.504999H174.942ZM188.187 0.504999H189.187V-0.495001H188.187V0.504999ZM188.187 2.875V3.875H189.187V2.875H188.187ZM177.852 2.875V1.875H176.852V2.875H177.852ZM177.852 10.015H176.852V11.015H177.852V10.015ZM186.222 10.015H187.222V9.015H186.222V10.015ZM186.222 12.295V13.295H187.222V12.295H186.222ZM177.852 12.295V11.295H176.852V12.295H177.852ZM177.852 19.63H176.852V20.63H177.852V19.63ZM187.202 19.6237L187.187 21.9937L189.187 22.0063L189.202 19.6363L187.202 19.6237ZM188.187 21H174.942V23H188.187V21ZM175.942 22V0.504999H173.942V22H175.942ZM174.942 1.505H188.187V-0.495001H174.942V1.505ZM187.187 0.504999V2.875H189.187V0.504999H187.187ZM188.187 1.875H177.852V3.875H188.187V1.875ZM176.852 2.875V10.015H178.852V2.875H176.852ZM177.852 11.015H186.222V9.015H177.852V11.015ZM185.222 10.015V12.295H187.222V10.015H185.222ZM186.222 11.295H177.852V13.295H186.222V11.295ZM176.852 12.295V19.63H178.852V12.295H176.852ZM177.852 20.63H188.202V18.63H177.852V20.63ZM208.172 14.02V15.02H209.63L209.105 13.6599L208.172 14.02ZM204.797 5.275L203.863 5.63398L203.864 5.63505L204.797 5.275ZM204.482 4.375L203.528 4.67484L203.53 4.68282L204.482 4.375ZM204.167 3.265L205.135 3.01662L203.199 3.01404L204.167 3.265ZM203.522 5.29L202.596 4.9127L202.592 4.92103L202.589 4.92941L203.522 5.29ZM200.147 14.02L199.214 13.6594L198.688 15.02H200.147V14.02ZM214.232 22V23H215.709L215.16 21.6287L214.232 22ZM211.352 21.805L210.721 22.5811L210.721 22.5811L211.352 21.805ZM210.992 21.31L210.059 21.6712L210.063 21.6814L210.992 21.31ZM208.982 16.12L209.914 15.7589L209.667 15.12H208.982V16.12ZM199.337 16.12V15.12H198.652L198.404 15.7589L199.337 16.12ZM197.327 21.31L196.394 20.9489L196.386 20.9711L196.378 20.9938L197.327 21.31ZM196.982 21.79L197.617 22.5619L197.617 22.5619L196.982 21.79ZM194.102 22L193.173 21.6287L192.625 23H194.102V22ZM202.697 0.504999V-0.495001H202.02L201.768 0.13372L202.697 0.504999ZM205.637 0.504999L206.565 0.13372L206.314 -0.495001H205.637V0.504999ZM209.105 13.6599L205.73 4.91495L203.864 5.63505L207.239 14.3801L209.105 13.6599ZM205.73 4.91602C205.638 4.67683 205.539 4.3945 205.433 4.06718L203.53 4.68282C203.644 5.0355 203.755 5.35317 203.863 5.63398L205.73 4.91602ZM205.436 4.07517C205.332 3.74373 205.231 3.39099 205.135 3.01662L203.198 3.51337C203.302 3.91901 203.412 4.30626 203.528 4.67483L205.436 4.07517ZM203.199 3.01404C202.996 3.79783 202.793 4.42726 202.596 4.9127L204.448 5.6673C204.69 5.07273 204.918 4.35217 205.135 3.51596L203.199 3.01404ZM202.589 4.92941L199.214 13.6594L201.079 14.3806L204.454 5.65059L202.589 4.92941ZM200.147 15.02H208.172V13.02H200.147V15.02ZM214.232 21H211.982V23H214.232V21ZM211.982 21C211.934 21 211.919 20.994 211.925 20.996C211.928 20.997 211.936 20.9999 211.947 21.0057C211.958 21.0115 211.97 21.0193 211.982 21.0289L210.721 22.5811C211.102 22.8904 211.553 23 211.982 23V21ZM211.982 21.0289C211.96 21.0111 211.94 20.9879 211.92 20.9386L210.063 21.6814C210.204 22.0321 210.423 22.3389 210.721 22.5811L211.982 21.0289ZM211.924 20.9489L209.914 15.7589L208.049 16.4811L210.059 21.6711L211.924 20.9489ZM208.982 15.12H199.337V17.12H208.982V15.12ZM198.404 15.7589L196.394 20.9489L198.259 21.6711L200.269 16.4811L198.404 15.7589ZM196.378 20.9938C196.379 20.9898 196.381 20.9863 196.382 20.9836C196.384 20.9809 196.384 20.9802 196.383 20.9814C196.382 20.9836 196.372 20.9966 196.346 21.0181L197.617 22.5619C197.909 22.322 198.147 22.0116 198.275 21.6262L196.378 20.9938ZM196.346 21.0181C196.35 21.0146 196.356 21.0105 196.363 21.0066C196.37 21.0028 196.376 21.0003 196.38 20.9988C196.385 20.9974 196.385 20.9976 196.381 20.9983C196.377 20.9989 196.368 21 196.352 21V23C196.8 23 197.244 22.8692 197.617 22.5619L196.346 21.0181ZM196.352 21H194.102V23H196.352V21ZM195.03 22.3713L203.625 0.876278L201.768 0.13372L193.173 21.6287L195.03 22.3713ZM202.697 1.505H205.637V-0.495001H202.697V1.505ZM204.708 0.876278L213.303 22.3713L215.16 21.6287L206.565 0.13372L204.708 0.876278ZM233.985 2.95V3.95H234.985V2.95H233.985ZM227.025 2.95V1.95H226.025V2.95H227.025ZM227.025 22V23H228.025V22H227.025ZM224.13 22H223.13V23H224.13V22ZM224.13 2.95H225.13V1.95H224.13V2.95ZM217.155 2.95H216.155V3.95H217.155V2.95ZM217.155 0.504999V-0.495001H216.155V0.504999H217.155ZM233.985 0.504999H234.985V-0.495001H233.985V0.504999ZM233.985 1.95H227.025V3.95H233.985V1.95ZM226.025 2.95V22H228.025V2.95H226.025ZM227.025 21H224.13V23H227.025V21ZM225.13 22V2.95H223.13V22H225.13ZM224.13 1.95H217.155V3.95H224.13V1.95ZM218.155 2.95V0.504999H216.155V2.95H218.155ZM217.155 1.505H233.985V-0.495001H217.155V1.505ZM232.985 0.504999V2.95H234.985V0.504999H232.985ZM244.585 22V23H245.585V22H244.585ZM241.675 22H240.675V23H241.675V22ZM241.675 0.504999V-0.495001H240.675V0.504999H241.675ZM244.585 0.504999H245.585V-0.495001H244.585V0.504999ZM244.585 21H241.675V23H244.585V21ZM242.675 22V0.504999H240.675V22H242.675ZM241.675 1.505H244.585V-0.495001H241.675V1.505ZM243.585 0.504999V22H245.585V0.504999H243.585ZM272.058 0.504999L272.984 0.882398L273.545 -0.495001H272.058V0.504999ZM263.298 22V23H263.97L264.224 22.3774L263.298 22ZM260.688 22L259.762 22.3774L260.016 23H260.688V22ZM251.928 0.504999V-0.495001H250.44L251.002 0.882398L251.928 0.504999ZM255.243 1.195L256.171 0.823925L256.171 0.823608L255.243 1.195ZM261.303 16.36L262.237 16.0029L262.234 15.9959L262.231 15.9889L261.303 16.36ZM261.678 17.47L260.72 17.7573L260.723 17.7683L260.727 17.7791L261.678 17.47ZM262.023 18.73L261.048 18.9516H262.998L262.023 18.73ZM262.338 17.47L263.302 17.7352L263.302 17.7352L262.338 17.47ZM262.698 16.36L261.769 15.9897L261.764 16.0029L262.698 16.36ZM268.743 1.195L269.672 1.56528L269.679 1.54669L269.686 1.52782L268.743 1.195ZM269.088 0.729998L269.724 1.50194L269.728 1.49822L269.088 0.729998ZM271.132 0.127599L262.372 21.6226L264.224 22.3774L272.984 0.882398L271.132 0.127599ZM263.298 21H260.688V23H263.298V21ZM261.614 21.6226L252.854 0.127599L251.002 0.882398L259.762 22.3774L261.614 21.6226ZM251.928 1.505H254.253V-0.495001H251.928V1.505ZM254.253 1.505C254.3 1.505 254.316 1.51101 254.31 1.50903C254.306 1.50798 254.298 1.50515 254.287 1.49934C254.276 1.49348 254.264 1.48571 254.252 1.47611L255.513 -0.0761149C255.133 -0.385392 254.681 -0.495001 254.253 -0.495001V1.505ZM254.252 1.47611C254.274 1.49387 254.295 1.51709 254.314 1.56639L256.171 0.823608C256.031 0.47291 255.812 0.166132 255.513 -0.0761149L254.252 1.47611ZM254.314 1.56607L260.374 16.7311L262.231 15.9889L256.171 0.823925L254.314 1.56607ZM260.369 16.7171C260.489 17.0311 260.606 17.3776 260.72 17.7573L262.636 17.1827C262.51 16.7624 262.377 16.3689 262.237 16.0029L260.369 16.7171ZM260.727 17.7791C260.847 18.1483 260.954 18.539 261.048 18.9516L262.998 18.5084C262.892 18.041 262.769 17.5917 262.629 17.1609L260.727 17.7791ZM262.998 18.9516C263.095 18.525 263.196 18.1195 263.302 17.7352L261.374 17.2048C261.259 17.6205 261.151 18.055 261.048 18.5084L262.998 18.9516ZM263.302 17.7352C263.405 17.3621 263.515 17.0232 263.632 16.7171L261.764 16.0029C261.621 16.3768 261.491 16.7779 261.374 17.2048L263.302 17.7352ZM263.627 16.7303L269.672 1.56528L267.814 0.824717L261.769 15.9897L263.627 16.7303ZM269.686 1.52782C269.68 1.5434 269.675 1.55005 269.677 1.5471C269.68 1.54329 269.693 1.52737 269.724 1.50193L268.452 -0.0419319C268.173 0.188136 267.933 0.486187 267.8 0.862182L269.686 1.52782ZM269.728 1.49822C269.729 1.49734 269.728 1.49851 269.724 1.50048C269.721 1.50248 269.717 1.50422 269.714 1.50545C269.71 1.50665 269.709 1.50666 269.711 1.5063C269.714 1.50592 269.72 1.505 269.733 1.505V-0.495001C269.266 -0.495001 268.82 -0.348461 268.448 -0.0382232L269.728 1.49822ZM269.733 1.505H272.058V-0.495001H269.733V1.505ZM292.646 19.63L293.646 19.6363L293.652 18.63H292.646V19.63ZM292.631 22V23H293.624L293.631 22.0063L292.631 22ZM279.386 22H278.386V23H279.386V22ZM279.386 0.504999V-0.495001H278.386V0.504999H279.386ZM292.631 0.504999H293.631V-0.495001H292.631V0.504999ZM292.631 2.875V3.875H293.631V2.875H292.631ZM282.296 2.875V1.875H281.296V2.875H282.296ZM282.296 10.015H281.296V11.015H282.296V10.015ZM290.666 10.015H291.666V9.015H290.666V10.015ZM290.666 12.295V13.295H291.666V12.295H290.666ZM282.296 12.295V11.295H281.296V12.295H282.296ZM282.296 19.63H281.296V20.63H282.296V19.63ZM291.646 19.6237L291.631 21.9937L293.631 22.0063L293.646 19.6363L291.646 19.6237ZM292.631 21H279.386V23H292.631V21ZM280.386 22V0.504999H278.386V22H280.386ZM279.386 1.505H292.631V-0.495001H279.386V1.505ZM291.631 0.504999V2.875H293.631V0.504999H291.631ZM292.631 1.875H282.296V3.875H292.631V1.875ZM281.296 2.875V10.015H283.296V2.875H281.296ZM282.296 11.015H290.666V9.015H282.296V11.015ZM289.666 10.015V12.295H291.666V10.015H289.666ZM290.666 11.295H282.296V13.295H290.666V11.295ZM281.296 12.295V19.63H283.296V12.295H281.296ZM282.296 20.63H292.646V18.63H282.296V20.63Z" fill="#005380" mask="url(#path-1-outside-1_2635_18276)"/>
</svg>
