<svg width="103" height="103" viewBox="0 0 103 103" fill="none" xmlns="http://www.w3.org/2000/svg">
<g clip-path="url(#clip0_2668_25170)">
<path d="M102.032 13.3034C102.08 10.4238 101.037 7.76855 99.0956 5.82714C98.0421 4.77391 96.3344 4.77391 95.2812 5.82728C94.2279 6.88065 94.2278 8.58835 95.2812 9.64159C96.1797 10.54 96.6616 11.8083 96.6382 13.2132C96.6158 14.5534 96.1085 15.8475 95.2812 16.6748C93.5651 18.3909 76.4591 33.4087 63.0994 45.0939L59.8251 41.8198C69.578 30.6607 81.6812 16.8625 86.4152 11.6233L87.4922 12.7004C88.5456 13.7538 90.2534 13.7539 91.3065 12.7007C92.36 11.6475 92.3601 9.93976 91.3069 8.88638L88.2482 5.82741C87.7425 5.32156 87.0563 5.03728 86.3411 5.03728H86.3409C85.6255 5.03728 84.9396 5.32143 84.4338 5.82714C82.7924 7.46836 72.7527 18.8712 63.6938 29.2089C61.2576 25.5215 58.0036 22.3493 54.1331 19.9144C48.4759 16.3553 41.8806 14.5508 34.5299 14.5508C32.9128 14.5508 31.313 14.6528 29.7752 14.8541C28.2981 15.0475 27.2576 16.4015 27.4508 17.8785C27.6442 19.3555 28.9981 20.3961 30.4751 20.2028C31.7818 20.0318 33.146 19.9451 34.5298 19.9451C45.7221 19.9451 55.1106 24.9629 59.9793 33.4505C55.4362 38.6419 51.5329 43.1132 49.6505 45.2707C46.2901 45.7285 43.7827 47.1036 42.0148 49.4618C40.371 51.6541 39.6504 54.2725 38.8877 57.0447C37.968 60.3872 37.0169 63.8436 34.3048 66.5556C33.5333 67.327 33.3026 68.4871 33.7201 69.495C34.1376 70.5029 35.1211 71.1601 36.212 71.1601C43.4707 71.1601 49.2238 69.6128 53.3118 66.5616C56.9957 63.8117 59.1916 59.9076 59.7108 55.2194C66.6604 49.1498 96.603 22.9816 99.0955 20.4891C100.915 18.6692 101.986 16.05 102.032 13.3034ZM59.0292 48.6525C58.2187 49.3606 57.433 50.047 56.6775 50.7066L54.2149 48.2441C54.874 47.4888 55.5602 46.7024 56.2682 45.8917L59.0292 48.6525ZM50.085 62.2387C47.9635 63.8225 45.1401 64.8779 41.6552 65.3948C42.841 63.0104 43.5063 60.5928 44.0887 58.4756C45.3389 53.9326 46.1003 51.6524 49.1807 50.8387L54.1608 55.8187C53.6125 58.4697 52.2481 60.6241 50.085 62.2387Z" fill="#2196F3" fill-opacity="0.8"/>
<path d="M21.3542 22.7996C21.7471 22.7996 22.1461 22.7133 22.5236 22.5314C22.7657 22.4146 23.0144 22.2998 23.2625 22.1904C24.6253 21.5888 25.2425 19.9963 24.6408 18.6335C24.0392 17.2709 22.4469 16.6538 21.0839 17.2552C20.7809 17.389 20.477 17.5293 20.1808 17.6721C18.839 18.319 18.2757 19.9313 18.9225 21.2731C19.3875 22.2374 20.3508 22.7996 21.3542 22.7996Z" fill="#2196F3" fill-opacity="0.8"/>
<path d="M40.8441 74.1571C39.3559 74.1425 38.1336 75.3343 38.1167 76.8236C38.0003 87.1924 36.435 91.8182 27.4678 91.8182C22.4409 91.8182 17.1653 88.1407 12.9938 81.7291C8.39426 74.6589 5.8611 65.4796 5.8611 55.8819C5.8611 43.422 9.62362 33.0547 16.4556 26.69C17.5455 25.6746 17.606 23.9679 16.5906 22.878C15.5753 21.788 13.8685 21.7276 12.7786 22.743C8.75433 26.4921 5.6406 31.3635 3.52375 37.2217C1.49522 42.8352 0.466797 49.1135 0.466797 55.8819C0.466797 66.5115 3.31 76.7357 8.47234 84.6707C13.6577 92.6413 20.5815 97.2126 27.4678 97.2126C34.0544 97.2126 38.6451 94.8948 41.112 90.3238C43.2301 86.3989 43.4607 81.3287 43.5106 76.8843C43.5273 75.3948 42.3336 74.1737 40.8441 74.1571Z" fill="#2196F3" fill-opacity="0.8"/>
<path d="M54.1162 34.2135C54.1162 29.2588 50.0851 25.2278 45.1305 25.2278C40.1757 25.2278 36.1445 29.2588 36.1445 34.2135C36.1445 39.1683 40.1757 43.1994 45.1305 43.1994C50.0851 43.1993 54.1162 39.1683 54.1162 34.2135ZM41.5388 34.2135C41.5388 32.2331 43.15 30.6221 45.1305 30.6221C47.1109 30.6221 48.7219 32.2331 48.7219 34.2135C48.7219 36.194 47.1109 37.8051 45.1305 37.8051C43.15 37.805 41.5388 36.1938 41.5388 34.2135Z" fill="#2196F3" fill-opacity="0.8"/>
<path d="M23.7163 46.4288C28.6711 46.4288 32.7021 42.3978 32.7021 37.4431C32.7021 32.4883 28.6711 28.4573 23.7163 28.4573C18.7615 28.4573 14.7305 32.4883 14.7305 37.4431C14.7305 42.3978 18.7615 46.4288 23.7163 46.4288ZM23.7163 33.8516C25.6967 33.8516 27.3078 35.4627 27.3078 37.4431C27.3078 39.4235 25.6967 41.0345 23.7163 41.0345C21.7359 41.0345 20.1248 39.4235 20.1248 37.4431C20.1248 35.4627 21.736 33.8516 23.7163 33.8516Z" fill="#2196F3" fill-opacity="0.8"/>
<path d="M25.8173 58.0887C25.8173 53.1339 21.7863 49.1028 16.8315 49.1028C11.8767 49.1028 7.8457 53.1339 7.8457 58.0887C7.8457 63.0434 11.8767 67.0744 16.8315 67.0744C21.7863 67.0744 25.8173 63.0434 25.8173 58.0887ZM16.8315 61.6801C14.8511 61.6801 13.24 60.0691 13.24 58.0887C13.24 56.1082 14.8511 54.4971 16.8315 54.4971C18.8119 54.4971 20.423 56.1082 20.423 58.0887C20.423 60.069 18.8119 61.6801 16.8315 61.6801Z" fill="#2196F3" fill-opacity="0.8"/>
<path d="M26.2728 88.0995C31.2276 88.0995 35.2588 84.0685 35.2588 79.1139C35.2588 74.1592 31.2276 70.1282 26.2728 70.1282C21.3181 70.1282 17.2871 74.1592 17.2871 79.1139C17.2871 84.0685 21.3181 88.0995 26.2728 88.0995ZM26.2728 75.5225C28.2533 75.5225 29.8645 77.1335 29.8645 79.1139C29.8645 81.0942 28.2533 82.7052 26.2728 82.7052C24.2926 82.7052 22.6814 81.0942 22.6814 79.1139C22.6814 77.1335 24.2926 75.5225 26.2728 75.5225Z" fill="#2196F3" fill-opacity="0.8"/>
</g>
<defs>
<clipPath id="clip0_2668_25170">
<rect width="101.567" height="101.567" fill="white" transform="translate(0.466797 0.466675)"/>
</clipPath>
</defs>
</svg>
