<svg width="103" height="103" viewBox="0 0 103 103" fill="none" xmlns="http://www.w3.org/2000/svg">
<g clip-path="url(#clip0_3343_2583)">
<path d="M21.0573 8.07959H4.58645C2.20093 8.07959 0.46875 9.81177 0.46875 12.1973V91.8062C0.46875 94.1917 2.20093 95.9239 4.58645 95.9239H21.0573H81.4502H97.921C100.307 95.9239 102.039 94.1917 102.039 91.8062V12.1973C102.039 9.81177 100.307 8.07959 97.921 8.07959H81.4502H21.0573ZM3.21389 91.8062V12.1973C3.21389 11.3381 3.72723 10.8247 4.58645 10.8247H19.6847V93.1788H4.58645C3.72723 93.1788 3.21389 92.6654 3.21389 91.8062ZM22.4298 93.1788V10.8247H80.0777V93.1788H22.4298ZM99.2936 12.1973V91.8062C99.2936 92.6654 98.7803 93.1788 97.921 93.1788H82.8228V10.8247H97.921C98.7803 10.8247 99.2936 11.3381 99.2936 12.1973Z" fill="#2E2E2E" fill-opacity="0.8"/>
<path d="M41.0353 35.7613C40.6153 35.4813 40.0718 35.4538 39.6243 35.6927C39.1823 35.9315 38.9023 36.3954 38.9023 36.9033V69.8449C38.9023 70.3527 39.1823 70.8167 39.6271 71.0555C39.8302 71.1626 40.0526 71.2175 40.2749 71.2175C40.5412 71.2175 40.8047 71.1406 41.0353 70.9869L65.7415 54.5161C66.1231 54.2608 66.3537 53.8325 66.3537 53.3741C66.3537 52.9157 66.1231 52.4874 65.7415 52.2321L41.0353 35.7613ZM41.6475 67.2809V39.4672L62.5078 53.3741L41.6475 67.2809Z" fill="#2E2E2E" fill-opacity="0.8"/>
<path d="M14.1949 30.0405H8.7046C7.94694 30.0405 7.33203 30.6554 7.33203 31.4131C7.33203 32.1708 7.94694 32.7857 8.7046 32.7857H14.1949C14.9525 32.7857 15.5674 32.1708 15.5674 31.4131C15.5674 30.6554 14.9525 30.0405 14.1949 30.0405Z" fill="#2E2E2E" fill-opacity="0.8"/>
<path d="M8.7046 21.8052H14.1949C14.9525 21.8052 15.5674 21.1903 15.5674 20.4326C15.5674 19.675 14.9525 19.0601 14.1949 19.0601H8.7046C7.94694 19.0601 7.33203 19.675 7.33203 20.4326C7.33203 21.1903 7.94694 21.8052 8.7046 21.8052Z" fill="#2E2E2E" fill-opacity="0.8"/>
<path d="M14.1949 41.021H8.7046C7.94694 41.021 7.33203 41.6359 7.33203 42.3936C7.33203 43.1512 7.94694 43.7661 8.7046 43.7661H14.1949C14.9525 43.7661 15.5674 43.1512 15.5674 42.3936C15.5674 41.6359 14.9525 41.021 14.1949 41.021Z" fill="#2E2E2E" fill-opacity="0.8"/>
<path d="M14.1949 52.002H8.7046C7.94694 52.002 7.33203 52.6169 7.33203 53.3745C7.33203 54.1322 7.94694 54.7471 8.7046 54.7471H14.1949C14.9525 54.7471 15.5674 54.1322 15.5674 53.3745C15.5674 52.6169 14.9525 52.002 14.1949 52.002Z" fill="#2E2E2E" fill-opacity="0.8"/>
<path d="M14.1949 62.9824H8.7046C7.94694 62.9824 7.33203 63.5973 7.33203 64.355C7.33203 65.1126 7.94694 65.7276 8.7046 65.7276H14.1949C14.9525 65.7276 15.5674 65.1126 15.5674 64.355C15.5674 63.5973 14.9525 62.9824 14.1949 62.9824Z" fill="#2E2E2E" fill-opacity="0.8"/>
<path d="M14.1949 73.9629H8.7046C7.94694 73.9629 7.33203 74.5778 7.33203 75.3355C7.33203 76.0931 7.94694 76.708 8.7046 76.708H14.1949C14.9525 76.708 15.5674 76.0931 15.5674 75.3355C15.5674 74.5778 14.9525 73.9629 14.1949 73.9629Z" fill="#2E2E2E" fill-opacity="0.8"/>
<path d="M14.1949 84.9434H8.7046C7.94694 84.9434 7.33203 85.5583 7.33203 86.3159C7.33203 87.0736 7.94694 87.6885 8.7046 87.6885H14.1949C14.9525 87.6885 15.5674 87.0736 15.5674 86.3159C15.5674 85.5583 14.9525 84.9434 14.1949 84.9434Z" fill="#2E2E2E" fill-opacity="0.8"/>
<path d="M88.314 32.7857H93.8042C94.5619 32.7857 95.1768 32.1708 95.1768 31.4131C95.1768 30.6554 94.5619 30.0405 93.8042 30.0405H88.314C87.5563 30.0405 86.9414 30.6554 86.9414 31.4131C86.9414 32.1708 87.5563 32.7857 88.314 32.7857Z" fill="#2E2E2E" fill-opacity="0.8"/>
<path d="M88.314 21.8052H93.8042C94.5619 21.8052 95.1768 21.1903 95.1768 20.4326C95.1768 19.675 94.5619 19.0601 93.8042 19.0601H88.314C87.5563 19.0601 86.9414 19.675 86.9414 20.4326C86.9414 21.1903 87.5563 21.8052 88.314 21.8052Z" fill="#2E2E2E" fill-opacity="0.8"/>
<path d="M88.314 43.7661H93.8042C94.5619 43.7661 95.1768 43.1512 95.1768 42.3936C95.1768 41.6359 94.5619 41.021 93.8042 41.021H88.314C87.5563 41.021 86.9414 41.6359 86.9414 42.3936C86.9414 43.1512 87.5563 43.7661 88.314 43.7661Z" fill="#2E2E2E" fill-opacity="0.8"/>
<path d="M88.314 54.7471H93.8042C94.5619 54.7471 95.1768 54.1322 95.1768 53.3745C95.1768 52.6169 94.5619 52.002 93.8042 52.002H88.314C87.5563 52.002 86.9414 52.6169 86.9414 53.3745C86.9414 54.1322 87.5563 54.7471 88.314 54.7471Z" fill="#2E2E2E" fill-opacity="0.8"/>
<path d="M88.314 65.7276H93.8042C94.5619 65.7276 95.1768 65.1126 95.1768 64.355C95.1768 63.5973 94.5619 62.9824 93.8042 62.9824H88.314C87.5563 62.9824 86.9414 63.5973 86.9414 64.355C86.9414 65.1126 87.5563 65.7276 88.314 65.7276Z" fill="#2E2E2E" fill-opacity="0.8"/>
<path d="M88.314 76.708H93.8042C94.5619 76.708 95.1768 76.0931 95.1768 75.3355C95.1768 74.5778 94.5619 73.9629 93.8042 73.9629H88.314C87.5563 73.9629 86.9414 74.5778 86.9414 75.3355C86.9414 76.0931 87.5563 76.708 88.314 76.708Z" fill="#2E2E2E" fill-opacity="0.8"/>
<path d="M93.8042 84.9434H88.314C87.5563 84.9434 86.9414 85.5583 86.9414 86.3159C86.9414 87.0736 87.5563 87.6885 88.314 87.6885H93.8042C94.5619 87.6885 95.1768 87.0736 95.1768 86.3159C95.1768 85.5583 94.5619 84.9434 93.8042 84.9434Z" fill="#2E2E2E" fill-opacity="0.8"/>
</g>
<defs>
<clipPath id="clip0_3343_2583">
<rect width="101.57" height="101.57" fill="white" transform="translate(0.46875 0.969727)"/>
</clipPath>
</defs>
</svg>
