<svg width="103" height="103" viewBox="0 0 103 103" fill="none" xmlns="http://www.w3.org/2000/svg">
<g clip-path="url(#clip0_3343_2629)">
<path d="M102.034 13.3032C102.082 10.4236 101.039 7.76843 99.0976 5.82702C98.0441 4.77378 96.3363 4.77378 95.2831 5.82715C94.2299 6.88053 94.2297 8.58823 95.2831 9.64146C96.1817 10.5399 96.6635 11.8082 96.6402 13.213C96.6178 14.5532 96.1105 15.8473 95.2831 16.6747C93.567 18.3907 76.4611 33.4086 63.1014 45.0937L59.8271 41.8197C69.58 30.6606 81.6831 16.8624 86.4172 11.6232L87.4941 12.7003C88.5475 13.7537 90.2554 13.7538 91.3085 12.7006C92.362 11.6473 92.3621 9.93963 91.3089 8.88626L88.2502 5.82729C87.7444 5.32144 87.0583 5.03716 86.343 5.03716H86.3429C85.6274 5.03716 84.9416 5.3213 84.4357 5.82702C82.7944 7.46824 72.7546 18.8711 63.6957 29.2087C61.2595 25.5213 58.0055 22.3492 54.135 19.9142C48.4779 16.3552 41.8825 14.5507 34.5319 14.5507C32.9148 14.5507 31.315 14.6526 29.7772 14.854C28.3001 15.0474 27.2595 16.4013 27.4528 17.8784C27.6462 19.3554 29 20.3959 30.4771 20.2027C31.7837 20.0317 33.148 19.945 34.5317 19.945C45.7241 19.945 55.1126 24.9628 59.9812 33.4504C55.4381 38.6418 51.5348 43.1131 49.6525 45.2705C46.2921 45.7284 43.7847 47.1035 42.0167 49.4616C40.3729 51.654 39.6524 54.2724 38.8896 57.0445C37.9699 60.3871 37.0189 63.8435 34.3068 66.5555C33.5353 67.3269 33.3045 68.4869 33.722 69.4949C34.1396 70.5028 35.1231 71.1599 36.2139 71.1599C43.4726 71.1599 49.2258 69.6127 53.3137 66.5614C56.9976 63.8116 59.1935 59.9074 59.7127 55.2192C66.6623 49.1497 96.605 22.9814 99.0974 20.489C100.917 18.6691 101.988 16.0499 102.034 13.3032ZM59.0311 48.6524C58.2206 49.3605 57.435 50.0469 56.6795 50.7065L54.2169 48.244C54.8759 47.4887 55.5622 46.7023 56.2702 45.8916L59.0311 48.6524ZM50.087 62.2386C47.9654 63.8223 45.142 64.8777 41.6572 65.3946C42.843 63.0102 43.5082 60.5926 44.0907 58.4755C45.3408 53.9324 46.1022 51.6523 49.1826 50.8385L54.1628 55.8186C53.6145 58.4696 52.2501 60.6239 50.087 62.2386Z" fill="#2E2E2E" fill-opacity="0.8"/>
<path d="M21.3562 22.7996C21.749 22.7996 22.1481 22.7133 22.5256 22.5314C22.7676 22.4146 23.0163 22.2998 23.2645 22.1904C24.6273 21.5888 25.2444 19.9963 24.6428 18.6335C24.0412 17.2709 22.4488 16.6538 21.0859 17.2552C20.7828 17.389 20.479 17.5293 20.1827 17.6721C18.8409 18.319 18.2776 19.9313 18.9244 21.2731C19.3894 22.2374 20.3528 22.7996 21.3562 22.7996Z" fill="#2E2E2E" fill-opacity="0.8"/>
<path d="M40.846 74.1569C39.3579 74.1423 38.1355 75.334 38.1187 76.8234C38.0023 87.1922 36.437 91.8179 27.4698 91.8179C22.4428 91.8179 17.1672 88.1405 12.9958 81.7288C8.39621 74.6587 5.86305 65.4793 5.86305 55.8816C5.86305 43.4218 9.62557 33.0545 16.4576 26.6897C17.5475 25.6744 17.6079 23.9676 16.5926 22.8777C15.5772 21.7878 13.8705 21.7274 12.7806 22.7427C8.75628 26.4919 5.64256 31.3632 3.5257 37.2214C1.49717 42.835 0.46875 49.1133 0.46875 55.8816C0.46875 66.5112 3.31195 76.7355 8.47429 84.6705C13.6597 92.6411 20.5834 97.2123 27.4698 97.2123C34.0563 97.2123 38.647 94.8946 41.114 90.3236C43.232 86.3987 43.4627 81.3284 43.5126 76.8841C43.5293 75.3946 42.3355 74.1734 40.846 74.1569Z" fill="#2E2E2E" fill-opacity="0.8"/>
<path d="M54.1162 34.2132C54.1162 29.2586 50.0851 25.2275 45.1305 25.2275C40.1757 25.2275 36.1445 29.2586 36.1445 34.2132C36.1445 39.168 40.1757 43.1992 45.1305 43.1992C50.0851 43.199 54.1162 39.168 54.1162 34.2132ZM41.5388 34.2132C41.5388 32.2328 43.15 30.6218 45.1305 30.6218C47.1109 30.6218 48.7219 32.2328 48.7219 34.2132C48.7219 36.1937 47.1109 37.8049 45.1305 37.8049C43.15 37.8048 41.5388 36.1936 41.5388 34.2132Z" fill="#2E2E2E" fill-opacity="0.8"/>
<path d="M23.7163 46.4285C28.6711 46.4285 32.7021 42.3975 32.7021 37.4429C32.7021 32.4881 28.6711 28.457 23.7163 28.457C18.7615 28.457 14.7305 32.4881 14.7305 37.4429C14.7305 42.3975 18.7615 46.4285 23.7163 46.4285ZM23.7163 33.8513C25.6967 33.8513 27.3078 35.4625 27.3078 37.4429C27.3078 39.4232 25.6967 41.0342 23.7163 41.0342C21.7359 41.0342 20.1248 39.4232 20.1248 37.4429C20.1248 35.4625 21.736 33.8513 23.7163 33.8513Z" fill="#2E2E2E" fill-opacity="0.8"/>
<path d="M25.8193 58.0885C25.8193 53.1337 21.7883 49.1025 16.8335 49.1025C11.8787 49.1025 7.84766 53.1337 7.84766 58.0885C7.84766 63.0432 11.8787 67.0742 16.8335 67.0742C21.7883 67.0742 25.8193 63.0432 25.8193 58.0885ZM16.8335 61.6799C14.8531 61.6799 13.242 60.0689 13.242 58.0885C13.242 56.108 14.8531 54.4968 16.8335 54.4968C18.8139 54.4968 20.425 56.108 20.425 58.0885C20.425 60.0687 18.8139 61.6799 16.8335 61.6799Z" fill="#2E2E2E" fill-opacity="0.8"/>
<path d="M26.2748 88.0993C31.2295 88.0993 35.2607 84.0683 35.2607 79.1136C35.2607 74.159 31.2295 70.1279 26.2748 70.1279C21.3201 70.1279 17.2891 74.159 17.2891 79.1136C17.2891 84.0683 21.3201 88.0993 26.2748 88.0993ZM26.2748 75.5222C28.2553 75.5222 29.8664 77.1332 29.8664 79.1136C29.8664 81.094 28.2553 82.705 26.2748 82.705C24.2945 82.705 22.6834 81.094 22.6834 79.1136C22.6834 77.1332 24.2945 75.5222 26.2748 75.5222Z" fill="#2E2E2E" fill-opacity="0.8"/>
</g>
<defs>
<clipPath id="clip0_3343_2629">
<rect width="101.567" height="101.567" fill="white" transform="translate(0.46875 0.466797)"/>
</clipPath>
</defs>
</svg>
