<svg width="30" height="30" viewBox="0 0 30 30" fill="none" xmlns="http://www.w3.org/2000/svg">
<circle cx="15" cy="15" r="14.5" stroke="#EC5200"/>
<path d="M8.15801 7.5H11.9016C12.0711 7.5 12.2335 7.56713 12.3533 7.68663C12.4732 7.80614 12.5405 7.96821 12.5405 8.13721C12.5195 8.987 12.6627 9.83287 12.9621 10.6287C13.0911 10.8951 13.1194 11.199 13.042 11.4845C12.9645 11.7701 12.7865 12.0183 12.5405 12.1835L11.2308 13.4579C11.8115 14.589 12.5708 15.6196 13.4796 16.5102C14.3652 17.4314 15.3942 18.2039 16.5268 18.7978L17.8045 17.4915C18.4434 16.8543 18.7372 16.8543 19.3633 17.0709C20.1612 17.3696 21.0092 17.5124 21.8612 17.4915C22.0281 17.4993 22.1861 17.5689 22.3043 17.6867C22.4224 17.8046 22.4922 17.9622 22.5 18.1287V21.8628C22.4922 22.0293 22.4224 22.1869 22.3043 22.3048C22.1861 22.4226 22.0281 22.4922 21.8612 22.5C18.1032 22.3367 14.5411 20.7828 11.8697 18.1415C9.21744 15.4797 7.65884 11.9249 7.5 8.17545C7.50152 8.00005 7.57075 7.83199 7.6933 7.70619C7.81584 7.5804 7.98228 7.50655 8.15801 7.5Z" stroke="#EC5200" stroke-linecap="round" stroke-linejoin="round"/>
</svg>
