<svg width="30" height="30" viewBox="0 0 30 30" fill="none" xmlns="http://www.w3.org/2000/svg">
<g clip-path="url(#clip0_3343_2728)">
<path d="M19.7975 11.9797L19.415 13.8797C19.29 14.5054 18.6887 14.9953 18.0462 14.9953H16.7512V23.7504C16.7512 24.4403 16.2256 25.0004 15.5319 25.0004H13.645C12.9513 25.0004 12.3869 24.4391 12.3869 23.7497V14.9953H11.7581C11.0644 14.9953 10.5 14.4347 10.5 13.7447V11.8691C10.5 11.1797 11.0644 10.6185 11.7581 10.6185H12.3869V8.75223C12.3869 6.69785 14.0594 5.02598 16.1225 5.00848C16.1356 5.00785 16.1469 5.00098 16.1606 5.00098H18.6769C19.0238 5.00098 19.2513 5.28035 19.2513 5.62535V8.75035C19.2513 9.09598 19.0238 9.37785 18.6769 9.37785H16.7894L16.7888 10.6185H18.6756C19.0294 10.6185 19.3556 10.7679 19.5694 11.0279C19.7837 11.2872 19.8669 11.6347 19.7975 11.9797ZM16.1838 11.8691C16.175 11.8697 16.1681 11.8741 16.1594 11.8741C15.8119 11.8735 15.53 11.5935 15.5306 11.2485V11.2441L15.5319 8.75223C15.5319 8.4066 15.8131 8.12723 16.1606 8.12723H18.0475V6.2516H16.185C16.1744 6.2516 16.1656 6.25723 16.1544 6.25723C14.7706 6.25723 13.645 7.3766 13.645 8.75223V11.2535C13.645 11.5991 13.3631 11.8791 13.0156 11.8791C12.9987 11.8791 12.9844 11.8704 12.9675 11.8691H11.7581V13.7447H13.0156C13.3631 13.7447 13.645 14.0247 13.645 14.3703C13.645 14.4029 13.6312 14.4304 13.6262 14.4616V23.7504L15.5319 23.7497V14.3766C15.5319 14.3741 15.5306 14.3722 15.5306 14.3703C15.5306 14.0247 15.8119 13.7447 16.1594 13.7447H18.0462C18.0919 13.7447 18.1731 13.6791 18.1813 13.6354L18.5369 11.8691H16.1838Z" fill="#0088CC"/>
</g>
<circle cx="15" cy="15" r="14.5" stroke="#0088CC"/>
<defs>
<clipPath id="clip0_3343_2728">
<rect width="9.31625" height="20" fill="white" transform="translate(10.5 5)"/>
</clipPath>
</defs>
</svg>
