<svg width="103" height="103" viewBox="0 0 103 103" fill="none" xmlns="http://www.w3.org/2000/svg">
<g clip-path="url(#clip0_2668_25207)">
<path d="M21.0592 8.07983H4.58841C2.20288 8.07983 0.470703 9.81201 0.470703 12.1975V91.8064C0.470703 94.192 2.20288 95.9242 4.58841 95.9242H21.0592H81.4522H97.923C100.309 95.9242 102.041 94.192 102.041 91.8064V12.1975C102.041 9.81201 100.309 8.07983 97.923 8.07983H81.4522H21.0592ZM3.21584 91.8064V12.1975C3.21584 11.3383 3.72918 10.825 4.58841 10.825H19.6866V93.179H4.58841C3.72918 93.179 3.21584 92.6657 3.21584 91.8064ZM22.4318 93.179V10.825H80.0796V93.179H22.4318ZM99.2956 12.1975V91.8064C99.2956 92.6657 98.7822 93.179 97.923 93.179H82.8248V10.825H97.923C98.7822 10.825 99.2956 11.3383 99.2956 12.1975Z" fill="#2196F3" fill-opacity="0.8"/>
<path d="M41.0353 35.7618C40.6153 35.4818 40.0718 35.4543 39.6243 35.6932C39.1823 35.932 38.9023 36.3959 38.9023 36.9038V69.8454C38.9023 70.3532 39.1823 70.8172 39.6271 71.056C39.8302 71.1631 40.0526 71.218 40.2749 71.218C40.5412 71.218 40.8047 71.1411 41.0353 70.9874L65.7415 54.5166C66.1231 54.2613 66.3537 53.833 66.3537 53.3746C66.3537 52.9161 66.1231 52.4879 65.7415 52.2326L41.0353 35.7618ZM41.6475 67.2814V39.4677L62.5078 53.3746L41.6475 67.2814Z" fill="#2196F3" fill-opacity="0.8"/>
<path d="M14.1968 30.041H8.70655C7.94889 30.041 7.33398 30.6559 7.33398 31.4136C7.33398 32.1712 7.94889 32.7862 8.70655 32.7862H14.1968C14.9545 32.7862 15.5694 32.1712 15.5694 31.4136C15.5694 30.6559 14.9545 30.041 14.1968 30.041Z" fill="#2196F3" fill-opacity="0.8"/>
<path d="M8.70655 21.8054H14.1968C14.9545 21.8054 15.5694 21.1905 15.5694 20.4329C15.5694 19.6752 14.9545 19.0603 14.1968 19.0603H8.70655C7.94889 19.0603 7.33398 19.6752 7.33398 20.4329C7.33398 21.1905 7.94889 21.8054 8.70655 21.8054Z" fill="#2196F3" fill-opacity="0.8"/>
<path d="M14.1968 41.0215H8.70655C7.94889 41.0215 7.33398 41.6364 7.33398 42.3941C7.33398 43.1517 7.94889 43.7666 8.70655 43.7666H14.1968C14.9545 43.7666 15.5694 43.1517 15.5694 42.3941C15.5694 41.6364 14.9545 41.0215 14.1968 41.0215Z" fill="#2196F3" fill-opacity="0.8"/>
<path d="M14.1968 52.002H8.70655C7.94889 52.002 7.33398 52.6169 7.33398 53.3745C7.33398 54.1322 7.94889 54.7471 8.70655 54.7471H14.1968C14.9545 54.7471 15.5694 54.1322 15.5694 53.3745C15.5694 52.6169 14.9545 52.002 14.1968 52.002Z" fill="#2196F3" fill-opacity="0.8"/>
<path d="M14.1968 62.9824H8.70655C7.94889 62.9824 7.33398 63.5973 7.33398 64.355C7.33398 65.1126 7.94889 65.7276 8.70655 65.7276H14.1968C14.9545 65.7276 15.5694 65.1126 15.5694 64.355C15.5694 63.5973 14.9545 62.9824 14.1968 62.9824Z" fill="#2196F3" fill-opacity="0.8"/>
<path d="M14.1968 73.9631H8.70655C7.94889 73.9631 7.33398 74.578 7.33398 75.3357C7.33398 76.0934 7.94889 76.7083 8.70655 76.7083H14.1968C14.9545 76.7083 15.5694 76.0934 15.5694 75.3357C15.5694 74.578 14.9545 73.9631 14.1968 73.9631Z" fill="#2196F3" fill-opacity="0.8"/>
<path d="M14.1968 84.9436H8.70655C7.94889 84.9436 7.33398 85.5585 7.33398 86.3162C7.33398 87.0738 7.94889 87.6887 8.70655 87.6887H14.1968C14.9545 87.6887 15.5694 87.0738 15.5694 86.3162C15.5694 85.5585 14.9545 84.9436 14.1968 84.9436Z" fill="#2196F3" fill-opacity="0.8"/>
<path d="M88.3159 32.7862H93.8062C94.5639 32.7862 95.1788 32.1712 95.1788 31.4136C95.1788 30.6559 94.5639 30.041 93.8062 30.041H88.3159C87.5583 30.041 86.9434 30.6559 86.9434 31.4136C86.9434 32.1712 87.5583 32.7862 88.3159 32.7862Z" fill="#2196F3" fill-opacity="0.8"/>
<path d="M88.3159 21.8054H93.8062C94.5639 21.8054 95.1788 21.1905 95.1788 20.4329C95.1788 19.6752 94.5639 19.0603 93.8062 19.0603H88.3159C87.5583 19.0603 86.9434 19.6752 86.9434 20.4329C86.9434 21.1905 87.5583 21.8054 88.3159 21.8054Z" fill="#2196F3" fill-opacity="0.8"/>
<path d="M88.3159 43.7666H93.8062C94.5639 43.7666 95.1788 43.1517 95.1788 42.3941C95.1788 41.6364 94.5639 41.0215 93.8062 41.0215H88.3159C87.5583 41.0215 86.9434 41.6364 86.9434 42.3941C86.9434 43.1517 87.5583 43.7666 88.3159 43.7666Z" fill="#2196F3" fill-opacity="0.8"/>
<path d="M88.3159 54.7471H93.8062C94.5639 54.7471 95.1788 54.1322 95.1788 53.3745C95.1788 52.6169 94.5639 52.002 93.8062 52.002H88.3159C87.5583 52.002 86.9434 52.6169 86.9434 53.3745C86.9434 54.1322 87.5583 54.7471 88.3159 54.7471Z" fill="#2196F3" fill-opacity="0.8"/>
<path d="M88.3159 65.7276H93.8062C94.5639 65.7276 95.1788 65.1126 95.1788 64.355C95.1788 63.5973 94.5639 62.9824 93.8062 62.9824H88.3159C87.5583 62.9824 86.9434 63.5973 86.9434 64.355C86.9434 65.1126 87.5583 65.7276 88.3159 65.7276Z" fill="#2196F3" fill-opacity="0.8"/>
<path d="M88.3159 76.7083H93.8062C94.5639 76.7083 95.1788 76.0934 95.1788 75.3357C95.1788 74.578 94.5639 73.9631 93.8062 73.9631H88.3159C87.5583 73.9631 86.9434 74.578 86.9434 75.3357C86.9434 76.0934 87.5583 76.7083 88.3159 76.7083Z" fill="#2196F3" fill-opacity="0.8"/>
<path d="M93.8062 84.9436H88.3159C87.5583 84.9436 86.9434 85.5585 86.9434 86.3162C86.9434 87.0738 87.5583 87.6887 88.3159 87.6887H93.8062C94.5639 87.6887 95.1788 87.0738 95.1788 86.3162C95.1788 85.5585 94.5639 84.9436 93.8062 84.9436Z" fill="#2196F3" fill-opacity="0.8"/>
</g>
<defs>
<clipPath id="clip0_2668_25207">
<rect width="101.57" height="101.57" fill="white" transform="translate(0.470703 0.969971)"/>
</clipPath>
</defs>
</svg>
