<svg width="103" height="103" viewBox="0 0 103 103" fill="none" xmlns="http://www.w3.org/2000/svg">
<g clip-path="url(#clip0_2668_25195)">
<path d="M90.9443 12.47H12.567C9.62618 12.47 6.80577 13.637 4.72627 15.7143C2.64677 17.7916 1.47852 20.609 1.47852 23.5467V78.5864C1.47852 81.5242 2.64677 84.3416 4.72627 86.4189C6.80577 88.4962 9.62618 89.6632 12.567 89.6632H90.9443C93.8852 89.6632 96.7056 88.4962 98.7851 86.4189C100.865 84.3416 102.033 81.5242 102.033 78.5864V23.5467C102.033 20.609 100.865 17.7916 98.7851 15.7143C96.7056 13.637 93.8852 12.47 90.9443 12.47ZM12.567 16.6667H90.9443C92.7709 16.6667 94.5227 17.3916 95.8143 18.6818C97.106 19.9721 97.8316 21.722 97.8316 23.5467V28.5003H5.67976V23.5467C5.67976 21.722 6.40538 19.9721 7.69699 18.6818C8.98861 17.3916 10.7404 16.6667 12.567 16.6667ZM90.9443 85.4664H12.567C10.7404 85.4664 8.98861 84.7415 7.69699 83.4513C6.40538 82.1611 5.67976 80.4111 5.67976 78.5864V32.6971H97.8316V78.5864C97.8316 79.4899 97.6534 80.3846 97.3073 81.2193C96.9612 82.054 96.4539 82.8124 95.8143 83.4513C95.1748 84.0902 94.4156 84.5969 93.5799 84.9427C92.7443 85.2884 91.8487 85.4664 90.9443 85.4664Z" fill="#2196F3" fill-opacity="0.8"/>
<path d="M11.6862 24.5561C12.0347 24.5868 12.3844 24.511 12.6888 24.3386C12.9933 24.1662 13.2381 23.9054 13.3911 23.5907C13.544 23.2761 13.5977 22.9224 13.5451 22.5765C13.4925 22.2306 13.3361 21.9088 13.0965 21.6538C12.857 21.3988 12.5456 21.2226 12.2037 21.1485C11.8618 21.0744 11.5054 21.106 11.1818 21.2389C10.8582 21.3719 10.5826 21.6 10.3915 21.8931C10.2005 22.1862 10.103 22.5304 10.1119 22.8802C10.1227 23.3041 10.2892 23.7092 10.5795 24.0183C10.8699 24.3274 11.2638 24.5188 11.6862 24.5561Z" fill="#2196F3" fill-opacity="0.8"/>
<path d="M16.0048 24.556C16.3504 24.5661 16.6911 24.4721 16.9827 24.2863C17.2743 24.1005 17.5034 23.8314 17.6403 23.5139C17.7773 23.1964 17.8157 22.8451 17.7507 22.5055C17.6857 22.1659 17.5203 21.8536 17.2758 21.6091C17.0313 21.3646 16.719 21.1992 16.3794 21.1342C16.0398 21.0692 15.6885 21.1076 15.371 21.2446C15.0535 21.3815 14.7844 21.6106 14.5986 21.9022C14.4128 22.1938 14.3188 22.5345 14.3289 22.8801C14.3416 23.3206 14.5223 23.7395 14.8339 24.051C15.1454 24.3626 15.5643 24.5433 16.0048 24.556Z" fill="#2196F3" fill-opacity="0.8"/>
<path d="M20.2704 24.556C20.616 24.5661 20.9567 24.4721 21.2483 24.2863C21.5399 24.1005 21.769 23.8314 21.9059 23.5139C22.0429 23.1964 22.0813 22.8451 22.0164 22.5055C21.9514 22.1659 21.7859 21.8536 21.5414 21.6091C21.2969 21.3646 20.9846 21.1992 20.645 21.1342C20.3054 21.0692 19.9541 21.1076 19.6366 21.2446C19.3191 21.3815 19.05 21.6106 18.8642 21.9022C18.6784 22.1938 18.5845 22.5345 18.5945 22.8801C18.6073 23.3206 18.7879 23.7395 19.0995 24.051C19.4111 24.3626 19.8299 24.5433 20.2704 24.556Z" fill="#2196F3" fill-opacity="0.8"/>
<path d="M56.8353 52.9457L54.8547 57.4148L52.8233 52.9457C52.8233 52.9457 52.8233 52.9457 52.4678 52.5902C52.1123 52.2347 52.4678 52.2855 52.0616 52.1839C52.0616 52.1839 51.7061 52.1839 51.5029 52.1839C51.3065 52.1099 51.0899 52.1099 50.8935 52.1839C50.8935 52.1839 50.5888 52.4886 50.4872 52.5902C50.3856 52.6918 50.1825 52.5902 50.0809 52.9457L48.1003 57.4148L46.1197 52.9457C46.048 52.7271 45.9307 52.5261 45.7756 52.3562C45.6204 52.1863 45.431 52.0513 45.2197 51.9601C45.0085 51.8688 44.7803 51.8235 44.5502 51.8271C44.3202 51.8307 44.0935 51.8831 43.8852 51.9808C43.7008 52.0631 43.5347 52.1811 43.3964 52.3281C43.258 52.4751 43.1503 52.6482 43.0794 52.8372C43.0086 53.0262 42.9759 53.2274 42.9835 53.4291C42.991 53.6308 43.0386 53.829 43.1234 54.0122L46.6783 62.1378C46.8484 62.4335 47.0937 62.6788 47.3893 62.8488H47.9988H48.6082C48.9225 62.6861 49.186 62.4402 49.3699 62.1378L51.3506 57.6179L53.382 62.1378C53.552 62.4335 53.7973 62.6788 54.093 62.8488C54.31 62.9006 54.5361 62.9006 54.7532 62.8488H55.3626C55.6582 62.6788 55.9036 62.4335 56.0736 62.1378L59.5269 54.4693C59.6813 54.0914 59.6828 53.6683 59.5312 53.2894C59.3796 52.9104 59.0867 52.6051 58.7144 52.4379C58.3911 52.29 58.0263 52.2599 57.6832 52.3526C57.34 52.4453 57.0401 52.6552 56.8353 52.9457Z" fill="#2196F3" fill-opacity="0.8"/>
<path d="M74.2021 52.9456L72.2214 57.4147L70.19 52.9456C70.19 52.9456 69.9361 52.9456 69.8345 52.5901C69.733 52.2346 69.8345 52.2854 69.4283 52.1838C69.2319 52.1098 69.0152 52.1098 68.8188 52.1838C68.8188 52.1838 68.4633 52.1838 68.2602 52.1838C68.2602 52.1838 68.0063 52.4378 67.8539 52.5901C67.7016 52.7425 67.5492 52.5901 67.4984 52.9456L65.467 57.4147L63.4864 52.9456C63.4042 52.7613 63.2861 52.5951 63.1391 52.4568C62.9921 52.3185 62.819 52.2107 62.63 52.1399C62.441 52.069 62.2398 52.0364 62.0381 52.0439C61.8364 52.0515 61.6382 52.099 61.455 52.1838C61.2662 52.2613 61.0949 52.3759 60.9513 52.5208C60.8076 52.6657 60.6945 52.8381 60.6187 53.0275C60.5429 53.217 60.506 53.4198 60.5101 53.6238C60.5141 53.8278 60.5592 54.0289 60.6425 54.2152L63.9943 62.1377C64.1643 62.4333 64.4096 62.6787 64.7053 62.8487H65.3147C65.5317 62.9005 65.7579 62.9005 65.9749 62.8487C66.3824 62.7299 66.7394 62.48 66.9906 62.1377L69.022 57.6178L71.0026 62.1377C71.1726 62.4333 71.4179 62.6787 71.7136 62.8487C71.9312 62.8953 72.1562 62.8953 72.3738 62.8487H72.9832C73.2933 62.6801 73.5554 62.4354 73.745 62.1377L77.1476 54.2152C77.2309 54.0289 77.2759 53.8278 77.28 53.6238C77.284 53.4198 77.2471 53.217 77.1713 53.0275C77.0955 52.8381 76.9824 52.6657 76.8388 52.5208C76.6951 52.3759 76.5238 52.2613 76.335 52.1838C76.1471 52.0824 75.9399 52.0216 75.727 52.0054C75.514 51.9892 75.3 52.0179 75.0989 52.0897C74.8978 52.1616 74.714 52.2749 74.5595 52.4223C74.405 52.5698 74.2832 52.7481 74.2021 52.9456Z" fill="#2196F3" fill-opacity="0.8"/>
<path d="M39.3659 52.9456L37.3853 57.4147L35.4047 52.9456C35.2922 52.8166 35.1537 52.7128 34.9984 52.6409C34.9421 52.381 34.7988 52.1481 34.5921 51.9807C34.3957 51.9066 34.1791 51.9066 33.9827 51.9807C33.9827 51.9807 33.6272 51.9807 33.4241 51.9807L33.0178 52.387C33.0178 52.387 32.7131 52.387 32.6623 52.7425L30.6309 57.2116L28.6503 52.7425C28.5733 52.5231 28.4472 52.3242 28.2815 52.161C28.1158 51.9979 27.915 51.8749 27.6944 51.8013C27.4738 51.7278 27.2393 51.7057 27.0089 51.7368C26.7784 51.7679 26.5582 51.8513 26.365 51.9807C25.9926 52.1479 25.6997 52.4532 25.5481 52.8322C25.3966 53.2112 25.3981 53.6342 25.5524 54.0121L29.1581 62.1377C29.3281 62.4334 29.5735 62.6787 29.8691 62.8487H30.4785C30.6956 62.9005 30.9217 62.9005 31.1388 62.8487H31.4435C31.6649 62.6536 31.8386 62.4104 31.9513 62.1377L33.9827 57.6178L35.9633 62.1377C36.1333 62.4334 36.3787 62.6787 36.6743 62.8487H37.2837H37.8932C38.2635 62.7109 38.5825 62.4627 38.8073 62.1377L42.2099 54.4692C42.3853 54.2841 42.5114 54.058 42.5767 53.8116C42.6421 53.5652 42.6445 53.3063 42.5839 53.0587C42.5233 52.8111 42.4014 52.5827 42.2296 52.3943C42.0578 52.206 41.8415 52.0638 41.6005 51.9807C41.3922 51.883 41.1655 51.8306 40.9354 51.827C40.7053 51.8234 40.4771 51.8687 40.2659 51.96C40.0547 52.0512 39.8652 52.1862 39.7101 52.3561C39.5549 52.526 39.4376 52.727 39.3659 52.9456Z" fill="#2196F3" fill-opacity="0.8"/>
</g>
<defs>
<clipPath id="clip0_2668_25195">
<rect width="101.57" height="101.57" fill="white" transform="translate(0.970703 0.469971)"/>
</clipPath>
</defs>
</svg>
