<svg width="103" height="103" viewBox="0 0 103 103" fill="none" xmlns="http://www.w3.org/2000/svg">
<path d="M51.2548 13C30.218 13 13.166 30.052 13.166 51.0887C13.166 72.1255 30.218 89.1775 51.2548 89.1775C72.2915 89.1775 89.3435 72.1255 89.3435 51.0887C89.3435 30.052 72.2915 13 51.2548 13ZM51.2548 83.2261C33.5053 83.2261 19.1174 68.8383 19.1174 51.0887C19.1174 33.3392 33.5053 18.9514 51.2548 18.9514C69.0043 18.9514 83.3921 33.3392 83.3921 51.0887C83.3921 68.8383 69.0043 83.2261 51.2548 83.2261Z" fill="#2196F3" fill-opacity="0.8"/>
<path fill-rule="evenodd" clip-rule="evenodd" d="M61.2968 44.6102H53.9351V39.2375C53.9351 37.5895 55.6399 37.2072 56.4355 37.2072C57.2259 37.2072 61.191 37.2072 61.191 37.2072V29.9567L55.7407 29.9282C48.3041 29.9282 46.607 35.3345 46.607 38.8011V44.6104H41.2109V52.0805H46.607C46.607 61.6715 46.607 72.2491 46.607 72.2491H53.9351C53.9351 72.2491 53.9351 61.5629 53.9351 52.0805H60.1603L61.2968 44.6102Z" fill="#2196F3" fill-opacity="0.8"/>
</svg>
