<svg width="51" height="50" viewBox="0 0 51 50" fill="none" xmlns="http://www.w3.org/2000/svg">
<path d="M38.5164 12.8998C38.2918 12.7037 38.0184 12.5735 37.7258 12.5233C37.4332 12.473 37.1326 12.5047 36.8566 12.6149L11.7841 22.57C11.4563 22.7001 11.1791 22.934 10.9938 23.2367C10.8086 23.5394 10.7253 23.8945 10.7564 24.249C10.7875 24.6035 10.9314 24.9383 11.1664 25.2033C11.4015 25.4683 11.7152 25.6492 12.0605 25.719L18.8659 27.0947V35.5845C18.8625 35.9111 18.9568 36.2312 19.1363 36.5028C19.3159 36.7744 19.5724 36.9848 19.8723 37.1066C20.0732 37.1917 20.2887 37.2357 20.5065 37.2363C20.7193 37.2356 20.9299 37.1922 21.126 37.1087C21.3221 37.0251 21.4999 36.903 21.6489 36.7494L25.5338 32.8231L31.2658 37.9212C31.5612 38.1863 31.9424 38.333 32.3375 38.3334C32.5092 38.3332 32.6798 38.3058 32.8432 38.2523C33.1126 38.1659 33.3549 38.0097 33.5459 37.7991C33.7369 37.5886 33.87 37.3311 33.9318 37.0523L39.0417 14.5165C39.1084 14.2242 39.0947 13.9191 39.0021 13.6341C38.9096 13.3491 38.7416 13.0952 38.5164 12.8998ZM11.8389 24.1519C11.8254 24.0333 11.8519 23.9135 11.9141 23.8119C11.9762 23.7104 12.0705 23.633 12.1816 23.5923L35.1644 14.4668L19.2833 26.0589L12.2736 24.642C12.1572 24.6217 12.0509 24.5622 11.9721 24.4733C11.8932 24.3843 11.8463 24.2711 11.8389 24.1519ZM20.8804 35.9728C20.8044 36.0496 20.7075 36.1019 20.6021 36.1231C20.4967 36.1443 20.3875 36.1335 20.2882 36.0919C20.1889 36.0503 20.104 35.9799 20.0443 35.8896C19.9846 35.7993 19.9527 35.6931 19.9527 35.5845V27.8593L24.7163 32.096L20.8804 35.9728ZM37.9824 14.2711L32.8724 36.807C32.8514 36.8997 32.8069 36.9853 32.7433 37.0554C32.6797 37.1255 32.5991 37.1778 32.5095 37.207C32.4199 37.2362 32.3244 37.2413 32.2322 37.222C32.14 37.2026 32.0544 37.1594 31.9838 37.0966L20.2795 26.6868L37.8945 13.8291C37.9409 13.8915 37.9728 13.9636 37.988 14.04C38.0032 14.1165 38.0013 14.1955 37.9824 14.2711Z" fill="#02A6FF"/>
<circle cx="25.75" cy="25" r="24.5" stroke="#02A6FF"/>
</svg>
