<svg width="51" height="50" viewBox="0 0 51 50" fill="none" xmlns="http://www.w3.org/2000/svg">
<g clip-path="url(#clip0_2575_12802)">
<path d="M34.2728 36.4C31.8212 38.2418 28.7738 39.3333 25.4714 39.3333C17.3712 39.3333 10.8047 32.7669 10.8047 24.6666C10.8047 16.5664 17.3712 9.99995 25.4714 9.99995C33.5716 9.99995 40.138 16.5664 40.138 24.6666V27.1111C40.138 29.3611 38.314 31.1851 36.0639 31.1851C33.8139 31.1851 31.9899 29.3611 31.9899 27.1111V18.1481M31.9899 24.6666C31.9899 28.2666 29.0714 31.1851 25.4714 31.1851C21.8713 31.1851 18.9528 28.2666 18.9528 24.6666C18.9528 21.0665 21.8713 18.1481 25.4714 18.1481C29.0714 18.1481 31.9899 21.0665 31.9899 24.6666Z" stroke="#02A6FF" stroke-width="2" stroke-linecap="round" stroke-linejoin="round"/>
</g>
<circle cx="25.25" cy="25" r="24.5" stroke="#02A6FF"/>
<defs>
<clipPath id="clip0_2575_12802">
<rect width="33.3333" height="33.3333" fill="white" transform="translate(8.58203 8.33328)"/>
</clipPath>
</defs>
</svg>
