<svg width="51" height="50" viewBox="0 0 51 50" fill="none" xmlns="http://www.w3.org/2000/svg">
<g clip-path="url(#clip0_2575_12806)">
<path d="M33.4958 19.9654L32.8583 23.1321C32.65 24.1748 31.6479 24.9915 30.5771 24.9915H28.4188V39.5831C28.4188 40.7331 27.5427 41.6665 26.3865 41.6665H23.2417C22.0854 41.6665 21.1448 40.731 21.1448 39.5821V24.9915H20.0969C18.9406 24.9915 18 24.0571 18 22.9071V19.781C18 18.6321 18.9406 17.6967 20.0969 17.6967H21.1448V14.5862C21.1448 11.1623 23.9323 8.37583 27.3708 8.34666C27.3927 8.34562 27.4115 8.33416 27.4344 8.33416H31.6281C32.2063 8.33416 32.5854 8.79979 32.5854 9.37479V14.5831C32.5854 15.1592 32.2063 15.629 31.6281 15.629H28.4823L28.4813 17.6967H31.626C32.2156 17.6967 32.7594 17.9456 33.1156 18.379C33.4729 18.8112 33.6115 19.3904 33.4958 19.9654ZM27.4729 19.781C27.4583 19.7821 27.4469 19.7894 27.4323 19.7894C26.8531 19.7883 26.3833 19.3217 26.3844 18.7467V18.7394L26.3865 14.5862C26.3865 14.0102 26.8552 13.5446 27.4344 13.5446H30.5792V10.4185H27.475C27.4573 10.4185 27.4427 10.4279 27.424 10.4279C25.1177 10.4279 23.2417 12.2935 23.2417 14.5862V18.755C23.2417 19.331 22.7719 19.7977 22.1927 19.7977C22.1646 19.7977 22.1406 19.7831 22.1125 19.781H20.0969V22.9071H22.1927C22.7719 22.9071 23.2417 23.3737 23.2417 23.9498C23.2417 24.004 23.2188 24.0498 23.2104 24.1019V39.5831L26.3865 39.5821V23.9602C26.3865 23.956 26.3844 23.9529 26.3844 23.9498C26.3844 23.3737 26.8531 22.9071 27.4323 22.9071H30.5771C30.6531 22.9071 30.7885 22.7977 30.8021 22.7248L31.3948 19.781H27.4729Z" fill="#02A6FF"/>
</g>
<circle cx="25.5" cy="25" r="24.5" stroke="#02A6FF"/>
<defs>
<clipPath id="clip0_2575_12806">
<rect width="15.5271" height="33.3333" fill="white" transform="translate(18 8.33333)"/>
</clipPath>
</defs>
</svg>
