<svg width="50" height="50" viewBox="0 0 50 50" fill="none" xmlns="http://www.w3.org/2000/svg">
<g clip-path="url(#clip0_2575_12794)">
<path d="M16.5625 41.6666H33.2292C34.0906 41.6666 34.7917 40.9656 34.7917 40.1041V9.89578C34.7917 9.03432 34.0906 8.33328 33.2292 8.33328H16.5625C15.701 8.33328 15 9.03432 15 9.89578V40.1041C15 40.9656 15.701 41.6666 16.5625 41.6666ZM16.0417 9.89578C16.0417 9.60828 16.275 9.37495 16.5625 9.37495H33.2292C33.5167 9.37495 33.75 9.60828 33.75 9.89578V40.1041C33.75 40.3916 33.5167 40.6249 33.2292 40.6249H16.5625C16.275 40.6249 16.0417 40.3916 16.0417 40.1041V9.89578Z" fill="#02A6FF"/>
<path d="M17.6029 36.4583H32.1862C32.4737 36.4583 32.707 36.2249 32.707 35.9374V14.0624C32.707 13.7749 32.4737 13.5416 32.1862 13.5416H17.6029C17.3154 13.5416 17.082 13.7749 17.082 14.0624V35.9374C17.082 36.2249 17.3154 36.4583 17.6029 36.4583ZM18.1237 14.5833H31.6654V35.4166H18.1237V14.5833Z" fill="#02A6FF"/>
<path d="M25.4167 39.5833C25.992 39.5833 26.4583 39.1169 26.4583 38.5416C26.4583 37.9663 25.992 37.4999 25.4167 37.4999C24.8414 37.4999 24.375 37.9663 24.375 38.5416C24.375 39.1169 24.8414 39.5833 25.4167 39.5833Z" fill="#02A6FF"/>
<path d="M22.8138 12.4999H26.9805C27.268 12.4999 27.5013 12.2666 27.5013 11.9791C27.5013 11.6916 27.268 11.4583 26.9805 11.4583H22.8138C22.5263 11.4583 22.293 11.6916 22.293 11.9791C22.293 12.2666 22.5263 12.4999 22.8138 12.4999Z" fill="#02A6FF"/>
</g>
<circle cx="25" cy="25" r="24.5" stroke="#02A6FF"/>
<defs>
<clipPath id="clip0_2575_12794">
<rect width="33.3333" height="33.3333" fill="white" transform="translate(8.33203 8.33328)"/>
</clipPath>
</defs>
</svg>
