<svg width="100" height="100" viewBox="0 0 100 100" fill="none" xmlns="http://www.w3.org/2000/svg">
<path d="M22.7273 43.1819H4.54551C2.03516 43.1819 0 45.217 0 47.7274C0 50.2377 2.03516 52.2729 4.54551 52.2729H22.7273C25.2377 52.2729 27.2729 50.2377 27.2729 47.7274C27.2727 45.217 25.2375 43.1819 22.7273 43.1819Z" fill="#02A6FF"/>
<path d="M95.4539 43.1819H77.2721C74.7617 43.1819 72.7266 45.217 72.7266 47.7274C72.7266 50.2377 74.7617 52.2729 77.2721 52.2729H95.4539C97.9643 52.2729 99.9994 50.2377 99.9994 47.7274C99.9994 45.217 97.9643 43.1819 95.4539 43.1819Z" fill="#02A6FF" fill-opacity="0.4"/>
<path d="M27.5003 63.7979L14.6439 76.6545C12.8687 78.4297 12.8687 81.3074 14.6439 83.0826C15.5314 83.9701 16.6949 84.4139 17.8582 84.4139C19.0214 84.4139 20.1849 83.9699 21.072 83.0826L33.9285 70.226C35.7037 68.4508 35.7037 65.5729 33.9285 63.7979C32.1533 62.0229 29.2751 62.0227 27.5003 63.7979Z" fill="#02A6FF" fill-opacity="0.85"/>
<path d="M49.9986 2.27271C47.4883 2.27271 45.4531 4.30786 45.4531 6.81821V15.909C45.4531 18.4194 47.4883 20.4545 49.9986 20.4545C52.509 20.4545 54.5441 18.4194 54.5441 15.909V6.81821C54.5441 4.30786 52.509 2.27271 49.9986 2.27271Z" fill="#02A6FF" fill-opacity="0.1"/>
<path d="M78.9261 12.3719L66.0697 25.2286C64.2945 27.0038 64.2945 29.8817 66.0697 31.6567C66.9572 32.5442 68.1207 32.9881 69.2839 32.9881C70.4472 32.9881 71.6107 32.5442 72.4978 31.6567L85.3542 18.8C87.1294 17.0249 87.1294 14.1469 85.3542 12.3719C83.5794 10.5967 80.7009 10.5967 78.9261 12.3719Z" fill="#02A6FF" fill-opacity="0.25"/>
<path d="M49.9986 70.4546C47.4883 70.4546 45.4531 72.4897 45.4531 75.0001V93.1819C45.4531 95.6923 47.4883 97.7274 49.9986 97.7274C52.509 97.7274 54.5441 95.6923 54.5441 93.1819V75.0001C54.5441 72.4897 52.509 70.4546 49.9986 70.4546Z" fill="#02A6FF" fill-opacity="0.7"/>
<path d="M72.4978 63.7979C70.7232 62.0228 67.8447 62.0228 66.0697 63.7979C64.2945 65.5728 64.2945 68.4511 66.0697 70.2261L78.9261 83.0827C79.8136 83.9702 80.9771 84.414 82.1404 84.414C83.3035 84.414 84.4671 83.97 85.3542 83.0827C87.1294 81.3075 87.1294 78.4296 85.3542 76.6546L72.4978 63.7979Z" fill="#02A6FF" fill-opacity="0.55"/>
</svg>
