<svg width="303" height="231" viewBox="0 0 303 231" fill="none" xmlns="http://www.w3.org/2000/svg">
<path d="M106.076 40.336C102.546 40.336 99.5664 42.7123 98.6357 45.9474H67.6581L59.0367 37.3269H79.8265C80.7572 40.562 83.7378 42.9383 87.2671 42.9383C91.5391 42.9383 95.0141 39.4624 95.0141 35.1905C95.0141 30.9185 91.5391 27.4426 87.2671 27.4426C83.7368 27.4426 80.7563 29.8189 79.8265 33.054H54.7638L49.0814 27.3716L28.3691 48.0839L49.0814 68.7961L54.7638 63.1128H79.8256C80.7563 66.3479 83.7368 68.7242 87.2662 68.7242C91.5382 68.7242 95.0131 65.2483 95.0131 60.9763C95.0131 56.7043 91.5382 53.2294 87.2662 53.2294C83.7359 53.2294 80.7554 55.6048 79.8256 58.8399H59.0367L67.6572 50.2194H98.6348C99.5655 53.4545 102.545 55.8298 106.075 55.8298C110.347 55.8298 113.823 52.3549 113.823 48.0829C113.824 43.811 110.348 40.336 106.076 40.336ZM87.2681 31.7146C89.184 31.7146 90.7421 33.2736 90.7421 35.1895C90.7421 37.1055 89.184 38.6645 87.2681 38.6645C85.3521 38.6645 83.7931 37.1055 83.7931 35.1895C83.7931 33.2736 85.3521 31.7146 87.2681 31.7146ZM87.2681 57.5023C89.184 57.5023 90.7421 59.0603 90.7421 60.9763C90.7421 62.8923 89.184 64.4513 87.2681 64.4513C85.3521 64.4513 83.7931 62.8923 83.7931 60.9763C83.7931 59.0603 85.3521 57.5023 87.2681 57.5023ZM49.0823 62.7539L34.4123 48.0839L49.0823 33.4138L63.7524 48.0839L49.0823 62.7539ZM106.076 51.5579C104.16 51.5579 102.602 49.9998 102.602 48.0839C102.602 46.1679 104.16 44.6089 106.076 44.6089C107.992 44.6089 109.551 46.1679 109.551 48.0839C109.551 49.9989 107.992 51.5579 106.076 51.5579Z" fill="url(#paint0_linear_2574_11943)"/>
<path d="M79.2672 65.9826H65.169L49.0839 82.0677L15.0991 48.0829L49.0839 14.0991L65.169 30.1842H79.2681L49.0839 0L1 48.0829L49.0839 96.1659L79.2672 65.9826Z" fill="url(#paint1_linear_2574_11943)"/>
<path d="M106.076 40.336C102.546 40.336 99.5664 42.7123 98.6357 45.9474H67.6581L59.0367 37.3269H79.8265C80.7572 40.562 83.7378 42.9383 87.2671 42.9383C91.5391 42.9383 95.0141 39.4624 95.0141 35.1905C95.0141 30.9185 91.5391 27.4426 87.2671 27.4426C83.7368 27.4426 80.7563 29.8189 79.8265 33.054H54.7638L49.0814 27.3716L28.3691 48.0839L49.0814 68.7961L54.7638 63.1128H79.8256C80.7563 66.3479 83.7368 68.7242 87.2662 68.7242C91.5382 68.7242 95.0131 65.2483 95.0131 60.9763C95.0131 56.7043 91.5382 53.2294 87.2662 53.2294C83.7359 53.2294 80.7554 55.6048 79.8256 58.8399H59.0367L67.6572 50.2194H98.6348C99.5655 53.4545 102.545 55.8298 106.075 55.8298C110.347 55.8298 113.823 52.3549 113.823 48.0829C113.824 43.811 110.348 40.336 106.076 40.336ZM87.2681 31.7146C89.184 31.7146 90.7421 33.2736 90.7421 35.1895C90.7421 37.1055 89.184 38.6645 87.2681 38.6645C85.3521 38.6645 83.7931 37.1055 83.7931 35.1895C83.7931 33.2736 85.3521 31.7146 87.2681 31.7146ZM87.2681 57.5023C89.184 57.5023 90.7421 59.0603 90.7421 60.9763C90.7421 62.8923 89.184 64.4513 87.2681 64.4513C85.3521 64.4513 83.7931 62.8923 83.7931 60.9763C83.7931 59.0603 85.3521 57.5023 87.2681 57.5023ZM49.0823 62.7539L34.4123 48.0839L49.0823 33.4138L63.7524 48.0839L49.0823 62.7539ZM106.076 51.5579C104.16 51.5579 102.602 49.9998 102.602 48.0839C102.602 46.1679 104.16 44.6089 106.076 44.6089C107.992 44.6089 109.551 46.1679 109.551 48.0839C109.551 49.9989 107.992 51.5579 106.076 51.5579Z" fill="url(#paint2_linear_2574_11943)"/>
<path d="M79.2672 65.9826H65.169L49.0839 82.0677L15.0991 48.0829L49.0839 14.0991L65.169 30.1842H79.2681L49.0839 0L1 48.0829L49.0839 96.1659L79.2672 65.9826Z" fill="url(#paint3_linear_2574_11943)"/>
<path d="M162.841 74.5137C162.841 77.621 164.933 80.2436 167.78 81.0629V108.329L160.192 115.918V97.6187C163.04 96.7995 165.131 94.176 165.131 91.0695C165.131 87.3093 162.072 84.2507 158.312 84.2507C154.552 84.2507 151.492 87.3093 151.492 91.0695C151.492 94.1768 153.584 96.8003 156.431 97.6187V119.679L151.43 124.68L169.661 142.911L187.891 124.68L182.889 119.679V97.6195C185.737 96.8003 187.828 94.1768 187.828 91.0703C187.828 87.3101 184.769 84.2515 181.009 84.2515C177.248 84.2515 174.19 87.3101 174.19 91.0703C174.19 94.1777 176.28 96.8011 179.128 97.6195V115.918L171.54 108.33V81.0637C174.388 80.2445 176.479 77.6218 176.479 74.5145C176.479 70.7543 173.42 67.6948 169.66 67.6948C165.9 67.694 162.841 70.7535 162.841 74.5137ZM155.252 91.0687C155.252 89.3822 156.625 88.0108 158.311 88.0108C159.997 88.0108 161.37 89.3822 161.37 91.0687C161.37 92.7551 159.997 94.1273 158.311 94.1273C156.625 94.1273 155.252 92.7551 155.252 91.0687ZM177.951 91.0687C177.951 89.3822 179.322 88.0108 181.009 88.0108C182.695 88.0108 184.067 89.3822 184.067 91.0687C184.067 92.7551 182.695 94.1273 181.009 94.1273C179.322 94.1273 177.951 92.7551 177.951 91.0687ZM182.573 124.68L169.661 137.592L156.748 124.68L169.661 111.767L182.573 124.68ZM172.718 74.5137C172.718 76.2001 171.347 77.5715 169.661 77.5715C167.974 77.5715 166.602 76.2001 166.602 74.5137C166.602 72.8272 167.974 71.455 169.661 71.455C171.346 71.455 172.718 72.8272 172.718 74.5137Z" fill="url(#paint4_linear_2574_11943)"/>
<path d="M162.841 74.5137C162.841 77.621 164.933 80.2436 167.78 81.0629V108.329L160.192 115.918V97.6187C163.04 96.7995 165.131 94.176 165.131 91.0695C165.131 87.3093 162.072 84.2507 158.312 84.2507C154.552 84.2507 151.492 87.3093 151.492 91.0695C151.492 94.1768 153.584 96.8003 156.431 97.6187V119.679L151.43 124.68L169.661 142.911L187.891 124.68L182.889 119.679V97.6195C185.737 96.8003 187.828 94.1768 187.828 91.0703C187.828 87.3101 184.769 84.2515 181.009 84.2515C177.248 84.2515 174.19 87.3101 174.19 91.0703C174.19 94.1777 176.28 96.8011 179.128 97.6195V115.918L171.54 108.33V81.0637C174.388 80.2445 176.479 77.6218 176.479 74.5145C176.479 70.7543 173.42 67.6948 169.66 67.6948C165.9 67.694 162.841 70.7535 162.841 74.5137ZM155.252 91.0687C155.252 89.3822 156.625 88.0108 158.311 88.0108C159.997 88.0108 161.37 89.3822 161.37 91.0687C161.37 92.7551 159.997 94.1273 158.311 94.1273C156.625 94.1273 155.252 92.7551 155.252 91.0687ZM177.951 91.0687C177.951 89.3822 179.322 88.0108 181.009 88.0108C182.695 88.0108 184.067 89.3822 184.067 91.0687C184.067 92.7551 182.695 94.1273 181.009 94.1273C179.322 94.1273 177.951 92.7551 177.951 91.0687ZM182.573 124.68L169.661 137.592L156.748 124.68L169.661 111.767L182.573 124.68ZM172.718 74.5137C172.718 76.2001 171.347 77.5715 169.661 77.5715C167.974 77.5715 166.602 76.2001 166.602 74.5137C166.602 72.8272 167.974 71.455 169.661 71.455C171.346 71.455 172.718 72.8272 172.718 74.5137Z" fill="url(#paint5_linear_2574_11943)"/>
<path d="M176.483 173.701C176.483 170.593 174.392 167.971 171.544 167.152V139.885L179.132 132.297V150.596C176.284 151.415 174.193 154.038 174.193 157.145C174.193 160.905 177.252 163.964 181.012 163.964C184.773 163.964 187.832 160.905 187.832 157.145C187.832 154.038 185.74 151.414 182.893 150.596V128.536L187.895 123.534L169.664 105.303L151.433 123.534L156.435 128.536V150.595C153.588 151.414 151.496 154.038 151.496 157.144C151.496 160.904 154.556 163.963 158.316 163.963C162.076 163.963 165.135 160.904 165.135 157.144C165.135 154.037 163.044 151.413 160.196 150.595V132.297L167.784 139.884V167.151C164.936 167.97 162.846 170.593 162.846 173.7C162.846 177.46 165.904 180.52 169.664 180.52C173.425 180.52 176.483 177.461 176.483 173.701ZM184.072 157.146C184.072 158.832 182.7 160.204 181.013 160.204C179.327 160.204 177.955 158.832 177.955 157.146C177.955 155.459 179.327 154.087 181.013 154.087C182.7 154.087 184.072 155.459 184.072 157.146ZM161.374 157.146C161.374 158.832 160.002 160.204 158.316 160.204C156.629 160.204 155.257 158.832 155.257 157.146C155.257 155.459 156.629 154.087 158.316 154.087C160.002 154.087 161.374 155.459 161.374 157.146ZM156.751 123.535L169.664 110.622L182.576 123.535L169.664 136.447L156.751 123.535ZM166.606 173.701C166.606 172.014 167.977 170.643 169.664 170.643C171.35 170.643 172.722 172.014 172.722 173.701C172.722 175.387 171.35 176.759 169.664 176.759C167.978 176.759 166.606 175.387 166.606 173.701Z" fill="url(#paint6_linear_2574_11943)"/>
<path d="M176.483 173.701C176.483 170.593 174.392 167.971 171.544 167.152V139.885L179.132 132.297V150.596C176.284 151.415 174.193 154.038 174.193 157.145C174.193 160.905 177.252 163.964 181.012 163.964C184.773 163.964 187.832 160.905 187.832 157.145C187.832 154.038 185.74 151.414 182.893 150.596V128.536L187.895 123.534L169.664 105.303L151.433 123.534L156.435 128.536V150.595C153.588 151.414 151.496 154.038 151.496 157.144C151.496 160.904 154.556 163.963 158.316 163.963C162.076 163.963 165.135 160.904 165.135 157.144C165.135 154.037 163.044 151.413 160.196 150.595V132.297L167.784 139.884V167.151C164.936 167.97 162.846 170.593 162.846 173.7C162.846 177.46 165.904 180.52 169.664 180.52C173.425 180.52 176.483 177.461 176.483 173.701ZM184.072 157.146C184.072 158.832 182.7 160.204 181.013 160.204C179.327 160.204 177.955 158.832 177.955 157.146C177.955 155.459 179.327 154.087 181.013 154.087C182.7 154.087 184.072 155.459 184.072 157.146ZM161.374 157.146C161.374 158.832 160.002 160.204 158.316 160.204C156.629 160.204 155.257 158.832 155.257 157.146C155.257 155.459 156.629 154.087 158.316 154.087C160.002 154.087 161.374 155.459 161.374 157.146ZM156.751 123.535L169.664 110.622L182.576 123.535L169.664 136.447L156.751 123.535ZM166.606 173.701C166.606 172.014 167.977 170.643 169.664 170.643C171.35 170.643 172.722 172.014 172.722 173.701C172.722 175.387 171.35 176.759 169.664 176.759C167.978 176.759 166.606 175.387 166.606 173.701Z" fill="url(#paint7_linear_2574_11943)"/>
<path d="M6.64062 180.957V86.499L48.8209 125.857L89.3788 86.499V180.957L48.8209 221.889L6.64062 180.957Z" stroke="#015C8E" stroke-width="12"/>
<path d="M292.637 223.41L245.15 140.69L219.407 193.689L233.769 223.41H292.637Z" stroke="url(#paint8_linear_2574_11943)" stroke-width="12"/>
<path d="M234.343 13.5216L207.458 94.9851V167.908L212.129 177.935L293.344 13.5216H234.343Z" stroke="url(#paint9_linear_2574_11943)" stroke-width="12"/>
<rect x="142.391" y="13.5216" width="51.9341" height="209.889" stroke="url(#paint10_linear_2574_11943)" stroke-width="12"/>
<defs>
<linearGradient id="paint0_linear_2574_11943" x1="28.37" y1="48.0833" x2="113.824" y2="48.0833" gradientUnits="userSpaceOnUse">
<stop stop-color="#EC5200"/>
<stop offset="1" stop-color="#7F2D00"/>
</linearGradient>
<linearGradient id="paint1_linear_2574_11943" x1="71.0031" y1="6.42742" x2="21.7966" y2="87.0938" gradientUnits="userSpaceOnUse">
<stop stop-color="#009AEC"/>
<stop offset="1" stop-color="#005380"/>
</linearGradient>
<linearGradient id="paint2_linear_2574_11943" x1="28.37" y1="48.0833" x2="113.824" y2="48.0833" gradientUnits="userSpaceOnUse">
<stop stop-color="#EC5200"/>
<stop offset="1" stop-color="#7F2D00"/>
</linearGradient>
<linearGradient id="paint3_linear_2574_11943" x1="71.0031" y1="6.42742" x2="21.7966" y2="87.0938" gradientUnits="userSpaceOnUse">
<stop stop-color="#009AEC"/>
<stop offset="1" stop-color="#005380"/>
</linearGradient>
<linearGradient id="paint4_linear_2574_11943" x1="169.66" y1="142.911" x2="169.66" y2="67.6942" gradientUnits="userSpaceOnUse">
<stop stop-color="#EC5200"/>
<stop offset="1" stop-color="#7F2D00"/>
</linearGradient>
<linearGradient id="paint5_linear_2574_11943" x1="169.66" y1="142.911" x2="169.66" y2="67.6942" gradientUnits="userSpaceOnUse">
<stop stop-color="#EC5200"/>
<stop offset="1" stop-color="#7F2D00"/>
</linearGradient>
<linearGradient id="paint6_linear_2574_11943" x1="169.664" y1="105.304" x2="169.664" y2="180.52" gradientUnits="userSpaceOnUse">
<stop stop-color="#EC5200"/>
<stop offset="1" stop-color="#7F2D00"/>
</linearGradient>
<linearGradient id="paint7_linear_2574_11943" x1="169.664" y1="105.304" x2="169.664" y2="180.52" gradientUnits="userSpaceOnUse">
<stop stop-color="#EC5200"/>
<stop offset="1" stop-color="#7F2D00"/>
</linearGradient>
<linearGradient id="paint8_linear_2574_11943" x1="257.87" y1="127.868" x2="257.87" y2="229.41" gradientUnits="userSpaceOnUse">
<stop stop-color="#009AEC"/>
<stop offset="1" stop-color="#005380"/>
</linearGradient>
<linearGradient id="paint9_linear_2574_11943" x1="252.229" y1="7.52161" x2="252.229" y2="191.802" gradientUnits="userSpaceOnUse">
<stop stop-color="#009AEC"/>
<stop offset="1" stop-color="#005380"/>
</linearGradient>
<linearGradient id="paint10_linear_2574_11943" x1="168.358" y1="7.52161" x2="168.358" y2="229.41" gradientUnits="userSpaceOnUse">
<stop stop-color="#009AEC"/>
<stop offset="1" stop-color="#005380"/>
</linearGradient>
</defs>
</svg>
