<svg width="302" height="444" viewBox="0 0 302 444" fill="none" xmlns="http://www.w3.org/2000/svg">
<path fill-rule="evenodd" clip-rule="evenodd" d="M205.61 0.839161C202.333 2.0416 193.93 8.2962 190.594 12.0161C186.444 16.6428 183.741 21.4395 182.855 25.7455C182.2 28.9274 182.22 30.1873 182.987 34.1194C183.484 36.6647 184.276 41.6155 184.748 45.1203C185.578 51.2872 186.349 53.6026 188.677 56.9142C189.385 57.9217 189.784 59.5212 189.788 61.3589C189.795 65.47 192.498 75.5352 194.592 79.2533C195.574 80.9968 196.14 82.2763 195.85 82.0968C194.637 81.3477 180.9 85.3195 174.736 88.2014C168.195 91.2594 164.08 94.9106 156.329 104.53C153.965 107.463 150.561 111.331 148.764 113.125C143.042 118.84 139.939 124.6 135.838 137.124C135.091 139.406 133.217 143.81 131.675 146.912C128.655 152.983 126.964 157.934 126.964 160.701C126.964 161.654 125.601 165.139 123.935 168.446C118.697 178.846 117.96 181.284 117.786 188.782C117.61 196.323 117.46 196.661 111.94 201.881C106.445 207.078 102.726 208.255 89.0267 209.131C83.6534 209.475 77.0622 209.916 74.3794 210.11C70.631 210.382 69.1897 210.263 68.1568 209.597C65.7608 208.049 61.0476 206.758 57.7976 206.758C53.363 206.758 49.8066 208.728 43.8726 214.473C39.0214 219.17 32.9955 222.809 25.9208 225.312C12.4017 230.097 8.88329 231.917 3.85247 236.732L1.32669 239.149C1.32669 239.149 0.190588 242.008 0.0588124 243.274C-0.0735679 244.545 0.0590313 245.941 0.0590313 245.941C0.0590313 249.905 1.60404 252.31 2.06747 253.139C3.79558 256.231 6.91458 259.601 9.39236 261.053C11.8316 262.482 12.4509 262.586 16.9116 262.319C25.1 261.826 35.9996 257.366 41.3575 252.315C42.3508 251.379 43.36 250.612 43.6 250.612C43.8401 250.612 43.8673 251.889 43.6605 253.45C43.2468 256.567 44.1387 263.898 45.5504 268.984C46.7836 273.427 52.6785 291.635 54.1838 295.652C56.303 301.305 56.8962 302.911 59.1121 308.986C60.3009 312.246 61.7617 316.113 62.3591 317.579C62.9565 319.046 64.0309 321.713 64.7462 323.506C66.9111 328.932 67.659 330.555 72.3336 339.977C76.6456 348.667 76.7991 349.119 76.063 350.941C75.6411 351.986 74.9394 353.907 74.5044 355.211C74.0688 356.515 72.4687 361.049 70.948 365.286C69.428 369.523 66.7665 376.99 65.0342 381.879C63.302 386.769 60.9196 393.436 59.7397 396.695C55.4402 408.573 53.9212 414.084 54.3367 416.299C54.8321 418.941 56.5602 420.697 58.6635 420.697C61.4944 420.696 74.7865 418.353 75.8592 417.665C78.8537 415.745 87.8 403.012 90.193 397.264C91.8269 393.339 91.9988 392.315 91.9994 386.514C92 381.158 91.6959 379.003 90.1539 373.435C88.9355 369.035 88.0288 366.767 87.4865 366.767C86.3439 366.767 86.447 369.142 87.7923 373.815C89.6543 380.283 90.4016 385.626 90.0431 389.905C89.7314 393.62 88.5266 397.189 87.4184 397.679C86.7943 397.954 84.0955 402.16 82.9162 404.696C82.3852 405.836 81.9265 406.37 81.8957 405.881C81.8595 405.293 81.6817 405.393 81.3706 406.177C81.1039 406.85 81.1501 407.523 81.4779 407.735C81.7996 407.941 81.0476 409.456 79.7788 411.156C77.2862 414.495 76.1946 414.972 69.4789 415.668C67.2228 415.9 64.3503 416.702 62.5452 417.601C60.0022 418.868 59.2146 419.022 58.0371 418.486C55.5533 417.354 55.5877 414.887 58.184 407.779C66.1371 386.011 76.7991 355.404 77.3597 352.732C77.723 350.999 78.232 349.581 78.4904 349.581C79.5281 349.581 78.7921 347.607 75.145 340.607C69.2757 329.343 58.2077 300.899 51.0802 278.762C47.0545 266.259 46.1655 262.097 46.1412 255.64C46.1205 249.944 46.1946 249.594 47.9707 247.013C50.4556 243.401 54.2371 240.067 57.4705 238.637C59.6152 237.688 61.1146 237.502 65.2476 237.669C70.004 237.861 70.7549 238.075 75.8147 240.688C78.811 242.235 81.6562 243.501 82.1375 243.501C82.6187 243.501 84.4108 244.694 86.1193 246.153C87.9351 247.703 90.9718 249.477 93.427 250.424C95.7383 251.315 99.6289 253.282 102.073 254.795C106.09 257.281 111.896 260.565 122.764 266.498C127.518 269.094 147.778 278.348 150.965 279.38C152.269 279.802 156.269 281.018 159.855 282.084C163.44 283.149 170.641 285.596 175.856 287.521C184.056 290.548 186.064 291.065 190.708 291.343C196.241 291.674 201.966 290.972 206.883 289.359C210.25 288.254 221.82 281.374 221.415 280.717C220.754 279.649 218.397 280.406 213.396 283.292C206.437 287.309 201.764 288.614 194.227 288.647C189.535 288.667 187.56 288.4 184.745 287.363C180.771 285.9 176.651 284.542 162.818 280.139C157.603 278.479 149.602 275.661 145.039 273.878C133.63 269.419 114.474 259.939 105.988 254.552C102.111 252.092 96.6734 249.198 93.9047 248.123C90.0437 246.623 88.4525 245.65 87.0764 243.945C86.0891 242.723 84.892 241.723 84.4155 241.723C83.939 241.723 81.1163 240.533 78.1437 239.079C71.6307 235.893 67.6844 234.972 62.1155 235.336C56.1258 235.727 50.1788 239.197 46.383 244.515C44.4345 247.246 36.8002 253.297 32.736 255.333C26.2147 258.6 22.138 259.697 16.322 259.749L10.8721 259.798L8.39793 257.428C7.03666 256.124 5.02232 253.67 3.92121 251.974C2.18956 249.308 1.91932 248.391 1.91932 245.189C1.91932 241.491 1.92228 241.484 5.02113 238.575C9.40421 234.46 12.231 232.671 17.3276 230.785C28.8424 226.527 31.5632 225.416 35.7412 223.267C38.6871 221.752 42.0462 219.264 45.5196 216.023C52.3852 209.619 53.7838 208.906 58.7778 209.264C60.9202 209.417 63.6042 210.03 64.7426 210.625C65.8811 211.221 68.4122 212.159 70.3679 212.711C72.3235 213.262 76.287 214.415 79.1755 215.273C82.064 216.131 85.7104 216.833 87.2791 216.833C88.8472 216.833 91.4174 217.089 92.9908 217.402C98.7281 218.545 108.451 219.744 114.815 220.091C123.359 220.56 130.037 221.796 136.025 224.021C146.981 228.091 149.305 229.038 151.274 230.24C154.034 231.924 164.211 235.365 165.25 234.966C167.403 234.14 165.816 232.884 160.299 231.049C154.245 229.035 151.561 227.866 150.076 226.597C149.587 226.179 147.854 225.442 146.224 224.958C137.855 222.474 132.793 218.769 126.885 210.8C125.24 208.581 122.985 204.609 121.873 201.974C120.019 197.576 119.852 196.684 119.852 191.131C119.852 183.315 120.757 179.98 125.742 169.422C127.974 164.696 129.947 160.378 130.128 159.826C130.637 158.271 133.28 156.83 135.718 156.777C138.797 156.71 143.899 159.294 147.3 162.642C149.837 165.139 150.136 165.702 149.991 167.708C149.902 168.949 150.039 170.176 150.297 170.433C151.062 171.198 152.447 168.757 152.447 166.644C152.447 162.74 145.672 157.538 137.978 155.533C135.009 154.76 134.256 154.755 132.124 155.489C130.778 155.952 129.545 156.2 129.383 156.038C129.221 155.876 129.554 155.021 130.123 154.138C131.221 152.433 136.235 142.257 139.382 135.346C142.516 128.463 150.058 115.234 152.148 112.953C153.227 111.776 155.399 109.132 156.976 107.078C161.91 100.654 168.511 94.1733 172.571 91.7696C177.158 89.0548 186.756 85.7728 194.392 84.3091C199.543 83.3217 201.158 82.3392 198.995 81.5095C197.021 80.7521 193.792 72.3646 192.765 65.329C192.391 62.7694 191.956 59.811 191.797 58.7555C191.635 57.6763 190.482 55.6496 189.164 54.1265C187.579 52.2953 186.819 50.8528 186.819 49.6753C186.819 47.4642 187.147 47.4802 188.32 49.7494C190.003 53.0035 190.691 51.6102 190.46 45.4131L190.248 39.7363L192.83 37.9335C194.25 36.9421 195.926 35.7663 196.553 35.3206C197.287 34.7985 197.554 34.1472 197.302 33.4918C196.851 32.3154 196.076 32.6082 191.446 35.7035C188.821 37.4582 188.644 37.7457 188.298 40.822C187.61 46.9415 187.699 47.0772 185.904 37.191C184.622 30.1351 184.944 24.8578 186.894 20.931C188.713 17.2692 195.899 9.63376 200.855 6.09755C202.991 4.57331 206.641 2.57734 208.965 1.66291L213.191 0L210.524 0.00711153C209.058 0.0112599 206.847 0.385208 205.61 0.839161ZM224.155 0.385801C224.155 1.66291 227.024 2.72668 231.337 3.04729C240.459 3.72585 245.548 8.7146 247.558 18.9481C248.032 21.3631 249.126 25.3366 249.987 27.7771C252.635 35.275 251.308 43.1896 247.402 43.1949C245.319 43.1978 242.15 45.1328 241.65 46.7068C241.333 47.7083 241.052 47.8203 240.116 47.3196C239.486 46.9824 238.966 46.116 238.962 45.3941C238.956 44.6723 238.73 43.7306 238.458 43.3016C237.892 42.4091 235.03 40.822 233.986 40.822C233.6 40.822 232.255 39.7671 230.996 38.4776C228.31 35.7278 226.164 35.1037 222.712 36.0703C220.828 36.5977 219.589 36.6066 217.734 36.1076C216.377 35.742 215.265 35.3005 215.265 35.1268C215.265 34.9526 215.911 33.6962 216.701 32.3344C219.109 28.1836 224.692 14.0002 224.733 11.9314C224.741 11.5242 224.5 11.1906 224.197 11.1906C223.894 11.1906 223.353 12.6022 222.995 14.3274C222.637 16.0531 221.289 19.1798 220 21.2753C218.711 23.3715 216.943 26.766 216.07 28.8183C214.81 31.785 214.17 32.6117 212.949 32.8517C212.104 33.0177 209.566 33.7099 207.307 34.3896C205.049 35.0688 202.2 35.6116 200.977 35.5944C198.019 35.5535 196.713 37.0013 198.942 37.8488C201.354 38.7662 203.992 38.5789 208.47 37.1738L212.541 35.8955L214.874 37.2384C218.547 39.3529 220.318 39.6646 223.39 38.7401C226.471 37.8126 226.903 37.9572 229.163 40.6632C230.057 41.7358 231.784 42.8849 233.086 43.2749C234.982 43.8432 235.512 44.3387 235.96 45.9613C236.262 47.0553 237.196 48.7674 238.036 49.7654C238.876 50.7639 239.563 52.2265 239.563 53.0165C239.563 54.0258 239.893 54.4524 240.676 54.4524C241.443 54.4524 242.177 53.5463 243.046 51.5278C243.738 49.9188 244.304 48.3602 244.304 48.0639C244.304 46.9705 246.524 45.563 248.248 45.563C251.07 45.563 253.786 49.1348 253.786 52.8441C253.786 55.7971 251.621 58.5268 247.48 60.793C244.898 62.2064 243.65 63.2962 243.184 64.5449C242.822 65.5133 242.217 67.1294 241.839 68.1368C241.462 69.1443 240.095 71.6049 238.802 73.605C236.879 76.58 236.35 78.0527 235.891 81.6997C235.582 84.152 235.495 87.5057 235.697 89.152C235.996 91.5978 235.868 92.3143 234.998 93.0633C233.899 94.011 224.519 97.9152 221.636 98.6264C219.152 99.2385 219.692 100.085 222.568 100.085C225.636 100.085 235.63 95.5139 237.504 93.2536L238.705 91.8052L241.06 92.9288C242.356 93.5469 244.686 94.5965 246.24 95.2614C251.031 97.3131 263.787 109.189 268.91 116.367C272.76 121.763 274.883 126.344 283.744 148.384C288.2 159.466 292.9 171.139 294.187 174.322C296.614 180.321 296.678 181.539 294.662 183.363C293.066 184.808 293.189 186.412 295.236 190.839C297.96 196.729 299.194 209.119 297.401 212.566C294.662 217.831 287.068 220.388 274.178 220.388C266.345 220.388 263.91 221.036 257.812 224.743C255.3 226.27 252.439 227.681 251.454 227.877C250.47 228.074 249.412 228.539 249.104 228.91C248.796 229.281 248.418 231.983 248.264 234.913C247.914 241.545 246.83 252.432 246.485 252.777C246.343 252.919 245.075 253.624 243.667 254.342C241.11 255.647 241.103 255.66 239.704 261.47C237.971 268.667 238.227 269.223 243.104 268.87C244.914 268.739 247.672 268.014 249.233 267.259C250.793 266.503 252.2 266.015 252.359 266.174C252.518 266.332 252.957 269.56 253.336 273.347C253.991 279.908 253.96 280.427 252.67 284.435C251.655 287.586 250.71 289.226 248.899 290.985C243.963 295.774 232.148 299.99 220.599 301.082C212.635 301.834 168.207 301.405 151.262 300.411C145.232 300.057 135.898 299.243 130.52 298.603C125.142 297.962 118.341 297.463 115.408 297.493L110.074 297.549L113.63 298.699C122.287 301.5 165.149 304.577 194.523 304.507C214.387 304.46 225.453 303.683 231.563 301.908C238.364 299.932 247.063 295.776 250.054 293.074C253.032 290.384 255.296 286.184 256.081 281.895C256.78 278.081 256.086 269.923 254.729 265.983C254.278 264.675 254.036 263.117 254.192 262.522C254.348 261.927 253.928 258.803 253.261 255.582C250.685 243.161 250.645 236.39 253.122 231.778C253.88 230.366 258.268 226.907 259.301 226.907C259.629 226.907 260.856 226.175 262.027 225.28C264.093 223.703 264.453 223.642 273.936 223.281C288.087 222.742 294.473 220.862 296.902 216.521C297.995 214.569 298.373 215.971 297.669 219.363C297.167 221.783 296.245 223.519 293.948 226.369C288.716 232.862 286.39 237.711 281.038 253.279C277.456 263.701 274.08 274.783 272.733 280.54C269.342 295.033 267.152 299.462 260.134 306.018L254.926 310.884L255.483 313.194C256.789 318.609 275.527 370.888 278.468 377.324C279.558 379.707 282.217 386.936 284.378 393.386C288.037 404.31 288.251 405.231 287.491 406.817C286.463 408.961 284.027 409.905 281.958 408.962C280.393 408.249 279.596 406.784 276.087 398.177C274.958 395.406 272.584 389.673 270.812 385.435C267.191 376.778 265.61 372.386 264.094 366.767C262.738 361.746 255.559 344.127 254.061 342.143L252.897 340.602L233.044 341.302C222.125 341.687 212.684 342.271 212.064 342.601C210.977 343.179 210.956 343.81 211.471 360.465C211.765 369.962 211.967 390.479 211.918 406.058C211.854 427.141 212.005 434.328 212.511 434.16C212.959 434.011 213.246 431.53 213.351 426.871C213.485 420.988 213.683 419.68 214.536 419.042C215.446 418.363 215.584 416.747 215.752 404.819C215.93 392.239 215.493 384.325 214.107 375.064C213.79 372.946 213.348 365.478 213.123 358.469C212.769 347.398 212.834 345.628 213.626 344.972C215.03 343.807 251.291 342.664 252.306 343.753C252.712 344.188 253.846 346.544 254.826 348.989C255.805 351.433 258.34 357.575 260.457 362.637C263.189 369.164 264.405 372.882 264.64 375.423C264.875 377.963 266.002 381.409 268.509 387.258C270.455 391.797 272.753 397.377 273.615 399.658C274.477 401.94 275.424 404.34 275.718 404.992C276.012 405.644 276.643 407.156 277.119 408.353C278.288 411.29 280.452 412.614 283.872 412.485C287.24 412.358 289.18 411.158 290.283 408.52C291.506 405.593 291.384 404.521 288.97 396.992C285.072 384.83 282.209 377.821 280.486 376.219C279.533 375.332 278.348 373.126 277.621 370.885C275.802 365.281 263.428 329.47 260.942 322.617C260.233 320.661 259.081 317.35 258.381 315.259L257.111 311.458L258.56 310.556C259.357 310.059 261.611 308.036 263.57 306.06C267.92 301.671 271.641 294.562 273.36 287.355C275.588 278.011 276.391 275.245 280.766 261.872C288.134 239.35 290.391 234.121 295.147 228.548C296.546 226.908 298.054 224.863 298.499 224.003C300.593 219.955 301.13 210.649 299.905 199.637C299.195 193.254 299.734 177.384 301.233 160.533C301.566 156.785 301.894 147.451 301.96 139.791C302.076 126.521 302.016 125.683 300.696 122.017C298.89 117.006 295.606 112.442 291.64 109.434C287.049 105.951 275.037 100.358 267.713 98.2921C266.735 98.0165 263.135 96.9949 259.713 96.0223C256.29 95.0498 251.469 93.8124 249 93.272C246.53 92.7321 243.063 91.5622 241.295 90.6721L238.082 89.0536L238.264 83.634C238.441 78.3348 238.503 78.1279 241.061 74.3144C242.499 72.1691 243.988 69.2895 244.369 67.9152C245.114 65.2318 246.354 63.8829 250.18 61.5907C253.204 59.7796 255.569 56.4413 255.975 53.413C256.314 50.8848 254.867 47.3154 252.714 45.3681C251.574 44.3375 251.562 44.1775 252.46 42.1086C253.914 38.7597 253.714 29.9419 252.112 26.8022C251.431 25.4658 250.426 21.9326 249.881 18.9499C249.162 15.0213 248.327 12.5933 246.851 10.1369C242.824 3.43547 240.031 1.66825 232.452 1.02762C229.681 0.793529 226.681 0.419581 225.785 0.197345C224.822 -0.0420766 224.155 0.0355577 224.155 0.385801ZM214.262 4.91763C212.179 6.70974 212.871 7.55601 215.424 6.33875C216.48 5.83502 218.21 5.23231 219.268 5C222.052 4.38841 221.629 3.48643 218.558 3.48643C216.627 3.48643 215.48 3.86868 214.262 4.91763ZM229.942 19.4874C229.145 22.5039 228.806 27.7842 229.41 27.7842C230.169 27.7842 230.83 23.4823 230.549 20.3763C230.364 18.3395 230.278 18.2144 229.942 19.4874ZM244.371 23.9321C244.384 24.584 244.747 26.1841 245.177 27.4879L245.958 29.8584L245.999 27.7842C246.022 26.6434 245.659 25.0433 245.193 24.2284C244.451 22.93 244.349 22.8932 244.371 23.9321ZM238.766 38.077C238.521 39.0115 238.46 39.9165 238.632 40.0877C239.109 40.5648 239.692 38.6565 239.438 37.4488C239.272 36.6588 239.095 36.8241 238.766 38.077ZM193.338 51.1207C193.338 52.3996 194.707 53.2263 197.772 53.7994C199.327 54.0898 200.821 54.6865 201.092 55.1257C201.755 56.1977 203.117 54.8946 202.638 53.6465C201.823 51.5237 193.338 49.219 193.338 51.1207ZM217.784 53.0533C216.082 53.6648 215.265 54.3067 215.265 55.0309C215.265 56.3323 216.655 56.9747 217.544 56.0851C217.9 55.7296 219.999 55.2839 222.209 55.0943C225.719 54.7926 226.229 54.5982 226.229 53.5635C226.229 52.5519 225.796 52.3617 223.266 52.2633C221.636 52.1999 219.169 52.5555 217.784 53.0533ZM196.308 57.9958C194.848 60.7248 197.571 63.8954 200.7 63.1102C201.97 62.7913 202.228 62.3836 202.228 60.6976C202.228 57.3605 197.743 55.3141 196.308 57.9958ZM219.008 58.605C218.296 58.8918 217.402 59.7085 217.021 60.419C216.451 61.4846 216.533 61.9853 217.486 63.2678C219.152 65.5097 221.869 65.6555 223.493 63.5908C225.055 61.6061 225.069 60.7005 223.562 59.1935C222.295 57.9264 221.081 57.7694 219.008 58.605ZM210.524 66.3234C210.524 67.396 210.893 68.2613 211.439 68.4711C212.694 68.9529 212.797 68.6779 212.196 66.4532C211.541 64.027 210.524 63.9487 210.524 66.3234ZM211.265 77.396C208.279 77.6769 207.96 78.5588 210.673 79.0335C212.828 79.4104 215.751 78.7662 215.995 77.8613C216.177 77.1845 214.875 77.0571 211.265 77.396ZM261.816 98.9624C281.631 104.643 292.66 110.904 296.917 118.893C299.684 124.084 300.238 128.914 299.754 143.643C299.314 157.022 298.024 175.163 297.472 175.714C297.126 176.061 295.872 172.139 295.866 170.691C295.865 170.248 294.646 167.048 293.158 163.58C289.534 155.13 287.753 150.775 283.188 139.198C278.592 127.543 275.335 120.737 271.806 115.418C268.647 110.656 259.267 101.551 254.896 99.0033C251.819 97.21 251.774 97.1472 253.553 97.1347C254.566 97.1276 258.284 97.9502 261.816 98.9624ZM245.729 148.977C246.127 153.437 249.802 164.445 251.496 166.249C252.916 167.761 252.906 168.222 251.149 181.275C249.667 192.284 249.209 199.048 249.907 199.598C250.248 199.867 251.863 200.421 253.495 200.83C255.99 201.456 257.598 201.414 263.57 200.566C267.478 200.01 271.276 199.414 272.01 199.24C273.674 198.847 273.725 197.338 272.16 194.771C270.736 192.436 270.627 189.144 271.912 187.308C273.864 184.522 278.268 182.469 285.569 180.941C288.513 180.325 289.745 180.298 290.895 180.822C292.907 181.738 293.91 180.35 292.425 178.703C290.516 176.584 282.392 177.985 274.561 181.784C270.23 183.884 265.296 188.416 265.828 189.804C266.088 190.48 266.603 190.719 267.314 190.493C268.564 190.097 270.718 192.1 270.107 193.09C269.536 194.013 267.286 193.859 265.763 192.792C265.034 192.282 263.914 190.838 263.274 189.584C261.908 186.905 254.971 169.71 254.971 169.001C254.971 168.734 254.435 167.514 253.779 166.29C253.122 165.066 251.228 160.27 249.567 155.632C245.84 145.216 245.313 144.303 245.729 148.977ZM160.79 150.162C155.838 160.858 155.329 162.691 154.415 173.141C154.221 175.349 153.841 177.294 153.569 177.462C153.297 177.63 152.283 177.358 151.316 176.858C149.744 176.046 149.593 175.727 149.894 173.871C150.326 171.206 149.261 171.123 147.946 173.719C147.41 174.778 146.56 176.113 146.058 176.686C145.556 177.258 145.255 177.807 145.388 177.906C146.1 178.431 154.499 179.459 154.885 179.069C155.136 178.815 155.606 176.956 155.93 174.936C156.254 172.917 156.803 170.734 157.15 170.086C157.497 169.438 157.78 168.391 157.78 167.76C157.78 167.129 158.6 163.844 159.602 160.461C162.671 150.101 163.189 148.015 162.945 146.995C162.805 146.408 161.938 147.681 160.79 150.162ZM139.414 174.714C137.049 175.337 136.337 177.398 136.689 182.602C137.063 188.111 139.162 195.498 140.355 195.498C141.44 195.498 141.432 192.997 140.335 189.235C139.219 185.407 138.147 177.423 138.593 176.262C139.034 175.111 139.609 175.115 141.875 176.287C143.153 176.947 143.616 177.007 143.442 176.486C143.019 175.214 140.958 174.308 139.414 174.714ZM151.262 174.46C151.262 174.623 151.395 174.756 151.558 174.756C151.721 174.756 151.854 174.623 151.854 174.46C151.854 174.297 151.721 174.163 151.558 174.163C151.395 174.163 151.262 174.297 151.262 174.46ZM256.756 182.164C260.728 192.422 262.717 194.966 267.331 195.693C269.273 195.999 270.508 196.618 269.442 196.751C269.143 196.788 268.232 196.903 267.417 197.006C257.811 198.223 256.521 198.302 254.651 197.786C252.727 197.254 252.602 197.068 252.606 194.729C252.611 192.117 253.556 182.972 254.169 179.601C254.605 177.206 254.981 177.579 256.756 182.164ZM150.373 182.931C151.51 184.168 164.598 193.603 164.845 193.364C165.363 192.863 162.104 190.008 157.115 186.591C152.126 183.174 149.072 181.516 150.373 182.931ZM297.632 185.31C297.626 186.187 297.389 187.273 297.104 187.724C296.374 188.875 295.634 186.416 296.123 184.467C296.589 182.612 297.644 183.201 297.632 185.31ZM194.82 188.352C191.996 189.366 187.412 191.802 187.412 192.288C187.412 192.575 192.283 190.666 195.931 188.952C198.473 187.757 199.303 187.14 198.227 187.244C197.983 187.268 196.449 187.767 194.82 188.352ZM242.23 198.774C240.926 199.204 238.739 199.576 237.37 199.601C234.046 199.662 228.896 200.796 228.896 201.467C228.896 202.279 241.197 201.457 244.478 200.426C246.808 199.694 247.195 199.384 246.628 198.701C245.818 197.726 245.39 197.733 242.23 198.774ZM118.898 200.98C119.507 204.219 122.476 209.793 126.031 214.374C127.891 216.769 129.272 218.87 129.1 219.042C128.929 219.214 126.711 219.039 124.172 218.654C121.633 218.268 116.089 217.699 111.852 217.389C99.7142 216.501 94.7669 215.903 93.3713 215.155C92.659 214.774 91.0369 214.462 89.7663 214.462C86.9863 214.462 80.6476 213.293 79.9264 212.647C79.2786 212.068 82.6631 211.647 91.5134 211.207C103.057 210.633 108.544 208.551 114.473 202.492C116.291 200.635 117.948 199.102 118.157 199.085C118.365 199.067 118.698 199.92 118.898 200.98ZM249.307 204.11C249.939 204.588 250.74 204.972 251.084 204.961C251.43 204.951 251.194 204.551 250.562 204.072C249.929 203.594 249.129 203.21 248.784 203.221C248.438 203.231 248.674 203.631 249.307 204.11ZM256.749 207.538C255.322 208.273 255.275 208.482 255.456 213.273C255.559 216.008 255.902 218.727 256.218 219.317C256.921 220.63 258.604 220.685 260.949 219.473L262.72 218.557L262.318 213.991C262.097 211.479 261.693 208.825 261.421 208.091C260.857 206.569 259.047 206.355 256.749 207.538ZM214.818 210.931C212.453 211.889 206.108 213.886 200.716 215.368C195.324 216.85 190.018 218.49 188.924 219.012C186.799 220.025 185.447 222.173 186.01 223.641C186.506 224.935 186.991 224.749 188.072 222.848C189.096 221.048 188.358 221.308 203.413 217.444C207.487 216.398 213.058 214.499 215.792 213.224C219.629 211.435 221.488 210.906 223.94 210.906C227.02 210.906 228.098 210.224 226.18 209.488C223.923 208.622 218.966 209.251 214.818 210.931ZM147.346 211.251C147.544 211.767 147.706 212.293 147.706 212.421C147.706 212.962 151.22 214.416 151.486 213.985C151.769 213.529 148.171 210.314 147.378 210.314C147.162 210.314 147.148 210.736 147.346 211.251ZM259.294 214.018C259.444 215.566 259.333 216.833 259.047 216.833C258.761 216.833 258.549 215.299 258.574 213.425C258.626 209.604 258.888 209.819 259.294 214.018ZM250.823 215.902C250.823 218.076 251.196 219.947 251.85 221.054C252.869 222.779 252.864 222.801 251.109 224.236C249.791 225.312 249.598 225.685 250.351 225.701C251.769 225.731 254.379 224.465 254.379 223.747C254.379 223.418 253.945 222.669 253.415 222.084C252.858 221.468 252.284 219.396 252.053 217.169C251.542 212.225 250.823 211.485 250.823 215.902ZM89.0356 220.593C86.8477 221.705 86.031 222.621 84.4872 225.692C82.09 230.462 81.4749 234.472 82.787 236.778C83.5088 238.048 83.6587 238.14 83.3938 237.15C82.2032 232.702 86.6201 223.507 90.9718 221.375C92.1926 220.777 93.0406 220.043 92.8563 219.745C92.387 218.986 92.0491 219.06 89.0356 220.593ZM147.113 220.325C147.113 220.95 148.582 221.581 149.977 221.555C150.83 221.539 150.807 221.417 149.815 220.666C148.531 219.694 147.113 219.515 147.113 220.325ZM154.464 223.259C155.107 224.3 158.858 226.041 162.225 226.862C165.689 227.706 167.561 229.259 168.482 232.049C169.035 233.725 169.792 234.354 173.092 235.883C175.264 236.888 178.119 238.051 179.438 238.466C180.756 238.882 182.859 239.918 184.113 240.769C186.007 242.054 187.061 242.316 190.35 242.316C192.527 242.316 195.746 242.742 197.503 243.264C201.033 244.313 204.871 244.069 208.459 242.57C211.074 241.478 212.151 241.777 216.711 244.868C220.284 247.289 224.921 249.143 231.825 250.912C233.925 251.449 236.823 252.29 238.265 252.78C239.727 253.276 241.564 253.499 242.42 253.285L243.952 252.9L242.202 251.802C241.24 251.198 236.271 249.496 231.16 248.021C224.289 246.037 221.124 244.808 219.011 243.305C217.44 242.187 215.075 240.729 213.756 240.065L211.358 238.859L206.129 240.212C202.026 241.274 200.437 241.444 198.749 240.998C195.702 240.195 189.261 239.445 188.072 239.756C187.52 239.9 186.592 239.49 186.008 238.846C185.158 237.906 185.078 237.428 185.607 236.438C186.349 235.053 187.492 234.874 189.118 235.889C189.979 236.427 191.333 236.302 195.408 235.306C200.897 233.964 207.752 231.102 206.555 230.652C206.164 230.505 203.08 231.077 199.7 231.923C193.368 233.509 184.122 234.335 183.525 233.369C182.884 232.332 183.946 230.447 185.674 229.553C186.628 229.06 190.276 228.274 193.781 227.807C197.286 227.339 201.42 226.52 202.968 225.987C208.006 224.253 205.709 222.409 200.446 223.963C199.307 224.299 195.649 224.94 192.316 225.387C185.726 226.27 182.325 227.791 181.741 230.117C181.557 230.852 181.957 233.021 182.631 234.937C183.305 236.854 183.856 238.498 183.856 238.591C183.856 239.451 181.148 238.165 176.789 235.234C172.629 232.436 171.284 231.168 170.278 229.09C168.237 224.875 166.458 223.828 162.98 224.799C161.512 225.209 159.368 224.72 155.165 223.017C154.36 222.691 154.157 222.762 154.464 223.259ZM90.3649 224.685C88.5052 227.007 87.0652 231.019 87.0154 234.019C86.9342 238.917 88.0193 238.392 89.1388 232.992C89.6846 230.36 90.5516 227.394 91.0648 226.401C91.5786 225.408 91.9988 224.449 91.9988 224.27C91.9988 223.672 90.9664 223.935 90.3649 224.685ZM243.242 226.92C240.28 227.351 229.596 231.953 230.185 232.543C230.337 232.694 232.308 232.275 234.567 231.61C238.278 230.52 240.904 229.838 244.731 228.97C245.919 228.701 247.955 226.212 246.844 226.389C246.588 226.429 244.967 226.668 243.242 226.92ZM204.005 236.736C202.065 237.531 202.045 237.563 203.709 237.241C204.687 237.052 205.741 236.65 206.05 236.347C206.76 235.653 206.556 235.692 204.005 236.736ZM258.173 239.445C257.219 240.989 257.892 252.255 259.388 259.798C260.229 264.035 261.179 269.902 261.499 272.836C261.82 275.769 262.191 279.103 262.325 280.244C262.459 281.385 262.489 278.718 262.392 274.317C262.252 267.99 261.874 264.954 260.585 259.798C259.285 254.601 258.941 251.808 258.889 246.021C258.853 242.029 258.773 238.762 258.71 238.761C258.648 238.76 258.406 239.069 258.173 239.445ZM250.468 249.575C250.695 253.894 251.178 258.604 251.54 260.042C252.146 262.454 252.094 262.741 250.859 263.74C250.123 264.336 247.787 265.359 245.668 266.014C241.995 267.148 240.349 267.146 241.052 266.008C241.231 265.72 241.851 263.551 242.432 261.188C243.412 257.203 243.623 256.856 245.351 256.409C248.402 255.618 249.045 254.071 249.045 247.517C249.045 244.331 249.272 241.723 249.549 241.723C249.826 241.723 250.239 245.256 250.468 249.575ZM83.702 257.342C83.702 257.844 88.4602 264.835 88.8015 264.835C89.3657 264.835 86.1146 259.128 84.9512 258.077C84.2644 257.455 83.702 257.125 83.702 257.342ZM112.444 280.56C108.859 280.974 104.992 281.604 103.851 281.96C101.845 282.586 101.864 282.595 104.444 282.217C105.911 282.003 112.044 281.77 118.074 281.699C127.555 281.587 134.075 280.864 134.075 279.924C134.075 279.377 118.794 279.826 112.444 280.56ZM138.965 280.059C139.535 280.209 140.468 280.209 141.039 280.059C141.609 279.911 141.142 279.789 140.002 279.789C138.861 279.789 138.394 279.911 138.965 280.059ZM97.9251 283.207C97.9251 283.533 98.2077 283.8 98.5527 283.8C98.8976 283.8 99.0155 283.533 98.814 283.207C98.6125 282.881 98.3304 282.614 98.1864 282.614C98.0424 282.614 97.9251 282.881 97.9251 283.207ZM100.296 282.911C100.296 283.074 100.429 283.207 100.592 283.207C100.755 283.207 100.888 283.074 100.888 282.911C100.888 282.748 100.755 282.614 100.592 282.614C100.429 282.614 100.296 282.748 100.296 282.911ZM101.131 291.207C101.275 291.859 101.58 293.326 101.809 294.467C102.037 295.608 102.581 297.054 103.018 297.681C103.735 298.712 103.846 298.726 104.19 297.829C104.4 297.284 104.396 296.504 104.182 296.097C102.094 292.116 100.915 290.227 101.131 291.207ZM103.893 300.689C103.893 301.341 104.274 302.541 104.74 303.356C105.488 304.665 105.587 304.7 105.587 303.653C105.587 303.001 105.206 301.801 104.74 300.986C103.992 299.677 103.893 299.642 103.893 300.689ZM247.415 311.066C245.057 312.16 243.712 313.139 243.712 313.764C243.712 314.536 244.058 314.659 245.341 314.343C248.379 313.594 253.827 310.884 253.611 310.23C253.223 309.047 251.169 309.325 247.415 311.066ZM107.228 312.394C106.296 313.085 106.315 313.542 107.524 319.256C108.557 324.139 108.676 325.606 108.113 326.508C107.315 327.784 107.242 330.702 107.797 339.08C108.145 344.336 108.331 345.027 109.79 346.488C111.449 348.151 112.455 352.274 111.556 353.73C111.014 354.607 109.778 354.008 109.778 352.869C109.778 350.943 106.75 351.25 97.6637 354.096C95.0372 354.919 92.0989 355.895 91.1353 356.266C89.2253 356.999 84.8872 361.038 84.8872 362.083C84.8872 362.441 83.9538 364.7 82.813 367.103C81.6722 369.508 79.5068 374.482 78.0003 378.158C73.8069 388.394 71.6942 393.534 67.6987 403.214C65.6814 408.103 63.8851 412.738 63.7079 413.515C63.174 415.847 64.8695 414.731 66.3552 411.772C67.573 409.346 75.4277 390.925 77.5861 385.435C78.0981 384.131 78.875 382.265 79.3112 381.287C81.7042 375.929 84.2431 369.536 84.5708 368.045C84.7764 367.108 85.7317 365.588 86.6942 364.665C87.7781 363.627 88.443 362.387 88.443 361.404C88.443 360.081 88.8656 359.655 90.9812 358.848C92.3775 358.314 93.7518 357.878 94.0356 357.878C94.3189 357.878 95.9812 357.201 97.7295 356.375C99.4771 355.548 102.414 354.593 104.254 354.252C108.464 353.474 109.96 354.171 110.914 357.357C111.297 358.635 112.132 360.006 112.768 360.403C113.604 360.925 113.926 361.788 113.927 363.503C113.929 369.852 118.937 384.669 123.432 391.623C126.421 396.248 127.556 399.753 127.556 404.357C127.556 407.658 127.353 408.344 125.913 409.885C124.209 411.709 120.323 413.112 114.864 413.874C110.189 414.526 107.599 416.695 104.727 422.362C103.188 425.4 103.078 426.578 104.411 425.754C104.763 425.537 105.945 423.977 107.037 422.287C110.111 417.534 111.509 416.52 115.796 415.931C117.864 415.647 121.858 414.888 124.672 414.245C127.485 413.601 132.418 412.919 135.635 412.728C145.398 412.149 157.543 410.84 158.428 410.27C159.294 409.712 150.264 408.749 149.283 409.294C148.754 409.589 145.403 409.63 138.224 409.43L133.779 409.306L137.039 408.494C138.831 408.047 142.687 407.259 145.607 406.741C148.527 406.225 151.318 405.576 151.811 405.301C153.142 404.556 143.343 405.231 138.52 406.218C136.238 406.683 133.371 407.066 132.148 407.066L129.925 407.066L130.131 402.621C130.245 400.177 130.142 398.177 129.903 398.177C129.663 398.177 129.29 397.236 129.074 396.086C128.858 394.936 128.429 394.152 128.119 394.343C127.81 394.534 127.556 394.275 127.556 393.767C127.556 393.259 127.221 392.843 126.812 392.843C124.096 392.843 116.297 370.975 116.297 363.36C116.297 361.335 115.949 360.251 114.963 359.201C113.751 357.911 113.648 357.31 113.833 352.607C114.023 347.773 113.937 347.314 112.521 345.633C111.162 344.016 110.943 343.042 110.383 336.111C109.676 327.351 109.867 326.214 111.956 326.738C112.739 326.935 119.115 326.913 126.124 326.689C137.329 326.331 138.845 326.168 138.68 325.338C138.516 324.508 136.861 324.395 124.923 324.395H111.353L110.845 322.617C110.566 321.639 110.096 319.639 109.803 318.172C109.508 316.705 109.102 315.078 108.901 314.558C108.499 313.52 107.993 313.477 118.667 315.397C121.438 315.896 126.685 316.744 130.326 317.281C136.513 318.193 137.049 318.192 138.468 317.263C139.837 316.366 140.682 316.338 147.052 316.981C154.295 317.711 156.595 317.503 156.595 316.117C156.595 315.228 152.833 314.245 147.41 313.717C145.454 313.526 142.854 313.227 141.631 313.052C139.707 312.777 139.409 312.891 139.409 313.902C139.409 314.545 138.921 315.198 138.324 315.355C137.156 315.66 124.694 314.118 116 312.592C109.554 311.462 108.516 311.438 107.228 312.394ZM199.416 316.369C197.126 316.925 195.709 317.997 195.709 319.173C195.709 319.763 195.336 319.911 194.51 319.649C193.84 319.437 191.556 319.869 189.325 320.631C185.808 321.832 184.289 321.984 176.448 321.919C171.559 321.878 165.692 321.526 163.41 321.137C161.129 320.748 158.447 320.298 157.451 320.138C156.272 319.949 155.384 320.157 154.904 320.734C153.952 321.882 154.362 322.103 159.641 323.29C165.667 324.646 185.741 324.623 190.079 323.255C192.926 322.358 193.074 322.367 193.855 323.506C194.636 324.644 196.894 325.182 196.894 324.23C196.894 323.977 196.471 323.165 195.953 322.427C195.251 321.423 195.179 320.884 195.672 320.291C196.452 319.351 203.764 318.172 208.814 318.172C211.899 318.172 212.362 318.03 212.191 317.135C212.021 316.248 211.222 316.084 206.666 316C203.736 315.946 200.473 316.112 199.416 316.369ZM238.314 316.062C237.766 316.61 226.538 318.139 220.361 318.507C214.619 318.848 213.742 319.048 212.485 320.305C211.316 321.475 211.184 321.931 211.724 322.94C212.362 324.132 212.677 324.152 225.822 323.81C233.217 323.617 240.698 323.314 242.447 323.135L245.628 322.81L245.286 320.702C244.822 317.845 242.804 315.801 240.447 315.801C239.418 315.801 238.458 315.919 238.314 316.062ZM170.657 318.007C171.709 318.138 173.576 318.14 174.806 318.012C176.035 317.883 175.174 317.777 172.893 317.774C170.611 317.771 169.605 317.876 170.657 318.007ZM242.405 319.696C242.577 320.892 242.2 320.944 228.282 321.692C218.001 322.245 213.802 322.279 213.34 321.817C212.386 320.863 213.386 320.689 222.377 320.246C226.777 320.029 232.378 319.497 234.822 319.063C240.686 318.023 242.184 318.148 242.405 319.696ZM137.039 320.761C137.039 323.125 137.756 323.894 138.794 322.643C139.775 321.462 139.327 319.114 138.076 318.875C137.247 318.717 137.039 319.096 137.039 320.761ZM202.079 322.713C202.487 322.877 203.154 322.877 203.561 322.713C203.969 322.549 203.635 322.414 202.82 322.414C202.005 322.414 201.672 322.549 202.079 322.713ZM152.151 324.723C151.499 324.986 148.665 325.219 145.852 325.242C142.274 325.271 140.536 325.529 140.062 326.1C139.076 327.288 140.407 327.455 147.833 327.074C154.26 326.744 156.599 325.946 154.436 324.82C153.829 324.504 152.804 324.461 152.151 324.723ZM179.115 327.984C179.115 329.882 195.958 336.28 196.909 334.742C197.431 333.897 197.001 332.259 196.36 332.655C195.857 332.966 190.966 331.344 185.041 328.899C179.996 326.818 179.115 326.682 179.115 327.984ZM195.709 328.791C195.709 329.416 195.879 330.372 196.087 330.915C196.39 331.702 196.567 331.742 196.967 331.111C197.798 329.801 197.568 327.654 196.598 327.654C196.109 327.654 195.709 328.165 195.709 328.791ZM149.586 344.692C148.462 345.653 148.304 346.956 147.444 362.323C146.934 371.449 146.517 381.075 146.518 383.714C146.52 387.611 146.317 388.695 145.437 389.492C143.996 390.796 140.435 390.763 139.295 389.435C137.819 387.717 137.745 386.846 138.573 380.985C139.622 373.554 139.702 347.909 138.682 345.671L137.955 344.075L126.385 344.486C120.022 344.713 114.551 345.163 114.228 345.487C112.835 346.879 115.702 347.199 126.198 346.824L136.987 346.437L137.161 364.158C137.292 377.511 137.152 382.203 136.594 383.192C135.711 384.757 135.629 386.708 136.426 387.201C136.742 387.396 136.849 388.308 136.665 389.229C136.184 391.635 138.833 393.436 142.852 393.436C145.348 393.436 146.192 393.121 148.199 391.445C150.334 389.661 150.488 389.36 149.678 388.551C148.876 387.748 148.532 386.013 148.181 380.991C148.124 380.176 148.421 376.042 148.839 371.805C149.258 367.568 149.778 360.31 149.995 355.677C150.219 350.89 150.67 346.973 151.04 346.603C151.48 346.162 155.311 346.012 162.884 346.137L174.078 346.322L178.819 348.664C181.426 349.953 186.465 352.22 190.016 353.702C193.568 355.184 196.676 356.797 196.924 357.285C197.172 357.774 197.631 360.522 197.943 363.392C198.402 367.601 198.341 369.089 197.629 371.096C197.104 372.576 196.748 375.681 196.748 378.768C196.749 381.621 196.699 383.954 196.637 383.954C196.575 383.954 191.34 384.494 185.004 385.155C178.669 385.816 170.586 386.605 167.043 386.907C159.216 387.576 155.472 388.115 155.162 388.615C154.907 389.027 156.437 388.974 170.522 388.091C179.021 387.557 187.103 386.57 194.375 385.173L196.894 384.69L196.943 387.137C196.97 388.483 197.106 390.25 197.244 391.065C197.383 391.88 197.624 396.414 197.781 401.14C197.938 405.866 198.362 411.545 198.723 413.759C199.084 415.973 199.216 418.44 199.015 419.241C198.688 420.541 198.318 420.705 195.549 420.772C193.844 420.814 191.783 420.94 190.968 421.052C190.153 421.163 188.419 421.286 187.116 421.324C182.487 421.458 167.905 423.65 150.076 426.891C127.997 430.905 118.13 433.067 107.922 436.129C97.4918 439.256 97.2287 439.231 100.411 435.418C104.732 430.241 105.496 429.586 107.232 429.58C108.143 429.577 114.875 429.044 122.191 428.397C136.998 427.086 149.001 425.314 153.039 423.843C156.243 422.675 157.644 421.612 155.174 422.223C153.842 422.552 153.563 422.474 153.933 421.875C154.297 421.285 154.072 421.203 152.984 421.526C150.809 422.173 132.079 424.578 120.445 425.704C114.741 426.257 108.36 427.09 106.266 427.557C102.674 428.357 102.228 428.654 98.4436 432.761C94.8416 436.67 94.054 437.223 90.7643 438.145C88.5615 438.763 84.7059 439.212 81.1039 439.269C74.4013 439.376 70.4479 438.311 67.5529 435.62C64.9453 433.196 65.3572 431.503 69.8369 426.232C74.262 421.024 73.9533 419.562 69.3728 424.035C66.0381 427.292 64.1441 430.531 64.1476 432.97C64.1506 435.261 66.0962 438.228 68.3642 439.401C75.6914 443.19 83.6967 443.981 95.225 442.056C99.444 441.35 103.062 440.671 103.265 440.546C103.712 440.269 111.273 438.201 117.778 436.576C125.074 434.753 134.298 433.072 159.855 428.908C168.003 427.581 175.87 426.257 177.337 425.966C178.804 425.676 180.671 425.319 181.486 425.172C182.3 425.026 184.434 424.603 186.227 424.232C188.019 423.861 190.353 423.554 191.411 423.55C192.469 423.546 193.202 423.327 193.04 423.064C192.552 422.274 198.439 421.716 199.766 422.426C200.425 422.779 201.081 423.067 201.224 423.067C202.096 423.067 202.148 416.633 201.359 406.252C200.861 399.692 200.165 390.557 199.813 385.953C199.433 380.99 199.342 373.391 199.589 367.285C199.976 357.728 199.926 356.896 198.894 355.695C198.283 354.984 193.783 352.677 188.893 350.569C184.004 348.46 178.537 346.044 176.745 345.201C173.595 343.718 173.105 343.666 162.143 343.661C152.193 343.656 150.651 343.782 149.586 344.692ZM80.6375 349.881C80.2179 350.3 82.3289 357.927 83.0703 358.669C84.265 359.863 84.4363 356.082 83.3257 353.018C82.2915 350.165 81.3967 349.121 80.6375 349.881ZM105.952 359.613C105.536 360.286 107.752 361.065 108.597 360.542C108.931 360.336 109.051 359.918 108.863 359.615C108.422 358.902 106.393 358.9 105.952 359.613ZM130.52 374.768C130.52 374.931 130.653 375.064 130.816 375.064C130.979 375.064 131.112 374.931 131.112 374.768C131.112 374.605 130.979 374.472 130.816 374.472C130.653 374.472 130.52 374.605 130.52 374.768ZM150.076 381.879C149.651 382.392 149.593 382.768 149.941 382.768C150.271 382.768 150.696 382.368 150.883 381.879C151.071 381.391 151.132 380.991 151.019 380.991C150.907 380.991 150.482 381.391 150.076 381.879ZM150.076 383.657C150.076 383.82 150.21 383.954 150.373 383.954C150.536 383.954 150.669 383.82 150.669 383.657C150.669 383.494 150.536 383.361 150.373 383.361C150.21 383.361 150.076 383.494 150.076 383.657ZM75.9978 397.288C75.9978 397.451 76.1312 397.584 76.2941 397.584C76.4571 397.584 76.5904 397.451 76.5904 397.288C76.5904 397.125 76.4571 396.992 76.2941 396.992C76.1312 396.992 75.9978 397.125 75.9978 397.288ZM155.015 404.498C155.232 404.715 155.588 404.715 155.805 404.498C156.022 404.281 155.844 404.103 155.41 404.103C154.976 404.103 154.798 404.281 155.015 404.498ZM74.2199 409.14C74.2199 409.303 74.3533 409.437 74.5163 409.437C74.6792 409.437 74.8126 409.303 74.8126 409.14C74.8126 408.977 74.6792 408.844 74.5163 408.844C74.3533 408.844 74.2199 408.977 74.2199 409.14ZM161.04 410.029C161.241 410.355 161.524 410.622 161.668 410.622C161.812 410.622 161.929 410.355 161.929 410.029C161.929 409.703 161.646 409.437 161.301 409.437C160.956 409.437 160.838 409.703 161.04 410.029ZM164.596 410.029C164.797 410.355 165.095 410.622 165.258 410.622C165.421 410.622 165.39 410.355 165.188 410.029C164.987 409.703 164.689 409.437 164.526 409.437C164.363 409.437 164.394 409.703 164.596 410.029ZM126.371 418.622C126.371 418.785 126.505 418.919 126.668 418.919C126.83 418.919 126.964 418.785 126.964 418.622C126.964 418.459 126.83 418.326 126.668 418.326C126.505 418.326 126.371 418.459 126.371 418.622ZM156.595 420.993C156.595 421.156 156.729 421.289 156.892 421.289C157.055 421.289 157.188 421.156 157.188 420.993C157.188 420.83 157.055 420.697 156.892 420.697C156.729 420.697 156.595 420.83 156.595 420.993ZM266.083 424.645C266.491 424.809 267.158 424.809 267.565 424.645C267.973 424.481 267.639 424.346 266.824 424.346C266.009 424.346 265.676 424.481 266.083 424.645ZM201.661 427.66C201.675 428.883 201.918 431.874 202.199 434.307C203.013 441.337 204.673 441.917 217.043 439.488C224.784 437.969 240.941 435.036 243.712 434.649C245.178 434.444 249.312 433.763 252.897 433.138C263.737 431.246 274.035 429.612 277.656 429.208C281 428.835 282.228 428.241 281.098 427.543C280.789 427.352 280.385 427.442 280.198 427.743C279.71 428.534 277.373 427.787 277.696 426.943C277.905 426.399 277.299 426.407 275.105 426.977C273.531 427.385 271.717 427.582 271.075 427.414C270.434 427.246 269.326 427.421 268.614 427.802C267.54 428.376 267.17 428.31 266.442 427.41C265.92 426.766 265.453 426.585 265.291 426.962C265.14 427.312 264.208 427.48 263.219 427.335C261.919 427.144 261.514 426.824 261.76 426.183C262.026 425.489 261.807 425.388 260.759 425.723C260.02 425.958 257.816 426.376 255.86 426.652C253.905 426.928 251.905 427.259 251.416 427.388C250.927 427.517 249.86 427.792 249.045 428C247.72 428.337 233.15 431.437 219.343 434.321C213.73 435.493 212.511 436.006 210.975 437.838C209.628 439.444 207.401 439.401 205.571 437.735C204.388 436.658 204.039 435.637 203.758 432.435C203.243 426.577 201.605 422.846 201.661 427.66ZM288.64 426.435C289.068 426.606 289.579 426.585 289.776 426.388C289.973 426.191 289.623 426.052 288.998 426.077C288.308 426.106 288.168 426.246 288.64 426.435ZM261.33 428.166C261.133 428.363 260.622 428.384 260.194 428.213C259.721 428.024 259.862 427.883 260.552 427.855C261.177 427.829 261.527 427.969 261.33 428.166ZM283.307 428.213C283.734 428.384 284.246 428.363 284.442 428.166C284.639 427.969 284.289 427.829 283.665 427.855C282.974 427.883 282.834 428.024 283.307 428.213ZM200.153 437.29C200.355 437.616 200.653 437.883 200.816 437.883C200.979 437.883 200.948 437.616 200.746 437.29C200.545 436.964 200.246 436.698 200.083 436.698C199.92 436.698 199.952 436.964 200.153 437.29Z" fill="#005380"/>
</svg>
