<svg width="134" height="111" viewBox="0 0 134 111" fill="none" xmlns="http://www.w3.org/2000/svg">
<path fill-rule="evenodd" clip-rule="evenodd" d="M48.9243 0.778198C35.9031 1.08569 23.5186 6.47434 14.418 15.7924C5.31743 25.1104 0.222656 37.6186 0.222656 50.6435C0.222656 63.6683 5.31743 76.1765 14.418 85.4946C23.5186 94.8126 35.9031 100.201 48.9243 100.509H51.1486V60.9724C51.1486 58.0253 53.4006 54.244 56.3756 54.244H98.6367C98.6367 52.6036 98.8035 51.4637 98.8035 50.574C98.7376 37.3732 93.4586 24.7331 84.1163 15.4065C74.7741 6.0798 62.1252 0.822037 48.9243 0.778198ZM88.7387 46.3757H75.8935C75.6492 36.0205 73.2438 25.8306 68.8315 16.4593C74.2344 19.5701 78.8434 23.89 82.2972 29.0804C85.751 34.2708 87.9558 40.1905 88.7387 46.3757ZM43.2246 13.5955V46.3757H31.8252C32.6871 30.7502 37.6083 18.4055 43.2246 13.5955ZM43.2246 54.9113V87.6636C37.6639 82.8537 32.6871 70.5646 31.8252 54.9113H43.2246ZM54.624 46.3757V13.5955C60.1846 18.4055 65.1892 30.7502 66.0233 46.3757H54.624ZM28.9893 16.4593C24.6527 25.8556 22.2601 36.0314 21.9551 46.3757H9.02651C9.80712 40.1829 12.017 34.2564 15.4815 29.0644C18.9461 23.8724 23.5704 19.557 28.9893 16.4593ZM9.05431 56.3293H21.9829C22.2213 66.6522 24.6075 76.8124 28.9893 86.1622C23.5888 83.0662 18.9785 78.7616 15.5199 73.5858C12.0613 68.4099 9.84832 62.5035 9.05431 56.3293Z" fill="#2196F3" fill-opacity="0.8"/>
<path fill-rule="evenodd" clip-rule="evenodd" d="M126.608 62.6962H66.0797C64.2363 62.6962 62.4683 63.4285 61.1648 64.732C59.8612 66.0356 59.1289 67.8035 59.1289 69.647V103.428C59.1289 105.272 59.8612 107.04 61.1648 108.343C62.4683 109.647 64.2363 110.379 66.0797 110.379H126.608C128.451 110.379 130.219 109.647 131.523 108.343C132.826 107.04 133.558 105.272 133.558 103.428V69.647C133.558 67.8035 132.826 66.0356 131.523 64.732C130.219 63.4285 128.451 62.6962 126.608 62.6962ZM74.2261 103.428C74.2557 102.362 74.0749 101.3 73.6941 100.304C73.3132 99.3075 72.7397 98.396 72.0064 97.6213C71.2731 96.8467 70.3944 96.2242 69.4204 95.7894C68.4464 95.3545 67.3962 95.1159 66.33 95.0871H66.1075V77.8212C68.2589 77.8736 70.3436 77.0726 71.9064 75.5932C73.4692 74.1137 74.3831 72.076 74.4485 69.925V69.7304H118.406C118.405 71.8571 119.243 73.8983 120.736 75.4125C122.229 76.9266 124.259 77.792 126.385 77.8212H126.608V95.1983C125.538 95.1724 124.473 95.3576 123.475 95.7433C122.477 96.1289 121.564 96.7075 120.79 97.446C120.015 98.1844 119.393 99.0683 118.961 100.047C118.528 101.026 118.292 102.08 118.267 103.15V103.4L74.2261 103.428Z" fill="#2196F3" fill-opacity="0.8"/>
<path d="M96.3297 97.6172C102.779 97.6172 108.007 92.3891 108.007 85.9398C108.007 79.4906 102.779 74.2625 96.3297 74.2625C89.8805 74.2625 84.6523 79.4906 84.6523 85.9398C84.6523 92.3891 89.8805 97.6172 96.3297 97.6172Z" fill="#2196F3" fill-opacity="0.8"/>
</svg>
