<svg width="30" height="30" viewBox="0 0 30 30" fill="none" xmlns="http://www.w3.org/2000/svg">
<path d="M7.54943 9.71504C4.47483 10.4107 2.93753 10.7585 2.57178 11.9347C2.20603 13.1108 3.25406 14.3364 5.35013 16.7874L5.8924 17.4215C6.48804 18.118 6.78585 18.4663 6.91983 18.8971C7.05381 19.328 7.00879 19.7926 6.91873 20.722L6.83675 21.568C6.51985 24.8383 6.3614 26.4734 7.31894 27.2003C8.27648 27.9271 9.71585 27.2644 12.5946 25.939L13.3394 25.596C14.1574 25.2194 14.5664 25.031 15 25.031C15.4336 25.031 15.8426 25.2194 16.6606 25.596L17.4054 25.939C20.2841 27.2644 21.7235 27.9271 22.6811 27.2003C23.6386 26.4734 23.4801 24.8383 23.1633 21.568M24.6499 16.7874C26.746 14.3364 27.794 13.1108 27.4283 11.9347C27.0625 10.7585 25.5251 10.4107 22.4506 9.71504L21.6551 9.53506C20.7814 9.33738 20.3446 9.23854 19.9939 8.97226C19.643 8.70599 19.4181 8.30241 18.9681 7.49529L18.5585 6.76046C16.9753 3.92015 16.1836 2.5 15 2.5C13.8164 2.5 13.0248 3.92016 11.4415 6.76048" stroke="#2196F3" stroke-width="2" stroke-linecap="round"/>
</svg>
