<svg width="30" height="30" viewBox="0 0 30 30" fill="none" xmlns="http://www.w3.org/2000/svg">
<path d="M26.25 18.2137C26.25 20.5812 23.1725 22.5 19.375 22.5C15.5775 22.5 12.5 20.5812 12.5 18.2137C12.5 15.8463 15.5775 13.9287 19.375 13.9287C23.1725 13.9287 26.25 15.8475 26.25 18.2137ZM19.375 24.8213C15.5775 24.8213 12.5 22.9025 12.5 20.5363V23.2137C12.5 25.5812 15.5775 27.5 19.375 27.5C23.1725 27.5 26.25 25.5812 26.25 23.2137V20.5363C26.25 22.9025 23.1725 24.8213 19.375 24.8213ZM10.625 11.0713C14.4225 11.0713 17.5 9.1525 17.5 6.78625C17.5 4.42 14.4225 2.5 10.625 2.5C6.8275 2.5 3.75 4.41875 3.75 6.78625C3.75 9.15375 6.8275 11.0713 10.625 11.0713ZM10.4688 16.0713C11.0627 14.8285 12.0113 13.7894 13.195 13.085C12.3544 13.2943 11.4912 13.3992 10.625 13.3975C6.8275 13.3925 3.75 11.4738 3.75 9.1075V11.785C3.75 14.125 6.75 16.0138 10.4688 16.0662V16.0713ZM10.625 27.5C11.0759 27.4997 11.5263 27.4717 11.9738 27.4163C11.1883 26.7092 10.5985 25.8115 10.2612 24.81C6.63375 24.6912 3.75 22.8263 3.75 20.5363V23.2137C3.75 25.5812 6.8275 27.5 10.625 27.5ZM10 21.945V19.25C6.5 19.05 3.75 17.2338 3.75 15V17.6787C3.75 19.9137 6.5 21.75 10 21.945Z" fill="#2E2E2E"/>
</svg>
