<svg width="178" height="178" viewBox="0 0 178 178" fill="none" xmlns="http://www.w3.org/2000/svg">
<g clip-path="url(#clip0_2684_25330)">
<path d="M177.886 22.5798C177.97 17.5394 176.145 12.8919 172.747 9.49371C170.903 7.65017 167.914 7.65017 166.07 9.49394C164.227 11.3377 164.227 14.3268 166.07 16.1703C167.643 17.7429 168.487 19.9629 168.446 22.4218C168.407 24.7677 167.519 27.0328 166.07 28.481C163.067 31.4847 133.125 57.7713 109.741 78.2244L104.01 72.4936C121.081 52.9613 142.266 28.8096 150.552 19.6391L152.437 21.5244C154.281 23.3682 157.27 23.3684 159.113 21.5249C160.957 19.6813 160.958 16.6922 159.114 14.8485L153.76 9.49418C152.875 8.60876 151.674 8.11117 150.422 8.11117H150.422C149.17 8.11117 147.969 8.60853 147.084 9.49371C144.211 12.3664 126.638 32.3255 110.781 50.42C106.517 43.9658 100.821 38.4134 94.0465 34.1513C84.1445 27.9218 72.6004 24.7632 59.7341 24.7632C56.9036 24.7632 54.1034 24.9417 51.4117 25.2941C48.8263 25.6326 47.0049 28.0025 47.3432 30.5879C47.6817 33.1732 50.0514 34.9945 52.6368 34.6562C54.9239 34.3569 57.3117 34.2052 59.7338 34.2052C79.3244 34.2052 95.7577 42.988 104.279 57.8445C96.3275 66.9312 89.4953 74.7576 86.2005 78.5339C80.3187 79.3353 75.9298 81.7423 72.8352 85.8698C69.958 89.7072 68.6968 94.2904 67.3617 99.1426C65.7519 104.993 64.0873 111.043 59.3401 115.79C57.9897 117.14 57.5858 119.171 58.3166 120.935C59.0474 122.699 60.7689 123.85 62.6783 123.85C75.3836 123.85 85.4537 121.141 92.609 115.801C99.0571 110.987 102.901 104.154 103.81 95.9477C115.974 85.3238 168.384 39.52 172.747 35.1574C175.932 31.9719 177.806 27.3874 177.886 22.5798ZM102.617 84.4533C101.198 85.6928 99.8226 86.8943 98.5003 88.0488L94.1898 83.7385C95.3434 82.4164 96.5446 81.04 97.7839 79.6209L102.617 84.4533ZM86.9611 108.234C83.2476 111.006 78.3056 112.853 72.2059 113.758C74.2815 109.585 75.4459 105.353 76.4654 101.647C78.6536 93.6953 79.9863 89.7042 85.3781 88.2799L94.0952 96.9967C93.1354 101.637 90.7473 105.408 86.9611 108.234Z" fill="#0282C9"/>
<path d="M36.6709 39.2012C37.3585 39.2012 38.057 39.0502 38.7177 38.7317C39.1414 38.5273 39.5766 38.3264 40.011 38.135C42.3962 37.082 43.4764 34.2947 42.4234 31.9094C41.3704 29.5244 38.5834 28.4443 36.1978 29.497C35.6674 29.7312 35.1356 29.9767 34.617 30.2267C32.2686 31.359 31.2826 34.1809 32.4147 36.5294C33.2286 38.2171 34.9147 39.2012 36.6709 39.2012Z" fill="#0282C9"/>
<path d="M70.7859 129.096C68.1811 129.07 66.0416 131.156 66.0121 133.763C65.8084 151.912 63.0685 160.009 47.3727 160.009C38.5738 160.009 29.3396 153.572 22.0381 142.349C13.9872 129.974 9.55327 113.907 9.55327 97.1074C9.55327 75.2982 16.139 57.1517 28.0975 46.0112C30.0052 44.234 30.111 41.2465 28.3338 39.3388C26.5566 37.431 23.5691 37.3253 21.6614 39.1025C14.6175 45.6649 9.16733 54.1914 5.46208 64.4454C1.91143 74.2711 0.111328 85.2604 0.111328 97.1074C0.111328 115.713 5.08794 133.609 14.1239 147.498C23.2002 161.45 35.3191 169.451 47.3727 169.451C58.9016 169.451 66.9369 165.394 71.2549 157.393C74.9623 150.523 75.366 141.648 75.4533 133.869C75.4826 131.262 73.3931 129.125 70.7859 129.096Z" fill="#0282C9"/>
<path d="M94.0154 59.1798C94.0154 50.5074 86.9596 43.4517 78.2872 43.4517C69.6146 43.4517 62.5586 50.5074 62.5586 59.1798C62.5586 67.8525 69.6146 74.9084 78.2872 74.9084C86.9596 74.9082 94.0154 67.8525 94.0154 59.1798ZM72.0005 59.1798C72.0005 55.7134 74.8206 52.8936 78.2872 52.8936C81.7536 52.8936 84.5734 55.7134 84.5734 59.1798C84.5734 62.6464 81.7536 65.4665 78.2872 65.4665C74.8206 65.4663 72.0005 62.6462 72.0005 59.1798Z" fill="#0282C9"/>
<path d="M40.8046 80.561C49.4772 80.561 56.5329 73.5053 56.5329 64.8329C56.5329 56.1602 49.4772 49.1045 40.8046 49.1045C32.1319 49.1045 25.0762 56.1602 25.0762 64.8329C25.0762 73.5053 32.1319 80.561 40.8046 80.561ZM40.8046 58.5464C44.2709 58.5464 47.091 61.3665 47.091 64.8329C47.091 68.2992 44.2709 71.1191 40.8046 71.1191C37.3382 71.1191 34.5181 68.2992 34.5181 64.8329C34.5181 61.3665 37.3384 58.5464 40.8046 58.5464Z" fill="#0282C9"/>
<path d="M44.4841 100.97C44.4841 92.2974 37.4284 85.2415 28.7557 85.2415C20.0831 85.2415 13.0273 92.2974 13.0273 100.97C13.0273 109.642 20.0831 116.698 28.7557 116.698C37.4284 116.698 44.4841 109.642 44.4841 100.97ZM28.7557 107.256C25.2894 107.256 22.4693 104.436 22.4693 100.97C22.4693 97.5035 25.2894 94.6834 28.7557 94.6834C32.2221 94.6834 35.0422 97.5035 35.0422 100.97C35.0422 104.436 32.2221 107.256 28.7557 107.256Z" fill="#0282C9"/>
<path d="M45.2828 153.5C53.9555 153.5 61.0115 146.444 61.0115 137.771C61.0115 129.099 53.9555 122.043 45.2828 122.043C36.6104 122.043 29.5547 129.099 29.5547 137.771C29.5547 146.444 36.6104 153.5 45.2828 153.5ZM45.2828 131.485C48.7494 131.485 51.5695 134.305 51.5695 137.771C51.5695 141.238 48.7494 144.058 45.2828 144.058C41.8167 144.058 38.9966 141.238 38.9966 137.771C38.9966 134.305 41.8167 131.485 45.2828 131.485Z" fill="#0282C9"/>
</g>
<defs>
<clipPath id="clip0_2684_25330">
<rect width="177.778" height="177.778" fill="white" transform="translate(0.111328 0.111084)"/>
</clipPath>
</defs>
</svg>
