<svg width="178" height="178" viewBox="0 0 178 178" fill="none" xmlns="http://www.w3.org/2000/svg">
<path d="M157.484 21.0038H20.2991C15.1516 21.0038 10.215 23.0465 6.57523 26.6824C2.93544 30.3183 0.890625 35.2497 0.890625 40.3917V136.729C0.890625 141.871 2.93544 146.802 6.57523 150.438C10.215 154.074 15.1516 156.117 20.2991 156.117H157.484C162.632 156.117 167.568 154.074 171.208 150.438C174.848 146.802 176.893 141.871 176.893 136.729V40.3917C176.893 35.2497 174.848 30.3183 171.208 26.6824C167.568 23.0465 162.632 21.0038 157.484 21.0038ZM20.2991 28.3496H157.484C160.682 28.3496 163.748 29.6183 166.009 31.8766C168.269 34.1349 169.539 37.1979 169.539 40.3917V49.062H8.24414V40.3917C8.24414 37.1979 9.51421 34.1349 11.775 31.8766C14.0357 29.6183 17.1019 28.3496 20.2991 28.3496ZM157.484 148.771H20.2991C17.1019 148.771 14.0357 147.502 11.775 145.244C9.51421 142.986 8.24414 139.923 8.24414 136.729V56.4077H169.539V136.729C169.539 138.31 169.228 139.876 168.622 141.337C168.016 142.798 167.128 144.126 166.009 145.244C164.889 146.362 163.56 147.249 162.098 147.854C160.635 148.459 159.067 148.771 157.484 148.771Z" fill="#2196F3" fill-opacity="0.8"/>
<path d="M18.7566 42.1584C19.3666 42.2122 19.9785 42.0795 20.5114 41.7777C21.0443 41.476 21.4729 41.0195 21.7406 40.4687C22.0082 39.9179 22.1022 39.2988 22.0102 38.6934C21.9181 38.088 21.6443 37.5249 21.225 37.0785C20.8058 36.6322 20.2608 36.3238 19.6623 36.1941C19.0638 36.0644 18.4401 36.1196 17.8736 36.3523C17.3072 36.5851 16.8249 36.9844 16.4905 37.4974C16.156 38.0104 15.9853 38.6128 16.001 39.225C16.0199 39.967 16.3113 40.6761 16.8195 41.2171C17.3277 41.7581 18.0172 42.0931 18.7566 42.1584Z" fill="#2196F3" fill-opacity="0.8"/>
<path d="M26.3135 42.1584C26.9185 42.1759 27.5148 42.0114 28.0252 41.6862C28.5356 41.361 28.9366 40.89 29.1763 40.3343C29.416 39.7786 29.4833 39.1637 29.3696 38.5693C29.2558 37.9748 28.9662 37.4283 28.5382 37.0003C28.1103 36.5724 27.5637 36.2828 26.9693 36.169C26.3749 36.0552 25.76 36.1225 25.2042 36.3622C24.6485 36.6019 24.1775 37.0029 23.8523 37.5133C23.5271 38.0237 23.3626 38.62 23.3802 39.225C23.4025 39.9959 23.7188 40.7291 24.2641 41.2744C24.8095 41.8198 25.5426 42.136 26.3135 42.1584Z" fill="#2196F3" fill-opacity="0.8"/>
<path d="M33.7823 42.1584C34.3873 42.1759 34.9835 42.0114 35.494 41.6862C36.0044 41.361 36.4054 40.89 36.6451 40.3343C36.8847 39.7786 36.9521 39.1637 36.8383 38.5693C36.7245 37.9748 36.4349 37.4283 36.007 37.0003C35.579 36.5724 35.0324 36.2828 34.438 36.169C33.8436 36.0552 33.2287 36.1225 32.673 36.3622C32.1173 36.6019 31.6463 37.0029 31.3211 37.5133C30.9959 38.0237 30.8314 38.62 30.8489 39.225C30.8713 39.9959 31.1875 40.7291 31.7329 41.2744C32.2782 41.8198 33.0114 42.136 33.7823 42.1584Z" fill="#2196F3" fill-opacity="0.8"/>
<path d="M97.7822 91.8494L94.3155 99.6717L90.7599 91.8494C90.7599 91.8494 90.7599 91.8494 90.1377 91.2272C89.5154 90.6049 90.1377 90.6938 89.4265 90.516C89.4265 90.516 88.8043 90.516 88.4487 90.516C88.105 90.3864 87.7258 90.3864 87.3821 90.516C87.3821 90.516 86.8487 91.0494 86.671 91.2272C86.4932 91.4049 86.1376 91.2272 85.9598 91.8494L82.4931 99.6717L79.0264 91.8494C78.9009 91.4667 78.6956 91.115 78.4241 90.8176C78.1525 90.5202 77.8209 90.2838 77.4512 90.1242C77.0814 89.9645 76.682 89.8852 76.2793 89.8915C75.8766 89.8977 75.4798 89.9894 75.1152 90.1605C74.7926 90.3044 74.5018 90.5111 74.2597 90.7684C74.0176 91.0257 73.829 91.3286 73.7049 91.6594C73.5809 91.9902 73.5238 92.3424 73.537 92.6955C73.5502 93.0485 73.6335 93.3955 73.7819 93.7161L80.0042 107.938C80.3018 108.456 80.7312 108.885 81.2487 109.183H82.3153H83.382C83.9322 108.898 84.3934 108.468 84.7154 107.938L88.1821 100.027L91.7377 107.938C92.0352 108.456 92.4646 108.885 92.9821 109.183C93.362 109.274 93.7579 109.274 94.1377 109.183H95.2044C95.7219 108.885 96.1513 108.456 96.4489 107.938L102.493 94.5161C102.763 93.8547 102.766 93.1142 102.501 92.4509C102.235 91.7875 101.723 91.2532 101.071 90.9605C100.505 90.7017 99.8668 90.6489 99.2662 90.8112C98.6656 90.9736 98.1406 91.3408 97.7822 91.8494Z" fill="#2196F3" fill-opacity="0.8"/>
<path d="M128.177 91.8492L124.71 99.6715L121.155 91.8492C121.155 91.8492 120.71 91.8492 120.532 91.227C120.355 90.6047 120.532 90.6936 119.821 90.5159C119.477 90.3862 119.098 90.3862 118.754 90.5159C118.754 90.5159 118.132 90.5159 117.777 90.5159C117.777 90.5159 117.332 90.9603 117.066 91.227C116.799 91.4936 116.532 91.227 116.443 91.8492L112.888 99.6715L109.421 91.8492C109.277 91.5265 109.07 91.2357 108.813 90.9936C108.556 90.7515 108.253 90.563 107.922 90.4389C107.591 90.3148 107.239 90.2578 106.886 90.271C106.533 90.2842 106.186 90.3674 105.865 90.5159C105.535 90.6514 105.235 90.852 104.984 91.1057C104.732 91.3594 104.534 91.661 104.402 91.9926C104.269 92.3242 104.204 92.6791 104.211 93.0362C104.219 93.3933 104.297 93.7454 104.443 94.0714L110.31 107.938C110.608 108.456 111.037 108.885 111.554 109.183H112.621C113.001 109.273 113.397 109.273 113.777 109.183C114.49 108.975 115.115 108.537 115.554 107.938L119.11 100.027L122.577 107.938C122.874 108.456 123.304 108.885 123.821 109.183C124.202 109.264 124.596 109.264 124.977 109.183H126.043C126.586 108.888 127.045 108.459 127.377 107.938L133.332 94.0714C133.478 93.7454 133.557 93.3933 133.564 93.0362C133.571 92.6791 133.507 92.3242 133.374 91.9926C133.241 91.661 133.043 91.3594 132.792 91.1057C132.541 90.852 132.241 90.6514 131.91 90.5159C131.581 90.3383 131.219 90.2319 130.846 90.2035C130.473 90.1751 130.099 90.2254 129.747 90.3512C129.395 90.4769 129.073 90.6752 128.802 90.9333C128.532 91.1914 128.319 91.5034 128.177 91.8492Z" fill="#2196F3" fill-opacity="0.8"/>
<path d="M67.2029 91.8494L63.7362 99.6718L60.2695 91.8494C60.0725 91.6237 59.8302 91.442 59.5584 91.3161C59.4598 90.8612 59.2089 90.4535 58.8473 90.1605C58.5035 90.0309 58.1243 90.0309 57.7806 90.1605C57.7806 90.1605 57.1584 90.1605 56.8028 90.1605L56.0917 90.8716C56.0917 90.8716 55.5583 90.8716 55.4694 91.4939L51.9138 99.3162L48.4471 91.4939C48.3124 91.1098 48.0916 90.7617 47.8016 90.4762C47.5116 90.1906 47.1601 89.9753 46.774 89.8466C46.3879 89.7179 45.9775 89.6792 45.5741 89.7337C45.1708 89.7881 44.7853 89.9341 44.4471 90.1605C43.7953 90.4532 43.2827 90.9876 43.0174 91.6509C42.7521 92.3142 42.7547 93.0547 43.0248 93.7161L49.336 107.939C49.6336 108.456 50.063 108.885 50.5805 109.183H51.6472C52.027 109.274 52.4229 109.274 52.8027 109.183H53.3361C53.7236 108.842 54.0277 108.416 54.225 107.939L57.7806 100.027L61.2473 107.939C61.5449 108.456 61.9743 108.885 62.4918 109.183H63.5584H64.6251C65.2733 108.942 65.8318 108.507 66.2251 107.939L72.1808 94.5161C72.4877 94.1923 72.7085 93.7965 72.8229 93.3652C72.9372 92.9339 72.9416 92.4808 72.8354 92.0474C72.7293 91.614 72.5161 91.2141 72.2153 90.8845C71.9146 90.5548 71.536 90.3059 71.1141 90.1605C70.7495 89.9895 70.3527 89.8978 69.95 89.8915C69.5473 89.8852 69.1479 89.9646 68.7782 90.1242C68.4084 90.2839 68.0768 90.5202 67.8053 90.8176C67.5337 91.1151 67.3284 91.4667 67.2029 91.8494Z" fill="#2196F3" fill-opacity="0.8"/>
</svg>
