<svg width="25" height="26" viewBox="0 0 25 26" fill="none" xmlns="http://www.w3.org/2000/svg">
<path d="M1.88521 10.6328C2.17823 10.3399 2.57558 10.1753 2.9899 10.1753C3.40422 10.1753 3.80158 10.3399 4.09459 10.6328L9.61959 16.1578L20.6665 5.10937C20.8115 4.9642 20.9838 4.84903 21.1734 4.77042C21.3629 4.69181 21.5661 4.65132 21.7714 4.65125C21.9766 4.65117 22.1798 4.69152 22.3695 4.77C22.5591 4.84847 22.7314 4.96352 22.8766 5.10859C23.0218 5.25366 23.137 5.42591 23.2156 5.61549C23.2942 5.80507 23.3347 6.00828 23.3347 6.21351C23.3348 6.41874 23.2945 6.62198 23.216 6.81162C23.1375 7.00125 23.0225 7.17358 22.8774 7.31875L9.61959 20.5766L1.88521 12.8422C1.59229 12.5492 1.42773 12.1518 1.42773 11.7375C1.42773 11.3232 1.59229 10.9258 1.88521 10.6328Z" fill="#EC5200"/>
</svg>
