<svg width="171" height="15" viewBox="0 0 171 15" fill="none" xmlns="http://www.w3.org/2000/svg">
<rect width="171" height="15" rx="4" fill="black" fill-opacity="0.8"/>
<path d="M1 4C1 2.34315 2.34315 1 4 1H34V14H4C2.34314 14 1 12.6569 1 11V4Z" fill="url(#paint0_linear_42_3)"/>
<rect x="35" y="1" width="33" height="13" fill="url(#paint1_linear_42_3)" fill-opacity="0.25"/>
<rect x="69" y="1" width="33" height="13" fill="url(#paint2_linear_42_3)" fill-opacity="0.25"/>
<rect x="103" y="1" width="33" height="13" fill="url(#paint3_linear_42_3)" fill-opacity="0.25"/>
<path d="M137 1H167C168.657 1 170 2.34315 170 4V11C170 12.6569 168.657 14 167 14H137V1Z" fill="url(#paint4_linear_42_3)" fill-opacity="0.25"/>
<defs>
<linearGradient id="paint0_linear_42_3" x1="1" y1="8" x2="34" y2="8" gradientUnits="userSpaceOnUse">
<stop stop-color="#4CAE50"/>
<stop offset="1" stop-color="#6E9C50"/>
</linearGradient>
<linearGradient id="paint1_linear_42_3" x1="35" y1="8" x2="68" y2="8" gradientUnits="userSpaceOnUse">
<stop stop-color="#709B50"/>
<stop offset="1" stop-color="#928950"/>
</linearGradient>
<linearGradient id="paint2_linear_42_3" x1="69" y1="8" x2="102" y2="8" gradientUnits="userSpaceOnUse">
<stop stop-color="#948850"/>
<stop offset="1" stop-color="#B67650"/>
</linearGradient>
<linearGradient id="paint3_linear_42_3" x1="103" y1="8" x2="136" y2="8" gradientUnits="userSpaceOnUse">
<stop stop-color="#B87450"/>
<stop offset="1" stop-color="#DA6350"/>
</linearGradient>
<linearGradient id="paint4_linear_42_3" x1="137" y1="8" x2="170" y2="8" gradientUnits="userSpaceOnUse">
<stop stop-color="#DC614F"/>
<stop offset="1" stop-color="#FE4F4F"/>
</linearGradient>
</defs>
</svg>
