<svg width="85" height="65" viewBox="0 0 85 65" fill="none" xmlns="http://www.w3.org/2000/svg">
<path d="M29.3152 11.2525C28.3303 11.2525 27.4991 11.9154 27.2394 12.8179H18.5974L16.1922 10.413H21.9921C22.2517 11.3156 23.0832 11.9785 24.0678 11.9785C25.2596 11.9785 26.229 11.0088 26.229 9.81702C26.229 8.62524 25.2596 7.65556 24.0678 7.65556C23.083 7.65556 22.2515 8.31849 21.9921 9.221H15.0002L13.4149 7.63574L7.63672 13.414L13.4149 19.1922L15.0002 17.6067H21.9918C22.2515 18.5092 23.083 19.1721 24.0676 19.1721C25.2594 19.1721 26.2288 18.2024 26.2288 17.0107C26.2288 15.8189 25.2594 14.8495 24.0676 14.8495C23.0827 14.8495 22.2512 15.5121 21.9918 16.4146H16.1922L18.5972 14.0097H27.2391C27.4988 14.9122 28.33 15.5749 29.3149 15.5749C30.5067 15.5749 31.4764 14.6055 31.4764 13.4137C31.4766 12.2219 30.5069 11.2525 29.3152 11.2525ZM24.0681 8.84733C24.6026 8.84733 25.0373 9.28225 25.0373 9.81676C25.0373 10.3513 24.6026 10.7862 24.0681 10.7862C23.5336 10.7862 23.0987 10.3513 23.0987 9.81676C23.0987 9.28225 23.5336 8.84733 24.0681 8.84733ZM24.0681 16.0415C24.6026 16.0415 25.0373 16.4761 25.0373 17.0107C25.0373 17.5452 24.6026 17.9801 24.0681 17.9801C23.5336 17.9801 23.0987 17.5452 23.0987 17.0107C23.0987 16.4761 23.5336 16.0415 24.0681 16.0415ZM13.4152 17.5066L9.3226 13.414L13.4152 9.32137L17.5078 13.414L13.4152 17.5066ZM29.3152 14.3831C28.7806 14.3831 28.346 13.9485 28.346 13.414C28.346 12.8795 28.7806 12.4445 29.3152 12.4445C29.8497 12.4445 30.2846 12.8795 30.2846 13.414C30.2846 13.9482 29.8497 14.3831 29.3152 14.3831Z" fill="#0088CC"/>
<path d="M21.8347 18.4076H17.9016L13.4142 22.8949L3.9333 13.414L13.4142 3.9333L17.9016 8.42067H21.8349L13.4142 0L0 13.414L13.4142 26.828L21.8347 18.4076Z" fill="#0088CC"/>
<path d="M29.3152 11.2525C28.3303 11.2525 27.4991 11.9154 27.2394 12.8179H18.5974L16.1922 10.413H21.9921C22.2517 11.3156 23.0832 11.9785 24.0678 11.9785C25.2596 11.9785 26.229 11.0088 26.229 9.81702C26.229 8.62524 25.2596 7.65556 24.0678 7.65556C23.083 7.65556 22.2515 8.31849 21.9921 9.221H15.0002L13.4149 7.63574L7.63672 13.414L13.4149 19.1922L15.0002 17.6067H21.9918C22.2515 18.5092 23.083 19.1721 24.0676 19.1721C25.2594 19.1721 26.2288 18.2024 26.2288 17.0107C26.2288 15.8189 25.2594 14.8495 24.0676 14.8495C23.0827 14.8495 22.2512 15.5121 21.9918 16.4146H16.1922L18.5972 14.0097H27.2391C27.4988 14.9122 28.33 15.5749 29.3149 15.5749C30.5067 15.5749 31.4764 14.6055 31.4764 13.4137C31.4766 12.2219 30.5069 11.2525 29.3152 11.2525ZM24.0681 8.84733C24.6026 8.84733 25.0373 9.28225 25.0373 9.81676C25.0373 10.3513 24.6026 10.7862 24.0681 10.7862C23.5336 10.7862 23.0987 10.3513 23.0987 9.81676C23.0987 9.28225 23.5336 8.84733 24.0681 8.84733ZM24.0681 16.0415C24.6026 16.0415 25.0373 16.4761 25.0373 17.0107C25.0373 17.5452 24.6026 17.9801 24.0681 17.9801C23.5336 17.9801 23.0987 17.5452 23.0987 17.0107C23.0987 16.4761 23.5336 16.0415 24.0681 16.0415ZM13.4152 17.5066L9.3226 13.414L13.4152 9.32137L17.5078 13.414L13.4152 17.5066ZM29.3152 14.3831C28.7806 14.3831 28.346 13.9485 28.346 13.414C28.346 12.8795 28.7806 12.4445 29.3152 12.4445C29.8497 12.4445 30.2846 12.8795 30.2846 13.414C30.2846 13.9482 29.8497 14.3831 29.3152 14.3831Z" fill="#0088CC"/>
<path d="M21.8347 18.4076H17.9016L13.4142 22.8949L3.9333 13.414L13.4142 3.9333L17.9016 8.42067H21.8349L13.4142 0L0 13.414L13.4142 26.828L21.8347 18.4076Z" fill="#0088CC"/>
<path d="M45.1522 20.7878C45.1522 21.6547 45.7357 22.3864 46.5301 22.6149V30.2216L44.4133 32.3386V27.2336C45.2077 27.005 45.7912 26.2732 45.7912 25.4065C45.7912 24.3575 44.9377 23.5042 43.8887 23.5042C42.8397 23.5042 41.9862 24.3575 41.9862 25.4065C41.9862 26.2734 42.5697 27.0053 43.3641 27.2336V33.3878L41.9688 34.7832L47.0547 39.8691L52.1407 34.7832L50.7451 33.3878V27.2338C51.5395 27.0053 52.123 26.2734 52.123 25.4067C52.123 24.3577 51.2695 23.5044 50.2205 23.5044C49.1715 23.5044 48.3182 24.3577 48.3182 25.4067C48.3182 26.2736 48.9015 27.0055 49.6959 27.2338V32.3386L47.5791 30.2218V22.6151C48.3735 22.3866 48.9568 21.6549 48.9568 20.7881C48.9568 19.7391 48.1035 18.8855 47.0545 18.8855C46.0055 18.8853 45.1522 19.7388 45.1522 20.7878ZM43.0352 25.4063C43.0352 24.9358 43.418 24.5532 43.8885 24.5532C44.359 24.5532 44.7418 24.9358 44.7418 25.4063C44.7418 25.8767 44.359 26.2596 43.8885 26.2596C43.418 26.2596 43.0352 25.8767 43.0352 25.4063ZM49.3675 25.4063C49.3675 24.9358 49.7501 24.5532 50.2205 24.5532C50.691 24.5532 51.0738 24.9358 51.0738 25.4063C51.0738 25.8767 50.691 26.2596 50.2205 26.2596C49.7501 26.2596 49.3675 25.8767 49.3675 25.4063ZM50.657 34.7829L47.0547 38.3852L43.4524 34.7829L47.0547 31.1806L50.657 34.7829ZM47.9078 20.7878C47.9078 21.2583 47.5252 21.6409 47.0547 21.6409C46.5843 21.6409 46.2014 21.2583 46.2014 20.7878C46.2014 20.3173 46.5843 19.9345 47.0547 19.9345C47.525 19.9345 47.9078 20.3173 47.9078 20.7878Z" fill="#0088CC"/>
<path d="M45.1522 20.7878C45.1522 21.6547 45.7357 22.3864 46.5301 22.6149V30.2216L44.4133 32.3386V27.2336C45.2077 27.005 45.7912 26.2732 45.7912 25.4065C45.7912 24.3575 44.9377 23.5042 43.8887 23.5042C42.8397 23.5042 41.9862 24.3575 41.9862 25.4065C41.9862 26.2734 42.5697 27.0053 43.3641 27.2336V33.3878L41.9688 34.7832L47.0547 39.8691L52.1407 34.7832L50.7451 33.3878V27.2338C51.5395 27.0053 52.123 26.2734 52.123 25.4067C52.123 24.3577 51.2695 23.5044 50.2205 23.5044C49.1715 23.5044 48.3182 24.3577 48.3182 25.4067C48.3182 26.2736 48.9015 27.0055 49.6959 27.2338V32.3386L47.5791 30.2218V22.6151C48.3735 22.3866 48.9568 21.6549 48.9568 20.7881C48.9568 19.7391 48.1035 18.8855 47.0545 18.8855C46.0055 18.8853 45.1522 19.7388 45.1522 20.7878ZM43.0352 25.4063C43.0352 24.9358 43.418 24.5532 43.8885 24.5532C44.359 24.5532 44.7418 24.9358 44.7418 25.4063C44.7418 25.8767 44.359 26.2596 43.8885 26.2596C43.418 26.2596 43.0352 25.8767 43.0352 25.4063ZM49.3675 25.4063C49.3675 24.9358 49.7501 24.5532 50.2205 24.5532C50.691 24.5532 51.0738 24.9358 51.0738 25.4063C51.0738 25.8767 50.691 26.2596 50.2205 26.2596C49.7501 26.2596 49.3675 25.8767 49.3675 25.4063ZM50.657 34.7829L47.0547 38.3852L43.4524 34.7829L47.0547 31.1806L50.657 34.7829ZM47.9078 20.7878C47.9078 21.2583 47.5252 21.6409 47.0547 21.6409C46.5843 21.6409 46.2014 21.2583 46.2014 20.7878C46.2014 20.3173 46.5843 19.9345 47.0547 19.9345C47.525 19.9345 47.9078 20.3173 47.9078 20.7878Z" fill="#0088CC"/>
<path d="M48.9533 48.4583C48.9533 47.5914 48.3697 46.8597 47.5754 46.6312V39.0245L49.6922 36.9075V42.0125C48.8978 42.2411 48.3142 42.9729 48.3142 43.8396C48.3142 44.8886 49.1678 45.7419 50.2168 45.7419C51.2658 45.7419 52.1193 44.8886 52.1193 43.8396C52.1193 42.9727 51.5358 42.2408 50.7414 42.0125V35.8583L52.1367 34.4629L47.0507 29.377L41.9648 34.4629L43.3603 35.8583V42.0123C42.5659 42.2408 41.9824 42.9727 41.9824 43.8394C41.9824 44.8884 42.8359 45.7417 43.8849 45.7417C44.9339 45.7417 45.7872 44.8884 45.7872 43.8394C45.7872 42.9725 45.2039 42.2406 44.4096 42.0123V36.9075L46.5264 39.0243V46.631C45.732 46.8595 45.1487 47.5912 45.1487 48.458C45.1487 49.507 46.002 50.3606 47.051 50.3606C48.1 50.3608 48.9533 49.5073 48.9533 48.4583ZM51.0703 43.8398C51.0703 44.3103 50.6875 44.6929 50.217 44.6929C49.7465 44.6929 49.3637 44.3103 49.3637 43.8398C49.3637 43.3693 49.7465 42.9865 50.217 42.9865C50.6875 42.9865 51.0703 43.3693 51.0703 43.8398ZM44.738 43.8398C44.738 44.3103 44.3554 44.6929 43.8849 44.6929C43.4145 44.6929 43.0317 44.3103 43.0317 43.8398C43.0317 43.3693 43.4145 42.9865 43.8849 42.9865C44.3554 42.9865 44.738 43.3693 44.738 43.8398ZM43.4484 34.4632L47.0507 30.8609L50.653 34.4632L47.0507 38.0655L43.4484 34.4632ZM46.1977 48.4583C46.1977 47.9878 46.5803 47.6052 47.0507 47.6052C47.5212 47.6052 47.904 47.9878 47.904 48.4583C47.904 48.9287 47.5212 49.3116 47.0507 49.3116C46.5805 49.3116 46.1977 48.9287 46.1977 48.4583Z" fill="#0088CC"/>
<path d="M48.9533 48.4583C48.9533 47.5914 48.3697 46.8597 47.5754 46.6312V39.0245L49.6922 36.9075V42.0125C48.8978 42.2411 48.3142 42.9729 48.3142 43.8396C48.3142 44.8886 49.1678 45.7419 50.2168 45.7419C51.2658 45.7419 52.1193 44.8886 52.1193 43.8396C52.1193 42.9727 51.5358 42.2408 50.7414 42.0125V35.8583L52.1367 34.4629L47.0507 29.377L41.9648 34.4629L43.3603 35.8583V42.0123C42.5659 42.2408 41.9824 42.9727 41.9824 43.8394C41.9824 44.8884 42.8359 45.7417 43.8849 45.7417C44.9339 45.7417 45.7872 44.8884 45.7872 43.8394C45.7872 42.9725 45.2039 42.2406 44.4096 42.0123V36.9075L46.5264 39.0243V46.631C45.732 46.8595 45.1487 47.5912 45.1487 48.458C45.1487 49.507 46.002 50.3606 47.051 50.3606C48.1 50.3608 48.9533 49.5073 48.9533 48.4583ZM51.0703 43.8398C51.0703 44.3103 50.6875 44.6929 50.217 44.6929C49.7465 44.6929 49.3637 44.3103 49.3637 43.8398C49.3637 43.3693 49.7465 42.9865 50.217 42.9865C50.6875 42.9865 51.0703 43.3693 51.0703 43.8398ZM44.738 43.8398C44.738 44.3103 44.3554 44.6929 43.8849 44.6929C43.4145 44.6929 43.0317 44.3103 43.0317 43.8398C43.0317 43.3693 43.4145 42.9865 43.8849 42.9865C44.3554 42.9865 44.738 43.3693 44.738 43.8398ZM43.4484 34.4632L47.0507 30.8609L50.653 34.4632L47.0507 38.0655L43.4484 34.4632ZM46.1977 48.4583C46.1977 47.9878 46.5803 47.6052 47.0507 47.6052C47.5212 47.6052 47.904 47.9878 47.904 48.4583C47.904 48.9287 47.5212 49.3116 47.0507 49.3116C46.5805 49.3116 46.1977 48.9287 46.1977 48.4583Z" fill="#0088CC"/>
<path d="M1.57422 50.4824V24.1309L13.3415 35.1107L24.6562 24.1309V50.4824L13.3415 61.9013L1.57422 50.4824Z" stroke="#0088CC" stroke-width="3"/>
<path d="M81.6593 62.5007L68.0983 38.8784L60.7364 54.0352L64.8272 62.5007H81.6593Z" stroke="#0088CC" stroke-width="3"/>
<path d="M64.9706 3.59863L57.4221 26.4709V46.8811L58.8947 50.0416L81.836 3.59863H64.9706Z" stroke="#0088CC" stroke-width="3"/>
<rect x="39.2695" y="3.59863" width="14.8361" height="58.9016" stroke="#0088CC" stroke-width="3"/>
</svg>
