<svg width="20" height="20" viewBox="0 0 20 20" fill="none" xmlns="http://www.w3.org/2000/svg">
<g clip-path="url(#clip0_3452_8156)">
<path d="M10 0C12.7609 0 15.2613 1.11953 17.0707 2.9293C18.8805 4.73867 20 7.23906 20 10C20 12.7609 18.8805 15.2613 17.0707 17.0707C15.2613 18.8805 12.7609 20 10 20C7.23906 20 4.73867 18.8805 2.9293 17.0707C1.11953 15.2613 0 12.7609 0 10C0 7.23906 1.11953 4.73867 2.9293 2.9293C4.73867 1.11953 7.23906 0 10 0Z" fill="#999999"/>
<path d="M10.0004 0.760742C12.5512 0.760742 14.8621 1.79512 16.5336 3.4666L16.5762 3.5127C18.2223 5.18105 19.2395 7.47246 19.2395 9.99941C19.2395 12.5506 18.2043 14.8611 16.5328 16.5326L16.4867 16.5752C14.8176 18.2221 12.5258 19.2389 10.0004 19.2389C7.45234 19.2389 5.14219 18.2033 3.46992 16.5307C1.79648 14.8611 0.761719 12.5506 0.761719 9.99941C0.761719 7.44824 1.79609 5.13809 3.46758 3.4666C5.13906 1.79512 7.44961 0.760742 10.0004 0.760742Z" fill="white"/>
<path d="M10 1.54688C14.6687 1.54688 18.4535 5.33164 18.4535 10C18.4535 14.6687 14.6687 18.4539 10 18.4539C5.33164 18.4539 1.54688 14.6687 1.54688 10C1.54688 5.33164 5.33164 1.54688 10 1.54688Z" fill="#FEFEFE"/>
<path d="M7.1668 7.01348V2.03301C5.55273 2.60723 4.16484 3.6584 3.17188 5.01543L7.1668 7.01348ZM7.1668 12.9861V17.9666C5.55352 17.3924 4.16602 16.342 3.17227 14.9842L7.1668 12.9861ZM12.8133 12.9861V17.9732C14.4324 17.4018 15.8246 16.3506 16.8215 14.9912L12.8133 12.9861ZM12.8133 7.01348V2.02637C14.4324 2.59785 15.8254 3.64902 16.8219 5.00879L12.8133 7.01348Z" fill="#012169"/>
<path d="M17.5117 12.8191H15.6324L17.5602 13.7848C17.6855 13.5344 17.7988 13.277 17.8996 13.0133L17.5117 12.8191ZM17.1469 5.48477L13.7711 7.17734H15.6504L17.5625 6.22031C17.4363 5.96797 17.2973 5.72227 17.1469 5.48477ZM8.29727 11.6902V18.282C8.84727 18.3941 9.4168 18.4539 10 18.4539C10.5766 18.4539 11.1402 18.3957 11.6848 18.2859V11.6902H18.284C18.3945 11.1441 18.4535 10.5793 18.4535 10C18.4535 9.41875 18.3945 8.85078 18.2828 8.30195H11.6848V1.71523C11.1302 1.60313 10.5658 1.54673 10 1.54688C9.4168 1.54688 8.84727 1.60703 8.29727 1.71875V8.30195H1.71758C1.6039 8.86082 1.54671 9.42969 1.54688 10C1.54688 10.5793 1.60586 11.1441 1.71641 11.6902H8.29727ZM2.46563 7.18164H4.34492L2.43516 6.22539C2.31016 6.47578 2.19648 6.73398 2.09609 6.99727L2.46563 7.18164ZM6.21055 12.8234H4.33125L2.43398 13.773C2.56071 14.0265 2.70008 14.2734 2.85156 14.5129L6.22773 12.8234H6.21055Z" fill="#C8102E"/>
</g>
<defs>
<clipPath id="clip0_3452_8156">
<rect width="20" height="20" fill="white"/>
</clipPath>
</defs>
</svg>
