<svg width="20" height="20" viewBox="0 0 20 20" fill="none" xmlns="http://www.w3.org/2000/svg">
<path d="M9.43051 3.01014C9.61851 2.70365 9.71251 2.5504 9.83343 2.49811C9.93893 2.45245 10.0587 2.45245 10.1643 2.49811C10.2851 2.5504 10.3791 2.70365 10.5671 3.01014L12.2213 5.70706C12.2921 5.82264 12.3276 5.88042 12.3759 5.92244C12.4187 5.95963 12.4686 5.9877 12.5226 6.00493C12.5837 6.02439 12.6514 6.02465 12.787 6.02517L16.0413 6.03749C16.4258 6.03894 16.6181 6.03967 16.7278 6.12074C16.8234 6.19143 16.8843 6.29963 16.895 6.41808C16.9074 6.55391 16.8083 6.71862 16.6098 7.04805L15.0393 9.65637C14.9639 9.78137 14.9263 9.84387 14.9116 9.91062C14.8986 9.9697 14.8986 10.0309 14.9116 10.0899C14.9263 10.1566 14.9639 10.2191 15.0393 10.3442L16.6098 12.9525C16.8083 13.2819 16.9074 13.4466 16.895 13.5825C16.8843 13.7009 16.8234 13.8091 16.7278 13.8798C16.6181 13.9609 16.4258 13.9616 16.0413 13.963L12.787 13.9754C12.6514 13.9759 12.5837 13.9761 12.5226 13.9956C12.4686 14.0128 12.4187 14.0409 12.3759 14.0781C12.3276 14.1201 12.2921 14.1779 12.2213 14.2935L10.5671 16.9904C10.3791 17.2969 10.2851 17.4501 10.1643 17.5025C10.0587 17.548 9.93893 17.548 9.83343 17.5025C9.71251 17.4501 9.61851 17.2969 9.43051 16.9904L7.7764 14.2935C7.70552 14.1779 7.67007 14.1201 7.62173 14.0781C7.57895 14.0409 7.52903 14.0128 7.47502 13.9956C7.41401 13.9761 7.34621 13.9759 7.21063 13.9754L3.95638 13.963C3.57184 13.9616 3.37957 13.9609 3.26989 13.8798C3.17424 13.8091 3.11337 13.7009 3.10259 13.5825C3.09024 13.4466 3.18942 13.2819 3.38779 12.9525L4.95841 10.3442C5.03368 10.2191 5.07132 10.1566 5.08602 10.0899C5.09903 10.0309 5.09903 9.9697 5.08602 9.91062C5.07132 9.84387 5.03368 9.78137 4.95841 9.65637L3.38779 7.04804C3.18942 6.71862 3.09024 6.55391 3.10259 6.41808C3.11337 6.29963 3.17424 6.19143 3.26989 6.12074C3.37957 6.03967 3.57184 6.03894 3.95638 6.03749L7.21063 6.02517C7.34621 6.02465 7.41401 6.02439 7.47502 6.00493C7.52903 5.9877 7.57895 5.95963 7.62173 5.92244C7.67007 5.88042 7.70552 5.82264 7.7764 5.70706L9.43051 3.01014Z" stroke="#2B2B2B" stroke-opacity="0.5" stroke-linecap="round" stroke-linejoin="round"/>
</svg>
