<svg width="641" height="488" viewBox="0 0 641 488" fill="none" xmlns="http://www.w3.org/2000/svg">
<path d="M224.141 85.2745C216.678 85.2745 210.379 90.2982 208.411 97.1376H142.921L124.694 78.9129H168.646C170.614 85.7523 176.915 90.776 184.377 90.776C193.408 90.776 200.754 83.4276 200.754 74.3962C200.754 65.3648 193.408 58.0164 184.377 58.0164C176.913 58.0164 170.612 63.0401 168.646 69.8795H115.661L103.647 57.8662L59.8594 101.654L103.647 145.442L115.661 133.427H168.644C170.612 140.267 176.913 145.29 184.375 145.29C193.406 145.29 200.752 137.942 200.752 128.91C200.752 119.879 193.406 112.533 184.375 112.533C176.911 112.533 170.61 117.554 168.644 124.394H124.694L142.919 106.169H208.409C210.377 113.008 216.676 118.03 224.139 118.03C233.171 118.03 240.519 110.684 240.519 101.652C240.521 92.621 233.173 85.2745 224.141 85.2745ZM184.378 67.0478C188.429 67.0478 191.723 70.3437 191.723 74.3943C191.723 78.4448 188.429 81.7407 184.378 81.7407C180.328 81.7407 177.032 78.4448 177.032 74.3943C177.032 70.3437 180.328 67.0478 184.378 67.0478ZM184.378 121.566C188.429 121.566 191.723 124.86 191.723 128.91C191.723 132.961 188.429 136.257 184.378 136.257C180.328 136.257 177.032 132.961 177.032 128.91C177.032 124.86 180.328 121.566 184.378 121.566ZM103.649 132.669L72.6352 101.654L103.649 70.6401L134.664 101.654L103.649 132.669ZM224.141 108.999C220.091 108.999 216.797 105.705 216.797 101.654C216.797 97.6037 220.091 94.3079 224.141 94.3079C228.192 94.3079 231.488 97.6037 231.488 101.654C231.488 105.703 228.192 108.999 224.141 108.999Z" fill="#0088CC"/>
<path d="M167.466 139.495H137.661L103.655 173.501L31.8071 101.653L103.655 29.807L137.661 63.8129H167.468L103.655 0L2 101.653L103.655 203.306L167.466 139.495Z" fill="#0088CC"/>
<path d="M224.141 85.2755C216.678 85.2755 210.379 90.2992 208.411 97.1386H142.921L124.694 78.9139H168.646C170.614 85.7533 176.915 90.777 184.377 90.777C193.408 90.777 200.754 83.4286 200.754 74.3972C200.754 65.3657 193.408 58.0174 184.377 58.0174C176.913 58.0174 170.612 63.0411 168.646 69.8805H115.661L103.647 57.8672L59.8594 101.655L103.647 145.443L115.661 133.428H168.644C170.612 140.268 176.913 145.291 184.375 145.291C193.406 145.291 200.752 137.943 200.752 128.911C200.752 119.88 193.406 112.534 184.375 112.534C176.911 112.534 170.61 117.555 168.644 124.395H124.694L142.919 106.17H208.409C210.377 113.009 216.676 118.031 224.139 118.031C233.171 118.031 240.519 110.685 240.519 101.653C240.521 92.6219 233.173 85.2755 224.141 85.2755ZM184.378 67.0488C188.429 67.0488 191.723 70.3446 191.723 74.3952C191.723 78.4458 188.429 81.7417 184.378 81.7417C180.328 81.7417 177.032 78.4458 177.032 74.3952C177.032 70.3446 180.328 67.0488 184.378 67.0488ZM184.378 121.567C188.429 121.567 191.723 124.861 191.723 128.911C191.723 132.962 188.429 136.258 184.378 136.258C180.328 136.258 177.032 132.962 177.032 128.911C177.032 124.861 180.328 121.567 184.378 121.567ZM103.649 132.67L72.6352 101.655L103.649 70.6411L134.664 101.655L103.649 132.67ZM224.141 109C220.091 109 216.797 105.706 216.797 101.655C216.797 97.6047 220.091 94.3088 224.141 94.3088C228.192 94.3088 231.488 97.6047 231.488 101.655C231.488 105.704 228.192 109 224.141 109Z" fill="#0088CC"/>
<path d="M167.466 139.495H137.661L103.655 173.501L31.8071 101.653L103.655 29.807L137.661 63.8129H167.468L103.655 0L2 101.653L103.655 203.306L167.466 139.495Z" fill="#0088CC"/>
<path d="M344.156 157.53C344.156 164.1 348.578 169.644 354.598 171.376V229.02L338.556 245.063V206.377C344.577 204.645 348.998 199.099 348.998 192.531C348.998 184.582 342.53 178.115 334.581 178.115C326.631 178.115 320.163 184.582 320.163 192.531C320.163 199.1 324.585 204.647 330.605 206.377V253.015L320.031 263.589L358.573 302.131L397.116 263.589L386.54 253.015V206.379C392.56 204.647 396.982 199.1 396.982 192.533C396.982 184.583 390.514 178.117 382.564 178.117C374.615 178.117 368.148 184.583 368.148 192.533C368.148 199.102 372.569 204.648 378.589 206.379V245.063L362.547 229.022V171.378C368.567 169.646 372.988 164.101 372.988 157.532C372.988 149.583 366.521 143.114 358.572 143.114C350.622 143.113 344.156 149.581 344.156 157.53ZM328.113 192.529C328.113 188.964 331.014 186.065 334.579 186.065C338.145 186.065 341.046 188.964 341.046 192.529C341.046 196.095 338.145 198.996 334.579 198.996C331.014 198.996 328.113 196.095 328.113 192.529ZM376.1 192.529C376.1 188.964 378.999 186.065 382.564 186.065C386.13 186.065 389.031 188.964 389.031 192.529C389.031 196.095 386.13 198.996 382.564 198.996C378.999 198.996 376.1 196.095 376.1 192.529ZM385.872 263.587L358.573 290.886L331.275 263.587L358.573 236.288L385.872 263.587ZM365.038 157.53C365.038 161.096 362.139 163.995 358.573 163.995C355.008 163.995 352.107 161.096 352.107 157.53C352.107 153.965 355.008 151.064 358.573 151.064C362.137 151.064 365.038 153.965 365.038 157.53Z" fill="#0088CC"/>
<path d="M344.156 157.53C344.156 164.1 348.578 169.644 354.598 171.376V229.02L338.556 245.063V206.377C344.577 204.645 348.998 199.099 348.998 192.531C348.998 184.582 342.53 178.115 334.581 178.115C326.631 178.115 320.163 184.582 320.163 192.531C320.163 199.1 324.585 204.647 330.605 206.377V253.015L320.031 263.589L358.573 302.131L397.116 263.589L386.54 253.015V206.379C392.56 204.647 396.982 199.1 396.982 192.533C396.982 184.583 390.514 178.117 382.564 178.117C374.615 178.117 368.148 184.583 368.148 192.533C368.148 199.102 372.569 204.648 378.589 206.379V245.063L362.547 229.022V171.378C368.567 169.646 372.988 164.101 372.988 157.532C372.988 149.583 366.521 143.114 358.572 143.114C350.622 143.113 344.156 149.581 344.156 157.53ZM328.113 192.529C328.113 188.964 331.014 186.065 334.579 186.065C338.145 186.065 341.046 188.964 341.046 192.529C341.046 196.095 338.145 198.996 334.579 198.996C331.014 198.996 328.113 196.095 328.113 192.529ZM376.1 192.529C376.1 188.964 378.999 186.065 382.564 186.065C386.13 186.065 389.031 188.964 389.031 192.529C389.031 196.095 386.13 198.996 382.564 198.996C378.999 198.996 376.1 196.095 376.1 192.529ZM385.872 263.587L358.573 290.886L331.275 263.587L358.573 236.288L385.872 263.587ZM365.038 157.53C365.038 161.096 362.139 163.995 358.573 163.995C355.008 163.995 352.107 161.096 352.107 157.53C352.107 153.965 355.008 151.064 358.573 151.064C362.137 151.064 365.038 153.965 365.038 157.53Z" fill="#0088CC"/>
<path d="M372.992 367.224C372.992 360.654 368.571 355.11 362.551 353.378V295.734L378.592 279.691V318.377C372.572 320.109 368.15 325.655 368.15 332.223C368.15 340.172 374.618 346.639 382.568 346.639C390.517 346.639 396.985 340.172 396.985 332.223C396.985 325.653 392.563 320.107 386.543 318.377V271.739L397.117 261.165L358.575 222.623L320.033 261.165L330.609 271.739V318.375C324.589 320.107 320.167 325.653 320.167 332.221C320.167 340.17 326.635 346.637 334.584 346.637C342.534 346.637 349 340.17 349 332.221C349 325.652 344.58 320.105 338.56 318.375V279.691L354.601 295.732V353.376C348.581 355.108 344.161 360.653 344.161 367.222C344.161 375.171 350.627 381.639 358.577 381.639C366.526 381.641 372.992 375.173 372.992 367.224ZM389.036 332.224C389.036 335.79 386.135 338.689 382.569 338.689C379.004 338.689 376.103 335.79 376.103 332.224C376.103 328.659 379.004 325.758 382.569 325.758C386.135 325.758 389.036 328.659 389.036 332.224ZM341.049 332.224C341.049 335.79 338.15 338.689 334.584 338.689C331.019 338.689 328.118 335.79 328.118 332.224C328.118 328.659 331.019 325.758 334.584 325.758C338.15 325.758 341.049 328.659 341.049 332.224ZM331.276 261.167L358.575 233.868L385.874 261.167L358.575 288.466L331.276 261.167ZM352.11 367.224C352.11 363.658 355.01 360.759 358.575 360.759C362.14 360.759 365.041 363.658 365.041 367.224C365.041 370.789 362.14 373.69 358.575 373.69C355.011 373.69 352.11 370.789 352.11 367.224Z" fill="#0088CC"/>
<path d="M372.992 367.224C372.992 360.654 368.571 355.11 362.551 353.378V295.734L378.592 279.691V318.377C372.572 320.109 368.15 325.655 368.15 332.223C368.15 340.172 374.618 346.639 382.568 346.639C390.517 346.639 396.985 340.172 396.985 332.223C396.985 325.653 392.563 320.107 386.543 318.377V271.739L397.117 261.165L358.575 222.623L320.033 261.165L330.609 271.739V318.375C324.589 320.107 320.167 325.653 320.167 332.221C320.167 340.17 326.635 346.637 334.584 346.637C342.534 346.637 349 340.17 349 332.221C349 325.652 344.58 320.105 338.56 318.375V279.691L354.601 295.732V353.376C348.581 355.108 344.161 360.653 344.161 367.222C344.161 375.171 350.627 381.639 358.577 381.639C366.526 381.641 372.992 375.173 372.992 367.224ZM389.036 332.224C389.036 335.79 386.135 338.689 382.569 338.689C379.004 338.689 376.103 335.79 376.103 332.224C376.103 328.659 379.004 325.758 382.569 325.758C386.135 325.758 389.036 328.659 389.036 332.224ZM341.049 332.224C341.049 335.79 338.15 338.689 334.584 338.689C331.019 338.689 328.118 335.79 328.118 332.224C328.118 328.659 331.019 325.758 334.584 325.758C338.15 325.758 341.049 328.659 341.049 332.224ZM331.276 261.167L358.575 233.868L385.874 261.167L358.575 288.466L331.276 261.167ZM352.11 367.224C352.11 363.658 355.01 360.759 358.575 360.759C362.14 360.759 365.041 363.658 365.041 367.224C365.041 370.789 362.14 373.69 358.575 373.69C355.011 373.69 352.11 370.789 352.11 367.224Z" fill="#0088CC"/>
<path d="M13.9258 382.564V182.869L103.1 266.075L188.844 182.869V382.564L103.1 469.099L13.9258 382.564Z" stroke="#0088CC" stroke-width="26"/>
<path d="M618.008 472L518.182 298.109L464.087 409.482L494.297 472H618.008Z" stroke="#0088CC" stroke-width="26"/>
<path d="M495.54 28.9014L438.789 200.86V354.907L448.358 375.445L619.54 28.9014H495.54Z" stroke="#0088CC" stroke-width="26"/>
<rect x="301.23" y="28.9014" width="109.164" height="443.098" stroke="#0088CC" stroke-width="26"/>
</svg>
