<svg width="200" height="200" viewBox="0 0 200 200" fill="none" xmlns="http://www.w3.org/2000/svg">
<g clip-path="url(#clip0_3617_932)">
<path d="M175 12.5C178.315 12.5 181.495 13.817 183.839 16.1612C186.183 18.5054 187.5 21.6848 187.5 25V175C187.5 178.315 186.183 181.495 183.839 183.839C181.495 186.183 178.315 187.5 175 187.5H25C21.6848 187.5 18.5054 186.183 16.1612 183.839C13.817 181.495 12.5 178.315 12.5 175V25C12.5 21.6848 13.817 18.5054 16.1612 16.1612C18.5054 13.817 21.6848 12.5 25 12.5H175ZM25 0C18.3696 0 12.0107 2.63392 7.32233 7.32233C2.63392 12.0107 0 18.3696 0 25L0 175C0 181.63 2.63392 187.989 7.32233 192.678C12.0107 197.366 18.3696 200 25 200H175C181.63 200 187.989 197.366 192.678 192.678C197.366 187.989 200 181.63 200 175V25C200 18.3696 197.366 12.0107 192.678 7.32233C187.989 2.63392 181.63 0 175 0L25 0Z" fill="#FF4F4F"/>
<path d="M87.5234 137.5C87.5234 135.858 87.8468 134.233 88.4749 132.716C89.1031 131.2 90.0239 129.822 91.1846 128.661C92.3453 127.5 93.7233 126.58 95.2399 125.952C96.7565 125.323 98.3819 125 100.023 125C101.665 125 103.29 125.323 104.807 125.952C106.324 126.58 107.702 127.5 108.862 128.661C110.023 129.822 110.944 131.2 111.572 132.716C112.2 134.233 112.523 135.858 112.523 137.5C112.523 140.815 111.206 143.995 108.862 146.339C106.518 148.683 103.339 150 100.023 150C96.7082 150 93.5288 148.683 91.1846 146.339C88.8404 143.995 87.5234 140.815 87.5234 137.5ZM88.7484 62.4375C88.582 60.8605 88.7489 59.2661 89.2384 57.7578C89.728 56.2496 90.5291 54.861 91.5899 53.6823C92.6507 52.5037 93.9475 51.5612 95.3961 50.916C96.8447 50.2709 98.4127 49.9375 99.9984 49.9375C101.584 49.9375 103.152 50.2709 104.601 50.916C106.049 51.5612 107.346 52.5037 108.407 53.6823C109.468 54.861 110.269 56.2496 110.758 57.7578C111.248 59.2661 111.415 60.8605 111.248 62.4375L106.873 106.275C106.726 107.997 105.938 109.601 104.665 110.77C103.392 111.939 101.727 112.588 99.9984 112.588C98.27 112.588 96.6046 111.939 95.3315 110.77C94.0584 109.601 93.2704 107.997 93.1234 106.275L88.7484 62.4375Z" fill="#FF4F4F"/>
</g>
<defs>
<clipPath id="clip0_3617_932">
<rect width="200" height="200" fill="white"/>
</clipPath>
</defs>
</svg>
