<svg width="32" height="32" viewBox="0 0 32 32" fill="none" xmlns="http://www.w3.org/2000/svg">
<g clip-path="url(#clip0_2613_17463)">
<path d="M11.1343 8.27398C10.7602 8.27398 10.4445 8.52578 10.3459 8.86857H7.06347L6.14994 7.95514H8.35283C8.45145 8.29793 8.76727 8.54972 9.14125 8.54972C9.59391 8.54972 9.96211 8.18142 9.96211 7.72876C9.96211 7.2761 9.59391 6.9078 9.14125 6.9078C8.76717 6.9078 8.45136 7.15959 8.35283 7.50238H5.69718L5.09507 6.90027L2.90039 9.09495L5.09507 11.2896L5.69718 10.6874H8.35273C8.45136 11.0302 8.76717 11.282 9.14115 11.282C9.59381 11.282 9.96202 10.9137 9.96202 10.461C9.96202 10.0084 9.59381 9.64017 9.14115 9.64017C8.76708 9.64017 8.45126 9.89187 8.35273 10.2347H6.14994L7.06337 9.32123H10.3458C10.4444 9.66402 10.7601 9.91572 11.1342 9.91572C11.5868 9.91572 11.9551 9.54751 11.9551 9.09485C11.9552 8.64219 11.5869 8.27398 11.1343 8.27398ZM9.14134 7.36045C9.34436 7.36045 9.50945 7.52564 9.50945 7.72866C9.50945 7.93168 9.34436 8.09687 9.14134 8.09687C8.93833 8.09687 8.77314 7.93168 8.77314 7.72866C8.77314 7.52564 8.93833 7.36045 9.14134 7.36045ZM9.14134 10.0929C9.34436 10.0929 9.50945 10.258 9.50945 10.461C9.50945 10.6641 9.34436 10.8292 9.14134 10.8292C8.93833 10.8292 8.77314 10.6641 8.77314 10.461C8.77314 10.258 8.93833 10.0929 9.14134 10.0929ZM5.09517 10.6494L3.54072 9.09495L5.09517 7.5405L6.64962 9.09495L5.09517 10.6494ZM11.1343 9.46306C10.9313 9.46306 10.7662 9.29797 10.7662 9.09495C10.7662 8.89193 10.9313 8.72674 11.1343 8.72674C11.3373 8.72674 11.5025 8.89193 11.5025 9.09495C11.5025 9.29787 11.3373 9.46306 11.1343 9.46306Z" fill="url(#paint0_linear_2613_17463)"/>
<path d="M8.29322 10.9915H6.79938L5.09499 12.6959L1.49394 9.09489L5.09499 5.49394L6.79938 7.19833H8.29332L5.09499 4L0 9.09489L5.09499 14.1898L8.29322 10.9915Z" fill="url(#paint1_linear_2613_17463)"/>
<path d="M11.1343 8.27398C10.7602 8.27398 10.4445 8.52578 10.3459 8.86857H7.06347L6.14994 7.95514H8.35283C8.45145 8.29793 8.76727 8.54972 9.14125 8.54972C9.59391 8.54972 9.96211 8.18142 9.96211 7.72876C9.96211 7.2761 9.59391 6.9078 9.14125 6.9078C8.76717 6.9078 8.45136 7.15959 8.35283 7.50238H5.69718L5.09507 6.90027L2.90039 9.09495L5.09507 11.2896L5.69718 10.6874H8.35273C8.45136 11.0302 8.76717 11.282 9.14115 11.282C9.59381 11.282 9.96202 10.9137 9.96202 10.461C9.96202 10.0084 9.59381 9.64017 9.14115 9.64017C8.76708 9.64017 8.45126 9.89187 8.35273 10.2347H6.14994L7.06337 9.32123H10.3458C10.4444 9.66402 10.7601 9.91572 11.1342 9.91572C11.5868 9.91572 11.9551 9.54751 11.9551 9.09485C11.9552 8.64219 11.5869 8.27398 11.1343 8.27398ZM9.14134 7.36045C9.34436 7.36045 9.50945 7.52564 9.50945 7.72866C9.50945 7.93168 9.34436 8.09687 9.14134 8.09687C8.93833 8.09687 8.77314 7.93168 8.77314 7.72866C8.77314 7.52564 8.93833 7.36045 9.14134 7.36045ZM9.14134 10.0929C9.34436 10.0929 9.50945 10.258 9.50945 10.461C9.50945 10.6641 9.34436 10.8292 9.14134 10.8292C8.93833 10.8292 8.77314 10.6641 8.77314 10.461C8.77314 10.258 8.93833 10.0929 9.14134 10.0929ZM5.09517 10.6494L3.54072 9.09495L5.09517 7.5405L6.64962 9.09495L5.09517 10.6494ZM11.1343 9.46306C10.9313 9.46306 10.7662 9.29797 10.7662 9.09495C10.7662 8.89193 10.9313 8.72674 11.1343 8.72674C11.3373 8.72674 11.5025 8.89193 11.5025 9.09495C11.5025 9.29787 11.3373 9.46306 11.1343 9.46306Z" fill="url(#paint2_linear_2613_17463)"/>
<path d="M8.29322 10.9915H6.79938L5.09499 12.6959L1.49394 9.09489L5.09499 5.49394L6.79938 7.19833H8.29332L5.09499 4L0 9.09489L5.09499 14.1898L8.29322 10.9915Z" fill="url(#paint3_linear_2613_17463)"/>
<path d="M17.1486 11.8955C17.1486 12.2248 17.3702 12.5026 17.6719 12.5895V15.4786L16.8679 16.2827V14.3437C17.1697 14.2569 17.3913 13.9789 17.3913 13.6498C17.3913 13.2513 17.0671 12.9272 16.6687 12.9272C16.2703 12.9272 15.9461 13.2513 15.9461 13.6498C15.9461 13.979 16.1677 14.257 16.4694 14.3437V16.6812L15.9395 17.2112L17.8712 19.1429L19.803 17.2112L19.2729 16.6812V14.3438C19.5746 14.257 19.7962 13.979 19.7962 13.6498C19.7962 13.2514 19.4721 12.9273 19.0736 12.9273C18.6752 12.9273 18.3511 13.2514 18.3511 13.6498C18.3511 13.9791 18.5727 14.2571 18.8744 14.3438V16.2827L18.0704 15.4787V12.5895C18.3721 12.5027 18.5936 12.2248 18.5936 11.8956C18.5936 11.4972 18.2695 11.173 17.8711 11.173C17.4727 11.1729 17.1486 11.4971 17.1486 11.8955ZM16.3445 13.6497C16.3445 13.471 16.4899 13.3257 16.6686 13.3257C16.8473 13.3257 16.9927 13.471 16.9927 13.6497C16.9927 13.8284 16.8473 13.9738 16.6686 13.9738C16.4899 13.9738 16.3445 13.8284 16.3445 13.6497ZM18.7496 13.6497C18.7496 13.471 18.8949 13.3257 19.0736 13.3257C19.2523 13.3257 19.3977 13.471 19.3977 13.6497C19.3977 13.8284 19.2523 13.9738 19.0736 13.9738C18.8949 13.9738 18.7496 13.8284 18.7496 13.6497ZM19.2394 17.2111L17.8712 18.5793L16.503 17.2111L17.8712 15.8429L19.2394 17.2111ZM18.1952 11.8955C18.1952 12.0742 18.0499 12.2195 17.8712 12.2195C17.6925 12.2195 17.5471 12.0742 17.5471 11.8955C17.5471 11.7168 17.6925 11.5714 17.8712 11.5714C18.0498 11.5714 18.1952 11.7168 18.1952 11.8955Z" fill="url(#paint4_linear_2613_17463)"/>
<path d="M17.1486 11.8955C17.1486 12.2248 17.3702 12.5026 17.6719 12.5895V15.4786L16.8679 16.2827V14.3437C17.1697 14.2569 17.3913 13.9789 17.3913 13.6498C17.3913 13.2513 17.0671 12.9272 16.6687 12.9272C16.2703 12.9272 15.9461 13.2513 15.9461 13.6498C15.9461 13.979 16.1677 14.257 16.4694 14.3437V16.6812L15.9395 17.2112L17.8712 19.1429L19.803 17.2112L19.2729 16.6812V14.3438C19.5746 14.257 19.7962 13.979 19.7962 13.6498C19.7962 13.2514 19.4721 12.9273 19.0736 12.9273C18.6752 12.9273 18.3511 13.2514 18.3511 13.6498C18.3511 13.9791 18.5727 14.2571 18.8744 14.3438V16.2827L18.0704 15.4787V12.5895C18.3721 12.5027 18.5936 12.2248 18.5936 11.8956C18.5936 11.4972 18.2695 11.173 17.8711 11.173C17.4727 11.1729 17.1486 11.4971 17.1486 11.8955ZM16.3445 13.6497C16.3445 13.471 16.4899 13.3257 16.6686 13.3257C16.8473 13.3257 16.9927 13.471 16.9927 13.6497C16.9927 13.8284 16.8473 13.9738 16.6686 13.9738C16.4899 13.9738 16.3445 13.8284 16.3445 13.6497ZM18.7496 13.6497C18.7496 13.471 18.8949 13.3257 19.0736 13.3257C19.2523 13.3257 19.3977 13.471 19.3977 13.6497C19.3977 13.8284 19.2523 13.9738 19.0736 13.9738C18.8949 13.9738 18.7496 13.8284 18.7496 13.6497ZM19.2394 17.2111L17.8712 18.5793L16.503 17.2111L17.8712 15.8429L19.2394 17.2111ZM18.1952 11.8955C18.1952 12.0742 18.0499 12.2195 17.8712 12.2195C17.6925 12.2195 17.5471 12.0742 17.5471 11.8955C17.5471 11.7168 17.6925 11.5714 17.8712 11.5714C18.0498 11.5714 18.1952 11.7168 18.1952 11.8955Z" fill="url(#paint5_linear_2613_17463)"/>
<path d="M18.5955 22.4054C18.5955 22.0762 18.3739 21.7983 18.0722 21.7114V18.8223L18.8762 18.0182V19.9572C18.5745 20.044 18.3528 20.322 18.3528 20.6511C18.3528 21.0496 18.677 21.3737 19.0755 21.3737C19.4739 21.3737 19.7981 21.0496 19.7981 20.6511C19.7981 20.3219 19.5764 20.0439 19.2747 19.9572V17.6197L19.8047 17.0897L17.8729 15.158L15.9412 17.0897L16.4712 17.6197V19.9571C16.1695 20.0439 15.9479 20.3219 15.9479 20.6511C15.9479 21.0495 16.2721 21.3736 16.6705 21.3736C17.0689 21.3736 17.393 21.0495 17.393 20.6511C17.393 20.3218 17.1715 20.0438 16.8698 19.9571V18.0182L17.6738 18.8222V21.7114C17.372 21.7982 17.1505 22.0761 17.1505 22.4053C17.1505 22.8038 17.4746 23.1279 17.873 23.1279C18.2715 23.128 18.5955 22.8038 18.5955 22.4054ZM19.3996 20.6512C19.3996 20.8299 19.2542 20.9752 19.0755 20.9752C18.8968 20.9752 18.7514 20.8299 18.7514 20.6512C18.7514 20.4725 18.8968 20.3271 19.0755 20.3271C19.2542 20.3271 19.3996 20.4725 19.3996 20.6512ZM16.9945 20.6512C16.9945 20.8299 16.8492 20.9752 16.6705 20.9752C16.4918 20.9752 16.3464 20.8299 16.3464 20.6512C16.3464 20.4725 16.4918 20.3271 16.6705 20.3271C16.8492 20.3271 16.9945 20.4725 16.9945 20.6512ZM16.5047 17.0898L17.8729 15.7216L19.2412 17.0898L17.8729 18.458L16.5047 17.0898ZM17.5489 22.4054C17.5489 22.2267 17.6942 22.0814 17.8729 22.0814C18.0516 22.0814 18.197 22.2267 18.197 22.4054C18.197 22.5841 18.0516 22.7295 17.8729 22.7295C17.6943 22.7295 17.5489 22.5841 17.5489 22.4054Z" fill="url(#paint6_linear_2613_17463)"/>
<path d="M18.5955 22.4054C18.5955 22.0762 18.3739 21.7983 18.0722 21.7114V18.8223L18.8762 18.0182V19.9572C18.5745 20.044 18.3528 20.322 18.3528 20.6511C18.3528 21.0496 18.677 21.3737 19.0755 21.3737C19.4739 21.3737 19.7981 21.0496 19.7981 20.6511C19.7981 20.3219 19.5764 20.0439 19.2747 19.9572V17.6197L19.8047 17.0897L17.8729 15.158L15.9412 17.0897L16.4712 17.6197V19.9571C16.1695 20.0439 15.9479 20.3219 15.9479 20.6511C15.9479 21.0495 16.2721 21.3736 16.6705 21.3736C17.0689 21.3736 17.393 21.0495 17.393 20.6511C17.393 20.3218 17.1715 20.0438 16.8698 19.9571V18.0182L17.6738 18.8222V21.7114C17.372 21.7982 17.1505 22.0761 17.1505 22.4053C17.1505 22.8038 17.4746 23.1279 17.873 23.1279C18.2715 23.128 18.5955 22.8038 18.5955 22.4054ZM19.3996 20.6512C19.3996 20.8299 19.2542 20.9752 19.0755 20.9752C18.8968 20.9752 18.7514 20.8299 18.7514 20.6512C18.7514 20.4725 18.8968 20.3271 19.0755 20.3271C19.2542 20.3271 19.3996 20.4725 19.3996 20.6512ZM16.9945 20.6512C16.9945 20.8299 16.8492 20.9752 16.6705 20.9752C16.4918 20.9752 16.3464 20.8299 16.3464 20.6512C16.3464 20.4725 16.4918 20.3271 16.6705 20.3271C16.8492 20.3271 16.9945 20.4725 16.9945 20.6512ZM16.5047 17.0898L17.8729 15.7216L19.2412 17.0898L17.8729 18.458L16.5047 17.0898ZM17.5489 22.4054C17.5489 22.2267 17.6942 22.0814 17.8729 22.0814C18.0516 22.0814 18.197 22.2267 18.197 22.4054C18.197 22.5841 18.0516 22.7295 17.8729 22.7295C17.6943 22.7295 17.5489 22.5841 17.5489 22.4054Z" fill="url(#paint7_linear_2613_17463)"/>
<path d="M0.597656 23.1743V13.1655L5.06709 17.3359L9.36463 13.1655V23.1743L5.06709 27.5115L0.597656 23.1743Z" stroke="#015C8E" stroke-width="1.3"/>
<path d="M30.8774 27.6584L25.8712 18.938L23.1583 24.5234L24.6732 27.6584H30.8774Z" stroke="url(#paint8_linear_2613_17463)" stroke-width="1.3"/>
<path d="M24.7354 5.447L21.8905 14.067V21.7884L22.3717 22.8211L30.9539 5.447H24.7354Z" stroke="url(#paint9_linear_2613_17463)" stroke-width="1.3"/>
<rect x="14.9957" y="5.447" width="5.47448" height="22.2114" stroke="url(#paint10_linear_2613_17463)" stroke-width="1.3"/>
</g>
<defs>
<linearGradient id="paint0_linear_2613_17463" x1="2.90048" y1="9.09489" x2="11.9552" y2="9.09489" gradientUnits="userSpaceOnUse">
<stop stop-color="#EC5200"/>
<stop offset="1" stop-color="#7F2D00"/>
</linearGradient>
<linearGradient id="paint1_linear_2613_17463" x1="7.41756" y1="4.68105" x2="2.20362" y2="13.2285" gradientUnits="userSpaceOnUse">
<stop stop-color="#009AEC"/>
<stop offset="1" stop-color="#005380"/>
</linearGradient>
<linearGradient id="paint2_linear_2613_17463" x1="2.90048" y1="9.09489" x2="11.9552" y2="9.09489" gradientUnits="userSpaceOnUse">
<stop stop-color="#EC5200"/>
<stop offset="1" stop-color="#7F2D00"/>
</linearGradient>
<linearGradient id="paint3_linear_2613_17463" x1="7.41756" y1="4.68105" x2="2.20362" y2="13.2285" gradientUnits="userSpaceOnUse">
<stop stop-color="#009AEC"/>
<stop offset="1" stop-color="#005380"/>
</linearGradient>
<linearGradient id="paint4_linear_2613_17463" x1="17.8712" y1="19.1429" x2="17.8712" y2="11.1729" gradientUnits="userSpaceOnUse">
<stop stop-color="#EC5200"/>
<stop offset="1" stop-color="#7F2D00"/>
</linearGradient>
<linearGradient id="paint5_linear_2613_17463" x1="17.8712" y1="19.1429" x2="17.8712" y2="11.1729" gradientUnits="userSpaceOnUse">
<stop stop-color="#EC5200"/>
<stop offset="1" stop-color="#7F2D00"/>
</linearGradient>
<linearGradient id="paint6_linear_2613_17463" x1="17.873" y1="15.158" x2="17.873" y2="23.128" gradientUnits="userSpaceOnUse">
<stop stop-color="#EC5200"/>
<stop offset="1" stop-color="#7F2D00"/>
</linearGradient>
<linearGradient id="paint7_linear_2613_17463" x1="17.873" y1="15.158" x2="17.873" y2="23.128" gradientUnits="userSpaceOnUse">
<stop stop-color="#EC5200"/>
<stop offset="1" stop-color="#7F2D00"/>
</linearGradient>
<linearGradient id="paint8_linear_2613_17463" x1="27.218" y1="17.549" x2="27.218" y2="28.3084" gradientUnits="userSpaceOnUse">
<stop stop-color="#009AEC"/>
<stop offset="1" stop-color="#005380"/>
</linearGradient>
<linearGradient id="paint9_linear_2613_17463" x1="26.6203" y1="4.797" x2="26.6203" y2="24.3234" gradientUnits="userSpaceOnUse">
<stop stop-color="#009AEC"/>
<stop offset="1" stop-color="#005380"/>
</linearGradient>
<linearGradient id="paint10_linear_2613_17463" x1="17.7329" y1="4.797" x2="17.7329" y2="28.3084" gradientUnits="userSpaceOnUse">
<stop stop-color="#009AEC"/>
<stop offset="1" stop-color="#005380"/>
</linearGradient>
<clipPath id="clip0_2613_17463">
<rect width="32" height="32" fill="white"/>
</clipPath>
</defs>
</svg>
