<svg width="192" height="192" viewBox="0 0 192 192" fill="none" xmlns="http://www.w3.org/2000/svg">
<g clip-path="url(#clip0_2613_17467)">
<path d="M66.8037 48.6442C64.5593 48.6442 62.665 50.1549 62.0732 52.2117H42.3789L36.8977 46.7311H50.1151C50.7068 48.7878 52.6017 50.2986 54.8456 50.2986C57.5615 50.2986 59.7708 48.0888 59.7708 45.3728C59.7708 42.6568 57.5615 40.447 54.8456 40.447C52.6011 40.447 50.7062 41.9578 50.1151 44.0145H34.1812L30.5685 40.4019L17.4004 53.5699L30.5685 66.738L34.1812 63.1248H50.1145C50.7062 65.1815 52.6011 66.6923 54.845 66.6923C57.5609 66.6923 59.7702 64.4825 59.7702 61.7665C59.7702 59.0505 57.5609 56.8413 54.845 56.8413C52.6005 56.8413 50.7056 58.3515 50.1145 60.4082H36.8977L42.3783 54.9276H62.0727C62.6644 56.9844 64.5587 58.4946 66.8032 58.4946C69.5191 58.4946 71.7289 56.2853 71.7289 53.5694C71.7295 50.8534 69.5197 48.6442 66.8037 48.6442ZM54.8461 43.163C56.0642 43.163 57.0548 44.1541 57.0548 45.3722C57.0548 46.5903 56.0642 47.5815 54.8461 47.5815C53.628 47.5815 52.6369 46.5903 52.6369 45.3722C52.6369 44.1541 53.628 43.163 54.8461 43.163ZM54.8461 59.5578C56.0642 59.5578 57.0548 60.5484 57.0548 61.7665C57.0548 62.9846 56.0642 63.9758 54.8461 63.9758C53.628 63.9758 52.6369 62.9846 52.6369 61.7665C52.6369 60.5484 53.628 59.5578 54.8461 59.5578ZM30.5691 62.8966L21.2424 53.5699L30.5691 44.2433L39.8958 53.5699L30.5691 62.8966ZM66.8037 55.7786C65.5856 55.7786 64.5951 54.7881 64.5951 53.5699C64.5951 52.3518 65.5856 51.3607 66.8037 51.3607C68.0219 51.3607 69.013 52.3518 69.013 53.5699C69.013 54.7875 68.0219 55.7786 66.8037 55.7786Z" fill="url(#paint0_linear_2613_17467)"/>
<path d="M49.7594 64.9493H40.7963L30.5699 75.1756L8.96366 53.5693L30.5699 31.9637L40.7963 42.19H49.7599L30.5699 23L0 53.5693L30.5699 84.1387L49.7594 64.9493Z" fill="url(#paint1_linear_2613_17467)"/>
<path d="M66.8037 48.6442C64.5593 48.6442 62.665 50.1549 62.0732 52.2117H42.3789L36.8977 46.7311H50.1151C50.7068 48.7878 52.6017 50.2986 54.8456 50.2986C57.5615 50.2986 59.7708 48.0888 59.7708 45.3728C59.7708 42.6568 57.5615 40.447 54.8456 40.447C52.6011 40.447 50.7062 41.9578 50.1151 44.0145H34.1812L30.5685 40.4019L17.4004 53.5699L30.5685 66.738L34.1812 63.1248H50.1145C50.7062 65.1815 52.6011 66.6923 54.845 66.6923C57.5609 66.6923 59.7702 64.4825 59.7702 61.7665C59.7702 59.0505 57.5609 56.8413 54.845 56.8413C52.6005 56.8413 50.7056 58.3515 50.1145 60.4082H36.8977L42.3783 54.9276H62.0727C62.6644 56.9844 64.5587 58.4946 66.8032 58.4946C69.5191 58.4946 71.7289 56.2853 71.7289 53.5694C71.7295 50.8534 69.5197 48.6442 66.8037 48.6442ZM54.8461 43.163C56.0642 43.163 57.0548 44.1541 57.0548 45.3722C57.0548 46.5903 56.0642 47.5815 54.8461 47.5815C53.628 47.5815 52.6369 46.5903 52.6369 45.3722C52.6369 44.1541 53.628 43.163 54.8461 43.163ZM54.8461 59.5578C56.0642 59.5578 57.0548 60.5484 57.0548 61.7665C57.0548 62.9846 56.0642 63.9758 54.8461 63.9758C53.628 63.9758 52.6369 62.9846 52.6369 61.7665C52.6369 60.5484 53.628 59.5578 54.8461 59.5578ZM30.5691 62.8966L21.2424 53.5699L30.5691 44.2433L39.8958 53.5699L30.5691 62.8966ZM66.8037 55.7786C65.5856 55.7786 64.5951 54.7881 64.5951 53.5699C64.5951 52.3518 65.5856 51.3607 66.8037 51.3607C68.0219 51.3607 69.013 52.3518 69.013 53.5699C69.013 54.7875 68.0219 55.7786 66.8037 55.7786Z" fill="url(#paint2_linear_2613_17467)"/>
<path d="M49.7594 64.9493H40.7963L30.5699 75.1756L8.96366 53.5693L30.5699 31.9637L40.7963 42.19H49.7599L30.5699 23L0 53.5693L30.5699 84.1387L49.7594 64.9493Z" fill="url(#paint3_linear_2613_17467)"/>
<path d="M102.895 70.373C102.895 72.3485 104.225 74.0159 106.036 74.5368V91.8717L101.212 96.6962V85.0624C103.022 84.5415 104.352 82.8736 104.352 80.8986C104.352 78.508 102.407 76.5634 100.016 76.5634C97.6255 76.5634 95.6804 78.508 95.6804 80.8986C95.6804 82.8741 97.0101 84.542 98.8205 85.0624V99.0873L95.6406 102.267L107.231 113.858L118.822 102.267L115.641 99.0873V85.0629C117.452 84.542 118.781 82.8741 118.781 80.8991C118.781 78.5085 116.836 76.5639 114.446 76.5639C112.055 76.5639 110.111 78.5085 110.111 80.8991C110.111 82.8746 111.44 84.5425 113.25 85.0629V96.6962L108.426 91.8722V74.5373C110.237 74.0164 111.566 72.3491 111.566 70.3735C111.566 67.9829 109.621 66.0378 107.231 66.0378C104.84 66.0373 102.895 67.9824 102.895 70.373ZM98.071 80.8981C98.071 79.8259 98.9434 78.954 100.016 78.954C101.088 78.954 101.96 79.8259 101.96 80.8981C101.96 81.9702 101.088 82.8426 100.016 82.8426C98.9434 82.8426 98.071 81.9702 98.071 80.8981ZM112.502 80.8981C112.502 79.8259 113.374 78.954 114.446 78.954C115.518 78.954 116.39 79.8259 116.39 80.8981C116.39 81.9702 115.518 82.8426 114.446 82.8426C113.374 82.8426 112.502 81.9702 112.502 80.8981ZM115.44 102.267L107.231 110.476L99.0218 102.267L107.231 94.0574L115.44 102.267ZM109.175 70.373C109.175 71.4452 108.303 72.3171 107.231 72.3171C106.159 72.3171 105.287 71.4452 105.287 70.373C105.287 69.3008 106.159 68.4284 107.231 68.4284C108.303 68.4284 109.175 69.3008 109.175 70.373Z" fill="url(#paint4_linear_2613_17467)"/>
<path d="M102.895 70.373C102.895 72.3485 104.225 74.0159 106.036 74.5368V91.8717L101.212 96.6962V85.0624C103.022 84.5415 104.352 82.8736 104.352 80.8986C104.352 78.508 102.407 76.5634 100.016 76.5634C97.6255 76.5634 95.6804 78.508 95.6804 80.8986C95.6804 82.8741 97.0101 84.542 98.8205 85.0624V99.0873L95.6406 102.267L107.231 113.858L118.822 102.267L115.641 99.0873V85.0629C117.452 84.542 118.781 82.8741 118.781 80.8991C118.781 78.5085 116.836 76.5639 114.446 76.5639C112.055 76.5639 110.111 78.5085 110.111 80.8991C110.111 82.8746 111.44 84.5425 113.25 85.0629V96.6962L108.426 91.8722V74.5373C110.237 74.0164 111.566 72.3491 111.566 70.3735C111.566 67.9829 109.621 66.0378 107.231 66.0378C104.84 66.0373 102.895 67.9824 102.895 70.373ZM98.071 80.8981C98.071 79.8259 98.9434 78.954 100.016 78.954C101.088 78.954 101.96 79.8259 101.96 80.8981C101.96 81.9702 101.088 82.8426 100.016 82.8426C98.9434 82.8426 98.071 81.9702 98.071 80.8981ZM112.502 80.8981C112.502 79.8259 113.374 78.954 114.446 78.954C115.518 78.954 116.39 79.8259 116.39 80.8981C116.39 81.9702 115.518 82.8426 114.446 82.8426C113.374 82.8426 112.502 81.9702 112.502 80.8981ZM115.44 102.267L107.231 110.476L99.0218 102.267L107.231 94.0574L115.44 102.267ZM109.175 70.373C109.175 71.4452 108.303 72.3171 107.231 72.3171C106.159 72.3171 105.287 71.4452 105.287 70.373C105.287 69.3008 106.159 68.4284 107.231 68.4284C108.303 68.4284 109.175 69.3008 109.175 70.373Z" fill="url(#paint5_linear_2613_17467)"/>
<path d="M111.565 133.433C111.565 131.457 110.236 129.79 108.425 129.269V111.934L113.249 107.109V118.743C111.439 119.264 110.109 120.932 110.109 122.907C110.109 125.298 112.054 127.242 114.445 127.242C116.835 127.242 118.781 125.298 118.781 122.907C118.781 120.931 117.451 119.264 115.64 118.743V104.718L118.82 101.538L107.23 89.9478L95.6393 101.538L98.8197 104.718V118.743C97.0093 119.264 95.6795 120.931 95.6795 122.906C95.6795 125.297 97.6246 127.242 100.015 127.242C102.406 127.242 104.35 125.297 104.35 122.906C104.35 120.931 103.021 119.263 101.211 118.743V107.109L106.035 111.933V129.268C104.224 129.789 102.895 131.456 102.895 133.432C102.895 135.823 104.84 137.768 107.23 137.768C109.621 137.768 111.565 135.823 111.565 133.433ZM116.39 122.907C116.39 123.98 115.518 124.852 114.445 124.852C113.373 124.852 112.501 123.98 112.501 122.907C112.501 121.835 113.373 120.963 114.445 120.963C115.518 120.963 116.39 121.835 116.39 122.907ZM101.959 122.907C101.959 123.98 101.087 124.852 100.015 124.852C98.943 124.852 98.0706 123.98 98.0706 122.907C98.0706 121.835 98.943 120.963 100.015 120.963C101.087 120.963 101.959 121.835 101.959 122.907ZM99.0205 101.539L107.23 93.3295L115.439 101.539L107.23 109.748L99.0205 101.539ZM105.286 133.433C105.286 132.36 106.158 131.488 107.23 131.488C108.302 131.488 109.174 132.36 109.174 133.433C109.174 134.505 108.302 135.377 107.23 135.377C106.158 135.377 105.286 134.505 105.286 133.433Z" fill="url(#paint6_linear_2613_17467)"/>
<path d="M111.565 133.433C111.565 131.457 110.236 129.79 108.425 129.269V111.934L113.249 107.109V118.743C111.439 119.264 110.109 120.932 110.109 122.907C110.109 125.298 112.054 127.242 114.445 127.242C116.835 127.242 118.781 125.298 118.781 122.907C118.781 120.931 117.451 119.264 115.64 118.743V104.718L118.82 101.538L107.23 89.9478L95.6393 101.538L98.8197 104.718V118.743C97.0093 119.264 95.6795 120.931 95.6795 122.906C95.6795 125.297 97.6246 127.242 100.015 127.242C102.406 127.242 104.35 125.297 104.35 122.906C104.35 120.931 103.021 119.263 101.211 118.743V107.109L106.035 111.933V129.268C104.224 129.789 102.895 131.456 102.895 133.432C102.895 135.823 104.84 137.768 107.23 137.768C109.621 137.768 111.565 135.823 111.565 133.433ZM116.39 122.907C116.39 123.98 115.518 124.852 114.445 124.852C113.373 124.852 112.501 123.98 112.501 122.907C112.501 121.835 113.373 120.963 114.445 120.963C115.518 120.963 116.39 121.835 116.39 122.907ZM101.959 122.907C101.959 123.98 101.087 124.852 100.015 124.852C98.943 124.852 98.0706 123.98 98.0706 122.907C98.0706 121.835 98.943 120.963 100.015 120.963C101.087 120.963 101.959 121.835 101.959 122.907ZM99.0205 101.539L107.23 93.3295L115.439 101.539L107.23 109.748L99.0205 101.539ZM105.286 133.433C105.286 132.36 106.158 131.488 107.23 131.488C108.302 131.488 109.174 132.36 109.174 133.433C109.174 134.505 108.302 135.377 107.23 135.377C106.158 135.377 105.286 134.505 105.286 133.433Z" fill="url(#paint7_linear_2613_17467)"/>
<path d="M3.58789 138.046V77.9929L30.4045 103.015L56.1898 77.9929V138.046L30.4045 164.069L3.58789 138.046Z" stroke="#015C8E" stroke-width="7.82"/>
<path d="M185.247 164.941L155.228 112.65L138.961 146.141L148.046 164.941H185.247Z" stroke="url(#paint8_linear_2613_17467)" stroke-width="7.82"/>
<path d="M148.419 31.692L131.353 83.4034V129.729L134.23 135.904L185.708 31.692H148.419Z" stroke="url(#paint9_linear_2613_17467)" stroke-width="7.82"/>
<rect x="89.9862" y="31.692" width="32.8269" height="133.249" stroke="url(#paint10_linear_2613_17467)" stroke-width="7.82"/>
</g>
<defs>
<linearGradient id="paint0_linear_2613_17467" x1="17.4009" y1="53.5696" x2="71.7294" y2="53.5696" gradientUnits="userSpaceOnUse">
<stop stop-color="#EC5200"/>
<stop offset="1" stop-color="#7F2D00"/>
</linearGradient>
<linearGradient id="paint1_linear_2613_17467" x1="44.5054" y1="27.0863" x2="13.2217" y2="78.371" gradientUnits="userSpaceOnUse">
<stop stop-color="#009AEC"/>
<stop offset="1" stop-color="#005380"/>
</linearGradient>
<linearGradient id="paint2_linear_2613_17467" x1="17.4009" y1="53.5696" x2="71.7294" y2="53.5696" gradientUnits="userSpaceOnUse">
<stop stop-color="#EC5200"/>
<stop offset="1" stop-color="#7F2D00"/>
</linearGradient>
<linearGradient id="paint3_linear_2613_17467" x1="44.5054" y1="27.0863" x2="13.2217" y2="78.371" gradientUnits="userSpaceOnUse">
<stop stop-color="#009AEC"/>
<stop offset="1" stop-color="#005380"/>
</linearGradient>
<linearGradient id="paint4_linear_2613_17467" x1="107.231" y1="113.857" x2="107.231" y2="66.0374" gradientUnits="userSpaceOnUse">
<stop stop-color="#EC5200"/>
<stop offset="1" stop-color="#7F2D00"/>
</linearGradient>
<linearGradient id="paint5_linear_2613_17467" x1="107.231" y1="113.857" x2="107.231" y2="66.0374" gradientUnits="userSpaceOnUse">
<stop stop-color="#EC5200"/>
<stop offset="1" stop-color="#7F2D00"/>
</linearGradient>
<linearGradient id="paint6_linear_2613_17467" x1="107.23" y1="89.9483" x2="107.23" y2="137.768" gradientUnits="userSpaceOnUse">
<stop stop-color="#EC5200"/>
<stop offset="1" stop-color="#7F2D00"/>
</linearGradient>
<linearGradient id="paint7_linear_2613_17467" x1="107.23" y1="89.9483" x2="107.23" y2="137.768" gradientUnits="userSpaceOnUse">
<stop stop-color="#EC5200"/>
<stop offset="1" stop-color="#7F2D00"/>
</linearGradient>
<linearGradient id="paint8_linear_2613_17467" x1="163.308" y1="104.294" x2="163.308" y2="168.851" gradientUnits="userSpaceOnUse">
<stop stop-color="#009AEC"/>
<stop offset="1" stop-color="#005380"/>
</linearGradient>
<linearGradient id="paint9_linear_2613_17467" x1="159.722" y1="27.782" x2="159.722" y2="144.941" gradientUnits="userSpaceOnUse">
<stop stop-color="#009AEC"/>
<stop offset="1" stop-color="#005380"/>
</linearGradient>
<linearGradient id="paint10_linear_2613_17467" x1="106.4" y1="27.782" x2="106.4" y2="168.851" gradientUnits="userSpaceOnUse">
<stop stop-color="#009AEC"/>
<stop offset="1" stop-color="#005380"/>
</linearGradient>
<clipPath id="clip0_2613_17467">
<rect width="192" height="192" fill="white"/>
</clipPath>
</defs>
</svg>
