<svg width="96" height="96" viewBox="0 0 96 96" fill="none" xmlns="http://www.w3.org/2000/svg">
<g clip-path="url(#clip0_2613_17465)">
<path d="M33.4009 24.8221C32.2787 24.8221 31.3315 25.5775 31.0356 26.6058H21.1885L18.4479 23.8655H25.0565C25.3524 24.8939 26.2999 25.6493 27.4218 25.6493C28.7798 25.6493 29.8844 24.5444 29.8844 23.1864C29.8844 21.8284 28.7798 20.7235 27.4218 20.7235C26.2996 20.7235 25.3521 21.4789 25.0565 22.5073H17.0896L15.2833 20.7009L8.69922 27.285L15.2833 33.869L17.0896 32.0624H25.0563C25.3521 33.0908 26.2996 33.8461 27.4215 33.8461C28.7795 33.8461 29.8841 32.7412 29.8841 31.3832C29.8841 30.0253 28.7795 28.9206 27.4215 28.9206C26.2993 28.9206 25.3518 29.6757 25.0563 30.7041H18.4479L21.1882 27.9638H31.0354C31.3312 28.9922 32.2784 29.7473 33.4006 29.7473C34.7586 29.7473 35.8635 28.6427 35.8635 27.2847C35.8638 25.9267 34.7589 24.8221 33.4009 24.8221ZM27.4221 22.0815C28.0311 22.0815 28.5264 22.5771 28.5264 23.1861C28.5264 23.7952 28.0311 24.2907 27.4221 24.2907C26.813 24.2907 26.3175 23.7952 26.3175 23.1861C26.3175 22.5771 26.813 22.0815 27.4221 22.0815ZM27.4221 30.2789C28.0311 30.2789 28.5264 30.7742 28.5264 31.3832C28.5264 31.9923 28.0311 32.4879 27.4221 32.4879C26.813 32.4879 26.3175 31.9923 26.3175 31.3832C26.3175 30.7742 26.813 30.2789 27.4221 30.2789ZM15.2836 31.9483L10.6202 27.285L15.2836 22.6216L19.9469 27.285L15.2836 31.9483ZM33.4009 28.3893C32.7918 28.3893 32.2966 27.894 32.2966 27.285C32.2966 26.6759 32.7918 26.1803 33.4009 26.1803C34.0099 26.1803 34.5055 26.6759 34.5055 27.285C34.5055 27.8937 34.0099 28.3893 33.4009 28.3893Z" fill="url(#paint0_linear_2613_17465)"/>
<path d="M24.8797 32.9746H20.3981L15.285 38.0878L4.48183 27.2847L15.285 16.4818L20.3981 21.595H24.88L15.285 12L0 27.2847L15.285 42.5693L24.8797 32.9746Z" fill="url(#paint1_linear_2613_17465)"/>
<path d="M33.4009 24.8221C32.2787 24.8221 31.3315 25.5775 31.0356 26.6058H21.1885L18.4479 23.8655H25.0565C25.3524 24.8939 26.2999 25.6493 27.4218 25.6493C28.7798 25.6493 29.8844 24.5444 29.8844 23.1864C29.8844 21.8284 28.7798 20.7235 27.4218 20.7235C26.2996 20.7235 25.3521 21.4789 25.0565 22.5073H17.0896L15.2833 20.7009L8.69922 27.285L15.2833 33.869L17.0896 32.0624H25.0563C25.3521 33.0908 26.2996 33.8461 27.4215 33.8461C28.7795 33.8461 29.8841 32.7412 29.8841 31.3832C29.8841 30.0253 28.7795 28.9206 27.4215 28.9206C26.2993 28.9206 25.3518 29.6757 25.0563 30.7041H18.4479L21.1882 27.9638H31.0354C31.3312 28.9922 32.2784 29.7473 33.4006 29.7473C34.7586 29.7473 35.8635 28.6427 35.8635 27.2847C35.8638 25.9267 34.7589 24.8221 33.4009 24.8221ZM27.4221 22.0815C28.0311 22.0815 28.5264 22.5771 28.5264 23.1861C28.5264 23.7952 28.0311 24.2907 27.4221 24.2907C26.813 24.2907 26.3175 23.7952 26.3175 23.1861C26.3175 22.5771 26.813 22.0815 27.4221 22.0815ZM27.4221 30.2789C28.0311 30.2789 28.5264 30.7742 28.5264 31.3832C28.5264 31.9923 28.0311 32.4879 27.4221 32.4879C26.813 32.4879 26.3175 31.9923 26.3175 31.3832C26.3175 30.7742 26.813 30.2789 27.4221 30.2789ZM15.2836 31.9483L10.6202 27.285L15.2836 22.6216L19.9469 27.285L15.2836 31.9483ZM33.4009 28.3893C32.7918 28.3893 32.2966 27.894 32.2966 27.285C32.2966 26.6759 32.7918 26.1803 33.4009 26.1803C34.0099 26.1803 34.5055 26.6759 34.5055 27.285C34.5055 27.8937 34.0099 28.3893 33.4009 28.3893Z" fill="url(#paint2_linear_2613_17465)"/>
<path d="M24.8797 32.9746H20.3981L15.285 38.0878L4.48183 27.2847L15.285 16.4818L20.3981 21.595H24.88L15.285 12L0 27.2847L15.285 42.5693L24.8797 32.9746Z" fill="url(#paint3_linear_2613_17465)"/>
<path d="M51.4458 35.6864C51.4458 36.6742 52.1107 37.5079 53.0158 37.7683V46.4358L50.6038 48.848V43.0311C51.509 42.7707 52.1739 41.9367 52.1739 40.9492C52.1739 39.7539 51.2014 38.7816 50.0061 38.7816C48.8108 38.7816 47.8382 39.7539 47.8382 40.9492C47.8382 41.937 48.5031 42.7709 49.4083 43.0311V50.0436L47.8184 51.6335L53.6136 57.4288L59.4089 51.6335L57.8187 50.0436V43.0313C58.7239 42.7709 59.3887 41.937 59.3887 40.9495C59.3887 39.7542 58.4162 38.7819 57.2209 38.7819C56.0256 38.7819 55.0533 39.7542 55.0533 40.9495C55.0533 41.9372 55.718 42.7712 56.6231 43.0313V48.848L54.2111 46.436V37.7686C55.1163 37.5081 55.7809 36.6744 55.7809 35.6867C55.7809 34.4914 54.8087 33.5188 53.6134 33.5188C52.4181 33.5186 51.4458 34.4911 51.4458 35.6864ZM49.0335 40.9489C49.0335 40.4129 49.4697 39.9769 50.0058 39.9769C50.5419 39.9769 50.9781 40.4129 50.9781 40.9489C50.9781 41.485 50.5419 41.9212 50.0058 41.9212C49.4697 41.9212 49.0335 41.485 49.0335 40.9489ZM56.2489 40.9489C56.2489 40.4129 56.6848 39.9769 57.2209 39.9769C57.757 39.9769 58.1932 40.4129 58.1932 40.9489C58.1932 41.485 57.757 41.9212 57.2209 41.9212C56.6848 41.9212 56.2489 41.485 56.2489 40.9489ZM57.7183 51.6333L53.6136 55.7379L49.509 51.6333L53.6136 47.5286L57.7183 51.6333ZM54.5857 35.6864C54.5857 36.2225 54.1497 36.6584 53.6136 36.6584C53.0775 36.6584 52.6413 36.2225 52.6413 35.6864C52.6413 35.1503 53.0775 34.7141 53.6136 34.7141C54.1495 34.7141 54.5857 35.1503 54.5857 35.6864Z" fill="url(#paint4_linear_2613_17465)"/>
<path d="M51.4458 35.6864C51.4458 36.6742 52.1107 37.5079 53.0158 37.7683V46.4358L50.6038 48.848V43.0311C51.509 42.7707 52.1739 41.9367 52.1739 40.9492C52.1739 39.7539 51.2014 38.7816 50.0061 38.7816C48.8108 38.7816 47.8382 39.7539 47.8382 40.9492C47.8382 41.937 48.5031 42.7709 49.4083 43.0311V50.0436L47.8184 51.6335L53.6136 57.4288L59.4089 51.6335L57.8187 50.0436V43.0313C58.7239 42.7709 59.3887 41.937 59.3887 40.9495C59.3887 39.7542 58.4162 38.7819 57.2209 38.7819C56.0256 38.7819 55.0533 39.7542 55.0533 40.9495C55.0533 41.9372 55.718 42.7712 56.6231 43.0313V48.848L54.2111 46.436V37.7686C55.1163 37.5081 55.7809 36.6744 55.7809 35.6867C55.7809 34.4914 54.8087 33.5188 53.6134 33.5188C52.4181 33.5186 51.4458 34.4911 51.4458 35.6864ZM49.0335 40.9489C49.0335 40.4129 49.4697 39.9769 50.0058 39.9769C50.5419 39.9769 50.9781 40.4129 50.9781 40.9489C50.9781 41.485 50.5419 41.9212 50.0058 41.9212C49.4697 41.9212 49.0335 41.485 49.0335 40.9489ZM56.2489 40.9489C56.2489 40.4129 56.6848 39.9769 57.2209 39.9769C57.757 39.9769 58.1932 40.4129 58.1932 40.9489C58.1932 41.485 57.757 41.9212 57.2209 41.9212C56.6848 41.9212 56.2489 41.485 56.2489 40.9489ZM57.7183 51.6333L53.6136 55.7379L49.509 51.6333L53.6136 47.5286L57.7183 51.6333ZM54.5857 35.6864C54.5857 36.2225 54.1497 36.6584 53.6136 36.6584C53.0775 36.6584 52.6413 36.2225 52.6413 35.6864C52.6413 35.1503 53.0775 34.7141 53.6136 34.7141C54.1495 34.7141 54.5857 35.1503 54.5857 35.6864Z" fill="url(#paint5_linear_2613_17465)"/>
<path d="M55.7827 67.2163C55.7827 66.2285 55.1178 65.3948 54.2127 65.1344V56.4669L56.6247 54.0547V59.8716C55.7195 60.1321 55.0546 60.966 55.0546 61.9535C55.0546 63.1488 56.0272 64.1211 57.2224 64.1211C58.4177 64.1211 59.3903 63.1488 59.3903 61.9535C59.3903 60.9657 58.7254 60.1318 57.8202 59.8716V52.8591L59.4102 51.2692L53.6149 45.4739L47.8196 51.2692L49.4098 52.8591V59.8714C48.5046 60.1318 47.8398 60.9657 47.8398 61.9533C47.8398 63.1485 48.8123 64.1208 50.0076 64.1208C51.2029 64.1208 52.1752 63.1485 52.1752 61.9533C52.1752 60.9655 51.5106 60.1315 50.6054 59.8714V54.0547L53.0174 56.4667V65.1342C52.1122 65.3946 51.4476 66.2283 51.4476 67.216C51.4476 68.4113 52.4199 69.3839 53.6152 69.3839C54.8104 69.3841 55.7827 68.4116 55.7827 67.2163ZM58.195 61.9538C58.195 62.4899 57.7588 62.9258 57.2227 62.9258C56.6866 62.9258 56.2504 62.4899 56.2504 61.9538C56.2504 61.4177 56.6866 60.9815 57.2227 60.9815C57.7588 60.9815 58.195 61.4177 58.195 61.9538ZM50.9796 61.9538C50.9796 62.4899 50.5437 62.9258 50.0076 62.9258C49.4715 62.9258 49.0353 62.4899 49.0353 61.9538C49.0353 61.4177 49.4715 60.9815 50.0076 60.9815C50.5437 60.9815 50.9796 61.4177 50.9796 61.9538ZM49.5102 51.2695L53.6149 47.1648L57.7196 51.2695L53.6149 55.3741L49.5102 51.2695ZM52.6429 67.2163C52.6429 66.6802 53.0788 66.2443 53.6149 66.2443C54.151 66.2443 54.5872 66.6802 54.5872 67.2163C54.5872 67.7524 54.151 68.1886 53.6149 68.1886C53.0791 68.1886 52.6429 67.7524 52.6429 67.2163Z" fill="url(#paint6_linear_2613_17465)"/>
<path d="M55.7827 67.2163C55.7827 66.2285 55.1178 65.3948 54.2127 65.1344V56.4669L56.6247 54.0547V59.8716C55.7195 60.1321 55.0546 60.966 55.0546 61.9535C55.0546 63.1488 56.0272 64.1211 57.2224 64.1211C58.4177 64.1211 59.3903 63.1488 59.3903 61.9535C59.3903 60.9657 58.7254 60.1318 57.8202 59.8716V52.8591L59.4102 51.2692L53.6149 45.4739L47.8196 51.2692L49.4098 52.8591V59.8714C48.5046 60.1318 47.8398 60.9657 47.8398 61.9533C47.8398 63.1485 48.8123 64.1208 50.0076 64.1208C51.2029 64.1208 52.1752 63.1485 52.1752 61.9533C52.1752 60.9655 51.5106 60.1315 50.6054 59.8714V54.0547L53.0174 56.4667V65.1342C52.1122 65.3946 51.4476 66.2283 51.4476 67.216C51.4476 68.4113 52.4199 69.3839 53.6152 69.3839C54.8104 69.3841 55.7827 68.4116 55.7827 67.2163ZM58.195 61.9538C58.195 62.4899 57.7588 62.9258 57.2227 62.9258C56.6866 62.9258 56.2504 62.4899 56.2504 61.9538C56.2504 61.4177 56.6866 60.9815 57.2227 60.9815C57.7588 60.9815 58.195 61.4177 58.195 61.9538ZM50.9796 61.9538C50.9796 62.4899 50.5437 62.9258 50.0076 62.9258C49.4715 62.9258 49.0353 62.4899 49.0353 61.9538C49.0353 61.4177 49.4715 60.9815 50.0076 60.9815C50.5437 60.9815 50.9796 61.4177 50.9796 61.9538ZM49.5102 51.2695L53.6149 47.1648L57.7196 51.2695L53.6149 55.3741L49.5102 51.2695ZM52.6429 67.2163C52.6429 66.6802 53.0788 66.2443 53.6149 66.2443C54.151 66.2443 54.5872 66.6802 54.5872 67.2163C54.5872 67.7524 54.151 68.1886 53.6149 68.1886C53.0791 68.1886 52.6429 67.7524 52.6429 67.2163Z" fill="url(#paint7_linear_2613_17465)"/>
<path d="M1.79297 69.5228V39.4964L15.2013 52.0074L28.0939 39.4964V69.5228L15.2013 82.5343L1.79297 69.5228Z" stroke="#015C8E" stroke-width="3.9"/>
<path d="M92.6321 82.9754L77.6136 56.8142L69.4749 73.5704L74.0196 82.9754H92.6321Z" stroke="url(#paint8_linear_2613_17465)" stroke-width="3.9"/>
<path d="M67.115 68.4635L92.8618 16.3411H74.2061L65.6716 42.201V65.3655L67.115 68.4635Z" stroke="url(#paint9_linear_2613_17465)" stroke-width="3.9"/>
<rect x="44.9891" y="16.3411" width="16.4234" height="66.6343" stroke="url(#paint10_linear_2613_17465)" stroke-width="3.9"/>
</g>
<defs>
<linearGradient id="paint0_linear_2613_17465" x1="8.69948" y1="27.2848" x2="35.8637" y2="27.2848" gradientUnits="userSpaceOnUse">
<stop stop-color="#EC5200"/>
<stop offset="1" stop-color="#7F2D00"/>
</linearGradient>
<linearGradient id="paint1_linear_2613_17465" x1="22.2527" y1="14.0432" x2="6.61085" y2="39.6855" gradientUnits="userSpaceOnUse">
<stop stop-color="#009AEC"/>
<stop offset="1" stop-color="#005380"/>
</linearGradient>
<linearGradient id="paint2_linear_2613_17465" x1="8.69948" y1="27.2848" x2="35.8637" y2="27.2848" gradientUnits="userSpaceOnUse">
<stop stop-color="#EC5200"/>
<stop offset="1" stop-color="#7F2D00"/>
</linearGradient>
<linearGradient id="paint3_linear_2613_17465" x1="22.2527" y1="14.0432" x2="6.61085" y2="39.6855" gradientUnits="userSpaceOnUse">
<stop stop-color="#009AEC"/>
<stop offset="1" stop-color="#005380"/>
</linearGradient>
<linearGradient id="paint4_linear_2613_17465" x1="53.6135" y1="57.4285" x2="53.6135" y2="33.5186" gradientUnits="userSpaceOnUse">
<stop stop-color="#EC5200"/>
<stop offset="1" stop-color="#7F2D00"/>
</linearGradient>
<linearGradient id="paint5_linear_2613_17465" x1="53.6135" y1="57.4285" x2="53.6135" y2="33.5186" gradientUnits="userSpaceOnUse">
<stop stop-color="#EC5200"/>
<stop offset="1" stop-color="#7F2D00"/>
</linearGradient>
<linearGradient id="paint6_linear_2613_17465" x1="53.615" y1="45.4742" x2="53.615" y2="69.3841" gradientUnits="userSpaceOnUse">
<stop stop-color="#EC5200"/>
<stop offset="1" stop-color="#7F2D00"/>
</linearGradient>
<linearGradient id="paint7_linear_2613_17465" x1="53.615" y1="45.4742" x2="53.615" y2="69.3841" gradientUnits="userSpaceOnUse">
<stop stop-color="#EC5200"/>
<stop offset="1" stop-color="#7F2D00"/>
</linearGradient>
<linearGradient id="paint8_linear_2613_17465" x1="81.654" y1="52.647" x2="81.654" y2="84.9254" gradientUnits="userSpaceOnUse">
<stop stop-color="#009AEC"/>
<stop offset="1" stop-color="#005380"/>
</linearGradient>
<linearGradient id="paint9_linear_2613_17465" x1="79.8608" y1="14.3911" x2="79.8608" y2="72.9705" gradientUnits="userSpaceOnUse">
<stop stop-color="#009AEC"/>
<stop offset="1" stop-color="#005380"/>
</linearGradient>
<linearGradient id="paint10_linear_2613_17465" x1="53.2008" y1="14.3911" x2="53.2008" y2="84.9254" gradientUnits="userSpaceOnUse">
<stop stop-color="#009AEC"/>
<stop offset="1" stop-color="#005380"/>
</linearGradient>
<clipPath id="clip0_2613_17465">
<rect width="96" height="96" fill="white"/>
</clipPath>
</defs>
</svg>
