<svg width="96" height="96" viewBox="0 0 96 96" fill="none" xmlns="http://www.w3.org/2000/svg">
<g clip-path="url(#clip0_2613_17465)">
<path d="M51.4443 35.6919C51.4443 36.6798 52.1093 37.5136 53.0146 37.774V46.4427L50.6023 48.8553V43.0376C51.5076 42.7771 52.1726 41.943 52.1726 40.9554C52.1726 39.7599 51.1999 38.7875 50.0044 38.7875C48.809 38.7875 47.8363 39.7599 47.8363 40.9554C47.8363 41.9433 48.5013 42.7774 49.4066 43.0376V50.051L47.8164 51.6412L53.6125 57.4373L59.4085 51.6412L57.8181 50.051V43.0378C58.7234 42.7774 59.3884 41.9433 59.3884 40.9556C59.3884 39.7602 58.4157 38.7878 57.2203 38.7878C56.0248 38.7878 55.0524 39.7602 55.0524 40.9556C55.0524 41.9436 55.7171 42.7776 56.6224 43.0378V48.8553L54.2101 46.443V37.7743C55.1154 37.5138 55.7801 36.68 55.7801 35.6921C55.7801 34.4967 54.8077 33.524 53.6122 33.524C52.4168 33.5237 51.4443 34.4964 51.4443 35.6919ZM49.0317 40.9551C49.0317 40.419 49.468 39.983 50.0042 39.983C50.5403 39.983 50.9766 40.419 50.9766 40.9551C50.9766 41.4913 50.5403 41.9276 50.0042 41.9276C49.468 41.9276 49.0317 41.4913 49.0317 40.9551ZM56.2481 40.9551C56.2481 40.419 56.6841 39.983 57.2203 39.983C57.7564 39.983 58.1927 40.419 58.1927 40.9551C58.1927 41.4913 57.7564 41.9276 57.2203 41.9276C56.6841 41.9276 56.2481 41.4913 56.2481 40.9551ZM57.7177 51.6409L53.6125 55.7462L49.5072 51.6409L53.6125 47.5357L57.7177 51.6409ZM54.5846 35.6919C54.5846 36.228 54.1486 36.664 53.6125 36.664C53.0763 36.664 52.6401 36.228 52.6401 35.6919C52.6401 35.1557 53.0763 34.7194 53.6125 34.7194C54.1484 34.7194 54.5846 35.1557 54.5846 35.6919Z" fill="url(#paint0_linear_2613_17465)"/>
<path d="M51.4443 35.6919C51.4443 36.6798 52.1093 37.5136 53.0146 37.774V46.4427L50.6023 48.8553V43.0376C51.5076 42.7771 52.1726 41.943 52.1726 40.9554C52.1726 39.7599 51.1999 38.7875 50.0044 38.7875C48.809 38.7875 47.8363 39.7599 47.8363 40.9554C47.8363 41.9433 48.5013 42.7774 49.4066 43.0376V50.051L47.8164 51.6412L53.6125 57.4373L59.4085 51.6412L57.8181 50.051V43.0378C58.7234 42.7774 59.3884 41.9433 59.3884 40.9556C59.3884 39.7602 58.4157 38.7878 57.2203 38.7878C56.0248 38.7878 55.0524 39.7602 55.0524 40.9556C55.0524 41.9436 55.7171 42.7776 56.6224 43.0378V48.8553L54.2101 46.443V37.7743C55.1154 37.5138 55.7801 36.68 55.7801 35.6921C55.7801 34.4967 54.8077 33.524 53.6122 33.524C52.4168 33.5237 51.4443 34.4964 51.4443 35.6919ZM49.0317 40.9551C49.0317 40.419 49.468 39.983 50.0042 39.983C50.5403 39.983 50.9766 40.419 50.9766 40.9551C50.9766 41.4913 50.5403 41.9276 50.0042 41.9276C49.468 41.9276 49.0317 41.4913 49.0317 40.9551ZM56.2481 40.9551C56.2481 40.419 56.6841 39.983 57.2203 39.983C57.7564 39.983 58.1927 40.419 58.1927 40.9551C58.1927 41.4913 57.7564 41.9276 57.2203 41.9276C56.6841 41.9276 56.2481 41.4913 56.2481 40.9551ZM57.7177 51.6409L53.6125 55.7462L49.5072 51.6409L53.6125 47.5357L57.7177 51.6409ZM54.5846 35.6919C54.5846 36.228 54.1486 36.664 53.6125 36.664C53.0763 36.664 52.6401 36.228 52.6401 35.6919C52.6401 35.1557 53.0763 34.7194 53.6125 34.7194C54.1484 34.7194 54.5846 35.1557 54.5846 35.6919Z" fill="url(#paint1_linear_2613_17465)"/>
<path d="M55.7822 67.2243C55.7822 66.2364 55.1173 65.4026 54.2119 65.1421V56.4734L56.6243 54.0608V59.8786C55.719 60.139 55.054 60.9731 55.054 61.9607C55.054 63.1562 56.0267 64.1286 57.2221 64.1286C58.4176 64.1286 59.3903 63.1562 59.3903 61.9607C59.3903 60.9728 58.7253 60.1388 57.82 59.8786V52.8651L59.4102 51.2749L53.6141 45.4789L47.818 51.2749L49.4084 52.8651V59.8783C48.5031 60.1388 47.8382 60.9728 47.8382 61.9605C47.8382 63.1559 48.8108 64.1284 50.0063 64.1284C51.2018 64.1284 52.1742 63.1559 52.1742 61.9605C52.1742 60.9726 51.5095 60.1385 50.6042 59.8783V54.0608L53.0165 56.4732V65.1418C52.1112 65.4023 51.4465 66.2361 51.4465 67.224C51.4465 68.4195 52.4189 69.3921 53.6143 69.3921C54.8098 69.3924 55.7822 68.4197 55.7822 67.2243ZM58.1948 61.961C58.1948 62.4972 57.7586 62.9332 57.2224 62.9332C56.6862 62.9332 56.25 62.4972 56.25 61.961C56.25 61.4248 56.6862 60.9886 57.2224 60.9886C57.7586 60.9886 58.1948 61.4248 58.1948 61.961ZM50.9785 61.961C50.9785 62.4972 50.5425 62.9332 50.0063 62.9332C49.4701 62.9332 49.0339 62.4972 49.0339 61.961C49.0339 61.4248 49.4701 60.9886 50.0063 60.9886C50.5425 60.9886 50.9785 61.4248 50.9785 61.961ZM49.5089 51.2752L53.6141 47.17L57.7193 51.2752L53.6141 55.3804L49.5089 51.2752ZM52.6419 67.2243C52.6419 66.6881 53.0779 66.2521 53.6141 66.2521C54.1502 66.2521 54.5865 66.6881 54.5865 67.2243C54.5865 67.7604 54.1502 68.1967 53.6141 68.1967C53.0782 68.1967 52.6419 67.7604 52.6419 67.2243Z" fill="url(#paint2_linear_2613_17465)"/>
<path d="M55.7822 67.2243C55.7822 66.2364 55.1173 65.4026 54.2119 65.1421V56.4734L56.6243 54.0608V59.8786C55.719 60.139 55.054 60.9731 55.054 61.9607C55.054 63.1562 56.0267 64.1286 57.2221 64.1286C58.4176 64.1286 59.3903 63.1562 59.3903 61.9607C59.3903 60.9728 58.7253 60.1388 57.82 59.8786V52.8651L59.4102 51.2749L53.6141 45.4789L47.818 51.2749L49.4084 52.8651V59.8783C48.5031 60.1388 47.8382 60.9728 47.8382 61.9605C47.8382 63.1559 48.8108 64.1284 50.0063 64.1284C51.2018 64.1284 52.1742 63.1559 52.1742 61.9605C52.1742 60.9726 51.5095 60.1385 50.6042 59.8783V54.0608L53.0165 56.4732V65.1418C52.1112 65.4023 51.4465 66.2361 51.4465 67.224C51.4465 68.4195 52.4189 69.3921 53.6143 69.3921C54.8098 69.3924 55.7822 68.4197 55.7822 67.2243ZM58.1948 61.961C58.1948 62.4972 57.7586 62.9332 57.2224 62.9332C56.6862 62.9332 56.25 62.4972 56.25 61.961C56.25 61.4248 56.6862 60.9886 57.2224 60.9886C57.7586 60.9886 58.1948 61.4248 58.1948 61.961ZM50.9785 61.961C50.9785 62.4972 50.5425 62.9332 50.0063 62.9332C49.4701 62.9332 49.0339 62.4972 49.0339 61.961C49.0339 61.4248 49.4701 60.9886 50.0063 60.9886C50.5425 60.9886 50.9785 61.4248 50.9785 61.961ZM49.5089 51.2752L53.6141 47.17L57.7193 51.2752L53.6141 55.3804L49.5089 51.2752ZM52.6419 67.2243C52.6419 66.6881 53.0779 66.2521 53.6141 66.2521C54.1502 66.2521 54.5865 66.6881 54.5865 67.2243C54.5865 67.7604 54.1502 68.1967 53.6141 68.1967C53.0782 68.1967 52.6419 67.7604 52.6419 67.2243Z" fill="url(#paint3_linear_2613_17465)"/>
<path d="M1.79297 69.5315V39.5009L15.2031 52.0136L28.0976 39.5009V69.5315L15.2031 82.5447L1.79297 69.5315Z" fill="#015C8E" stroke="#015C8E" stroke-width="0.65"/>
<path d="M95.4387 84.611L77.4912 53.3476L67.6652 73.5775L72.9969 84.611H95.4387Z" fill="url(#paint4_linear_2613_17465)" stroke="url(#paint5_linear_2613_17465)" stroke-width="0.65"/>
<path d="M67.0682 72.2283L95.477 14.717H73.0279L64.0421 41.9445V65.7335L67.0682 72.2283Z" fill="url(#paint6_linear_2613_17465)" stroke="url(#paint7_linear_2613_17465)" stroke-width="0.65"/>
<rect x="43.3602" y="14.717" width="19.6763" height="69.8941" fill="url(#paint8_linear_2613_17465)" stroke="url(#paint9_linear_2613_17465)" stroke-width="0.65"/>
<rect y="27.2756" width="21.603" height="21.603" transform="rotate(-45 0 27.2756)" fill="url(#paint10_linear_2613_17465)"/>
</g>
<defs>
<linearGradient id="paint0_linear_2613_17465" x1="53.6123" y1="57.437" x2="53.6123" y2="33.5238" gradientUnits="userSpaceOnUse">
<stop stop-color="#EC5200"/>
<stop offset="1" stop-color="#7F2D00"/>
</linearGradient>
<linearGradient id="paint1_linear_2613_17465" x1="53.6123" y1="57.437" x2="53.6123" y2="33.5238" gradientUnits="userSpaceOnUse">
<stop stop-color="#EC5200"/>
<stop offset="1" stop-color="#7F2D00"/>
</linearGradient>
<linearGradient id="paint2_linear_2613_17465" x1="53.6142" y1="45.4791" x2="53.6142" y2="69.3924" gradientUnits="userSpaceOnUse">
<stop stop-color="#EC5200"/>
<stop offset="1" stop-color="#7F2D00"/>
</linearGradient>
<linearGradient id="paint3_linear_2613_17465" x1="53.6142" y1="45.4791" x2="53.6142" y2="69.3924" gradientUnits="userSpaceOnUse">
<stop stop-color="#EC5200"/>
<stop offset="1" stop-color="#7F2D00"/>
</linearGradient>
<linearGradient id="paint4_linear_2613_17465" x1="81.652" y1="52.6531" x2="81.652" y2="84.936" gradientUnits="userSpaceOnUse">
<stop stop-color="#009AEC"/>
<stop offset="1" stop-color="#005380"/>
</linearGradient>
<linearGradient id="paint5_linear_2613_17465" x1="81.652" y1="52.6531" x2="81.652" y2="84.936" gradientUnits="userSpaceOnUse">
<stop stop-color="#009AEC"/>
<stop offset="1" stop-color="#005380"/>
</linearGradient>
<linearGradient id="paint6_linear_2613_17465" x1="79.8585" y1="14.392" x2="79.8585" y2="72.9795" gradientUnits="userSpaceOnUse">
<stop stop-color="#009AEC"/>
<stop offset="1" stop-color="#005380"/>
</linearGradient>
<linearGradient id="paint7_linear_2613_17465" x1="79.8585" y1="14.392" x2="79.8585" y2="72.9795" gradientUnits="userSpaceOnUse">
<stop stop-color="#009AEC"/>
<stop offset="1" stop-color="#005380"/>
</linearGradient>
<linearGradient id="paint8_linear_2613_17465" x1="53.1983" y1="14.392" x2="53.1983" y2="84.9361" gradientUnits="userSpaceOnUse">
<stop stop-color="#009AEC"/>
<stop offset="1" stop-color="#005380"/>
</linearGradient>
<linearGradient id="paint9_linear_2613_17465" x1="53.1983" y1="14.392" x2="53.1983" y2="84.9361" gradientUnits="userSpaceOnUse">
<stop stop-color="#009AEC"/>
<stop offset="1" stop-color="#005380"/>
</linearGradient>
<linearGradient id="paint10_linear_2613_17465" x1="19.3218" y1="28.7195" x2="9.4185" y2="48.6669" gradientUnits="userSpaceOnUse">
<stop stop-color="#009AEC"/>
<stop offset="1" stop-color="#005380"/>
</linearGradient>
<clipPath id="clip0_2613_17465">
<rect width="96" height="96" fill="white"/>
</clipPath>
</defs>
</svg>
