<svg width="48" height="48" viewBox="0 0 48 48" fill="none" xmlns="http://www.w3.org/2000/svg">
<g clip-path="url(#clip0_2613_17464)">
<path d="M16.7004 12.411C16.1393 12.411 15.6658 12.7887 15.5178 13.3029H10.5942L9.22394 11.9328H12.5283C12.6762 12.447 13.1499 12.8246 13.7109 12.8246C14.3899 12.8246 14.9422 12.2722 14.9422 11.5932C14.9422 10.9142 14.3899 10.3618 13.7109 10.3618C13.1498 10.3618 12.6761 10.7394 12.5283 11.2536H8.5448L7.64163 10.3505L4.34961 13.6425L7.64163 16.9345L8.5448 16.0312H12.5281C12.6761 16.5454 13.1498 16.9231 13.7108 16.9231C14.3897 16.9231 14.9421 16.3706 14.9421 15.6916C14.9421 15.0126 14.3897 14.4603 13.7108 14.4603C13.1496 14.4603 12.6759 14.8379 12.5281 15.3521H9.22394L10.5941 13.9819H15.5177C15.6656 14.4961 16.1392 14.8736 16.7003 14.8736C17.3793 14.8736 17.9317 14.3213 17.9317 13.6423C17.9319 12.9634 17.3794 12.411 16.7004 12.411ZM13.711 11.0407C14.0156 11.0407 14.2632 11.2885 14.2632 11.5931C14.2632 11.8976 14.0156 12.1454 13.711 12.1454C13.4065 12.1454 13.1587 11.8976 13.1587 11.5931C13.1587 11.2885 13.4065 11.0407 13.711 11.0407ZM13.711 15.1395C14.0156 15.1395 14.2632 15.3871 14.2632 15.6916C14.2632 15.9962 14.0156 16.2439 13.711 16.2439C13.4065 16.2439 13.1587 15.9962 13.1587 15.6916C13.1587 15.3871 13.4065 15.1395 13.711 15.1395ZM7.64178 15.9742L5.31011 13.6425L7.64178 11.3108L9.97345 13.6425L7.64178 15.9742ZM16.7004 14.1947C16.3959 14.1947 16.1483 13.947 16.1483 13.6425C16.1483 13.338 16.3959 13.0902 16.7004 13.0902C17.005 13.0902 17.2528 13.338 17.2528 13.6425C17.2528 13.9469 17.005 14.1947 16.7004 14.1947Z" fill="url(#paint0_linear_2613_17464)"/>
<path d="M12.4398 16.4873H10.1991L7.64248 19.0439L2.24092 13.6423L7.64248 8.24092L10.1991 10.7975H12.44L7.64248 6L0 13.6423L7.64248 21.2847L12.4398 16.4873Z" fill="url(#paint1_linear_2613_17464)"/>
<path d="M16.7004 12.411C16.1393 12.411 15.6658 12.7887 15.5178 13.3029H10.5942L9.22394 11.9328H12.5283C12.6762 12.447 13.1499 12.8246 13.7109 12.8246C14.3899 12.8246 14.9422 12.2722 14.9422 11.5932C14.9422 10.9142 14.3899 10.3618 13.7109 10.3618C13.1498 10.3618 12.6761 10.7394 12.5283 11.2536H8.5448L7.64163 10.3505L4.34961 13.6425L7.64163 16.9345L8.5448 16.0312H12.5281C12.6761 16.5454 13.1498 16.9231 13.7108 16.9231C14.3897 16.9231 14.9421 16.3706 14.9421 15.6916C14.9421 15.0126 14.3897 14.4603 13.7108 14.4603C13.1496 14.4603 12.6759 14.8379 12.5281 15.3521H9.22394L10.5941 13.9819H15.5177C15.6656 14.4961 16.1392 14.8736 16.7003 14.8736C17.3793 14.8736 17.9317 14.3213 17.9317 13.6423C17.9319 12.9634 17.3794 12.411 16.7004 12.411ZM13.711 11.0407C14.0156 11.0407 14.2632 11.2885 14.2632 11.5931C14.2632 11.8976 14.0156 12.1454 13.711 12.1454C13.4065 12.1454 13.1587 11.8976 13.1587 11.5931C13.1587 11.2885 13.4065 11.0407 13.711 11.0407ZM13.711 15.1395C14.0156 15.1395 14.2632 15.3871 14.2632 15.6916C14.2632 15.9962 14.0156 16.2439 13.711 16.2439C13.4065 16.2439 13.1587 15.9962 13.1587 15.6916C13.1587 15.3871 13.4065 15.1395 13.711 15.1395ZM7.64178 15.9742L5.31011 13.6425L7.64178 11.3108L9.97345 13.6425L7.64178 15.9742ZM16.7004 14.1947C16.3959 14.1947 16.1483 13.947 16.1483 13.6425C16.1483 13.338 16.3959 13.0902 16.7004 13.0902C17.005 13.0902 17.2528 13.338 17.2528 13.6425C17.2528 13.9469 17.005 14.1947 16.7004 14.1947Z" fill="url(#paint2_linear_2613_17464)"/>
<path d="M12.4398 16.4873H10.1991L7.64248 19.0439L2.24092 13.6423L7.64248 8.24092L10.1991 10.7975H12.44L7.64248 6L0 13.6423L7.64248 21.2847L12.4398 16.4873Z" fill="url(#paint3_linear_2613_17464)"/>
<path d="M25.7239 17.8433C25.7239 18.3372 26.0563 18.754 26.5089 18.8842V23.218L25.3029 24.4241V21.5156C25.7555 21.3854 26.0879 20.9684 26.0879 20.4747C26.0879 19.877 25.6017 19.3909 25.004 19.3909C24.4064 19.3909 23.9201 19.877 23.9201 20.4747C23.9201 20.9686 24.2525 21.3855 24.7051 21.5156V25.0219L23.9102 25.8168L26.8078 28.7145L29.7054 25.8168L28.9103 25.0219V21.5158C29.3629 21.3855 29.6954 20.9686 29.6954 20.4748C29.6954 19.8772 29.2091 19.391 28.6114 19.391C28.0138 19.391 27.5276 19.8772 27.5276 20.4748C27.5276 20.9687 27.86 21.3857 28.3125 21.5158V24.4241L27.1065 23.2181V18.8844C27.5591 18.7542 27.8914 18.3373 27.8914 17.8434C27.8914 17.2458 27.4053 16.7595 26.8077 16.7595C26.21 16.7594 25.7239 17.2457 25.7239 17.8433ZM24.5177 20.4746C24.5177 20.2065 24.7358 19.9885 25.0039 19.9885C25.2719 19.9885 25.49 20.2065 25.49 20.4746C25.49 20.7426 25.2719 20.9607 25.0039 20.9607C24.7358 20.9607 24.5177 20.7426 24.5177 20.4746ZM28.1254 20.4746C28.1254 20.2065 28.3434 19.9885 28.6114 19.9885C28.8795 19.9885 29.0976 20.2065 29.0976 20.4746C29.0976 20.7426 28.8795 20.9607 28.6114 20.9607C28.3434 20.9607 28.1254 20.7426 28.1254 20.4746ZM28.8601 25.8167L26.8078 27.8691L24.7555 25.8167L26.8078 23.7644L28.8601 25.8167ZM27.2938 17.8433C27.2938 18.1113 27.0758 18.3293 26.8078 18.3293C26.5397 18.3293 26.3216 18.1113 26.3216 17.8433C26.3216 17.5753 26.5397 17.3572 26.8078 17.3572C27.0757 17.3572 27.2938 17.5753 27.2938 17.8433Z" fill="url(#paint4_linear_2613_17464)"/>
<path d="M25.7239 17.8433C25.7239 18.3372 26.0563 18.754 26.5089 18.8842V23.218L25.3029 24.4241V21.5156C25.7555 21.3854 26.0879 20.9684 26.0879 20.4747C26.0879 19.877 25.6017 19.3909 25.004 19.3909C24.4064 19.3909 23.9201 19.877 23.9201 20.4747C23.9201 20.9686 24.2525 21.3855 24.7051 21.5156V25.0219L23.9102 25.8168L26.8078 28.7145L29.7054 25.8168L28.9103 25.0219V21.5158C29.3629 21.3855 29.6954 20.9686 29.6954 20.4748C29.6954 19.8772 29.2091 19.391 28.6114 19.391C28.0138 19.391 27.5276 19.8772 27.5276 20.4748C27.5276 20.9687 27.86 21.3857 28.3125 21.5158V24.4241L27.1065 23.2181V18.8844C27.5591 18.7542 27.8914 18.3373 27.8914 17.8434C27.8914 17.2458 27.4053 16.7595 26.8077 16.7595C26.21 16.7594 25.7239 17.2457 25.7239 17.8433ZM24.5177 20.4746C24.5177 20.2065 24.7358 19.9885 25.0039 19.9885C25.2719 19.9885 25.49 20.2065 25.49 20.4746C25.49 20.7426 25.2719 20.9607 25.0039 20.9607C24.7358 20.9607 24.5177 20.7426 24.5177 20.4746ZM28.1254 20.4746C28.1254 20.2065 28.3434 19.9885 28.6114 19.9885C28.8795 19.9885 29.0976 20.2065 29.0976 20.4746C29.0976 20.7426 28.8795 20.9607 28.6114 20.9607C28.3434 20.9607 28.1254 20.7426 28.1254 20.4746ZM28.8601 25.8167L26.8078 27.8691L24.7555 25.8167L26.8078 23.7644L28.8601 25.8167ZM27.2938 17.8433C27.2938 18.1113 27.0758 18.3293 26.8078 18.3293C26.5397 18.3293 26.3216 18.1113 26.3216 17.8433C26.3216 17.5753 26.5397 17.3572 26.8078 17.3572C27.0757 17.3572 27.2938 17.5753 27.2938 17.8433Z" fill="url(#paint5_linear_2613_17464)"/>
<path d="M27.8914 33.6081C27.8914 33.1142 27.5589 32.6974 27.1063 32.5672V28.2334L28.3123 27.0273V29.9358C27.8597 30.066 27.5273 30.483 27.5273 30.9767C27.5273 31.5744 28.0136 32.0605 28.6112 32.0605C29.2089 32.0605 29.6951 31.5744 29.6951 30.9767C29.6951 30.4828 29.3627 30.0659 28.9101 29.9358V26.4295L29.7051 25.6346L26.8074 22.7369L23.9098 25.6346L24.7049 26.4295V29.9357C24.2523 30.0659 23.9199 30.4828 23.9199 30.9766C23.9199 31.5742 24.4062 32.0604 25.0038 32.0604C25.6014 32.0604 26.0876 31.5742 26.0876 30.9766C26.0876 30.4827 25.7553 30.0657 25.3027 29.9357V27.0273L26.5087 28.2333V32.567C26.0561 32.6973 25.7238 33.1141 25.7238 33.608C25.7238 34.2056 26.2099 34.6919 26.8076 34.6919C27.4052 34.692 27.8914 34.2058 27.8914 33.6081ZM29.0975 30.9769C29.0975 31.2449 28.8794 31.4629 28.6114 31.4629C28.3433 31.4629 28.1252 31.2449 28.1252 30.9769C28.1252 30.7088 28.3433 30.4907 28.6114 30.4907C28.8794 30.4907 29.0975 30.7088 29.0975 30.9769ZM25.4898 30.9769C25.4898 31.2449 25.2718 31.4629 25.0038 31.4629C24.7358 31.4629 24.5177 31.2449 24.5177 30.9769C24.5177 30.7088 24.7358 30.4907 25.0038 30.4907C25.2718 30.4907 25.4898 30.7088 25.4898 30.9769ZM24.7551 25.6347L26.8074 23.5824L28.8598 25.6347L26.8074 27.687L24.7551 25.6347ZM26.3214 33.6081C26.3214 33.3401 26.5394 33.1221 26.8074 33.1221C27.0755 33.1221 27.2936 33.3401 27.2936 33.6081C27.2936 33.8762 27.0755 34.0943 26.8074 34.0943C26.5395 34.0943 26.3214 33.8762 26.3214 33.6081Z" fill="url(#paint6_linear_2613_17464)"/>
<path d="M27.8914 33.6081C27.8914 33.1142 27.5589 32.6974 27.1063 32.5672V28.2334L28.3123 27.0273V29.9358C27.8597 30.066 27.5273 30.483 27.5273 30.9767C27.5273 31.5744 28.0136 32.0605 28.6112 32.0605C29.2089 32.0605 29.6951 31.5744 29.6951 30.9767C29.6951 30.4828 29.3627 30.0659 28.9101 29.9358V26.4295L29.7051 25.6346L26.8074 22.7369L23.9098 25.6346L24.7049 26.4295V29.9357C24.2523 30.0659 23.9199 30.4828 23.9199 30.9766C23.9199 31.5742 24.4062 32.0604 25.0038 32.0604C25.6014 32.0604 26.0876 31.5742 26.0876 30.9766C26.0876 30.4827 25.7553 30.0657 25.3027 29.9357V27.0273L26.5087 28.2333V32.567C26.0561 32.6973 25.7238 33.1141 25.7238 33.608C25.7238 34.2056 26.2099 34.6919 26.8076 34.6919C27.4052 34.692 27.8914 34.2058 27.8914 33.6081ZM29.0975 30.9769C29.0975 31.2449 28.8794 31.4629 28.6114 31.4629C28.3433 31.4629 28.1252 31.2449 28.1252 30.9769C28.1252 30.7088 28.3433 30.4907 28.6114 30.4907C28.8794 30.4907 29.0975 30.7088 29.0975 30.9769ZM25.4898 30.9769C25.4898 31.2449 25.2718 31.4629 25.0038 31.4629C24.7358 31.4629 24.5177 31.2449 24.5177 30.9769C24.5177 30.7088 24.7358 30.4907 25.0038 30.4907C25.2718 30.4907 25.4898 30.7088 25.4898 30.9769ZM24.7551 25.6347L26.8074 23.5824L28.8598 25.6347L26.8074 27.687L24.7551 25.6347ZM26.3214 33.6081C26.3214 33.3401 26.5394 33.1221 26.8074 33.1221C27.0755 33.1221 27.2936 33.3401 27.2936 33.6081C27.2936 33.8762 27.0755 34.0943 26.8074 34.0943C26.5395 34.0943 26.3214 33.8762 26.3214 33.6081Z" fill="url(#paint7_linear_2613_17464)"/>
<path d="M0.896484 34.7614V19.7482L7.60064 26.0037L14.047 19.7482V34.7614L7.60064 41.2671L0.896484 34.7614Z" stroke="#015C8E" stroke-width="1.95"/>
<path d="M46.3141 41.4876L38.8048 28.407L34.7355 36.7851L37.0079 41.4876H46.3141Z" stroke="url(#paint8_linear_2613_17464)" stroke-width="1.95"/>
<path d="M37.1011 8.17043L32.8338 21.1004V32.6826L33.5556 34.2316L46.429 8.17043H37.1011Z" stroke="url(#paint9_linear_2613_17464)" stroke-width="1.95"/>
<rect x="22.4926" y="8.17043" width="8.21172" height="33.3172" stroke="url(#paint10_linear_2613_17464)" stroke-width="1.95"/>
</g>
<defs>
<linearGradient id="paint0_linear_2613_17464" x1="4.34974" y1="13.6424" x2="17.9319" y2="13.6424" gradientUnits="userSpaceOnUse">
<stop stop-color="#EC5200"/>
<stop offset="1" stop-color="#7F2D00"/>
</linearGradient>
<linearGradient id="paint1_linear_2613_17464" x1="11.1263" y1="7.02158" x2="3.30542" y2="19.8428" gradientUnits="userSpaceOnUse">
<stop stop-color="#009AEC"/>
<stop offset="1" stop-color="#005380"/>
</linearGradient>
<linearGradient id="paint2_linear_2613_17464" x1="4.34974" y1="13.6424" x2="17.9319" y2="13.6424" gradientUnits="userSpaceOnUse">
<stop stop-color="#EC5200"/>
<stop offset="1" stop-color="#7F2D00"/>
</linearGradient>
<linearGradient id="paint3_linear_2613_17464" x1="11.1263" y1="7.02158" x2="3.30542" y2="19.8428" gradientUnits="userSpaceOnUse">
<stop stop-color="#009AEC"/>
<stop offset="1" stop-color="#005380"/>
</linearGradient>
<linearGradient id="paint4_linear_2613_17464" x1="26.8077" y1="28.7144" x2="26.8077" y2="16.7594" gradientUnits="userSpaceOnUse">
<stop stop-color="#EC5200"/>
<stop offset="1" stop-color="#7F2D00"/>
</linearGradient>
<linearGradient id="paint5_linear_2613_17464" x1="26.8077" y1="28.7144" x2="26.8077" y2="16.7594" gradientUnits="userSpaceOnUse">
<stop stop-color="#EC5200"/>
<stop offset="1" stop-color="#7F2D00"/>
</linearGradient>
<linearGradient id="paint6_linear_2613_17464" x1="26.8075" y1="22.7371" x2="26.8075" y2="34.692" gradientUnits="userSpaceOnUse">
<stop stop-color="#EC5200"/>
<stop offset="1" stop-color="#7F2D00"/>
</linearGradient>
<linearGradient id="paint7_linear_2613_17464" x1="26.8075" y1="22.7371" x2="26.8075" y2="34.692" gradientUnits="userSpaceOnUse">
<stop stop-color="#EC5200"/>
<stop offset="1" stop-color="#7F2D00"/>
</linearGradient>
<linearGradient id="paint8_linear_2613_17464" x1="40.8251" y1="26.3234" x2="40.8251" y2="42.4626" gradientUnits="userSpaceOnUse">
<stop stop-color="#009AEC"/>
<stop offset="1" stop-color="#005380"/>
</linearGradient>
<linearGradient id="paint9_linear_2613_17464" x1="39.9284" y1="7.19543" x2="39.9284" y2="36.4851" gradientUnits="userSpaceOnUse">
<stop stop-color="#009AEC"/>
<stop offset="1" stop-color="#005380"/>
</linearGradient>
<linearGradient id="paint10_linear_2613_17464" x1="26.5984" y1="7.19543" x2="26.5984" y2="42.4626" gradientUnits="userSpaceOnUse">
<stop stop-color="#009AEC"/>
<stop offset="1" stop-color="#005380"/>
</linearGradient>
<clipPath id="clip0_2613_17464">
<rect width="48" height="48" fill="white"/>
</clipPath>
</defs>
</svg>
