<svg width="512" height="512" viewBox="0 0 512 512" fill="none" xmlns="http://www.w3.org/2000/svg">
<g clip-path="url(#clip0_2613_17468)">
<path d="M178.141 130.384C172.156 130.384 167.104 134.413 165.526 139.898H113.008L98.3913 125.283H133.638C135.216 130.768 140.269 134.796 146.252 134.796C153.495 134.796 159.386 128.903 159.386 121.661C159.386 114.418 153.495 108.525 146.252 108.525C140.267 108.525 135.214 112.554 133.638 118.039H91.1471L81.5133 108.405L46.3984 143.52L81.5133 178.635L91.1471 168.999H133.636C135.214 174.484 140.267 178.513 146.251 178.513C153.493 178.513 159.385 172.62 159.385 165.377C159.385 158.135 153.493 152.243 146.251 152.243C140.265 152.243 135.212 156.271 133.636 161.755H98.3913L113.006 147.14H165.525C167.103 152.625 172.154 156.652 178.139 156.652C185.382 156.652 191.275 150.761 191.275 143.518C191.276 136.276 185.383 130.384 178.141 130.384ZM146.254 115.768C149.502 115.768 152.144 118.411 152.144 121.659C152.144 124.907 149.502 127.551 146.254 127.551C143.005 127.551 140.362 124.907 140.362 121.659C140.362 118.411 143.005 115.768 146.254 115.768ZM146.254 159.488C149.502 159.488 152.144 162.129 152.144 165.377C152.144 168.626 149.502 171.269 146.254 171.269C143.005 171.269 140.362 168.626 140.362 165.377C140.362 162.129 143.005 159.488 146.254 159.488ZM81.5149 168.391L56.6437 143.52L81.5149 118.649L106.386 143.52L81.5149 168.391ZM178.141 149.41C174.892 149.41 172.251 146.768 172.251 143.52C172.251 140.272 174.892 137.628 178.141 137.628C181.389 137.628 184.032 140.272 184.032 143.52C184.032 146.767 181.389 149.41 178.141 149.41Z" fill="url(#paint0_linear_2613_17468)"/>
<path d="M132.692 173.865H108.79L81.5198 201.135L23.9031 143.518L81.5198 85.9031L108.79 113.173H132.693L81.5198 62L0 143.518L81.5198 225.037L132.692 173.865Z" fill="url(#paint1_linear_2613_17468)"/>
<path d="M178.141 130.384C172.156 130.384 167.104 134.413 165.526 139.898H113.008L98.3913 125.283H133.638C135.216 130.768 140.269 134.796 146.252 134.796C153.495 134.796 159.386 128.903 159.386 121.661C159.386 114.418 153.495 108.525 146.252 108.525C140.267 108.525 135.214 112.554 133.638 118.039H91.1471L81.5133 108.405L46.3984 143.52L81.5133 178.635L91.1471 168.999H133.636C135.214 174.484 140.267 178.513 146.251 178.513C153.493 178.513 159.385 172.62 159.385 165.377C159.385 158.135 153.493 152.243 146.251 152.243C140.265 152.243 135.212 156.271 133.636 161.755H98.3913L113.006 147.14H165.525C167.103 152.625 172.154 156.652 178.139 156.652C185.382 156.652 191.275 150.761 191.275 143.518C191.276 136.276 185.383 130.384 178.141 130.384ZM146.254 115.768C149.502 115.768 152.144 118.411 152.144 121.659C152.144 124.907 149.502 127.551 146.254 127.551C143.005 127.551 140.362 124.907 140.362 121.659C140.362 118.411 143.005 115.768 146.254 115.768ZM146.254 159.488C149.502 159.488 152.144 162.129 152.144 165.377C152.144 168.626 149.502 171.269 146.254 171.269C143.005 171.269 140.362 168.626 140.362 165.377C140.362 162.129 143.005 159.488 146.254 159.488ZM81.5149 168.391L56.6437 143.52L81.5149 118.649L106.386 143.52L81.5149 168.391ZM178.141 149.41C174.892 149.41 172.251 146.768 172.251 143.52C172.251 140.272 174.892 137.628 178.141 137.628C181.389 137.628 184.032 140.272 184.032 143.52C184.032 146.767 181.389 149.41 178.141 149.41Z" fill="url(#paint2_linear_2613_17468)"/>
<path d="M132.692 173.865H108.79L81.5198 201.135L23.9031 143.518L81.5198 85.9031L108.79 113.173H132.693L81.5198 62L0 143.518L81.5198 225.037L132.692 173.865Z" fill="url(#paint3_linear_2613_17468)"/>
<path d="M274.383 188.328C274.383 193.596 277.929 198.043 282.757 199.431V245.658L269.893 258.523V227.5C274.721 226.111 278.267 221.663 278.267 216.396C278.267 210.021 273.08 204.836 266.705 204.836C260.33 204.836 255.143 210.021 255.143 216.396C255.143 221.664 258.689 226.112 263.517 227.5V264.9L255.037 273.379L285.945 304.287L316.853 273.379L308.372 264.9V227.501C313.2 226.112 316.746 221.664 316.746 216.398C316.746 210.023 311.559 204.837 305.184 204.837C298.809 204.837 293.624 210.023 293.624 216.398C293.624 221.666 297.168 226.113 301.996 227.501V258.523L289.132 245.659V199.433C293.96 198.044 297.504 193.598 297.504 188.329C297.504 181.955 292.319 176.768 285.944 176.768C279.569 176.766 274.383 181.953 274.383 188.328ZM261.518 216.395C261.518 213.536 263.844 211.211 266.704 211.211C269.563 211.211 271.889 213.536 271.889 216.395C271.889 219.254 269.563 221.58 266.704 221.58C263.844 221.58 261.518 219.254 261.518 216.395ZM300 216.395C300 213.536 302.325 211.211 305.184 211.211C308.043 211.211 310.37 213.536 310.37 216.395C310.37 219.254 308.043 221.58 305.184 221.58C302.325 221.58 300 219.254 300 216.395ZM307.837 273.378L285.945 295.269L264.054 273.378L285.945 251.486L307.837 273.378ZM291.129 188.328C291.129 191.187 288.804 193.512 285.945 193.512C283.086 193.512 280.76 191.187 280.76 188.328C280.76 185.469 283.086 183.143 285.945 183.143C288.803 183.143 291.129 185.469 291.129 188.328Z" fill="url(#paint4_linear_2613_17468)"/>
<path d="M274.383 188.328C274.383 193.596 277.929 198.043 282.757 199.431V245.658L269.893 258.523V227.5C274.721 226.111 278.267 221.663 278.267 216.396C278.267 210.021 273.08 204.836 266.705 204.836C260.33 204.836 255.143 210.021 255.143 216.396C255.143 221.664 258.689 226.112 263.517 227.5V264.9L255.037 273.379L285.945 304.287L316.853 273.379L308.372 264.9V227.501C313.2 226.112 316.746 221.664 316.746 216.398C316.746 210.023 311.559 204.837 305.184 204.837C298.809 204.837 293.624 210.023 293.624 216.398C293.624 221.666 297.168 226.113 301.996 227.501V258.523L289.132 245.659V199.433C293.96 198.044 297.504 193.598 297.504 188.329C297.504 181.955 292.319 176.768 285.944 176.768C279.569 176.766 274.383 181.953 274.383 188.328ZM261.518 216.395C261.518 213.536 263.844 211.211 266.704 211.211C269.563 211.211 271.889 213.536 271.889 216.395C271.889 219.254 269.563 221.58 266.704 221.58C263.844 221.58 261.518 219.254 261.518 216.395ZM300 216.395C300 213.536 302.325 211.211 305.184 211.211C308.043 211.211 310.37 213.536 310.37 216.395C310.37 219.254 308.043 221.58 305.184 221.58C302.325 221.58 300 219.254 300 216.395ZM307.837 273.378L285.945 295.269L264.054 273.378L285.945 251.486L307.837 273.378ZM291.129 188.328C291.129 191.187 288.804 193.512 285.945 193.512C283.086 193.512 280.76 191.187 280.76 188.328C280.76 185.469 283.086 183.143 285.945 183.143C288.803 183.143 291.129 185.469 291.129 188.328Z" fill="url(#paint5_linear_2613_17468)"/>
<path d="M297.507 356.487C297.507 351.219 293.961 346.772 289.134 345.383V299.157L301.998 286.291V317.315C297.17 318.704 293.624 323.152 293.624 328.419C293.624 334.793 298.811 339.979 305.186 339.979C311.561 339.979 316.748 334.793 316.748 328.419C316.748 323.15 313.201 318.703 308.374 317.315V279.915L316.854 271.436L285.945 240.527L255.037 271.436L263.518 279.915V317.314C258.691 318.703 255.145 323.15 255.145 328.417C255.145 334.792 260.332 339.978 266.707 339.978C273.081 339.978 278.267 334.792 278.267 328.417C278.267 323.149 274.722 318.701 269.895 317.314V286.291L282.759 299.155V345.382C277.931 346.771 274.386 351.217 274.386 356.485C274.386 362.86 279.572 368.047 285.947 368.047C292.322 368.049 297.507 362.862 297.507 356.487ZM310.373 328.42C310.373 331.279 308.046 333.604 305.187 333.604C302.328 333.604 300.002 331.279 300.002 328.42C300.002 325.561 302.328 323.234 305.187 323.234C308.046 323.234 310.373 325.561 310.373 328.42ZM271.891 328.42C271.891 331.279 269.566 333.604 266.707 333.604C263.847 333.604 261.521 331.279 261.521 328.42C261.521 325.561 263.847 323.234 266.707 323.234C269.566 323.234 271.891 325.561 271.891 328.42ZM264.054 271.437L285.945 249.545L307.837 271.437L285.945 293.328L264.054 271.437ZM280.761 356.487C280.761 353.628 283.086 351.303 285.945 351.303C288.805 351.303 291.131 353.628 291.131 356.487C291.131 359.346 288.805 361.672 285.945 361.672C283.088 361.672 280.761 359.346 280.761 356.487Z" fill="url(#paint6_linear_2613_17468)"/>
<path d="M297.507 356.487C297.507 351.219 293.961 346.772 289.134 345.383V299.157L301.998 286.291V317.315C297.17 318.704 293.624 323.152 293.624 328.419C293.624 334.793 298.811 339.979 305.186 339.979C311.561 339.979 316.748 334.793 316.748 328.419C316.748 323.15 313.201 318.703 308.374 317.315V279.915L316.854 271.436L285.945 240.527L255.037 271.436L263.518 279.915V317.314C258.691 318.703 255.145 323.15 255.145 328.417C255.145 334.792 260.332 339.978 266.707 339.978C273.081 339.978 278.267 334.792 278.267 328.417C278.267 323.149 274.722 318.701 269.895 317.314V286.291L282.759 299.155V345.382C277.931 346.771 274.386 351.217 274.386 356.485C274.386 362.86 279.572 368.047 285.947 368.047C292.322 368.049 297.507 362.862 297.507 356.487ZM310.373 328.42C310.373 331.279 308.046 333.604 305.187 333.604C302.328 333.604 300.002 331.279 300.002 328.42C300.002 325.561 302.328 323.234 305.187 323.234C308.046 323.234 310.373 325.561 310.373 328.42ZM271.891 328.42C271.891 331.279 269.566 333.604 266.707 333.604C263.847 333.604 261.521 331.279 261.521 328.42C261.521 325.561 263.847 323.234 266.707 323.234C269.566 323.234 271.891 325.561 271.891 328.42ZM264.054 271.437L285.945 249.545L307.837 271.437L285.945 293.328L264.054 271.437ZM280.761 356.487C280.761 353.628 283.086 351.303 285.945 351.303C288.805 351.303 291.131 353.628 291.131 356.487C291.131 359.346 288.805 361.672 285.945 361.672C283.088 361.672 280.761 359.346 280.761 356.487Z" fill="url(#paint7_linear_2613_17468)"/>
<path d="M9.56445 368.789V208.648L81.0755 275.373L149.836 208.648V368.789L81.0755 438.183L9.56445 368.789Z" stroke="#015C8E" stroke-width="20.86"/>
<path d="M493.984 440.505L413.939 301.073L370.564 390.375L394.788 440.505H493.984Z" stroke="url(#paint8_linear_2613_17468)" stroke-width="20.86"/>
<path d="M395.785 85.1818L350.276 223.076V346.609L357.946 363.069L495.213 85.1818H395.785Z" stroke="url(#paint9_linear_2613_17468)" stroke-width="20.86"/>
<rect x="239.965" y="85.1818" width="87.5317" height="355.323" stroke="url(#paint10_linear_2613_17468)" stroke-width="20.86"/>
</g>
<defs>
<linearGradient id="paint0_linear_2613_17468" x1="46.3998" y1="143.519" x2="191.276" y2="143.519" gradientUnits="userSpaceOnUse">
<stop stop-color="#EC5200"/>
<stop offset="1" stop-color="#7F2D00"/>
</linearGradient>
<linearGradient id="paint1_linear_2613_17468" x1="118.681" y1="72.8968" x2="35.2579" y2="209.656" gradientUnits="userSpaceOnUse">
<stop stop-color="#009AEC"/>
<stop offset="1" stop-color="#005380"/>
</linearGradient>
<linearGradient id="paint2_linear_2613_17468" x1="46.3998" y1="143.519" x2="191.276" y2="143.519" gradientUnits="userSpaceOnUse">
<stop stop-color="#EC5200"/>
<stop offset="1" stop-color="#7F2D00"/>
</linearGradient>
<linearGradient id="paint3_linear_2613_17468" x1="118.681" y1="72.8968" x2="35.2579" y2="209.656" gradientUnits="userSpaceOnUse">
<stop stop-color="#009AEC"/>
<stop offset="1" stop-color="#005380"/>
</linearGradient>
<linearGradient id="paint4_linear_2613_17468" x1="285.944" y1="304.286" x2="285.944" y2="176.767" gradientUnits="userSpaceOnUse">
<stop stop-color="#EC5200"/>
<stop offset="1" stop-color="#7F2D00"/>
</linearGradient>
<linearGradient id="paint5_linear_2613_17468" x1="285.944" y1="304.286" x2="285.944" y2="176.767" gradientUnits="userSpaceOnUse">
<stop stop-color="#EC5200"/>
<stop offset="1" stop-color="#7F2D00"/>
</linearGradient>
<linearGradient id="paint6_linear_2613_17468" x1="285.946" y1="240.529" x2="285.946" y2="368.048" gradientUnits="userSpaceOnUse">
<stop stop-color="#EC5200"/>
<stop offset="1" stop-color="#7F2D00"/>
</linearGradient>
<linearGradient id="paint7_linear_2613_17468" x1="285.946" y1="240.529" x2="285.946" y2="368.048" gradientUnits="userSpaceOnUse">
<stop stop-color="#EC5200"/>
<stop offset="1" stop-color="#7F2D00"/>
</linearGradient>
<linearGradient id="paint8_linear_2613_17468" x1="435.486" y1="278.783" x2="435.486" y2="450.935" gradientUnits="userSpaceOnUse">
<stop stop-color="#009AEC"/>
<stop offset="1" stop-color="#005380"/>
</linearGradient>
<linearGradient id="paint9_linear_2613_17468" x1="425.922" y1="74.7518" x2="425.922" y2="387.175" gradientUnits="userSpaceOnUse">
<stop stop-color="#009AEC"/>
<stop offset="1" stop-color="#005380"/>
</linearGradient>
<linearGradient id="paint10_linear_2613_17468" x1="283.731" y1="74.7518" x2="283.731" y2="450.935" gradientUnits="userSpaceOnUse">
<stop stop-color="#009AEC"/>
<stop offset="1" stop-color="#005380"/>
</linearGradient>
<clipPath id="clip0_2613_17468">
<rect width="512" height="512" fill="white"/>
</clipPath>
</defs>
</svg>
