<svg width="180" height="180" viewBox="0 0 180 180" fill="none" xmlns="http://www.w3.org/2000/svg">
<g clip-path="url(#clip0_3617_437)">
<path d="M62.6281 46.0416C60.524 46.0416 58.7481 47.4579 58.1933 49.3862H39.7298L34.5912 44.2481H46.9825C47.5373 46.1763 49.3137 47.5926 51.4173 47.5926C53.9636 47.5926 56.0347 45.5209 56.0347 42.9747C56.0347 40.4285 53.9636 38.3568 51.4173 38.3568C49.3132 38.3568 47.5367 39.7731 46.9825 41.7013H32.0445L28.6576 38.3145L16.3125 50.6595L28.6576 63.0046L32.0445 59.6172H46.9819C47.5367 61.5454 49.3132 62.9617 51.4168 62.9617C53.963 62.9617 56.0342 60.89 56.0342 58.3438C56.0342 55.7976 53.963 53.7264 51.4168 53.7264C49.3126 53.7264 47.5362 55.1422 46.9819 57.0704H34.5912L39.7293 51.9324H58.1928C58.7475 53.8606 60.5234 55.2764 62.6276 55.2764C65.1738 55.2764 67.2455 53.2052 67.2455 50.659C67.2461 48.1128 65.1744 46.0416 62.6281 46.0416ZM51.4179 40.903C52.5599 40.903 53.4885 41.8322 53.4885 42.9742C53.4885 44.1161 52.5599 45.0453 51.4179 45.0453C50.2759 45.0453 49.3467 44.1161 49.3467 42.9742C49.3467 41.8322 50.2759 40.903 51.4179 40.903ZM51.4179 56.2732C52.5599 56.2732 53.4885 57.2018 53.4885 58.3438C53.4885 59.4858 52.5599 60.415 51.4179 60.415C50.2759 60.415 49.3467 59.4858 49.3467 58.3438C49.3467 57.2018 50.2759 56.2732 51.4179 56.2732ZM28.6581 59.4033L19.9144 50.6595L28.6581 41.9158L37.4019 50.6595L28.6581 59.4033ZM62.6281 52.7302C61.4862 52.7302 60.5575 51.8015 60.5575 50.6595C60.5575 49.5176 61.4862 48.5884 62.6281 48.5884C63.7701 48.5884 64.6993 49.5176 64.6993 50.6595C64.6993 51.801 63.7701 52.7302 62.6281 52.7302Z" fill="#0088CC"/>
<path d="M46.6494 61.3274H38.2465L28.6593 70.9146L8.40343 50.6588L28.6593 30.4034L38.2465 39.9906H46.6499L28.6593 22L0 50.6588L28.6593 79.3175L46.6494 61.3274Z" fill="#0088CC"/>
<path d="M62.6281 46.0416C60.524 46.0416 58.7481 47.4579 58.1933 49.3862H39.7298L34.5912 44.2481H46.9825C47.5373 46.1763 49.3137 47.5926 51.4173 47.5926C53.9636 47.5926 56.0347 45.5209 56.0347 42.9747C56.0347 40.4285 53.9636 38.3568 51.4173 38.3568C49.3132 38.3568 47.5367 39.7731 46.9825 41.7013H32.0445L28.6576 38.3145L16.3125 50.6595L28.6576 63.0046L32.0445 59.6172H46.9819C47.5367 61.5454 49.3132 62.9617 51.4168 62.9617C53.963 62.9617 56.0342 60.89 56.0342 58.3438C56.0342 55.7976 53.963 53.7264 51.4168 53.7264C49.3126 53.7264 47.5362 55.1422 46.9819 57.0704H34.5912L39.7293 51.9324H58.1928C58.7475 53.8606 60.5234 55.2764 62.6276 55.2764C65.1738 55.2764 67.2455 53.2052 67.2455 50.659C67.2461 48.1128 65.1744 46.0416 62.6281 46.0416ZM51.4179 40.903C52.5599 40.903 53.4885 41.8322 53.4885 42.9742C53.4885 44.1161 52.5599 45.0453 51.4179 45.0453C50.2759 45.0453 49.3467 44.1161 49.3467 42.9742C49.3467 41.8322 50.2759 40.903 51.4179 40.903ZM51.4179 56.2732C52.5599 56.2732 53.4885 57.2018 53.4885 58.3438C53.4885 59.4858 52.5599 60.415 51.4179 60.415C50.2759 60.415 49.3467 59.4858 49.3467 58.3438C49.3467 57.2018 50.2759 56.2732 51.4179 56.2732ZM28.6581 59.4033L19.9144 50.6595L28.6581 41.9158L37.4019 50.6595L28.6581 59.4033ZM62.6281 52.7302C61.4862 52.7302 60.5575 51.8015 60.5575 50.6595C60.5575 49.5176 61.4862 48.5884 62.6281 48.5884C63.7701 48.5884 64.6993 49.5176 64.6993 50.6595C64.6993 51.801 63.7701 52.7302 62.6281 52.7302Z" fill="#0088CC"/>
<path d="M46.6494 61.3274H38.2465L28.6593 70.9146L8.40343 50.6588L28.6593 30.4034L38.2465 39.9906H46.6499L28.6593 22L0 50.6588L28.6593 79.3175L46.6494 61.3274Z" fill="#0088CC"/>
<path d="M96.4616 66.4118C96.4616 68.2639 97.7082 69.827 99.4054 70.3153V86.5668L94.8829 91.0898V80.183C96.5801 79.6947 97.8268 78.1311 97.8268 76.2795C97.8268 74.0383 96.0033 72.2153 93.7621 72.2153C91.5209 72.2153 89.6974 74.0383 89.6974 76.2795C89.6974 78.1316 90.9441 79.6952 92.6413 80.183V93.3315L89.6602 96.3126L100.526 107.179L111.392 96.3126L108.411 93.3315V80.1835C110.108 79.6952 111.355 78.1316 111.355 76.28C111.355 74.0388 109.531 72.2158 107.29 72.2158C105.049 72.2158 103.226 74.0388 103.226 76.28C103.226 78.1321 104.472 79.6957 106.169 80.1835V91.0898L101.647 86.5673V70.3158C103.344 69.8275 104.59 68.2643 104.59 66.4123C104.59 64.1711 102.767 62.3476 100.526 62.3476C98.2846 62.3471 96.4616 64.1706 96.4616 66.4118ZM91.9386 76.279C91.9386 75.2739 92.7565 74.4565 93.7616 74.4565C94.7668 74.4565 95.5847 75.2739 95.5847 76.279C95.5847 77.2842 94.7668 78.1021 93.7616 78.1021C92.7565 78.1021 91.9386 77.2842 91.9386 76.279ZM105.467 76.279C105.467 75.2739 106.285 74.4565 107.29 74.4565C108.295 74.4565 109.113 75.2739 109.113 76.279C109.113 77.2842 108.295 78.1021 107.29 78.1021C106.285 78.1021 105.467 77.2842 105.467 76.279ZM108.223 96.3121L100.526 104.008L92.83 96.3121L100.526 88.6159L108.223 96.3121ZM102.349 66.4118C102.349 67.4169 101.531 68.2343 100.526 68.2343C99.5211 68.2343 98.7032 67.4169 98.7032 66.4118C98.7032 65.4066 99.5211 64.5887 100.526 64.5887C101.531 64.5887 102.349 65.4066 102.349 66.4118Z" fill="#0088CC"/>
<path d="M96.4616 66.4118C96.4616 68.2639 97.7082 69.827 99.4054 70.3153V86.5668L94.8829 91.0898V80.183C96.5801 79.6947 97.8268 78.1311 97.8268 76.2795C97.8268 74.0383 96.0033 72.2153 93.7621 72.2153C91.5209 72.2153 89.6974 74.0383 89.6974 76.2795C89.6974 78.1316 90.9441 79.6952 92.6413 80.183V93.3315L89.6602 96.3126L100.526 107.179L111.392 96.3126L108.411 93.3315V80.1835C110.108 79.6952 111.355 78.1316 111.355 76.28C111.355 74.0388 109.531 72.2158 107.29 72.2158C105.049 72.2158 103.226 74.0388 103.226 76.28C103.226 78.1321 104.472 79.6957 106.169 80.1835V91.0898L101.647 86.5673V70.3158C103.344 69.8275 104.59 68.2643 104.59 66.4123C104.59 64.1711 102.767 62.3476 100.526 62.3476C98.2846 62.3471 96.4616 64.1706 96.4616 66.4118ZM91.9386 76.279C91.9386 75.2739 92.7565 74.4565 93.7616 74.4565C94.7668 74.4565 95.5847 75.2739 95.5847 76.279C95.5847 77.2842 94.7668 78.1021 93.7616 78.1021C92.7565 78.1021 91.9386 77.2842 91.9386 76.279ZM105.467 76.279C105.467 75.2739 106.285 74.4565 107.29 74.4565C108.295 74.4565 109.113 75.2739 109.113 76.279C109.113 77.2842 108.295 78.1021 107.29 78.1021C106.285 78.1021 105.467 77.2842 105.467 76.279ZM108.223 96.3121L100.526 104.008L92.83 96.3121L100.526 88.6159L108.223 96.3121ZM102.349 66.4118C102.349 67.4169 101.531 68.2343 100.526 68.2343C99.5211 68.2343 98.7032 67.4169 98.7032 66.4118C98.7032 65.4066 99.5211 64.5887 100.526 64.5887C101.531 64.5887 102.349 65.4066 102.349 66.4118Z" fill="#0088CC"/>
<path d="M104.593 125.531C104.593 123.679 103.346 122.115 101.649 121.627V105.376L106.172 100.853V111.759C104.475 112.248 103.228 113.811 103.228 115.663C103.228 117.904 105.051 119.727 107.293 119.727C109.534 119.727 111.357 117.904 111.357 115.663C111.357 113.811 110.111 112.247 108.413 111.759V98.6109L111.395 95.6298L100.528 84.7637L89.6623 95.6298L92.6439 98.6109V111.759C90.9467 112.247 89.7001 113.811 89.7001 115.662C89.7001 117.904 91.5236 119.727 93.7647 119.727C96.0059 119.727 97.8289 117.904 97.8289 115.662C97.8289 113.81 96.5828 112.247 94.8856 111.759V100.853L99.4081 105.375V121.627C97.7109 122.115 96.4647 123.678 96.4647 125.53C96.4647 127.771 98.2877 129.595 100.529 129.595C102.77 129.595 104.593 127.772 104.593 125.531ZM109.116 115.663C109.116 116.669 108.298 117.486 107.293 117.486C106.288 117.486 105.47 116.669 105.47 115.663C105.47 114.658 106.288 113.84 107.293 113.84C108.298 113.84 109.116 114.658 109.116 115.663ZM95.5873 115.663C95.5873 116.669 94.7699 117.486 93.7647 117.486C92.7596 117.486 91.9417 116.669 91.9417 115.663C91.9417 114.658 92.7596 113.84 93.7647 113.84C94.7699 113.84 95.5873 114.658 95.5873 115.663ZM92.8322 95.6303L100.528 87.934L108.225 95.6303L100.528 103.327L92.8322 95.6303ZM98.7059 125.531C98.7059 124.525 99.5233 123.708 100.528 123.708C101.534 123.708 102.351 124.525 102.351 125.531C102.351 126.536 101.534 127.354 100.528 127.354C99.5237 127.354 98.7059 126.536 98.7059 125.531Z" fill="#0088CC"/>
<path d="M104.593 125.531C104.593 123.679 103.346 122.115 101.649 121.627V105.376L106.172 100.853V111.759C104.475 112.248 103.228 113.811 103.228 115.663C103.228 117.904 105.051 119.727 107.293 119.727C109.534 119.727 111.357 117.904 111.357 115.663C111.357 113.811 110.111 112.247 108.413 111.759V98.6109L111.395 95.6298L100.528 84.7637L89.6623 95.6298L92.6439 98.6109V111.759C90.9467 112.247 89.7001 113.811 89.7001 115.662C89.7001 117.904 91.5236 119.727 93.7647 119.727C96.0059 119.727 97.8289 117.904 97.8289 115.662C97.8289 113.81 96.5828 112.247 94.8856 111.759V100.853L99.4081 105.375V121.627C97.7109 122.115 96.4647 123.678 96.4647 125.53C96.4647 127.771 98.2877 129.595 100.529 129.595C102.77 129.595 104.593 127.772 104.593 125.531ZM109.116 115.663C109.116 116.669 108.298 117.486 107.293 117.486C106.288 117.486 105.47 116.669 105.47 115.663C105.47 114.658 106.288 113.84 107.293 113.84C108.298 113.84 109.116 114.658 109.116 115.663ZM95.5873 115.663C95.5873 116.669 94.7699 117.486 93.7647 117.486C92.7596 117.486 91.9417 116.669 91.9417 115.663C91.9417 114.658 92.7596 113.84 93.7647 113.84C94.7699 113.84 95.5873 114.658 95.5873 115.663ZM92.8322 95.6303L100.528 87.934L108.225 95.6303L100.528 103.327L92.8322 95.6303ZM98.7059 125.531C98.7059 124.525 99.5233 123.708 100.528 123.708C101.534 123.708 102.351 124.525 102.351 125.531C102.351 126.536 101.534 127.354 100.528 127.354C99.5237 127.354 98.7059 126.536 98.7059 125.531Z" fill="#0088CC"/>
<path d="M3.36328 129.855V73.5557L28.5039 97.0138L52.6775 73.5557V129.855L28.5039 154.252L3.36328 129.855Z" stroke="#0088CC" stroke-width="7.8"/>
<path d="M173.264 154.835L145.543 106.547L130.536 137.445L138.94 154.835H173.264Z" stroke="#0088CC" stroke-width="7.8"/>
<path d="M139.313 30.3834L123.378 78.6661V122.006L125.847 127.306L173.724 30.3834H139.313Z" stroke="#0088CC" stroke-width="7.8"/>
<rect x="84.5953" y="30.3834" width="30.3065" height="124.452" stroke="#0088CC" stroke-width="7.8"/>
</g>
<defs>
<clipPath id="clip0_3617_437">
<rect width="180" height="180" fill="white"/>
</clipPath>
</defs>
</svg>
