<svg width="32" height="32" viewBox="0 0 32 32" fill="none" xmlns="http://www.w3.org/2000/svg">
<path d="M17.1487 11.8966C17.1487 12.2259 17.3703 12.5038 17.672 12.5906V15.4799L16.868 16.284V14.3449C17.1697 14.2581 17.3914 13.9801 17.3914 13.6509C17.3914 13.2525 17.0672 12.9284 16.6687 12.9284C16.2703 12.9284 15.9461 13.2525 15.9461 13.6509C15.9461 13.9802 16.1677 14.2582 16.4695 14.3449V16.6826L15.9395 17.2126L17.8713 19.1444L19.8032 17.2126L19.2731 16.6826V14.345C19.5748 14.2582 19.7964 13.9802 19.7964 13.651C19.7964 13.2526 19.4722 12.9285 19.0738 12.9285C18.6753 12.9285 18.3512 13.2526 18.3512 13.651C18.3512 13.9803 18.5728 14.2583 18.8745 14.345V16.284L18.0705 15.48V12.5907C18.3722 12.5039 18.5938 12.2259 18.5938 11.8967C18.5938 11.4982 18.2697 11.174 17.8712 11.174C17.4728 11.1739 17.1487 11.4981 17.1487 11.8966ZM16.3445 13.6509C16.3445 13.4721 16.4899 13.3268 16.6686 13.3268C16.8473 13.3268 16.9928 13.4721 16.9928 13.6509C16.9928 13.8296 16.8473 13.975 16.6686 13.975C16.4899 13.975 16.3445 13.8296 16.3445 13.6509ZM18.7498 13.6509C18.7498 13.4721 18.8951 13.3268 19.0738 13.3268C19.2525 13.3268 19.3979 13.4721 19.3979 13.6509C19.3979 13.8296 19.2525 13.975 19.0738 13.975C18.8951 13.975 18.7498 13.8296 18.7498 13.6509ZM19.2396 17.2125L17.8713 18.5808L16.503 17.2125L17.8713 15.8442L19.2396 17.2125ZM18.1953 11.8966C18.1953 12.0753 18.05 12.2206 17.8713 12.2206C17.6926 12.2206 17.5472 12.0753 17.5472 11.8966C17.5472 11.7179 17.6926 11.5725 17.8713 11.5725C18.0499 11.5725 18.1953 11.7179 18.1953 11.8966Z" fill="url(#paint0_linear_2668_25081)"/>
<path d="M17.1487 11.8966C17.1487 12.2259 17.3703 12.5038 17.672 12.5906V15.4799L16.868 16.284V14.3449C17.1697 14.2581 17.3914 13.9801 17.3914 13.6509C17.3914 13.2525 17.0672 12.9284 16.6687 12.9284C16.2703 12.9284 15.9461 13.2525 15.9461 13.6509C15.9461 13.9802 16.1677 14.2582 16.4695 14.3449V16.6826L15.9395 17.2126L17.8713 19.1444L19.8032 17.2126L19.2731 16.6826V14.345C19.5748 14.2582 19.7964 13.9802 19.7964 13.651C19.7964 13.2526 19.4722 12.9285 19.0738 12.9285C18.6753 12.9285 18.3512 13.2526 18.3512 13.651C18.3512 13.9803 18.5728 14.2583 18.8745 14.345V16.284L18.0705 15.48V12.5907C18.3722 12.5039 18.5938 12.2259 18.5938 11.8967C18.5938 11.4982 18.2697 11.174 17.8712 11.174C17.4728 11.1739 17.1487 11.4981 17.1487 11.8966ZM16.3445 13.6509C16.3445 13.4721 16.4899 13.3268 16.6686 13.3268C16.8473 13.3268 16.9928 13.4721 16.9928 13.6509C16.9928 13.8296 16.8473 13.975 16.6686 13.975C16.4899 13.975 16.3445 13.8296 16.3445 13.6509ZM18.7498 13.6509C18.7498 13.4721 18.8951 13.3268 19.0738 13.3268C19.2525 13.3268 19.3979 13.4721 19.3979 13.6509C19.3979 13.8296 19.2525 13.975 19.0738 13.975C18.8951 13.975 18.7498 13.8296 18.7498 13.6509ZM19.2396 17.2125L17.8713 18.5808L16.503 17.2125L17.8713 15.8442L19.2396 17.2125ZM18.1953 11.8966C18.1953 12.0753 18.05 12.2206 17.8713 12.2206C17.6926 12.2206 17.5472 12.0753 17.5472 11.8966C17.5472 11.7179 17.6926 11.5725 17.8713 11.5725C18.0499 11.5725 18.1953 11.7179 18.1953 11.8966Z" fill="url(#paint1_linear_2668_25081)"/>
<path d="M18.5916 22.4063C18.5916 22.077 18.3699 21.7991 18.0682 21.7123V18.823L18.8722 18.0188V19.9579C18.5705 20.0447 18.3489 20.3227 18.3489 20.6519C18.3489 21.0504 18.6731 21.3745 19.0715 21.3745C19.47 21.3745 19.7942 21.0504 19.7942 20.6519C19.7942 20.3226 19.5725 20.0446 19.2708 19.9579V17.6203L19.8008 17.0903L17.8689 15.1584L15.9371 17.0903L16.4672 17.6203V19.9578C16.1654 20.0446 15.9438 20.3226 15.9438 20.6518C15.9438 21.0503 16.268 21.3744 16.6664 21.3744C17.0649 21.3744 17.389 21.0503 17.389 20.6518C17.389 20.3226 17.1674 20.0446 16.8657 19.9578V18.0188L17.6697 18.8229V21.7122C17.368 21.799 17.1465 22.0769 17.1465 22.4062C17.1465 22.8046 17.4706 23.1288 17.869 23.1288C18.2675 23.1289 18.5916 22.8047 18.5916 22.4063ZM19.3957 20.652C19.3957 20.8307 19.2503 20.976 19.0716 20.976C18.8929 20.976 18.7475 20.8307 18.7475 20.652C18.7475 20.4733 18.8929 20.3279 19.0716 20.3279C19.2503 20.3279 19.3957 20.4733 19.3957 20.652ZM16.9905 20.652C16.9905 20.8307 16.8451 20.976 16.6664 20.976C16.4877 20.976 16.3423 20.8307 16.3423 20.652C16.3423 20.4733 16.4877 20.3279 16.6664 20.3279C16.8451 20.3279 16.9905 20.4733 16.9905 20.652ZM16.5006 17.0904L17.8689 15.7221L19.2372 17.0904L17.8689 18.4587L16.5006 17.0904ZM17.5449 22.4063C17.5449 22.2276 17.6902 22.0822 17.8689 22.0822C18.0476 22.0822 18.193 22.2276 18.193 22.4063C18.193 22.585 18.0476 22.7304 17.8689 22.7304C17.6903 22.7304 17.5449 22.585 17.5449 22.4063Z" fill="url(#paint2_linear_2668_25081)"/>
<path d="M18.5916 22.4063C18.5916 22.077 18.3699 21.7991 18.0682 21.7123V18.823L18.8722 18.0188V19.9579C18.5705 20.0447 18.3489 20.3227 18.3489 20.6519C18.3489 21.0504 18.6731 21.3745 19.0715 21.3745C19.47 21.3745 19.7942 21.0504 19.7942 20.6519C19.7942 20.3226 19.5725 20.0446 19.2708 19.9579V17.6203L19.8008 17.0903L17.8689 15.1584L15.9371 17.0903L16.4672 17.6203V19.9578C16.1654 20.0446 15.9438 20.3226 15.9438 20.6518C15.9438 21.0503 16.268 21.3744 16.6664 21.3744C17.0649 21.3744 17.389 21.0503 17.389 20.6518C17.389 20.3226 17.1674 20.0446 16.8657 19.9578V18.0188L17.6697 18.8229V21.7122C17.368 21.799 17.1465 22.0769 17.1465 22.4062C17.1465 22.8046 17.4706 23.1288 17.869 23.1288C18.2675 23.1289 18.5916 22.8047 18.5916 22.4063ZM19.3957 20.652C19.3957 20.8307 19.2503 20.976 19.0716 20.976C18.8929 20.976 18.7475 20.8307 18.7475 20.652C18.7475 20.4733 18.8929 20.3279 19.0716 20.3279C19.2503 20.3279 19.3957 20.4733 19.3957 20.652ZM16.9905 20.652C16.9905 20.8307 16.8451 20.976 16.6664 20.976C16.4877 20.976 16.3423 20.8307 16.3423 20.652C16.3423 20.4733 16.4877 20.3279 16.6664 20.3279C16.8451 20.3279 16.9905 20.4733 16.9905 20.652ZM16.5006 17.0904L17.8689 15.7221L19.2372 17.0904L17.8689 18.4587L16.5006 17.0904ZM17.5449 22.4063C17.5449 22.2276 17.6902 22.0822 17.8689 22.0822C18.0476 22.0822 18.193 22.2276 18.193 22.4063C18.193 22.585 18.0476 22.7304 17.8689 22.7304C17.6903 22.7304 17.5449 22.585 17.5449 22.4063Z" fill="url(#paint3_linear_2668_25081)"/>
<path d="M0.597656 23.1753V13.166L5.06732 17.3366L9.36508 13.166V23.1753L5.06732 27.5127L0.597656 23.1753Z" fill="#015C8E" stroke="#015C8E" stroke-width="0.65"/>
<path d="M31.4367 27.9848L25.845 18.2443L22.7947 24.5243L24.467 27.9848H31.4367Z" fill="url(#paint4_linear_2668_25081)" stroke="url(#paint5_linear_2668_25081)" stroke-width="0.65"/>
<path d="M22.3607 23.5735L31.475 5.12224H24.498L21.563 14.0154V21.8616L22.3607 23.5735Z" fill="url(#paint6_linear_2668_25081)" stroke="url(#paint7_linear_2668_25081)" stroke-width="0.65"/>
<rect x="14.6707" y="5.12224" width="6.12483" height="22.8626" fill="url(#paint8_linear_2668_25081)" stroke="url(#paint9_linear_2668_25081)" stroke-width="0.65"/>
<rect y="9.09131" width="7.20037" height="7.20037" transform="rotate(-45 0 9.09131)" fill="url(#paint10_linear_2668_25081)"/>
<defs>
<linearGradient id="paint0_linear_2668_25081" x1="17.8713" y1="19.1443" x2="17.8713" y2="11.174" gradientUnits="userSpaceOnUse">
<stop stop-color="#EC5200"/>
<stop offset="1" stop-color="#7F2D00"/>
</linearGradient>
<linearGradient id="paint1_linear_2668_25081" x1="17.8713" y1="19.1443" x2="17.8713" y2="11.174" gradientUnits="userSpaceOnUse">
<stop stop-color="#EC5200"/>
<stop offset="1" stop-color="#7F2D00"/>
</linearGradient>
<linearGradient id="paint2_linear_2668_25081" x1="17.869" y1="15.1585" x2="17.869" y2="23.1289" gradientUnits="userSpaceOnUse">
<stop stop-color="#EC5200"/>
<stop offset="1" stop-color="#7F2D00"/>
</linearGradient>
<linearGradient id="paint3_linear_2668_25081" x1="17.869" y1="15.1585" x2="17.869" y2="23.1289" gradientUnits="userSpaceOnUse">
<stop stop-color="#EC5200"/>
<stop offset="1" stop-color="#7F2D00"/>
</linearGradient>
<linearGradient id="paint4_linear_2668_25081" x1="27.2158" y1="17.5498" x2="27.2158" y2="28.3098" gradientUnits="userSpaceOnUse">
<stop stop-color="#009AEC"/>
<stop offset="1" stop-color="#005380"/>
</linearGradient>
<linearGradient id="paint5_linear_2668_25081" x1="27.2158" y1="17.5498" x2="27.2158" y2="28.3098" gradientUnits="userSpaceOnUse">
<stop stop-color="#009AEC"/>
<stop offset="1" stop-color="#005380"/>
</linearGradient>
<linearGradient id="paint6_linear_2668_25081" x1="26.618" y1="4.79724" x2="26.618" y2="24.3247" gradientUnits="userSpaceOnUse">
<stop stop-color="#009AEC"/>
<stop offset="1" stop-color="#005380"/>
</linearGradient>
<linearGradient id="paint7_linear_2668_25081" x1="26.618" y1="4.79724" x2="26.618" y2="24.3247" gradientUnits="userSpaceOnUse">
<stop stop-color="#009AEC"/>
<stop offset="1" stop-color="#005380"/>
</linearGradient>
<linearGradient id="paint8_linear_2668_25081" x1="17.7331" y1="4.79724" x2="17.7331" y2="28.3099" gradientUnits="userSpaceOnUse">
<stop stop-color="#009AEC"/>
<stop offset="1" stop-color="#005380"/>
</linearGradient>
<linearGradient id="paint9_linear_2668_25081" x1="17.7331" y1="4.79724" x2="17.7331" y2="28.3099" gradientUnits="userSpaceOnUse">
<stop stop-color="#009AEC"/>
<stop offset="1" stop-color="#005380"/>
</linearGradient>
<linearGradient id="paint10_linear_2668_25081" x1="6.44002" y1="9.57256" x2="3.13922" y2="16.2211" gradientUnits="userSpaceOnUse">
<stop stop-color="#009AEC"/>
<stop offset="1" stop-color="#005380"/>
</linearGradient>
</defs>
</svg>
