<svg width="48" height="48" viewBox="0 0 48 48" fill="none" xmlns="http://www.w3.org/2000/svg">
<path d="M25.7201 17.8447C25.7201 18.3386 26.0525 18.7555 26.5051 18.8857V23.2196L25.2991 24.4258V21.5172C25.7517 21.387 26.0841 20.97 26.0841 20.4762C26.0841 19.8785 25.5978 19.3924 25.0002 19.3924C24.4025 19.3924 23.9162 19.8785 23.9162 20.4762C23.9162 20.9701 24.2486 21.3871 24.7013 21.5172V25.0236L23.9062 25.8187L26.804 28.7164L29.7018 25.8187L28.9067 25.0236V21.5173C29.3593 21.3871 29.6917 20.9701 29.6917 20.4764C29.6917 19.8787 29.2054 19.3925 28.6078 19.3925C28.0101 19.3925 27.5239 19.8787 27.5239 20.4764C27.5239 20.9703 27.8563 21.3873 28.3089 21.5173V24.4258L27.1028 23.2198V18.8858C27.5554 18.7556 27.8877 18.3387 27.8877 17.8448C27.8877 17.2472 27.4016 16.7609 26.8039 16.7609C26.2062 16.7607 25.7201 17.247 25.7201 17.8447ZM24.5139 20.4761C24.5139 20.208 24.732 19.9901 25 19.9901C25.2681 19.9901 25.4862 20.208 25.4862 20.4761C25.4862 20.7442 25.2681 20.9623 25 20.9623C24.732 20.9623 24.5139 20.7442 24.5139 20.4761ZM28.1217 20.4761C28.1217 20.208 28.3397 19.9901 28.6078 19.9901C28.8758 19.9901 29.0939 20.208 29.0939 20.4761C29.0939 20.7442 28.8758 20.9623 28.6078 20.9623C28.3397 20.9623 28.1217 20.7442 28.1217 20.4761ZM28.8565 25.8185L26.804 27.871L24.7516 25.8185L26.804 23.7661L28.8565 25.8185ZM27.2901 17.8447C27.2901 18.1128 27.0721 18.3307 26.804 18.3307C26.536 18.3307 26.3179 18.1128 26.3179 17.8447C26.3179 17.5766 26.536 17.3585 26.804 17.3585C27.072 17.3585 27.2901 17.5766 27.2901 17.8447Z" fill="url(#paint0_linear_2613_17464)"/>
<path d="M25.7201 17.8447C25.7201 18.3386 26.0525 18.7555 26.5051 18.8857V23.2196L25.2991 24.4258V21.5172C25.7517 21.387 26.0841 20.97 26.0841 20.4762C26.0841 19.8785 25.5978 19.3924 25.0002 19.3924C24.4025 19.3924 23.9162 19.8785 23.9162 20.4762C23.9162 20.9701 24.2486 21.3871 24.7013 21.5172V25.0236L23.9062 25.8187L26.804 28.7164L29.7018 25.8187L28.9067 25.0236V21.5173C29.3593 21.3871 29.6917 20.9701 29.6917 20.4764C29.6917 19.8787 29.2054 19.3925 28.6078 19.3925C28.0101 19.3925 27.5239 19.8787 27.5239 20.4764C27.5239 20.9703 27.8563 21.3873 28.3089 21.5173V24.4258L27.1028 23.2198V18.8858C27.5554 18.7556 27.8877 18.3387 27.8877 17.8448C27.8877 17.2472 27.4016 16.7609 26.8039 16.7609C26.2062 16.7607 25.7201 17.247 25.7201 17.8447ZM24.5139 20.4761C24.5139 20.208 24.732 19.9901 25 19.9901C25.2681 19.9901 25.4862 20.208 25.4862 20.4761C25.4862 20.7442 25.2681 20.9623 25 20.9623C24.732 20.9623 24.5139 20.7442 24.5139 20.4761ZM28.1217 20.4761C28.1217 20.208 28.3397 19.9901 28.6078 19.9901C28.8758 19.9901 29.0939 20.208 29.0939 20.4761C29.0939 20.7442 28.8758 20.9623 28.6078 20.9623C28.3397 20.9623 28.1217 20.7442 28.1217 20.4761ZM28.8565 25.8185L26.804 27.871L24.7516 25.8185L26.804 23.7661L28.8565 25.8185ZM27.2901 17.8447C27.2901 18.1128 27.0721 18.3307 26.804 18.3307C26.536 18.3307 26.3179 18.1128 26.3179 17.8447C26.3179 17.5766 26.536 17.3585 26.804 17.3585C27.072 17.3585 27.2901 17.5766 27.2901 17.8447Z" fill="url(#paint1_linear_2613_17464)"/>
<path d="M27.8893 33.6095C27.8893 33.1156 27.5569 32.6988 27.1042 32.5685V28.2346L28.3103 27.0284V29.937C27.8577 30.0672 27.5252 30.4842 27.5252 30.978C27.5252 31.5757 28.0115 32.0618 28.6092 32.0618C29.2069 32.0618 29.6932 31.5757 29.6932 30.978C29.6932 30.4841 29.3607 30.0671 28.9081 29.937V26.4306L29.7031 25.6356L26.8053 22.7378L23.9076 25.6356L24.7027 26.4306V29.9369C24.2501 30.0671 23.9176 30.4841 23.9176 30.9779C23.9176 31.5755 24.4039 32.0617 25.0016 32.0617C25.5993 32.0617 26.0855 31.5755 26.0855 30.9779C26.0855 30.484 25.7531 30.067 25.3005 29.9369V27.0284L26.5066 28.2344V32.5684C26.054 32.6986 25.7216 33.1155 25.7216 33.6094C25.7216 34.2071 26.2078 34.6934 26.8055 34.6934C27.4032 34.6935 27.8893 34.2072 27.8893 33.6095ZM29.0955 30.9781C29.0955 31.2462 28.8774 31.4642 28.6093 31.4642C28.3413 31.4642 28.1232 31.2462 28.1232 30.9781C28.1232 30.7101 28.3413 30.492 28.6093 30.492C28.8774 30.492 29.0955 30.7101 29.0955 30.9781ZM25.4876 30.9781C25.4876 31.2462 25.2697 31.4642 25.0016 31.4642C24.7336 31.4642 24.5154 31.2462 24.5154 30.9781C24.5154 30.7101 24.7336 30.492 25.0016 30.492C25.2697 30.492 25.4876 30.7101 25.4876 30.9781ZM24.7529 25.6357L26.8053 23.5833L28.8578 25.6357L26.8053 27.6881L24.7529 25.6357ZM26.3193 33.6095C26.3193 33.3415 26.5373 33.1235 26.8053 33.1235C27.0734 33.1235 27.2915 33.3415 27.2915 33.6095C27.2915 33.8776 27.0734 34.0957 26.8053 34.0957C26.5374 34.0957 26.3193 33.8776 26.3193 33.6095Z" fill="url(#paint2_linear_2613_17464)"/>
<path d="M27.8893 33.6095C27.8893 33.1156 27.5569 32.6988 27.1042 32.5685V28.2346L28.3103 27.0284V29.937C27.8577 30.0672 27.5252 30.4842 27.5252 30.978C27.5252 31.5757 28.0115 32.0618 28.6092 32.0618C29.2069 32.0618 29.6932 31.5757 29.6932 30.978C29.6932 30.4841 29.3607 30.0671 28.9081 29.937V26.4306L29.7031 25.6356L26.8053 22.7378L23.9076 25.6356L24.7027 26.4306V29.9369C24.2501 30.0671 23.9176 30.4841 23.9176 30.9779C23.9176 31.5755 24.4039 32.0617 25.0016 32.0617C25.5993 32.0617 26.0855 31.5755 26.0855 30.9779C26.0855 30.484 25.7531 30.067 25.3005 29.9369V27.0284L26.5066 28.2344V32.5684C26.054 32.6986 25.7216 33.1155 25.7216 33.6094C25.7216 34.2071 26.2078 34.6934 26.8055 34.6934C27.4032 34.6935 27.8893 34.2072 27.8893 33.6095ZM29.0955 30.9781C29.0955 31.2462 28.8774 31.4642 28.6093 31.4642C28.3413 31.4642 28.1232 31.2462 28.1232 30.9781C28.1232 30.7101 28.3413 30.492 28.6093 30.492C28.8774 30.492 29.0955 30.7101 29.0955 30.9781ZM25.4876 30.9781C25.4876 31.2462 25.2697 31.4642 25.0016 31.4642C24.7336 31.4642 24.5154 31.2462 24.5154 30.9781C24.5154 30.7101 24.7336 30.492 25.0016 30.492C25.2697 30.492 25.4876 30.7101 25.4876 30.9781ZM24.7529 25.6357L26.8053 23.5833L28.8578 25.6357L26.8053 27.6881L24.7529 25.6357ZM26.3193 33.6095C26.3193 33.3415 26.5373 33.1235 26.8053 33.1235C27.0734 33.1235 27.2915 33.3415 27.2915 33.6095C27.2915 33.8776 27.0734 34.0957 26.8053 34.0957C26.5374 34.0957 26.3193 33.8776 26.3193 33.6095Z" fill="url(#paint3_linear_2613_17464)"/>
<path d="M0.896484 34.763V19.749L7.60098 26.0048L14.0476 19.749V34.763L7.60098 41.2691L0.896484 34.763Z" fill="#015C8E" stroke="#015C8E" stroke-width="0.65"/>
<path d="M47.4348 42.1396L38.7545 27.0191L34.0105 36.7861L36.5975 42.1396H47.4348Z" fill="url(#paint4_linear_2613_17464)" stroke="url(#paint5_linear_2613_17464)" stroke-width="0.65"/>
<path d="M33.5358 35.7357L47.4731 7.52068H36.6286L32.1811 20.9968V32.8282L33.5358 35.7357Z" fill="url(#paint6_linear_2613_17464)" stroke="url(#paint7_linear_2613_17464)" stroke-width="0.65"/>
<rect x="21.8406" y="7.52068" width="9.51224" height="34.6189" fill="url(#paint8_linear_2613_17464)" stroke="url(#paint9_linear_2613_17464)" stroke-width="0.65"/>
<rect y="13.637" width="10.8006" height="10.8006" transform="rotate(-45 0 13.637)" fill="url(#paint10_linear_2613_17464)"/>
<defs>
<linearGradient id="paint0_linear_2613_17464" x1="26.8039" y1="28.7163" x2="26.8039" y2="16.7608" gradientUnits="userSpaceOnUse">
<stop stop-color="#EC5200"/>
<stop offset="1" stop-color="#7F2D00"/>
</linearGradient>
<linearGradient id="paint1_linear_2613_17464" x1="26.8039" y1="28.7163" x2="26.8039" y2="16.7608" gradientUnits="userSpaceOnUse">
<stop stop-color="#EC5200"/>
<stop offset="1" stop-color="#7F2D00"/>
</linearGradient>
<linearGradient id="paint2_linear_2613_17464" x1="26.8054" y1="22.7379" x2="26.8054" y2="34.6935" gradientUnits="userSpaceOnUse">
<stop stop-color="#EC5200"/>
<stop offset="1" stop-color="#7F2D00"/>
</linearGradient>
<linearGradient id="paint3_linear_2613_17464" x1="26.8054" y1="22.7379" x2="26.8054" y2="34.6935" gradientUnits="userSpaceOnUse">
<stop stop-color="#EC5200"/>
<stop offset="1" stop-color="#7F2D00"/>
</linearGradient>
<linearGradient id="paint4_linear_2613_17464" x1="40.8227" y1="26.3246" x2="40.8227" y2="42.4646" gradientUnits="userSpaceOnUse">
<stop stop-color="#009AEC"/>
<stop offset="1" stop-color="#005380"/>
</linearGradient>
<linearGradient id="paint5_linear_2613_17464" x1="40.8227" y1="26.3246" x2="40.8227" y2="42.4646" gradientUnits="userSpaceOnUse">
<stop stop-color="#009AEC"/>
<stop offset="1" stop-color="#005380"/>
</linearGradient>
<linearGradient id="paint6_linear_2613_17464" x1="39.9261" y1="7.19568" x2="39.9261" y2="36.4868" gradientUnits="userSpaceOnUse">
<stop stop-color="#009AEC"/>
<stop offset="1" stop-color="#005380"/>
</linearGradient>
<linearGradient id="paint7_linear_2613_17464" x1="39.9261" y1="7.19568" x2="39.9261" y2="36.4868" gradientUnits="userSpaceOnUse">
<stop stop-color="#009AEC"/>
<stop offset="1" stop-color="#005380"/>
</linearGradient>
<linearGradient id="paint8_linear_2613_17464" x1="26.5967" y1="7.19568" x2="26.5967" y2="42.4646" gradientUnits="userSpaceOnUse">
<stop stop-color="#009AEC"/>
<stop offset="1" stop-color="#005380"/>
</linearGradient>
<linearGradient id="paint9_linear_2613_17464" x1="26.5967" y1="7.19568" x2="26.5967" y2="42.4646" gradientUnits="userSpaceOnUse">
<stop stop-color="#009AEC"/>
<stop offset="1" stop-color="#005380"/>
</linearGradient>
<linearGradient id="paint10_linear_2613_17464" x1="9.66003" y1="14.3588" x2="4.70883" y2="24.3316" gradientUnits="userSpaceOnUse">
<stop stop-color="#009AEC"/>
<stop offset="1" stop-color="#005380"/>
</linearGradient>
</defs>
</svg>
