<svg width="16" height="16" viewBox="0 0 16 16" fill="none" xmlns="http://www.w3.org/2000/svg">
<g clip-path="url(#clip0_2613_17462)">
<path d="M8.57332 5.94793C8.57332 6.11256 8.68413 6.25151 8.835 6.29491V7.73949L8.433 8.14153V7.17204C8.58386 7.12864 8.69467 6.98965 8.69467 6.82506C8.69467 6.62585 8.53258 6.4638 8.33337 6.4638C8.13415 6.4638 7.97206 6.62585 7.97206 6.82506C7.97206 6.98969 8.08288 7.12868 8.23374 7.17204V8.34079L7.96875 8.60578L8.93463 9.57166L9.9005 8.60578L9.63547 8.34079V7.17209C9.78633 7.12868 9.89715 6.98969 9.89715 6.8251C9.89715 6.62589 9.73506 6.46384 9.53584 6.46384C9.33663 6.46384 9.17458 6.62589 9.17458 6.8251C9.17458 6.98973 9.28535 7.12872 9.43621 7.17209V8.14153L9.03421 7.73953V6.29495C9.18508 6.25155 9.29585 6.1126 9.29585 5.94797C9.29585 5.74876 9.1338 5.58667 8.93458 5.58667C8.73537 5.58662 8.57332 5.74872 8.57332 5.94793ZM8.17128 6.82502C8.17128 6.73567 8.24398 6.66301 8.33332 6.66301C8.42267 6.66301 8.49537 6.73567 8.49537 6.82502C8.49537 6.91437 8.42267 6.98707 8.33332 6.98707C8.24398 6.98707 8.17128 6.91437 8.17128 6.82502ZM9.37384 6.82502C9.37384 6.73567 9.44649 6.66301 9.53584 6.66301C9.62519 6.66301 9.69789 6.73567 9.69789 6.82502C9.69789 6.91437 9.62519 6.98707 9.53584 6.98707C9.44649 6.98707 9.37384 6.91437 9.37384 6.82502ZM9.61874 8.60574L8.93463 9.28985L8.25052 8.60574L8.93463 7.92163L9.61874 8.60574ZM9.09663 5.94793C9.09663 6.03728 9.02397 6.10994 8.93463 6.10994C8.84528 6.10994 8.77258 6.03728 8.77258 5.94793C8.77258 5.85858 8.84528 5.78588 8.93463 5.78588C9.02393 5.78588 9.09663 5.85858 9.09663 5.94793Z" fill="url(#paint0_linear_2613_17462)"/>
<path d="M8.57332 5.94793C8.57332 6.11256 8.68413 6.25151 8.835 6.29491V7.73949L8.433 8.14153V7.17204C8.58386 7.12864 8.69467 6.98965 8.69467 6.82506C8.69467 6.62585 8.53258 6.4638 8.33337 6.4638C8.13415 6.4638 7.97206 6.62585 7.97206 6.82506C7.97206 6.98969 8.08288 7.12868 8.23374 7.17204V8.34079L7.96875 8.60578L8.93463 9.57166L9.9005 8.60578L9.63547 8.34079V7.17209C9.78633 7.12868 9.89715 6.98969 9.89715 6.8251C9.89715 6.62589 9.73506 6.46384 9.53584 6.46384C9.33663 6.46384 9.17458 6.62589 9.17458 6.8251C9.17458 6.98973 9.28535 7.12872 9.43621 7.17209V8.14153L9.03421 7.73953V6.29495C9.18508 6.25155 9.29585 6.1126 9.29585 5.94797C9.29585 5.74876 9.1338 5.58667 8.93458 5.58667C8.73537 5.58662 8.57332 5.74872 8.57332 5.94793ZM8.17128 6.82502C8.17128 6.73567 8.24398 6.66301 8.33332 6.66301C8.42267 6.66301 8.49537 6.73567 8.49537 6.82502C8.49537 6.91437 8.42267 6.98707 8.33332 6.98707C8.24398 6.98707 8.17128 6.91437 8.17128 6.82502ZM9.37384 6.82502C9.37384 6.73567 9.44649 6.66301 9.53584 6.66301C9.62519 6.66301 9.69789 6.73567 9.69789 6.82502C9.69789 6.91437 9.62519 6.98707 9.53584 6.98707C9.44649 6.98707 9.37384 6.91437 9.37384 6.82502ZM9.61874 8.60574L8.93463 9.28985L8.25052 8.60574L8.93463 7.92163L9.61874 8.60574ZM9.09663 5.94793C9.09663 6.03728 9.02397 6.10994 8.93463 6.10994C8.84528 6.10994 8.77258 6.03728 8.77258 5.94793C8.77258 5.85858 8.84528 5.78588 8.93463 5.78588C9.02393 5.78588 9.09663 5.85858 9.09663 5.94793Z" fill="url(#paint1_linear_2613_17462)"/>
<path d="M9.29582 11.2026C9.29582 11.038 9.18501 10.899 9.03414 10.8556V9.41102L9.43614 9.00898V9.97847C9.28528 10.0219 9.17447 10.1609 9.17447 10.3255C9.17447 10.5247 9.33656 10.6867 9.53577 10.6867C9.73499 10.6867 9.89708 10.5247 9.89708 10.3255C9.89708 10.1608 9.78626 10.0218 9.6354 9.97847V8.80972L9.90039 8.54473L8.93451 7.57886L7.96864 8.54473L8.23367 8.80972V9.97843C8.08281 10.0218 7.97199 10.1608 7.97199 10.3254C7.97199 10.5246 8.13408 10.6867 8.3333 10.6867C8.53251 10.6867 8.69456 10.5246 8.69456 10.3254C8.69456 10.1608 8.58379 10.0218 8.43293 9.97843V9.00898L8.83493 9.41098V10.8556C8.68407 10.899 8.57329 11.0379 8.57329 11.2025C8.57329 11.4018 8.73534 11.5638 8.93456 11.5638C9.13377 11.5639 9.29582 11.4018 9.29582 11.2026ZM9.69786 10.3255C9.69786 10.4148 9.62516 10.4875 9.53582 10.4875C9.44647 10.4875 9.37377 10.4148 9.37377 10.3255C9.37377 10.2361 9.44647 10.1634 9.53582 10.1634C9.62516 10.1634 9.69786 10.2361 9.69786 10.3255ZM8.4953 10.3255C8.4953 10.4148 8.42265 10.4875 8.3333 10.4875C8.24395 10.4875 8.17125 10.4148 8.17125 10.3255C8.17125 10.2361 8.24395 10.1634 8.3333 10.1634C8.42265 10.1634 8.4953 10.2361 8.4953 10.3255ZM8.2504 8.54478L8.93451 7.86067L9.61862 8.54478L8.93451 9.22889L8.2504 8.54478ZM8.77251 11.2026C8.77251 11.1132 8.84517 11.0406 8.93451 11.0406C9.02386 11.0406 9.09656 11.1132 9.09656 11.2026C9.09656 11.2919 9.02386 11.3646 8.93451 11.3646C8.84521 11.3646 8.77251 11.2919 8.77251 11.2026Z" fill="url(#paint2_linear_2613_17462)"/>
<path d="M9.29582 11.2026C9.29582 11.038 9.18501 10.899 9.03414 10.8556V9.41102L9.43614 9.00898V9.97847C9.28528 10.0219 9.17447 10.1609 9.17447 10.3255C9.17447 10.5247 9.33656 10.6867 9.53577 10.6867C9.73499 10.6867 9.89708 10.5247 9.89708 10.3255C9.89708 10.1608 9.78626 10.0218 9.6354 9.97847V8.80972L9.90039 8.54473L8.93451 7.57886L7.96864 8.54473L8.23367 8.80972V9.97843C8.08281 10.0218 7.97199 10.1608 7.97199 10.3254C7.97199 10.5246 8.13408 10.6867 8.3333 10.6867C8.53251 10.6867 8.69456 10.5246 8.69456 10.3254C8.69456 10.1608 8.58379 10.0218 8.43293 9.97843V9.00898L8.83493 9.41098V10.8556C8.68407 10.899 8.57329 11.0379 8.57329 11.2025C8.57329 11.4018 8.73534 11.5638 8.93456 11.5638C9.13377 11.5639 9.29582 11.4018 9.29582 11.2026ZM9.69786 10.3255C9.69786 10.4148 9.62516 10.4875 9.53582 10.4875C9.44647 10.4875 9.37377 10.4148 9.37377 10.3255C9.37377 10.2361 9.44647 10.1634 9.53582 10.1634C9.62516 10.1634 9.69786 10.2361 9.69786 10.3255ZM8.4953 10.3255C8.4953 10.4148 8.42265 10.4875 8.3333 10.4875C8.24395 10.4875 8.17125 10.4148 8.17125 10.3255C8.17125 10.2361 8.24395 10.1634 8.3333 10.1634C8.42265 10.1634 8.4953 10.2361 8.4953 10.3255ZM8.2504 8.54478L8.93451 7.86067L9.61862 8.54478L8.93451 9.22889L8.2504 8.54478ZM8.77251 11.2026C8.77251 11.1132 8.84517 11.0406 8.93451 11.0406C9.02386 11.0406 9.09656 11.1132 9.09656 11.2026C9.09656 11.2919 9.02386 11.3646 8.93451 11.3646C8.84521 11.3646 8.77251 11.2919 8.77251 11.2026Z" fill="url(#paint3_linear_2613_17462)"/>
<path d="M0.298828 11.587V6.58264L2.53355 8.66781L4.68231 6.58264V11.587L2.53355 13.7556L0.298828 11.587Z" fill="#015C8E" stroke="#015C8E" stroke-width="0.65"/>
<path d="M15.4367 13.8291L12.9336 9.46894L11.5772 12.2616L12.3347 13.8291H15.4367Z" fill="url(#paint4_linear_2613_17462)" stroke="url(#paint5_linear_2613_17462)" stroke-width="0.65"/>
<path d="M11.1839 11.4105L15.475 2.72344H12.3657L10.9433 7.03342V10.8942L11.1839 11.4105Z" fill="url(#paint6_linear_2613_17462)" stroke="url(#paint7_linear_2613_17462)" stroke-width="0.65"/>
<rect x="7.49687" y="2.72344" width="2.73724" height="11.1057" fill="url(#paint8_linear_2613_17462)" stroke="url(#paint9_linear_2613_17462)" stroke-width="0.65"/>
<rect y="4.54541" width="3.6" height="3.6" transform="rotate(-45 0 4.54541)" fill="url(#paint10_linear_2613_17462)"/>
</g>
<defs>
<linearGradient id="paint0_linear_2613_17462" x1="8.9346" y1="9.57162" x2="8.9346" y2="5.58663" gradientUnits="userSpaceOnUse">
<stop stop-color="#EC5200"/>
<stop offset="1" stop-color="#7F2D00"/>
</linearGradient>
<linearGradient id="paint1_linear_2613_17462" x1="8.9346" y1="9.57162" x2="8.9346" y2="5.58663" gradientUnits="userSpaceOnUse">
<stop stop-color="#EC5200"/>
<stop offset="1" stop-color="#7F2D00"/>
</linearGradient>
<linearGradient id="paint2_linear_2613_17462" x1="8.93454" y1="7.5789" x2="8.93454" y2="11.5639" gradientUnits="userSpaceOnUse">
<stop stop-color="#EC5200"/>
<stop offset="1" stop-color="#7F2D00"/>
</linearGradient>
<linearGradient id="paint3_linear_2613_17462" x1="8.93454" y1="7.5789" x2="8.93454" y2="11.5639" gradientUnits="userSpaceOnUse">
<stop stop-color="#EC5200"/>
<stop offset="1" stop-color="#7F2D00"/>
</linearGradient>
<linearGradient id="paint4_linear_2613_17462" x1="13.6071" y1="8.77441" x2="13.6071" y2="14.1541" gradientUnits="userSpaceOnUse">
<stop stop-color="#009AEC"/>
<stop offset="1" stop-color="#005380"/>
</linearGradient>
<linearGradient id="paint5_linear_2613_17462" x1="13.6071" y1="8.77441" x2="13.6071" y2="14.1541" gradientUnits="userSpaceOnUse">
<stop stop-color="#009AEC"/>
<stop offset="1" stop-color="#005380"/>
</linearGradient>
<linearGradient id="paint6_linear_2613_17462" x1="13.3082" y1="2.39844" x2="13.3082" y2="12.1617" gradientUnits="userSpaceOnUse">
<stop stop-color="#009AEC"/>
<stop offset="1" stop-color="#005380"/>
</linearGradient>
<linearGradient id="paint7_linear_2613_17462" x1="13.3082" y1="2.39844" x2="13.3082" y2="12.1617" gradientUnits="userSpaceOnUse">
<stop stop-color="#009AEC"/>
<stop offset="1" stop-color="#005380"/>
</linearGradient>
<linearGradient id="paint8_linear_2613_17462" x1="8.86549" y1="2.39844" x2="8.86549" y2="14.1541" gradientUnits="userSpaceOnUse">
<stop stop-color="#009AEC"/>
<stop offset="1" stop-color="#005380"/>
</linearGradient>
<linearGradient id="paint9_linear_2613_17462" x1="8.86549" y1="2.39844" x2="8.86549" y2="14.1541" gradientUnits="userSpaceOnUse">
<stop stop-color="#009AEC"/>
<stop offset="1" stop-color="#005380"/>
</linearGradient>
<linearGradient id="paint10_linear_2613_17462" x1="3.21985" y1="4.78602" x2="1.56953" y2="8.11012" gradientUnits="userSpaceOnUse">
<stop stop-color="#009AEC"/>
<stop offset="1" stop-color="#005380"/>
</linearGradient>
<clipPath id="clip0_2613_17462">
<rect width="16" height="16" fill="white"/>
</clipPath>
</defs>
</svg>
