<svg width="180" height="180" viewBox="0 0 180 180" fill="none" xmlns="http://www.w3.org/2000/svg">
<g clip-path="url(#clip0_2613_17466)">
<path d="M62.6281 46.0414C60.524 46.0414 58.7481 47.4577 58.1933 49.3859H39.7298L34.5912 44.2479H46.9825C47.5373 46.1761 49.3137 47.5924 51.4173 47.5924C53.9636 47.5924 56.0347 45.5207 56.0347 42.9745C56.0347 40.4283 53.9636 38.3565 51.4173 38.3565C49.3132 38.3565 47.5367 39.7729 46.9825 41.7011H32.0445L28.6576 38.3142L16.3125 50.6593L28.6576 63.0044L32.0445 59.6169H46.9819C47.5367 61.5452 49.3132 62.9615 51.4168 62.9615C53.963 62.9615 56.0342 60.8898 56.0342 58.3436C56.0342 55.7973 53.963 53.7262 51.4168 53.7262C49.3126 53.7262 47.5362 55.142 46.9819 57.0702H34.5912L39.7293 51.9321H58.1928C58.7475 53.8603 60.5234 55.2761 62.6276 55.2761C65.1738 55.2761 67.2455 53.205 67.2455 50.6587C67.2461 48.1125 65.1744 46.0414 62.6281 46.0414ZM51.4179 40.9028C52.5599 40.9028 53.4885 41.832 53.4885 42.9739C53.4885 44.1159 52.5599 45.0451 51.4179 45.0451C50.2759 45.0451 49.3467 44.1159 49.3467 42.9739C49.3467 41.832 50.2759 40.9028 51.4179 40.9028ZM51.4179 56.2729C52.5599 56.2729 53.4885 57.2016 53.4885 58.3436C53.4885 59.4855 52.5599 60.4147 51.4179 60.4147C50.2759 60.4147 49.3467 59.4855 49.3467 58.3436C49.3467 57.2016 50.2759 56.2729 51.4179 56.2729ZM28.6581 59.4031L19.9144 50.6593L28.6581 41.9155L37.4019 50.6593L28.6581 59.4031ZM62.6281 52.7299C61.4862 52.7299 60.5575 51.8013 60.5575 50.6593C60.5575 49.5173 61.4862 48.5881 62.6281 48.5881C63.7701 48.5881 64.6993 49.5173 64.6993 50.6593C64.6993 51.8007 63.7701 52.7299 62.6281 52.7299Z" fill="url(#paint0_linear_2613_17466)"/>
<path d="M46.6494 61.3274H38.2465L28.6593 70.9146L8.40343 50.6588L28.6593 30.4034L38.2465 39.9906H46.6499L28.6593 22L0 50.6588L28.6593 79.3175L46.6494 61.3274Z" fill="url(#paint1_linear_2613_17466)"/>
<path d="M62.6281 46.0414C60.524 46.0414 58.7481 47.4577 58.1933 49.3859H39.7298L34.5912 44.2479H46.9825C47.5373 46.1761 49.3137 47.5924 51.4173 47.5924C53.9636 47.5924 56.0347 45.5207 56.0347 42.9745C56.0347 40.4283 53.9636 38.3565 51.4173 38.3565C49.3132 38.3565 47.5367 39.7729 46.9825 41.7011H32.0445L28.6576 38.3142L16.3125 50.6593L28.6576 63.0044L32.0445 59.6169H46.9819C47.5367 61.5452 49.3132 62.9615 51.4168 62.9615C53.963 62.9615 56.0342 60.8898 56.0342 58.3436C56.0342 55.7973 53.963 53.7262 51.4168 53.7262C49.3126 53.7262 47.5362 55.142 46.9819 57.0702H34.5912L39.7293 51.9321H58.1928C58.7475 53.8603 60.5234 55.2761 62.6276 55.2761C65.1738 55.2761 67.2455 53.205 67.2455 50.6587C67.2461 48.1125 65.1744 46.0414 62.6281 46.0414ZM51.4179 40.9028C52.5599 40.9028 53.4885 41.832 53.4885 42.9739C53.4885 44.1159 52.5599 45.0451 51.4179 45.0451C50.2759 45.0451 49.3467 44.1159 49.3467 42.9739C49.3467 41.832 50.2759 40.9028 51.4179 40.9028ZM51.4179 56.2729C52.5599 56.2729 53.4885 57.2016 53.4885 58.3436C53.4885 59.4855 52.5599 60.4147 51.4179 60.4147C50.2759 60.4147 49.3467 59.4855 49.3467 58.3436C49.3467 57.2016 50.2759 56.2729 51.4179 56.2729ZM28.6581 59.4031L19.9144 50.6593L28.6581 41.9155L37.4019 50.6593L28.6581 59.4031ZM62.6281 52.7299C61.4862 52.7299 60.5575 51.8013 60.5575 50.6593C60.5575 49.5173 61.4862 48.5881 62.6281 48.5881C63.7701 48.5881 64.6993 49.5173 64.6993 50.6593C64.6993 51.8007 63.7701 52.7299 62.6281 52.7299Z" fill="url(#paint2_linear_2613_17466)"/>
<path d="M46.6494 61.3274H38.2465L28.6593 70.9146L8.40343 50.6588L28.6593 30.4034L38.2465 39.9906H46.6499L28.6593 22L0 50.6588L28.6593 79.3175L46.6494 61.3274Z" fill="url(#paint3_linear_2613_17466)"/>
<path d="M96.4635 66.4121C96.4635 68.2642 97.7102 69.8274 99.4074 70.3157V86.5672L94.8849 91.0902V80.1834C96.5821 79.6951 97.8288 78.1315 97.8288 76.2799C97.8288 74.0387 96.0052 72.2157 93.7641 72.2157C91.5229 72.2157 89.6994 74.0387 89.6994 76.2799C89.6994 78.1319 90.946 79.6956 92.6432 80.1834V93.3318L89.6621 96.313L100.528 107.179L111.394 96.313L108.413 93.3318V80.1839C110.11 79.6956 111.357 78.132 111.357 76.2804C111.357 74.0392 109.533 72.2161 107.292 72.2161C105.051 72.2161 103.228 74.0392 103.228 76.2804C103.228 78.1324 104.474 79.6961 106.171 80.1839V91.0902L101.649 86.5677V70.3162C103.346 69.8279 104.592 68.2647 104.592 66.4126C104.592 64.1715 102.769 62.3479 100.528 62.3479C98.2866 62.3475 96.4635 64.171 96.4635 66.4121ZM91.9405 76.2794C91.9405 75.2742 92.7584 74.4568 93.7636 74.4568C94.7687 74.4568 95.5866 75.2742 95.5866 76.2794C95.5866 77.2846 94.7687 78.1024 93.7636 78.1024C92.7584 78.1024 91.9405 77.2846 91.9405 76.2794ZM105.469 76.2794C105.469 75.2742 106.287 74.4568 107.292 74.4568C108.297 74.4568 109.115 75.2742 109.115 76.2794C109.115 77.2846 108.297 78.1024 107.292 78.1024C106.287 78.1024 105.469 77.2846 105.469 76.2794ZM108.224 96.3125L100.528 104.009L92.832 96.3125L100.528 88.6162L108.224 96.3125ZM102.351 66.4121C102.351 67.4173 101.533 68.2347 100.528 68.2347C99.5231 68.2347 98.7052 67.4173 98.7052 66.4121C98.7052 65.407 99.5231 64.5891 100.528 64.5891C101.533 64.5891 102.351 65.407 102.351 66.4121Z" fill="url(#paint4_linear_2613_17466)"/>
<path d="M96.4635 66.4121C96.4635 68.2642 97.7102 69.8274 99.4074 70.3157V86.5672L94.8849 91.0902V80.1834C96.5821 79.6951 97.8288 78.1315 97.8288 76.2799C97.8288 74.0387 96.0052 72.2157 93.7641 72.2157C91.5229 72.2157 89.6994 74.0387 89.6994 76.2799C89.6994 78.1319 90.946 79.6956 92.6432 80.1834V93.3318L89.6621 96.313L100.528 107.179L111.394 96.313L108.413 93.3318V80.1839C110.11 79.6956 111.357 78.132 111.357 76.2804C111.357 74.0392 109.533 72.2161 107.292 72.2161C105.051 72.2161 103.228 74.0392 103.228 76.2804C103.228 78.1324 104.474 79.6961 106.171 80.1839V91.0902L101.649 86.5677V70.3162C103.346 69.8279 104.592 68.2647 104.592 66.4126C104.592 64.1715 102.769 62.3479 100.528 62.3479C98.2866 62.3475 96.4635 64.171 96.4635 66.4121ZM91.9405 76.2794C91.9405 75.2742 92.7584 74.4568 93.7636 74.4568C94.7687 74.4568 95.5866 75.2742 95.5866 76.2794C95.5866 77.2846 94.7687 78.1024 93.7636 78.1024C92.7584 78.1024 91.9405 77.2846 91.9405 76.2794ZM105.469 76.2794C105.469 75.2742 106.287 74.4568 107.292 74.4568C108.297 74.4568 109.115 75.2742 109.115 76.2794C109.115 77.2846 108.297 78.1024 107.292 78.1024C106.287 78.1024 105.469 77.2846 105.469 76.2794ZM108.224 96.3125L100.528 104.009L92.832 96.3125L100.528 88.6162L108.224 96.3125ZM102.351 66.4121C102.351 67.4173 101.533 68.2347 100.528 68.2347C99.5231 68.2347 98.7052 67.4173 98.7052 66.4121C98.7052 65.407 99.5231 64.5891 100.528 64.5891C101.533 64.5891 102.351 65.407 102.351 66.4121Z" fill="url(#paint5_linear_2613_17466)"/>
<path d="M104.591 125.531C104.591 123.679 103.344 122.115 101.647 121.627V105.376L106.17 100.853V111.759C104.473 112.248 103.226 113.811 103.226 115.663C103.226 117.904 105.049 119.727 107.291 119.727C109.532 119.727 111.355 117.904 111.355 115.663C111.355 113.811 110.109 112.247 108.411 111.759V98.6109L111.393 95.6298L100.526 84.7637L89.6603 95.6298L92.642 98.6109V111.759C90.9447 112.247 89.6981 113.811 89.6981 115.662C89.6981 117.904 91.5216 119.727 93.7628 119.727C96.004 119.727 97.827 117.904 97.827 115.662C97.827 113.81 96.5808 112.247 94.8836 111.759V100.853L99.4061 105.375V121.627C97.7089 122.115 96.4627 123.678 96.4627 125.53C96.4627 127.771 98.2858 129.595 100.527 129.595C102.768 129.595 104.591 127.772 104.591 125.531ZM109.114 115.663C109.114 116.669 108.296 117.486 107.291 117.486C106.286 117.486 105.468 116.669 105.468 115.663C105.468 114.658 106.286 113.84 107.291 113.84C108.296 113.84 109.114 114.658 109.114 115.663ZM95.5853 115.663C95.5853 116.669 94.768 117.486 93.7628 117.486C92.7576 117.486 91.9397 116.669 91.9397 115.663C91.9397 114.658 92.7576 113.84 93.7628 113.84C94.768 113.84 95.5853 114.658 95.5853 115.663ZM92.8302 95.6303L100.526 87.934L108.223 95.6303L100.526 103.327L92.8302 95.6303ZM98.7039 125.531C98.7039 124.525 99.5213 123.708 100.526 123.708C101.532 123.708 102.35 124.525 102.35 125.531C102.35 126.536 101.532 127.354 100.526 127.354C99.5218 127.354 98.7039 126.536 98.7039 125.531Z" fill="url(#paint6_linear_2613_17466)"/>
<path d="M104.591 125.531C104.591 123.679 103.344 122.115 101.647 121.627V105.376L106.17 100.853V111.759C104.473 112.248 103.226 113.811 103.226 115.663C103.226 117.904 105.049 119.727 107.291 119.727C109.532 119.727 111.355 117.904 111.355 115.663C111.355 113.811 110.109 112.247 108.411 111.759V98.6109L111.393 95.6298L100.526 84.7637L89.6603 95.6298L92.642 98.6109V111.759C90.9447 112.247 89.6981 113.811 89.6981 115.662C89.6981 117.904 91.5216 119.727 93.7628 119.727C96.004 119.727 97.827 117.904 97.827 115.662C97.827 113.81 96.5808 112.247 94.8836 111.759V100.853L99.4061 105.375V121.627C97.7089 122.115 96.4627 123.678 96.4627 125.53C96.4627 127.771 98.2858 129.595 100.527 129.595C102.768 129.595 104.591 127.772 104.591 125.531ZM109.114 115.663C109.114 116.669 108.296 117.486 107.291 117.486C106.286 117.486 105.468 116.669 105.468 115.663C105.468 114.658 106.286 113.84 107.291 113.84C108.296 113.84 109.114 114.658 109.114 115.663ZM95.5853 115.663C95.5853 116.669 94.768 117.486 93.7628 117.486C92.7576 117.486 91.9397 116.669 91.9397 115.663C91.9397 114.658 92.7576 113.84 93.7628 113.84C94.768 113.84 95.5853 114.658 95.5853 115.663ZM92.8302 95.6303L100.526 87.934L108.223 95.6303L100.526 103.327L92.8302 95.6303ZM98.7039 125.531C98.7039 124.525 99.5213 123.708 100.526 123.708C101.532 123.708 102.35 124.525 102.35 125.531C102.35 126.536 101.532 127.354 100.526 127.354C99.5218 127.354 98.7039 126.536 98.7039 125.531Z" fill="url(#paint7_linear_2613_17466)"/>
<path d="M3.36328 129.855V73.5558L28.5039 97.0139L52.6775 73.5558V129.855L28.5039 154.252L3.36328 129.855Z" stroke="#015C8E" stroke-width="7.8"/>
<path d="M173.262 154.835L145.542 106.547L130.534 137.445L138.938 154.835H173.262Z" stroke="url(#paint8_linear_2613_17466)" stroke-width="7.8"/>
<path d="M139.311 30.383L123.376 78.6658V122.006L125.845 127.305L173.722 30.383H139.311Z" stroke="url(#paint9_linear_2613_17466)" stroke-width="7.8"/>
<rect x="84.5953" y="30.383" width="30.3065" height="124.452" stroke="url(#paint10_linear_2613_17466)" stroke-width="7.8"/>
</g>
<defs>
<linearGradient id="paint0_linear_2613_17466" x1="16.313" y1="50.659" x2="67.246" y2="50.659" gradientUnits="userSpaceOnUse">
<stop stop-color="#EC5200"/>
<stop offset="1" stop-color="#7F2D00"/>
</linearGradient>
<linearGradient id="paint1_linear_2613_17466" x1="41.7238" y1="25.8309" x2="12.3953" y2="73.9103" gradientUnits="userSpaceOnUse">
<stop stop-color="#009AEC"/>
<stop offset="1" stop-color="#005380"/>
</linearGradient>
<linearGradient id="paint2_linear_2613_17466" x1="16.313" y1="50.659" x2="67.246" y2="50.659" gradientUnits="userSpaceOnUse">
<stop stop-color="#EC5200"/>
<stop offset="1" stop-color="#7F2D00"/>
</linearGradient>
<linearGradient id="paint3_linear_2613_17466" x1="41.7238" y1="25.8309" x2="12.3953" y2="73.9103" gradientUnits="userSpaceOnUse">
<stop stop-color="#009AEC"/>
<stop offset="1" stop-color="#005380"/>
</linearGradient>
<linearGradient id="paint4_linear_2613_17466" x1="100.528" y1="107.179" x2="100.528" y2="62.3476" gradientUnits="userSpaceOnUse">
<stop stop-color="#EC5200"/>
<stop offset="1" stop-color="#7F2D00"/>
</linearGradient>
<linearGradient id="paint5_linear_2613_17466" x1="100.528" y1="107.179" x2="100.528" y2="62.3476" gradientUnits="userSpaceOnUse">
<stop stop-color="#EC5200"/>
<stop offset="1" stop-color="#7F2D00"/>
</linearGradient>
<linearGradient id="paint6_linear_2613_17466" x1="100.527" y1="84.7641" x2="100.527" y2="129.595" gradientUnits="userSpaceOnUse">
<stop stop-color="#EC5200"/>
<stop offset="1" stop-color="#7F2D00"/>
</linearGradient>
<linearGradient id="paint7_linear_2613_17466" x1="100.527" y1="84.7641" x2="100.527" y2="129.595" gradientUnits="userSpaceOnUse">
<stop stop-color="#EC5200"/>
<stop offset="1" stop-color="#7F2D00"/>
</linearGradient>
<linearGradient id="paint8_linear_2613_17466" x1="153.099" y1="98.2129" x2="153.099" y2="158.735" gradientUnits="userSpaceOnUse">
<stop stop-color="#009AEC"/>
<stop offset="1" stop-color="#005380"/>
</linearGradient>
<linearGradient id="paint9_linear_2613_17466" x1="149.737" y1="26.483" x2="149.737" y2="136.319" gradientUnits="userSpaceOnUse">
<stop stop-color="#009AEC"/>
<stop offset="1" stop-color="#005380"/>
</linearGradient>
<linearGradient id="paint10_linear_2613_17466" x1="99.7485" y1="26.483" x2="99.7485" y2="158.735" gradientUnits="userSpaceOnUse">
<stop stop-color="#009AEC"/>
<stop offset="1" stop-color="#005380"/>
</linearGradient>
<clipPath id="clip0_2613_17466">
<rect width="180" height="180" fill="white"/>
</clipPath>
</defs>
</svg>
