<svg width="96" height="96" viewBox="0 0 96 96" fill="none" xmlns="http://www.w3.org/2000/svg">
<g clip-path="url(#clip0_3617_423)">
<path d="M51.4443 35.6921C51.4443 36.68 52.1093 37.5138 53.0146 37.7743V46.443L50.6023 48.8556V43.0378C51.5076 42.7773 52.1726 41.9433 52.1726 40.9556C52.1726 39.7602 51.1999 38.7878 50.0044 38.7878C48.809 38.7878 47.8363 39.7602 47.8363 40.9556C47.8363 41.9435 48.5013 42.7776 49.4066 43.0378V50.0513L47.8164 51.6414L53.6125 57.4375L59.4085 51.6414L57.8181 50.0513V43.0381C58.7234 42.7776 59.3884 41.9435 59.3884 40.9559C59.3884 39.7604 58.4157 38.788 57.2203 38.788C56.0248 38.788 55.0524 39.7604 55.0524 40.9559C55.0524 41.9438 55.7171 42.7779 56.6224 43.0381V48.8556L54.2101 46.4432V37.7745C55.1154 37.5141 55.7801 36.6803 55.7801 35.6924C55.7801 34.4969 54.8077 33.5242 53.6122 33.5242C52.4168 33.524 51.4443 34.4967 51.4443 35.6921ZM49.0317 40.9554C49.0317 40.4192 49.468 39.9832 50.0042 39.9832C50.5403 39.9832 50.9766 40.4192 50.9766 40.9554C50.9766 41.4915 50.5403 41.9278 50.0042 41.9278C49.468 41.9278 49.0317 41.4915 49.0317 40.9554ZM56.2481 40.9554C56.2481 40.4192 56.6841 39.9832 57.2203 39.9832C57.7564 39.9832 58.1927 40.4192 58.1927 40.9554C58.1927 41.4915 57.7564 41.9278 57.2203 41.9278C56.6841 41.9278 56.2481 41.4915 56.2481 40.9554ZM57.7177 51.6412L53.6125 55.7464L49.5072 51.6412L53.6125 47.5359L57.7177 51.6412ZM54.5846 35.6921C54.5846 36.2283 54.1486 36.6643 53.6125 36.6643C53.0763 36.6643 52.6401 36.2283 52.6401 35.6921C52.6401 35.156 53.0763 34.7197 53.6125 34.7197C54.1484 34.7197 54.5846 35.156 54.5846 35.6921Z" fill="#0088CC"/>
<path d="M51.4443 35.6921C51.4443 36.68 52.1093 37.5138 53.0146 37.7743V46.443L50.6023 48.8556V43.0378C51.5076 42.7773 52.1726 41.9433 52.1726 40.9556C52.1726 39.7602 51.1999 38.7878 50.0044 38.7878C48.809 38.7878 47.8363 39.7602 47.8363 40.9556C47.8363 41.9435 48.5013 42.7776 49.4066 43.0378V50.0513L47.8164 51.6414L53.6125 57.4375L59.4085 51.6414L57.8181 50.0513V43.0381C58.7234 42.7776 59.3884 41.9435 59.3884 40.9559C59.3884 39.7604 58.4157 38.788 57.2203 38.788C56.0248 38.788 55.0524 39.7604 55.0524 40.9559C55.0524 41.9438 55.7171 42.7779 56.6224 43.0381V48.8556L54.2101 46.4432V37.7745C55.1154 37.5141 55.7801 36.6803 55.7801 35.6924C55.7801 34.4969 54.8077 33.5242 53.6122 33.5242C52.4168 33.524 51.4443 34.4967 51.4443 35.6921ZM49.0317 40.9554C49.0317 40.4192 49.468 39.9832 50.0042 39.9832C50.5403 39.9832 50.9766 40.4192 50.9766 40.9554C50.9766 41.4915 50.5403 41.9278 50.0042 41.9278C49.468 41.9278 49.0317 41.4915 49.0317 40.9554ZM56.2481 40.9554C56.2481 40.4192 56.6841 39.9832 57.2203 39.9832C57.7564 39.9832 58.1927 40.4192 58.1927 40.9554C58.1927 41.4915 57.7564 41.9278 57.2203 41.9278C56.6841 41.9278 56.2481 41.4915 56.2481 40.9554ZM57.7177 51.6412L53.6125 55.7464L49.5072 51.6412L53.6125 47.5359L57.7177 51.6412ZM54.5846 35.6921C54.5846 36.2283 54.1486 36.6643 53.6125 36.6643C53.0763 36.6643 52.6401 36.2283 52.6401 35.6921C52.6401 35.156 53.0763 34.7197 53.6125 34.7197C54.1484 34.7197 54.5846 35.156 54.5846 35.6921Z" fill="#0088CC"/>
<path d="M55.7822 67.2239C55.7822 66.236 55.1173 65.4022 54.2119 65.1417V56.4731L56.6243 54.0605V59.8782C55.719 60.1387 55.054 60.9727 55.054 61.9604C55.054 63.1558 56.0267 64.1283 57.2221 64.1283C58.4176 64.1283 59.3903 63.1558 59.3903 61.9604C59.3903 60.9725 58.7253 60.1384 57.82 59.8782V52.8647L59.4102 51.2746L53.6141 45.4785L47.818 51.2746L49.4084 52.8647V59.8779C48.5031 60.1384 47.8382 60.9725 47.8382 61.9601C47.8382 63.1556 48.8108 64.128 50.0063 64.128C51.2018 64.128 52.1742 63.1556 52.1742 61.9601C52.1742 60.9722 51.5095 60.1382 50.6042 59.8779V54.0605L53.0165 56.4728V65.1415C52.1112 65.4019 51.4465 66.2357 51.4465 67.2236C51.4465 68.4191 52.4189 69.3918 53.6143 69.3918C54.8098 69.392 55.7822 68.4194 55.7822 67.2239ZM58.1948 61.9606C58.1948 62.4968 57.7586 62.9328 57.2224 62.9328C56.6862 62.9328 56.25 62.4968 56.25 61.9606C56.25 61.4245 56.6862 60.9882 57.2224 60.9882C57.7586 60.9882 58.1948 61.4245 58.1948 61.9606ZM50.9785 61.9606C50.9785 62.4968 50.5425 62.9328 50.0063 62.9328C49.4701 62.9328 49.0339 62.4968 49.0339 61.9606C49.0339 61.4245 49.4701 60.9882 50.0063 60.9882C50.5425 60.9882 50.9785 61.4245 50.9785 61.9606ZM49.5089 51.2748L53.6141 47.1696L57.7193 51.2748L53.6141 55.3801L49.5089 51.2748ZM52.6419 67.2239C52.6419 66.6877 53.0779 66.2517 53.6141 66.2517C54.1502 66.2517 54.5865 66.6877 54.5865 67.2239C54.5865 67.7601 54.1502 68.1963 53.6141 68.1963C53.0782 68.1963 52.6419 67.7601 52.6419 67.2239Z" fill="#0088CC"/>
<path d="M55.7822 67.2239C55.7822 66.236 55.1173 65.4022 54.2119 65.1417V56.4731L56.6243 54.0605V59.8782C55.719 60.1387 55.054 60.9727 55.054 61.9604C55.054 63.1558 56.0267 64.1283 57.2221 64.1283C58.4176 64.1283 59.3903 63.1558 59.3903 61.9604C59.3903 60.9725 58.7253 60.1384 57.82 59.8782V52.8647L59.4102 51.2746L53.6141 45.4785L47.818 51.2746L49.4084 52.8647V59.8779C48.5031 60.1384 47.8382 60.9725 47.8382 61.9601C47.8382 63.1556 48.8108 64.128 50.0063 64.128C51.2018 64.128 52.1742 63.1556 52.1742 61.9601C52.1742 60.9722 51.5095 60.1382 50.6042 59.8779V54.0605L53.0165 56.4728V65.1415C52.1112 65.4019 51.4465 66.2357 51.4465 67.2236C51.4465 68.4191 52.4189 69.3918 53.6143 69.3918C54.8098 69.392 55.7822 68.4194 55.7822 67.2239ZM58.1948 61.9606C58.1948 62.4968 57.7586 62.9328 57.2224 62.9328C56.6862 62.9328 56.25 62.4968 56.25 61.9606C56.25 61.4245 56.6862 60.9882 57.2224 60.9882C57.7586 60.9882 58.1948 61.4245 58.1948 61.9606ZM50.9785 61.9606C50.9785 62.4968 50.5425 62.9328 50.0063 62.9328C49.4701 62.9328 49.0339 62.4968 49.0339 61.9606C49.0339 61.4245 49.4701 60.9882 50.0063 60.9882C50.5425 60.9882 50.9785 61.4245 50.9785 61.9606ZM49.5089 51.2748L53.6141 47.1696L57.7193 51.2748L53.6141 55.3801L49.5089 51.2748ZM52.6419 67.2239C52.6419 66.6877 53.0779 66.2517 53.6141 66.2517C54.1502 66.2517 54.5865 66.6877 54.5865 67.2239C54.5865 67.7601 54.1502 68.1963 53.6141 68.1963C53.0782 68.1963 52.6419 67.7601 52.6419 67.2239Z" fill="#0088CC"/>
<path d="M1.79297 69.5316V39.501L15.2031 52.0137L28.0976 39.501V69.5316L15.2031 82.5448L1.79297 69.5316Z" fill="#0088CC" stroke="#0088CC" stroke-width="0.65"/>
<path d="M95.4387 84.6102L77.4912 53.3469L67.6652 73.5768L72.9969 84.6102H95.4387Z" fill="#0088CC" stroke="#0088CC" stroke-width="0.65"/>
<path d="M73.0279 14.7166L64.0421 41.9441V65.7331L67.0682 72.2279L95.477 14.7166H73.0279Z" fill="#0088CC" stroke="#0088CC" stroke-width="0.65"/>
<rect x="43.3602" y="14.7166" width="19.6763" height="69.8941" fill="#0088CC" stroke="#0088CC" stroke-width="0.65"/>
<rect y="27.2754" width="21.603" height="21.603" transform="rotate(-45 0 27.2754)" fill="#0088CC"/>
</g>
<defs>
<clipPath id="clip0_3617_423">
<rect width="96" height="96" fill="white"/>
</clipPath>
</defs>
</svg>
