<svg width="100" height="100" viewBox="0 0 100 100" fill="none" xmlns="http://www.w3.org/2000/svg">
<path d="M49.75 9C27.2434 9 9 27.4306 9 50.1682C9 72.9057 27.2434 91.3364 49.75 91.3364C72.2566 91.3364 90.5 72.9057 90.5 50.1682C90.5 27.4306 72.2566 9 49.75 9ZM49.75 84.9038C30.7603 84.9038 15.3672 69.3527 15.3672 50.1682C15.3672 30.9836 30.7603 15.4325 49.75 15.4325C68.7397 15.4325 84.1328 30.9836 84.1328 50.1682C84.1328 69.3527 68.7397 84.9038 49.75 84.9038Z" fill="#2E2E2E"/>
<path fill-rule="evenodd" clip-rule="evenodd" d="M60.4971 43.166H52.621V37.3589C52.621 35.5776 54.4449 35.1645 55.2961 35.1645C56.1417 35.1645 60.3839 35.1645 60.3839 35.1645V27.3277L54.5528 27.297C46.5966 27.297 44.7809 33.1404 44.7809 36.8872V43.1662H39.0078V51.2403H44.7809C44.7809 61.6067 44.7809 73.0394 44.7809 73.0394H52.621C52.621 73.0394 52.621 61.4893 52.621 51.2403H59.2811L60.4971 43.166Z" fill="#2E2E2E"/>
</svg>
