<svg width="294" height="40" viewBox="0 0 294 40" fill="none" xmlns="http://www.w3.org/2000/svg">
<g clip-path="url(#clip0_3383_4339)">
<mask id="path-1-outside-1_3383_4339" maskUnits="userSpaceOnUse" x="-1" y="9" width="295" height="25" fill="black">
<rect fill="white" x="-1" y="9" width="295" height="25"/>
<path d="M3.69992 32H0.789922V10.505H3.69992V32ZM16.5931 19.925H17.6881C18.0681 19.925 18.3731 19.88 18.6031 19.79C18.8331 19.69 19.0431 19.525 19.2331 19.295L26.3881 11.195C26.5881 10.935 26.7981 10.755 27.0181 10.655C27.2381 10.555 27.5081 10.505 27.8281 10.505H30.2881L22.0981 19.76C21.8981 20 21.7031 20.2 21.5131 20.36C21.3331 20.51 21.1381 20.635 20.9281 20.735C21.1981 20.825 21.4431 20.96 21.6631 21.14C21.8831 21.31 22.0981 21.535 22.3081 21.815L30.8581 32H28.3381C28.1481 32 27.9831 31.99 27.8431 31.97C27.7131 31.94 27.5981 31.9 27.4981 31.85C27.3981 31.79 27.3081 31.725 27.2281 31.655C27.1581 31.575 27.0881 31.485 27.0181 31.385L19.6081 22.85C19.4081 22.6 19.1931 22.425 18.9631 22.325C18.7331 22.215 18.3831 22.16 17.9131 22.16H16.5931V32H13.6981V10.505H16.5931V19.925ZM40.9714 32H38.0614V10.505H40.9714V32ZM68.4296 21.665V29.915C67.3496 30.695 66.1946 31.28 64.9646 31.67C63.7446 32.05 62.4046 32.24 60.9446 32.24C59.2146 32.24 57.6546 31.975 56.2646 31.445C54.8746 30.905 53.6846 30.155 52.6946 29.195C51.7146 28.225 50.9596 27.065 50.4296 25.715C49.8996 24.365 49.6346 22.88 49.6346 21.26C49.6346 19.62 49.8896 18.125 50.3996 16.775C50.9196 15.425 51.6546 14.27 52.6046 13.31C53.5546 12.34 54.7096 11.59 56.0696 11.06C57.4296 10.53 58.9496 10.265 60.6296 10.265C61.4796 10.265 62.2696 10.33 62.9996 10.46C63.7296 10.58 64.4046 10.76 65.0246 11C65.6446 11.23 66.2196 11.515 66.7496 11.855C67.2796 12.185 67.7746 12.56 68.2346 12.98L67.4096 14.3C67.2796 14.5 67.1096 14.63 66.8996 14.69C66.6996 14.74 66.4746 14.69 66.2246 14.54C65.9846 14.4 65.7096 14.23 65.3996 14.03C65.0896 13.83 64.7096 13.64 64.2596 13.46C63.8196 13.27 63.2946 13.11 62.6846 12.98C62.0846 12.85 61.3696 12.785 60.5396 12.785C59.3296 12.785 58.2346 12.985 57.2546 13.385C56.2746 13.775 55.4396 14.34 54.7496 15.08C54.0596 15.81 53.5296 16.7 53.1596 17.75C52.7896 18.79 52.6046 19.96 52.6046 21.26C52.6046 22.61 52.7946 23.82 53.1746 24.89C53.5646 25.95 54.1146 26.855 54.8246 27.605C55.5446 28.345 56.4146 28.91 57.4346 29.3C58.4546 29.69 59.5996 29.885 60.8696 29.885C61.8696 29.885 62.7546 29.775 63.5246 29.555C64.3046 29.325 65.0646 29.01 65.8046 28.61V23.885H62.4596C62.2696 23.885 62.1146 23.83 61.9946 23.72C61.8846 23.61 61.8296 23.475 61.8296 23.315V21.665H68.4296ZM88.6229 24.02L85.2479 15.275C85.1479 15.015 85.0429 14.715 84.9329 14.375C84.8229 14.025 84.7179 13.655 84.6179 13.265C84.4079 14.075 84.1929 14.75 83.9729 15.29L80.5979 24.02H88.6229ZM94.6829 32H92.4329C92.1729 32 91.9629 31.935 91.8029 31.805C91.6429 31.675 91.5229 31.51 91.4429 31.31L89.4329 26.12H79.7879L77.7779 31.31C77.7179 31.49 77.6029 31.65 77.4329 31.79C77.2629 31.93 77.0529 32 76.8029 32H74.5529L83.1479 10.505H86.0879L94.6829 32ZM104.921 32H102.011V10.505H104.921V32ZM142.185 27.56C142.345 27.56 142.485 27.625 142.605 27.755L143.76 29C142.88 30.02 141.81 30.815 140.55 31.385C139.3 31.955 137.785 32.24 136.005 32.24C134.465 32.24 133.065 31.975 131.805 31.445C130.545 30.905 129.47 30.155 128.58 29.195C127.69 28.225 127 27.065 126.51 25.715C126.02 24.365 125.775 22.88 125.775 21.26C125.775 19.64 126.03 18.155 126.54 16.805C127.05 15.455 127.765 14.295 128.685 13.325C129.615 12.355 130.725 11.605 132.015 11.075C133.305 10.535 134.73 10.265 136.29 10.265C137.82 10.265 139.17 10.51 140.34 11C141.51 11.49 142.54 12.155 143.43 12.995L142.47 14.33C142.41 14.43 142.33 14.515 142.23 14.585C142.14 14.645 142.015 14.675 141.855 14.675C141.675 14.675 141.455 14.58 141.195 14.39C140.935 14.19 140.595 13.97 140.175 13.73C139.755 13.49 139.23 13.275 138.6 13.085C137.97 12.885 137.195 12.785 136.275 12.785C135.165 12.785 134.15 12.98 133.23 13.37C132.31 13.75 131.515 14.305 130.845 15.035C130.185 15.765 129.67 16.655 129.3 17.705C128.93 18.755 128.745 19.94 128.745 21.26C128.745 22.6 128.935 23.795 129.315 24.845C129.705 25.895 130.23 26.785 130.89 27.515C131.56 28.235 132.345 28.785 133.245 29.165C134.155 29.545 135.135 29.735 136.185 29.735C136.825 29.735 137.4 29.7 137.91 29.63C138.43 29.55 138.905 29.43 139.335 29.27C139.775 29.11 140.18 28.91 140.55 28.67C140.93 28.42 141.305 28.125 141.675 27.785C141.845 27.635 142.015 27.56 142.185 27.56ZM157.589 20.915C158.429 20.915 159.169 20.815 159.809 20.615C160.459 20.405 160.999 20.115 161.429 19.745C161.869 19.365 162.199 18.915 162.419 18.395C162.639 17.875 162.749 17.3 162.749 16.67C162.749 15.39 162.329 14.425 161.489 13.775C160.649 13.125 159.389 12.8 157.709 12.8H154.529V20.915H157.589ZM167.519 32H164.939C164.409 32 164.019 31.795 163.769 31.385L158.189 23.705C158.019 23.465 157.834 23.295 157.634 23.195C157.444 23.085 157.144 23.03 156.734 23.03H154.529V32H151.634V10.505H157.709C159.069 10.505 160.244 10.645 161.234 10.925C162.224 11.195 163.039 11.59 163.679 12.11C164.329 12.63 164.809 13.26 165.119 14C165.429 14.73 165.584 15.55 165.584 16.46C165.584 17.22 165.464 17.93 165.224 18.59C164.984 19.25 164.634 19.845 164.174 20.375C163.724 20.895 163.169 21.34 162.509 21.71C161.859 22.08 161.119 22.36 160.289 22.55C160.659 22.76 160.979 23.065 161.249 23.465L167.519 32ZM188.202 29.63L188.187 32H174.942V10.505H188.187V12.875H177.852V20.015H186.222V22.295H177.852V29.63H188.202ZM208.172 24.02L204.797 15.275C204.697 15.015 204.592 14.715 204.482 14.375C204.372 14.025 204.267 13.655 204.167 13.265C203.957 14.075 203.742 14.75 203.522 15.29L200.147 24.02H208.172ZM214.232 32H211.982C211.722 32 211.512 31.935 211.352 31.805C211.192 31.675 211.072 31.51 210.992 31.31L208.982 26.12H199.337L197.327 31.31C197.267 31.49 197.152 31.65 196.982 31.79C196.812 31.93 196.602 32 196.352 32H194.102L202.697 10.505H205.637L214.232 32ZM233.985 12.95H227.025V32H224.13V12.95H217.155V10.505H233.985V12.95ZM244.585 32H241.675V10.505H244.585V32ZM272.058 10.505L263.298 32H260.688L251.928 10.505H254.253C254.513 10.505 254.723 10.57 254.883 10.7C255.043 10.83 255.163 10.995 255.243 11.195L261.303 26.36C261.433 26.7 261.558 27.07 261.678 27.47C261.808 27.87 261.923 28.29 262.023 28.73C262.123 28.29 262.228 27.87 262.338 27.47C262.448 27.07 262.568 26.7 262.698 26.36L268.743 11.195C268.803 11.025 268.918 10.87 269.088 10.73C269.268 10.58 269.483 10.505 269.733 10.505H272.058ZM292.646 29.63L292.631 32H279.386V10.505H292.631V12.875H282.296V20.015H290.666V22.295H282.296V29.63H292.646Z"/>
</mask>
<path d="M3.69992 32H0.789922V10.505H3.69992V32ZM16.5931 19.925H17.6881C18.0681 19.925 18.3731 19.88 18.6031 19.79C18.8331 19.69 19.0431 19.525 19.2331 19.295L26.3881 11.195C26.5881 10.935 26.7981 10.755 27.0181 10.655C27.2381 10.555 27.5081 10.505 27.8281 10.505H30.2881L22.0981 19.76C21.8981 20 21.7031 20.2 21.5131 20.36C21.3331 20.51 21.1381 20.635 20.9281 20.735C21.1981 20.825 21.4431 20.96 21.6631 21.14C21.8831 21.31 22.0981 21.535 22.3081 21.815L30.8581 32H28.3381C28.1481 32 27.9831 31.99 27.8431 31.97C27.7131 31.94 27.5981 31.9 27.4981 31.85C27.3981 31.79 27.3081 31.725 27.2281 31.655C27.1581 31.575 27.0881 31.485 27.0181 31.385L19.6081 22.85C19.4081 22.6 19.1931 22.425 18.9631 22.325C18.7331 22.215 18.3831 22.16 17.9131 22.16H16.5931V32H13.6981V10.505H16.5931V19.925ZM40.9714 32H38.0614V10.505H40.9714V32ZM68.4296 21.665V29.915C67.3496 30.695 66.1946 31.28 64.9646 31.67C63.7446 32.05 62.4046 32.24 60.9446 32.24C59.2146 32.24 57.6546 31.975 56.2646 31.445C54.8746 30.905 53.6846 30.155 52.6946 29.195C51.7146 28.225 50.9596 27.065 50.4296 25.715C49.8996 24.365 49.6346 22.88 49.6346 21.26C49.6346 19.62 49.8896 18.125 50.3996 16.775C50.9196 15.425 51.6546 14.27 52.6046 13.31C53.5546 12.34 54.7096 11.59 56.0696 11.06C57.4296 10.53 58.9496 10.265 60.6296 10.265C61.4796 10.265 62.2696 10.33 62.9996 10.46C63.7296 10.58 64.4046 10.76 65.0246 11C65.6446 11.23 66.2196 11.515 66.7496 11.855C67.2796 12.185 67.7746 12.56 68.2346 12.98L67.4096 14.3C67.2796 14.5 67.1096 14.63 66.8996 14.69C66.6996 14.74 66.4746 14.69 66.2246 14.54C65.9846 14.4 65.7096 14.23 65.3996 14.03C65.0896 13.83 64.7096 13.64 64.2596 13.46C63.8196 13.27 63.2946 13.11 62.6846 12.98C62.0846 12.85 61.3696 12.785 60.5396 12.785C59.3296 12.785 58.2346 12.985 57.2546 13.385C56.2746 13.775 55.4396 14.34 54.7496 15.08C54.0596 15.81 53.5296 16.7 53.1596 17.75C52.7896 18.79 52.6046 19.96 52.6046 21.26C52.6046 22.61 52.7946 23.82 53.1746 24.89C53.5646 25.95 54.1146 26.855 54.8246 27.605C55.5446 28.345 56.4146 28.91 57.4346 29.3C58.4546 29.69 59.5996 29.885 60.8696 29.885C61.8696 29.885 62.7546 29.775 63.5246 29.555C64.3046 29.325 65.0646 29.01 65.8046 28.61V23.885H62.4596C62.2696 23.885 62.1146 23.83 61.9946 23.72C61.8846 23.61 61.8296 23.475 61.8296 23.315V21.665H68.4296ZM88.6229 24.02L85.2479 15.275C85.1479 15.015 85.0429 14.715 84.9329 14.375C84.8229 14.025 84.7179 13.655 84.6179 13.265C84.4079 14.075 84.1929 14.75 83.9729 15.29L80.5979 24.02H88.6229ZM94.6829 32H92.4329C92.1729 32 91.9629 31.935 91.8029 31.805C91.6429 31.675 91.5229 31.51 91.4429 31.31L89.4329 26.12H79.7879L77.7779 31.31C77.7179 31.49 77.6029 31.65 77.4329 31.79C77.2629 31.93 77.0529 32 76.8029 32H74.5529L83.1479 10.505H86.0879L94.6829 32ZM104.921 32H102.011V10.505H104.921V32ZM142.185 27.56C142.345 27.56 142.485 27.625 142.605 27.755L143.76 29C142.88 30.02 141.81 30.815 140.55 31.385C139.3 31.955 137.785 32.24 136.005 32.24C134.465 32.24 133.065 31.975 131.805 31.445C130.545 30.905 129.47 30.155 128.58 29.195C127.69 28.225 127 27.065 126.51 25.715C126.02 24.365 125.775 22.88 125.775 21.26C125.775 19.64 126.03 18.155 126.54 16.805C127.05 15.455 127.765 14.295 128.685 13.325C129.615 12.355 130.725 11.605 132.015 11.075C133.305 10.535 134.73 10.265 136.29 10.265C137.82 10.265 139.17 10.51 140.34 11C141.51 11.49 142.54 12.155 143.43 12.995L142.47 14.33C142.41 14.43 142.33 14.515 142.23 14.585C142.14 14.645 142.015 14.675 141.855 14.675C141.675 14.675 141.455 14.58 141.195 14.39C140.935 14.19 140.595 13.97 140.175 13.73C139.755 13.49 139.23 13.275 138.6 13.085C137.97 12.885 137.195 12.785 136.275 12.785C135.165 12.785 134.15 12.98 133.23 13.37C132.31 13.75 131.515 14.305 130.845 15.035C130.185 15.765 129.67 16.655 129.3 17.705C128.93 18.755 128.745 19.94 128.745 21.26C128.745 22.6 128.935 23.795 129.315 24.845C129.705 25.895 130.23 26.785 130.89 27.515C131.56 28.235 132.345 28.785 133.245 29.165C134.155 29.545 135.135 29.735 136.185 29.735C136.825 29.735 137.4 29.7 137.91 29.63C138.43 29.55 138.905 29.43 139.335 29.27C139.775 29.11 140.18 28.91 140.55 28.67C140.93 28.42 141.305 28.125 141.675 27.785C141.845 27.635 142.015 27.56 142.185 27.56ZM157.589 20.915C158.429 20.915 159.169 20.815 159.809 20.615C160.459 20.405 160.999 20.115 161.429 19.745C161.869 19.365 162.199 18.915 162.419 18.395C162.639 17.875 162.749 17.3 162.749 16.67C162.749 15.39 162.329 14.425 161.489 13.775C160.649 13.125 159.389 12.8 157.709 12.8H154.529V20.915H157.589ZM167.519 32H164.939C164.409 32 164.019 31.795 163.769 31.385L158.189 23.705C158.019 23.465 157.834 23.295 157.634 23.195C157.444 23.085 157.144 23.03 156.734 23.03H154.529V32H151.634V10.505H157.709C159.069 10.505 160.244 10.645 161.234 10.925C162.224 11.195 163.039 11.59 163.679 12.11C164.329 12.63 164.809 13.26 165.119 14C165.429 14.73 165.584 15.55 165.584 16.46C165.584 17.22 165.464 17.93 165.224 18.59C164.984 19.25 164.634 19.845 164.174 20.375C163.724 20.895 163.169 21.34 162.509 21.71C161.859 22.08 161.119 22.36 160.289 22.55C160.659 22.76 160.979 23.065 161.249 23.465L167.519 32ZM188.202 29.63L188.187 32H174.942V10.505H188.187V12.875H177.852V20.015H186.222V22.295H177.852V29.63H188.202ZM208.172 24.02L204.797 15.275C204.697 15.015 204.592 14.715 204.482 14.375C204.372 14.025 204.267 13.655 204.167 13.265C203.957 14.075 203.742 14.75 203.522 15.29L200.147 24.02H208.172ZM214.232 32H211.982C211.722 32 211.512 31.935 211.352 31.805C211.192 31.675 211.072 31.51 210.992 31.31L208.982 26.12H199.337L197.327 31.31C197.267 31.49 197.152 31.65 196.982 31.79C196.812 31.93 196.602 32 196.352 32H194.102L202.697 10.505H205.637L214.232 32ZM233.985 12.95H227.025V32H224.13V12.95H217.155V10.505H233.985V12.95ZM244.585 32H241.675V10.505H244.585V32ZM272.058 10.505L263.298 32H260.688L251.928 10.505H254.253C254.513 10.505 254.723 10.57 254.883 10.7C255.043 10.83 255.163 10.995 255.243 11.195L261.303 26.36C261.433 26.7 261.558 27.07 261.678 27.47C261.808 27.87 261.923 28.29 262.023 28.73C262.123 28.29 262.228 27.87 262.338 27.47C262.448 27.07 262.568 26.7 262.698 26.36L268.743 11.195C268.803 11.025 268.918 10.87 269.088 10.73C269.268 10.58 269.483 10.505 269.733 10.505H272.058ZM292.646 29.63L292.631 32H279.386V10.505H292.631V12.875H282.296V20.015H290.666V22.295H282.296V29.63H292.646Z" fill="#0088CC" fill-opacity="0.8"/>
<path d="M3.69992 32V33H4.69992V32H3.69992ZM0.789922 32H-0.210078V33H0.789922V32ZM0.789922 10.505V9.505H-0.210078V10.505H0.789922ZM3.69992 10.505H4.69992V9.505H3.69992V10.505ZM3.69992 31H0.789922V33H3.69992V31ZM1.78992 32V10.505H-0.210078V32H1.78992ZM0.789922 11.505H3.69992V9.505H0.789922V11.505ZM2.69992 10.505V32H4.69992V10.505H2.69992ZM16.5931 19.925H15.5931V20.925H16.5931V19.925ZM18.6031 19.79L18.9675 20.7212L18.9848 20.7145L19.0019 20.7071L18.6031 19.79ZM19.2331 19.295L18.4837 18.633L18.4727 18.6454L18.4622 18.6581L19.2331 19.295ZM26.3881 11.195L27.1376 11.857L27.1601 11.8316L27.1808 11.8047L26.3881 11.195ZM27.0181 10.655L27.4319 11.5654L27.4319 11.5654L27.0181 10.655ZM30.2881 10.505L31.037 11.1677L32.5084 9.505H30.2881V10.505ZM22.0981 19.76L21.3492 19.0973L21.3394 19.1084L21.3299 19.1198L22.0981 19.76ZM21.5131 20.36L22.1533 21.1282L22.1573 21.1249L21.5131 20.36ZM20.9281 20.735L20.4982 19.8321L18.2578 20.899L20.6119 21.6837L20.9281 20.735ZM21.6631 21.14L21.0299 21.914L21.0407 21.9228L21.0517 21.9313L21.6631 21.14ZM22.3081 21.815L21.5081 22.415L21.5246 22.4369L21.5422 22.458L22.3081 21.815ZM30.8581 32V33H33.0032L31.624 31.357L30.8581 32ZM27.8431 31.97L27.6183 32.9444L27.6597 32.9539L27.7017 32.9599L27.8431 31.97ZM27.4981 31.85L26.9836 32.7075L27.0166 32.7273L27.0509 32.7444L27.4981 31.85ZM27.2281 31.655L26.4755 32.3135L26.5194 32.3637L26.5696 32.4076L27.2281 31.655ZM27.0181 31.385L27.8374 30.8115L27.8074 30.7688L27.7732 30.7294L27.0181 31.385ZM19.6081 22.85L18.8273 23.4747L18.8398 23.4904L18.853 23.5056L19.6081 22.85ZM18.9631 22.325L18.5317 23.2271L18.5479 23.2349L18.5644 23.2421L18.9631 22.325ZM16.5931 22.16V21.16H15.5931V22.16H16.5931ZM16.5931 32V33H17.5931V32H16.5931ZM13.6981 32H12.6981V33H13.6981V32ZM13.6981 10.505V9.505H12.6981V10.505H13.6981ZM16.5931 10.505H17.5931V9.505H16.5931V10.505ZM16.5931 20.925H17.6881V18.925H16.5931V20.925ZM17.6881 20.925C18.1328 20.925 18.5762 20.8744 18.9675 20.7212L18.2387 18.8588C18.17 18.8856 18.0035 18.925 17.6881 18.925V20.925ZM19.0019 20.7071C19.4012 20.5334 19.7327 20.2604 20.0041 19.9319L18.4622 18.6581C18.3536 18.7896 18.2651 18.8466 18.2044 18.8729L19.0019 20.7071ZM19.9826 19.957L27.1376 11.857L25.6387 10.533L18.4837 18.633L19.9826 19.957ZM27.1808 11.8047C27.315 11.6302 27.4045 11.5778 27.4319 11.5654L26.6043 9.74463C26.1917 9.93219 25.8612 10.2398 25.5955 10.5853L27.1808 11.8047ZM27.4319 11.5654C27.4871 11.5403 27.6068 11.505 27.8281 11.505V9.505C27.4094 9.505 26.9892 9.5697 26.6043 9.74463L27.4319 11.5654ZM27.8281 11.505H30.2881V9.505H27.8281V11.505ZM29.5392 9.84229L21.3492 19.0973L22.847 20.4227L31.037 11.1677L29.5392 9.84229ZM21.3299 19.1198C21.1584 19.3256 21.0043 19.4811 20.869 19.5951L22.1573 21.1249C22.4019 20.9189 22.6379 20.6744 22.8663 20.4002L21.3299 19.1198ZM20.8729 19.5918C20.7566 19.6887 20.6322 19.7683 20.4982 19.8321L21.3581 21.6379C21.6441 21.5017 21.9096 21.3313 22.1533 21.1282L20.8729 19.5918ZM20.6119 21.6837C20.7666 21.7353 20.9042 21.8111 21.0299 21.914L22.2964 20.366C21.9821 20.1089 21.6296 19.9147 21.2444 19.7863L20.6119 21.6837ZM21.0517 21.9313C21.1849 22.0342 21.3388 22.1893 21.5081 22.415L23.1081 21.215C22.8574 20.8807 22.5813 20.5858 22.2746 20.3487L21.0517 21.9313ZM21.5422 22.458L30.0922 32.643L31.624 31.357L23.074 21.172L21.5422 22.458ZM30.8581 31H28.3381V33H30.8581V31ZM28.3381 31C28.1805 31 28.0649 30.9915 27.9845 30.9801L27.7017 32.9599C27.9013 32.9885 28.1158 33 28.3381 33V31ZM28.068 30.9956C28.0007 30.9801 27.9626 30.9642 27.9453 30.9556L27.0509 32.7444C27.2336 32.8358 27.4256 32.8999 27.6183 32.9444L28.068 30.9956ZM28.0126 30.9925C27.9588 30.9602 27.9178 30.9297 27.8866 30.9024L26.5696 32.4076C26.6985 32.5203 26.8375 32.6198 26.9836 32.7075L28.0126 30.9925ZM27.9807 30.9965C27.9376 30.9472 27.8896 30.8862 27.8374 30.8115L26.1989 31.9585C26.2866 32.0838 26.3786 32.2028 26.4755 32.3135L27.9807 30.9965ZM27.7732 30.7294L20.3632 22.1944L18.853 23.5056L26.263 32.0406L27.7732 30.7294ZM20.389 22.2253C20.1147 21.8824 19.7767 21.5883 19.3619 21.4079L18.5644 23.2421C18.6095 23.2617 18.7015 23.3176 18.8273 23.4747L20.389 22.2253ZM19.3946 21.4229C18.9593 21.2147 18.4271 21.16 17.9131 21.16V23.16C18.1118 23.16 18.2627 23.1718 18.3729 23.1891C18.4271 23.1977 18.4669 23.2068 18.4945 23.2146C18.5223 23.2226 18.5332 23.2279 18.5317 23.2271L19.3946 21.4229ZM17.9131 21.16H16.5931V23.16H17.9131V21.16ZM15.5931 22.16V32H17.5931V22.16H15.5931ZM16.5931 31H13.6981V33H16.5931V31ZM14.6981 32V10.505H12.6981V32H14.6981ZM13.6981 11.505H16.5931V9.505H13.6981V11.505ZM15.5931 10.505V19.925H17.5931V10.505H15.5931ZM40.9714 32V33H41.9714V32H40.9714ZM38.0614 32H37.0614V33H38.0614V32ZM38.0614 10.505V9.505H37.0614V10.505H38.0614ZM40.9714 10.505H41.9714V9.505H40.9714V10.505ZM40.9714 31H38.0614V33H40.9714V31ZM39.0614 32V10.505H37.0614V32H39.0614ZM38.0614 11.505H40.9714V9.505H38.0614V11.505ZM39.9714 10.505V32H41.9714V10.505H39.9714ZM68.4296 21.665H69.4296V20.665H68.4296V21.665ZM68.4296 29.915L69.0151 30.7257L69.4296 30.4263V29.915H68.4296ZM64.9646 31.67L65.262 32.6248L65.2669 32.6232L64.9646 31.67ZM56.2646 31.445L55.9025 32.3771L55.9083 32.3794L56.2646 31.445ZM52.6946 29.195L51.9911 29.9058L51.9985 29.9129L52.6946 29.195ZM50.4296 25.715L51.3604 25.3496L51.3604 25.3496L50.4296 25.715ZM50.3996 16.775L49.4664 16.4155L49.4641 16.4216L50.3996 16.775ZM52.6046 13.31L53.3154 14.0134L53.319 14.0097L52.6046 13.31ZM56.0696 11.06L56.4327 11.9917L56.4327 11.9917L56.0696 11.06ZM62.9996 10.46L62.8243 11.4446L62.8374 11.4468L62.9996 10.46ZM65.0246 11L64.6636 11.9327L64.6768 11.9376L65.0246 11ZM66.7496 11.855L66.2096 12.6968L66.2211 12.7039L66.7496 11.855ZM68.2346 12.98L69.0826 13.51L69.5243 12.8034L68.9089 12.2415L68.2346 12.98ZM67.4096 14.3L68.2481 14.845L68.2529 14.8375L68.2576 14.83L67.4096 14.3ZM66.8996 14.69L67.1421 15.6601L67.1583 15.6561L67.1743 15.6515L66.8996 14.69ZM66.2246 14.54L66.7391 13.6824L66.7285 13.6762L66.2246 14.54ZM65.3996 14.03L65.9417 13.1897L65.9417 13.1897L65.3996 14.03ZM64.2596 13.46L63.8632 14.3781L63.8756 14.3834L63.8882 14.3885L64.2596 13.46ZM62.6846 12.98L62.4729 13.9573L62.4762 13.958L62.6846 12.98ZM57.2546 13.385L57.6244 14.3142L57.6325 14.3108L57.2546 13.385ZM54.7496 15.08L55.4764 15.7669L55.481 15.762L54.7496 15.08ZM53.1596 17.75L54.1018 18.0852L54.1028 18.0823L53.1596 17.75ZM53.1746 24.89L52.2322 25.2247L52.2361 25.2353L53.1746 24.89ZM54.8246 27.605L54.0983 28.2925L54.1079 28.3024L54.8246 27.605ZM63.5246 29.555L63.7993 30.5166L63.8074 30.5142L63.5246 29.555ZM65.8046 28.61L66.2801 29.4897L66.8046 29.2062V28.61H65.8046ZM65.8046 23.885H66.8046V22.885H65.8046V23.885ZM61.9946 23.72L61.2875 24.4271L61.3029 24.4425L61.3189 24.4572L61.9946 23.72ZM61.8296 21.665V20.665H60.8296V21.665H61.8296ZM67.4296 21.665V29.915H69.4296V21.665H67.4296ZM67.8441 29.1043C66.8475 29.8241 65.7877 30.36 64.6624 30.7168L65.2669 32.6232C66.6015 32.2 67.8517 31.5659 69.0151 30.7257L67.8441 29.1043ZM64.6672 30.7152C63.5561 31.0613 62.3179 31.24 60.9446 31.24V33.24C62.4913 33.24 63.9331 33.0387 65.262 32.6248L64.6672 30.7152ZM60.9446 31.24C59.3169 31.24 57.8802 30.9908 56.6209 30.5106L55.9083 32.3794C57.429 32.9592 59.1124 33.24 60.9446 33.24V31.24ZM56.6267 30.5129C55.351 30.0173 54.2773 29.3367 53.3908 28.4771L51.9985 29.9129C53.092 30.9733 54.3982 31.7927 55.9025 32.3771L56.6267 30.5129ZM53.3981 28.4843C52.5222 27.6173 51.8422 26.5767 51.3604 25.3496L49.4988 26.0804C50.077 27.5533 50.907 28.8327 51.9911 29.9057L53.3981 28.4843ZM51.3604 25.3496C50.8812 24.1288 50.6346 22.7695 50.6346 21.26H48.6346C48.6346 22.9905 48.918 24.6012 49.4988 26.0804L51.3604 25.3496ZM50.6346 21.26C50.6346 19.7244 50.8732 18.3511 51.3351 17.1284L49.4641 16.4216C48.9061 17.8988 48.6346 19.5156 48.6346 21.26H50.6346ZM51.3328 17.1344C51.8068 15.9039 52.4692 14.8685 53.3154 14.0134L51.8938 12.6066C50.84 13.6715 50.0325 14.9461 49.4664 16.4156L51.3328 17.1344ZM53.319 14.0097C54.1624 13.1486 55.1949 12.4741 56.4327 11.9917L55.7065 10.1283C54.2243 10.7059 52.9468 11.5314 51.8902 12.6103L53.319 14.0097ZM56.4327 11.9917C57.6609 11.5131 59.0553 11.265 60.6296 11.265V9.265C58.8439 9.265 57.1983 9.54687 55.7065 10.1283L56.4327 11.9917ZM60.6296 11.265C61.4292 11.265 62.1598 11.3262 62.8243 11.4445L63.1749 9.47549C62.3794 9.33382 61.5301 9.265 60.6296 9.265V11.265ZM62.8374 11.4468C63.507 11.5568 64.1146 11.72 64.6636 11.9326L65.3856 10.0674C64.6947 9.79997 63.9523 9.60318 63.1618 9.47324L62.8374 11.4468ZM64.6768 11.9376C65.2329 12.1438 65.743 12.3973 66.2097 12.6967L67.2896 11.0133C66.6962 10.6327 66.0564 10.3162 65.3724 10.0624L64.6768 11.9376ZM66.2211 12.7039C66.6993 13.0017 67.1455 13.3398 67.5603 13.7185L68.9089 12.2415C68.4037 11.7802 67.8599 11.3683 67.2782 11.0061L66.2211 12.7039ZM67.3866 12.45L66.5616 13.77L68.2576 14.83L69.0826 13.51L67.3866 12.45ZM66.5712 13.755C66.5613 13.7702 66.5617 13.7649 66.5772 13.7531C66.5844 13.7476 66.593 13.7421 66.6024 13.7374C66.6117 13.7328 66.6196 13.73 66.6249 13.7285L67.1743 15.6515C67.6384 15.5189 67.9996 15.2272 68.2481 14.845L66.5712 13.755ZM66.6571 13.7199C66.6888 13.7119 66.7188 13.7087 66.7449 13.7087C66.7706 13.7087 66.7888 13.7118 66.7978 13.7138C66.8138 13.7174 66.7952 13.7162 66.7391 13.6825L65.7101 15.3975C66.0923 15.6268 66.5941 15.7972 67.1421 15.6601L66.6571 13.7199ZM66.7285 13.6762C66.5048 13.5457 66.243 13.384 65.9417 13.1897L64.8575 14.8703C65.1763 15.076 65.4644 15.2543 65.7207 15.4038L66.7285 13.6762ZM65.9417 13.1897C65.5641 12.946 65.1232 12.7284 64.631 12.5315L63.8882 14.3885C64.296 14.5516 64.6152 14.714 64.8575 14.8703L65.9417 13.1897ZM64.656 12.5419C64.1406 12.3194 63.5494 12.1418 62.893 12.002L62.4762 13.958C63.0398 14.0782 63.4986 14.2206 63.8632 14.3781L64.656 12.5419ZM62.8964 12.0027C62.2074 11.8534 61.4177 11.785 60.5396 11.785V13.785C61.3215 13.785 61.9619 13.8466 62.4729 13.9573L62.8964 12.0027ZM60.5396 11.785C59.2184 11.785 57.9926 12.0037 56.8767 12.4592L57.6325 14.3108C58.4766 13.9663 59.4408 13.785 60.5396 13.785V11.785ZM56.8849 12.4559C55.7735 12.8981 54.8133 13.5453 54.0182 14.398L55.481 15.762C56.0659 15.1347 56.7757 14.6519 57.6244 14.3141L56.8849 12.4559ZM54.0229 14.3931C53.2268 15.2353 52.6279 16.25 52.2165 17.4176L54.1028 18.0823C54.4313 17.15 54.8925 16.3847 55.4763 15.7669L54.0229 14.3931ZM52.2175 17.4148C51.8031 18.5796 51.6046 19.8656 51.6046 21.26H53.6046C53.6046 20.0544 53.7762 19.0004 54.1018 18.0852L52.2175 17.4148ZM51.6046 21.26C51.6046 22.703 51.8077 24.0291 52.2323 25.2247L54.1169 24.5553C53.7816 23.6109 53.6046 22.517 53.6046 21.26H51.6046ZM52.2361 25.2353C52.6685 26.4106 53.2868 27.4351 54.0984 28.2925L55.5508 26.9175C54.9425 26.2749 54.4607 25.4894 54.1131 24.5447L52.2361 25.2353ZM54.1079 28.3024C54.9349 29.1524 55.9298 29.7952 57.0775 30.2341L57.7917 28.3659C56.8994 28.0248 56.1543 27.5376 55.5413 26.9076L54.1079 28.3024ZM57.0775 30.2341C58.2285 30.6741 59.4971 30.885 60.8696 30.885V28.885C59.7021 28.885 58.6808 28.7059 57.7917 28.3659L57.0775 30.2341ZM60.8696 30.885C61.9405 30.885 62.921 30.7675 63.7993 30.5165L63.2499 28.5935C62.5882 28.7825 61.7987 28.885 60.8696 28.885V30.885ZM63.8074 30.5142C64.6565 30.2638 65.481 29.9217 66.2801 29.4897L65.3291 27.7303C64.6483 28.0983 63.9527 28.3862 63.2418 28.5958L63.8074 30.5142ZM66.8046 28.61V23.885H64.8046V28.61H66.8046ZM65.8046 22.885H62.4596V24.885H65.8046V22.885ZM62.4596 22.885C62.4612 22.885 62.4902 22.8853 62.5353 22.9013C62.5828 22.9182 62.6304 22.9463 62.6703 22.9828L61.3189 24.4572C61.6537 24.7641 62.064 24.885 62.4596 24.885V22.885ZM62.7017 23.0129C62.7345 23.0457 62.7709 23.0949 62.797 23.159C62.8228 23.2225 62.8296 23.2783 62.8296 23.315H60.8296C60.8296 23.7318 60.9841 24.1237 61.2875 24.4271L62.7017 23.0129ZM62.8296 23.315V21.665H60.8296V23.315H62.8296ZM61.8296 22.665H68.4296V20.665H61.8296V22.665ZM88.6229 24.02V25.02H90.0807L89.5558 23.6599L88.6229 24.02ZM85.2479 15.275L84.3145 15.634L84.315 15.6351L85.2479 15.275ZM84.9329 14.375L83.9789 14.6748L83.9814 14.6828L84.9329 14.375ZM84.6179 13.265L85.5866 13.0166L83.6499 13.014L84.6179 13.265ZM83.9729 15.29L83.0468 14.9127L83.0434 14.921L83.0402 14.9294L83.9729 15.29ZM80.5979 24.02L79.6652 23.6594L79.1392 25.02H80.5979V24.02ZM94.6829 32V33H96.1597L95.6114 31.6287L94.6829 32ZM91.8029 31.805L91.1723 32.5811L91.1723 32.5811L91.8029 31.805ZM91.4429 31.31L90.5103 31.6712L90.5144 31.6814L91.4429 31.31ZM89.4329 26.12L90.3654 25.7589L90.118 25.12H89.4329V26.12ZM79.7879 26.12V25.12H79.1028L78.8554 25.7589L79.7879 26.12ZM77.7779 31.31L76.8454 30.9489L76.8368 30.9711L76.8292 30.9938L77.7779 31.31ZM77.4329 31.79L78.0686 32.5619L78.0686 32.5619L77.4329 31.79ZM74.5529 32L73.6244 31.6287L73.076 33H74.5529V32ZM83.1479 10.505V9.505H82.4708L82.2194 10.1337L83.1479 10.505ZM86.0879 10.505L87.0164 10.1337L86.765 9.505H86.0879V10.505ZM89.5558 23.6599L86.1808 14.9149L84.315 15.6351L87.69 24.3801L89.5558 23.6599ZM86.1812 14.916C86.0892 14.6768 85.9902 14.3945 85.8843 14.0672L83.9814 14.6828C84.0955 15.0355 84.2065 15.3532 84.3145 15.634L86.1812 14.916ZM85.8869 14.0752C85.7827 13.7437 85.6825 13.391 85.5866 13.0166L83.6492 13.5134C83.7532 13.919 83.8631 14.3063 83.9789 14.6748L85.8869 14.0752ZM83.6499 13.014C83.4467 13.7978 83.2446 14.4273 83.0468 14.9127L84.899 15.6673C85.1412 15.0727 85.3691 14.3522 85.5859 13.516L83.6499 13.014ZM83.0402 14.9294L79.6652 23.6594L81.5306 24.3806L84.9056 15.6506L83.0402 14.9294ZM80.5979 25.02H88.6229V23.02H80.5979V25.02ZM94.6829 31H92.4329V33H94.6829V31ZM92.4329 31C92.3854 31 92.3697 30.994 92.3761 30.996C92.3795 30.997 92.3875 30.9999 92.3985 31.0057C92.4096 31.0115 92.4217 31.0193 92.4335 31.0289L91.1723 32.5811C91.5529 32.8904 92.0045 33 92.4329 33V31ZM92.4335 31.0289C92.4116 31.0111 92.3911 30.9879 92.3714 30.9386L90.5144 31.6814C90.6547 32.0321 90.8741 32.3389 91.1723 32.5811L92.4335 31.0289ZM92.3754 30.9489L90.3654 25.7589L88.5004 26.4811L90.5104 31.6711L92.3754 30.9489ZM89.4329 25.12H79.7879V27.12H89.4329V25.12ZM78.8554 25.7589L76.8454 30.9489L78.7104 31.6711L80.7204 26.4811L78.8554 25.7589ZM76.8292 30.9938C76.8305 30.9898 76.8321 30.9863 76.8334 30.9836C76.8348 30.9809 76.8355 30.9802 76.8346 30.9814C76.833 30.9836 76.8232 30.9966 76.7972 31.0181L78.0686 32.5619C78.3599 32.322 78.5981 32.0116 78.7266 31.6262L76.8292 30.9938ZM76.7972 31.0181C76.8014 31.0146 76.8072 31.0105 76.8142 31.0066C76.8212 31.0028 76.8274 31.0003 76.8317 30.9988C76.8359 30.9974 76.8365 30.9976 76.8324 30.9983C76.8283 30.9989 76.8187 31 76.8029 31V33C77.2516 33 77.6955 32.8692 78.0686 32.5619L76.7972 31.0181ZM76.8029 31H74.5529V33H76.8029V31ZM75.4814 32.3713L84.0764 10.8763L82.2194 10.1337L73.6244 31.6287L75.4814 32.3713ZM83.1479 11.505H86.0879V9.505H83.1479V11.505ZM85.1594 10.8763L93.7544 32.3713L95.6114 31.6287L87.0164 10.1337L85.1594 10.8763ZM104.921 32V33H105.921V32H104.921ZM102.011 32H101.011V33H102.011V32ZM102.011 10.505V9.505H101.011V10.505H102.011ZM104.921 10.505H105.921V9.505H104.921V10.505ZM104.921 31H102.011V33H104.921V31ZM103.011 32V10.505H101.011V32H103.011ZM102.011 11.505H104.921V9.505H102.011V11.505ZM103.921 10.505V32H105.921V10.505H103.921ZM142.605 27.755L141.87 28.4333L141.872 28.4351L142.605 27.755ZM143.76 29L144.517 29.6532L145.101 28.9758L144.493 28.3199L143.76 29ZM140.55 31.385L140.137 30.4739L140.135 30.4751L140.55 31.385ZM131.805 31.445L131.411 32.3642L131.417 32.3668L131.805 31.445ZM128.58 29.195L127.843 29.8711L127.846 29.8749L128.58 29.195ZM126.51 25.715L127.45 25.3738L127.45 25.3738L126.51 25.715ZM126.54 16.805L127.475 17.1584L127.475 17.1584L126.54 16.805ZM128.685 13.325L127.963 12.6329L127.959 12.6368L128.685 13.325ZM132.015 11.075L132.395 12L132.401 11.9974L132.015 11.075ZM140.34 11L140.726 10.0776L140.726 10.0776L140.34 11ZM143.43 12.995L144.241 13.5788L144.752 12.8684L144.116 12.2678L143.43 12.995ZM142.47 14.33L141.658 13.7462L141.633 13.7799L141.612 13.8155L142.47 14.33ZM142.23 14.585L142.784 15.4171L142.794 15.4107L142.803 15.4042L142.23 14.585ZM141.195 14.39L140.585 15.1826L140.595 15.1901L140.605 15.1974L141.195 14.39ZM140.175 13.73L140.671 12.8618L140.671 12.8618L140.175 13.73ZM138.6 13.085L138.297 14.0381L138.304 14.0403L138.311 14.0424L138.6 13.085ZM133.23 13.37L133.611 14.2943L133.62 14.2907L133.23 13.37ZM130.845 15.035L130.108 14.3588L130.103 14.3644L130.845 15.035ZM129.3 17.705L128.356 17.3726L129.3 17.705ZM129.315 24.845L128.374 25.1853L128.377 25.1932L129.315 24.845ZM130.89 27.515L130.148 28.1856L130.153 28.191L130.158 28.1962L130.89 27.515ZM133.245 29.165L132.856 30.0863L132.859 30.0878L133.245 29.165ZM137.91 29.63L138.046 30.6207L138.054 30.6196L138.062 30.6184L137.91 29.63ZM139.335 29.27L138.993 28.3302L138.986 28.3328L139.335 29.27ZM140.55 28.67L141.094 29.509L141.099 29.5054L140.55 28.67ZM141.675 27.785L141.013 27.0352L141.005 27.0418L140.998 27.0487L141.675 27.785ZM142.185 28.56C142.125 28.56 142.055 28.5468 141.988 28.5158C141.924 28.4858 141.886 28.4504 141.87 28.4333L143.339 27.0767C143.052 26.7657 142.655 26.56 142.185 26.56V28.56ZM141.872 28.4351L143.027 29.6801L144.493 28.3199L143.338 27.0749L141.872 28.4351ZM143.002 28.3468C142.22 29.2538 141.269 29.9621 140.137 30.4739L140.962 32.2961C142.351 31.6679 143.539 30.7862 144.517 29.6532L143.002 28.3468ZM140.135 30.4751C139.047 30.9709 137.682 31.24 136.005 31.24V33.24C137.887 33.24 139.552 32.9391 140.965 32.2949L140.135 30.4751ZM136.005 31.24C134.581 31.24 133.315 30.9954 132.192 30.5232L131.417 32.3668C132.814 32.9546 134.348 33.24 136.005 33.24V31.24ZM132.199 30.5259C131.061 30.0383 130.103 29.3677 129.313 28.5151L127.846 29.8749C128.836 30.9423 130.028 31.7717 131.411 32.3641L132.199 30.5259ZM129.316 28.5189C128.523 27.6546 127.899 26.6112 127.45 25.3738L125.57 26.0562C126.1 27.5188 126.856 28.7954 127.843 29.8711L129.316 28.5189ZM127.45 25.3738C127.004 24.1462 126.775 22.7784 126.775 21.26H124.775C124.775 22.9816 125.035 24.5838 125.57 26.0562L127.45 25.3738ZM126.775 21.26C126.775 19.746 127.013 18.3825 127.475 17.1584L125.604 16.4516C125.047 17.9275 124.775 19.534 124.775 21.26H126.775ZM127.475 17.1584C127.942 15.9229 128.589 14.8792 129.41 14.0132L127.959 12.6368C126.94 13.7108 126.157 14.9871 125.604 16.4516L127.475 17.1584ZM129.406 14.0171C130.236 13.1515 131.229 12.4791 132.395 12L131.635 10.15C130.221 10.7309 128.993 11.5585 127.963 12.6329L129.406 14.0171ZM132.401 11.9974C133.555 11.5142 134.847 11.265 136.29 11.265V9.265C134.612 9.265 133.054 9.55576 131.628 10.1526L132.401 11.9974ZM136.29 11.265C137.714 11.265 138.928 11.493 139.953 11.9224L140.726 10.0776C139.411 9.52698 137.926 9.265 136.29 9.265V11.265ZM139.953 11.9224C141.016 12.3676 141.944 12.9678 142.743 13.7222L144.116 12.2678C143.135 11.3422 142.003 10.6124 140.726 10.0776L139.953 11.9224ZM142.618 12.4112L141.658 13.7462L143.281 14.9138L144.241 13.5788L142.618 12.4112ZM141.612 13.8155C141.619 13.804 141.627 13.793 141.636 13.7834C141.645 13.7739 141.653 13.7682 141.656 13.7658L142.803 15.4042C143.013 15.2576 143.191 15.0705 143.327 14.8445L141.612 13.8155ZM141.675 13.7529C141.744 13.7066 141.804 13.6875 141.835 13.6801C141.865 13.6729 141.874 13.675 141.855 13.675V15.675C142.123 15.675 142.469 15.6273 142.784 15.4171L141.675 13.7529ZM141.855 13.675C141.938 13.675 141.975 13.6961 141.951 13.6857C141.928 13.6759 141.874 13.6476 141.785 13.5826L140.605 15.1974C140.917 15.4257 141.352 15.675 141.855 15.675V13.675ZM141.804 13.5974C141.496 13.36 141.114 13.1148 140.671 12.8618L139.678 14.5982C140.076 14.8252 140.374 15.02 140.585 15.1826L141.804 13.5974ZM140.671 12.8618C140.167 12.5736 139.567 12.3322 138.888 12.1276L138.311 14.0424C138.893 14.2178 139.343 14.4064 139.678 14.5982L140.671 12.8618ZM138.902 12.1319C138.144 11.8913 137.26 11.785 136.275 11.785V13.785C137.129 13.785 137.795 13.8787 138.297 14.0381L138.902 12.1319ZM136.275 11.785C135.045 11.785 133.896 12.0015 132.839 12.4493L133.62 14.2907C134.403 13.9585 135.284 13.785 136.275 13.785V11.785ZM132.848 12.4457C131.793 12.8812 130.877 13.5207 130.108 14.3588L131.581 15.7112C132.152 15.0893 132.826 14.6188 133.611 14.2943L132.848 12.4457ZM130.103 14.3644C129.343 15.2047 128.765 16.214 128.356 17.3726L130.243 18.0373C130.574 17.096 131.026 16.3253 131.586 15.7056L130.103 14.3644ZM128.356 17.3726C127.943 18.5472 127.745 19.8473 127.745 21.26H129.745C129.745 20.0327 129.917 18.9628 130.243 18.0373L128.356 17.3726ZM127.745 21.26C127.745 22.6935 127.948 24.0068 128.374 25.1853L130.255 24.5047C129.921 23.5832 129.745 22.5065 129.745 21.26H127.745ZM128.377 25.1932C128.805 26.3458 129.392 27.3495 130.148 28.1856L131.631 26.8444C131.067 26.2205 130.604 25.4442 130.252 24.4968L128.377 25.1932ZM130.158 28.1962C130.923 29.0188 131.825 29.651 132.856 30.0862L133.634 28.2438C132.865 27.919 132.196 27.4512 131.622 26.8338L130.158 28.1962ZM132.859 30.0878C133.899 30.522 135.011 30.735 136.185 30.735V28.735C135.258 28.735 134.41 28.568 133.63 28.2422L132.859 30.0878ZM136.185 30.735C136.86 30.735 137.481 30.6982 138.046 30.6207L137.774 28.6393C137.318 28.7018 136.79 28.735 136.185 28.735V30.735ZM138.062 30.6184C138.639 30.5295 139.181 30.3941 139.683 30.2072L138.986 28.3328C138.628 28.4659 138.22 28.5705 137.758 28.6416L138.062 30.6184ZM139.676 30.2098C140.183 30.0255 140.657 29.7926 141.094 29.509L140.005 27.831C139.703 28.0274 139.366 28.1945 138.993 28.3302L139.676 30.2098ZM141.099 29.5054C141.529 29.223 141.946 28.894 142.351 28.5213L140.998 27.0487C140.664 27.356 140.331 27.617 140 27.8346L141.099 29.5054ZM142.336 28.5348C142.361 28.5134 142.36 28.5193 142.333 28.5312C142.303 28.5445 142.251 28.56 142.185 28.56V26.56C141.7 26.56 141.304 26.7785 141.013 27.0352L142.336 28.5348ZM159.809 20.615L160.107 21.5695L160.116 21.5666L159.809 20.615ZM161.429 19.745L162.081 20.503L162.082 20.5018L161.429 19.745ZM162.419 18.395L163.34 18.7846L163.34 18.7846L162.419 18.395ZM161.489 13.775L160.877 14.5659L160.877 14.5659L161.489 13.775ZM154.529 12.8V11.8H153.529V12.8H154.529ZM154.529 20.915H153.529V21.915H154.529V20.915ZM167.519 32V33H169.494L168.325 31.408L167.519 32ZM163.769 31.385L164.622 30.8644L164.601 30.8299L164.578 30.7972L163.769 31.385ZM158.189 23.705L157.373 24.2831L157.38 24.2928L158.189 23.705ZM157.634 23.195L157.133 24.0604L157.159 24.0757L157.186 24.0894L157.634 23.195ZM154.529 23.03V22.03H153.529V23.03H154.529ZM154.529 32V33H155.529V32H154.529ZM151.634 32H150.634V33H151.634V32ZM151.634 10.505V9.505H150.634V10.505H151.634ZM161.234 10.925L160.962 11.8873L160.971 11.8898L161.234 10.925ZM163.679 12.11L163.048 12.8861L163.054 12.8909L163.679 12.11ZM165.119 14L164.196 14.3864L164.198 14.3909L165.119 14ZM165.224 18.59L166.163 18.9317L166.163 18.9317L165.224 18.59ZM164.174 20.375L163.418 19.7195L163.418 19.7206L164.174 20.375ZM162.509 21.71L162.02 20.8377L162.014 20.8409L162.509 21.71ZM160.289 22.55L160.066 21.5752L157.557 22.1494L159.795 23.4197L160.289 22.55ZM161.249 23.465L160.42 24.0245L160.431 24.041L160.443 24.057L161.249 23.465ZM157.589 21.915C158.505 21.915 159.35 21.8062 160.107 21.5695L159.51 19.6605C158.988 19.8238 158.352 19.915 157.589 19.915V21.915ZM160.116 21.5666C160.867 21.3238 161.532 20.9756 162.081 20.503L160.776 18.987C160.466 19.2544 160.05 19.4862 159.501 19.6634L160.116 21.5666ZM162.082 20.5018C162.635 20.0246 163.058 19.4502 163.34 18.7846L161.498 18.0054C161.339 18.3798 161.103 18.7054 160.775 18.9882L162.082 20.5018ZM163.34 18.7846C163.618 18.1278 163.749 17.4183 163.749 16.67H161.749C161.749 17.1817 161.66 17.6222 161.498 18.0054L163.34 18.7846ZM163.749 16.67C163.749 15.1514 163.236 13.863 162.101 12.9841L160.877 14.5659C161.421 14.987 161.749 15.6286 161.749 16.67H163.749ZM162.101 12.9841C161.01 12.1398 159.49 11.8 157.709 11.8V13.8C159.287 13.8 160.288 14.1102 160.877 14.5659L162.101 12.9841ZM157.709 11.8H154.529V13.8H157.709V11.8ZM153.529 12.8V20.915H155.529V12.8H153.529ZM154.529 21.915H157.589V19.915H154.529V21.915ZM167.519 31H164.939V33H167.519V31ZM164.939 31C164.803 31 164.739 30.9743 164.714 30.9611C164.693 30.9502 164.662 30.9293 164.622 30.8644L162.915 31.9056C163.368 32.6486 164.103 33 164.939 33V31ZM164.578 30.7972L158.998 23.1172L157.38 24.2928L162.96 31.9728L164.578 30.7972ZM159.005 23.127C158.769 22.7936 158.467 22.4936 158.081 22.3006L157.186 24.0894C157.2 24.0964 157.269 24.1364 157.373 24.283L159.005 23.127ZM158.135 22.3296C157.71 22.0839 157.191 22.03 156.734 22.03V24.03C156.897 24.03 157.012 24.0412 157.086 24.0549C157.164 24.0691 157.167 24.0805 157.133 24.0604L158.135 22.3296ZM156.734 22.03H154.529V24.03H156.734V22.03ZM153.529 23.03V32H155.529V23.03H153.529ZM154.529 31H151.634V33H154.529V31ZM152.634 32V10.505H150.634V32H152.634ZM151.634 11.505H157.709V9.505H151.634V11.505ZM157.709 11.505C159.004 11.505 160.083 11.6389 160.962 11.8873L161.506 9.96274C160.404 9.65115 159.133 9.505 157.709 9.505V11.505ZM160.971 11.8898C161.858 12.1318 162.539 12.4726 163.048 12.8861L164.309 11.3339C163.538 10.7074 162.589 10.2582 161.497 9.96023L160.971 11.8898ZM163.054 12.8909C163.578 13.3104 163.953 13.8066 164.196 14.3864L166.041 13.6136C165.664 12.7134 165.079 11.9496 164.303 11.3291L163.054 12.8909ZM164.198 14.3909C164.449 14.9804 164.584 15.6647 164.584 16.46H166.584C166.584 15.4353 166.409 14.4796 166.039 13.6091L164.198 14.3909ZM164.584 16.46C164.584 17.113 164.481 17.7065 164.284 18.2483L166.163 18.9317C166.446 18.1535 166.584 17.327 166.584 16.46H164.584ZM164.284 18.2483C164.086 18.7934 163.798 19.282 163.418 19.7195L164.929 21.0305C165.469 20.408 165.882 19.7066 166.163 18.9317L164.284 18.2483ZM163.418 19.7206C163.05 20.1447 162.589 20.5187 162.02 20.8377L162.998 22.5823C163.749 22.1613 164.397 21.6453 164.93 21.0294L163.418 19.7206ZM162.014 20.8409C161.46 21.1565 160.813 21.404 160.066 21.5752L160.512 23.5248C161.424 23.316 162.258 23.0035 163.003 22.5791L162.014 20.8409ZM159.795 23.4197C160.014 23.5439 160.224 23.7351 160.42 24.0245L162.078 22.9055C161.733 22.3949 161.303 21.9761 160.782 21.6803L159.795 23.4197ZM160.443 24.057L166.713 32.592L168.325 31.408L162.055 22.873L160.443 24.057ZM188.202 29.63L189.202 29.6363L189.209 28.63H188.202V29.63ZM188.187 32V33H189.181L189.187 32.0063L188.187 32ZM174.942 32H173.942V33H174.942V32ZM174.942 10.505V9.505H173.942V10.505H174.942ZM188.187 10.505H189.187V9.505H188.187V10.505ZM188.187 12.875V13.875H189.187V12.875H188.187ZM177.852 12.875V11.875H176.852V12.875H177.852ZM177.852 20.015H176.852V21.015H177.852V20.015ZM186.222 20.015H187.222V19.015H186.222V20.015ZM186.222 22.295V23.295H187.222V22.295H186.222ZM177.852 22.295V21.295H176.852V22.295H177.852ZM177.852 29.63H176.852V30.63H177.852V29.63ZM187.202 29.6237L187.187 31.9937L189.187 32.0063L189.202 29.6363L187.202 29.6237ZM188.187 31H174.942V33H188.187V31ZM175.942 32V10.505H173.942V32H175.942ZM174.942 11.505H188.187V9.505H174.942V11.505ZM187.187 10.505V12.875H189.187V10.505H187.187ZM188.187 11.875H177.852V13.875H188.187V11.875ZM176.852 12.875V20.015H178.852V12.875H176.852ZM177.852 21.015H186.222V19.015H177.852V21.015ZM185.222 20.015V22.295H187.222V20.015H185.222ZM186.222 21.295H177.852V23.295H186.222V21.295ZM176.852 22.295V29.63H178.852V22.295H176.852ZM177.852 30.63H188.202V28.63H177.852V30.63ZM208.172 24.02V25.02H209.63L209.105 23.6599L208.172 24.02ZM204.797 15.275L203.863 15.634L203.864 15.6351L204.797 15.275ZM204.482 14.375L203.528 14.6748L203.53 14.6828L204.482 14.375ZM204.167 13.265L205.135 13.0166L203.199 13.014L204.167 13.265ZM203.522 15.29L202.596 14.9127L202.592 14.921L202.589 14.9294L203.522 15.29ZM200.147 24.02L199.214 23.6594L198.688 25.02H200.147V24.02ZM214.232 32V33H215.709L215.16 31.6287L214.232 32ZM211.352 31.805L210.721 32.5811L210.721 32.5811L211.352 31.805ZM210.992 31.31L210.059 31.6712L210.063 31.6814L210.992 31.31ZM208.982 26.12L209.914 25.7589L209.667 25.12H208.982V26.12ZM199.337 26.12V25.12H198.652L198.404 25.7589L199.337 26.12ZM197.327 31.31L196.394 30.9489L196.386 30.9711L196.378 30.9938L197.327 31.31ZM196.982 31.79L197.617 32.5619L197.617 32.5619L196.982 31.79ZM194.102 32L193.173 31.6287L192.625 33H194.102V32ZM202.697 10.505V9.505H202.02L201.768 10.1337L202.697 10.505ZM205.637 10.505L206.565 10.1337L206.314 9.505H205.637V10.505ZM209.105 23.6599L205.73 14.9149L203.864 15.6351L207.239 24.3801L209.105 23.6599ZM205.73 14.916C205.638 14.6768 205.539 14.3945 205.433 14.0672L203.53 14.6828C203.644 15.0355 203.755 15.3532 203.863 15.634L205.73 14.916ZM205.436 14.0752C205.332 13.7437 205.231 13.391 205.135 13.0166L203.198 13.5134C203.302 13.919 203.412 14.3063 203.528 14.6748L205.436 14.0752ZM203.199 13.014C202.996 13.7978 202.793 14.4273 202.596 14.9127L204.448 15.6673C204.69 15.0727 204.918 14.3522 205.135 13.516L203.199 13.014ZM202.589 14.9294L199.214 23.6594L201.079 24.3806L204.454 15.6506L202.589 14.9294ZM200.147 25.02H208.172V23.02H200.147V25.02ZM214.232 31H211.982V33H214.232V31ZM211.982 31C211.934 31 211.919 30.994 211.925 30.996C211.928 30.997 211.936 30.9999 211.947 31.0057C211.958 31.0115 211.97 31.0193 211.982 31.0289L210.721 32.5811C211.102 32.8904 211.553 33 211.982 33V31ZM211.982 31.0289C211.96 31.0111 211.94 30.9879 211.92 30.9386L210.063 31.6814C210.204 32.0321 210.423 32.3389 210.721 32.5811L211.982 31.0289ZM211.924 30.9489L209.914 25.7589L208.049 26.4811L210.059 31.6711L211.924 30.9489ZM208.982 25.12H199.337V27.12H208.982V25.12ZM198.404 25.7589L196.394 30.9489L198.259 31.6711L200.269 26.4811L198.404 25.7589ZM196.378 30.9938C196.379 30.9898 196.381 30.9863 196.382 30.9836C196.384 30.9809 196.384 30.9802 196.383 30.9814C196.382 30.9836 196.372 30.9966 196.346 31.0181L197.617 32.5619C197.909 32.322 198.147 32.0116 198.275 31.6262L196.378 30.9938ZM196.346 31.0181C196.35 31.0146 196.356 31.0105 196.363 31.0066C196.37 31.0028 196.376 31.0003 196.38 30.9988C196.385 30.9974 196.385 30.9976 196.381 30.9983C196.377 30.9989 196.368 31 196.352 31V33C196.8 33 197.244 32.8692 197.617 32.5619L196.346 31.0181ZM196.352 31H194.102V33H196.352V31ZM195.03 32.3713L203.625 10.8763L201.768 10.1337L193.173 31.6287L195.03 32.3713ZM202.697 11.505H205.637V9.505H202.697V11.505ZM204.708 10.8763L213.303 32.3713L215.16 31.6287L206.565 10.1337L204.708 10.8763ZM233.985 12.95V13.95H234.985V12.95H233.985ZM227.025 12.95V11.95H226.025V12.95H227.025ZM227.025 32V33H228.025V32H227.025ZM224.13 32H223.13V33H224.13V32ZM224.13 12.95H225.13V11.95H224.13V12.95ZM217.155 12.95H216.155V13.95H217.155V12.95ZM217.155 10.505V9.505H216.155V10.505H217.155ZM233.985 10.505H234.985V9.505H233.985V10.505ZM233.985 11.95H227.025V13.95H233.985V11.95ZM226.025 12.95V32H228.025V12.95H226.025ZM227.025 31H224.13V33H227.025V31ZM225.13 32V12.95H223.13V32H225.13ZM224.13 11.95H217.155V13.95H224.13V11.95ZM218.155 12.95V10.505H216.155V12.95H218.155ZM217.155 11.505H233.985V9.505H217.155V11.505ZM232.985 10.505V12.95H234.985V10.505H232.985ZM244.585 32V33H245.585V32H244.585ZM241.675 32H240.675V33H241.675V32ZM241.675 10.505V9.505H240.675V10.505H241.675ZM244.585 10.505H245.585V9.505H244.585V10.505ZM244.585 31H241.675V33H244.585V31ZM242.675 32V10.505H240.675V32H242.675ZM241.675 11.505H244.585V9.505H241.675V11.505ZM243.585 10.505V32H245.585V10.505H243.585ZM272.058 10.505L272.984 10.8824L273.545 9.505H272.058V10.505ZM263.298 32V33H263.97L264.224 32.3774L263.298 32ZM260.688 32L259.762 32.3774L260.016 33H260.688V32ZM251.928 10.505V9.505H250.44L251.002 10.8824L251.928 10.505ZM255.243 11.195L256.171 10.8239L256.171 10.8236L255.243 11.195ZM261.303 26.36L262.237 26.0029L262.234 25.9959L262.231 25.9889L261.303 26.36ZM261.678 27.47L260.72 27.7573L260.723 27.7683L260.727 27.7791L261.678 27.47ZM262.023 28.73L261.048 28.9516H262.998L262.023 28.73ZM262.338 27.47L263.302 27.7352L263.302 27.7352L262.338 27.47ZM262.698 26.36L261.769 25.9897L261.764 26.0029L262.698 26.36ZM268.743 11.195L269.672 11.5653L269.679 11.5467L269.686 11.5278L268.743 11.195ZM269.088 10.73L269.724 11.5019L269.728 11.4982L269.088 10.73ZM271.132 10.1276L262.372 31.6226L264.224 32.3774L272.984 10.8824L271.132 10.1276ZM263.298 31H260.688V33H263.298V31ZM261.614 31.6226L252.854 10.1276L251.002 10.8824L259.762 32.3774L261.614 31.6226ZM251.928 11.505H254.253V9.505H251.928V11.505ZM254.253 11.505C254.3 11.505 254.316 11.511 254.31 11.509C254.306 11.508 254.298 11.5051 254.287 11.4993C254.276 11.4935 254.264 11.4857 254.252 11.4761L255.513 9.92389C255.133 9.61461 254.681 9.505 254.253 9.505V11.505ZM254.252 11.4761C254.274 11.4939 254.295 11.5171 254.314 11.5664L256.171 10.8236C256.031 10.4729 255.812 10.1661 255.513 9.92389L254.252 11.4761ZM254.314 11.5661L260.374 26.7311L262.231 25.9889L256.171 10.8239L254.314 11.5661ZM260.369 26.7171C260.489 27.0311 260.606 27.3776 260.72 27.7573L262.636 27.1827C262.51 26.7624 262.377 26.3689 262.237 26.0029L260.369 26.7171ZM260.727 27.7791C260.847 28.1483 260.954 28.539 261.048 28.9516L262.998 28.5084C262.892 28.041 262.769 27.5917 262.629 27.1609L260.727 27.7791ZM262.998 28.9516C263.095 28.525 263.196 28.1195 263.302 27.7352L261.374 27.2048C261.259 27.6205 261.151 28.055 261.048 28.5084L262.998 28.9516ZM263.302 27.7352C263.405 27.3621 263.515 27.0232 263.632 26.7171L261.764 26.0029C261.621 26.3768 261.491 26.7779 261.374 27.2048L263.302 27.7352ZM263.627 26.7303L269.672 11.5653L267.814 10.8247L261.769 25.9897L263.627 26.7303ZM269.686 11.5278C269.68 11.5434 269.675 11.5501 269.677 11.5471C269.68 11.5433 269.693 11.5274 269.724 11.5019L268.452 9.95807C268.173 10.1881 267.933 10.4862 267.8 10.8622L269.686 11.5278ZM269.728 11.4982C269.729 11.4973 269.728 11.4985 269.724 11.5005C269.721 11.5025 269.717 11.5042 269.714 11.5054C269.71 11.5067 269.709 11.5067 269.711 11.5063C269.714 11.5059 269.72 11.505 269.733 11.505V9.505C269.266 9.505 268.82 9.65154 268.448 9.96178L269.728 11.4982ZM269.733 11.505H272.058V9.505H269.733V11.505ZM292.646 29.63L293.646 29.6363L293.652 28.63H292.646V29.63ZM292.631 32V33H293.624L293.631 32.0063L292.631 32ZM279.386 32H278.386V33H279.386V32ZM279.386 10.505V9.505H278.386V10.505H279.386ZM292.631 10.505H293.631V9.505H292.631V10.505ZM292.631 12.875V13.875H293.631V12.875H292.631ZM282.296 12.875V11.875H281.296V12.875H282.296ZM282.296 20.015H281.296V21.015H282.296V20.015ZM290.666 20.015H291.666V19.015H290.666V20.015ZM290.666 22.295V23.295H291.666V22.295H290.666ZM282.296 22.295V21.295H281.296V22.295H282.296ZM282.296 29.63H281.296V30.63H282.296V29.63ZM291.646 29.6237L291.631 31.9937L293.631 32.0063L293.646 29.6363L291.646 29.6237ZM292.631 31H279.386V33H292.631V31ZM280.386 32V10.505H278.386V32H280.386ZM279.386 11.505H292.631V9.505H279.386V11.505ZM291.631 10.505V12.875H293.631V10.505H291.631ZM292.631 11.875H282.296V13.875H292.631V11.875ZM281.296 12.875V20.015H283.296V12.875H281.296ZM282.296 21.015H290.666V19.015H282.296V21.015ZM289.666 20.015V22.295H291.666V20.015H289.666ZM290.666 21.295H282.296V23.295H290.666V21.295ZM281.296 22.295V29.63H283.296V22.295H281.296ZM282.296 30.63H292.646V28.63H282.296V30.63Z" fill="#0088CC" mask="url(#path-1-outside-1_3383_4339)"/>
</g>
<defs>
<clipPath id="clip0_3383_4339">
<rect width="294" height="40" fill="white"/>
</clipPath>
</defs>
</svg>
