<svg width="40" height="40" viewBox="0 0 40 40" fill="none" xmlns="http://www.w3.org/2000/svg">
<path d="M37.5 5H2.5C1.11813 5 0 6.11813 0 7.5V32.5C0 33.8819 1.11813 35 2.5 35H37.5C38.8819 35 40 33.8819 40 32.5V7.5C40 6.11813 38.8819 5 37.5 5ZM2.5 6.25H37.5C38.19 6.25 38.75 6.81 38.75 7.5V9.04312L20 22.9713L1.25 9.04312V7.5C1.25 6.81 1.81 6.25 2.5 6.25ZM37.5 33.75H2.5C1.81 33.75 1.25 33.19 1.25 32.5V30.745L12.865 22.3819C13.145 22.1806 13.2088 21.79 13.0075 21.5094C12.8063 21.23 12.4163 21.1663 12.135 21.3669L1.25 29.2056V10.6006L19.6269 24.2519C19.7381 24.3344 19.8688 24.375 20 24.375C20.1312 24.375 20.2619 24.3344 20.3731 24.2519L38.75 10.6006V29.2056L27.865 21.3681C27.585 21.1669 27.1937 21.23 26.9925 21.5106C26.7912 21.7906 26.8544 22.1812 27.135 22.3831L38.75 30.745V32.5C38.75 33.19 38.19 33.75 37.5 33.75Z" fill="#009AEC"/>
</svg>
