<svg width="42" height="32" viewBox="0 0 42 32" fill="none" xmlns="http://www.w3.org/2000/svg">
<path d="M14.612 5.60994C14.121 5.60994 13.7066 5.94043 13.5772 6.39036H9.26891L8.06986 5.19145H10.9612C11.0907 5.64138 11.5052 5.97187 11.9961 5.97187C12.5902 5.97187 13.0735 5.48845 13.0735 4.89431C13.0735 4.30018 12.5902 3.81676 11.9961 3.81676C11.5051 3.81676 11.0906 4.14725 10.9612 4.59718H7.4756L6.6853 3.80688L3.80469 6.6875L6.6853 9.56811L7.4756 8.77768H10.9611C11.0906 9.22761 11.5051 9.5581 11.9959 9.5581C12.5901 9.5581 13.0734 9.07468 13.0734 8.48055C13.0734 7.88641 12.5901 7.40313 11.9959 7.40313C11.505 7.40313 11.0904 7.73349 10.9611 8.18342H8.06986L9.26878 6.9845H13.5771C13.7065 7.43443 14.1209 7.76479 14.6119 7.76479C15.206 7.76479 15.6894 7.2815 15.6894 6.68737C15.6896 6.09323 15.2061 5.60994 14.612 5.60994ZM11.9962 4.4109C12.2627 4.4109 12.4794 4.62772 12.4794 4.89419C12.4794 5.16066 12.2627 5.37747 11.9962 5.37747C11.7297 5.37747 11.5129 5.16066 11.5129 4.89419C11.5129 4.62772 11.7297 4.4109 11.9962 4.4109ZM11.9962 7.99739C12.2627 7.99739 12.4794 8.21408 12.4794 8.48055C12.4794 8.74702 12.2627 8.96384 11.9962 8.96384C11.7297 8.96384 11.5129 8.74702 11.5129 8.48055C11.5129 8.21408 11.7297 7.99739 11.9962 7.99739ZM6.68543 8.72777L4.64515 6.6875L6.68543 4.64722L8.72571 6.6875L6.68543 8.72777ZM14.612 7.17066C14.3455 7.17066 14.1289 6.95397 14.1289 6.6875C14.1289 6.42103 14.3455 6.20421 14.612 6.20421C14.8785 6.20421 15.0953 6.42103 15.0953 6.6875C15.0953 6.95384 14.8785 7.17066 14.612 7.17066Z" fill="#0088CC"/>
<path d="M10.8852 9.1767H8.92447L6.68738 11.4138L1.96086 6.68726L6.68738 1.96086L8.92447 4.19795H10.8853L6.68738 0L0 6.68726L6.68738 13.3745L10.8852 9.1767Z" fill="#0088CC"/>
<path d="M14.612 5.60994C14.121 5.60994 13.7066 5.94043 13.5772 6.39036H9.26891L8.06986 5.19145H10.9612C11.0907 5.64138 11.5052 5.97187 11.9961 5.97187C12.5902 5.97187 13.0735 5.48845 13.0735 4.89431C13.0735 4.30018 12.5902 3.81676 11.9961 3.81676C11.5051 3.81676 11.0906 4.14725 10.9612 4.59718H7.4756L6.6853 3.80688L3.80469 6.6875L6.6853 9.56811L7.4756 8.77768H10.9611C11.0906 9.22761 11.5051 9.5581 11.9959 9.5581C12.5901 9.5581 13.0734 9.07468 13.0734 8.48055C13.0734 7.88641 12.5901 7.40313 11.9959 7.40313C11.505 7.40313 11.0904 7.73349 10.9611 8.18342H8.06986L9.26878 6.9845H13.5771C13.7065 7.43443 14.1209 7.76479 14.6119 7.76479C15.206 7.76479 15.6894 7.2815 15.6894 6.68737C15.6896 6.09323 15.2061 5.60994 14.612 5.60994ZM11.9962 4.4109C12.2627 4.4109 12.4794 4.62772 12.4794 4.89419C12.4794 5.16066 12.2627 5.37747 11.9962 5.37747C11.7297 5.37747 11.5129 5.16066 11.5129 4.89419C11.5129 4.62772 11.7297 4.4109 11.9962 4.4109ZM11.9962 7.99739C12.2627 7.99739 12.4794 8.21408 12.4794 8.48055C12.4794 8.74702 12.2627 8.96384 11.9962 8.96384C11.7297 8.96384 11.5129 8.74702 11.5129 8.48055C11.5129 8.21408 11.7297 7.99739 11.9962 7.99739ZM6.68543 8.72777L4.64515 6.6875L6.68543 4.64722L8.72571 6.6875L6.68543 8.72777ZM14.612 7.17066C14.3455 7.17066 14.1289 6.95397 14.1289 6.6875C14.1289 6.42103 14.3455 6.20421 14.612 6.20421C14.8785 6.20421 15.0953 6.42103 15.0953 6.6875C15.0953 6.95384 14.8785 7.17066 14.612 7.17066Z" fill="#0088CC"/>
<path d="M10.8852 9.1767H8.92447L6.68738 11.4138L1.96086 6.68726L6.68738 1.96086L8.92447 4.19795H10.8853L6.68738 0L0 6.68726L6.68738 13.3745L10.8852 9.1767Z" fill="#0088CC"/>
<path d="M22.5089 10.3631C22.5089 10.7953 22.7998 11.1601 23.1958 11.274V15.0661L22.1406 16.1215V13.5765C22.5366 13.4626 22.8275 13.0977 22.8275 12.6657C22.8275 12.1427 22.402 11.7173 21.879 11.7173C21.3561 11.7173 20.9306 12.1427 20.9306 12.6657C20.9306 13.0979 21.2215 13.4627 21.6175 13.5765V16.6446L20.9219 17.3402L23.4574 19.8757L25.9929 17.3402L25.2972 16.6446V13.5767C25.6932 13.4627 25.9841 13.0979 25.9841 12.6658C25.9841 12.1428 25.5586 11.7175 25.0356 11.7175C24.5127 11.7175 24.0873 12.1428 24.0873 12.6658C24.0873 13.098 24.3781 13.4628 24.7741 13.5767V16.1215L23.7188 15.0663V11.2741C24.1148 11.1602 24.4056 10.7954 24.4056 10.3633C24.4056 9.8403 23.9802 9.4148 23.4573 9.4148C22.9343 9.41469 22.5089 9.84019 22.5089 10.3631ZM21.4535 12.6656C21.4535 12.431 21.6444 12.2403 21.8789 12.2403C22.1135 12.2403 22.3043 12.431 22.3043 12.6656C22.3043 12.9001 22.1135 13.091 21.8789 13.091C21.6444 13.091 21.4535 12.9001 21.4535 12.6656ZM24.6103 12.6656C24.6103 12.431 24.8011 12.2403 25.0356 12.2403C25.2702 12.2403 25.461 12.431 25.461 12.6656C25.461 12.9001 25.2702 13.091 25.0356 13.091C24.8011 13.091 24.6103 12.9001 24.6103 12.6656ZM25.2532 17.3401L23.4574 19.136L21.6615 17.3401L23.4574 15.5443L25.2532 17.3401ZM23.8827 10.3631C23.8827 10.5977 23.6919 10.7884 23.4574 10.7884C23.2228 10.7884 23.032 10.5977 23.032 10.3631C23.032 10.1286 23.2228 9.93776 23.4574 9.93776C23.6918 9.93776 23.8827 10.1286 23.8827 10.3631Z" fill="#0088CC"/>
<path d="M22.5089 10.3631C22.5089 10.7953 22.7998 11.1601 23.1958 11.274V15.0661L22.1406 16.1215V13.5765C22.5366 13.4626 22.8275 13.0977 22.8275 12.6657C22.8275 12.1427 22.402 11.7173 21.879 11.7173C21.3561 11.7173 20.9306 12.1427 20.9306 12.6657C20.9306 13.0979 21.2215 13.4627 21.6175 13.5765V16.6446L20.9219 17.3402L23.4574 19.8757L25.9929 17.3402L25.2972 16.6446V13.5767C25.6932 13.4627 25.9841 13.0979 25.9841 12.6658C25.9841 12.1428 25.5586 11.7175 25.0356 11.7175C24.5127 11.7175 24.0873 12.1428 24.0873 12.6658C24.0873 13.098 24.3781 13.4628 24.7741 13.5767V16.1215L23.7188 15.0663V11.2741C24.1148 11.1602 24.4056 10.7954 24.4056 10.3633C24.4056 9.8403 23.9802 9.4148 23.4573 9.4148C22.9343 9.41469 22.5089 9.84019 22.5089 10.3631ZM21.4535 12.6656C21.4535 12.431 21.6444 12.2403 21.8789 12.2403C22.1135 12.2403 22.3043 12.431 22.3043 12.6656C22.3043 12.9001 22.1135 13.091 21.8789 13.091C21.6444 13.091 21.4535 12.9001 21.4535 12.6656ZM24.6103 12.6656C24.6103 12.431 24.8011 12.2403 25.0356 12.2403C25.2702 12.2403 25.461 12.431 25.461 12.6656C25.461 12.9001 25.2702 13.091 25.0356 13.091C24.8011 13.091 24.6103 12.9001 24.6103 12.6656ZM25.2532 17.3401L23.4574 19.136L21.6615 17.3401L23.4574 15.5443L25.2532 17.3401ZM23.8827 10.3631C23.8827 10.5977 23.6919 10.7884 23.4574 10.7884C23.2228 10.7884 23.032 10.5977 23.032 10.3631C23.032 10.1286 23.2228 9.93776 23.4574 9.93776C23.6918 9.93776 23.8827 10.1286 23.8827 10.3631Z" fill="#0088CC"/>
<path d="M24.4051 24.1578C24.4051 23.7257 24.1142 23.3609 23.7182 23.247V19.4549L24.7735 18.3995V20.9445C24.3775 21.0584 24.0866 21.4233 24.0866 21.8553C24.0866 22.3783 24.5121 22.8037 25.035 22.8037C25.558 22.8037 25.9835 22.3783 25.9835 21.8553C25.9835 21.4231 25.6926 21.0583 25.2966 20.9445V17.8764L25.9922 17.1808L23.4567 14.6453L20.9212 17.1808L21.6169 17.8764V20.9443C21.2209 21.0583 20.93 21.4231 20.93 21.8552C20.93 22.3781 21.3555 22.8035 21.8784 22.8035C22.4014 22.8035 22.8268 22.3781 22.8268 21.8552C22.8268 21.423 22.536 21.0582 22.14 20.9443V18.3995L23.1953 19.4547V23.2469C22.7992 23.3608 22.5084 23.7256 22.5084 24.1577C22.5084 24.6807 22.9338 25.1062 23.4568 25.1062C23.9797 25.1063 24.4051 24.6808 24.4051 24.1578ZM25.4605 21.8554C25.4605 22.09 25.2697 22.2807 25.0351 22.2807C24.8006 22.2807 24.6098 22.09 24.6098 21.8554C24.6098 21.6209 24.8006 21.43 25.0351 21.43C25.2697 21.43 25.4605 21.6209 25.4605 21.8554ZM22.3037 21.8554C22.3037 22.09 22.113 22.2807 21.8784 22.2807C21.6439 22.2807 21.453 22.09 21.453 21.8554C21.453 21.6209 21.6439 21.43 21.8784 21.43C22.113 21.43 22.3037 21.6209 22.3037 21.8554ZM21.6608 17.1809L23.4567 15.385L25.2525 17.1809L23.4567 18.9767L21.6608 17.1809ZM23.0314 24.1578C23.0314 23.9233 23.2221 23.7326 23.4567 23.7326C23.6912 23.7326 23.8821 23.9233 23.8821 24.1578C23.8821 24.3924 23.6912 24.5832 23.4567 24.5832C23.2222 24.5832 23.0314 24.3924 23.0314 24.1578Z" fill="#0088CC"/>
<path d="M24.4051 24.1578C24.4051 23.7257 24.1142 23.3609 23.7182 23.247V19.4549L24.7735 18.3995V20.9445C24.3775 21.0584 24.0866 21.4233 24.0866 21.8553C24.0866 22.3783 24.5121 22.8037 25.035 22.8037C25.558 22.8037 25.9835 22.3783 25.9835 21.8553C25.9835 21.4231 25.6926 21.0583 25.2966 20.9445V17.8764L25.9922 17.1808L23.4567 14.6453L20.9212 17.1808L21.6169 17.8764V20.9443C21.2209 21.0583 20.93 21.4231 20.93 21.8552C20.93 22.3781 21.3555 22.8035 21.8784 22.8035C22.4014 22.8035 22.8268 22.3781 22.8268 21.8552C22.8268 21.423 22.536 21.0582 22.14 20.9443V18.3995L23.1953 19.4547V23.2469C22.7992 23.3608 22.5084 23.7256 22.5084 24.1577C22.5084 24.6807 22.9338 25.1062 23.4568 25.1062C23.9797 25.1063 24.4051 24.6808 24.4051 24.1578ZM25.4605 21.8554C25.4605 22.09 25.2697 22.2807 25.0351 22.2807C24.8006 22.2807 24.6098 22.09 24.6098 21.8554C24.6098 21.6209 24.8006 21.43 25.0351 21.43C25.2697 21.43 25.4605 21.6209 25.4605 21.8554ZM22.3037 21.8554C22.3037 22.09 22.113 22.2807 21.8784 22.2807C21.6439 22.2807 21.453 22.09 21.453 21.8554C21.453 21.6209 21.6439 21.43 21.8784 21.43C22.113 21.43 22.3037 21.6209 22.3037 21.8554ZM21.6608 17.1809L23.4567 15.385L25.2525 17.1809L23.4567 18.9767L21.6608 17.1809ZM23.0314 24.1578C23.0314 23.9233 23.2221 23.7326 23.4567 23.7326C23.6912 23.7326 23.8821 23.9233 23.8821 24.1578C23.8821 24.3924 23.6912 24.5832 23.4567 24.5832C23.2222 24.5832 23.0314 24.3924 23.0314 24.1578Z" fill="#0088CC"/>
<path d="M0.785156 25.167V12.03L6.65148 17.5038L12.2922 12.03V25.167L6.65148 30.8597L0.785156 25.167Z" stroke="#0088CC" stroke-width="1.5"/>
<path d="M40.7046 31.1559L33.9481 19.3865L30.2803 26.9378L32.3186 31.1559H40.7046Z" stroke="#0088CC" stroke-width="1.5"/>
<path d="M32.3903 1.79614L28.6277 13.1968V23.371L29.3597 24.942L40.793 1.79614H32.3903Z" stroke="#0088CC" stroke-width="1.5"/>
<rect x="19.5781" y="1.79614" width="7.39179" height="29.3597" stroke="#0088CC" stroke-width="1.5"/>
</svg>
