<svg width="50" height="50" viewBox="0 0 50 50" fill="none" xmlns="http://www.w3.org/2000/svg">
<circle cx="25" cy="25" r="24.5" stroke="#02A6FF"/>
<path d="M40.625 14.8827C38.8762 14.6182 37.113 14.4595 35.3451 14.4075C34.3855 13.4007 33.1218 12.737 31.7483 12.5184C30.3748 12.2997 28.9675 12.5382 27.7427 13.1972C26.518 13.8562 25.5435 14.8992 24.9692 16.1658C24.3948 17.4325 24.2524 18.8527 24.5638 20.2082C19.3034 19.9413 15.319 17.2395 11.5951 13.2226C11.0872 14.2121 10.1237 17.3697 10.8724 19.6483C11.7615 21.9006 13.2888 23.8443 15.2669 25.2408C13.3634 25.1538 11.4882 24.7466 9.72005 24.0364C10.638 27.0507 13.7891 31.4257 18.7435 32.1093C16.5058 33.877 13.7371 34.8381 10.8854 34.8371C10.381 34.8431 9.87662 34.8191 9.375 34.7655C12.2654 36.6333 15.6341 37.6258 19.0755 37.6236C30.7096 37.6236 37.0768 27.9296 37.0768 19.5181V18.6913L40.625 14.8827Z" stroke="#02A6FF" stroke-width="2"/>
</svg>
