<svg width="35" height="32" viewBox="0 0 35 32" fill="none" xmlns="http://www.w3.org/2000/svg">
<rect x="10.3017" y="7.13086" width="8.88465" height="8.88465" transform="rotate(-45 10.3017 7.13086)" stroke="#0088CC" stroke-width="1.2"/>
<rect x="19.2597" y="7.12231" width="3.78598" height="3.78598" transform="rotate(135 19.2597 7.12231)" stroke="#0088CC" stroke-width="0.5"/>
<rect x="1.47743" y="15.9551" width="8.88465" height="8.88465" transform="rotate(-45 1.47743 15.9551)" stroke="#0088CC" stroke-width="1.2"/>
<rect x="10.4355" y="15.9465" width="3.78598" height="3.78598" transform="rotate(135 10.4355 15.9465)" stroke="#0088CC" stroke-width="0.5"/>
<rect x="10.3017" y="24.7791" width="8.88465" height="8.88465" transform="rotate(-45 10.3017 24.7791)" stroke="#0088CC" stroke-width="1.2"/>
<rect x="19.2597" y="24.7705" width="3.78598" height="3.78598" transform="rotate(135 19.2597 24.7705)" stroke="#0088CC" stroke-width="0.5"/>
<path d="M33.8526 14.8041C33.3292 14.8041 32.8875 15.1564 32.7495 15.6361H28.1569L26.8787 14.358H29.9609C30.0989 14.8376 30.5408 15.1899 31.064 15.1899C31.6974 15.1899 32.2125 14.6746 32.2125 14.0413C32.2125 13.4079 31.6974 12.8926 31.064 12.8926C30.5406 12.8926 30.0988 13.2449 29.9609 13.7245H26.2452L25.4028 12.8821L22.332 15.9528L25.4028 19.0235L26.2452 18.1809H29.9608C30.0988 18.6606 30.5406 19.0129 31.0639 19.0129C31.6972 19.0129 32.2124 18.4975 32.2124 17.8642C32.2124 17.2308 31.6972 16.7157 31.0639 16.7157C30.5405 16.7157 30.0986 17.0678 29.9608 17.5474H26.8787L28.1567 16.2694H32.7493C32.8873 16.749 33.3291 17.1012 33.8525 17.1012C34.4858 17.1012 35.0011 16.586 35.0011 15.9527C35.0013 15.3193 34.4859 14.8041 33.8526 14.8041ZM31.0642 13.526C31.3482 13.526 31.5792 13.7571 31.5792 14.0411C31.5792 14.3252 31.3482 14.5563 31.0642 14.5563C30.7801 14.5563 30.549 14.3252 30.549 14.0411C30.549 13.7571 30.7801 13.526 31.0642 13.526ZM31.0642 17.3491C31.3482 17.3491 31.5792 17.5801 31.5792 17.8642C31.5792 18.1482 31.3482 18.3794 31.0642 18.3794C30.7801 18.3794 30.549 18.1482 30.549 17.8642C30.549 17.5801 30.7801 17.3491 31.0642 17.3491ZM25.4029 18.1277L23.228 15.9528L25.4029 13.7779L27.5778 15.9528L25.4029 18.1277ZM33.8526 16.4678C33.5685 16.4678 33.3376 16.2369 33.3376 15.9528C33.3376 15.6687 33.5685 15.4376 33.8526 15.4376C34.1367 15.4376 34.3678 15.6687 34.3678 15.9528C34.3678 16.2367 34.1367 16.4678 33.8526 16.4678Z" fill="#0088CC"/>
<path d="M25.4061 22.3741L18.9845 15.9526L25.4061 9.53108L28.674 12.799H27.9979L25.7596 10.5607L25.4061 10.2071L25.0525 10.5607L20.0141 15.599L19.6605 15.9526L20.0141 16.3061L25.0525 21.3446L25.4061 21.6981L25.7596 21.3446L27.9979 19.1063H28.6738L25.4061 22.3741Z" stroke="#0088CC"/>
</svg>
