<svg width="60" height="60" viewBox="0 0 60 60" fill="none" xmlns="http://www.w3.org/2000/svg">
<path d="M45.3197 15.4798C45.0502 15.2444 44.7221 15.0882 44.371 15.0279C44.0199 14.9676 43.6592 15.0057 43.3279 15.1379L13.2409 27.084C12.8476 27.2402 12.5149 27.5208 12.2926 27.884C12.0703 28.2472 11.9703 28.6734 12.0077 29.0988C12.045 29.5242 12.2176 29.926 12.4997 30.244C12.7818 30.5619 13.1582 30.779 13.5726 30.8628L21.7391 32.5136V42.7014C21.735 43.0934 21.8481 43.4774 22.0636 43.8033C22.2791 44.1292 22.5869 44.3818 22.9467 44.528C23.1878 44.63 23.4464 44.6829 23.7078 44.6836C23.9632 44.6828 24.2159 44.6307 24.4512 44.5304C24.6865 44.4301 24.8998 44.2836 25.0787 44.0993L29.7405 39.3877L36.619 45.5055C36.9734 45.8236 37.4309 45.9995 37.9049 46.0001C38.111 45.9998 38.3158 45.967 38.5118 45.9027C38.8351 45.7991 39.1259 45.6116 39.3551 45.359C39.5843 45.1063 39.744 44.7973 39.8181 44.4628L45.95 17.4198C46.0301 17.0691 46.0137 16.7029 45.9026 16.3609C45.7915 16.019 45.5899 15.7142 45.3197 15.4798ZM13.3067 28.9823C13.2905 28.8399 13.3223 28.6962 13.3969 28.5743C13.4715 28.4525 13.5846 28.3596 13.7179 28.3107L41.2973 17.3602L22.24 31.2707L13.8284 29.5704C13.6886 29.546 13.5611 29.4746 13.4665 29.3679C13.3718 29.2612 13.3155 29.1254 13.3067 28.9823ZM24.1564 43.1674C24.0652 43.2596 23.9491 43.3223 23.8226 43.3478C23.6961 43.3732 23.565 43.3601 23.4458 43.3103C23.3267 43.2604 23.2248 43.1759 23.1532 43.0675C23.0815 42.9592 23.0433 42.8318 23.0433 42.7014V33.4312L28.7595 38.5152L24.1564 43.1674ZM44.6788 17.1253L38.5469 44.1684C38.5217 44.2796 38.4683 44.3824 38.3919 44.4665C38.3156 44.5507 38.2189 44.6133 38.1114 44.6484C38.0039 44.6834 37.8892 44.6896 37.7786 44.6664C37.668 44.6432 37.5653 44.5913 37.4805 44.5159L23.4354 32.0242L44.5734 16.5949C44.629 16.6698 44.6674 16.7563 44.6856 16.848C44.7038 16.9398 44.7015 17.0346 44.6788 17.1253Z" fill="#242424"/>
<circle cx="30" cy="30" r="29.5" stroke="#242424"/>
</svg>
