<svg width="50" height="50" viewBox="0 0 50 50" fill="none" xmlns="http://www.w3.org/2000/svg">
<circle cx="25" cy="25" r="24.5" stroke="#02A6FF"/>
<path d="M13.5967 12.5001H19.836C20.1184 12.5001 20.3892 12.612 20.5889 12.8112C20.7886 13.0103 20.9008 13.2805 20.9008 13.5621C20.8658 14.9784 21.1044 16.3882 21.6035 17.7146C21.8184 18.1586 21.8657 18.6651 21.7366 19.141C21.6075 19.617 21.3108 20.0306 20.9008 20.306L18.7181 22.43C19.6859 24.3151 20.9513 26.0328 22.4659 27.5171C23.942 29.0525 25.657 30.3399 27.5447 31.3298L29.6742 29.1526C30.7389 28.0906 31.2287 28.0906 32.2722 28.4517C33.6019 28.9495 35.0153 29.1874 36.4353 29.1526C36.7135 29.1655 36.9768 29.2816 37.1738 29.478C37.3707 29.6744 37.487 29.9371 37.5 30.2146V36.4381C37.487 36.7156 37.3707 36.9783 37.1738 37.1747C36.9768 37.3711 36.7135 37.4872 36.4353 37.5001C30.1721 37.2279 24.2351 34.6381 19.7828 30.2359C15.3624 25.7995 12.7647 19.875 12.5 13.6258C12.5025 13.3335 12.6179 13.0534 12.8222 12.8438C13.0264 12.6341 13.3038 12.511 13.5967 12.5001Z" stroke="#02A6FF" stroke-width="2" stroke-linecap="round" stroke-linejoin="round"/>
</svg>
