<svg width="60" height="60" viewBox="0 0 60 60" fill="none" xmlns="http://www.w3.org/2000/svg">
<path d="M40.8297 43.6799C37.8878 45.8901 34.2309 47.1999 30.268 47.1999C20.5478 47.1999 12.668 39.3202 12.668 29.5999C12.668 19.8797 20.5478 11.9999 30.268 11.9999C39.9883 11.9999 47.868 19.8797 47.868 29.5999V32.5333C47.868 35.2333 45.6791 37.4222 42.9791 37.4222C40.279 37.4222 38.0902 35.2333 38.0902 32.5333V21.7777M38.0902 29.5999C38.0902 33.92 34.588 37.4222 30.268 37.4222C25.9479 37.4222 22.4457 33.92 22.4457 29.5999C22.4457 25.2798 25.9479 21.7777 30.268 21.7777C34.588 21.7777 38.0902 25.2798 38.0902 29.5999Z" stroke="#242424" stroke-width="2" stroke-linecap="round" stroke-linejoin="round"/>
<circle cx="30" cy="30" r="29.5" stroke="#242424"/>
</svg>
