<svg width="60" height="60" viewBox="0 0 60 60" fill="none" xmlns="http://www.w3.org/2000/svg">
<g clip-path="url(#clip0_5449_755)">
<path d="M19.875 49.9999H39.875C40.9088 49.9999 41.75 49.1587 41.75 48.1249V11.8749C41.75 10.8412 40.9088 9.99994 39.875 9.99994H19.875C18.8412 9.99994 18 10.8412 18 11.8749V48.1249C18 49.1587 18.8412 49.9999 19.875 49.9999ZM19.25 11.8749C19.25 11.5299 19.53 11.2499 19.875 11.2499H39.875C40.22 11.2499 40.5 11.5299 40.5 11.8749V48.1249C40.5 48.4699 40.22 48.7499 39.875 48.7499H19.875C19.53 48.7499 19.25 48.4699 19.25 48.1249V11.8749Z" fill="#242424"/>
<path d="M21.125 43.7499H38.625C38.97 43.7499 39.25 43.4699 39.25 43.1249V16.8749C39.25 16.5299 38.97 16.2499 38.625 16.2499H21.125C20.78 16.2499 20.5 16.5299 20.5 16.8749V43.1249C20.5 43.4699 20.78 43.7499 21.125 43.7499ZM21.75 17.4999H38V42.4999H21.75V17.4999Z" fill="#242424"/>
<path d="M30.5 47.4999C31.1904 47.4999 31.75 46.9403 31.75 46.2499C31.75 45.5596 31.1904 44.9999 30.5 44.9999C29.8096 44.9999 29.25 45.5596 29.25 46.2499C29.25 46.9403 29.8096 47.4999 30.5 47.4999Z" fill="#242424"/>
<path d="M27.375 14.9999H32.375C32.72 14.9999 33 14.7199 33 14.3749C33 14.0299 32.72 13.7499 32.375 13.7499H27.375C27.03 13.7499 26.75 14.0299 26.75 14.3749C26.75 14.7199 27.03 14.9999 27.375 14.9999Z" fill="#242424"/>
</g>
<circle cx="30" cy="30" r="29.5" stroke="#242424"/>
<defs>
<clipPath id="clip0_5449_755">
<rect width="40" height="40" fill="white" transform="translate(10 9.99994)"/>
</clipPath>
</defs>
</svg>
