<svg width="60" height="60" viewBox="0 0 60 60" fill="none" xmlns="http://www.w3.org/2000/svg">
<g clip-path="url(#clip0_5449_767)">
<path d="M39.5911 23.9583L38.8261 27.7583C38.5761 29.0096 37.3736 29.9896 36.0886 29.9896H33.4986V47.4996C33.4986 48.8796 32.4473 49.9996 31.0598 49.9996H27.2861C25.8986 49.9996 24.7698 48.8771 24.7698 47.4983V29.9896H23.5123C22.1248 29.9896 20.9961 28.8683 20.9961 27.4883V23.7371C20.9961 22.3583 22.1248 21.2358 23.5123 21.2358H24.7698V17.5033C24.7698 13.3946 28.1148 10.0508 32.2411 10.0158C32.2673 10.0146 32.2898 10.0008 32.3173 10.0008H37.3498C38.0436 10.0008 38.4986 10.5596 38.4986 11.2496V17.4996C38.4986 18.1908 38.0436 18.7546 37.3498 18.7546H33.5748L33.5736 21.2358H37.3473C38.0548 21.2358 38.7073 21.5346 39.1348 22.0546C39.5636 22.5733 39.7298 23.2683 39.5911 23.9583ZM32.3636 23.7371C32.3461 23.7383 32.3323 23.7471 32.3148 23.7471C31.6198 23.7458 31.0561 23.1858 31.0573 22.4958V22.4871L31.0598 17.5033C31.0598 16.8121 31.6223 16.2533 32.3173 16.2533H36.0911V12.5021H32.3661C32.3448 12.5021 32.3273 12.5133 32.3048 12.5133C29.5373 12.5133 27.2861 14.7521 27.2861 17.5033V22.5058C27.2861 23.1971 26.7223 23.7571 26.0273 23.7571C25.9936 23.7571 25.9648 23.7396 25.9311 23.7371H23.5123V27.4883H26.0273C26.7223 27.4883 27.2861 28.0483 27.2861 28.7396C27.2861 28.8046 27.2586 28.8596 27.2486 28.9221V47.4996L31.0598 47.4983V28.7521C31.0598 28.7471 31.0573 28.7433 31.0573 28.7396C31.0573 28.0483 31.6198 27.4883 32.3148 27.4883H36.0886C36.1798 27.4883 36.3423 27.3571 36.3586 27.2696L37.0698 23.7371H32.3636Z" fill="#242424"/>
</g>
<circle cx="30" cy="30" r="29.5" stroke="#242424"/>
<defs>
<clipPath id="clip0_5449_767">
<rect width="18.6325" height="40" fill="white" transform="translate(21 10)"/>
</clipPath>
</defs>
</svg>
