<svg width="303" height="231" viewBox="0 0 303 231" fill="none" xmlns="http://www.w3.org/2000/svg">
<path d="M106.074 40.336C102.544 40.336 99.5645 42.7123 98.6337 45.9474H67.6562L59.0348 37.3269H79.8245C80.7553 40.562 83.7358 42.9383 87.2652 42.9383C91.5372 42.9383 95.0121 39.4624 95.0121 35.1905C95.0121 30.9185 91.5372 27.4426 87.2652 27.4426C83.7349 27.4426 80.7544 29.8189 79.8245 33.054H54.7619L49.0794 27.3716L28.3672 48.0839L49.0794 68.7961L54.7619 63.1128H79.8236C80.7544 66.3479 83.7349 68.7242 87.2643 68.7242C91.5362 68.7242 95.0112 65.2483 95.0112 60.9763C95.0112 56.7043 91.5362 53.2294 87.2643 53.2294C83.734 53.2294 80.7535 55.6048 79.8236 58.8399H59.0348L67.6553 50.2194H98.6328C99.5636 53.4545 102.543 55.8298 106.073 55.8298C110.345 55.8298 113.821 52.3549 113.821 48.0829C113.822 43.811 110.346 40.336 106.074 40.336ZM87.2661 31.7146C89.1821 31.7146 90.7401 33.2736 90.7401 35.1895C90.7401 37.1055 89.1821 38.6645 87.2661 38.6645C85.3501 38.6645 83.7911 37.1055 83.7911 35.1895C83.7911 33.2736 85.3501 31.7146 87.2661 31.7146ZM87.2661 57.5023C89.1821 57.5023 90.7401 59.0603 90.7401 60.9763C90.7401 62.8923 89.1821 64.4513 87.2661 64.4513C85.3501 64.4513 83.7911 62.8923 83.7911 60.9763C83.7911 59.0603 85.3501 57.5023 87.2661 57.5023ZM49.0804 62.7539L34.4103 48.0839L49.0804 33.4138L63.7505 48.0839L49.0804 62.7539ZM106.074 51.5579C104.158 51.5579 102.6 49.9998 102.6 48.0839C102.6 46.1679 104.158 44.6089 106.074 44.6089C107.99 44.6089 109.549 46.1679 109.549 48.0839C109.549 49.9989 107.99 51.5579 106.074 51.5579Z" fill="#0088CC"/>
<path d="M79.2672 65.9826H65.169L49.0839 82.0677L15.0991 48.0829L49.0839 14.0991L65.169 30.1842H79.2681L49.0839 0L1 48.0829L49.0839 96.1659L79.2672 65.9826Z" fill="#0088CC"/>
<path d="M106.074 40.336C102.544 40.336 99.5645 42.7123 98.6337 45.9474H67.6562L59.0348 37.3269H79.8245C80.7553 40.562 83.7358 42.9383 87.2652 42.9383C91.5372 42.9383 95.0121 39.4624 95.0121 35.1905C95.0121 30.9185 91.5372 27.4426 87.2652 27.4426C83.7349 27.4426 80.7544 29.8189 79.8245 33.054H54.7619L49.0794 27.3716L28.3672 48.0839L49.0794 68.7961L54.7619 63.1128H79.8236C80.7544 66.3479 83.7349 68.7242 87.2643 68.7242C91.5362 68.7242 95.0112 65.2483 95.0112 60.9763C95.0112 56.7043 91.5362 53.2294 87.2643 53.2294C83.734 53.2294 80.7535 55.6048 79.8236 58.8399H59.0348L67.6553 50.2194H98.6328C99.5636 53.4545 102.543 55.8298 106.073 55.8298C110.345 55.8298 113.821 52.3549 113.821 48.0829C113.822 43.811 110.346 40.336 106.074 40.336ZM87.2661 31.7146C89.1821 31.7146 90.7401 33.2736 90.7401 35.1895C90.7401 37.1055 89.1821 38.6645 87.2661 38.6645C85.3501 38.6645 83.7911 37.1055 83.7911 35.1895C83.7911 33.2736 85.3501 31.7146 87.2661 31.7146ZM87.2661 57.5023C89.1821 57.5023 90.7401 59.0603 90.7401 60.9763C90.7401 62.8923 89.1821 64.4513 87.2661 64.4513C85.3501 64.4513 83.7911 62.8923 83.7911 60.9763C83.7911 59.0603 85.3501 57.5023 87.2661 57.5023ZM49.0804 62.7539L34.4103 48.0839L49.0804 33.4138L63.7505 48.0839L49.0804 62.7539ZM106.074 51.5579C104.158 51.5579 102.6 49.9998 102.6 48.0839C102.6 46.1679 104.158 44.6089 106.074 44.6089C107.99 44.6089 109.549 46.1679 109.549 48.0839C109.549 49.9989 107.99 51.5579 106.074 51.5579Z" fill="#0088CC"/>
<path d="M79.2672 65.9826H65.169L49.0839 82.0677L15.0991 48.0829L49.0839 14.0991L65.169 30.1842H79.2681L49.0839 0L1 48.0829L49.0839 96.1659L79.2672 65.9826Z" fill="#0088CC"/>
<path d="M162.841 74.5139C162.841 77.6213 164.933 80.2439 167.78 81.0632V108.33L160.192 115.918V97.619C163.04 96.7997 165.131 94.1763 165.131 91.0697C165.131 87.3095 162.072 84.2509 158.312 84.2509C154.552 84.2509 151.492 87.3095 151.492 91.0697C151.492 94.1771 153.584 96.8005 156.431 97.619V119.679L151.43 124.681L169.661 142.912L187.891 124.681L182.889 119.679V97.6198C185.737 96.8005 187.828 94.1771 187.828 91.0705C187.828 87.3104 184.769 84.2517 181.009 84.2517C177.248 84.2517 174.19 87.3104 174.19 91.0705C174.19 94.1779 176.28 96.8013 179.128 97.6198V115.918L171.54 108.33V81.064C174.388 80.2447 176.479 77.6221 176.479 74.5147C176.479 70.7545 173.42 67.6951 169.66 67.6951C165.9 67.6943 162.841 70.7537 162.841 74.5139ZM155.252 91.0689C155.252 89.3825 156.625 88.0111 158.311 88.0111C159.997 88.0111 161.37 89.3825 161.37 91.0689C161.37 92.7554 159.997 94.1276 158.311 94.1276C156.625 94.1276 155.252 92.7554 155.252 91.0689ZM177.951 91.0689C177.951 89.3825 179.322 88.0111 181.009 88.0111C182.695 88.0111 184.067 89.3825 184.067 91.0689C184.067 92.7554 182.695 94.1276 181.009 94.1276C179.322 94.1276 177.951 92.7554 177.951 91.0689ZM182.573 124.68L169.661 137.592L156.748 124.68L169.661 111.767L182.573 124.68ZM172.718 74.5139C172.718 76.2003 171.347 77.5717 169.661 77.5717C167.974 77.5717 166.602 76.2003 166.602 74.5139C166.602 72.8275 167.974 71.4553 169.661 71.4553C171.346 71.4553 172.718 72.8275 172.718 74.5139Z" fill="#0088CC"/>
<path d="M162.841 74.5139C162.841 77.6213 164.933 80.2439 167.78 81.0632V108.33L160.192 115.918V97.619C163.04 96.7997 165.131 94.1763 165.131 91.0697C165.131 87.3095 162.072 84.2509 158.312 84.2509C154.552 84.2509 151.492 87.3095 151.492 91.0697C151.492 94.1771 153.584 96.8005 156.431 97.619V119.679L151.43 124.681L169.661 142.912L187.891 124.681L182.889 119.679V97.6198C185.737 96.8005 187.828 94.1771 187.828 91.0705C187.828 87.3104 184.769 84.2517 181.009 84.2517C177.248 84.2517 174.19 87.3104 174.19 91.0705C174.19 94.1779 176.28 96.8013 179.128 97.6198V115.918L171.54 108.33V81.064C174.388 80.2447 176.479 77.6221 176.479 74.5147C176.479 70.7545 173.42 67.6951 169.66 67.6951C165.9 67.6943 162.841 70.7537 162.841 74.5139ZM155.252 91.0689C155.252 89.3825 156.625 88.0111 158.311 88.0111C159.997 88.0111 161.37 89.3825 161.37 91.0689C161.37 92.7554 159.997 94.1276 158.311 94.1276C156.625 94.1276 155.252 92.7554 155.252 91.0689ZM177.951 91.0689C177.951 89.3825 179.322 88.0111 181.009 88.0111C182.695 88.0111 184.067 89.3825 184.067 91.0689C184.067 92.7554 182.695 94.1276 181.009 94.1276C179.322 94.1276 177.951 92.7554 177.951 91.0689ZM182.573 124.68L169.661 137.592L156.748 124.68L169.661 111.767L182.573 124.68ZM172.718 74.5139C172.718 76.2003 171.347 77.5717 169.661 77.5717C167.974 77.5717 166.602 76.2003 166.602 74.5139C166.602 72.8275 167.974 71.4553 169.661 71.4553C171.346 71.4553 172.718 72.8275 172.718 74.5139Z" fill="#0088CC"/>
<path d="M176.483 173.701C176.483 170.594 174.392 167.971 171.544 167.152V139.885L179.132 132.297V150.596C176.284 151.415 174.193 154.039 174.193 157.145C174.193 160.905 177.252 163.964 181.012 163.964C184.773 163.964 187.832 160.905 187.832 157.145C187.832 154.038 185.74 151.414 182.893 150.596V128.536L187.895 123.534L169.664 105.303L151.433 123.534L156.435 128.536V150.595C153.588 151.414 151.496 154.038 151.496 157.144C151.496 160.904 154.556 163.963 158.316 163.963C162.076 163.963 165.135 160.904 165.135 157.144C165.135 154.037 163.044 151.414 160.196 150.595V132.297L167.784 139.885V167.151C164.936 167.97 162.846 170.593 162.846 173.7C162.846 177.46 165.904 180.52 169.664 180.52C173.425 180.521 176.483 177.461 176.483 173.701ZM184.072 157.146C184.072 158.832 182.7 160.204 181.013 160.204C179.327 160.204 177.955 158.832 177.955 157.146C177.955 155.459 179.327 154.087 181.013 154.087C182.7 154.087 184.072 155.459 184.072 157.146ZM161.374 157.146C161.374 158.832 160.002 160.204 158.316 160.204C156.629 160.204 155.257 158.832 155.257 157.146C155.257 155.459 156.629 154.087 158.316 154.087C160.002 154.087 161.374 155.459 161.374 157.146ZM156.751 123.535L169.664 110.622L182.576 123.535L169.664 136.448L156.751 123.535ZM166.606 173.701C166.606 172.015 167.977 170.643 169.664 170.643C171.35 170.643 172.722 172.015 172.722 173.701C172.722 175.387 171.35 176.76 169.664 176.76C167.978 176.76 166.606 175.387 166.606 173.701Z" fill="#0088CC"/>
<path d="M176.483 173.701C176.483 170.594 174.392 167.971 171.544 167.152V139.885L179.132 132.297V150.596C176.284 151.415 174.193 154.039 174.193 157.145C174.193 160.905 177.252 163.964 181.012 163.964C184.773 163.964 187.832 160.905 187.832 157.145C187.832 154.038 185.74 151.414 182.893 150.596V128.536L187.895 123.534L169.664 105.303L151.433 123.534L156.435 128.536V150.595C153.588 151.414 151.496 154.038 151.496 157.144C151.496 160.904 154.556 163.963 158.316 163.963C162.076 163.963 165.135 160.904 165.135 157.144C165.135 154.037 163.044 151.414 160.196 150.595V132.297L167.784 139.885V167.151C164.936 167.97 162.846 170.593 162.846 173.7C162.846 177.46 165.904 180.52 169.664 180.52C173.425 180.521 176.483 177.461 176.483 173.701ZM184.072 157.146C184.072 158.832 182.7 160.204 181.013 160.204C179.327 160.204 177.955 158.832 177.955 157.146C177.955 155.459 179.327 154.087 181.013 154.087C182.7 154.087 184.072 155.459 184.072 157.146ZM161.374 157.146C161.374 158.832 160.002 160.204 158.316 160.204C156.629 160.204 155.257 158.832 155.257 157.146C155.257 155.459 156.629 154.087 158.316 154.087C160.002 154.087 161.374 155.459 161.374 157.146ZM156.751 123.535L169.664 110.622L182.576 123.535L169.664 136.448L156.751 123.535ZM166.606 173.701C166.606 172.015 167.977 170.643 169.664 170.643C171.35 170.643 172.722 172.015 172.722 173.701C172.722 175.387 171.35 176.76 169.664 176.76C167.978 176.76 166.606 175.387 166.606 173.701Z" fill="#0088CC"/>
<path d="M6.64062 180.957V86.499L48.8209 125.857L89.3788 86.499V180.957L48.8209 221.889L6.64062 180.957Z" stroke="#0088CC" stroke-width="12"/>
<path d="M292.637 223.41L245.15 140.69L219.407 193.689L233.769 223.41H292.637Z" stroke="#0088CC" stroke-width="12"/>
<path d="M212.129 177.934L293.344 13.5215H234.343L207.458 94.985V167.908L212.129 177.934Z" stroke="#0088CC" stroke-width="12"/>
<rect x="142.391" y="13.5215" width="51.9341" height="209.889" stroke="#0088CC" stroke-width="12"/>
</svg>
