<svg width="100" height="100" viewBox="0 0 100 100" fill="none" xmlns="http://www.w3.org/2000/svg">
<g clip-path="url(#clip0_2731_1485)">
<path d="M87.5 6.25C89.1576 6.25 90.7473 6.90848 91.9194 8.08058C93.0915 9.25268 93.75 10.8424 93.75 12.5V87.5C93.75 89.1576 93.0915 90.7473 91.9194 91.9194C90.7473 93.0915 89.1576 93.75 87.5 93.75H12.5C10.8424 93.75 9.25268 93.0915 8.08058 91.9194C6.90848 90.7473 6.25 89.1576 6.25 87.5V12.5C6.25 10.8424 6.90848 9.25268 8.08058 8.08058C9.25268 6.90848 10.8424 6.25 12.5 6.25H87.5ZM12.5 0C9.18479 0 6.00537 1.31696 3.66117 3.66117C1.31696 6.00537 0 9.18479 0 12.5L0 87.5C0 90.8152 1.31696 93.9946 3.66117 96.3388C6.00537 98.683 9.18479 100 12.5 100H87.5C90.8152 100 93.9946 98.683 96.3388 96.3388C98.683 93.9946 100 90.8152 100 87.5V12.5C100 9.18479 98.683 6.00537 96.3388 3.66117C93.9946 1.31696 90.8152 0 87.5 0L12.5 0Z" fill="#EC5200"/>
<path d="M43.7617 68.75C43.7617 67.9292 43.9234 67.1165 44.2375 66.3582C44.5516 65.5999 45.0119 64.911 45.5923 64.3306C46.1727 63.7502 46.8617 63.2898 47.6199 62.9758C48.3782 62.6617 49.191 62.5 50.0117 62.5C50.8325 62.5 51.6452 62.6617 52.4035 62.9758C53.1618 63.2898 53.8508 63.7502 54.4311 64.3306C55.0115 64.911 55.4719 65.5999 55.786 66.3582C56.1001 67.1165 56.2617 67.9292 56.2617 68.75C56.2617 70.4076 55.6032 71.9973 54.4311 73.1694C53.259 74.3415 51.6693 75 50.0117 75C48.3541 75 46.7644 74.3415 45.5923 73.1694C44.4202 71.9973 43.7617 70.4076 43.7617 68.75ZM44.3742 31.2188C44.291 30.4303 44.3745 29.6331 44.6192 28.8789C44.864 28.1248 45.2646 27.4305 45.795 26.8412C46.3254 26.2518 46.9737 25.7806 47.698 25.458C48.4223 25.1354 49.2063 24.9688 49.9992 24.9688C50.7921 24.9688 51.5761 25.1354 52.3004 25.458C53.0247 25.7806 53.6731 26.2518 54.2035 26.8412C54.7339 27.4305 55.1345 28.1248 55.3792 28.8789C55.624 29.6331 55.7074 30.4303 55.6242 31.2188L53.4367 53.1375C53.3632 53.9986 52.9692 54.8007 52.3327 55.3852C51.6962 55.9697 50.8634 56.2941 49.9992 56.2941C49.135 56.2941 48.3023 55.9697 47.6657 55.3852C47.0292 54.8007 46.6352 53.9986 46.5617 53.1375L44.3742 31.2188Z" fill="#EC5200"/>
</g>
<defs>
<clipPath id="clip0_2731_1485">
<rect width="100" height="100" fill="white"/>
</clipPath>
</defs>
</svg>
