<svg width="25" height="26" viewBox="0 0 25 26" fill="none" xmlns="http://www.w3.org/2000/svg">
<path d="M1.88717 10.6329C2.18018 10.34 2.57753 10.1755 2.99185 10.1755C3.40617 10.1755 3.80353 10.34 4.09654 10.6329L9.62154 16.1579L20.6684 5.1095C20.8135 4.96432 20.9857 4.84915 21.1753 4.77054C21.3649 4.69194 21.5681 4.65144 21.7733 4.65137C21.9786 4.65129 22.1818 4.69165 22.3714 4.77012C22.5611 4.84859 22.7334 4.96365 22.8786 5.10872C23.0237 5.25378 23.1389 5.42603 23.2175 5.61561C23.2961 5.80519 23.3366 6.0084 23.3367 6.21363C23.3368 6.41886 23.2964 6.6221 23.218 6.81174C23.1395 7.00138 23.0244 7.1737 22.8794 7.31887L9.62154 20.5767L1.88717 12.8423C1.59424 12.5493 1.42969 12.1519 1.42969 11.7376C1.42969 11.3233 1.59424 10.9259 1.88717 10.6329Z" fill="#4CAF50"/>
</svg>
