<svg width="40" height="40" viewBox="0 0 40 40" fill="none" xmlns="http://www.w3.org/2000/svg">
<circle cx="20" cy="20" r="19.5" stroke="#EC5200"/>
<path d="M32.5 11.9062C31.1009 11.6945 29.6904 11.5676 28.276 11.526C27.5084 10.7206 26.4974 10.1896 25.3986 10.0147C24.2998 9.83977 23.174 10.0306 22.1942 10.5577C21.2144 11.0849 20.4348 11.9193 19.9753 12.9327C19.5159 13.946 19.4019 15.0822 19.651 16.1666C15.4427 15.953 12.2552 13.7916 9.27604 10.578C8.86979 11.3697 8.09896 13.8957 8.69792 15.7187C9.4092 17.5205 10.6311 19.0754 12.2135 20.1926C10.6907 20.123 9.19058 19.7973 7.77604 19.2291C8.51042 21.6405 11.0312 25.1405 14.9948 25.6874C13.2046 27.1016 10.9897 27.8705 8.70833 27.8697C8.30478 27.8744 7.9013 27.8553 7.5 27.8124C9.81234 29.3067 12.5073 30.1007 15.2604 30.0989C24.5677 30.0989 29.6615 22.3437 29.6615 15.6145V14.953L32.5 11.9062Z" stroke="#EC5200" stroke-width="2"/>
</svg>
