<svg width="40" height="40" viewBox="0 0 40 40" fill="none" xmlns="http://www.w3.org/2000/svg">
<path d="M30.2131 10.3198C30.0335 10.1629 29.8147 10.0587 29.5807 10.0186C29.3466 9.97838 29.1061 10.0037 28.8853 10.0919L8.82727 18.056C8.56507 18.1601 8.34326 18.3472 8.19506 18.5893C8.04685 18.8314 7.98021 19.1156 8.0051 19.3992C8.03 19.6828 8.14509 19.9506 8.33316 20.1626C8.52123 20.3746 8.77216 20.5193 9.0484 20.5751L14.4927 21.6757V28.4676C14.49 28.7289 14.5654 28.9849 14.7091 29.2022C14.8527 29.4194 15.0579 29.5878 15.2978 29.6853C15.4585 29.7533 15.631 29.7885 15.8052 29.789C15.9755 29.7885 16.1439 29.7538 16.3008 29.6869C16.4577 29.62 16.5999 29.5223 16.7191 29.3995L19.827 26.2584L24.4127 30.3369C24.649 30.549 24.9539 30.6663 25.27 30.6667C25.4073 30.6665 25.5439 30.6446 25.6745 30.6018C25.8901 30.5327 26.0839 30.4077 26.2367 30.2393C26.3895 30.0708 26.496 29.8648 26.5454 29.6418L30.6334 11.6131C30.6867 11.3793 30.6758 11.1352 30.6017 10.9072C30.5276 10.6793 30.3933 10.4761 30.2131 10.3198ZM8.87116 19.3215C8.86034 19.2266 8.88152 19.1308 8.93126 19.0495C8.98099 18.9683 9.05639 18.9063 9.14525 18.8738L27.5315 11.5734L14.8266 20.8471L9.21891 19.7136C9.12576 19.6973 9.04076 19.6497 8.97766 19.5786C8.91455 19.5074 8.87703 19.4169 8.87116 19.3215ZM16.1043 28.7782C16.0435 28.8397 15.966 28.8815 15.8817 28.8985C15.7974 28.9154 15.71 28.9067 15.6305 28.8735C15.5511 28.8402 15.4832 28.7839 15.4355 28.7117C15.3877 28.6394 15.3622 28.5545 15.3622 28.4676V22.2874L19.173 25.6768L16.1043 28.7782ZM29.7859 11.4168L25.6979 29.4455C25.6811 29.5197 25.6455 29.5882 25.5946 29.6443C25.5437 29.7004 25.4793 29.7422 25.4076 29.7655C25.3359 29.7889 25.2595 29.793 25.1858 29.7775C25.112 29.7621 25.0435 29.7275 24.987 29.6772L15.6236 21.3494L29.7156 11.0632C29.7527 11.1131 29.7782 11.1708 29.7904 11.232C29.8026 11.2932 29.801 11.3563 29.7859 11.4168Z" fill="#EC5200"/>
<circle cx="20" cy="20" r="19.5" stroke="#EC5200"/>
</svg>
