<svg width="40" height="40" viewBox="0 0 40 40" fill="none" xmlns="http://www.w3.org/2000/svg">
<g clip-path="url(#clip0_2517_20)">
<path d="M13.25 33.3333H26.5833C27.2725 33.3333 27.8333 32.7725 27.8333 32.0833V7.91663C27.8333 7.22746 27.2725 6.66663 26.5833 6.66663H13.25C12.5608 6.66663 12 7.22746 12 7.91663V32.0833C12 32.7725 12.5608 33.3333 13.25 33.3333ZM12.8333 7.91663C12.8333 7.68663 13.02 7.49996 13.25 7.49996H26.5833C26.8133 7.49996 27 7.68663 27 7.91663V32.0833C27 32.3133 26.8133 32.5 26.5833 32.5H13.25C13.02 32.5 12.8333 32.3133 12.8333 32.0833V7.91663Z" fill="#EC5200"/>
<path d="M14.0827 29.1666H25.7493C25.9793 29.1666 26.166 28.9799 26.166 28.7499V11.2499C26.166 11.0199 25.9793 10.8333 25.7493 10.8333H14.0827C13.8527 10.8333 13.666 11.0199 13.666 11.2499V28.7499C13.666 28.9799 13.8527 29.1666 14.0827 29.1666ZM14.4993 11.6666H25.3327V28.3333H14.4993V11.6666Z" fill="#EC5200"/>
<path d="M20.3333 31.6667C20.7936 31.6667 21.1667 31.2936 21.1667 30.8333C21.1667 30.3731 20.7936 30 20.3333 30C19.8731 30 19.5 30.3731 19.5 30.8333C19.5 31.2936 19.8731 31.6667 20.3333 31.6667Z" fill="#EC5200"/>
<path d="M18.2507 9.99996H21.584C21.814 9.99996 22.0007 9.81329 22.0007 9.58329C22.0007 9.35329 21.814 9.16663 21.584 9.16663H18.2507C18.0207 9.16663 17.834 9.35329 17.834 9.58329C17.834 9.81329 18.0207 9.99996 18.2507 9.99996Z" fill="#EC5200"/>
</g>
<circle cx="20" cy="20" r="19.5" stroke="#EC5200"/>
<defs>
<clipPath id="clip0_2517_20">
<rect width="26.6667" height="26.6667" fill="white" transform="translate(6.66602 6.66663)"/>
</clipPath>
</defs>
</svg>
