<svg width="40" height="40" viewBox="0 0 40 40" fill="none" xmlns="http://www.w3.org/2000/svg">
<path d="M27.2179 29.12C25.2566 30.5934 22.8186 31.4667 20.1767 31.4667C13.6966 31.4667 8.44336 26.2135 8.44336 19.7333C8.44336 13.2532 13.6966 8 20.1767 8C26.6569 8 31.91 13.2532 31.91 19.7333V21.6889C31.91 23.4889 30.4508 24.9481 28.6508 24.9481C26.8507 24.9481 25.3915 23.4889 25.3915 21.6889V14.5185M25.3915 19.7333C25.3915 22.6133 23.0567 24.9481 20.1767 24.9481C17.2966 24.9481 14.9619 22.6133 14.9619 19.7333C14.9619 16.8533 17.2966 14.5185 20.1767 14.5185C23.0567 14.5185 25.3915 16.8533 25.3915 19.7333Z" stroke="#EC5200" stroke-width="2" stroke-linecap="round" stroke-linejoin="round"/>
<circle cx="20" cy="20" r="19.5" stroke="#EC5200"/>
</svg>
