<svg width="40" height="40" viewBox="0 0 40 40" fill="none" xmlns="http://www.w3.org/2000/svg">
<g clip-path="url(#clip0_2517_26)">
<path d="M26.3947 15.9725L25.8847 18.5058C25.718 19.34 24.9164 19.9933 24.0597 19.9933H22.333V31.6666C22.333 32.5866 21.6322 33.3333 20.7072 33.3333H18.1914C17.2664 33.3333 16.5139 32.585 16.5139 31.6658V19.9933H15.6755C14.7505 19.9933 13.998 19.2458 13.998 18.3258V15.825C13.998 14.9058 14.7505 14.1575 15.6755 14.1575H16.5139V11.6691C16.5139 8.92998 18.7439 6.70081 21.4947 6.67748C21.5122 6.67665 21.5272 6.66748 21.5455 6.66748H24.9005C25.363 6.66748 25.6664 7.03998 25.6664 7.49998V11.6666C25.6664 12.1275 25.363 12.5033 24.9005 12.5033H22.3839L22.383 14.1575H24.8989C25.3705 14.1575 25.8055 14.3566 26.0905 14.7033C26.3764 15.0491 26.4872 15.5125 26.3947 15.9725ZM21.5764 15.825C21.5647 15.8258 21.5555 15.8316 21.5439 15.8316C21.0805 15.8308 20.7047 15.4575 20.7055 14.9975V14.9916L20.7072 11.6691C20.7072 11.2083 21.0822 10.8358 21.5455 10.8358H24.0614V8.33498H21.578C21.5639 8.33498 21.5522 8.34248 21.5372 8.34248C19.6922 8.34248 18.1914 9.83498 18.1914 11.6691V15.0041C18.1914 15.465 17.8155 15.8383 17.3522 15.8383C17.3297 15.8383 17.3105 15.8266 17.288 15.825H15.6755V18.3258H17.3522C17.8155 18.3258 18.1914 18.6991 18.1914 19.16C18.1914 19.2033 18.173 19.24 18.1664 19.2816V31.6666L20.7072 31.6658V19.1683C20.7072 19.165 20.7055 19.1625 20.7055 19.16C20.7055 18.6991 21.0805 18.3258 21.5439 18.3258H24.0597C24.1205 18.3258 24.2289 18.2383 24.2397 18.18L24.7139 15.825H21.5764Z" fill="#EC5200"/>
</g>
<circle cx="20" cy="20" r="19.5" stroke="#EC5200"/>
<defs>
<clipPath id="clip0_2517_26">
<rect width="12.4217" height="26.6667" fill="white" transform="translate(14 6.66663)"/>
</clipPath>
</defs>
</svg>
