<svg width="131" height="368" viewBox="0 0 131 368" fill="none" xmlns="http://www.w3.org/2000/svg">
<mask id="path-1-outside-1_2806_7" maskUnits="userSpaceOnUse" x="4" y="55" width="31" height="261" fill="black">
<rect fill="white" x="4" y="55" width="31" height="261"/>
<path d="M20.8378 84H17.1518V56.773H20.8378V84ZM13.5639 114.705H14.9509C15.4323 114.705 15.8186 114.648 16.1099 114.534C16.4013 114.407 16.6673 114.198 16.9079 113.907L25.9709 103.647C26.2243 103.318 26.4903 103.09 26.7689 102.963C27.0476 102.836 27.3896 102.773 27.7949 102.773H30.9109L20.5369 114.496C20.2836 114.8 20.0366 115.053 19.7959 115.256C19.5679 115.446 19.3209 115.604 19.0549 115.731C19.3969 115.845 19.7073 116.016 19.9859 116.244C20.2646 116.459 20.5369 116.744 20.8029 117.099L31.6329 130H28.4409C28.2003 130 27.9913 129.987 27.8139 129.962C27.6493 129.924 27.5036 129.873 27.3769 129.81C27.2503 129.734 27.1363 129.652 27.0349 129.563C26.9463 129.462 26.8576 129.348 26.7689 129.221L17.3829 118.41C17.1296 118.093 16.8573 117.872 16.5659 117.745C16.2746 117.606 15.8313 117.536 15.2359 117.536H13.5639V130H9.89692V102.773H13.5639V114.705ZM20.8378 176H17.1518V148.773H20.8378V176ZM30.8254 208.909V219.359C29.4574 220.347 27.9944 221.088 26.4364 221.582C24.8911 222.063 23.1938 222.304 21.3444 222.304C19.1531 222.304 17.1771 221.968 15.4164 221.297C13.6558 220.613 12.1484 219.663 10.8944 218.447C9.65309 217.218 8.69676 215.749 8.02542 214.039C7.35409 212.329 7.01842 210.448 7.01842 208.396C7.01842 206.319 7.34142 204.425 7.98742 202.715C8.64609 201.005 9.57709 199.542 10.7804 198.326C11.9838 197.097 13.4468 196.147 15.1694 195.476C16.8921 194.805 18.8174 194.469 20.9454 194.469C22.0221 194.469 23.0228 194.551 23.9474 194.716C24.8721 194.868 25.7271 195.096 26.5124 195.4C27.2978 195.691 28.0261 196.052 28.6974 196.483C29.3688 196.901 29.9958 197.376 30.5784 197.908L29.5334 199.58C29.3688 199.833 29.1534 199.998 28.8874 200.074C28.6341 200.137 28.3491 200.074 28.0324 199.884C27.7284 199.707 27.3801 199.491 26.9874 199.238C26.5948 198.985 26.1134 198.744 25.5434 198.516C24.9861 198.275 24.3211 198.073 23.5484 197.908C22.7884 197.743 21.8828 197.661 20.8314 197.661C19.2988 197.661 17.9118 197.914 16.6704 198.421C15.4291 198.915 14.3714 199.631 13.4974 200.568C12.6234 201.493 11.9521 202.62 11.4834 203.95C11.0148 205.267 10.7804 206.749 10.7804 208.396C10.7804 210.106 11.0211 211.639 11.5024 212.994C11.9964 214.337 12.6931 215.483 13.5924 216.433C14.5044 217.37 15.6064 218.086 16.8984 218.58C18.1904 219.074 19.6408 219.321 21.2494 219.321C22.5161 219.321 23.6371 219.182 24.6124 218.903C25.6004 218.612 26.5631 218.213 27.5004 217.706V211.721H23.2634C23.0228 211.721 22.8264 211.651 22.6744 211.512C22.5351 211.373 22.4654 211.202 22.4654 210.999V208.909H30.8254ZM24.0776 257.892L19.8026 246.815C19.6759 246.486 19.5429 246.106 19.4036 245.675C19.2643 245.232 19.1313 244.763 19.0046 244.269C18.7386 245.295 18.4663 246.15 18.1876 246.834L13.9126 257.892H24.0776ZM31.7536 268H28.9036C28.5743 268 28.3083 267.918 28.1056 267.753C27.9029 267.588 27.7509 267.379 27.6496 267.126L25.1036 260.552H12.8866L10.3406 267.126C10.2646 267.354 10.1189 267.557 9.9036 267.734C9.68827 267.911 9.42227 268 9.1056 268H6.2556L17.1426 240.773H20.8666L31.7536 268ZM20.8378 314H17.1518V286.773H20.8378V314Z"/>
</mask>
<path d="M20.8378 84H17.1518V56.773H20.8378V84ZM13.5639 114.705H14.9509C15.4323 114.705 15.8186 114.648 16.1099 114.534C16.4013 114.407 16.6673 114.198 16.9079 113.907L25.9709 103.647C26.2243 103.318 26.4903 103.09 26.7689 102.963C27.0476 102.836 27.3896 102.773 27.7949 102.773H30.9109L20.5369 114.496C20.2836 114.8 20.0366 115.053 19.7959 115.256C19.5679 115.446 19.3209 115.604 19.0549 115.731C19.3969 115.845 19.7073 116.016 19.9859 116.244C20.2646 116.459 20.5369 116.744 20.8029 117.099L31.6329 130H28.4409C28.2003 130 27.9913 129.987 27.8139 129.962C27.6493 129.924 27.5036 129.873 27.3769 129.81C27.2503 129.734 27.1363 129.652 27.0349 129.563C26.9463 129.462 26.8576 129.348 26.7689 129.221L17.3829 118.41C17.1296 118.093 16.8573 117.872 16.5659 117.745C16.2746 117.606 15.8313 117.536 15.2359 117.536H13.5639V130H9.89692V102.773H13.5639V114.705ZM20.8378 176H17.1518V148.773H20.8378V176ZM30.8254 208.909V219.359C29.4574 220.347 27.9944 221.088 26.4364 221.582C24.8911 222.063 23.1938 222.304 21.3444 222.304C19.1531 222.304 17.1771 221.968 15.4164 221.297C13.6558 220.613 12.1484 219.663 10.8944 218.447C9.65309 217.218 8.69676 215.749 8.02542 214.039C7.35409 212.329 7.01842 210.448 7.01842 208.396C7.01842 206.319 7.34142 204.425 7.98742 202.715C8.64609 201.005 9.57709 199.542 10.7804 198.326C11.9838 197.097 13.4468 196.147 15.1694 195.476C16.8921 194.805 18.8174 194.469 20.9454 194.469C22.0221 194.469 23.0228 194.551 23.9474 194.716C24.8721 194.868 25.7271 195.096 26.5124 195.4C27.2978 195.691 28.0261 196.052 28.6974 196.483C29.3688 196.901 29.9958 197.376 30.5784 197.908L29.5334 199.58C29.3688 199.833 29.1534 199.998 28.8874 200.074C28.6341 200.137 28.3491 200.074 28.0324 199.884C27.7284 199.707 27.3801 199.491 26.9874 199.238C26.5948 198.985 26.1134 198.744 25.5434 198.516C24.9861 198.275 24.3211 198.073 23.5484 197.908C22.7884 197.743 21.8828 197.661 20.8314 197.661C19.2988 197.661 17.9118 197.914 16.6704 198.421C15.4291 198.915 14.3714 199.631 13.4974 200.568C12.6234 201.493 11.9521 202.62 11.4834 203.95C11.0148 205.267 10.7804 206.749 10.7804 208.396C10.7804 210.106 11.0211 211.639 11.5024 212.994C11.9964 214.337 12.6931 215.483 13.5924 216.433C14.5044 217.37 15.6064 218.086 16.8984 218.58C18.1904 219.074 19.6408 219.321 21.2494 219.321C22.5161 219.321 23.6371 219.182 24.6124 218.903C25.6004 218.612 26.5631 218.213 27.5004 217.706V211.721H23.2634C23.0228 211.721 22.8264 211.651 22.6744 211.512C22.5351 211.373 22.4654 211.202 22.4654 210.999V208.909H30.8254ZM24.0776 257.892L19.8026 246.815C19.6759 246.486 19.5429 246.106 19.4036 245.675C19.2643 245.232 19.1313 244.763 19.0046 244.269C18.7386 245.295 18.4663 246.15 18.1876 246.834L13.9126 257.892H24.0776ZM31.7536 268H28.9036C28.5743 268 28.3083 267.918 28.1056 267.753C27.9029 267.588 27.7509 267.379 27.6496 267.126L25.1036 260.552H12.8866L10.3406 267.126C10.2646 267.354 10.1189 267.557 9.9036 267.734C9.68827 267.911 9.42227 268 9.1056 268H6.2556L17.1426 240.773H20.8666L31.7536 268ZM20.8378 314H17.1518V286.773H20.8378V314Z" fill="#009AEC" fill-opacity="0.1"/>
<path d="M20.8378 84V85.4H22.2378V84H20.8378ZM17.1518 84H15.7518V85.4H17.1518V84ZM17.1518 56.773V55.373H15.7518V56.773H17.1518ZM20.8378 56.773H22.2378V55.373H20.8378V56.773ZM20.8378 82.6H17.1518V85.4H20.8378V82.6ZM18.5518 84V56.773H15.7518V84H18.5518ZM17.1518 58.173H20.8378V55.373H17.1518V58.173ZM19.4378 56.773V84H22.2378V56.773H19.4378ZM13.5639 114.705H12.1639V116.105H13.5639V114.705ZM16.1099 114.534L16.6201 115.838L16.6443 115.828L16.6681 115.818L16.1099 114.534ZM16.9079 113.907L15.8587 112.98L15.8433 112.998L15.8286 113.015L16.9079 113.907ZM25.9709 103.647L27.0202 104.574L27.0516 104.538L27.0806 104.501L25.9709 103.647ZM26.7689 102.963L27.3482 104.238L27.3482 104.238L26.7689 102.963ZM30.9109 102.773L31.9594 103.701L34.0193 101.373H30.9109V102.773ZM20.5369 114.496L19.4885 113.568L19.4747 113.584L19.4614 113.6L20.5369 114.496ZM19.7959 115.256L20.6922 116.332L20.6977 116.327L19.7959 115.256ZM19.0549 115.731L18.453 114.467L15.3165 115.961L18.6122 117.059L19.0549 115.731ZM19.9859 116.244L19.0994 117.328L19.1145 117.34L19.1299 117.352L19.9859 116.244ZM20.8029 117.099L19.6829 117.939L19.706 117.97L19.7307 117.999L20.8029 117.099ZM31.6329 130V131.4H34.6361L32.7052 129.1L31.6329 130ZM27.8139 129.962L27.4991 131.326L27.5571 131.34L27.6159 131.348L27.8139 129.962ZM27.3769 129.81L26.6566 131.01L26.7027 131.038L26.7508 131.062L27.3769 129.81ZM27.0349 129.563L25.9813 130.485L26.0428 130.555L26.113 130.617L27.0349 129.563ZM26.7689 129.221L27.9159 128.418L27.874 128.358L27.8261 128.303L26.7689 129.221ZM17.3829 118.41L16.2897 119.285L16.3073 119.307L16.3258 119.328L17.3829 118.41ZM16.5659 117.745L15.9619 119.008L15.9846 119.019L16.0077 119.029L16.5659 117.745ZM13.5639 117.536V116.136H12.1639V117.536H13.5639ZM13.5639 130V131.4H14.9639V130H13.5639ZM9.89692 130H8.49692V131.4H9.89692V130ZM9.89692 102.773V101.373H8.49692V102.773H9.89692ZM13.5639 102.773H14.9639V101.373H13.5639V102.773ZM13.5639 116.105H14.9509V113.305H13.5639V116.105ZM14.9509 116.105C15.5228 116.105 16.1029 116.04 16.6201 115.838L15.5998 113.23C15.5343 113.256 15.3417 113.305 14.9509 113.305V116.105ZM16.6681 115.818C17.1966 115.588 17.6326 115.228 17.9873 114.799L15.8286 113.015C15.7019 113.169 15.606 113.227 15.5517 113.25L16.6681 115.818ZM17.9572 114.834L27.0202 104.574L24.9217 102.72L15.8587 112.98L17.9572 114.834ZM27.0806 104.501C27.2419 104.291 27.3392 104.242 27.3482 104.238L26.1896 101.688C25.6413 101.938 25.2066 102.344 24.8612 102.793L27.0806 104.501ZM27.3482 104.238C27.3961 104.216 27.5277 104.173 27.7949 104.173V101.373C27.2514 101.373 26.699 101.457 26.1896 101.688L27.3482 104.238ZM27.7949 104.173H30.9109V101.373H27.7949V104.173ZM29.8625 101.845L19.4885 113.568L21.5854 115.424L31.9594 103.701L29.8625 101.845ZM19.4614 113.6C19.248 113.856 19.0583 114.047 18.8941 114.185L20.6977 116.327C21.0149 116.06 21.3192 115.744 21.6124 115.392L19.4614 113.6ZM18.8997 114.18C18.7609 114.296 18.6126 114.391 18.453 114.467L19.6568 116.995C20.0292 116.818 20.375 116.596 20.6922 116.332L18.8997 114.18ZM18.6122 117.059C18.7928 117.119 18.9527 117.208 19.0994 117.328L20.8725 115.16C20.4618 114.824 20.001 114.571 19.4976 114.403L18.6122 117.059ZM19.1299 117.352C19.2871 117.473 19.4739 117.66 19.6829 117.939L21.9229 116.259C21.5999 115.828 21.2421 115.445 20.8419 115.136L19.1299 117.352ZM19.7307 117.999L30.5607 130.9L32.7052 129.1L21.8752 116.199L19.7307 117.999ZM31.6329 128.6H28.4409V131.4H31.6329V128.6ZM28.4409 128.6C28.2456 128.6 28.1058 128.589 28.0119 128.576L27.6159 131.348C27.8767 131.385 28.1549 131.4 28.4409 131.4V128.6ZM28.1287 128.598C28.0518 128.58 28.0139 128.563 28.003 128.558L26.7508 131.062C26.9933 131.183 27.2467 131.268 27.4991 131.326L28.1287 128.598ZM28.0972 128.61C28.0352 128.572 27.9898 128.538 27.9568 128.509L26.113 130.617C26.2828 130.765 26.4653 130.896 26.6566 131.01L28.0972 128.61ZM28.0885 128.641C28.0375 128.583 27.9797 128.509 27.9159 128.418L25.622 130.024C25.7355 130.186 25.855 130.341 25.9813 130.485L28.0885 128.641ZM27.8261 128.303L18.4401 117.492L16.3258 119.328L25.7118 130.139L27.8261 128.303ZM18.4761 117.535C18.1188 117.089 17.6743 116.7 17.1241 116.461L16.0077 119.029C16.0402 119.043 16.1404 119.098 16.2897 119.285L18.4761 117.535ZM17.17 116.482C16.5913 116.205 15.8928 116.136 15.2359 116.136V118.936C15.4828 118.936 15.6667 118.951 15.7976 118.971C15.9332 118.993 15.9759 119.015 15.9619 119.008L17.17 116.482ZM15.2359 116.136H13.5639V118.936H15.2359V116.136ZM12.1639 117.536V130H14.9639V117.536H12.1639ZM13.5639 128.6H9.89692V131.4H13.5639V128.6ZM11.2969 130V102.773H8.49692V130H11.2969ZM9.89692 104.173H13.5639V101.373H9.89692V104.173ZM12.1639 102.773V114.705H14.9639V102.773H12.1639ZM20.8378 176V177.4H22.2378V176H20.8378ZM17.1518 176H15.7518V177.4H17.1518V176ZM17.1518 148.773V147.373H15.7518V148.773H17.1518ZM20.8378 148.773H22.2378V147.373H20.8378V148.773ZM20.8378 174.6H17.1518V177.4H20.8378V174.6ZM18.5518 176V148.773H15.7518V176H18.5518ZM17.1518 150.173H20.8378V147.373H17.1518V150.173ZM19.4378 148.773V176H22.2378V148.773H19.4378ZM30.8254 208.909H32.2254V207.509H30.8254V208.909ZM30.8254 219.359L31.6451 220.494L32.2254 220.075V219.359H30.8254ZM26.4364 221.582L26.8528 222.919L26.8596 222.917L26.4364 221.582ZM15.4164 221.297L14.9094 222.602L14.9176 222.605L15.4164 221.297ZM10.8944 218.447L9.90956 219.442L9.91466 219.447L9.91982 219.452L10.8944 218.447ZM8.02542 214.039L9.32859 213.527L9.32859 213.527L8.02542 214.039ZM7.98742 202.715L6.68096 202.212L6.67776 202.22L7.98742 202.715ZM10.7804 198.326L11.7756 199.311L11.7806 199.306L10.7804 198.326ZM15.1694 195.476L15.6778 196.78L15.6778 196.78L15.1694 195.476ZM23.9474 194.716L23.702 196.094L23.7111 196.096L23.7203 196.097L23.9474 194.716ZM26.5124 195.4L26.007 196.706L26.0162 196.709L26.0255 196.713L26.5124 195.4ZM28.6974 196.483L27.9415 197.661L27.9494 197.666L27.9574 197.671L28.6974 196.483ZM30.5784 197.908L31.7656 198.65L32.3839 197.661L31.5224 196.874L30.5784 197.908ZM29.5334 199.58L30.7072 200.343L30.714 200.333L30.7206 200.322L29.5334 199.58ZM28.8874 200.074L29.227 201.432L29.2496 201.427L29.272 201.42L28.8874 200.074ZM28.0324 199.884L28.7527 198.684L28.7453 198.679L28.7378 198.675L28.0324 199.884ZM26.9874 199.238L27.7464 198.062L27.7464 198.062L26.9874 199.238ZM25.5434 198.516L24.9884 199.801L25.0058 199.809L25.0235 199.816L25.5434 198.516ZM23.5484 197.908L23.252 199.276L23.2566 199.277L23.5484 197.908ZM16.6704 198.421L17.1881 199.722L17.1995 199.717L16.6704 198.421ZM13.4974 200.568L14.5149 201.53L14.5214 201.523L13.4974 200.568ZM11.4834 203.95L12.8024 204.419L12.8038 204.415L11.4834 203.95ZM11.5024 212.994L10.1831 213.463L10.1858 213.47L10.1885 213.477L11.5024 212.994ZM13.5924 216.433L12.5757 217.395L12.5823 217.402L12.589 217.409L13.5924 216.433ZM24.6124 218.903L24.997 220.249L25.0084 220.246L24.6124 218.903ZM27.5004 217.706L28.1661 218.938L28.9004 218.541V217.706H27.5004ZM27.5004 211.721H28.9004V210.321H27.5004V211.721ZM22.6744 211.512L21.6845 212.502L21.706 212.523L21.7284 212.544L22.6744 211.512ZM22.4654 208.909V207.509H21.0654V208.909H22.4654ZM29.4254 208.909V219.359H32.2254V208.909H29.4254ZM30.0057 218.224C28.7545 219.128 27.4247 219.8 26.0133 220.247L26.8596 222.917C28.5641 222.376 30.1603 221.566 31.6451 220.494L30.0057 218.224ZM26.0201 220.245C24.6272 220.679 23.0723 220.904 21.3444 220.904V223.704C23.3152 223.704 25.155 223.447 26.8528 222.919L26.0201 220.245ZM21.3444 220.904C19.2962 220.904 17.4929 220.59 15.9152 219.989L14.9176 222.605C16.8613 223.346 19.0099 223.704 21.3444 223.704V220.904ZM15.9234 219.992C14.3228 219.37 12.9781 218.517 11.869 217.442L9.91982 219.452C11.3187 220.809 12.9888 221.856 14.9095 222.602L15.9234 219.992ZM11.8793 217.452C10.7837 216.368 9.93242 215.065 9.32859 213.527L6.72225 214.551C7.46109 216.433 8.52247 218.069 9.90956 219.442L11.8793 217.452ZM9.32859 213.527C8.7283 211.998 8.41842 210.293 8.41842 208.396H5.61842C5.61842 210.603 5.97987 212.66 6.72225 214.551L9.32859 213.527ZM8.41842 208.396C8.41842 206.465 8.71838 204.742 9.29708 203.21L6.67776 202.22C5.96446 204.108 5.61842 206.172 5.61842 208.396H8.41842ZM9.29386 203.218C9.8881 201.675 10.7176 200.38 11.7755 199.311L9.7853 197.341C8.43661 198.704 7.40408 200.335 6.68099 202.212L9.29386 203.218ZM11.7806 199.306C12.8347 198.229 14.1261 197.385 15.6778 196.78L14.6611 194.172C12.7674 194.91 11.1328 195.965 9.78022 197.346L11.7806 199.306ZM15.6778 196.78C17.2159 196.181 18.9654 195.869 20.9454 195.869V193.069C18.6694 193.069 16.5683 193.428 14.6611 194.172L15.6778 196.78ZM20.9454 195.869C21.9515 195.869 22.8691 195.946 23.702 196.094L24.1929 193.338C23.1765 193.157 22.0927 193.069 20.9454 193.069V195.869ZM23.7203 196.097C24.5604 196.236 25.321 196.44 26.007 196.706L27.0178 194.094C26.1332 193.752 25.1838 193.5 24.1745 193.335L23.7203 196.097ZM26.0255 196.713C26.7213 196.971 27.3589 197.288 27.9415 197.661L29.4534 195.305C28.6933 194.817 27.8742 194.412 26.9994 194.087L26.0255 196.713ZM27.9574 197.671C28.5564 198.044 29.1151 198.468 29.6344 198.942L31.5224 196.874C30.8765 196.284 30.1811 195.758 29.4374 195.295L27.9574 197.671ZM29.3912 197.166L28.3462 198.838L30.7206 200.322L31.7656 198.65L29.3912 197.166ZM28.3596 198.817C28.3544 198.825 28.365 198.807 28.398 198.781C28.4325 198.755 28.4708 198.737 28.5028 198.728L29.272 201.42C29.8937 201.243 30.3768 200.851 30.7072 200.343L28.3596 198.817ZM28.5479 198.716C28.6559 198.689 28.743 198.697 28.7874 198.707C28.8248 198.716 28.8146 198.721 28.7527 198.684L27.3121 201.084C27.8138 201.386 28.4864 201.617 29.227 201.432L28.5479 198.716ZM28.7378 198.675C28.4567 198.511 28.1268 198.307 27.7464 198.062L26.2284 200.414C26.6334 200.676 27.0002 200.903 27.327 201.093L28.7378 198.675ZM27.7464 198.062C27.259 197.747 26.6925 197.468 26.0634 197.216L25.0235 199.816C25.5344 200.02 25.9305 200.222 26.2284 200.414L27.7464 198.062ZM26.0984 197.231C25.4355 196.944 24.6778 196.717 23.8402 196.539L23.2566 199.277C23.9644 199.428 24.5367 199.606 24.9884 199.801L26.0984 197.231ZM23.8449 196.54C22.9603 196.348 21.9501 196.261 20.8314 196.261V199.061C21.8154 199.061 22.6166 199.139 23.252 199.276L23.8449 196.54ZM20.8314 196.261C19.1431 196.261 17.573 196.54 16.1414 197.125L17.1995 199.717C18.2505 199.288 19.4544 199.061 20.8314 199.061V196.261ZM16.1528 197.12C14.7276 197.687 13.4946 198.518 12.4735 199.613L14.5214 201.523C15.2482 200.743 16.1306 200.143 17.1881 199.722L16.1528 197.12ZM12.48 199.606C11.4574 200.688 10.6897 201.99 10.163 203.485L12.8038 204.415C13.2145 203.25 13.7894 202.297 14.5149 201.53L12.48 199.606ZM10.1644 203.481C9.63357 204.973 9.38042 206.617 9.38042 208.396H12.1804C12.1804 206.881 12.3959 205.562 12.8024 204.419L10.1644 203.481ZM9.38042 208.396C9.38042 210.236 9.63937 211.931 10.1831 213.463L12.8217 212.525C12.4028 211.346 12.1804 209.976 12.1804 208.396H9.38042ZM10.1885 213.477C10.7419 214.981 11.5341 216.295 12.5757 217.395L14.6091 215.471C13.8521 214.671 13.2509 213.692 12.8163 212.511L10.1885 213.477ZM12.589 217.409C13.6509 218.501 14.9277 219.325 16.3984 219.888L17.3984 217.272C16.2851 216.847 15.358 216.24 14.5958 215.457L12.589 217.409ZM16.3984 219.888C17.8738 220.452 19.4973 220.721 21.2494 220.721V217.921C19.7843 217.921 18.507 217.696 17.3984 217.272L16.3984 219.888ZM21.2494 220.721C22.6154 220.721 23.8701 220.571 24.997 220.249L24.2278 217.557C23.4041 217.792 22.4168 217.921 21.2494 217.921V220.721ZM25.0084 220.246C26.0931 219.926 27.146 219.489 28.1661 218.938L26.8347 216.474C25.9802 216.936 25.1077 217.297 24.2165 217.56L25.0084 220.246ZM28.9004 217.706V211.721H26.1004V217.706H28.9004ZM27.5004 210.321H23.2634V213.121H27.5004V210.321ZM23.2634 210.321C23.2783 210.321 23.3304 210.323 23.4038 210.349C23.4807 210.377 23.5566 210.421 23.6204 210.48L21.7284 212.544C22.1812 212.959 22.7349 213.121 23.2634 213.121V210.321ZM23.6644 210.522C23.7177 210.575 23.774 210.652 23.8142 210.751C23.8541 210.849 23.8654 210.937 23.8654 210.999H21.0654C21.0654 211.561 21.2743 212.092 21.6845 212.502L23.6644 210.522ZM23.8654 210.999V208.909H21.0654V210.999H23.8654ZM22.4654 210.309H30.8254V207.509H22.4654V210.309ZM24.0776 257.892V259.292H26.1186L25.3837 257.388L24.0776 257.892ZM19.8026 246.815L18.4959 247.318L18.4965 247.319L19.8026 246.815ZM19.4036 245.675L18.068 246.095L18.0716 246.106L19.4036 245.675ZM19.0046 244.269L20.3607 243.921L17.6494 243.918L19.0046 244.269ZM18.1876 246.834L16.8911 246.306L16.8863 246.317L16.8818 246.329L18.1876 246.834ZM13.9126 257.892L12.6068 257.387L11.8704 259.292H13.9126V257.892ZM31.7536 268V269.4H33.8212L33.0535 267.48L31.7536 268ZM28.1056 267.753L27.2228 268.84L27.2228 268.84L28.1056 267.753ZM27.6496 267.126L26.3441 267.632L26.3469 267.639L26.3497 267.646L27.6496 267.126ZM25.1036 260.552L26.4091 260.046L26.0627 259.152H25.1036V260.552ZM12.8866 260.552V259.152H11.9275L11.5811 260.046L12.8866 260.552ZM10.3406 267.126L9.03509 266.62L9.02302 266.652L9.01245 266.683L10.3406 267.126ZM9.9036 267.734L10.7936 268.815L10.7936 268.815L9.9036 267.734ZM6.2556 268L4.95567 267.48L4.18802 269.4H6.2556V268ZM17.1426 240.773V239.373H16.1946L15.8427 240.253L17.1426 240.773ZM20.8666 240.773L22.1665 240.253L21.8146 239.373H20.8666V240.773ZM25.3837 257.388L21.1087 246.311L18.4965 247.319L22.7715 258.396L25.3837 257.388ZM21.1093 246.312C20.9938 246.012 20.8692 245.657 20.7356 245.244L18.0716 246.106C18.2167 246.554 18.358 246.959 18.4959 247.318L21.1093 246.312ZM20.7392 245.255C20.608 244.838 20.4818 244.393 20.3607 243.921L17.6485 244.617C17.7808 245.133 17.9205 245.625 18.068 246.095L20.7392 245.255ZM17.6494 243.918C17.3929 244.907 17.1386 245.698 16.8911 246.306L19.4841 247.362C19.7939 246.602 20.0843 245.683 20.3598 244.62L17.6494 243.918ZM16.8818 246.329L12.6068 257.387L15.2184 258.397L19.4934 247.339L16.8818 246.329ZM13.9126 259.292H24.0776V256.492H13.9126V259.292ZM31.7536 266.6H28.9036V269.4H31.7536V266.6ZM28.9036 266.6C28.8544 266.6 28.8481 266.594 28.8711 266.601C28.8828 266.604 28.9006 266.611 28.9222 266.623C28.944 266.634 28.9666 266.649 28.9884 266.666L27.2228 268.84C27.7343 269.255 28.3386 269.4 28.9036 269.4V266.6ZM28.9884 266.666C28.9792 266.659 28.9664 266.648 28.9495 266.606L26.3497 267.646C26.5355 268.11 26.8267 268.518 27.2228 268.84L28.9884 266.666ZM28.9551 266.62L26.4091 260.046L23.7981 261.058L26.3441 267.632L28.9551 266.62ZM25.1036 259.152H12.8866V261.952H25.1036V259.152ZM11.5811 260.046L9.03509 266.62L11.6461 267.632L14.1921 261.058L11.5811 260.046ZM9.01245 266.683C9.0163 266.672 9.02089 266.661 9.02575 266.652C9.03058 266.642 9.03488 266.636 9.03753 266.632C9.04297 266.624 9.03876 266.633 9.01361 266.653L10.7936 268.815C11.1788 268.497 11.4969 268.084 11.6688 267.569L9.01245 266.683ZM9.01361 266.653C9.02517 266.644 9.03929 266.634 9.05544 266.625C9.07158 266.616 9.08686 266.61 9.09988 266.605C9.12679 266.596 9.13267 266.6 9.1056 266.6V269.4C9.70052 269.4 10.2939 269.226 10.7936 268.815L9.01361 266.653ZM9.1056 266.6H6.2556V269.4H9.1056V266.6ZM7.55553 268.52L18.4425 241.293L15.8427 240.253L4.95567 267.48L7.55553 268.52ZM17.1426 242.173H20.8666V239.373H17.1426V242.173ZM19.5667 241.293L30.4537 268.52L33.0535 267.48L22.1665 240.253L19.5667 241.293ZM20.8378 314V315.4H22.2378V314H20.8378ZM17.1518 314H15.7518V315.4H17.1518V314ZM17.1518 286.773V285.373H15.7518V286.773H17.1518ZM20.8378 286.773H22.2378V285.373H20.8378V286.773ZM20.8378 312.6H17.1518V315.4H20.8378V312.6ZM18.5518 314V286.773H15.7518V314H18.5518ZM17.1518 288.173H20.8378V285.373H17.1518V288.173ZM19.4378 286.773V314H22.2378V286.773H19.4378Z" fill="#005380" mask="url(#path-1-outside-1_2806_7)"/>
<mask id="path-3-outside-2_2806_7" maskUnits="userSpaceOnUse" x="97" y="9" width="32" height="353" fill="black">
<rect fill="white" x="97" y="9" width="32" height="353"/>
<path d="M121.9 32.376C122.102 32.376 122.28 32.4583 122.432 32.623L123.895 34.2C122.78 35.492 121.425 36.499 119.829 37.221C118.245 37.943 116.326 38.304 114.072 38.304C112.121 38.304 110.348 37.9683 108.752 37.297C107.156 36.613 105.794 35.663 104.667 34.447C103.539 33.2183 102.665 31.749 102.045 30.039C101.424 28.329 101.114 26.448 101.114 24.396C101.114 22.344 101.437 20.463 102.083 18.753C102.729 17.043 103.634 15.5737 104.8 14.345C105.978 13.1163 107.384 12.1663 109.018 11.495C110.652 10.811 112.457 10.469 114.433 10.469C116.371 10.469 118.081 10.7793 119.563 11.4C121.045 12.0207 122.349 12.863 123.477 13.927L122.261 15.618C122.185 15.7447 122.083 15.8523 121.957 15.941C121.843 16.017 121.684 16.055 121.482 16.055C121.254 16.055 120.975 15.9347 120.646 15.694C120.316 15.4407 119.886 15.162 119.354 14.858C118.822 14.554 118.157 14.2817 117.359 14.041C116.561 13.7877 115.579 13.661 114.414 13.661C113.008 13.661 111.722 13.908 110.557 14.402C109.391 14.8833 108.384 15.5863 107.536 16.511C106.7 17.4357 106.047 18.563 105.579 19.893C105.11 21.223 104.876 22.724 104.876 24.396C104.876 26.0933 105.116 27.607 105.598 28.937C106.092 30.267 106.757 31.3943 107.593 32.319C108.441 33.231 109.436 33.9277 110.576 34.409C111.728 34.8903 112.97 35.131 114.3 35.131C115.11 35.131 115.839 35.0867 116.485 34.998C117.143 34.8967 117.745 34.7447 118.29 34.542C118.847 34.3393 119.36 34.086 119.829 33.782C120.31 33.4653 120.785 33.0917 121.254 32.661C121.469 32.471 121.684 32.376 121.9 32.376ZM111.108 69.959C112.172 69.959 113.109 69.8323 113.92 69.579C114.743 69.313 115.427 68.9457 115.972 68.477C116.529 67.9957 116.947 67.4257 117.226 66.767C117.505 66.1083 117.644 65.38 117.644 64.582C117.644 62.9607 117.112 61.7383 116.048 60.915C114.984 60.0917 113.388 59.68 111.26 59.68H107.232V69.959H111.108ZM123.686 84H120.418C119.747 84 119.253 83.7403 118.936 83.221L111.868 73.493C111.653 73.189 111.418 72.9737 111.165 72.847C110.924 72.7077 110.544 72.638 110.025 72.638H107.232V84H103.565V56.773H111.26C112.983 56.773 114.471 56.9503 115.725 57.305C116.979 57.647 118.011 58.1473 118.822 58.806C119.645 59.4647 120.253 60.2627 120.646 61.2C121.039 62.1247 121.235 63.1633 121.235 64.316C121.235 65.2787 121.083 66.178 120.779 67.014C120.475 67.85 120.032 68.6037 119.449 69.275C118.879 69.9337 118.176 70.4973 117.34 70.966C116.517 71.4347 115.579 71.7893 114.528 72.03C114.997 72.296 115.402 72.6823 115.744 73.189L123.686 84ZM121.307 126.998L121.288 130H104.511V102.773H121.288V105.775H108.197V114.819H118.799V117.707H108.197V126.998H121.307ZM118.414 165.892L114.139 154.815C114.012 154.486 113.879 154.106 113.74 153.675C113.6 153.232 113.467 152.763 113.341 152.269C113.075 153.295 112.802 154.15 112.524 154.834L108.249 165.892H118.414ZM126.09 176H123.24C122.91 176 122.644 175.918 122.442 175.753C122.239 175.588 122.087 175.379 121.986 175.126L119.44 168.552H107.223L104.677 175.126C104.601 175.354 104.455 175.557 104.24 175.734C104.024 175.911 103.758 176 103.442 176H100.592L111.479 148.773H115.203L126.09 176ZM122.662 197.87H113.846V222H110.179V197.87H101.344V194.773H122.662V197.87ZM113.838 268H110.152V240.773H113.838V268ZM124.754 286.773L113.658 314H110.352L99.2556 286.773H102.201C102.53 286.773 102.796 286.855 102.999 287.02C103.201 287.185 103.353 287.394 103.455 287.647L111.131 306.856C111.295 307.287 111.454 307.755 111.606 308.262C111.77 308.769 111.916 309.301 112.043 309.858C112.169 309.301 112.302 308.769 112.442 308.262C112.581 307.755 112.733 307.287 112.898 306.856L120.555 287.647C120.631 287.432 120.776 287.235 120.992 287.058C121.22 286.868 121.492 286.773 121.809 286.773H124.754ZM121.307 356.998L121.288 360H104.511V332.773H121.288V335.775H108.197V344.819H118.799V347.707H108.197V356.998H121.307Z"/>
</mask>
<path d="M121.9 32.376C122.102 32.376 122.28 32.4583 122.432 32.623L123.895 34.2C122.78 35.492 121.425 36.499 119.829 37.221C118.245 37.943 116.326 38.304 114.072 38.304C112.121 38.304 110.348 37.9683 108.752 37.297C107.156 36.613 105.794 35.663 104.667 34.447C103.539 33.2183 102.665 31.749 102.045 30.039C101.424 28.329 101.114 26.448 101.114 24.396C101.114 22.344 101.437 20.463 102.083 18.753C102.729 17.043 103.634 15.5737 104.8 14.345C105.978 13.1163 107.384 12.1663 109.018 11.495C110.652 10.811 112.457 10.469 114.433 10.469C116.371 10.469 118.081 10.7793 119.563 11.4C121.045 12.0207 122.349 12.863 123.477 13.927L122.261 15.618C122.185 15.7447 122.083 15.8523 121.957 15.941C121.843 16.017 121.684 16.055 121.482 16.055C121.254 16.055 120.975 15.9347 120.646 15.694C120.316 15.4407 119.886 15.162 119.354 14.858C118.822 14.554 118.157 14.2817 117.359 14.041C116.561 13.7877 115.579 13.661 114.414 13.661C113.008 13.661 111.722 13.908 110.557 14.402C109.391 14.8833 108.384 15.5863 107.536 16.511C106.7 17.4357 106.047 18.563 105.579 19.893C105.11 21.223 104.876 22.724 104.876 24.396C104.876 26.0933 105.116 27.607 105.598 28.937C106.092 30.267 106.757 31.3943 107.593 32.319C108.441 33.231 109.436 33.9277 110.576 34.409C111.728 34.8903 112.97 35.131 114.3 35.131C115.11 35.131 115.839 35.0867 116.485 34.998C117.143 34.8967 117.745 34.7447 118.29 34.542C118.847 34.3393 119.36 34.086 119.829 33.782C120.31 33.4653 120.785 33.0917 121.254 32.661C121.469 32.471 121.684 32.376 121.9 32.376ZM111.108 69.959C112.172 69.959 113.109 69.8323 113.92 69.579C114.743 69.313 115.427 68.9457 115.972 68.477C116.529 67.9957 116.947 67.4257 117.226 66.767C117.505 66.1083 117.644 65.38 117.644 64.582C117.644 62.9607 117.112 61.7383 116.048 60.915C114.984 60.0917 113.388 59.68 111.26 59.68H107.232V69.959H111.108ZM123.686 84H120.418C119.747 84 119.253 83.7403 118.936 83.221L111.868 73.493C111.653 73.189 111.418 72.9737 111.165 72.847C110.924 72.7077 110.544 72.638 110.025 72.638H107.232V84H103.565V56.773H111.26C112.983 56.773 114.471 56.9503 115.725 57.305C116.979 57.647 118.011 58.1473 118.822 58.806C119.645 59.4647 120.253 60.2627 120.646 61.2C121.039 62.1247 121.235 63.1633 121.235 64.316C121.235 65.2787 121.083 66.178 120.779 67.014C120.475 67.85 120.032 68.6037 119.449 69.275C118.879 69.9337 118.176 70.4973 117.34 70.966C116.517 71.4347 115.579 71.7893 114.528 72.03C114.997 72.296 115.402 72.6823 115.744 73.189L123.686 84ZM121.307 126.998L121.288 130H104.511V102.773H121.288V105.775H108.197V114.819H118.799V117.707H108.197V126.998H121.307ZM118.414 165.892L114.139 154.815C114.012 154.486 113.879 154.106 113.74 153.675C113.6 153.232 113.467 152.763 113.341 152.269C113.075 153.295 112.802 154.15 112.524 154.834L108.249 165.892H118.414ZM126.09 176H123.24C122.91 176 122.644 175.918 122.442 175.753C122.239 175.588 122.087 175.379 121.986 175.126L119.44 168.552H107.223L104.677 175.126C104.601 175.354 104.455 175.557 104.24 175.734C104.024 175.911 103.758 176 103.442 176H100.592L111.479 148.773H115.203L126.09 176ZM122.662 197.87H113.846V222H110.179V197.87H101.344V194.773H122.662V197.87ZM113.838 268H110.152V240.773H113.838V268ZM124.754 286.773L113.658 314H110.352L99.2556 286.773H102.201C102.53 286.773 102.796 286.855 102.999 287.02C103.201 287.185 103.353 287.394 103.455 287.647L111.131 306.856C111.295 307.287 111.454 307.755 111.606 308.262C111.77 308.769 111.916 309.301 112.043 309.858C112.169 309.301 112.302 308.769 112.442 308.262C112.581 307.755 112.733 307.287 112.898 306.856L120.555 287.647C120.631 287.432 120.776 287.235 120.992 287.058C121.22 286.868 121.492 286.773 121.809 286.773H124.754ZM121.307 356.998L121.288 360H104.511V332.773H121.288V335.775H108.197V344.819H118.799V347.707H108.197V356.998H121.307Z" fill="#009AEC" fill-opacity="0.1"/>
<path d="M122.432 32.623L121.403 33.5726L121.405 33.5752L122.432 32.623ZM123.895 34.2L124.955 35.1145L125.773 34.1661L124.921 33.2478L123.895 34.2ZM119.829 37.221L119.252 35.9454L119.248 35.9472L119.829 37.221ZM108.752 37.297L108.2 38.5838L108.209 38.5875L108.752 37.297ZM104.667 34.447L103.635 35.3935L103.64 35.3988L104.667 34.447ZM102.045 30.039L103.361 29.5613L103.361 29.5613L102.045 30.039ZM102.083 18.753L103.392 19.2478L103.392 19.2478L102.083 18.753ZM104.8 14.345L103.789 13.3761L103.784 13.3816L104.8 14.345ZM109.018 11.495L109.55 12.79L109.558 12.7864L109.018 11.495ZM119.563 11.4L120.103 10.1087L120.103 10.1087L119.563 11.4ZM123.477 13.927L124.613 14.7444L125.328 13.7497L124.438 12.9089L123.477 13.927ZM122.261 15.618L121.124 14.8006L121.09 14.8478L121.06 14.8977L122.261 15.618ZM121.957 15.941L122.733 17.1059L122.746 17.097L122.759 17.0879L121.957 15.941ZM120.646 15.694L119.792 16.8037L119.806 16.8142L119.82 16.8243L120.646 15.694ZM119.354 14.858L120.048 13.6425L120.048 13.6425L119.354 14.858ZM117.359 14.041L116.935 15.3754L116.945 15.3784L116.954 15.3814L117.359 14.041ZM110.557 14.402L111.091 15.696L111.103 15.691L110.557 14.402ZM107.536 16.511L106.504 15.5643L106.497 15.5721L107.536 16.511ZM105.579 19.893L104.258 19.4277L104.258 19.4277L105.579 19.893ZM105.598 28.937L104.281 29.4134L104.285 29.4245L105.598 28.937ZM107.593 32.319L106.554 33.2579L106.561 33.2654L106.568 33.2727L107.593 32.319ZM110.576 34.409L110.031 35.6988L110.036 35.7009L110.576 34.409ZM116.485 34.998L116.675 36.385L116.686 36.3834L116.697 36.3817L116.485 34.998ZM118.29 34.542L117.811 33.2263L117.801 33.2299L118.29 34.542ZM119.829 33.782L120.59 34.9566L120.598 34.9516L119.829 33.782ZM121.254 32.661L120.327 31.6112L120.317 31.6206L120.306 31.6301L121.254 32.661ZM121.9 33.776C121.805 33.776 121.698 33.7553 121.595 33.7076C121.495 33.6613 121.433 33.6052 121.403 33.5726L123.46 31.6734C123.074 31.2554 122.537 30.976 121.9 30.976V33.776ZM121.405 33.5752L122.868 35.1522L124.921 33.2478L123.458 31.6708L121.405 33.5752ZM122.835 33.2855C121.856 34.4193 120.667 35.305 119.252 35.9454L120.406 38.4966C122.182 37.693 123.704 36.5647 124.955 35.1145L122.835 33.2855ZM119.248 35.9472C117.892 36.5653 116.183 36.904 114.072 36.904V39.704C116.47 39.704 118.598 39.3207 120.409 38.4948L119.248 35.9472ZM114.072 36.904C112.284 36.904 110.698 36.597 109.294 36.0065L108.209 38.5875C109.997 39.3397 111.958 39.704 114.072 39.704V36.904ZM109.303 36.0102C107.878 35.3997 106.681 34.5607 105.693 33.4952L103.64 35.3988C104.907 36.7653 106.433 37.8263 108.2 38.5838L109.303 36.0102ZM105.698 33.5005C104.707 32.4198 103.924 31.1137 103.361 29.5613L100.729 30.5167C101.406 32.3843 102.372 34.0169 103.635 35.3935L105.698 33.5005ZM103.361 29.5613C102.802 28.0227 102.514 26.3058 102.514 24.396H99.7136C99.7136 26.5902 100.046 28.6353 100.729 30.5167L103.361 29.5613ZM102.514 24.396C102.514 22.4924 102.813 20.7815 103.392 19.2478L100.773 18.2582C100.06 20.1445 99.7136 22.1956 99.7136 24.396H102.514ZM103.392 19.2478C103.978 17.698 104.788 16.3915 105.815 15.3084L103.784 13.3816C102.48 14.7558 101.479 16.388 100.773 18.2582L103.392 19.2478ZM105.81 15.3139C106.848 14.2314 108.089 13.39 109.55 12.79L108.486 10.2C106.678 10.9427 105.107 12.0012 103.789 13.3761L105.81 15.3139ZM109.558 12.7864C111.002 12.1819 112.621 11.869 114.433 11.869V9.069C112.292 9.069 110.301 9.44007 108.477 10.2036L109.558 12.7864ZM114.433 11.869C116.222 11.869 117.742 12.1556 119.022 12.6913L120.103 10.1087C118.419 9.40311 116.519 9.069 114.433 9.069V11.869ZM119.022 12.6913C120.354 13.2493 121.515 14.0009 122.516 14.9451L124.438 12.9089C123.183 11.7251 121.735 10.792 120.103 10.1087L119.022 12.6913ZM122.34 13.1096L121.124 14.8006L123.397 16.4354L124.613 14.7444L122.34 13.1096ZM121.06 14.8977C121.074 14.875 121.09 14.8534 121.108 14.8342C121.126 14.8153 121.142 14.8021 121.154 14.7941L122.759 17.0879C123.039 16.8919 123.279 16.6414 123.461 16.3383L121.06 14.8977ZM121.18 14.7761C121.283 14.7072 121.374 14.6776 121.426 14.6652C121.476 14.6531 121.498 14.655 121.482 14.655V17.455C121.836 17.455 122.304 17.3923 122.733 17.1059L121.18 14.7761ZM121.482 14.655C121.548 14.655 121.597 14.6637 121.625 14.6703C121.652 14.6769 121.663 14.6824 121.657 14.6795C121.65 14.6766 121.631 14.6676 121.598 14.6481C121.565 14.6288 121.523 14.6015 121.472 14.5637L119.82 16.8243C120.222 17.1187 120.802 17.455 121.482 17.455V14.655ZM121.499 14.5843C121.102 14.2786 120.612 13.9647 120.048 13.6425L118.659 16.0735C119.159 16.3593 119.531 16.6027 119.792 16.8037L121.499 14.5843ZM120.048 13.6425C119.398 13.2711 118.628 12.9617 117.763 12.7006L116.954 15.3814C117.685 15.6016 118.245 15.8369 118.659 16.0735L120.048 13.6425ZM117.782 12.7066C116.805 12.3965 115.671 12.261 114.414 12.261V15.061C115.487 15.061 116.316 15.1788 116.935 15.3754L117.782 12.7066ZM114.414 12.261C112.841 12.261 111.367 12.538 110.01 13.113L111.103 15.691C112.077 15.278 113.174 15.061 114.414 15.061V12.261ZM110.022 13.108C108.669 13.6671 107.492 14.4883 106.504 15.5643L108.567 17.4577C109.277 16.6844 110.114 16.0996 111.091 15.696L110.022 13.108ZM106.497 15.5721C105.521 16.6513 104.78 17.9456 104.258 19.4277L106.899 20.3583C107.314 19.1804 107.878 18.22 108.574 17.4499L106.497 15.5721ZM104.258 19.4277C103.728 20.932 103.476 22.5942 103.476 24.396H106.276C106.276 22.8538 106.492 21.514 106.899 20.3583L104.258 19.4277ZM103.476 24.396C103.476 26.2242 103.735 27.9035 104.281 29.4134L106.914 28.4606C106.498 27.3105 106.276 25.9625 106.276 24.396H103.476ZM104.285 29.4245C104.833 30.8981 105.584 32.1846 106.554 33.2579L108.631 31.3801C107.929 30.6041 107.351 29.6359 106.91 28.4495L104.285 29.4245ZM106.568 33.2727C107.55 34.3284 108.708 35.14 110.031 35.6987L111.12 33.1193C110.163 32.7153 109.332 32.1336 108.617 31.3653L106.568 33.2727ZM110.036 35.7009C111.371 36.2581 112.797 36.531 114.3 36.531V33.731C113.143 33.731 112.086 33.5225 111.115 33.1171L110.036 35.7009ZM114.3 36.531C115.159 36.531 115.953 36.4841 116.675 36.385L116.294 33.611C115.724 33.6892 115.061 33.731 114.3 33.731V36.531ZM116.697 36.3817C117.437 36.268 118.132 36.0943 118.778 35.8541L117.801 33.2299C117.358 33.395 116.85 33.5253 116.272 33.6143L116.697 36.3817ZM118.768 35.8577C119.419 35.6211 120.028 35.3216 120.59 34.9565L119.067 32.6075C118.692 32.8504 118.275 33.0576 117.811 33.2263L118.768 35.8577ZM120.598 34.9516C121.148 34.5895 121.682 34.1683 122.201 33.6919L120.306 31.6301C119.887 32.0151 119.471 32.3412 119.059 32.6124L120.598 34.9516ZM122.18 33.7108C122.203 33.6907 122.191 33.7065 122.142 33.7281C122.088 33.7518 122.004 33.776 121.9 33.776V30.976C121.243 30.976 120.712 31.2719 120.327 31.6112L122.18 33.7108ZM113.92 69.579L114.337 70.9153L114.35 70.9112L113.92 69.579ZM115.972 68.477L116.885 69.5382L116.887 69.5366L115.972 68.477ZM117.226 66.767L118.515 67.3125L118.515 67.3125L117.226 66.767ZM116.048 60.915L115.191 62.0222L115.191 62.0222L116.048 60.915ZM107.232 59.68V58.28H105.832V59.68H107.232ZM107.232 69.959H105.832V71.359H107.232V69.959ZM123.686 84V85.4H126.452L124.814 83.1711L123.686 84ZM118.936 83.221L120.131 82.4921L120.102 82.4439L120.069 82.3981L118.936 83.221ZM111.868 73.493L110.725 74.3022L110.73 74.3091L110.735 74.3159L111.868 73.493ZM111.165 72.847L110.463 74.0586L110.5 74.08L110.539 74.0992L111.165 72.847ZM107.232 72.638V71.238H105.832V72.638H107.232ZM107.232 84V85.4H108.632V84H107.232ZM103.565 84H102.165V85.4H103.565V84ZM103.565 56.773V55.373H102.165V56.773H103.565ZM115.725 57.305L115.344 58.6522L115.357 58.6557L115.725 57.305ZM118.822 58.806L117.939 59.8926L117.947 59.8992L118.822 58.806ZM120.646 61.2L119.355 61.7409L119.357 61.7472L120.646 61.2ZM120.779 67.014L122.095 67.4924L122.095 67.4924L120.779 67.014ZM119.449 69.275L118.392 68.3573L118.39 68.3589L119.449 69.275ZM117.34 70.966L116.655 69.7448L116.647 69.7493L117.34 70.966ZM114.528 72.03L114.215 70.6653L110.704 71.4692L113.837 73.2476L114.528 72.03ZM115.744 73.189L114.584 73.9723L114.599 73.9954L114.616 74.0179L115.744 73.189ZM111.108 71.359C112.279 71.359 113.363 71.2199 114.337 70.9153L113.502 68.2427C112.856 68.4447 112.064 68.559 111.108 68.559V71.359ZM114.35 70.9112C115.316 70.5993 116.173 70.1506 116.885 69.5382L115.059 67.4158C114.681 67.7408 114.171 68.0267 113.489 68.2468L114.35 70.9112ZM116.887 69.5366C117.602 68.9191 118.15 68.1749 118.515 67.3125L115.937 66.2215C115.744 66.6764 115.457 67.0722 115.057 67.4174L116.887 69.5366ZM118.515 67.3125C118.875 66.4623 119.044 65.5457 119.044 64.582H116.244C116.244 65.2143 116.134 65.7544 115.937 66.2215L118.515 67.3125ZM119.044 64.582C119.044 62.6266 118.383 60.9516 116.905 59.8078L115.191 62.0222C115.841 62.5251 116.244 63.2947 116.244 64.582H119.044ZM116.905 59.8078C115.489 58.7124 113.53 58.28 111.26 58.28V61.08C113.246 61.08 114.479 61.4709 115.191 62.0222L116.905 59.8078ZM111.26 58.28H107.232V61.08H111.26V58.28ZM105.832 59.68V69.959H108.632V59.68H105.832ZM107.232 71.359H111.108V68.559H107.232V71.359ZM123.686 82.6H120.418V85.4H123.686V82.6ZM120.418 82.6C120.263 82.6 120.204 82.5709 120.195 82.566C120.189 82.5628 120.184 82.5592 120.177 82.5523C120.169 82.545 120.153 82.5275 120.131 82.4921L117.741 83.9499C118.341 84.9353 119.319 85.4 120.418 85.4V82.6ZM120.069 82.3981L113.001 72.6701L110.735 74.3159L117.803 84.0439L120.069 82.3981ZM113.01 72.6838C112.702 72.2491 112.305 71.8518 111.791 71.5948L110.539 74.0992C110.532 74.0956 110.603 74.1289 110.725 74.3022L113.01 72.6838ZM111.866 71.6354C111.297 71.3061 110.61 71.238 110.025 71.238V74.038C110.227 74.038 110.363 74.0519 110.447 74.0673C110.536 74.0836 110.525 74.0941 110.463 74.0586L111.866 71.6354ZM110.025 71.238H107.232V74.038H110.025V71.238ZM105.832 72.638V84H108.632V72.638H105.832ZM107.232 82.6H103.565V85.4H107.232V82.6ZM104.965 84V56.773H102.165V84H104.965ZM103.565 58.173H111.26V55.373H103.565V58.173ZM111.26 58.173C112.892 58.173 114.246 58.3417 115.344 58.6522L116.106 55.9578C114.695 55.5589 113.073 55.373 111.26 55.373V58.173ZM115.357 58.6557C116.467 58.9586 117.312 59.3829 117.939 59.8926L119.705 57.7194C118.711 56.9118 117.491 56.3354 116.093 55.9543L115.357 58.6557ZM117.947 59.8992C118.595 60.4173 119.056 61.0279 119.355 61.7409L121.937 60.6591C121.451 59.4974 120.696 58.5121 119.696 57.7128L117.947 59.8992ZM119.357 61.7472C119.666 62.4752 119.835 63.3238 119.835 64.316H122.635C122.635 63.0028 122.411 61.7742 121.935 60.6528L119.357 61.7472ZM119.835 64.316C119.835 65.1289 119.707 65.8651 119.463 66.5356L122.095 67.4924C122.459 66.4909 122.635 65.4284 122.635 64.316H119.835ZM119.463 66.5356C119.218 67.2107 118.862 67.8155 118.392 68.3573L120.506 70.1927C121.201 69.3919 121.732 68.4893 122.095 67.4924L119.463 66.5356ZM118.39 68.3589C117.936 68.8833 117.364 69.3475 116.655 69.7448L118.024 72.1872C118.988 71.6472 119.821 70.9841 120.508 70.1911L118.39 68.3589ZM116.647 69.7493C115.958 70.1417 115.152 70.451 114.215 70.6653L114.84 73.3947C116.007 73.1277 117.075 72.7276 118.032 72.1827L116.647 69.7493ZM113.837 73.2476C114.094 73.3934 114.346 73.6204 114.584 73.9723L116.904 72.4057C116.458 71.7442 115.899 71.1986 115.219 70.8124L113.837 73.2476ZM114.616 74.0179L122.558 84.8289L124.814 83.1711L116.872 72.3601L114.616 74.0179ZM121.307 126.998L122.707 127.007L122.716 125.598H121.307V126.998ZM121.288 130V131.4H122.679L122.688 130.009L121.288 130ZM104.511 130H103.111V131.4H104.511V130ZM104.511 102.773V101.373H103.111V102.773H104.511ZM121.288 102.773H122.688V101.373H121.288V102.773ZM121.288 105.775V107.175H122.688V105.775H121.288ZM108.197 105.775V104.375H106.797V105.775H108.197ZM108.197 114.819H106.797V116.219H108.197V114.819ZM118.799 114.819H120.199V113.419H118.799V114.819ZM118.799 117.707V119.107H120.199V117.707H118.799ZM108.197 117.707V116.307H106.797V117.707H108.197ZM108.197 126.998H106.797V128.398H108.197V126.998ZM119.907 126.989L119.888 129.991L122.688 130.009L122.707 127.007L119.907 126.989ZM121.288 128.6H104.511V131.4H121.288V128.6ZM105.911 130V102.773H103.111V130H105.911ZM104.511 104.173H121.288V101.373H104.511V104.173ZM119.888 102.773V105.775H122.688V102.773H119.888ZM121.288 104.375H108.197V107.175H121.288V104.375ZM106.797 105.775V114.819H109.597V105.775H106.797ZM108.197 116.219H118.799V113.419H108.197V116.219ZM117.399 114.819V117.707H120.199V114.819H117.399ZM118.799 116.307H108.197V119.107H118.799V116.307ZM106.797 117.707V126.998H109.597V117.707H106.797ZM108.197 128.398H121.307V125.598H108.197V128.398ZM118.414 165.892V167.292H120.454L119.72 165.388L118.414 165.892ZM114.139 154.815L112.832 155.318L112.832 155.319L114.139 154.815ZM113.74 153.675L112.404 154.095L112.408 154.106L113.74 153.675ZM113.341 152.269L114.697 151.921L111.985 151.918L113.341 152.269ZM112.524 154.834L111.227 154.306L111.222 154.317L111.218 154.329L112.524 154.834ZM108.249 165.892L106.943 165.387L106.206 167.292H108.249V165.892ZM126.09 176V177.4H128.157L127.389 175.48L126.09 176ZM122.442 175.753L121.559 176.84L121.559 176.84L122.442 175.753ZM121.986 175.126L120.68 175.632L120.683 175.639L120.686 175.646L121.986 175.126ZM119.44 168.552L120.745 168.046L120.399 167.152H119.44V168.552ZM107.223 168.552V167.152H106.263L105.917 168.046L107.223 168.552ZM104.677 175.126L103.371 174.62L103.359 174.652L103.348 174.683L104.677 175.126ZM104.24 175.734L105.13 176.815L105.13 176.815L104.24 175.734ZM100.592 176L99.2916 175.48L98.524 177.4H100.592V176ZM111.479 148.773V147.373H110.531L110.179 148.253L111.479 148.773ZM115.203 148.773L116.502 148.253L116.151 147.373H115.203V148.773ZM119.72 165.388L115.445 154.311L112.832 155.319L117.107 166.396L119.72 165.388ZM115.445 154.312C115.33 154.012 115.205 153.657 115.072 153.244L112.408 154.106C112.553 154.554 112.694 154.959 112.832 155.318L115.445 154.312ZM115.075 153.255C114.944 152.838 114.818 152.393 114.697 151.921L111.984 152.617C112.117 153.133 112.256 153.625 112.404 154.095L115.075 153.255ZM111.985 151.918C111.729 152.907 111.475 153.698 111.227 154.306L113.82 155.362C114.13 154.602 114.42 153.683 114.696 152.62L111.985 151.918ZM111.218 154.329L106.943 165.387L109.554 166.397L113.829 155.339L111.218 154.329ZM108.249 167.292H118.414V164.492H108.249V167.292ZM126.09 174.6H123.24V177.4H126.09V174.6ZM123.24 174.6C123.19 174.6 123.184 174.594 123.207 174.601C123.219 174.604 123.237 174.611 123.258 174.623C123.28 174.634 123.302 174.649 123.324 174.666L121.559 176.84C122.07 177.255 122.675 177.4 123.24 177.4V174.6ZM123.324 174.666C123.315 174.659 123.302 174.648 123.285 174.606L120.686 175.646C120.871 176.11 121.163 176.518 121.559 176.84L123.324 174.666ZM123.291 174.62L120.745 168.046L118.134 169.058L120.68 175.632L123.291 174.62ZM119.44 167.152H107.223V169.952H119.44V167.152ZM105.917 168.046L103.371 174.62L105.982 175.632L108.528 169.058L105.917 168.046ZM103.348 174.683C103.352 174.672 103.357 174.661 103.362 174.652C103.367 174.642 103.371 174.636 103.373 174.632C103.379 174.624 103.375 174.633 103.35 174.653L105.13 176.815C105.515 176.497 105.833 176.084 106.005 175.569L103.348 174.683ZM103.35 174.653C103.361 174.644 103.375 174.634 103.391 174.625C103.408 174.616 103.423 174.61 103.436 174.605C103.463 174.596 103.469 174.6 103.442 174.6V177.4C104.036 177.4 104.63 177.226 105.13 176.815L103.35 174.653ZM103.442 174.6H100.592V177.4H103.442V174.6ZM101.891 176.52L112.778 149.293L110.179 148.253L99.2916 175.48L101.891 176.52ZM111.479 150.173H115.203V147.373H111.479V150.173ZM113.903 149.293L124.79 176.52L127.389 175.48L116.502 148.253L113.903 149.293ZM122.662 197.87V199.27H124.062V197.87H122.662ZM113.846 197.87V196.47H112.446V197.87H113.846ZM113.846 222V223.4H115.246V222H113.846ZM110.179 222H108.779V223.4H110.179V222ZM110.179 197.87H111.579V196.47H110.179V197.87ZM101.344 197.87H99.9444V199.27H101.344V197.87ZM101.344 194.773V193.373H99.9444V194.773H101.344ZM122.662 194.773H124.062V193.373H122.662V194.773ZM122.662 196.47H113.846V199.27H122.662V196.47ZM112.446 197.87V222H115.246V197.87H112.446ZM113.846 220.6H110.179V223.4H113.846V220.6ZM111.579 222V197.87H108.779V222H111.579ZM110.179 196.47H101.344V199.27H110.179V196.47ZM102.744 197.87V194.773H99.9444V197.87H102.744ZM101.344 196.173H122.662V193.373H101.344V196.173ZM121.262 194.773V197.87H124.062V194.773H121.262ZM113.838 268V269.4H115.238V268H113.838ZM110.152 268H108.752V269.4H110.152V268ZM110.152 240.773V239.373H108.752V240.773H110.152ZM113.838 240.773H115.238V239.373H113.838V240.773ZM113.838 266.6H110.152V269.4H113.838V266.6ZM111.552 268V240.773H108.752V268H111.552ZM110.152 242.173H113.838V239.373H110.152V242.173ZM112.438 240.773V268H115.238V240.773H112.438ZM124.754 286.773L126.05 287.301L126.836 285.373H124.754V286.773ZM113.658 314V315.4H114.599L114.954 314.528L113.658 314ZM110.352 314L109.055 314.528L109.41 315.4H110.352V314ZM99.2556 286.773V285.373H97.1733L97.9591 287.301L99.2556 286.773ZM103.455 287.647L104.755 287.127L104.754 287.127L103.455 287.647ZM111.131 306.856L112.438 306.356L112.435 306.346L112.431 306.336L111.131 306.856ZM111.606 308.262L110.265 308.664L110.269 308.68L110.274 308.695L111.606 308.262ZM112.043 309.858L110.677 310.168H113.408L112.043 309.858ZM112.442 308.262L113.791 308.633L113.791 308.633L112.442 308.262ZM112.898 306.856L111.597 306.338L111.593 306.347L111.59 306.356L112.898 306.856ZM120.555 287.647L121.855 288.165L121.865 288.139L121.875 288.113L120.555 287.647ZM120.992 287.058L121.882 288.139L121.888 288.134L120.992 287.058ZM123.457 286.245L112.361 313.472L114.954 314.528L126.05 287.301L123.457 286.245ZM113.658 312.6H110.352V315.4H113.658V312.6ZM111.648 313.472L100.552 286.245L97.9591 287.301L109.055 314.528L111.648 313.472ZM99.2556 288.173H102.201V285.373H99.2556V288.173ZM102.201 288.173C102.25 288.173 102.256 288.179 102.233 288.172C102.221 288.169 102.204 288.162 102.182 288.15C102.16 288.139 102.138 288.124 102.116 288.107L103.881 285.933C103.37 285.518 102.766 285.373 102.201 285.373V288.173ZM102.116 288.107C102.125 288.114 102.138 288.125 102.155 288.167L104.754 287.127C104.569 286.663 104.278 286.255 103.881 285.933L102.116 288.107ZM102.155 288.167L109.831 307.376L112.431 306.336L104.755 287.127L102.155 288.167ZM109.823 307.356C109.974 307.75 110.121 308.186 110.265 308.664L112.947 307.86C112.786 307.325 112.617 306.823 112.438 306.356L109.823 307.356ZM110.274 308.695C110.425 309.158 110.559 309.649 110.677 310.168L113.408 309.548C113.272 308.952 113.116 308.379 112.937 307.829L110.274 308.695ZM113.408 310.168C113.53 309.63 113.658 309.118 113.791 308.633L111.092 307.891C110.946 308.419 110.808 308.972 110.677 309.548L113.408 310.168ZM113.791 308.633C113.92 308.164 114.059 307.739 114.205 307.356L111.59 306.356C111.407 306.834 111.241 307.346 111.092 307.891L113.791 308.633ZM114.198 307.374L121.855 288.165L119.254 287.129L111.597 306.338L114.198 307.374ZM121.875 288.113C121.869 288.129 121.863 288.142 121.857 288.153C121.852 288.163 121.847 288.17 121.845 288.172C121.841 288.177 121.85 288.165 121.882 288.139L120.102 285.977C119.733 286.281 119.412 286.677 119.234 287.181L121.875 288.113ZM121.888 288.134C121.883 288.137 121.875 288.143 121.864 288.15C121.852 288.156 121.84 288.162 121.828 288.166C121.802 288.175 121.792 288.173 121.809 288.173V285.373C121.188 285.373 120.593 285.568 120.095 285.982L121.888 288.134ZM121.809 288.173H124.754V285.373H121.809V288.173ZM121.307 356.998L122.707 357.007L122.716 355.598H121.307V356.998ZM121.288 360V361.4H122.679L122.688 360.009L121.288 360ZM104.511 360H103.111V361.4H104.511V360ZM104.511 332.773V331.373H103.111V332.773H104.511ZM121.288 332.773H122.688V331.373H121.288V332.773ZM121.288 335.775V337.175H122.688V335.775H121.288ZM108.197 335.775V334.375H106.797V335.775H108.197ZM108.197 344.819H106.797V346.219H108.197V344.819ZM118.799 344.819H120.199V343.419H118.799V344.819ZM118.799 347.707V349.107H120.199V347.707H118.799ZM108.197 347.707V346.307H106.797V347.707H108.197ZM108.197 356.998H106.797V358.398H108.197V356.998ZM119.907 356.989L119.888 359.991L122.688 360.009L122.707 357.007L119.907 356.989ZM121.288 358.6H104.511V361.4H121.288V358.6ZM105.911 360V332.773H103.111V360H105.911ZM104.511 334.173H121.288V331.373H104.511V334.173ZM119.888 332.773V335.775H122.688V332.773H119.888ZM121.288 334.375H108.197V337.175H121.288V334.375ZM106.797 335.775V344.819H109.597V335.775H106.797ZM108.197 346.219H118.799V343.419H108.197V346.219ZM117.399 344.819V347.707H120.199V344.819H117.399ZM118.799 346.307H108.197V349.107H118.799V346.307ZM106.797 347.707V356.998H109.597V347.707H106.797ZM108.197 358.398H121.307V355.598H108.197V358.398Z" fill="#005380" mask="url(#path-3-outside-2_2806_7)"/>
</svg>
