<svg width="35" height="32" viewBox="0 0 35 32" fill="none" xmlns="http://www.w3.org/2000/svg">
<rect x="10.2997" y="7.13086" width="8.88465" height="8.88465" transform="rotate(-45 10.2997 7.13086)" stroke="#0088CC" stroke-width="1.2"/>
<rect x="19.2578" y="7.12305" width="3.78598" height="3.78598" transform="rotate(135 19.2578 7.12305)" stroke="#0088CC" stroke-width="0.5"/>
<rect x="1.47548" y="15.9551" width="8.88465" height="8.88465" transform="rotate(-45 1.47548 15.9551)" stroke="#0088CC" stroke-width="1.2"/>
<rect x="10.4336" y="15.9473" width="3.78598" height="3.78598" transform="rotate(135 10.4336 15.9473)" stroke="#0088CC" stroke-width="0.5"/>
<rect x="10.2997" y="24.7793" width="8.88465" height="8.88465" transform="rotate(-45 10.2997 24.7793)" stroke="#0088CC" stroke-width="1.2"/>
<rect x="19.2578" y="24.7715" width="3.78598" height="3.78598" transform="rotate(135 19.2578 24.7715)" stroke="#0088CC" stroke-width="0.5"/>
<path d="M33.8506 14.8049C33.3273 14.8049 32.8855 15.1572 32.7475 15.6368H28.1549L26.8767 14.3587H29.9589C30.0969 14.8384 30.5388 15.1907 31.0621 15.1907C31.6954 15.1907 32.2106 14.6754 32.2106 14.042C32.2106 13.4087 31.6954 12.8933 31.0621 12.8933C30.5387 12.8933 30.0968 13.2456 29.9589 13.7253H26.2433L25.4008 12.8828L22.3301 15.9535L25.4008 19.0243L26.2433 18.1817H29.9588C30.0968 18.6613 30.5387 19.0136 31.0619 19.0136C31.6953 19.0136 32.2105 18.4983 32.2105 17.8649C32.2105 17.2316 31.6953 16.7164 31.0619 16.7164C30.5385 16.7164 30.0967 17.0686 29.9588 17.5482H26.8767L28.1548 16.2701H32.7474C32.8854 16.7498 33.3271 17.1019 33.8505 17.1019C34.4839 17.1019 34.9992 16.5867 34.9992 15.9534C34.9993 15.3201 34.484 14.8049 33.8506 14.8049ZM31.0622 13.5267C31.3463 13.5267 31.5772 13.7578 31.5772 14.0419C31.5772 14.3259 31.3463 14.5571 31.0622 14.5571C30.7781 14.5571 30.547 14.3259 30.547 14.0419C30.547 13.7578 30.7781 13.5267 31.0622 13.5267ZM31.0622 17.3499C31.3463 17.3499 31.5772 17.5809 31.5772 17.8649C31.5772 18.149 31.3463 18.3801 31.0622 18.3801C30.7781 18.3801 30.547 18.149 30.547 17.8649C30.547 17.5809 30.7781 17.3499 31.0622 17.3499ZM25.4009 18.1285L23.226 15.9535L25.4009 13.7786L27.5759 15.9535L25.4009 18.1285ZM33.8506 16.4686C33.5666 16.4686 33.3356 16.2376 33.3356 15.9535C33.3356 15.6695 33.5666 15.4383 33.8506 15.4383C34.1347 15.4383 34.3658 15.6695 34.3658 15.9535C34.3658 16.2375 34.1347 16.4686 33.8506 16.4686Z" fill="#0088CC"/>
<path d="M25.4041 22.3743L18.9825 15.9528L25.4041 9.53132L28.672 12.7992H27.9959L25.7577 10.5609L25.4041 10.2074L25.0506 10.5609L20.0121 15.5993L19.6586 15.9528L20.0121 16.3064L25.0506 21.3448L25.4041 21.6984L25.7577 21.3448L27.9959 19.1065H28.6719L25.4041 22.3743Z" stroke="#0088CC"/>
</svg>
