<svg width="515" height="392" viewBox="0 0 515 392" fill="none" xmlns="http://www.w3.org/2000/svg">
<path d="M180.232 68.5709C174.23 68.5709 169.165 72.6106 167.583 78.1103H114.921L100.264 63.4554H135.607C137.189 68.9551 142.256 72.9948 148.256 72.9948C155.518 72.9948 161.426 67.0858 161.426 59.8234C161.426 52.561 155.518 46.652 148.256 46.652C142.255 46.652 137.188 50.6917 135.607 56.1914H93.0001L83.34 46.5312L48.1289 81.7423L83.34 116.953L93.0001 107.292H135.605C137.188 112.791 142.255 116.831 148.255 116.831C155.517 116.831 161.424 110.922 161.424 103.66C161.424 96.3972 155.517 90.4898 148.255 90.4898C142.253 90.4898 137.186 94.5279 135.605 100.028H100.264L114.919 85.3727H167.581C169.163 90.8724 174.229 94.9106 180.23 94.9106C187.493 94.9106 193.402 89.0031 193.402 81.7407C193.403 74.4784 187.494 68.5709 180.232 68.5709ZM148.258 53.9144C151.515 53.9144 154.164 56.5647 154.164 59.8218C154.164 63.079 151.515 65.7293 148.258 65.7293C145 65.7293 142.35 63.079 142.35 59.8218C142.35 56.5647 145 53.9144 148.258 53.9144ZM148.258 97.7538C151.515 97.7538 154.164 100.402 154.164 103.66C154.164 106.917 151.515 109.567 148.258 109.567C145 109.567 142.35 106.917 142.35 103.66C142.35 100.402 145 97.7538 148.258 97.7538ZM83.3415 106.682L58.4023 81.7423L83.3415 56.803L108.281 81.7423L83.3415 106.682ZM180.232 87.6482C176.975 87.6482 174.326 84.9995 174.326 81.7423C174.326 78.4851 176.975 75.8349 180.232 75.8349C183.489 75.8349 186.139 78.4851 186.139 81.7423C186.139 84.9979 183.489 87.6482 180.232 87.6482Z" fill="#0088CC"/>
<path d="M134.657 112.171H110.69L83.3446 139.516L25.5701 81.7415L83.3446 23.9685L110.69 51.3135H134.658L83.3446 0L1.60156 81.7415L83.3446 163.483L134.657 112.171Z" fill="#0088CC"/>
<path d="M180.232 68.5709C174.23 68.5709 169.165 72.6106 167.583 78.1103H114.921L100.264 63.4554H135.607C137.189 68.9551 142.256 72.9948 148.256 72.9948C155.518 72.9948 161.426 67.0858 161.426 59.8234C161.426 52.561 155.518 46.652 148.256 46.652C142.255 46.652 137.188 50.6917 135.607 56.1914H93.0001L83.34 46.5312L48.1289 81.7423L83.34 116.953L93.0001 107.292H135.605C137.188 112.791 142.255 116.831 148.255 116.831C155.517 116.831 161.424 110.922 161.424 103.66C161.424 96.3972 155.517 90.4898 148.255 90.4898C142.253 90.4898 137.186 94.5279 135.605 100.028H100.264L114.919 85.3727H167.581C169.163 90.8724 174.229 94.9106 180.23 94.9106C187.493 94.9106 193.402 89.0031 193.402 81.7407C193.403 74.4784 187.494 68.5709 180.232 68.5709ZM148.258 53.9144C151.515 53.9144 154.164 56.5647 154.164 59.8218C154.164 63.079 151.515 65.7293 148.258 65.7293C145 65.7293 142.35 63.079 142.35 59.8218C142.35 56.5647 145 53.9144 148.258 53.9144ZM148.258 97.7538C151.515 97.7538 154.164 100.402 154.164 103.66C154.164 106.917 151.515 109.567 148.258 109.567C145 109.567 142.35 106.917 142.35 103.66C142.35 100.402 145 97.7538 148.258 97.7538ZM83.3415 106.682L58.4023 81.7423L83.3415 56.803L108.281 81.7423L83.3415 106.682ZM180.232 87.6482C176.975 87.6482 174.326 84.9995 174.326 81.7423C174.326 78.4851 176.975 75.8349 180.232 75.8349C183.489 75.8349 186.139 78.4851 186.139 81.7423C186.139 84.9979 183.489 87.6482 180.232 87.6482Z" fill="#0088CC"/>
<path d="M134.657 112.171H110.69L83.3446 139.516L25.5701 81.7415L83.3446 23.9685L110.69 51.3135H134.658L83.3446 0L1.60156 81.7415L83.3446 163.483L134.657 112.171Z" fill="#0088CC"/>
<path d="M276.735 126.674C276.735 131.957 280.291 136.415 285.132 137.808V184.161L272.233 197.062V165.953C277.073 164.56 280.629 160.101 280.629 154.819C280.629 148.427 275.428 143.227 269.036 143.227C262.643 143.227 257.442 148.427 257.442 154.819C257.442 160.102 260.998 164.562 265.839 165.953V203.456L257.336 211.958L288.329 242.951L319.321 211.958L310.817 203.456V165.955C315.658 164.562 319.214 160.102 319.214 154.821C319.214 148.428 314.013 143.229 307.62 143.229C301.228 143.229 296.028 148.428 296.028 154.821C296.028 160.103 299.583 164.563 304.423 165.955V197.062L291.524 184.163V137.81C296.365 136.417 299.919 131.958 299.919 126.676C299.919 120.283 294.72 115.082 288.327 115.082C281.935 115.081 276.735 120.282 276.735 126.674ZM263.835 154.818C263.835 151.951 266.167 149.62 269.034 149.62C271.901 149.62 274.234 151.951 274.234 154.818C274.234 157.685 271.901 160.018 269.034 160.018C266.167 160.018 263.835 157.685 263.835 154.818ZM302.422 154.818C302.422 151.951 304.753 149.62 307.62 149.62C310.487 149.62 312.82 151.951 312.82 154.818C312.82 157.685 310.487 160.018 307.62 160.018C304.753 160.018 302.422 157.685 302.422 154.818ZM310.28 211.957L288.329 233.909L266.377 211.957L288.329 190.006L310.28 211.957ZM293.527 126.674C293.527 129.541 291.196 131.873 288.329 131.873C285.462 131.873 283.129 129.541 283.129 126.674C283.129 123.807 285.462 121.475 288.329 121.475C291.194 121.475 293.527 123.807 293.527 126.674Z" fill="#0088CC"/>
<path d="M276.735 126.674C276.735 131.957 280.291 136.415 285.132 137.808V184.161L272.233 197.062V165.953C277.073 164.56 280.629 160.101 280.629 154.819C280.629 148.427 275.428 143.227 269.036 143.227C262.643 143.227 257.442 148.427 257.442 154.819C257.442 160.102 260.998 164.562 265.839 165.953V203.456L257.336 211.958L288.329 242.951L319.321 211.958L310.817 203.456V165.955C315.658 164.562 319.214 160.102 319.214 154.821C319.214 148.428 314.013 143.229 307.62 143.229C301.228 143.229 296.028 148.428 296.028 154.821C296.028 160.103 299.583 164.563 304.423 165.955V197.062L291.524 184.163V137.81C296.365 136.417 299.919 131.958 299.919 126.676C299.919 120.283 294.72 115.082 288.327 115.082C281.935 115.081 276.735 120.282 276.735 126.674ZM263.835 154.818C263.835 151.951 266.167 149.62 269.034 149.62C271.901 149.62 274.234 151.951 274.234 154.818C274.234 157.685 271.901 160.018 269.034 160.018C266.167 160.018 263.835 157.685 263.835 154.818ZM302.422 154.818C302.422 151.951 304.753 149.62 307.62 149.62C310.487 149.62 312.82 151.951 312.82 154.818C312.82 157.685 310.487 160.018 307.62 160.018C304.753 160.018 302.422 157.685 302.422 154.818ZM310.28 211.957L288.329 233.909L266.377 211.957L288.329 190.006L310.28 211.957ZM293.527 126.674C293.527 129.541 291.196 131.873 288.329 131.873C285.462 131.873 283.129 129.541 283.129 126.674C283.129 123.807 285.462 121.475 288.329 121.475C291.194 121.475 293.527 123.807 293.527 126.674Z" fill="#0088CC"/>
<path d="M299.925 295.292C299.925 290.01 296.369 285.551 291.528 284.159V237.806L304.428 224.905V256.014C299.587 257.406 296.031 261.866 296.031 267.147C296.031 273.54 301.232 278.739 307.624 278.739C314.017 278.739 319.218 273.54 319.218 267.147C319.218 261.865 315.662 257.405 310.821 256.014V218.511L319.324 210.008L288.332 179.016L257.339 210.008L265.843 218.511V256.012C261.002 257.405 257.446 261.865 257.446 267.146C257.446 273.538 262.648 278.738 269.04 278.738C275.432 278.738 280.632 273.538 280.632 267.146C280.632 261.863 277.078 257.404 272.237 256.012V224.905L285.136 237.804V284.157C280.295 285.55 276.741 290.008 276.741 295.291C276.741 301.683 281.941 306.884 288.333 306.884C294.725 306.886 299.925 301.685 299.925 295.292ZM312.826 267.149C312.826 270.016 310.493 272.347 307.626 272.347C304.759 272.347 302.426 270.016 302.426 267.149C302.426 264.282 304.759 261.949 307.626 261.949C310.493 261.949 312.826 264.282 312.826 267.149ZM274.238 267.149C274.238 270.016 271.907 272.347 269.04 272.347C266.173 272.347 263.84 270.016 263.84 267.149C263.84 264.282 266.173 261.949 269.04 261.949C271.907 261.949 274.238 264.282 274.238 267.149ZM266.38 210.01L288.332 188.058L310.283 210.01L288.332 231.961L266.38 210.01ZM283.133 295.292C283.133 292.425 285.465 290.094 288.332 290.094C291.198 290.094 293.531 292.425 293.531 295.292C293.531 298.159 291.198 300.492 288.332 300.492C285.466 300.492 283.133 298.159 283.133 295.292Z" fill="#0088CC"/>
<path d="M299.925 295.292C299.925 290.01 296.369 285.551 291.528 284.159V237.806L304.428 224.905V256.014C299.587 257.406 296.031 261.866 296.031 267.147C296.031 273.54 301.232 278.739 307.624 278.739C314.017 278.739 319.218 273.54 319.218 267.147C319.218 261.865 315.662 257.405 310.821 256.014V218.511L319.324 210.008L288.332 179.016L257.339 210.008L265.843 218.511V256.012C261.002 257.405 257.446 261.865 257.446 267.146C257.446 273.538 262.648 278.738 269.04 278.738C275.432 278.738 280.632 273.538 280.632 267.146C280.632 261.863 277.078 257.404 272.237 256.012V224.905L285.136 237.804V284.157C280.295 285.55 276.741 290.008 276.741 295.291C276.741 301.683 281.941 306.884 288.333 306.884C294.725 306.886 299.925 301.685 299.925 295.292ZM312.826 267.149C312.826 270.016 310.493 272.347 307.626 272.347C304.759 272.347 302.426 270.016 302.426 267.149C302.426 264.282 304.759 261.949 307.626 261.949C310.493 261.949 312.826 264.282 312.826 267.149ZM274.238 267.149C274.238 270.016 271.907 272.347 269.04 272.347C266.173 272.347 263.84 270.016 263.84 267.149C263.84 264.282 266.173 261.949 269.04 261.949C271.907 261.949 274.238 264.282 274.238 267.149ZM266.38 210.01L288.332 188.058L310.283 210.01L288.332 231.961L266.38 210.01ZM283.133 295.292C283.133 292.425 285.465 290.094 288.332 290.094C291.198 290.094 293.531 292.425 293.531 295.292C293.531 298.159 291.198 300.492 288.332 300.492C285.466 300.492 283.133 298.159 283.133 295.292Z" fill="#0088CC"/>
<path d="M11.1914 307.628V147.049L82.8982 213.957L151.847 147.049V307.628L82.8982 377.213L11.1914 307.628Z" stroke="#0088CC" stroke-width="21"/>
<path d="M496.869 379.5L416.68 239.816L373.229 329.274L397.499 379.5H496.869Z" stroke="#0088CC" stroke-width="21"/>
<path d="M398.503 23.2871L352.881 161.524V285.379L360.531 301.798L498.106 23.2871H398.503Z" stroke="#0088CC" stroke-width="21"/>
<rect x="242.268" y="23.2871" width="87.6885" height="356.213" stroke="#0088CC" stroke-width="21"/>
</svg>
