<svg width="515" height="392" viewBox="0 0 515 392" fill="none" xmlns="http://www.w3.org/2000/svg">
<path d="M180.232 68.5716C174.23 68.5716 169.165 72.6113 167.583 78.1111H114.921L100.264 63.4561H135.607C137.189 68.9558 142.256 72.9955 148.256 72.9955C155.518 72.9955 161.426 67.0865 161.426 59.8241C161.426 52.5617 155.518 46.6527 148.256 46.6527C142.255 46.6527 137.188 50.6924 135.607 56.1922H93.0001L83.34 46.532L48.1289 81.743L83.34 116.954L93.0001 107.292H135.605C137.188 112.792 142.255 116.832 148.255 116.832C155.517 116.832 161.424 110.923 161.424 103.66C161.424 96.398 155.517 90.4905 148.255 90.4905C142.253 90.4905 137.186 94.5287 135.605 100.028H100.264L114.919 85.3734H167.581C169.163 90.8732 174.229 94.9113 180.23 94.9113C187.493 94.9113 193.402 89.0039 193.402 81.7415C193.403 74.4791 187.494 68.5716 180.232 68.5716ZM148.258 53.9151C151.515 53.9151 154.164 56.5654 154.164 59.8226C154.164 63.0797 151.515 65.73 148.258 65.73C145 65.73 142.35 63.0797 142.35 59.8226C142.35 56.5654 145 53.9151 148.258 53.9151ZM148.258 97.7545C151.515 97.7545 154.164 100.403 154.164 103.66C154.164 106.918 151.515 109.568 148.258 109.568C145 109.568 142.35 106.918 142.35 103.66C142.35 100.403 145 97.7545 148.258 97.7545ZM83.3415 106.682L58.4023 81.743L83.3415 56.8038L108.281 81.743L83.3415 106.682ZM180.232 87.6489C176.975 87.6489 174.326 85.0002 174.326 81.743C174.326 78.4859 176.975 75.8356 180.232 75.8356C183.489 75.8356 186.139 78.4859 186.139 81.743C186.139 84.9986 183.489 87.6489 180.232 87.6489Z" fill="url(#paint0_linear_2442_2104)"/>
<path d="M134.657 112.171H110.69L83.3446 139.516L25.5701 81.7415L83.3446 23.9685L110.69 51.3135H134.658L83.3446 0L1.60156 81.7415L83.3446 163.483L134.657 112.171Z" fill="url(#paint1_linear_2442_2104)"/>
<path d="M180.232 68.5716C174.23 68.5716 169.165 72.6113 167.583 78.1111H114.921L100.264 63.4561H135.607C137.189 68.9558 142.256 72.9955 148.256 72.9955C155.518 72.9955 161.426 67.0865 161.426 59.8241C161.426 52.5617 155.518 46.6527 148.256 46.6527C142.255 46.6527 137.188 50.6924 135.607 56.1922H93.0001L83.34 46.532L48.1289 81.743L83.34 116.954L93.0001 107.292H135.605C137.188 112.792 142.255 116.832 148.255 116.832C155.517 116.832 161.424 110.923 161.424 103.66C161.424 96.398 155.517 90.4905 148.255 90.4905C142.253 90.4905 137.186 94.5287 135.605 100.028H100.264L114.919 85.3734H167.581C169.163 90.8732 174.229 94.9113 180.23 94.9113C187.493 94.9113 193.402 89.0039 193.402 81.7415C193.403 74.4791 187.494 68.5716 180.232 68.5716ZM148.258 53.9151C151.515 53.9151 154.164 56.5654 154.164 59.8226C154.164 63.0797 151.515 65.73 148.258 65.73C145 65.73 142.35 63.0797 142.35 59.8226C142.35 56.5654 145 53.9151 148.258 53.9151ZM148.258 97.7545C151.515 97.7545 154.164 100.403 154.164 103.66C154.164 106.918 151.515 109.568 148.258 109.568C145 109.568 142.35 106.918 142.35 103.66C142.35 100.403 145 97.7545 148.258 97.7545ZM83.3415 106.682L58.4023 81.743L83.3415 56.8038L108.281 81.743L83.3415 106.682ZM180.232 87.6489C176.975 87.6489 174.326 85.0002 174.326 81.743C174.326 78.4859 176.975 75.8356 180.232 75.8356C183.489 75.8356 186.139 78.4859 186.139 81.743C186.139 84.9986 183.489 87.6489 180.232 87.6489Z" fill="url(#paint2_linear_2442_2104)"/>
<path d="M134.657 112.171H110.69L83.3446 139.516L25.5701 81.7415L83.3446 23.9685L110.69 51.3135H134.658L83.3446 0L1.60156 81.7415L83.3446 163.483L134.657 112.171Z" fill="url(#paint3_linear_2442_2104)"/>
<path d="M276.735 126.674C276.735 131.957 280.291 136.415 285.132 137.808V184.161L272.233 197.062V165.953C277.073 164.56 280.629 160.1 280.629 154.819C280.629 148.427 275.428 143.227 269.036 143.227C262.643 143.227 257.442 148.427 257.442 154.819C257.442 160.102 260.998 164.562 265.839 165.953V203.455L257.336 211.958L288.329 242.951L319.321 211.958L310.817 203.455V165.954C315.658 164.562 319.214 160.102 319.214 154.82C319.214 148.428 314.013 143.228 307.62 143.228C301.228 143.228 296.028 148.428 296.028 154.82C296.028 160.103 299.583 164.563 304.423 165.954V197.062L291.524 184.162V137.809C296.365 136.416 299.919 131.958 299.919 126.675C299.919 120.283 294.72 115.082 288.327 115.082C281.935 115.081 276.735 120.282 276.735 126.674ZM263.835 154.818C263.835 151.951 266.167 149.619 269.034 149.619C271.901 149.619 274.234 151.951 274.234 154.818C274.234 157.685 271.901 160.017 269.034 160.017C266.167 160.017 263.835 157.685 263.835 154.818ZM302.422 154.818C302.422 151.951 304.753 149.619 307.62 149.619C310.487 149.619 312.82 151.951 312.82 154.818C312.82 157.685 310.487 160.017 307.62 160.017C304.753 160.017 302.422 157.685 302.422 154.818ZM310.28 211.957L288.329 233.908L266.377 211.957L288.329 190.005L310.28 211.957ZM293.527 126.674C293.527 129.541 291.196 131.872 288.329 131.872C285.462 131.872 283.129 129.541 283.129 126.674C283.129 123.807 285.462 121.474 288.329 121.474C291.194 121.474 293.527 123.807 293.527 126.674Z" fill="url(#paint4_linear_2442_2104)"/>
<path d="M276.735 126.674C276.735 131.957 280.291 136.415 285.132 137.808V184.161L272.233 197.062V165.953C277.073 164.56 280.629 160.1 280.629 154.819C280.629 148.427 275.428 143.227 269.036 143.227C262.643 143.227 257.442 148.427 257.442 154.819C257.442 160.102 260.998 164.562 265.839 165.953V203.455L257.336 211.958L288.329 242.951L319.321 211.958L310.817 203.455V165.954C315.658 164.562 319.214 160.102 319.214 154.82C319.214 148.428 314.013 143.228 307.62 143.228C301.228 143.228 296.028 148.428 296.028 154.82C296.028 160.103 299.583 164.563 304.423 165.954V197.062L291.524 184.162V137.809C296.365 136.416 299.919 131.958 299.919 126.675C299.919 120.283 294.72 115.082 288.327 115.082C281.935 115.081 276.735 120.282 276.735 126.674ZM263.835 154.818C263.835 151.951 266.167 149.619 269.034 149.619C271.901 149.619 274.234 151.951 274.234 154.818C274.234 157.685 271.901 160.017 269.034 160.017C266.167 160.017 263.835 157.685 263.835 154.818ZM302.422 154.818C302.422 151.951 304.753 149.619 307.62 149.619C310.487 149.619 312.82 151.951 312.82 154.818C312.82 157.685 310.487 160.017 307.62 160.017C304.753 160.017 302.422 157.685 302.422 154.818ZM310.28 211.957L288.329 233.908L266.377 211.957L288.329 190.005L310.28 211.957ZM293.527 126.674C293.527 129.541 291.196 131.872 288.329 131.872C285.462 131.872 283.129 129.541 283.129 126.674C283.129 123.807 285.462 121.474 288.329 121.474C291.194 121.474 293.527 123.807 293.527 126.674Z" fill="url(#paint5_linear_2442_2104)"/>
<path d="M299.925 295.293C299.925 290.011 296.369 285.552 291.528 284.159V237.806L304.428 224.906V256.014C299.587 257.407 296.031 261.867 296.031 267.148C296.031 273.54 301.232 278.74 307.624 278.74C314.017 278.74 319.218 273.54 319.218 267.148C319.218 261.866 315.662 257.406 310.821 256.014V218.512L319.324 210.009L288.332 179.016L257.339 210.009L265.843 218.512V256.013C261.002 257.406 257.446 261.866 257.446 267.147C257.446 273.539 262.648 278.739 269.04 278.739C275.432 278.739 280.632 273.539 280.632 267.147C280.632 261.864 277.078 257.404 272.237 256.013V224.906L285.136 237.805V284.158C280.295 285.551 276.741 290.009 276.741 295.292C276.741 301.684 281.941 306.885 288.333 306.885C294.725 306.887 299.925 301.686 299.925 295.293ZM312.826 267.149C312.826 270.016 310.493 272.348 307.626 272.348C304.759 272.348 302.426 270.016 302.426 267.149C302.426 264.283 304.759 261.95 307.626 261.95C310.493 261.95 312.826 264.283 312.826 267.149ZM274.238 267.149C274.238 270.016 271.907 272.348 269.04 272.348C266.173 272.348 263.84 270.016 263.84 267.149C263.84 264.283 266.173 261.95 269.04 261.95C271.907 261.95 274.238 264.283 274.238 267.149ZM266.38 210.01L288.332 188.059L310.283 210.01L288.332 231.962L266.38 210.01ZM283.133 295.293C283.133 292.426 285.465 290.095 288.332 290.095C291.198 290.095 293.531 292.426 293.531 295.293C293.531 298.16 291.198 300.493 288.332 300.493C285.466 300.493 283.133 298.16 283.133 295.293Z" fill="url(#paint6_linear_2442_2104)"/>
<path d="M299.925 295.293C299.925 290.011 296.369 285.552 291.528 284.159V237.806L304.428 224.906V256.014C299.587 257.407 296.031 261.867 296.031 267.148C296.031 273.54 301.232 278.74 307.624 278.74C314.017 278.74 319.218 273.54 319.218 267.148C319.218 261.866 315.662 257.406 310.821 256.014V218.512L319.324 210.009L288.332 179.016L257.339 210.009L265.843 218.512V256.013C261.002 257.406 257.446 261.866 257.446 267.147C257.446 273.539 262.648 278.739 269.04 278.739C275.432 278.739 280.632 273.539 280.632 267.147C280.632 261.864 277.078 257.404 272.237 256.013V224.906L285.136 237.805V284.158C280.295 285.551 276.741 290.009 276.741 295.292C276.741 301.684 281.941 306.885 288.333 306.885C294.725 306.887 299.925 301.686 299.925 295.293ZM312.826 267.149C312.826 270.016 310.493 272.348 307.626 272.348C304.759 272.348 302.426 270.016 302.426 267.149C302.426 264.283 304.759 261.95 307.626 261.95C310.493 261.95 312.826 264.283 312.826 267.149ZM274.238 267.149C274.238 270.016 271.907 272.348 269.04 272.348C266.173 272.348 263.84 270.016 263.84 267.149C263.84 264.283 266.173 261.95 269.04 261.95C271.907 261.95 274.238 264.283 274.238 267.149ZM266.38 210.01L288.332 188.059L310.283 210.01L288.332 231.962L266.38 210.01ZM283.133 295.293C283.133 292.426 285.465 290.095 288.332 290.095C291.198 290.095 293.531 292.426 293.531 295.293C293.531 298.16 291.198 300.493 288.332 300.493C285.466 300.493 283.133 298.16 283.133 295.293Z" fill="url(#paint7_linear_2442_2104)"/>
<path d="M11.1914 307.629V147.049L82.8982 213.957L151.847 147.049V307.629L82.8982 377.213L11.1914 307.629Z" stroke="#015C8E" stroke-width="21"/>
<path d="M496.869 379.5L416.68 239.816L373.229 329.274L397.499 379.5H496.869Z" stroke="url(#paint8_linear_2442_2104)" stroke-width="21"/>
<path d="M398.503 23.2868L352.881 161.524V285.379L360.531 301.797L498.106 23.2868H398.503Z" stroke="url(#paint9_linear_2442_2104)" stroke-width="21"/>
<rect x="242.268" y="23.2868" width="87.6885" height="356.213" stroke="url(#paint10_linear_2442_2104)" stroke-width="21"/>
<defs>
<linearGradient id="paint0_linear_2442_2104" x1="48.1303" y1="81.7421" x2="193.403" y2="81.7421" gradientUnits="userSpaceOnUse">
<stop stop-color="#EC5200"/>
<stop offset="1" stop-color="#7F2D00"/>
</linearGradient>
<linearGradient id="paint1_linear_2442_2104" x1="120.608" y1="10.9267" x2="36.956" y2="148.06" gradientUnits="userSpaceOnUse">
<stop stop-color="#009AEC"/>
<stop offset="1" stop-color="#005380"/>
</linearGradient>
<linearGradient id="paint2_linear_2442_2104" x1="48.1303" y1="81.7421" x2="193.403" y2="81.7421" gradientUnits="userSpaceOnUse">
<stop stop-color="#EC5200"/>
<stop offset="1" stop-color="#7F2D00"/>
</linearGradient>
<linearGradient id="paint3_linear_2442_2104" x1="120.608" y1="10.9267" x2="36.956" y2="148.06" gradientUnits="userSpaceOnUse">
<stop stop-color="#009AEC"/>
<stop offset="1" stop-color="#005380"/>
</linearGradient>
<linearGradient id="paint4_linear_2442_2104" x1="288.328" y1="242.95" x2="288.328" y2="115.081" gradientUnits="userSpaceOnUse">
<stop stop-color="#EC5200"/>
<stop offset="1" stop-color="#7F2D00"/>
</linearGradient>
<linearGradient id="paint5_linear_2442_2104" x1="288.328" y1="242.95" x2="288.328" y2="115.081" gradientUnits="userSpaceOnUse">
<stop stop-color="#EC5200"/>
<stop offset="1" stop-color="#7F2D00"/>
</linearGradient>
<linearGradient id="paint6_linear_2442_2104" x1="288.332" y1="179.018" x2="288.332" y2="306.886" gradientUnits="userSpaceOnUse">
<stop stop-color="#EC5200"/>
<stop offset="1" stop-color="#7F2D00"/>
</linearGradient>
<linearGradient id="paint7_linear_2442_2104" x1="288.332" y1="179.018" x2="288.332" y2="306.886" gradientUnits="userSpaceOnUse">
<stop stop-color="#EC5200"/>
<stop offset="1" stop-color="#7F2D00"/>
</linearGradient>
<linearGradient id="paint8_linear_2442_2104" x1="438.283" y1="217.377" x2="438.283" y2="390" gradientUnits="userSpaceOnUse">
<stop stop-color="#009AEC"/>
<stop offset="1" stop-color="#005380"/>
</linearGradient>
<linearGradient id="paint9_linear_2442_2104" x1="428.692" y1="12.7868" x2="428.692" y2="326.065" gradientUnits="userSpaceOnUse">
<stop stop-color="#009AEC"/>
<stop offset="1" stop-color="#005380"/>
</linearGradient>
<linearGradient id="paint10_linear_2442_2104" x1="286.112" y1="12.7868" x2="286.112" y2="390" gradientUnits="userSpaceOnUse">
<stop stop-color="#009AEC"/>
<stop offset="1" stop-color="#005380"/>
</linearGradient>
</defs>
</svg>
