<svg width="220" height="220" viewBox="0 0 220 220" fill="none" xmlns="http://www.w3.org/2000/svg">
<path d="M219.995 27.805C220.1 21.5676 217.841 15.8162 213.636 11.611C211.354 9.32964 207.655 9.32964 205.373 11.6113C203.092 13.893 203.092 17.592 205.373 19.8734C207.32 21.8194 208.363 24.5667 208.313 27.6096C208.264 30.5126 207.165 33.3157 205.373 35.1078C201.656 38.8249 164.604 71.3545 135.666 96.6653L128.573 89.5734C149.699 65.4022 175.915 35.5144 186.169 24.1659L188.502 26.499C190.784 28.7807 194.483 28.781 196.764 26.4996C199.046 24.2182 199.046 20.5192 196.765 18.2375L190.14 11.6116C189.044 10.5159 187.558 9.90013 186.009 9.90013H186.008C184.459 9.90013 182.973 10.5156 181.877 11.611C178.322 15.166 156.575 39.8654 136.953 62.2574C131.676 54.2702 124.628 47.3992 116.244 42.1248C103.99 34.4158 89.7042 30.507 73.7822 30.507C70.2795 30.507 66.8142 30.7279 63.4833 31.164C60.2838 31.5829 58.0299 34.5157 58.4485 37.7151C58.8674 40.9143 61.7999 43.1683 64.9993 42.7497C67.8296 42.3793 70.7846 42.1914 73.7819 42.1914C98.0253 42.1914 118.361 53.0603 128.907 71.4451C119.067 82.6899 110.612 92.3751 106.534 97.0482C99.2557 98.0399 93.8245 101.019 89.9949 106.126C86.4344 110.875 84.8736 116.547 83.2214 122.551C81.2292 129.792 79.1693 137.279 73.2947 143.153C71.6235 144.824 71.1237 147.336 72.0281 149.52C72.9325 151.703 75.0628 153.126 77.4257 153.126C93.1485 153.126 105.61 149.775 114.465 143.166C122.445 137.209 127.201 128.753 128.326 118.598C143.379 105.451 208.237 48.7686 213.635 43.3698C217.578 39.4278 219.896 33.7544 219.995 27.805ZM126.849 104.373C125.094 105.907 123.392 107.394 121.755 108.823L116.421 103.489C117.849 101.853 119.335 100.15 120.869 98.3934L126.849 104.373ZM107.476 133.802C102.88 137.233 96.7645 139.519 89.2161 140.638C91.7846 135.474 93.2256 130.237 94.4873 125.651C97.1951 115.81 98.8444 110.871 105.517 109.109L116.304 119.896C115.116 125.638 112.161 130.305 107.476 133.802Z" fill="#0285CC"/>
<path d="M45.2427 48.3746C46.0937 48.3746 46.958 48.1877 47.7757 47.7936C48.3001 47.5406 48.8387 47.292 49.3762 47.0551C52.3281 45.7519 53.6649 42.3025 52.3617 39.3506C51.0586 36.399 47.6095 35.0623 44.6573 36.3651C44.0009 36.6549 43.3427 36.9587 42.7009 37.2681C39.7946 38.6694 38.5744 42.1617 39.9754 45.0681C40.9827 47.1568 43.0693 48.3746 45.2427 48.3746Z" fill="#0285CC"/>
<path d="M87.4598 159.618C84.2364 159.587 81.5887 162.168 81.5521 165.394C81.3001 187.854 77.9095 197.873 58.486 197.873C47.5973 197.873 36.1699 189.908 27.1344 176.02C17.1714 160.705 11.6844 140.822 11.6844 120.033C11.6844 93.044 19.8343 70.5878 34.6329 56.8013C36.9937 54.602 37.1246 50.9051 34.9253 48.5443C32.726 46.1834 29.029 46.0526 26.6682 48.2519C17.9513 56.3728 11.2068 66.9244 6.62155 79.6137C2.22763 91.773 0 105.372 0 120.033C0 143.057 6.15856 165.204 17.3405 182.391C28.5725 199.656 43.5697 209.558 58.486 209.558C72.7529 209.558 82.6966 204.537 88.0402 194.636C92.6281 186.135 93.1276 175.152 93.2357 165.526C93.2719 162.299 90.6861 159.654 87.4598 159.618Z" fill="#0285CC"/>
<path d="M116.207 73.0975C116.207 62.3654 107.476 53.634 96.7435 53.634C86.011 53.634 77.2793 62.3654 77.2793 73.0975C77.2793 83.83 86.011 92.5617 96.7435 92.5617C107.476 92.5614 116.207 83.83 116.207 73.0975ZM88.9637 73.0975C88.9637 68.8079 92.4535 65.3184 96.7435 65.3184C101.033 65.3184 104.523 68.8079 104.523 73.0975C104.523 77.3875 101.033 80.8773 96.7435 80.8773C92.4535 80.877 88.9637 77.3872 88.9637 73.0975Z" fill="#0285CC"/>
<path d="M50.3584 99.5567C61.0908 99.5567 69.8223 90.8253 69.8223 80.0931C69.8223 69.3607 61.0908 60.6293 50.3584 60.6293C39.626 60.6293 30.8945 69.3607 30.8945 80.0931C30.8945 90.8253 39.626 99.5567 50.3584 99.5567ZM50.3584 72.3137C54.648 72.3137 58.1379 75.8035 58.1379 80.0931C58.1379 84.3828 54.648 87.8723 50.3584 87.8723C46.0688 87.8723 42.5789 84.3828 42.5789 80.0931C42.5789 75.8035 46.0691 72.3137 50.3584 72.3137Z" fill="#0285CC"/>
<path d="M54.9121 124.813C54.9121 114.081 46.1807 105.349 35.4482 105.349C24.7158 105.349 15.9844 114.081 15.9844 124.813C15.9844 135.545 24.7158 144.277 35.4482 144.277C46.1807 144.277 54.9121 135.545 54.9121 124.813ZM35.4482 132.592C31.1586 132.592 27.6688 129.103 27.6688 124.813C27.6688 120.523 31.1586 117.033 35.4482 117.033C39.7379 117.033 43.2277 120.523 43.2277 124.813C43.2277 129.102 39.7379 132.592 35.4482 132.592Z" fill="#0285CC"/>
<path d="M55.8991 189.818C66.6315 189.818 75.3633 181.087 75.3633 170.355C75.3633 159.623 66.6315 150.891 55.8991 150.891C45.167 150.891 36.4355 159.623 36.4355 170.355C36.4355 181.087 45.167 189.818 55.8991 189.818ZM55.8991 162.576C60.1891 162.576 63.6789 166.065 63.6789 170.355C63.6789 174.644 60.1891 178.134 55.8991 178.134C51.6098 178.134 48.1199 174.644 48.1199 170.355C48.1199 166.065 51.6098 162.576 55.8991 162.576Z" fill="#0285CC"/>
</svg>
