<svg width="108" height="108" viewBox="0 0 108 108" fill="none" xmlns="http://www.w3.org/2000/svg">
<path d="M53.8926 11.3333C31.8002 11.3333 13.8926 29.2409 13.8926 51.3333C13.8926 73.4256 31.8002 91.3333 53.8926 91.3333C75.9849 91.3333 93.8926 73.4256 93.8926 51.3333C93.8926 29.2409 75.9849 11.3333 53.8926 11.3333ZM53.8926 85.0833C35.2524 85.0833 20.1426 69.9734 20.1426 51.3333C20.1426 32.6931 35.2524 17.5833 53.8926 17.5833C72.5327 17.5833 87.6426 32.6931 87.6426 51.3333C87.6426 69.9734 72.5327 85.0833 53.8926 85.0833Z" fill="#0285CC"/>
<path fill-rule="evenodd" clip-rule="evenodd" d="M64.4395 44.5298H56.7084V38.8875C56.7084 37.1567 58.4987 36.7554 59.3342 36.7554C60.1643 36.7554 64.3283 36.7554 64.3283 36.7554V29.1409L58.6046 29.1111C50.7948 29.1111 49.0125 34.7887 49.0125 38.4291V44.53H43.3457V52.375H49.0125C49.0125 62.4472 49.0125 73.5555 49.0125 73.5555H56.7084C56.7084 73.5555 56.7084 62.3331 56.7084 52.375H63.2459L64.4395 44.5298Z" fill="#0285CC"/>
</svg>
