<svg width="30" height="30" viewBox="0 0 30 30" fill="none" xmlns="http://www.w3.org/2000/svg">
<path d="M2.26382 12.1593C2.61543 11.8078 3.09226 11.6104 3.58944 11.6104C4.08663 11.6104 4.56345 11.8078 4.91507 12.1593L11.5451 18.7893L24.8013 5.5312C24.9754 5.35699 25.1821 5.21878 25.4096 5.12445C25.6371 5.03013 25.8809 4.98153 26.1272 4.98145C26.3735 4.98136 26.6174 5.02978 26.8449 5.12395C27.0725 5.21811 27.2793 5.35618 27.4535 5.53026C27.6277 5.70435 27.7659 5.91104 27.8603 6.13854C27.9546 6.36603 28.0032 6.60988 28.0033 6.85616C28.0033 7.10244 27.9549 7.34633 27.8608 7.57389C27.7666 7.80145 27.6285 8.00824 27.4544 8.18245L11.5451 24.0918L2.26382 14.8106C1.91231 14.459 1.71484 13.9821 1.71484 13.485C1.71484 12.9878 1.91231 12.5109 2.26382 12.1593Z" fill="#EC5200"/>
</svg>
