<svg width="30" height="30" viewBox="0 0 30 30" fill="none" xmlns="http://www.w3.org/2000/svg">
<g clip-path="url(#clip0_2485_5158)">
<path d="M17.8125 8.20488C16.2129 7.27959 14.3557 6.75 12.375 6.75C6.3689 6.75 1.5 11.6189 1.5 17.625C1.5 19.3646 1.90848 21.0089 2.63477 22.4671C2.82777 22.8545 2.89201 23.2975 2.78011 23.7157L2.13239 26.1365C1.85121 27.1874 2.81263 28.1487 3.86352 27.8676L6.28433 27.2199C6.70253 27.108 7.14544 27.1723 7.53293 27.3652C8.99109 28.0915 10.6353 28.5 12.375 28.5C18.3811 28.5 23.25 23.6311 23.25 17.625C23.25 15.6443 22.7204 13.7871 21.7951 12.1875" stroke="#0285CC" stroke-width="2" stroke-linecap="round"/>
<path d="M23.22 18.75C23.3078 18.7118 23.3948 18.672 23.481 18.6309C23.9589 18.4027 24.4953 18.3173 25.0028 18.4593L25.6312 18.6351C26.9068 18.9917 28.0736 17.772 27.7324 16.4387L27.5643 15.7818C27.4284 15.2512 27.5101 14.6906 27.7285 14.191C28.2239 13.0572 28.5 11.7967 28.5 10.4687C28.5 8.71073 28.0161 7.07088 27.18 5.68674M12 7.01313C13.2944 3.77528 16.353 1.5 19.92 1.5C21.621 1.5 23.2064 2.01743 24.54 2.90991" stroke="#0285CC" stroke-width="2" stroke-linecap="round"/>
<path d="M7.5 18H7.51255M12.3685 18H12.3811M17.2374 18H17.25" stroke="#0285CC" stroke-width="3" stroke-linecap="round" stroke-linejoin="round"/>
</g>
<defs>
<clipPath id="clip0_2485_5158">
<rect width="30" height="30" fill="white"/>
</clipPath>
</defs>
</svg>
