<svg width="16" height="16" viewBox="0 0 16 16" fill="none" xmlns="http://www.w3.org/2000/svg">
<g clip-path="url(#clip0_3617_381)">
<path d="M8.57332 5.94756C8.57332 6.11219 8.68413 6.25114 8.835 6.29455V7.73912L8.433 8.14117V7.17168C8.58386 7.12827 8.69467 6.98928 8.69467 6.82469C8.69467 6.62548 8.53258 6.46343 8.33337 6.46343C8.13415 6.46343 7.97206 6.62548 7.97206 6.82469C7.97206 6.98932 8.08288 7.12831 8.23374 7.17168V8.34042L7.96875 8.60541L8.93463 9.57129L9.9005 8.60541L9.63547 8.34042V7.17172C9.78633 7.12831 9.89715 6.98932 9.89715 6.82474C9.89715 6.62552 9.73506 6.46348 9.53584 6.46348C9.33663 6.46348 9.17458 6.62552 9.17458 6.82474C9.17458 6.98937 9.28535 7.12836 9.43621 7.17172V8.14117L9.03421 7.73917V6.29459C9.18508 6.25118 9.29585 6.11224 9.29585 5.94761C9.29585 5.74839 9.1338 5.5863 8.93458 5.5863C8.73537 5.58626 8.57332 5.74835 8.57332 5.94756ZM8.17128 6.82465C8.17128 6.7353 8.24398 6.66265 8.33332 6.66265C8.42267 6.66265 8.49537 6.7353 8.49537 6.82465C8.49537 6.914 8.42267 6.9867 8.33332 6.9867C8.24398 6.9867 8.17128 6.914 8.17128 6.82465ZM9.37384 6.82465C9.37384 6.7353 9.44649 6.66265 9.53584 6.66265C9.62519 6.66265 9.69789 6.7353 9.69789 6.82465C9.69789 6.914 9.62519 6.9867 9.53584 6.9867C9.44649 6.9867 9.37384 6.914 9.37384 6.82465ZM9.61874 8.60537L8.93463 9.28948L8.25052 8.60537L8.93463 7.92126L9.61874 8.60537ZM9.09663 5.94756C9.09663 6.03691 9.02397 6.10957 8.93463 6.10957C8.84528 6.10957 8.77258 6.03691 8.77258 5.94756C8.77258 5.85822 8.84528 5.78552 8.93463 5.78552C9.02393 5.78552 9.09663 5.85822 9.09663 5.94756Z" fill="#0088CC"/>
<path d="M8.57332 5.94756C8.57332 6.11219 8.68413 6.25114 8.835 6.29455V7.73912L8.433 8.14117V7.17168C8.58386 7.12827 8.69467 6.98928 8.69467 6.82469C8.69467 6.62548 8.53258 6.46343 8.33337 6.46343C8.13415 6.46343 7.97206 6.62548 7.97206 6.82469C7.97206 6.98932 8.08288 7.12831 8.23374 7.17168V8.34042L7.96875 8.60541L8.93463 9.57129L9.9005 8.60541L9.63547 8.34042V7.17172C9.78633 7.12831 9.89715 6.98932 9.89715 6.82474C9.89715 6.62552 9.73506 6.46348 9.53584 6.46348C9.33663 6.46348 9.17458 6.62552 9.17458 6.82474C9.17458 6.98937 9.28535 7.12836 9.43621 7.17172V8.14117L9.03421 7.73917V6.29459C9.18508 6.25118 9.29585 6.11224 9.29585 5.94761C9.29585 5.74839 9.1338 5.5863 8.93458 5.5863C8.73537 5.58626 8.57332 5.74835 8.57332 5.94756ZM8.17128 6.82465C8.17128 6.7353 8.24398 6.66265 8.33332 6.66265C8.42267 6.66265 8.49537 6.7353 8.49537 6.82465C8.49537 6.914 8.42267 6.9867 8.33332 6.9867C8.24398 6.9867 8.17128 6.914 8.17128 6.82465ZM9.37384 6.82465C9.37384 6.7353 9.44649 6.66265 9.53584 6.66265C9.62519 6.66265 9.69789 6.7353 9.69789 6.82465C9.69789 6.914 9.62519 6.9867 9.53584 6.9867C9.44649 6.9867 9.37384 6.914 9.37384 6.82465ZM9.61874 8.60537L8.93463 9.28948L8.25052 8.60537L8.93463 7.92126L9.61874 8.60537ZM9.09663 5.94756C9.09663 6.03691 9.02397 6.10957 8.93463 6.10957C8.84528 6.10957 8.77258 6.03691 8.77258 5.94756C8.77258 5.85822 8.84528 5.78552 8.93463 5.78552C9.02393 5.78552 9.09663 5.85822 9.09663 5.94756Z" fill="#0088CC"/>
<path d="M9.29777 11.2028C9.29777 11.0382 9.18696 10.8993 9.0361 10.8558V9.41127L9.4381 9.00923V9.97871C9.28723 10.0221 9.17642 10.1611 9.17642 10.3257C9.17642 10.5249 9.33851 10.687 9.53773 10.687C9.73694 10.687 9.89903 10.5249 9.89903 10.3257C9.89903 10.1611 9.78822 10.0221 9.63735 9.97871V8.80997L9.90234 8.54498L8.93647 7.5791L7.97059 8.54498L8.23562 8.80997V9.97867C8.08476 10.0221 7.97395 10.1611 7.97395 10.3257C7.97395 10.5249 8.13604 10.6869 8.33525 10.6869C8.53447 10.6869 8.69651 10.5249 8.69651 10.3257C8.69651 10.161 8.58574 10.022 8.43488 9.97867V9.00923L8.83688 9.41123V10.8558C8.68602 10.8992 8.57525 11.0382 8.57525 11.2028C8.57525 11.402 8.7373 11.5641 8.93651 11.5641C9.13573 11.5641 9.29777 11.402 9.29777 11.2028ZM9.69982 10.3257C9.69982 10.4151 9.62712 10.4877 9.53777 10.4877C9.44842 10.4877 9.37572 10.4151 9.37572 10.3257C9.37572 10.2364 9.44842 10.1637 9.53777 10.1637C9.62712 10.1637 9.69982 10.2364 9.69982 10.3257ZM8.49726 10.3257C8.49726 10.4151 8.4246 10.4877 8.33525 10.4877C8.2459 10.4877 8.1732 10.4151 8.1732 10.3257C8.1732 10.2364 8.2459 10.1637 8.33525 10.1637C8.4246 10.1637 8.49726 10.2364 8.49726 10.3257ZM8.25236 8.54502L8.93647 7.86091L9.62058 8.54502L8.93647 9.22913L8.25236 8.54502ZM8.77446 11.2028C8.77446 11.1135 8.84712 11.0408 8.93647 11.0408C9.02582 11.0408 9.09852 11.1135 9.09852 11.2028C9.09852 11.2922 9.02582 11.3649 8.93647 11.3649C8.84716 11.3649 8.77446 11.2922 8.77446 11.2028Z" fill="#0088CC"/>
<path d="M9.29777 11.2028C9.29777 11.0382 9.18696 10.8993 9.0361 10.8558V9.41127L9.4381 9.00923V9.97871C9.28723 10.0221 9.17642 10.1611 9.17642 10.3257C9.17642 10.5249 9.33851 10.687 9.53773 10.687C9.73694 10.687 9.89903 10.5249 9.89903 10.3257C9.89903 10.1611 9.78822 10.0221 9.63735 9.97871V8.80997L9.90234 8.54498L8.93647 7.5791L7.97059 8.54498L8.23562 8.80997V9.97867C8.08476 10.0221 7.97395 10.1611 7.97395 10.3257C7.97395 10.5249 8.13604 10.6869 8.33525 10.6869C8.53447 10.6869 8.69651 10.5249 8.69651 10.3257C8.69651 10.161 8.58574 10.022 8.43488 9.97867V9.00923L8.83688 9.41123V10.8558C8.68602 10.8992 8.57525 11.0382 8.57525 11.2028C8.57525 11.402 8.7373 11.5641 8.93651 11.5641C9.13573 11.5641 9.29777 11.402 9.29777 11.2028ZM9.69982 10.3257C9.69982 10.4151 9.62712 10.4877 9.53777 10.4877C9.44842 10.4877 9.37572 10.4151 9.37572 10.3257C9.37572 10.2364 9.44842 10.1637 9.53777 10.1637C9.62712 10.1637 9.69982 10.2364 9.69982 10.3257ZM8.49726 10.3257C8.49726 10.4151 8.4246 10.4877 8.33525 10.4877C8.2459 10.4877 8.1732 10.4151 8.1732 10.3257C8.1732 10.2364 8.2459 10.1637 8.33525 10.1637C8.4246 10.1637 8.49726 10.2364 8.49726 10.3257ZM8.25236 8.54502L8.93647 7.86091L9.62058 8.54502L8.93647 9.22913L8.25236 8.54502ZM8.77446 11.2028C8.77446 11.1135 8.84712 11.0408 8.93647 11.0408C9.02582 11.0408 9.09852 11.1135 9.09852 11.2028C9.09852 11.2922 9.02582 11.3649 8.93647 11.3649C8.84716 11.3649 8.77446 11.2922 8.77446 11.2028Z" fill="#0088CC"/>
<path d="M0.296875 11.5874V6.58301L2.53159 8.66818L4.68036 6.58301V11.5874L2.53159 13.756L0.296875 11.5874Z" fill="#0088CC" stroke="#0088CC" stroke-width="0.65"/>
<path d="M15.4387 13.8291L12.9356 9.46894L11.5791 12.2616L12.3366 13.8291H15.4387Z" fill="#0088CC" stroke="#0088CC" stroke-width="0.65"/>
<path d="M12.3677 2.72344L10.9453 7.03342V10.8942L11.1858 11.4105L15.477 2.72344H12.3677Z" fill="#0088CC" stroke="#0088CC" stroke-width="0.65"/>
<rect x="7.49687" y="2.72344" width="2.73724" height="11.1057" fill="#0088CC" stroke="#0088CC" stroke-width="0.65"/>
<rect y="4.5459" width="3.6" height="3.6" transform="rotate(-45 0 4.5459)" fill="#0088CC"/>
</g>
<defs>
<clipPath id="clip0_3617_381">
<rect width="16" height="16" fill="white"/>
</clipPath>
</defs>
</svg>
