<svg width="32" height="32" viewBox="0 0 32 32" fill="none" xmlns="http://www.w3.org/2000/svg">
<path d="M17.1467 11.8967C17.1467 12.226 17.3683 12.5039 17.6701 12.5907V15.48L16.866 16.2841V14.3451C17.1678 14.2582 17.3894 13.9802 17.3894 13.6511C17.3894 13.2526 17.0652 12.9285 16.6668 12.9285C16.2683 12.9285 15.9441 13.2526 15.9441 13.6511C15.9441 13.9803 16.1658 14.2583 16.4675 14.3451V16.6827L15.9375 17.2127L17.8694 19.1445L19.8012 17.2127L19.2711 16.6827V14.3451C19.5729 14.2583 19.7945 13.9803 19.7945 13.6511C19.7945 13.2527 19.4703 12.9286 19.0718 12.9286C18.6734 12.9286 18.3493 13.2527 18.3493 13.6511C18.3493 13.9804 18.5708 14.2584 18.8726 14.3451V16.2841L18.0685 15.4801V12.5908C18.3703 12.504 18.5918 12.2261 18.5918 11.8968C18.5918 11.4983 18.2677 11.1741 17.8693 11.1741C17.4708 11.1741 17.1467 11.4983 17.1467 11.8967ZM16.3426 13.651C16.3426 13.4723 16.488 13.3269 16.6667 13.3269C16.8454 13.3269 16.9908 13.4723 16.9908 13.651C16.9908 13.8297 16.8454 13.9751 16.6667 13.9751C16.488 13.9751 16.3426 13.8297 16.3426 13.651ZM18.7478 13.651C18.7478 13.4723 18.8931 13.3269 19.0718 13.3269C19.2505 13.3269 19.396 13.4723 19.396 13.651C19.396 13.8297 19.2505 13.9751 19.0718 13.9751C18.8931 13.9751 18.7478 13.8297 18.7478 13.651ZM19.2376 17.2126L17.8694 18.5809L16.5011 17.2126L17.8694 15.8443L19.2376 17.2126ZM18.1934 11.8967C18.1934 12.0754 18.0481 12.2207 17.8694 12.2207C17.6906 12.2207 17.5452 12.0754 17.5452 11.8967C17.5452 11.718 17.6906 11.5726 17.8694 11.5726C18.048 11.5726 18.1934 11.718 18.1934 11.8967Z" fill="#0088CC"/>
<path d="M17.1467 11.8967C17.1467 12.226 17.3683 12.5039 17.6701 12.5907V15.48L16.866 16.2841V14.3451C17.1678 14.2582 17.3894 13.9802 17.3894 13.6511C17.3894 13.2526 17.0652 12.9285 16.6668 12.9285C16.2683 12.9285 15.9441 13.2526 15.9441 13.6511C15.9441 13.9803 16.1658 14.2583 16.4675 14.3451V16.6827L15.9375 17.2127L17.8694 19.1445L19.8012 17.2127L19.2711 16.6827V14.3451C19.5729 14.2583 19.7945 13.9803 19.7945 13.6511C19.7945 13.2527 19.4703 12.9286 19.0718 12.9286C18.6734 12.9286 18.3493 13.2527 18.3493 13.6511C18.3493 13.9804 18.5708 14.2584 18.8726 14.3451V16.2841L18.0685 15.4801V12.5908C18.3703 12.504 18.5918 12.2261 18.5918 11.8968C18.5918 11.4983 18.2677 11.1741 17.8693 11.1741C17.4708 11.1741 17.1467 11.4983 17.1467 11.8967ZM16.3426 13.651C16.3426 13.4723 16.488 13.3269 16.6667 13.3269C16.8454 13.3269 16.9908 13.4723 16.9908 13.651C16.9908 13.8297 16.8454 13.9751 16.6667 13.9751C16.488 13.9751 16.3426 13.8297 16.3426 13.651ZM18.7478 13.651C18.7478 13.4723 18.8931 13.3269 19.0718 13.3269C19.2505 13.3269 19.396 13.4723 19.396 13.651C19.396 13.8297 19.2505 13.9751 19.0718 13.9751C18.8931 13.9751 18.7478 13.8297 18.7478 13.651ZM19.2376 17.2126L17.8694 18.5809L16.5011 17.2126L17.8694 15.8443L19.2376 17.2126ZM18.1934 11.8967C18.1934 12.0754 18.0481 12.2207 17.8694 12.2207C17.6906 12.2207 17.5452 12.0754 17.5452 11.8967C17.5452 11.718 17.6906 11.5726 17.8694 11.5726C18.048 11.5726 18.1934 11.718 18.1934 11.8967Z" fill="#0088CC"/>
<path d="M18.5916 22.406C18.5916 22.0768 18.3699 21.7988 18.0682 21.712V18.8227L18.8722 18.0186V19.9577C18.5705 20.0445 18.3489 20.3225 18.3489 20.6517C18.3489 21.0501 18.6731 21.3742 19.0715 21.3742C19.47 21.3742 19.7942 21.0501 19.7942 20.6517C19.7942 20.3224 19.5725 20.0444 19.2708 19.9577V17.6201L19.8008 17.0901L17.8689 15.1582L15.9371 17.0901L16.4672 17.6201V19.9576C16.1654 20.0444 15.9438 20.3224 15.9438 20.6516C15.9438 21.05 16.268 21.3742 16.6664 21.3742C17.0649 21.3742 17.389 21.05 17.389 20.6516C17.389 20.3223 17.1674 20.0443 16.8657 19.9576V18.0186L17.6697 18.8226V21.7119C17.368 21.7988 17.1465 22.0767 17.1465 22.4059C17.1465 22.8044 17.4706 23.1286 17.869 23.1286C18.2675 23.1287 18.5916 22.8045 18.5916 22.406ZM19.3957 20.6518C19.3957 20.8305 19.2503 20.9758 19.0716 20.9758C18.8929 20.9758 18.7475 20.8305 18.7475 20.6518C18.7475 20.4731 18.8929 20.3276 19.0716 20.3276C19.2503 20.3276 19.3957 20.4731 19.3957 20.6518ZM16.9905 20.6518C16.9905 20.8305 16.8451 20.9758 16.6664 20.9758C16.4877 20.9758 16.3423 20.8305 16.3423 20.6518C16.3423 20.4731 16.4877 20.3276 16.6664 20.3276C16.8451 20.3276 16.9905 20.4731 16.9905 20.6518ZM16.5006 17.0901L17.8689 15.7218L19.2372 17.0901L17.8689 18.4584L16.5006 17.0901ZM17.5449 22.406C17.5449 22.2273 17.6902 22.082 17.8689 22.082C18.0476 22.082 18.193 22.2273 18.193 22.406C18.193 22.5847 18.0476 22.7301 17.8689 22.7301C17.6903 22.7301 17.5449 22.5847 17.5449 22.406Z" fill="#0088CC"/>
<path d="M18.5916 22.406C18.5916 22.0768 18.3699 21.7988 18.0682 21.712V18.8227L18.8722 18.0186V19.9577C18.5705 20.0445 18.3489 20.3225 18.3489 20.6517C18.3489 21.0501 18.6731 21.3742 19.0715 21.3742C19.47 21.3742 19.7942 21.0501 19.7942 20.6517C19.7942 20.3224 19.5725 20.0444 19.2708 19.9577V17.6201L19.8008 17.0901L17.8689 15.1582L15.9371 17.0901L16.4672 17.6201V19.9576C16.1654 20.0444 15.9438 20.3224 15.9438 20.6516C15.9438 21.05 16.268 21.3742 16.6664 21.3742C17.0649 21.3742 17.389 21.05 17.389 20.6516C17.389 20.3223 17.1674 20.0443 16.8657 19.9576V18.0186L17.6697 18.8226V21.7119C17.368 21.7988 17.1465 22.0767 17.1465 22.4059C17.1465 22.8044 17.4706 23.1286 17.869 23.1286C18.2675 23.1287 18.5916 22.8045 18.5916 22.406ZM19.3957 20.6518C19.3957 20.8305 19.2503 20.9758 19.0716 20.9758C18.8929 20.9758 18.7475 20.8305 18.7475 20.6518C18.7475 20.4731 18.8929 20.3276 19.0716 20.3276C19.2503 20.3276 19.3957 20.4731 19.3957 20.6518ZM16.9905 20.6518C16.9905 20.8305 16.8451 20.9758 16.6664 20.9758C16.4877 20.9758 16.3423 20.8305 16.3423 20.6518C16.3423 20.4731 16.4877 20.3276 16.6664 20.3276C16.8451 20.3276 16.9905 20.4731 16.9905 20.6518ZM16.5006 17.0901L17.8689 15.7218L19.2372 17.0901L17.8689 18.4584L16.5006 17.0901ZM17.5449 22.406C17.5449 22.2273 17.6902 22.082 17.8689 22.082C18.0476 22.082 18.193 22.2273 18.193 22.406C18.193 22.5847 18.0476 22.7301 17.8689 22.7301C17.6903 22.7301 17.5449 22.5847 17.5449 22.406Z" fill="#0088CC"/>
<path d="M0.597656 23.1753V13.166L5.06732 17.3366L9.36508 13.166V23.1753L5.06732 27.5127L0.597656 23.1753Z" fill="#0088CC" stroke="#0088CC" stroke-width="0.65"/>
<path d="M31.4348 27.9848L25.843 18.2443L22.7928 24.5243L24.465 27.9848H31.4348Z" fill="#0088CC" stroke="#0088CC" stroke-width="0.65"/>
<path d="M24.4961 5.12187L21.5611 14.0151V21.8612L22.3587 23.5732L31.4731 5.12187H24.4961Z" fill="#0088CC" stroke="#0088CC" stroke-width="0.65"/>
<rect x="14.6687" y="5.12187" width="6.12483" height="22.8626" fill="#0088CC" stroke="#0088CC" stroke-width="0.65"/>
<rect y="9.0918" width="7.20037" height="7.20037" transform="rotate(-45 0 9.0918)" fill="#0088CC"/>
</svg>
