<svg width="512" height="512" viewBox="0 0 512 512" fill="none" xmlns="http://www.w3.org/2000/svg">
<g clip-path="url(#clip0_3617_475)">
<path d="M178.141 130.385C172.156 130.385 167.104 134.413 165.526 139.898H113.008L98.3913 125.283H133.638C135.216 130.768 140.269 134.797 146.252 134.797C153.495 134.797 159.386 128.904 159.386 121.661C159.386 114.419 153.495 108.526 146.252 108.526C140.267 108.526 135.214 112.554 133.638 118.039H91.1471L81.5133 108.405L46.3984 143.52L81.5133 178.635L91.1471 169H133.636C135.214 174.484 140.267 178.513 146.251 178.513C153.493 178.513 159.385 172.62 159.385 165.378C159.385 158.135 153.493 152.244 146.251 152.244C140.265 152.244 135.212 156.271 133.636 161.756H98.3913L113.006 147.141H165.525C167.103 152.625 172.154 156.652 178.139 156.652C185.382 156.652 191.275 150.761 191.275 143.519C191.276 136.276 185.383 130.385 178.141 130.385ZM146.254 115.768C149.502 115.768 152.144 118.411 152.144 121.66C152.144 124.908 149.502 127.551 146.254 127.551C143.005 127.551 140.362 124.908 140.362 121.66C140.362 118.411 143.005 115.768 146.254 115.768ZM146.254 159.488C149.502 159.488 152.144 162.129 152.144 165.378C152.144 168.626 149.502 171.269 146.254 171.269C143.005 171.269 140.362 168.626 140.362 165.378C140.362 162.129 143.005 159.488 146.254 159.488ZM81.5149 168.391L56.6437 143.52L81.5149 118.649L106.386 143.52L81.5149 168.391ZM178.141 149.41C174.892 149.41 172.251 146.768 172.251 143.52C172.251 140.272 174.892 137.629 178.141 137.629C181.389 137.629 184.032 140.272 184.032 143.52C184.032 146.767 181.389 149.41 178.141 149.41Z" fill="#0088CC"/>
<path d="M132.692 173.865H108.79L81.5198 201.135L23.9031 143.518L81.5198 85.9031L108.79 113.173H132.693L81.5198 62L0 143.518L81.5198 225.037L132.692 173.865Z" fill="#0088CC"/>
<path d="M178.141 130.385C172.156 130.385 167.104 134.413 165.526 139.898H113.008L98.3913 125.283H133.638C135.216 130.768 140.269 134.797 146.252 134.797C153.495 134.797 159.386 128.904 159.386 121.661C159.386 114.419 153.495 108.526 146.252 108.526C140.267 108.526 135.214 112.554 133.638 118.039H91.1471L81.5133 108.405L46.3984 143.52L81.5133 178.635L91.1471 169H133.636C135.214 174.484 140.267 178.513 146.251 178.513C153.493 178.513 159.385 172.62 159.385 165.378C159.385 158.135 153.493 152.244 146.251 152.244C140.265 152.244 135.212 156.271 133.636 161.756H98.3913L113.006 147.141H165.525C167.103 152.625 172.154 156.652 178.139 156.652C185.382 156.652 191.275 150.761 191.275 143.519C191.276 136.276 185.383 130.385 178.141 130.385ZM146.254 115.768C149.502 115.768 152.144 118.411 152.144 121.66C152.144 124.908 149.502 127.551 146.254 127.551C143.005 127.551 140.362 124.908 140.362 121.66C140.362 118.411 143.005 115.768 146.254 115.768ZM146.254 159.488C149.502 159.488 152.144 162.129 152.144 165.378C152.144 168.626 149.502 171.269 146.254 171.269C143.005 171.269 140.362 168.626 140.362 165.378C140.362 162.129 143.005 159.488 146.254 159.488ZM81.5149 168.391L56.6437 143.52L81.5149 118.649L106.386 143.52L81.5149 168.391ZM178.141 149.41C174.892 149.41 172.251 146.768 172.251 143.52C172.251 140.272 174.892 137.629 178.141 137.629C181.389 137.629 184.032 140.272 184.032 143.52C184.032 146.767 181.389 149.41 178.141 149.41Z" fill="#0088CC"/>
<path d="M132.692 173.865H108.79L81.5198 201.135L23.9031 143.518L81.5198 85.9031L108.79 113.173H132.693L81.5198 62L0 143.518L81.5198 225.037L132.692 173.865Z" fill="#0088CC"/>
<path d="M274.385 188.328C274.385 193.596 277.931 198.042 282.759 199.431V245.658L269.895 258.523V227.499C274.723 226.11 278.269 221.663 278.269 216.396C278.269 210.021 273.082 204.836 266.707 204.836C260.332 204.836 255.145 210.021 255.145 216.396C255.145 221.664 258.691 226.112 263.519 227.499V264.899L255.039 273.379L285.947 304.287L316.855 273.379L308.374 264.899V227.501C313.202 226.112 316.748 221.664 316.748 216.397C316.748 210.023 311.561 204.837 305.186 204.837C298.811 204.837 293.626 210.023 293.626 216.397C293.626 221.666 297.17 226.113 301.998 227.501V258.523L289.134 245.659V199.433C293.961 198.044 297.506 193.597 297.506 188.329C297.506 181.954 292.321 176.767 285.946 176.767C279.571 176.766 274.385 181.953 274.385 188.328ZM261.52 216.395C261.52 213.536 263.846 211.211 266.705 211.211C269.565 211.211 271.891 213.536 271.891 216.395C271.891 219.254 269.565 221.58 266.705 221.58C263.846 221.58 261.52 219.254 261.52 216.395ZM300.002 216.395C300.002 213.536 302.327 211.211 305.186 211.211C308.045 211.211 310.372 213.536 310.372 216.395C310.372 219.254 308.045 221.58 305.186 221.58C302.327 221.58 300.002 219.254 300.002 216.395ZM307.839 273.378L285.947 295.269L264.056 273.378L285.947 251.486L307.839 273.378ZM291.131 188.328C291.131 191.187 288.806 193.512 285.947 193.512C283.088 193.512 280.762 191.187 280.762 188.328C280.762 185.469 283.088 183.142 285.947 183.142C288.805 183.142 291.131 185.469 291.131 188.328Z" fill="#0088CC"/>
<path d="M274.385 188.328C274.385 193.596 277.931 198.042 282.759 199.431V245.658L269.895 258.523V227.499C274.723 226.11 278.269 221.663 278.269 216.396C278.269 210.021 273.082 204.836 266.707 204.836C260.332 204.836 255.145 210.021 255.145 216.396C255.145 221.664 258.691 226.112 263.519 227.499V264.899L255.039 273.379L285.947 304.287L316.855 273.379L308.374 264.899V227.501C313.202 226.112 316.748 221.664 316.748 216.397C316.748 210.023 311.561 204.837 305.186 204.837C298.811 204.837 293.626 210.023 293.626 216.397C293.626 221.666 297.17 226.113 301.998 227.501V258.523L289.134 245.659V199.433C293.961 198.044 297.506 193.597 297.506 188.329C297.506 181.954 292.321 176.767 285.946 176.767C279.571 176.766 274.385 181.953 274.385 188.328ZM261.52 216.395C261.52 213.536 263.846 211.211 266.705 211.211C269.565 211.211 271.891 213.536 271.891 216.395C271.891 219.254 269.565 221.58 266.705 221.58C263.846 221.58 261.52 219.254 261.52 216.395ZM300.002 216.395C300.002 213.536 302.327 211.211 305.186 211.211C308.045 211.211 310.372 213.536 310.372 216.395C310.372 219.254 308.045 221.58 305.186 221.58C302.327 221.58 300.002 219.254 300.002 216.395ZM307.839 273.378L285.947 295.269L264.056 273.378L285.947 251.486L307.839 273.378ZM291.131 188.328C291.131 191.187 288.806 193.512 285.947 193.512C283.088 193.512 280.762 191.187 280.762 188.328C280.762 185.469 283.088 183.142 285.947 183.142C288.805 183.142 291.131 185.469 291.131 188.328Z" fill="#0088CC"/>
<path d="M297.509 356.487C297.509 351.218 293.963 346.772 289.136 345.383V299.157L302 286.291V317.315C297.172 318.704 293.626 323.152 293.626 328.418C293.626 334.793 298.813 339.979 305.188 339.979C311.563 339.979 316.749 334.793 316.749 328.418C316.749 323.15 313.203 318.703 308.376 317.315V279.915L316.855 271.435L285.947 240.527L255.039 271.435L263.52 279.915V317.314C258.693 318.703 255.147 323.15 255.147 328.417C255.147 334.792 260.334 339.977 266.709 339.977C273.083 339.977 278.269 334.792 278.269 328.417C278.269 323.149 274.724 318.701 269.897 317.314V286.291L282.761 299.155V345.382C277.933 346.771 274.388 351.217 274.388 356.485C274.388 362.86 279.574 368.047 285.949 368.047C292.324 368.048 297.509 362.862 297.509 356.487ZM310.375 328.42C310.375 331.279 308.048 333.604 305.189 333.604C302.33 333.604 300.004 331.279 300.004 328.42C300.004 325.561 302.33 323.234 305.189 323.234C308.048 323.234 310.375 325.561 310.375 328.42ZM271.893 328.42C271.893 331.279 269.568 333.604 266.709 333.604C263.849 333.604 261.523 331.279 261.523 328.42C261.523 325.561 263.849 323.234 266.709 323.234C269.568 323.234 271.893 325.561 271.893 328.42ZM264.056 271.437L285.947 249.545L307.839 271.437L285.947 293.328L264.056 271.437ZM280.763 356.487C280.763 353.627 283.088 351.302 285.947 351.302C288.807 351.302 291.133 353.627 291.133 356.487C291.133 359.346 288.807 361.672 285.947 361.672C283.09 361.672 280.763 359.346 280.763 356.487Z" fill="#0088CC"/>
<path d="M297.509 356.487C297.509 351.218 293.963 346.772 289.136 345.383V299.157L302 286.291V317.315C297.172 318.704 293.626 323.152 293.626 328.418C293.626 334.793 298.813 339.979 305.188 339.979C311.563 339.979 316.749 334.793 316.749 328.418C316.749 323.15 313.203 318.703 308.376 317.315V279.915L316.855 271.435L285.947 240.527L255.039 271.435L263.52 279.915V317.314C258.693 318.703 255.147 323.15 255.147 328.417C255.147 334.792 260.334 339.977 266.709 339.977C273.083 339.977 278.269 334.792 278.269 328.417C278.269 323.149 274.724 318.701 269.897 317.314V286.291L282.761 299.155V345.382C277.933 346.771 274.388 351.217 274.388 356.485C274.388 362.86 279.574 368.047 285.949 368.047C292.324 368.048 297.509 362.862 297.509 356.487ZM310.375 328.42C310.375 331.279 308.048 333.604 305.189 333.604C302.33 333.604 300.004 331.279 300.004 328.42C300.004 325.561 302.33 323.234 305.189 323.234C308.048 323.234 310.375 325.561 310.375 328.42ZM271.893 328.42C271.893 331.279 269.568 333.604 266.709 333.604C263.849 333.604 261.523 331.279 261.523 328.42C261.523 325.561 263.849 323.234 266.709 323.234C269.568 323.234 271.893 325.561 271.893 328.42ZM264.056 271.437L285.947 249.545L307.839 271.437L285.947 293.328L264.056 271.437ZM280.763 356.487C280.763 353.627 283.088 351.302 285.947 351.302C288.807 351.302 291.133 353.627 291.133 356.487C291.133 359.346 288.807 361.672 285.947 361.672C283.09 361.672 280.763 359.346 280.763 356.487Z" fill="#0088CC"/>
<path d="M9.56641 368.788V208.647L81.0774 275.373L149.838 208.647V368.788L81.0774 438.183L9.56641 368.788Z" stroke="#0088CC" stroke-width="20.86"/>
<path d="M493.986 440.505L413.941 301.072L370.566 390.375L394.79 440.505H493.986Z" stroke="#0088CC" stroke-width="20.86"/>
<path d="M395.787 85.182L350.278 223.076V346.609L357.948 363.069L495.215 85.182H395.787Z" stroke="#0088CC" stroke-width="20.86"/>
<rect x="239.965" y="85.182" width="87.5317" height="355.323" stroke="#0088CC" stroke-width="20.86"/>
</g>
<defs>
<clipPath id="clip0_3617_475">
<rect width="512" height="512" fill="white"/>
</clipPath>
</defs>
</svg>
