<svg width="192" height="192" viewBox="0 0 192 192" fill="none" xmlns="http://www.w3.org/2000/svg">
<g clip-path="url(#clip0_3617_456)">
<path d="M66.8018 48.6437C64.5574 48.6437 62.663 50.1544 62.0713 52.2112H42.3769L36.8958 46.7306H50.1131C50.7048 48.7874 52.5998 50.2981 54.8436 50.2981C57.5596 50.2981 59.7688 48.0883 59.7688 45.3723C59.7688 42.6564 57.5596 40.4465 54.8436 40.4465C52.5992 40.4465 50.7043 41.9573 50.1131 44.014H34.1792L30.5665 40.4014L17.3984 53.5695L30.5665 66.7375L34.1792 63.1243H50.1125C50.7043 65.1811 52.5992 66.6918 54.843 66.6918C57.559 66.6918 59.7682 64.482 59.7682 61.766C59.7682 59.0501 57.559 56.8408 54.843 56.8408C52.5986 56.8408 50.7037 58.351 50.1125 60.4077H36.8958L42.3763 54.9271H62.0707C62.6625 56.9839 64.5568 58.4941 66.8012 58.4941C69.5172 58.4941 71.727 56.2848 71.727 53.5689C71.7276 50.8529 69.5178 48.6437 66.8018 48.6437ZM54.8442 43.1625C56.0623 43.1625 57.0528 44.1536 57.0528 45.3717C57.0528 46.5898 56.0623 47.581 54.8442 47.581C53.6261 47.581 52.6349 46.5898 52.6349 45.3717C52.6349 44.1536 53.6261 43.1625 54.8442 43.1625ZM54.8442 59.5574C56.0623 59.5574 57.0528 60.5479 57.0528 61.766C57.0528 62.9841 56.0623 63.9753 54.8442 63.9753C53.6261 63.9753 52.6349 62.9841 52.6349 61.766C52.6349 60.5479 53.6261 59.5574 54.8442 59.5574ZM30.5671 62.8961L21.2404 53.5695L30.5671 44.2428L39.8938 53.5695L30.5671 62.8961ZM66.8018 55.7781C65.5837 55.7781 64.5931 54.7876 64.5931 53.5695C64.5931 52.3514 65.5837 51.3602 66.8018 51.3602C68.0199 51.3602 69.011 52.3514 69.011 53.5695C69.011 54.787 68.0199 55.7781 66.8018 55.7781Z" fill="#0088CC"/>
<path d="M49.7594 64.9493H40.7963L30.5699 75.1756L8.96366 53.5693L30.5699 31.9637L40.7963 42.19H49.7599L30.5699 23L0 53.5693L30.5699 84.1387L49.7594 64.9493Z" fill="#0088CC"/>
<path d="M66.8018 48.6437C64.5574 48.6437 62.663 50.1544 62.0713 52.2112H42.3769L36.8958 46.7306H50.1131C50.7048 48.7874 52.5998 50.2981 54.8436 50.2981C57.5596 50.2981 59.7688 48.0883 59.7688 45.3723C59.7688 42.6564 57.5596 40.4465 54.8436 40.4465C52.5992 40.4465 50.7043 41.9573 50.1131 44.014H34.1792L30.5665 40.4014L17.3984 53.5695L30.5665 66.7375L34.1792 63.1243H50.1125C50.7043 65.1811 52.5992 66.6918 54.843 66.6918C57.559 66.6918 59.7682 64.482 59.7682 61.766C59.7682 59.0501 57.559 56.8408 54.843 56.8408C52.5986 56.8408 50.7037 58.351 50.1125 60.4077H36.8958L42.3763 54.9271H62.0707C62.6625 56.9839 64.5568 58.4941 66.8012 58.4941C69.5172 58.4941 71.727 56.2848 71.727 53.5689C71.7276 50.8529 69.5178 48.6437 66.8018 48.6437ZM54.8442 43.1625C56.0623 43.1625 57.0528 44.1536 57.0528 45.3717C57.0528 46.5898 56.0623 47.581 54.8442 47.581C53.6261 47.581 52.6349 46.5898 52.6349 45.3717C52.6349 44.1536 53.6261 43.1625 54.8442 43.1625ZM54.8442 59.5574C56.0623 59.5574 57.0528 60.5479 57.0528 61.766C57.0528 62.9841 56.0623 63.9753 54.8442 63.9753C53.6261 63.9753 52.6349 62.9841 52.6349 61.766C52.6349 60.5479 53.6261 59.5574 54.8442 59.5574ZM30.5671 62.8961L21.2404 53.5695L30.5671 44.2428L39.8938 53.5695L30.5671 62.8961ZM66.8018 55.7781C65.5837 55.7781 64.5931 54.7876 64.5931 53.5695C64.5931 52.3514 65.5837 51.3602 66.8018 51.3602C68.0199 51.3602 69.011 52.3514 69.011 53.5695C69.011 54.787 68.0199 55.7781 66.8018 55.7781Z" fill="#0088CC"/>
<path d="M49.7594 64.9493H40.7963L30.5699 75.1756L8.96366 53.5693L30.5699 31.9637L40.7963 42.19H49.7599L30.5699 23L0 53.5693L30.5699 84.1387L49.7594 64.9493Z" fill="#0088CC"/>
<path d="M102.895 70.3727C102.895 72.3482 104.225 74.0156 106.036 74.5365V91.8714L101.212 96.6959V85.062C103.022 84.5412 104.352 82.8733 104.352 80.8983C104.352 78.5077 102.407 76.5631 100.016 76.5631C97.6255 76.5631 95.6804 78.5077 95.6804 80.8983C95.6804 82.8738 97.0101 84.5417 98.8205 85.062V99.087L95.6406 102.267L107.231 113.857L118.822 102.267L115.641 99.087V85.0626C117.452 84.5417 118.781 82.8738 118.781 80.8988C118.781 78.5082 116.836 76.5636 114.446 76.5636C112.055 76.5636 110.111 78.5082 110.111 80.8988C110.111 82.8743 111.44 84.5422 113.25 85.0626V96.6959L108.426 91.8719V74.537C110.237 74.0161 111.566 72.3488 111.566 70.3732C111.566 67.9826 109.621 66.0375 107.231 66.0375C104.84 66.037 102.895 67.9821 102.895 70.3727ZM98.071 80.8978C98.071 79.8256 98.9434 78.9537 100.016 78.9537C101.088 78.9537 101.96 79.8256 101.96 80.8978C101.96 81.9699 101.088 82.8423 100.016 82.8423C98.9434 82.8423 98.071 81.9699 98.071 80.8978ZM112.502 80.8978C112.502 79.8256 113.374 78.9537 114.446 78.9537C115.518 78.9537 116.39 79.8256 116.39 80.8978C116.39 81.9699 115.518 82.8423 114.446 82.8423C113.374 82.8423 112.502 81.9699 112.502 80.8978ZM115.44 102.266L107.231 110.476L99.0218 102.266L107.231 94.0571L115.44 102.266ZM109.175 70.3727C109.175 71.4449 108.303 72.3168 107.231 72.3168C106.159 72.3168 105.287 71.4449 105.287 70.3727C105.287 69.3005 106.159 68.4281 107.231 68.4281C108.303 68.4281 109.175 69.3005 109.175 70.3727Z" fill="#0088CC"/>
<path d="M102.895 70.3727C102.895 72.3482 104.225 74.0156 106.036 74.5365V91.8714L101.212 96.6959V85.062C103.022 84.5412 104.352 82.8733 104.352 80.8983C104.352 78.5077 102.407 76.5631 100.016 76.5631C97.6255 76.5631 95.6804 78.5077 95.6804 80.8983C95.6804 82.8738 97.0101 84.5417 98.8205 85.062V99.087L95.6406 102.267L107.231 113.857L118.822 102.267L115.641 99.087V85.0626C117.452 84.5417 118.781 82.8738 118.781 80.8988C118.781 78.5082 116.836 76.5636 114.446 76.5636C112.055 76.5636 110.111 78.5082 110.111 80.8988C110.111 82.8743 111.44 84.5422 113.25 85.0626V96.6959L108.426 91.8719V74.537C110.237 74.0161 111.566 72.3488 111.566 70.3732C111.566 67.9826 109.621 66.0375 107.231 66.0375C104.84 66.037 102.895 67.9821 102.895 70.3727ZM98.071 80.8978C98.071 79.8256 98.9434 78.9537 100.016 78.9537C101.088 78.9537 101.96 79.8256 101.96 80.8978C101.96 81.9699 101.088 82.8423 100.016 82.8423C98.9434 82.8423 98.071 81.9699 98.071 80.8978ZM112.502 80.8978C112.502 79.8256 113.374 78.9537 114.446 78.9537C115.518 78.9537 116.39 79.8256 116.39 80.8978C116.39 81.9699 115.518 82.8423 114.446 82.8423C113.374 82.8423 112.502 81.9699 112.502 80.8978ZM115.44 102.266L107.231 110.476L99.0218 102.266L107.231 94.0571L115.44 102.266ZM109.175 70.3727C109.175 71.4449 108.303 72.3168 107.231 72.3168C106.159 72.3168 105.287 71.4449 105.287 70.3727C105.287 69.3005 106.159 68.4281 107.231 68.4281C108.303 68.4281 109.175 69.3005 109.175 70.3727Z" fill="#0088CC"/>
<path d="M111.565 133.433C111.565 131.457 110.236 129.79 108.425 129.269V111.934L113.249 107.11V118.744C111.439 119.264 110.109 120.932 110.109 122.907C110.109 125.298 112.054 127.243 114.445 127.243C116.835 127.243 118.781 125.298 118.781 122.907C118.781 120.932 117.451 119.264 115.64 118.744V104.719L118.82 101.539L107.23 89.9482L95.6393 101.539L98.8197 104.719V118.743C97.0093 119.264 95.6795 120.932 95.6795 122.907C95.6795 125.297 97.6246 127.242 100.015 127.242C102.406 127.242 104.35 125.297 104.35 122.907C104.35 120.931 103.021 119.263 101.211 118.743V107.11L106.035 111.934V129.269C104.224 129.79 102.895 131.457 102.895 133.432C102.895 135.823 104.84 137.768 107.23 137.768C109.621 137.769 111.565 135.824 111.565 133.433ZM116.39 122.908C116.39 123.98 115.518 124.852 114.445 124.852C113.373 124.852 112.501 123.98 112.501 122.908C112.501 121.836 113.373 120.963 114.445 120.963C115.518 120.963 116.39 121.836 116.39 122.908ZM101.959 122.908C101.959 123.98 101.087 124.852 100.015 124.852C98.943 124.852 98.0706 123.98 98.0706 122.908C98.0706 121.836 98.943 120.963 100.015 120.963C101.087 120.963 101.959 121.836 101.959 122.908ZM99.0205 101.539L107.23 93.3299L115.439 101.539L107.23 109.749L99.0205 101.539ZM105.286 133.433C105.286 132.361 106.158 131.489 107.23 131.489C108.302 131.489 109.174 132.361 109.174 133.433C109.174 134.505 108.302 135.378 107.23 135.378C106.158 135.378 105.286 134.505 105.286 133.433Z" fill="#0088CC"/>
<path d="M111.565 133.433C111.565 131.457 110.236 129.79 108.425 129.269V111.934L113.249 107.11V118.744C111.439 119.264 110.109 120.932 110.109 122.907C110.109 125.298 112.054 127.243 114.445 127.243C116.835 127.243 118.781 125.298 118.781 122.907C118.781 120.932 117.451 119.264 115.64 118.744V104.719L118.82 101.539L107.23 89.9482L95.6393 101.539L98.8197 104.719V118.743C97.0093 119.264 95.6795 120.932 95.6795 122.907C95.6795 125.297 97.6246 127.242 100.015 127.242C102.406 127.242 104.35 125.297 104.35 122.907C104.35 120.931 103.021 119.263 101.211 118.743V107.11L106.035 111.934V129.269C104.224 129.79 102.895 131.457 102.895 133.432C102.895 135.823 104.84 137.768 107.23 137.768C109.621 137.769 111.565 135.824 111.565 133.433ZM116.39 122.908C116.39 123.98 115.518 124.852 114.445 124.852C113.373 124.852 112.501 123.98 112.501 122.908C112.501 121.836 113.373 120.963 114.445 120.963C115.518 120.963 116.39 121.836 116.39 122.908ZM101.959 122.908C101.959 123.98 101.087 124.852 100.015 124.852C98.943 124.852 98.0706 123.98 98.0706 122.908C98.0706 121.836 98.943 120.963 100.015 120.963C101.087 120.963 101.959 121.836 101.959 122.908ZM99.0205 101.539L107.23 93.3299L115.439 101.539L107.23 109.749L99.0205 101.539ZM105.286 133.433C105.286 132.361 106.158 131.489 107.23 131.489C108.302 131.489 109.174 132.361 109.174 133.433C109.174 134.505 108.302 135.378 107.23 135.378C106.158 135.378 105.286 134.505 105.286 133.433Z" fill="#0088CC"/>
<path d="M3.58594 138.046V77.9932L30.4026 103.015L56.1878 77.9932V138.046L30.4026 164.069L3.58594 138.046Z" stroke="#0088CC" stroke-width="7.82"/>
<path d="M185.243 164.941L155.224 112.65L138.957 146.141L148.042 164.941H185.243Z" stroke="#0088CC" stroke-width="7.82"/>
<path d="M148.415 31.6922L131.349 83.4036V129.729L134.226 135.904L185.704 31.6922H148.415Z" stroke="#0088CC" stroke-width="7.82"/>
<rect x="89.9842" y="31.6922" width="32.8269" height="133.249" stroke="#0088CC" stroke-width="7.82"/>
</g>
<defs>
<clipPath id="clip0_3617_456">
<rect width="192" height="192" fill="white"/>
</clipPath>
</defs>
</svg>
