<svg width="48" height="48" viewBox="0 0 48 48" fill="none" xmlns="http://www.w3.org/2000/svg">
<path d="M25.7201 17.8451C25.7201 18.339 26.0525 18.7558 26.5051 18.8861V23.22L25.2991 24.4262V21.5176C25.7517 21.3874 26.0841 20.9704 26.0841 20.4766C26.0841 19.8789 25.5978 19.3927 25.0002 19.3927C24.4025 19.3927 23.9162 19.8789 23.9162 20.4766C23.9162 20.9705 24.2486 21.3875 24.7013 21.5176V25.024L23.9062 25.819L26.804 28.7168L29.7018 25.819L28.9067 25.024V21.5177C29.3593 21.3875 29.6917 20.9705 29.6917 20.4767C29.6917 19.879 29.2054 19.3929 28.6078 19.3929C28.0101 19.3929 27.5239 19.879 27.5239 20.4767C27.5239 20.9706 27.8563 21.3876 28.3089 21.5177V24.4262L27.1028 23.2201V18.8862C27.5554 18.756 27.8877 18.3391 27.8877 17.8452C27.8877 17.2475 27.4016 16.7612 26.8039 16.7612C26.2062 16.7611 25.7201 17.2474 25.7201 17.8451ZM24.5139 20.4765C24.5139 20.2084 24.732 19.9904 25 19.9904C25.2681 19.9904 25.4862 20.2084 25.4862 20.4765C25.4862 20.7445 25.2681 20.9626 25 20.9626C24.732 20.9626 24.5139 20.7445 24.5139 20.4765ZM28.1217 20.4765C28.1217 20.2084 28.3397 19.9904 28.6078 19.9904C28.8758 19.9904 29.0939 20.2084 29.0939 20.4765C29.0939 20.7445 28.8758 20.9626 28.6078 20.9626C28.3397 20.9626 28.1217 20.7445 28.1217 20.4765ZM28.8565 25.8189L26.804 27.8713L24.7516 25.8189L26.804 23.7665L28.8565 25.8189ZM27.2901 17.8451C27.2901 18.1131 27.0721 18.3311 26.804 18.3311C26.536 18.3311 26.3179 18.1131 26.3179 17.8451C26.3179 17.577 26.536 17.3589 26.804 17.3589C27.072 17.3589 27.2901 17.577 27.2901 17.8451Z" fill="#0088CC"/>
<path d="M25.7201 17.8451C25.7201 18.339 26.0525 18.7558 26.5051 18.8861V23.22L25.2991 24.4262V21.5176C25.7517 21.3874 26.0841 20.9704 26.0841 20.4766C26.0841 19.8789 25.5978 19.3927 25.0002 19.3927C24.4025 19.3927 23.9162 19.8789 23.9162 20.4766C23.9162 20.9705 24.2486 21.3875 24.7013 21.5176V25.024L23.9062 25.819L26.804 28.7168L29.7018 25.819L28.9067 25.024V21.5177C29.3593 21.3875 29.6917 20.9705 29.6917 20.4767C29.6917 19.879 29.2054 19.3929 28.6078 19.3929C28.0101 19.3929 27.5239 19.879 27.5239 20.4767C27.5239 20.9706 27.8563 21.3876 28.3089 21.5177V24.4262L27.1028 23.2201V18.8862C27.5554 18.756 27.8877 18.3391 27.8877 17.8452C27.8877 17.2475 27.4016 16.7612 26.8039 16.7612C26.2062 16.7611 25.7201 17.2474 25.7201 17.8451ZM24.5139 20.4765C24.5139 20.2084 24.732 19.9904 25 19.9904C25.2681 19.9904 25.4862 20.2084 25.4862 20.4765C25.4862 20.7445 25.2681 20.9626 25 20.9626C24.732 20.9626 24.5139 20.7445 24.5139 20.4765ZM28.1217 20.4765C28.1217 20.2084 28.3397 19.9904 28.6078 19.9904C28.8758 19.9904 29.0939 20.2084 29.0939 20.4765C29.0939 20.7445 28.8758 20.9626 28.6078 20.9626C28.3397 20.9626 28.1217 20.7445 28.1217 20.4765ZM28.8565 25.8189L26.804 27.8713L24.7516 25.8189L26.804 23.7665L28.8565 25.8189ZM27.2901 17.8451C27.2901 18.1131 27.0721 18.3311 26.804 18.3311C26.536 18.3311 26.3179 18.1131 26.3179 17.8451C26.3179 17.577 26.536 17.3589 26.804 17.3589C27.072 17.3589 27.2901 17.577 27.2901 17.8451Z" fill="#0088CC"/>
<path d="M27.8893 33.61C27.8893 33.1161 27.5569 32.6992 27.1042 32.569V28.2351L28.3103 27.0289V29.9375C27.8577 30.0677 27.5252 30.4847 27.5252 30.9785C27.5252 31.5762 28.0115 32.0623 28.6092 32.0623C29.2069 32.0623 29.6932 31.5762 29.6932 30.9785C29.6932 30.4846 29.3607 30.0676 28.9081 29.9375V26.4311L29.7031 25.6361L26.8053 22.7383L23.9076 25.6361L24.7027 26.4311V29.9374C24.2501 30.0676 23.9176 30.4846 23.9176 30.9784C23.9176 31.576 24.4039 32.0622 25.0016 32.0622C25.5993 32.0622 26.0855 31.576 26.0855 30.9784C26.0855 30.4844 25.7531 30.0675 25.3005 29.9374V27.0289L26.5066 28.2349V32.5689C26.054 32.6991 25.7216 33.116 25.7216 33.6099C25.7216 34.2076 26.2078 34.6939 26.8055 34.6939C27.4032 34.694 27.8893 34.2077 27.8893 33.61ZM29.0955 30.9786C29.0955 31.2467 28.8774 31.4647 28.6093 31.4647C28.3413 31.4647 28.1232 31.2467 28.1232 30.9786C28.1232 30.7106 28.3413 30.4924 28.6093 30.4924C28.8774 30.4924 29.0955 30.7106 29.0955 30.9786ZM25.4876 30.9786C25.4876 31.2467 25.2697 31.4647 25.0016 31.4647C24.7336 31.4647 24.5154 31.2467 24.5154 30.9786C24.5154 30.7106 24.7336 30.4924 25.0016 30.4924C25.2697 30.4924 25.4876 30.7106 25.4876 30.9786ZM24.7529 25.6362L26.8053 23.5838L28.8578 25.6362L26.8053 27.6886L24.7529 25.6362ZM26.3193 33.61C26.3193 33.342 26.5373 33.124 26.8053 33.124C27.0734 33.124 27.2915 33.342 27.2915 33.61C27.2915 33.8781 27.0734 34.0962 26.8053 34.0962C26.5374 34.0962 26.3193 33.8781 26.3193 33.61Z" fill="#0088CC"/>
<path d="M27.8893 33.61C27.8893 33.1161 27.5569 32.6992 27.1042 32.569V28.2351L28.3103 27.0289V29.9375C27.8577 30.0677 27.5252 30.4847 27.5252 30.9785C27.5252 31.5762 28.0115 32.0623 28.6092 32.0623C29.2069 32.0623 29.6932 31.5762 29.6932 30.9785C29.6932 30.4846 29.3607 30.0676 28.9081 29.9375V26.4311L29.7031 25.6361L26.8053 22.7383L23.9076 25.6361L24.7027 26.4311V29.9374C24.2501 30.0676 23.9176 30.4846 23.9176 30.9784C23.9176 31.576 24.4039 32.0622 25.0016 32.0622C25.5993 32.0622 26.0855 31.576 26.0855 30.9784C26.0855 30.4844 25.7531 30.0675 25.3005 29.9374V27.0289L26.5066 28.2349V32.5689C26.054 32.6991 25.7216 33.116 25.7216 33.6099C25.7216 34.2076 26.2078 34.6939 26.8055 34.6939C27.4032 34.694 27.8893 34.2077 27.8893 33.61ZM29.0955 30.9786C29.0955 31.2467 28.8774 31.4647 28.6093 31.4647C28.3413 31.4647 28.1232 31.2467 28.1232 30.9786C28.1232 30.7106 28.3413 30.4924 28.6093 30.4924C28.8774 30.4924 29.0955 30.7106 29.0955 30.9786ZM25.4876 30.9786C25.4876 31.2467 25.2697 31.4647 25.0016 31.4647C24.7336 31.4647 24.5154 31.2467 24.5154 30.9786C24.5154 30.7106 24.7336 30.4924 25.0016 30.4924C25.2697 30.4924 25.4876 30.7106 25.4876 30.9786ZM24.7529 25.6362L26.8053 23.5838L28.8578 25.6362L26.8053 27.6886L24.7529 25.6362ZM26.3193 33.61C26.3193 33.342 26.5373 33.124 26.8053 33.124C27.0734 33.124 27.2915 33.342 27.2915 33.61C27.2915 33.8781 27.0734 34.0962 26.8053 34.0962C26.5374 34.0962 26.3193 33.8781 26.3193 33.61Z" fill="#0088CC"/>
<path d="M0.898438 34.763V19.749L7.60294 26.0048L14.0496 19.749V34.763L7.60294 41.2691L0.898438 34.763Z" fill="#0088CC" stroke="#0088CC" stroke-width="0.65"/>
<path d="M47.4348 42.1392L38.7545 27.0187L34.0105 36.7857L36.5975 42.1392H47.4348Z" fill="#0088CC" stroke="#0088CC" stroke-width="0.65"/>
<path d="M36.6286 7.52031L32.1811 20.9965V32.8278L33.5358 35.7353L47.4731 7.52031H36.6286Z" fill="#0088CC" stroke="#0088CC" stroke-width="0.65"/>
<rect x="21.8406" y="7.52031" width="9.51224" height="34.6189" fill="#0088CC" stroke="#0088CC" stroke-width="0.65"/>
<rect y="13.6367" width="10.8006" height="10.8006" transform="rotate(-45 0 13.6367)" fill="#0088CC"/>
</svg>
