<svg width="202" height="202" viewBox="0 0 202 202" fill="none" xmlns="http://www.w3.org/2000/svg">
<g clip-path="url(#clip0_3933_10776)">
<path d="M201.467 25.9294C201.562 20.2326 199.499 14.9796 195.658 11.1389C193.574 9.05522 190.196 9.05522 188.112 11.1392C186.028 13.2231 186.028 16.6015 188.112 18.6851C189.89 20.4625 190.843 22.9717 190.797 25.7509C190.753 28.4023 189.749 30.9625 188.112 32.5992C184.717 35.9942 150.876 65.7046 124.446 88.8218L117.968 82.3446C137.263 60.2682 161.207 32.9706 170.572 22.6057L172.703 24.7366C174.787 26.8205 178.166 26.8208 180.249 24.7371C182.333 22.6534 182.333 19.275 180.25 17.1911L174.199 11.1394C173.198 10.1387 171.841 9.57627 170.426 9.57627H170.425C169.01 9.57627 167.653 10.1384 166.652 11.1389C163.405 14.3858 143.543 36.9445 125.622 57.3959C120.802 50.1009 114.364 43.8254 106.707 39.0082C95.5154 31.9672 82.4676 28.3972 67.9255 28.3972C64.7264 28.3972 61.5614 28.5989 58.5192 28.9973C55.597 29.3798 53.5384 32.0585 53.9207 34.9806C54.3033 37.9026 56.9816 39.9612 59.9038 39.5788C62.4888 39.2405 65.1877 39.069 67.9252 39.069C90.0675 39.069 108.641 48.9959 118.273 65.7873C109.285 76.0576 101.563 84.9034 97.8392 89.1715C91.1913 90.0773 86.2308 92.7978 82.7331 97.463C79.4811 101.8 78.0557 106.98 76.5467 112.465C74.7271 119.077 72.8457 125.915 67.4802 131.28C65.9539 132.806 65.4974 135.101 66.3234 137.095C67.1494 139.089 69.0951 140.39 71.2532 140.39C85.6134 140.39 96.9951 137.329 105.082 131.292C112.37 125.852 116.715 118.128 117.742 108.853C131.49 96.8459 190.727 45.0761 195.658 40.1452C199.259 36.5449 201.376 31.3632 201.467 25.9294ZM116.393 95.8619C114.79 97.2629 113.236 98.6209 111.741 99.9257L106.869 95.0541C108.173 93.5598 109.531 92.0041 110.931 90.4001L116.393 95.8619ZM98.6988 122.74C94.5016 125.873 88.916 127.961 82.0218 128.984C84.3677 124.267 85.6838 119.484 86.8361 115.295C89.3093 106.308 90.8156 101.797 96.9097 100.187L106.762 110.039C105.677 115.284 102.978 119.546 98.6988 122.74Z" fill="#2E2E2E"/>
<path d="M41.8569 44.7154C42.6342 44.7154 43.4236 44.5446 44.1704 44.1847C44.6493 43.9536 45.1413 43.7266 45.6323 43.5102C48.3283 42.32 49.5492 39.1695 48.359 36.4735C47.1688 33.7777 44.0186 32.5568 41.3223 33.7467C40.7228 34.0114 40.1216 34.2889 39.5355 34.5714C36.881 35.8513 35.7666 39.0409 37.0462 41.6954C37.9661 43.6031 39.8719 44.7154 41.8569 44.7154Z" fill="#2E2E2E"/>
<path d="M80.4151 146.318C77.471 146.289 75.0528 148.647 75.0194 151.593C74.7892 172.106 71.6925 181.258 53.9523 181.258C44.0073 181.258 33.5704 173.983 25.3179 161.298C16.2184 147.311 11.2069 129.151 11.2069 110.164C11.2069 85.5137 18.6505 65.0037 32.1665 52.4121C34.3227 50.4034 34.4422 47.0268 32.4336 44.8706C30.4249 42.7144 27.0483 42.5949 24.8921 44.6036C16.9307 52.0207 10.7707 61.6578 6.58284 73.2473C2.56973 84.3529 0.535156 96.7735 0.535156 110.164C0.535156 131.193 6.15997 151.42 16.3728 167.118C26.6313 182.886 40.3288 191.93 53.9523 191.93C66.9828 191.93 76.0648 187.344 80.9452 178.301C85.1355 170.537 85.5917 160.506 85.6904 151.714C85.7235 148.767 83.3618 146.351 80.4151 146.318Z" fill="#2E2E2E"/>
<path d="M106.671 67.2963C106.671 57.4943 98.6965 49.5195 88.8945 49.5195C79.0922 49.5195 71.1172 57.4943 71.1172 67.2963C71.1172 77.0985 79.0922 85.0735 88.8945 85.0735C98.6965 85.0733 106.671 77.0985 106.671 67.2963ZM81.7889 67.2963C81.7889 63.3784 84.9763 60.1913 88.8945 60.1913C92.8123 60.1913 95.9994 63.3784 95.9994 67.2963C95.9994 71.2144 92.8123 74.4018 88.8945 74.4018C84.9763 74.4015 81.7889 71.2141 81.7889 67.2963Z" fill="#2E2E2E"/>
<path d="M46.5309 91.4619C56.3332 91.4619 64.3079 83.4872 64.3079 73.6852C64.3079 63.8829 56.3332 55.9082 46.5309 55.9082C36.7286 55.9082 28.7539 63.8829 28.7539 73.6852C28.7539 83.4872 36.7286 91.4619 46.5309 91.4619ZM46.5309 66.58C50.4488 66.58 53.6362 69.7673 53.6362 73.6852C53.6362 77.6031 50.4488 80.7902 46.5309 80.7902C42.613 80.7902 39.4257 77.6031 39.4257 73.6852C39.4257 69.7673 42.6133 66.58 46.5309 66.58Z" fill="#2E2E2E"/>
<path d="M50.6868 114.529C50.6868 104.727 42.7121 96.752 32.9098 96.752C23.1075 96.752 15.1328 104.727 15.1328 114.529C15.1328 124.331 23.1075 132.306 32.9098 132.306C42.7121 132.306 50.6868 124.331 50.6868 114.529ZM32.9098 121.634C28.992 121.634 25.8046 118.447 25.8046 114.529C25.8046 110.611 28.992 107.424 32.9098 107.424C36.8277 107.424 40.0151 110.611 40.0151 114.529C40.0151 118.447 36.8277 121.634 32.9098 121.634Z" fill="#2E2E2E"/>
<path d="M51.5892 173.901C61.3915 173.901 69.3665 165.926 69.3665 156.124C69.3665 146.322 61.3915 138.348 51.5892 138.348C41.7872 138.348 33.8125 146.322 33.8125 156.124C33.8125 165.926 41.7872 173.901 51.5892 173.901ZM51.5892 149.019C55.5074 149.019 58.6948 152.207 58.6948 156.124C58.6948 160.042 55.5074 163.229 51.5892 163.229C47.6716 163.229 44.4843 160.042 44.4843 156.124C44.4843 152.207 47.6716 149.019 51.5892 149.019Z" fill="#2E2E2E"/>
</g>
<defs>
<clipPath id="clip0_3933_10776">
<rect width="200.933" height="200.933" fill="white" transform="translate(0.535156 0.533203)"/>
</clipPath>
</defs>
</svg>
