<svg width="24" height="24" viewBox="0 0 24 24" fill="none" xmlns="http://www.w3.org/2000/svg">
<g clip-path="url(#clip0_3933_10799)">
<path d="M14.2492 6.5643C12.9696 5.82406 11.4838 5.40039 9.89922 5.40039C5.09434 5.40039 1.19922 9.29551 1.19922 14.1004C1.19922 15.4921 1.526 16.8075 2.10703 17.9741C2.26143 18.284 2.31283 18.6384 2.22331 18.9729L1.70513 20.9096C1.48019 21.7503 2.24932 22.5194 3.09003 22.2945L5.02669 21.7763C5.36124 21.6868 5.71557 21.7382 6.02557 21.8925C7.19209 22.4736 8.50749 22.8004 9.89922 22.8004C14.7041 22.8004 18.5992 18.9053 18.5992 14.1004C18.5992 12.5158 18.1755 11.0301 17.4353 9.75039" stroke="#2E2E2E" stroke-width="2" stroke-linecap="round"/>
<path d="M18.5776 14.9992C18.6478 14.9686 18.7174 14.9369 18.7863 14.904C19.1687 14.7214 19.5978 14.6531 20.0038 14.7666L20.5066 14.9073C21.527 15.1926 22.4605 14.2168 22.1875 13.1502L22.053 12.6246C21.9443 12.2002 22.0097 11.7517 22.1843 11.352C22.5806 10.445 22.8016 9.43654 22.8016 8.37419C22.8016 6.9678 22.4144 5.65592 21.7456 4.54861M9.60156 5.60973C10.6371 3.01944 13.0839 1.19922 15.9376 1.19922C17.2983 1.19922 18.5667 1.61316 19.6336 2.32715" stroke="#2E2E2E" stroke-width="2" stroke-linecap="round"/>
<path d="M6 14.4004H6.01004M9.89482 14.4004H9.90486M13.79 14.4004H13.8" stroke="#2E2E2E" stroke-width="2" stroke-linecap="round" stroke-linejoin="round"/>
</g>
<defs>
<clipPath id="clip0_3933_10799">
<rect width="24" height="24" fill="white"/>
</clipPath>
</defs>
</svg>
