<svg width="178" height="178" viewBox="0 0 178 178" fill="none" xmlns="http://www.w3.org/2000/svg">
<g clip-path="url(#clip0_3343_2540)">
<path d="M177.888 22.5795C177.972 17.5392 176.147 12.8916 172.749 9.49346C170.905 7.64993 167.916 7.64993 166.072 9.4937C164.229 11.3375 164.229 14.3266 166.072 16.1701C167.645 17.7427 168.489 19.9627 168.448 22.4216C168.408 24.7675 167.52 27.0326 166.072 28.4807C163.069 31.4845 133.127 57.771 109.743 78.2242L104.012 72.4934C121.083 52.9611 142.268 28.8093 150.554 19.6388L152.439 21.5241C154.283 23.3679 157.272 23.3682 159.115 21.5246C160.959 19.6811 160.959 16.692 159.116 14.8482L153.762 9.49394C152.877 8.60852 151.676 8.11093 150.424 8.11093C149.172 8.11093 147.971 8.60828 147.086 9.49346C144.213 12.3662 126.639 32.3253 110.783 50.4198C106.519 43.9655 100.823 38.4132 94.0485 34.1511C84.1465 27.9215 72.6023 24.763 59.736 24.763C56.9056 24.763 54.1053 24.9414 51.4137 25.2938C48.8282 25.6323 47.0069 28.0023 47.3451 30.5877C47.6836 33.1729 50.0533 34.9943 52.6387 34.656C54.9258 34.3567 57.3137 34.2049 59.7358 34.2049C79.3264 34.2049 95.7596 42.9878 104.281 57.8442C96.3294 66.9309 89.4972 74.7573 86.2025 78.5336C80.3206 79.335 75.9318 81.742 72.8372 85.8696C69.96 89.707 68.6988 94.2901 67.3637 99.1423C65.7538 104.993 64.0892 111.043 59.342 115.79C57.9916 117.14 57.5877 119.171 58.3185 120.935C59.0493 122.699 60.7709 123.849 62.6802 123.849C75.3856 123.849 85.4556 121.141 92.611 115.8C99.0591 110.987 102.903 104.153 103.811 95.9474C115.976 85.3236 168.386 39.5198 172.749 35.1571C175.934 31.9717 177.808 27.3871 177.888 22.5795ZM102.618 84.453C101.2 85.6925 99.8246 86.894 98.5023 88.0485L94.1918 83.7383C95.3453 82.4162 96.5466 81.0398 97.7858 79.6206L102.618 84.453ZM86.963 108.234C83.2495 111.006 78.3076 112.853 72.2079 113.758C74.2834 109.584 75.4479 105.353 76.4674 101.647C78.6555 93.695 79.9883 89.7039 85.3801 88.2796L94.0971 96.9964C93.1373 101.637 90.7492 105.408 86.963 108.234Z" fill="#2E2E2E"/>
<path d="M36.6709 39.2011C37.3585 39.2011 38.057 39.05 38.7177 38.7316C39.1414 38.5272 39.5766 38.3263 40.011 38.1349C42.3962 37.0819 43.4764 34.2946 42.4234 31.9093C41.3704 29.5243 38.5834 28.4441 36.1978 29.4969C35.6674 29.7311 35.1356 29.9766 34.617 30.2265C32.2686 31.3589 31.2826 34.1808 32.4147 36.5293C33.2286 38.217 34.9147 39.2011 36.6709 39.2011Z" fill="#2E2E2E"/>
<path d="M70.7879 129.095C68.1831 129.07 66.0435 131.156 66.014 133.763C65.8103 151.912 63.0705 160.008 47.3747 160.008C38.5757 160.008 29.3415 153.572 22.0401 142.349C13.9892 129.974 9.55522 113.906 9.55522 97.1071C9.55522 75.2978 16.141 57.1514 28.0994 46.0108C30.0072 44.2336 30.1129 41.2462 28.3357 39.3384C26.5585 37.4307 23.5711 37.3249 21.6633 39.1021C14.6194 45.6645 9.16928 54.1911 5.46403 64.445C1.91339 74.2708 0.113281 85.26 0.113281 97.1071C0.113281 115.713 5.08989 133.609 14.1258 147.498C23.2021 161.449 35.3211 169.45 47.3747 169.45C58.9035 169.45 66.9389 165.394 71.2569 157.393C74.9643 150.523 75.3679 141.648 75.4553 133.869C75.4845 131.262 73.395 129.124 70.7879 129.095Z" fill="#2E2E2E"/>
<path d="M94.0193 59.1798C94.0193 50.5074 86.9635 43.4517 78.2911 43.4517C69.6185 43.4517 62.5625 50.5074 62.5625 59.1798C62.5625 67.8525 69.6185 74.9084 78.2911 74.9084C86.9635 74.9082 94.0193 67.8525 94.0193 59.1798ZM72.0044 59.1798C72.0044 55.7134 74.8245 52.8936 78.2911 52.8936C81.7575 52.8936 84.5773 55.7134 84.5773 59.1798C84.5773 62.6464 81.7575 65.4665 78.2911 65.4665C74.8245 65.4663 72.0044 62.6462 72.0044 59.1798Z" fill="#2E2E2E"/>
<path d="M40.8065 80.5605C49.4792 80.5605 56.5349 73.5048 56.5349 64.8324C56.5349 56.1597 49.4792 49.104 40.8065 49.104C32.1339 49.104 25.0781 56.1597 25.0781 64.8324C25.0781 73.5048 32.1339 80.5605 40.8065 80.5605ZM40.8065 58.5459C44.2729 58.5459 47.093 61.366 47.093 64.8324C47.093 68.2988 44.2729 71.1186 40.8065 71.1186C37.3401 71.1186 34.5201 68.2988 34.5201 64.8324C34.5201 61.366 37.3404 58.5459 40.8065 58.5459Z" fill="#2E2E2E"/>
<path d="M44.488 100.97C44.488 92.2972 37.4323 85.2412 28.7596 85.2412C20.087 85.2412 13.0312 92.2972 13.0312 100.97C13.0312 109.642 20.087 116.698 28.7596 116.698C37.4323 116.698 44.488 109.642 44.488 100.97ZM28.7596 107.256C25.2933 107.256 22.4732 104.436 22.4732 100.97C22.4732 97.5032 25.2933 94.6832 28.7596 94.6832C32.226 94.6832 35.0461 97.5032 35.0461 100.97C35.0461 104.436 32.226 107.256 28.7596 107.256Z" fill="#2E2E2E"/>
<path d="M45.2828 153.499C53.9555 153.499 61.0115 146.444 61.0115 137.771C61.0115 129.099 53.9555 122.043 45.2828 122.043C36.6104 122.043 29.5547 129.099 29.5547 137.771C29.5547 146.444 36.6104 153.499 45.2828 153.499ZM45.2828 131.485C48.7494 131.485 51.5695 134.305 51.5695 137.771C51.5695 141.237 48.7494 144.057 45.2828 144.057C41.8167 144.057 38.9966 141.237 38.9966 137.771C38.9966 134.305 41.8167 131.485 45.2828 131.485Z" fill="#2E2E2E"/>
</g>
<defs>
<clipPath id="clip0_3343_2540">
<rect width="177.778" height="177.778" fill="white" transform="translate(0.113281 0.11084)"/>
</clipPath>
</defs>
</svg>
