<svg width="134" height="135" viewBox="0 0 134 135" fill="none" xmlns="http://www.w3.org/2000/svg">
<path d="M66.8902 0.931519C30.0691 0.931519 0.222656 30.778 0.222656 67.599C0.222656 104.42 30.0691 134.267 66.8902 134.267C103.711 134.267 133.558 104.42 133.558 67.599C133.558 30.778 103.711 0.931519 66.8902 0.931519ZM66.8902 123.85C35.8228 123.85 10.6395 98.6663 10.6395 67.599C10.6395 36.5317 35.8228 11.3483 66.8902 11.3483C97.9575 11.3483 123.141 36.5317 123.141 67.599C123.141 98.6663 97.9575 123.85 66.8902 123.85Z" fill="#2E2E2E" fill-opacity="1"/>
<path fill-rule="evenodd" clip-rule="evenodd" d="M84.4692 56.2598H71.5839V46.8557C71.5839 43.9711 74.5677 43.3021 75.9604 43.3021C77.3438 43.3021 84.284 43.3021 84.284 43.3021V30.6113L74.7442 30.5615C61.7279 30.5615 58.7574 40.0243 58.7574 46.0918V56.2601H49.3125V69.3352H58.7574C58.7574 86.1224 58.7574 104.637 58.7574 104.637H71.5839C71.5839 104.637 71.5839 85.9323 71.5839 69.3352H82.4799L84.4692 56.2598Z" fill="#2E2E2E" fill-opacity="1"/>
</svg>
