<svg width="103" height="103" viewBox="0 0 103 103" fill="none" xmlns="http://www.w3.org/2000/svg">
<g clip-path="url(#clip0_3343_2644)">
<path d="M90.9423 12.4697H12.5651C9.62422 12.4697 6.80382 13.6367 4.72432 15.714C2.64481 17.7913 1.47656 20.6087 1.47656 23.5465V78.5862C1.47656 81.5239 2.64481 84.3413 4.72432 86.4186C6.80382 88.4959 9.62422 89.6629 12.5651 89.6629H90.9423C93.8832 89.6629 96.7036 88.4959 98.7831 86.4186C100.863 84.3413 102.031 81.5239 102.031 78.5862V23.5465C102.031 20.6087 100.863 17.7913 98.7831 15.714C96.7036 13.6367 93.8832 12.4697 90.9423 12.4697ZM12.5651 16.6665H90.9423C92.769 16.6665 94.5208 17.3914 95.8124 18.6816C97.104 19.9718 97.8296 21.7218 97.8296 23.5465V28.5H5.6778V23.5465C5.6778 21.7218 6.40343 19.9718 7.69504 18.6816C8.98666 17.3914 10.7385 16.6665 12.5651 16.6665ZM90.9423 85.4662H12.5651C10.7385 85.4662 8.98666 84.7413 7.69504 83.4511C6.40343 82.1608 5.6778 80.4109 5.6778 78.5862V32.6968H97.8296V78.5862C97.8296 79.4897 97.6515 80.3843 97.3054 81.219C96.9593 82.0537 96.4519 82.8122 95.8124 83.4511C95.1728 84.0899 94.4136 84.5967 93.578 84.9425C92.7424 85.2882 91.8468 85.4662 90.9423 85.4662Z" fill="#F3F3F3CC" fill-opacity="0.8"/>
<path d="M11.6843 24.5561C12.0328 24.5868 12.3824 24.511 12.6869 24.3386C12.9913 24.1662 13.2362 23.9054 13.3891 23.5907C13.542 23.2761 13.5957 22.9224 13.5431 22.5765C13.4905 22.2306 13.3341 21.9088 13.0946 21.6538C12.855 21.3988 12.5437 21.2226 12.2017 21.1485C11.8598 21.0744 11.5034 21.106 11.1798 21.2389C10.8562 21.3719 10.5806 21.6 10.3896 21.8931C10.1985 22.1862 10.101 22.5304 10.1099 22.8802C10.1208 23.3041 10.2872 23.7092 10.5776 24.0183C10.8679 24.3274 11.2619 24.5188 11.6843 24.5561Z" fill="#F3F3F3CC" fill-opacity="0.8"/>
<path d="M16.0048 24.5557C16.3504 24.5657 16.6911 24.4717 16.9827 24.2859C17.2743 24.1001 17.5034 23.8311 17.6403 23.5136C17.7773 23.1961 17.8157 22.8448 17.7507 22.5051C17.6857 22.1655 17.5203 21.8533 17.2758 21.6088C17.0313 21.3643 16.719 21.1988 16.3794 21.1338C16.0398 21.0688 15.6885 21.1073 15.371 21.2442C15.0535 21.3812 14.7844 21.6103 14.5986 21.9019C14.4128 22.1935 14.3188 22.5342 14.3289 22.8798C14.3416 23.3202 14.5223 23.7391 14.8339 24.0507C15.1454 24.3622 15.5643 24.5429 16.0048 24.5557Z" fill="#F3F3F3CC" fill-opacity="0.8"/>
<path d="M20.2704 24.5557C20.616 24.5657 20.9567 24.4717 21.2483 24.2859C21.5399 24.1001 21.769 23.8311 21.9059 23.5136C22.0429 23.1961 22.0813 22.8448 22.0164 22.5051C21.9514 22.1655 21.7859 21.8533 21.5414 21.6088C21.2969 21.3643 20.9846 21.1988 20.645 21.1338C20.3054 21.0688 19.9541 21.1073 19.6366 21.2442C19.3191 21.3812 19.05 21.6103 18.8642 21.9019C18.6784 22.1935 18.5845 22.5342 18.5945 22.8798C18.6073 23.3202 18.7879 23.7391 19.0995 24.0507C19.4111 24.3622 19.8299 24.5429 20.2704 24.5557Z" fill="#F3F3F3CC" fill-opacity="0.8"/>
<path d="M56.8334 52.9455L54.8528 57.4145L52.8214 52.9455C52.8214 52.9455 52.8214 52.9455 52.4659 52.59C52.1104 52.2345 52.4659 52.2853 52.0596 52.1837C52.0596 52.1837 51.7041 52.1837 51.501 52.1837C51.3046 52.1096 51.0879 52.1096 50.8915 52.1837C50.8915 52.1837 50.5868 52.4884 50.4853 52.59C50.3837 52.6915 50.1806 52.59 50.079 52.9455L48.0984 57.4145L46.1178 52.9455C46.0461 52.7268 45.9288 52.5259 45.7736 52.356C45.6185 52.1861 45.429 52.051 45.2178 51.9598C45.0065 51.8686 44.7783 51.8233 44.5483 51.8269C44.3182 51.8304 44.0915 51.8828 43.8832 51.9806C43.6989 52.0628 43.5327 52.1809 43.3944 52.3279C43.2561 52.4749 43.1484 52.6479 43.0775 52.8369C43.0066 53.0259 42.974 53.2271 42.9815 53.4289C42.9891 53.6306 43.0366 53.8288 43.1214 54.012L46.6764 62.1376C46.8464 62.4332 47.0917 62.6785 47.3874 62.8485H47.9968H48.6062C48.9205 62.6859 49.1841 62.4399 49.368 62.1376L51.3486 57.6177L53.38 62.1376C53.55 62.4332 53.7953 62.6785 54.091 62.8485C54.308 62.9003 54.5342 62.9003 54.7512 62.8485H55.3606C55.6563 62.6785 55.9016 62.4332 56.0716 62.1376L59.525 54.469C59.6793 54.0911 59.6808 53.6681 59.5293 53.2891C59.3777 52.9101 59.0848 52.6048 58.7124 52.4376C58.3892 52.2898 58.0244 52.2596 57.6812 52.3524C57.3381 52.4451 57.0382 52.6549 56.8334 52.9455Z" fill="#F3F3F3CC" fill-opacity="0.8"/>
<path d="M74.2001 52.9456L72.2195 57.4147L70.1881 52.9456C70.1881 52.9456 69.9342 52.9456 69.8326 52.5901C69.731 52.2346 69.8326 52.2854 69.4263 52.1838C69.2299 52.1098 69.0133 52.1098 68.8169 52.1838C68.8169 52.1838 68.4614 52.1838 68.2583 52.1838C68.2583 52.1838 68.0043 52.4378 67.852 52.5901C67.6996 52.7425 67.5473 52.5901 67.4965 52.9456L65.4651 57.4147L63.4845 52.9456C63.4022 52.7613 63.2842 52.5951 63.1371 52.4568C62.9901 52.3185 62.8171 52.2107 62.6281 52.1399C62.4391 52.069 62.2379 52.0364 62.0362 52.0439C61.8344 52.0515 61.6362 52.099 61.4531 52.1838C61.2643 52.2613 61.093 52.3759 60.9493 52.5208C60.8056 52.6657 60.6926 52.8381 60.6168 53.0275C60.541 53.217 60.504 53.4198 60.5081 53.6238C60.5122 53.8278 60.5572 54.0289 60.6405 54.2152L63.9923 62.1377C64.1623 62.4333 64.4076 62.6787 64.7033 62.8487H65.3127C65.5297 62.9005 65.7559 62.9005 65.9729 62.8487C66.3805 62.7299 66.7375 62.48 66.9886 62.1377L69.02 57.6178L71.0006 62.1377C71.1707 62.4333 71.416 62.6787 71.7116 62.8487C71.9292 62.8953 72.1542 62.8953 72.3718 62.8487H72.9813C73.2913 62.6801 73.5535 62.4354 73.743 62.1377L77.1456 54.2152C77.2289 54.0289 77.2739 53.8278 77.278 53.6238C77.2821 53.4198 77.2451 53.217 77.1694 53.0275C77.0936 52.8381 76.9805 52.6657 76.8368 52.5208C76.6932 52.3759 76.5219 52.2613 76.3331 52.1838C76.1451 52.0824 75.938 52.0216 75.725 52.0054C75.5121 51.9892 75.2981 52.0179 75.097 52.0897C74.8958 52.1616 74.712 52.2749 74.5575 52.4223C74.403 52.5698 74.2813 52.7481 74.2001 52.9456Z" fill="#F3F3F3CC" fill-opacity="0.8"/>
<path d="M39.364 52.9456L37.3834 57.4147L35.4027 52.9456C35.2902 52.8166 35.1518 52.7128 34.9965 52.6409C34.9401 52.381 34.7968 52.1481 34.5902 51.9807C34.3938 51.9066 34.1771 51.9066 33.9808 51.9807C33.9808 51.9807 33.6253 51.9807 33.4221 51.9807L33.0158 52.387C33.0158 52.387 32.7111 52.387 32.6603 52.7425L30.629 57.2116L28.6483 52.7425C28.5714 52.5231 28.4452 52.3242 28.2795 52.161C28.1138 51.9979 27.913 51.8749 27.6924 51.8013C27.4718 51.7278 27.2373 51.7057 27.0069 51.7368C26.7765 51.7679 26.5562 51.8513 26.363 51.9807C25.9907 52.1479 25.6978 52.4532 25.5462 52.8322C25.3946 53.2112 25.3961 53.6342 25.5505 54.0121L29.1562 62.1377C29.3262 62.4334 29.5715 62.6787 29.8672 62.8487H30.4766C30.6936 62.9005 30.9198 62.9005 31.1368 62.8487H31.4415C31.6629 62.6536 31.8367 62.4104 31.9494 62.1377L33.9808 57.6178L35.9614 62.1377C36.1314 62.4334 36.3767 62.6787 36.6724 62.8487H37.2818H37.8912C38.2615 62.7109 38.5806 62.4627 38.8053 62.1377L42.2079 54.4692C42.3833 54.2841 42.5094 54.058 42.5748 53.8116C42.6401 53.5652 42.6426 53.3063 42.5819 53.0587C42.5213 52.8111 42.3995 52.5827 42.2277 52.3943C42.0559 52.206 41.8395 52.0638 41.5985 51.9807C41.3902 51.883 41.1635 51.8306 40.9335 51.827C40.7034 51.8234 40.4752 51.8687 40.264 51.96C40.0527 52.0512 39.8632 52.1862 39.7081 52.3561C39.553 52.526 39.4357 52.727 39.364 52.9456Z" fill="#F3F3F3CC" fill-opacity="0.8"/>
</g>
<defs>
<clipPath id="clip0_3343_2644">
<rect width="101.57" height="101.57" fill="white" transform="translate(0.96875 0.469727)"/>
</clipPath>
</defs>
</svg>
