<svg width="30" height="30" viewBox="0 0 30 30" fill="none" xmlns="http://www.w3.org/2000/svg">
<path d="M15.2625 0C12.075 0 9.7125 0.975 8.2125 2.475C6.7125 3.975 6.1875 5.85 6 7.275L9.75 7.7625C9.9 6.825 10.2 5.8875 10.9125 5.175C11.625 4.4625 12.75 3.75 15.2625 3.75C17.7375 3.75 19.0875 4.35 19.8375 5.025C20.5875 5.7 20.8875 6.525 20.8875 7.5C20.8875 10.6125 19.6125 11.475 17.7375 13.125C15.8625 14.775 13.3875 17.175 13.3875 21.5625V22.5H17.1375V21.5625C17.1375 18.45 18.3 17.5875 20.175 15.9375C22.05 14.2875 24.6375 11.8875 24.6375 7.5C24.6375 5.7 24 3.675 22.425 2.2125C20.8125 0.75 18.4125 0 15.2625 0ZM13.3875 26.25V30H17.1375V26.25H13.3875Z" fill="#F3F3F3"/>
</svg>
