<svg width="108" height="108" viewBox="0 0 108 108" fill="none" xmlns="http://www.w3.org/2000/svg">
<path fill-rule="evenodd" clip-rule="evenodd" d="M43.4335 19.8667C35.6209 20.0512 28.1903 23.2843 22.73 28.8751C17.2697 34.4659 14.2129 41.9707 14.2129 49.7855C14.2129 57.6003 17.2697 65.1051 22.73 70.6959C28.1903 76.2867 35.6209 79.5198 43.4335 79.7043H44.7681V55.9828C44.7681 54.2145 46.1193 51.9458 47.9042 51.9458H73.2606C73.2606 50.9616 73.3606 50.2776 73.3606 49.7438C73.3211 41.8234 70.1538 34.2395 64.5485 28.6435C58.9432 23.0476 51.3539 19.893 43.4335 19.8667ZM67.3218 47.2248H59.6148C59.4683 41.0118 58.025 34.8979 55.3777 29.2752C58.6194 31.1417 61.3848 33.7336 63.457 36.8478C65.5293 39.962 66.8521 43.5138 67.3218 47.2248ZM40.0137 27.557V47.2248H33.1742C33.6913 37.8497 36.644 30.443 40.0137 27.557ZM40.0137 52.3462V71.9973C36.6774 69.1114 33.6913 61.738 33.1742 52.3462H40.0137ZM46.8533 47.2248V27.557C50.1896 30.443 53.1924 37.8497 53.6928 47.2248H46.8533ZM31.4727 29.2752C28.8707 34.9129 27.4352 41.0184 27.2522 47.2248H19.4951C19.9635 43.5092 21.2894 39.9534 23.3681 36.8382C25.4468 33.723 28.2214 31.1339 31.4727 29.2752ZM19.5118 53.1969H27.2689C27.4119 59.3906 28.8436 65.4866 31.4727 71.0965C28.2324 69.2389 25.4663 66.6562 23.3911 63.5507C21.316 60.4452 19.9882 56.9014 19.5118 53.1969Z" fill="#0285CC"/>
<path fill-rule="evenodd" clip-rule="evenodd" d="M90.0434 57.017H53.7271C52.621 57.017 51.5602 57.4564 50.7781 58.2385C49.996 59.0206 49.5566 60.0814 49.5566 61.1875V81.4559C49.5566 82.5619 49.996 83.6227 50.7781 84.4048C51.5602 85.1869 52.621 85.6263 53.7271 85.6263H90.0434C91.1494 85.6263 92.2102 85.1869 92.9923 84.4048C93.7744 83.6227 94.2138 82.5619 94.2138 81.4559V61.1875C94.2138 60.0814 93.7744 59.0206 92.9923 58.2385C92.2102 57.4564 91.1494 57.017 90.0434 57.017ZM58.6149 81.4559C58.6326 80.8161 58.5242 80.1791 58.2956 79.5813C58.0671 78.9835 57.723 78.4366 57.2831 77.9719C56.8431 77.5071 56.3158 77.1336 55.7314 76.8727C55.1471 76.6118 54.517 76.4686 53.8772 76.4513H53.7438V66.0919C55.0346 66.1234 56.2854 65.6428 57.223 64.7551C58.1607 63.8675 58.709 62.6449 58.7483 61.3543V61.2375H85.1222C85.1221 62.5135 85.6244 63.7382 86.5204 64.6467C87.4164 65.5552 88.634 66.0744 89.9099 66.0919H90.0434V76.518C89.4014 76.5025 88.7628 76.6136 88.1638 76.845C87.5648 77.0764 87.0173 77.4236 86.5526 77.8667C86.0878 78.3097 85.7149 78.84 85.4552 79.4272C85.1955 80.0145 85.054 80.6471 85.0388 81.289V81.4392L58.6149 81.4559Z" fill="#0285CC"/>
<path d="M71.8755 77.9694C75.745 77.9694 78.8819 74.8325 78.8819 70.963C78.8819 67.0935 75.745 63.9567 71.8755 63.9567C68.006 63.9567 64.8691 67.0935 64.8691 70.963C64.8691 74.8325 68.006 77.9694 71.8755 77.9694Z" fill="#0285CC"/>
</svg>
