<svg width="50" height="50" viewBox="0 0 50 50" fill="none" xmlns="http://www.w3.org/2000/svg">
<g clip-path="url(#clip0_3451_6379)">
<path d="M44.3762 4.99805C47.4828 4.99805 50.0013 7.51651 50.0013 10.6232V39.3854C50.0013 42.4921 47.4828 45.0106 44.3762 45.0106H5.62515C2.51846 45.0106 0 42.4921 0 39.3854V10.6232C0 7.51651 2.51846 4.99805 5.62515 4.99805H44.3762ZM44.3762 8.74814H5.62515C4.58959 8.74814 3.7501 9.58763 3.7501 10.6232V39.3854C3.7501 40.421 4.58959 41.2605 5.62515 41.2605H44.3762C45.4117 41.2605 46.2512 40.421 46.2512 39.3854V10.6232C46.2512 9.58763 45.4117 8.74814 44.3762 8.74814ZM19.3755 26.2486C20.4111 26.2486 21.2506 27.0881 21.2506 28.1236V29.3555L21.2308 29.6269C20.8238 32.4093 18.4947 33.7511 15.0003 33.7511C11.5056 33.7511 9.17644 32.4079 8.76991 29.624L8.75023 29.3531V28.1236C8.75023 27.0881 9.58972 26.2486 10.6253 26.2486H19.3755ZM28.1315 27.489H39.376C40.4116 27.489 41.2511 28.3285 41.2511 29.364C41.2511 30.3133 40.5457 31.0978 39.6305 31.222L39.376 31.2391H28.1315C27.0959 31.2391 26.2564 30.3996 26.2564 29.364C26.2564 28.4148 26.9618 27.6303 27.877 27.5061L28.1315 27.489ZM15.0004 16.2538C17.0715 16.2538 18.7504 17.9327 18.7504 20.0038C18.7504 22.0749 17.0715 23.7539 15.0004 23.7539C12.9293 23.7539 11.2504 22.0749 11.2504 20.0038C11.2504 17.9327 12.9293 16.2538 15.0004 16.2538ZM28.1315 18.7484H39.376C40.4116 18.7484 41.2511 19.5879 41.2511 20.6235C41.2511 21.5727 40.5457 22.3572 39.6305 22.4814L39.376 22.4985H28.1315C27.0959 22.4985 26.2564 21.659 26.2564 20.6235C26.2564 19.6742 26.9618 18.8897 27.877 18.7655L28.1315 18.7484Z" fill="#D6D6D6"/>
</g>
<defs>
<clipPath id="clip0_3451_6379">
<rect width="50" height="50" fill="white"/>
</clipPath>
</defs>
</svg>
