<svg width="20" height="20" viewBox="0 0 20 20" fill="none" xmlns="http://www.w3.org/2000/svg">
<path fill-rule="evenodd" clip-rule="evenodd" d="M2.83085 9.69295C2.83085 13.835 6.18872 17.1929 10.3308 17.1929C13.0715 17.1929 15.4713 15.722 16.7798 13.525C13.9404 14.4408 10.5768 13.9624 8.31901 11.7046C6.04333 9.42886 5.60502 6.07016 6.55585 3.24414C4.33913 4.56609 2.83085 6.99113 2.83085 9.69295ZM17.6558 11.3209C18.3437 10.9184 19.3792 11.374 19.1667 12.1422C18.0953 16.0156 14.5452 18.8596 10.3308 18.8596C5.26824 18.8596 1.16418 14.7555 1.16418 9.69295C1.16418 5.49065 4.11277 1.88207 8.01273 0.833352C8.78274 0.626282 9.22041 1.66151 8.80341 2.34116C7.25021 4.87216 7.35994 8.38845 9.49749 10.526C11.6099 12.6385 15.1137 12.8085 17.6558 11.3209Z" fill="#F3F3F3"/>
</svg>
