<svg width="201" height="200" viewBox="0 0 201 200" fill="none" xmlns="http://www.w3.org/2000/svg">
<g clip-path="url(#clip0_1450_228)">
<path d="M41.1402 4.51343H8.70772C4.01042 4.51343 0.599609 7.92424 0.599609 12.6215V169.378C0.599609 174.076 4.01042 177.486 8.70772 177.486H41.1402H160.059H192.492C197.189 177.486 200.6 174.076 200.6 169.378V12.6215C200.6 7.92424 197.189 4.51343 192.492 4.51343H160.059H41.1402ZM6.00501 169.378V12.6215C6.00501 10.9296 7.01583 9.91883 8.70772 9.91883H38.4374V172.081H8.70772C7.01583 172.081 6.00501 171.07 6.00501 169.378ZM43.8429 172.081V9.91883H157.356V172.081H43.8429ZM195.194 12.6215V169.378C195.194 171.07 194.183 172.081 192.492 172.081H162.762V9.91883H192.492C194.183 9.91883 195.194 10.9296 195.194 12.6215Z" fill="#E8E8E8" fill-opacity="1"/>
<path d="M80.4754 59.0216C79.6484 58.4702 78.5781 58.4162 77.697 58.8865C76.8267 59.3567 76.2754 60.2702 76.2754 61.2702V126.135C76.2754 127.135 76.8267 128.049 77.7024 128.519C78.1024 128.73 78.5403 128.838 78.9781 128.838C79.5024 128.838 80.0213 128.686 80.4754 128.384L129.124 95.9513C129.875 95.4486 130.329 94.6054 130.329 93.7027C130.329 92.8 129.875 91.9567 129.124 91.454L80.4754 59.0216ZM81.6808 121.086V66.3189L122.756 93.7027L81.6808 121.086Z" fill="#E8E8E8" fill-opacity="1"/>
<path d="M27.6268 47.7566H16.816C15.3241 47.7566 14.1133 48.9674 14.1133 50.4593C14.1133 51.9512 15.3241 53.162 16.816 53.162H27.6268C29.1187 53.162 30.3295 51.9512 30.3295 50.4593C30.3295 48.9674 29.1187 47.7566 27.6268 47.7566Z" fill="#E8E8E8" fill-opacity="1"/>
<path d="M16.816 31.5404H27.6268C29.1187 31.5404 30.3295 30.3296 30.3295 28.8377C30.3295 27.3458 29.1187 26.135 27.6268 26.135H16.816C15.3241 26.135 14.1133 27.3458 14.1133 28.8377C14.1133 30.3296 15.3241 31.5404 16.816 31.5404Z" fill="#E8E8E8" fill-opacity="1"/>
<path d="M27.6268 69.3784H16.816C15.3241 69.3784 14.1133 70.5892 14.1133 72.0811C14.1133 73.573 15.3241 74.7838 16.816 74.7838H27.6268C29.1187 74.7838 30.3295 73.573 30.3295 72.0811C30.3295 70.5892 29.1187 69.3784 27.6268 69.3784Z" fill="#E8E8E8" fill-opacity="1"/>
<path d="M27.6268 91H16.816C15.3241 91 14.1133 92.2108 14.1133 93.7027C14.1133 95.1946 15.3241 96.4054 16.816 96.4054H27.6268C29.1187 96.4054 30.3295 95.1946 30.3295 93.7027C30.3295 92.2108 29.1187 91 27.6268 91Z" fill="#E8E8E8" fill-opacity="1"/>
<path d="M27.6268 112.622H16.816C15.3241 112.622 14.1133 113.832 14.1133 115.324C14.1133 116.816 15.3241 118.027 16.816 118.027H27.6268C29.1187 118.027 30.3295 116.816 30.3295 115.324C30.3295 113.832 29.1187 112.622 27.6268 112.622Z" fill="#E8E8E8" fill-opacity="1"/>
<path d="M27.6268 134.243H16.816C15.3241 134.243 14.1133 135.454 14.1133 136.946C14.1133 138.438 15.3241 139.649 16.816 139.649H27.6268C29.1187 139.649 30.3295 138.438 30.3295 136.946C30.3295 135.454 29.1187 134.243 27.6268 134.243Z" fill="#E8E8E8" fill-opacity="1"/>
<path d="M27.6268 155.865H16.816C15.3241 155.865 14.1133 157.076 14.1133 158.567C14.1133 160.059 15.3241 161.27 16.816 161.27H27.6268C29.1187 161.27 30.3295 160.059 30.3295 158.567C30.3295 157.076 29.1187 155.865 27.6268 155.865Z" fill="#E8E8E8" fill-opacity="1"/>
<path d="M173.572 53.162H184.383C185.875 53.162 187.085 51.9512 187.085 50.4593C187.085 48.9674 185.875 47.7566 184.383 47.7566H173.572C172.08 47.7566 170.869 48.9674 170.869 50.4593C170.869 51.9512 172.08 53.162 173.572 53.162Z" fill="#E8E8E8" fill-opacity="1"/>
<path d="M173.572 31.5404H184.383C185.875 31.5404 187.085 30.3296 187.085 28.8377C187.085 27.3458 185.875 26.135 184.383 26.135H173.572C172.08 26.135 170.869 27.3458 170.869 28.8377C170.869 30.3296 172.08 31.5404 173.572 31.5404Z" fill="#E8E8E8" fill-opacity="1"/>
<path d="M173.572 74.7838H184.383C185.875 74.7838 187.085 73.573 187.085 72.0811C187.085 70.5892 185.875 69.3784 184.383 69.3784H173.572C172.08 69.3784 170.869 70.5892 170.869 72.0811C170.869 73.573 172.08 74.7838 173.572 74.7838Z" fill="#E8E8E8" fill-opacity="1"/>
<path d="M173.572 96.4054H184.383C185.875 96.4054 187.085 95.1946 187.085 93.7027C187.085 92.2108 185.875 91 184.383 91H173.572C172.08 91 170.869 92.2108 170.869 93.7027C170.869 95.1946 172.08 96.4054 173.572 96.4054Z" fill="#E8E8E8" fill-opacity="1"/>
<path d="M173.572 118.027H184.383C185.875 118.027 187.085 116.816 187.085 115.324C187.085 113.832 185.875 112.622 184.383 112.622H173.572C172.08 112.622 170.869 113.832 170.869 115.324C170.869 116.816 172.08 118.027 173.572 118.027Z" fill="#E8E8E8" fill-opacity="1"/>
<path d="M173.572 139.649H184.383C185.875 139.649 187.085 138.438 187.085 136.946C187.085 135.454 185.875 134.243 184.383 134.243H173.572C172.08 134.243 170.869 135.454 170.869 136.946C170.869 138.438 172.08 139.649 173.572 139.649Z" fill="#E8E8E8" fill-opacity="1"/>
<path d="M184.383 155.865H173.572C172.08 155.865 170.869 157.076 170.869 158.567C170.869 160.059 172.08 161.27 173.572 161.27H184.383C185.875 161.27 187.085 160.059 187.085 158.567C187.085 157.076 185.875 155.865 184.383 155.865Z" fill="#E8E8E8" fill-opacity="1"/>
</g>
<defs>
<clipPath id="clip0_1450_228">
<rect width="200" height="200" fill="white" transform="translate(0.599609)"/>
</clipPath>
</defs>
</svg>
