<svg width="108" height="107" viewBox="0 0 108 107" fill="none" xmlns="http://www.w3.org/2000/svg">
<path d="M95.1562 5.66675H12.8461C9.75768 5.66675 6.79574 6.89232 4.61189 9.07385C2.42805 11.2554 1.20117 14.2142 1.20117 17.2993V75.1009C1.20117 78.186 2.42805 81.1448 4.61189 83.3263C6.79574 85.5078 9.75768 86.7334 12.8461 86.7334H95.1562C98.2447 86.7334 101.207 85.5078 103.39 83.3263C105.574 81.1448 106.801 78.186 106.801 75.1009V17.2993C106.801 14.2142 105.574 11.2554 103.39 9.07385C101.207 6.89232 98.2447 5.66675 95.1562 5.66675ZM12.8461 10.0741H95.1562C97.0745 10.0741 98.9142 10.8353 100.271 12.1903C101.627 13.5453 102.389 15.3831 102.389 17.2993V22.5014H5.61323V17.2993C5.61323 15.3831 6.37526 13.5453 7.73169 12.1903C9.08811 10.8353 10.9278 10.0741 12.8461 10.0741ZM95.1562 82.326H12.8461C10.9278 82.326 9.08811 81.5648 7.73169 80.2098C6.37526 78.8548 5.61323 77.0171 5.61323 75.1009V26.9088H102.389V75.1009C102.389 76.0497 102.202 76.9892 101.839 77.8658C101.475 78.7424 100.942 79.5389 100.271 80.2098C99.599 80.8807 98.8017 81.413 97.9242 81.7761C97.0466 82.1392 96.1061 82.326 95.1562 82.326Z" fill="#2B2B2B"/>
<path d="M11.9215 18.3593C12.2875 18.3916 12.6547 18.3119 12.9744 18.1309C13.2941 17.9499 13.5513 17.676 13.7119 17.3455C13.8725 17.015 13.9289 16.6436 13.8736 16.2803C13.8184 15.9171 13.6541 15.5792 13.4026 15.3114C13.151 15.0436 12.824 14.8586 12.4649 14.7808C12.1059 14.7029 11.7316 14.736 11.3918 14.8757C11.0519 15.0153 10.7625 15.2549 10.5618 15.5627C10.3612 15.8705 10.2588 16.232 10.2682 16.5993C10.2795 17.0445 10.4544 17.4699 10.7593 17.7945C11.0642 18.1191 11.4779 18.3201 11.9215 18.3593Z" fill="#2B2B2B"/>
<path d="M16.4561 18.3593C16.819 18.3698 17.1768 18.2711 17.4831 18.076C17.7893 17.8809 18.0299 17.5983 18.1737 17.2649C18.3175 16.9314 18.3579 16.5625 18.2897 16.2059C18.2214 15.8492 18.0476 15.5213 17.7909 15.2645C17.5341 15.0077 17.2062 14.834 16.8495 14.7657C16.4929 14.6975 16.1239 14.7379 15.7905 14.8817C15.4571 15.0255 15.1745 15.2661 14.9794 15.5723C14.7842 15.8786 14.6855 16.2363 14.6961 16.5993C14.7095 17.0618 14.8992 17.5018 15.2264 17.829C15.5536 18.1562 15.9935 18.3459 16.4561 18.3593Z" fill="#2B2B2B"/>
<path d="M20.9365 18.3593C21.2995 18.3698 21.6573 18.2711 21.9635 18.076C22.2698 17.8809 22.5104 17.5983 22.6542 17.2649C22.798 16.9314 22.8384 16.5625 22.7701 16.2059C22.7019 15.8492 22.5281 15.5213 22.2713 15.2645C22.0146 15.0077 21.6866 14.834 21.33 14.7657C20.9733 14.6975 20.6044 14.7379 20.271 14.8817C19.9375 15.0255 19.655 15.2661 19.4598 15.5723C19.2647 15.8786 19.166 16.2363 19.1765 16.5993C19.19 17.0618 19.3797 17.5018 19.7069 17.829C20.0341 18.1562 20.474 18.3459 20.9365 18.3593Z" fill="#2B2B2B"/>
<path d="M59.3352 48.1735L57.2552 52.8668L55.1218 48.1735C55.1218 48.1735 55.1218 48.1735 54.7485 47.8002C54.3752 47.4268 54.7485 47.4802 54.3218 47.3735C54.3218 47.3735 53.9485 47.3735 53.7352 47.3735C53.5289 47.2957 53.3014 47.2957 53.0952 47.3735C53.0952 47.3735 52.7752 47.6935 52.6685 47.8002C52.5618 47.9068 52.3485 47.8002 52.2418 48.1735L50.1618 52.8668L48.0818 48.1735C48.0065 47.9439 47.8834 47.7329 47.7204 47.5544C47.5575 47.376 47.3585 47.2342 47.1367 47.1384C46.9148 47.0426 46.6752 46.995 46.4336 46.9987C46.192 47.0025 45.9539 47.0575 45.7352 47.1602C45.5416 47.2465 45.3671 47.3705 45.2218 47.5249C45.0765 47.6793 44.9634 47.861 44.889 48.0595C44.8145 48.258 44.7803 48.4693 44.7882 48.6811C44.7962 48.893 44.8461 49.1011 44.9352 49.2935L48.6685 57.8268C48.847 58.1373 49.1047 58.3949 49.4152 58.5735H50.0552H50.6952C51.0252 58.4027 51.302 58.1444 51.4952 57.8268L53.5752 53.0802L55.7085 57.8268C55.887 58.1373 56.1447 58.3949 56.4552 58.5735C56.6831 58.6279 56.9206 58.6279 57.1485 58.5735H57.7885C58.099 58.3949 58.3566 58.1373 58.5352 57.8268L62.1618 49.7735C62.3239 49.3766 62.3255 48.9324 62.1663 48.5344C62.0071 48.1364 61.6995 47.8158 61.3085 47.6402C60.969 47.4849 60.5859 47.4532 60.2255 47.5506C59.8652 47.648 59.5502 47.8683 59.3352 48.1735Z" fill="#2B2B2B"/>
<path d="M77.5747 48.1733L75.4947 52.8666L73.3613 48.1733C73.3613 48.1733 73.0947 48.1733 72.988 47.8C72.8813 47.4266 72.988 47.48 72.5613 47.3733C72.3551 47.2955 72.1276 47.2955 71.9213 47.3733C71.9213 47.3733 71.548 47.3733 71.3347 47.3733C71.3347 47.3733 71.068 47.64 70.908 47.8C70.748 47.96 70.588 47.8 70.5347 48.1733L68.4013 52.8666L66.3213 48.1733C66.235 47.9797 66.111 47.8052 65.9566 47.66C65.8022 47.5147 65.6205 47.4016 65.422 47.3271C65.2235 47.2527 65.0122 47.2185 64.8004 47.2264C64.5885 47.2343 64.3804 47.2842 64.188 47.3733C63.9897 47.4546 63.8098 47.575 63.659 47.7272C63.5081 47.8794 63.3893 48.0604 63.3098 48.2593C63.2302 48.4583 63.1914 48.6713 63.1956 48.8855C63.1999 49.0998 63.2472 49.311 63.3347 49.5066L66.8547 57.8266C67.0332 58.1371 67.2908 58.3948 67.6013 58.5733H68.2413C68.4692 58.6277 68.7068 58.6277 68.9347 58.5733C69.3627 58.4485 69.7376 58.1861 70.0013 57.8266L72.1347 53.08L74.2147 57.8266C74.3932 58.1371 74.6508 58.3948 74.9613 58.5733C75.1898 58.6223 75.4262 58.6223 75.6547 58.5733H76.2947C76.6203 58.3962 76.8956 58.1393 77.0947 57.8266L80.668 49.5066C80.7555 49.311 80.8028 49.0998 80.807 48.8855C80.8113 48.6713 80.7725 48.4583 80.6929 48.2593C80.6133 48.0604 80.4946 47.8794 80.3437 47.7272C80.1928 47.575 80.0129 47.4546 79.8147 47.3733C79.6173 47.2668 79.3997 47.2029 79.1761 47.1859C78.9525 47.1689 78.7277 47.1991 78.5165 47.2745C78.3053 47.3499 78.1123 47.4689 77.95 47.6238C77.7878 47.7786 77.6599 47.9658 77.5747 48.1733Z" fill="#2B2B2B"/>
<path d="M40.9888 48.1735L38.9088 52.8668L36.8288 48.1735C36.7106 48.038 36.5652 47.929 36.4021 47.8535C36.3429 47.5805 36.1924 47.3359 35.9754 47.1601C35.7692 47.0823 35.5417 47.0823 35.3354 47.1601C35.3354 47.1601 34.9621 47.1601 34.7488 47.1601L34.3221 47.5868C34.3221 47.5868 34.0021 47.5868 33.9488 47.9601L31.8154 52.6535L29.7354 47.9601C29.6546 47.7297 29.5221 47.5208 29.3481 47.3495C29.1741 47.1782 28.9632 47.049 28.7316 46.9718C28.4999 46.8945 28.2536 46.8714 28.0116 46.904C27.7696 46.9367 27.5383 47.0243 27.3354 47.1601C26.9444 47.3357 26.6368 47.6563 26.4776 48.0543C26.3184 48.4523 26.32 48.8966 26.4821 49.2935L30.2688 57.8268C30.4473 58.1373 30.7049 58.3949 31.0154 58.5735H31.6554C31.8833 58.6279 32.1209 58.6279 32.3488 58.5735H32.6688C32.9013 58.3686 33.0837 58.1132 33.2021 57.8268L35.3354 53.0801L37.4154 57.8268C37.594 58.1373 37.8516 58.3949 38.1621 58.5735H38.8021H39.4421C39.831 58.4287 40.1661 58.1681 40.4021 57.8268L43.9754 49.7735C44.1596 49.5791 44.2921 49.3417 44.3607 49.0829C44.4293 48.8241 44.4319 48.5523 44.3682 48.2922C44.3045 48.0322 44.1766 47.7923 43.9962 47.5945C43.8157 47.3967 43.5885 47.2474 43.3354 47.1601C43.1167 47.0575 42.8786 47.0025 42.637 46.9987C42.3954 46.995 42.1557 47.0426 41.9339 47.1384C41.7121 47.2341 41.5131 47.376 41.3502 47.5544C41.1872 47.7328 41.064 47.9438 40.9888 48.1735Z" fill="#2B2B2B"/>
</svg>
