<svg width="131" height="408" viewBox="0 0 131 408" fill="none" xmlns="http://www.w3.org/2000/svg">
<path d="M20.54 92H17.4229V65.3926H20.54V92ZM29.9844 143H25.6426L15.3633 130.828C14.9798 130.37 14.7448 130.061 14.6582 129.9H14.584V143H11.4668V116.393H14.584V128.898H14.6582C14.8314 128.626 15.0664 128.323 15.3633 127.989L25.3086 116.393H29.1865L17.7754 129.158L29.9844 143ZM20.54 194H17.4229V167.393H20.54V194ZM29.335 243.182C26.6631 244.691 23.6943 245.445 20.4287 245.445C16.6312 245.445 13.5573 244.221 11.207 241.771C8.86914 239.322 7.7002 236.081 7.7002 232.049C7.7002 227.93 8.99902 224.553 11.5967 221.918C14.2067 219.271 17.5094 217.947 21.5049 217.947C24.3994 217.947 26.8301 218.417 28.7969 219.357V222.809C26.6445 221.448 24.0964 220.768 21.1523 220.768C18.1712 220.768 15.7282 221.794 13.8232 223.848C11.9183 225.901 10.9658 228.561 10.9658 231.826C10.9658 235.191 11.8503 237.838 13.6191 239.768C15.388 241.685 17.7878 242.644 20.8184 242.644C22.8965 242.644 24.6963 242.229 26.2178 241.4V233.941H20.3916V231.121H29.335V243.182ZM30.8193 296H27.3682L24.5479 288.541H13.2666L10.6133 296H7.14355L17.3486 269.393H20.5771L30.8193 296ZM23.5273 285.739L19.3525 274.402C19.2165 274.031 19.0804 273.438 18.9443 272.621H18.8701C18.7464 273.376 18.6042 273.969 18.4434 274.402L14.3057 285.739H23.5273ZM20.54 347H17.4229V320.393H20.54V347Z" fill="#2B2B2B" fill-opacity="0.25"/>
<path d="M121.834 39.8867C119.867 40.9258 117.418 41.4453 114.486 41.4453C110.701 41.4453 107.671 40.2269 105.395 37.79C103.118 35.3532 101.98 32.1556 101.98 28.1973C101.98 23.9421 103.261 20.5033 105.821 17.8809C108.382 15.2585 111.629 13.9473 115.562 13.9473C118.086 13.9473 120.176 14.3122 121.834 15.042V18.3633C119.929 17.2995 117.826 16.7676 115.525 16.7676C112.47 16.7676 109.99 17.7881 108.085 19.8291C106.192 21.8701 105.246 24.5977 105.246 28.0117C105.246 31.2526 106.131 33.8379 107.899 35.7676C109.681 37.6849 112.012 38.6436 114.895 38.6436C117.566 38.6436 119.88 38.0498 121.834 36.8623V39.8867ZM123.188 92H119.478L115.024 84.541C114.616 83.8483 114.22 83.2607 113.837 82.7783C113.453 82.2835 113.058 81.8815 112.649 81.5723C112.254 81.263 111.821 81.0404 111.351 80.9043C110.893 80.7559 110.373 80.6816 109.792 80.6816H107.231V92H104.114V65.3926H112.056C113.218 65.3926 114.288 65.541 115.266 65.8379C116.255 66.1224 117.109 66.5615 117.826 67.1553C118.556 67.749 119.125 68.4912 119.533 69.3818C119.941 70.2601 120.146 71.293 120.146 72.4805C120.146 73.4082 120.003 74.2617 119.719 75.041C119.447 75.8079 119.051 76.4945 118.531 77.1006C118.024 77.7067 117.406 78.2262 116.676 78.6592C115.958 79.0798 115.148 79.4076 114.245 79.6426V79.7168C114.69 79.9147 115.074 80.1436 115.396 80.4033C115.729 80.6507 116.045 80.9476 116.342 81.2939C116.639 81.6403 116.929 82.0361 117.214 82.4814C117.511 82.9144 117.839 83.4215 118.197 84.0029L123.188 92ZM107.231 68.2129V77.8613H111.462C112.241 77.8613 112.959 77.7438 113.614 77.5088C114.282 77.2738 114.857 76.9398 115.34 76.5068C115.822 76.0615 116.2 75.5234 116.472 74.8926C116.744 74.2493 116.88 73.5319 116.88 72.7402C116.88 71.3177 116.416 70.2106 115.488 69.4189C114.573 68.6149 113.243 68.2129 111.499 68.2129H107.231ZM119.979 143H105.877V116.393H119.385V119.213H108.994V128.063H118.605V130.865H108.994V140.18H119.979V143ZM125.192 194H121.741L118.921 186.541H107.64L104.986 194H101.517L111.722 167.393H114.95L125.192 194ZM117.9 183.739L113.726 172.402C113.59 172.031 113.453 171.438 113.317 170.621H113.243C113.119 171.376 112.977 171.969 112.816 172.402L108.679 183.739H117.9ZM121.259 221.213H113.577V245H110.46V221.213H102.797V218.393H121.259V221.213ZM113.54 296H110.423V269.393H113.54V296ZM123.467 320.393L113.614 347H110.182L100.533 320.393H104.003L111.369 341.489C111.604 342.17 111.784 342.955 111.907 343.846H111.981C112.08 343.104 112.285 342.306 112.594 341.452L120.108 320.393H123.467ZM119.979 398H105.877V371.393H119.385V374.213H108.994V383.063H118.605V385.865H108.994V395.18H119.979V398Z" fill="#2B2B2B" fill-opacity="0.25"/>
</svg>
