<svg width="30" height="30" viewBox="0 0 30 30" fill="none" xmlns="http://www.w3.org/2000/svg">
<path d="M2.26382 12.1603C2.61543 11.8088 3.09226 11.6113 3.58944 11.6113C4.08663 11.6113 4.56345 11.8088 4.91507 12.1603L11.5451 18.7903L24.8013 5.53218C24.9754 5.35797 25.1821 5.21976 25.4096 5.12543C25.6371 5.0311 25.8809 4.98251 26.1272 4.98242C26.3735 4.98233 26.6174 5.03076 26.8449 5.12492C27.0725 5.21909 27.2793 5.35716 27.4535 5.53124C27.6277 5.70532 27.7659 5.91201 27.8603 6.13951C27.9546 6.36701 28.0032 6.61086 28.0033 6.85714C28.0033 7.10342 27.9549 7.3473 27.8608 7.57487C27.7666 7.80243 27.6285 8.00922 27.4544 8.18343L11.5451 24.0928L2.26382 14.8116C1.91231 14.4599 1.71484 13.9831 1.71484 13.4859C1.71484 12.9887 1.91231 12.5119 2.26382 12.1603Z" fill="#4CAF50"/>
</svg>
