<svg width="103" height="103" viewBox="0 0 103 103" fill="none" xmlns="http://www.w3.org/2000/svg">
<path fill-rule="evenodd" clip-rule="evenodd" d="M41.4885 19.7681C34.0491 19.9437 26.9736 23.0224 21.7742 28.346C16.5748 33.6697 13.6641 40.8159 13.6641 48.2573C13.6641 55.6987 16.5748 62.845 21.7742 68.1686C26.9736 73.4922 34.0491 76.5709 41.4885 76.7465H42.7593V54.1585C42.7593 52.4747 44.0459 50.3144 45.7456 50.3144H69.8904C69.8904 49.3772 69.9857 48.7259 69.9857 48.2176C69.948 40.6757 66.932 33.4541 61.5945 28.1255C56.2571 22.797 49.0305 19.7931 41.4885 19.7681ZM64.2354 45.819H56.8967C56.7571 39.9028 55.3828 34.0811 52.8619 28.727C55.9488 30.5043 58.582 32.9724 60.5552 35.9378C62.5285 38.9032 63.7881 42.2853 64.2354 45.819ZM38.2321 27.0909V45.819H31.7194C32.2118 36.8918 35.0234 29.839 38.2321 27.0909ZM38.2321 50.6956V69.4078C35.0552 66.6597 32.2118 59.6387 31.7194 50.6956H38.2321ZM44.7449 45.819V27.0909C47.9218 29.839 50.781 36.8918 51.2576 45.819H44.7449ZM30.0991 28.727C27.6215 34.0954 26.2546 39.9091 26.0803 45.819H18.6939C19.1399 42.2809 20.4024 38.895 22.3818 35.9286C24.3612 32.9623 27.0032 30.4969 30.0991 28.727ZM18.7098 51.5057H26.0962C26.2324 57.4035 27.5957 63.2082 30.0991 68.55C27.0137 66.7812 24.3798 64.3219 22.4038 61.3648C20.4278 58.4077 19.1634 55.0332 18.7098 51.5057Z" fill="#F3F3F3CC" fill-opacity="0.8"/>
<path fill-rule="evenodd" clip-rule="evenodd" d="M85.8686 55.1436H51.2876C50.2344 55.1436 49.2243 55.5619 48.4795 56.3067C47.7348 57.0514 47.3164 58.0615 47.3164 59.1147V78.4147C47.3164 79.4679 47.7348 80.478 48.4795 81.2227C49.2243 81.9675 50.2344 82.3858 51.2876 82.3858H85.8686C86.9218 82.3858 87.9319 81.9675 88.6767 81.2227C89.4214 80.478 89.8398 79.4679 89.8398 78.4147V59.1147C89.8398 58.0615 89.4214 57.0514 88.6767 56.3067C87.9319 55.5619 86.9218 55.1436 85.8686 55.1436ZM55.9418 78.4147C55.9587 77.8055 55.8554 77.199 55.6378 76.6297C55.4202 76.0605 55.0926 75.5397 54.6737 75.0972C54.2547 74.6546 53.7526 74.2989 53.1962 74.0505C52.6397 73.8021 52.0397 73.6657 51.4305 73.6492H51.3035V63.7848C52.5326 63.8148 53.7236 63.3572 54.6165 62.5119C55.5093 61.6667 56.0315 60.5025 56.0689 59.2736V59.1624H81.1826C81.1825 60.3774 81.6608 61.5436 82.514 62.4087C83.3672 63.2738 84.5266 63.7681 85.7415 63.7848H85.8686V73.7128C85.2574 73.698 84.6492 73.8038 84.0789 74.0242C83.5085 74.2445 82.9872 74.5751 82.5446 74.997C82.1021 75.4188 81.747 75.9238 81.4997 76.483C81.2524 77.0421 81.1176 77.6446 81.1032 78.2558V78.3988L55.9418 78.4147Z" fill="#F3F3F3CC" fill-opacity="0.8"/>
<path d="M68.5739 75.0946C72.2585 75.0946 75.2455 72.1077 75.2455 68.423C75.2455 64.7384 72.2585 61.7515 68.5739 61.7515C64.8893 61.7515 61.9023 64.7384 61.9023 68.423C61.9023 72.1077 64.8893 75.0946 68.5739 75.0946Z" fill="#F3F3F3CC" fill-opacity="0.8"/>
</svg>
