<svg width="178" height="155" viewBox="0 0 178 155" fill="none" xmlns="http://www.w3.org/2000/svg">
<path d="M36.0365 0.44458H7.2073C3.03187 0.44458 0 3.47645 0 7.65188V146.993C0 151.168 3.03187 154.2 7.2073 154.2H36.0365H141.744H170.573C174.748 154.2 177.78 151.168 177.78 146.993V7.65188C177.78 3.47645 174.748 0.44458 170.573 0.44458H141.744H36.0365ZM4.80486 146.993V7.65188C4.80486 6.14795 5.70337 5.24944 7.2073 5.24944H33.6341V149.395H7.2073C5.70337 149.395 4.80486 148.497 4.80486 146.993ZM38.4389 149.395V5.24944H139.341V149.395H38.4389ZM172.975 7.65188V146.993C172.975 148.497 172.077 149.395 170.573 149.395H144.146V5.24944H170.573C172.077 5.24944 172.975 6.14795 172.975 7.65188Z" fill="#F3F3F3" fill-opacity="1"/>
<path d="M71.0029 48.8968C70.2678 48.4067 69.3164 48.3587 68.5332 48.7767C67.7596 49.1947 67.2695 50.0067 67.2695 50.8956V108.554C67.2695 109.443 67.7596 110.255 68.538 110.673C68.8936 110.86 69.2828 110.956 69.672 110.956C70.138 110.956 70.5993 110.822 71.0029 110.553L114.247 81.7236C114.915 81.2768 115.318 80.5272 115.318 79.7248C115.318 78.9224 114.915 78.1728 114.247 77.726L71.0029 48.8968ZM72.0744 104.066V55.3834L108.587 79.7248L72.0744 104.066Z" fill="#F3F3F3" fill-opacity="1"/>
<path d="M24.0239 38.8835H14.4142C13.088 38.8835 12.0117 39.9598 12.0117 41.286C12.0117 42.6121 13.088 43.6884 14.4142 43.6884H24.0239C25.35 43.6884 26.4263 42.6121 26.4263 41.286C26.4263 39.9598 25.35 38.8835 24.0239 38.8835Z" fill="#F3F3F3" fill-opacity="1"/>
<path d="M14.4142 24.4689H24.0239C25.35 24.4689 26.4263 23.3926 26.4263 22.0665C26.4263 20.7404 25.35 19.6641 24.0239 19.6641H14.4142C13.088 19.6641 12.0117 20.7404 12.0117 22.0665C12.0117 23.3926 13.088 24.4689 14.4142 24.4689Z" fill="#F3F3F3" fill-opacity="1"/>
<path d="M24.0239 58.1029H14.4142C13.088 58.1029 12.0117 59.1792 12.0117 60.5053C12.0117 61.8315 13.088 62.9078 14.4142 62.9078H24.0239C25.35 62.9078 26.4263 61.8315 26.4263 60.5053C26.4263 59.1792 25.35 58.1029 24.0239 58.1029Z" fill="#F3F3F3" fill-opacity="1"/>
<path d="M24.0239 77.3224H14.4142C13.088 77.3224 12.0117 78.3987 12.0117 79.7248C12.0117 81.051 13.088 82.1273 14.4142 82.1273H24.0239C25.35 82.1273 26.4263 81.051 26.4263 79.7248C26.4263 78.3987 25.35 77.3224 24.0239 77.3224Z" fill="#F3F3F3" fill-opacity="1"/>
<path d="M24.0239 96.5419H14.4142C13.088 96.5419 12.0117 97.6182 12.0117 98.9443C12.0117 100.27 13.088 101.347 14.4142 101.347H24.0239C25.35 101.347 26.4263 100.27 26.4263 98.9443C26.4263 97.6182 25.35 96.5419 24.0239 96.5419Z" fill="#F3F3F3" fill-opacity="1"/>
<path d="M24.0239 115.761H14.4142C13.088 115.761 12.0117 116.838 12.0117 118.164C12.0117 119.49 13.088 120.566 14.4142 120.566H24.0239C25.35 120.566 26.4263 119.49 26.4263 118.164C26.4263 116.838 25.35 115.761 24.0239 115.761Z" fill="#F3F3F3" fill-opacity="1"/>
<path d="M24.0239 134.981H14.4142C13.088 134.981 12.0117 136.057 12.0117 137.383C12.0117 138.709 13.088 139.786 14.4142 139.786H24.0239C25.35 139.786 26.4263 138.709 26.4263 137.383C26.4263 136.057 25.35 134.981 24.0239 134.981Z" fill="#F3F3F3" fill-opacity="1"/>
<path d="M153.754 43.6884H163.364C164.69 43.6884 165.766 42.6121 165.766 41.286C165.766 39.9598 164.69 38.8835 163.364 38.8835H153.754C152.428 38.8835 151.352 39.9598 151.352 41.286C151.352 42.6121 152.428 43.6884 153.754 43.6884Z" fill="#F3F3F3" fill-opacity="1"/>
<path d="M153.754 24.4689H163.364C164.69 24.4689 165.766 23.3926 165.766 22.0665C165.766 20.7404 164.69 19.6641 163.364 19.6641H153.754C152.428 19.6641 151.352 20.7404 151.352 22.0665C151.352 23.3926 152.428 24.4689 153.754 24.4689Z" fill="#F3F3F3" fill-opacity="1"/>
<path d="M153.754 62.9078H163.364C164.69 62.9078 165.766 61.8315 165.766 60.5053C165.766 59.1792 164.69 58.1029 163.364 58.1029H153.754C152.428 58.1029 151.352 59.1792 151.352 60.5053C151.352 61.8315 152.428 62.9078 153.754 62.9078Z" fill="#F3F3F3" fill-opacity="1"/>
<path d="M153.754 82.1273H163.364C164.69 82.1273 165.766 81.051 165.766 79.7248C165.766 78.3987 164.69 77.3224 163.364 77.3224H153.754C152.428 77.3224 151.352 78.3987 151.352 79.7248C151.352 81.051 152.428 82.1273 153.754 82.1273Z" fill="#F3F3F3" fill-opacity="1"/>
<path d="M153.754 101.347H163.364C164.69 101.347 165.766 100.27 165.766 98.9443C165.766 97.6182 164.69 96.5419 163.364 96.5419H153.754C152.428 96.5419 151.352 97.6182 151.352 98.9443C151.352 100.27 152.428 101.347 153.754 101.347Z" fill="#F3F3F3" fill-opacity="1"/>
<path d="M153.754 120.566H163.364C164.69 120.566 165.766 119.49 165.766 118.164C165.766 116.838 164.69 115.761 163.364 115.761H153.754C152.428 115.761 151.352 116.838 151.352 118.164C151.352 119.49 152.428 120.566 153.754 120.566Z" fill="#F3F3F3" fill-opacity="1"/>
<path d="M163.364 134.981H153.754C152.428 134.981 151.352 136.057 151.352 137.383C151.352 138.709 152.428 139.786 153.754 139.786H163.364C164.69 139.786 165.766 138.709 165.766 137.383C165.766 136.057 164.69 134.981 163.364 134.981Z" fill="#F3F3F3" fill-opacity="1"/>
</svg>
