<svg width="677" height="349" viewBox="0 0 677 349" fill="none" xmlns="http://www.w3.org/2000/svg">
<path d="M501.777 341.821C502.446 341.821 502.985 342.36 502.985 343.029C502.985 343.696 502.445 344.236 501.777 344.236C501.111 344.236 500.57 343.696 500.57 343.029C500.569 342.36 501.111 341.821 501.777 341.821Z" fill="#0088CC"/>
<path d="M523.518 340.612C524.851 340.612 525.936 341.694 525.936 343.029C525.936 344.364 524.852 345.443 523.518 345.443C522.185 345.443 521.102 344.364 521.102 343.029C521.102 341.694 522.185 340.612 523.518 340.612Z" fill="#0088CC"/>
<path d="M545.256 339.406C547.255 339.406 548.879 341.027 548.879 343.029C548.879 345.029 547.255 346.651 545.256 346.651C543.253 346.651 541.629 345.029 541.629 343.029C541.63 341.027 543.254 339.406 545.256 339.406Z" fill="#0088CC"/>
<path d="M566.992 340.486C568.397 340.486 569.537 341.624 569.537 343.029C569.537 344.432 568.397 345.573 566.992 345.573C565.589 345.573 564.449 344.434 564.449 343.029C564.448 341.624 565.589 340.486 566.992 340.486Z" fill="#0088CC"/>
<path d="M588.728 341.502C589.572 341.502 590.257 342.185 590.257 343.029C590.257 343.872 589.573 344.555 588.728 344.555C587.885 344.555 587.203 343.872 587.203 343.029C587.203 342.185 587.886 341.502 588.728 341.502Z" fill="#0088CC"/>
<path d="M610.467 342.01C611.03 342.01 611.485 342.467 611.485 343.028C611.485 343.591 611.03 344.046 610.467 344.046C609.907 344.046 609.449 343.591 609.449 343.028C609.449 342.467 609.906 342.01 610.467 342.01Z" fill="#0088CC"/>
<path d="M632.204 342.52C632.485 342.52 632.713 342.748 632.713 343.029C632.713 343.309 632.485 343.538 632.204 343.538C631.925 343.538 631.695 343.309 631.695 343.029C631.695 342.748 631.925 342.52 632.204 342.52Z" fill="#0088CC"/>
<path d="M501.283 330.415C501.951 330.368 502.528 330.869 502.575 331.535C502.62 332.202 502.117 332.779 501.452 332.825C500.787 332.872 500.211 332.368 500.163 331.703C500.117 331.037 500.619 330.462 501.283 330.415Z" fill="#0088CC"/>
<path d="M522.885 327.691C524.215 327.6 525.37 328.602 525.464 329.934C525.558 331.267 524.554 332.419 523.223 332.511C521.894 332.604 520.738 331.604 520.643 330.271C520.55 328.94 521.557 327.786 522.885 327.691Z" fill="#0088CC"/>
<path d="M544.485 324.972C546.479 324.832 548.212 326.337 548.353 328.332C548.496 330.33 546.985 332.06 544.993 332.2C542.994 332.339 541.262 330.834 541.122 328.839C540.984 326.843 542.489 325.112 544.485 324.972Z" fill="#0088CC"/>
<path d="M566.245 324.533C567.648 324.435 568.865 325.492 568.961 326.893C569.058 328.296 568.001 329.512 566.601 329.609C565.2 329.707 563.984 328.65 563.885 327.249C563.788 325.846 564.845 324.629 566.245 324.533Z" fill="#0088CC"/>
<path d="M587.999 324.031C588.84 323.973 589.569 324.607 589.63 325.448C589.687 326.29 589.054 327.018 588.211 327.078C587.37 327.137 586.641 326.502 586.582 325.66C586.524 324.82 587.159 324.09 587.999 324.031Z" fill="#0088CC"/>
<path d="M609.717 323.022C610.278 322.983 610.764 323.406 610.805 323.967C610.844 324.527 610.421 325.014 609.861 325.053C609.301 325.093 608.814 324.67 608.772 324.108C608.734 323.546 609.157 323.061 609.717 323.022Z" fill="#0088CC"/>
<path d="M631.44 322.013C631.72 321.994 631.964 322.206 631.984 322.486C632.005 322.766 631.793 323.009 631.513 323.03C631.233 323.049 630.988 322.839 630.966 322.556C630.949 322.276 631.16 322.032 631.44 322.013Z" fill="#0088CC"/>
<path d="M497.918 307.845C498.57 307.706 499.213 308.122 499.351 308.776C499.488 309.428 499.073 310.068 498.419 310.208C497.769 310.346 497.125 309.929 496.988 309.277C496.848 308.623 497.267 307.982 497.918 307.845Z" fill="#0088CC"/>
<path d="M518.93 302.142C520.236 301.864 521.52 302.698 521.797 304.003C522.074 305.308 521.24 306.59 519.935 306.866C518.63 307.143 517.346 306.313 517.069 305.007C516.791 303.701 517.628 302.42 518.93 302.142Z" fill="#0088CC"/>
<path d="M539.942 296.442C541.898 296.026 543.824 297.276 544.239 299.233C544.656 301.19 543.403 303.115 541.45 303.53C539.493 303.946 537.566 302.697 537.15 300.74C536.733 298.784 537.986 296.859 539.942 296.442Z" fill="#0088CC"/>
<path d="M560.948 290.741C563.557 290.188 566.124 291.851 566.677 294.461C567.234 297.07 565.568 299.636 562.957 300.191C560.351 300.747 557.784 299.079 557.227 296.47C556.675 293.86 558.34 291.295 560.948 290.741Z" fill="#0088CC"/>
<path d="M581.964 285.041C585.225 284.347 588.433 286.43 589.126 289.692C589.819 292.954 587.736 296.162 584.474 296.855C581.212 297.549 578.006 295.464 577.313 292.202C576.619 288.942 578.699 285.734 581.964 285.041Z" fill="#0088CC"/>
<path d="M603.74 282.943C605.663 282.534 607.555 283.762 607.963 285.685C608.375 287.61 607.144 289.502 605.222 289.908C603.297 290.318 601.404 289.09 600.997 287.167C600.587 285.243 601.815 283.352 603.74 282.943Z" fill="#0088CC"/>
<path d="M625.003 278.425C626.926 278.016 628.82 279.244 629.228 281.168C629.635 283.091 628.406 284.983 626.482 285.393C624.559 285.802 622.669 284.574 622.257 282.65C621.851 280.725 623.08 278.834 625.003 278.425Z" fill="#0088CC"/>
<path d="M645.946 272.412C648.695 271.827 651.395 273.581 651.98 276.331C652.564 279.079 650.809 281.781 648.061 282.365C645.312 282.948 642.611 281.196 642.026 278.445C641.443 275.696 643.196 272.996 645.946 272.412Z" fill="#0088CC"/>
<path d="M667.422 268.888C669.62 268.421 671.783 269.825 672.252 272.024C672.718 274.222 671.314 276.385 669.116 276.853C666.917 277.319 664.755 275.915 664.289 273.717C663.822 271.517 665.224 269.354 667.422 268.888Z" fill="#0088CC"/>
<path d="M511.458 277.39C512.713 276.935 514.096 277.581 514.552 278.835C515.01 280.09 514.361 281.474 513.109 281.929C511.856 282.386 510.47 281.743 510.014 280.487C509.557 279.233 510.204 277.845 511.458 277.39Z" fill="#0088CC"/>
<path d="M531.469 268.822C533.348 268.139 535.429 269.108 536.112 270.987C536.798 272.868 535.825 274.947 533.946 275.632C532.064 276.315 529.984 275.346 529.301 273.466C528.618 271.587 529.588 269.507 531.469 268.822Z" fill="#0088CC"/>
<path d="M551.483 260.253C553.99 259.34 556.763 260.632 557.676 263.138C558.589 265.644 557.295 268.418 554.788 269.331C552.282 270.243 549.507 268.95 548.597 266.442C547.684 263.935 548.979 261.166 551.483 260.253Z" fill="#0088CC"/>
<path d="M571.494 251.682C574.629 250.541 578.095 252.157 579.236 255.291C580.376 258.425 578.76 261.891 575.627 263.032C572.491 264.173 569.026 262.556 567.885 259.421C566.745 256.29 568.36 252.826 571.494 251.682Z" fill="#0088CC"/>
<path d="M591.507 243.113C595.267 241.745 599.428 243.683 600.796 247.444C602.165 251.206 600.226 255.361 596.463 256.729C592.703 258.098 588.549 256.162 587.177 252.402C585.809 248.641 587.748 244.481 591.507 243.113Z" fill="#0088CC"/>
<path d="M612.325 236.751C615.493 235.599 618.999 237.231 620.151 240.401C621.303 243.569 619.67 247.072 616.501 248.226C613.335 249.378 609.83 247.745 608.68 244.577C607.525 241.408 609.157 237.905 612.325 236.751Z" fill="#0088CC"/>
<path d="M633.798 232.184C635.383 231.608 637.135 232.425 637.711 234.01C638.287 235.595 637.469 237.345 635.887 237.922C634.302 238.498 632.55 237.682 631.974 236.096C631.397 234.513 632.214 232.76 633.798 232.184Z" fill="#0088CC"/>
<path d="M654.226 224.75C655.808 224.174 657.56 224.99 658.137 226.575C658.712 228.159 657.896 229.909 656.311 230.488C654.728 231.064 652.977 230.248 652.398 228.665C651.824 227.08 652.641 225.327 654.226 224.75Z" fill="#0088CC"/>
<path d="M500.61 253.922C501.787 253.296 503.252 253.742 503.877 254.92C504.502 256.099 504.055 257.561 502.876 258.185C501.7 258.811 500.237 258.367 499.61 257.188C498.986 256.01 499.432 254.545 500.61 253.922Z" fill="#0088CC"/>
<path d="M519.236 242.649C521.001 241.713 523.196 242.381 524.136 244.147C525.076 245.916 524.403 248.109 522.639 249.049C520.869 249.987 518.676 249.319 517.736 247.552C516.798 245.784 517.47 243.587 519.236 242.649Z" fill="#0088CC"/>
<path d="M537.861 231.378C540.217 230.126 543.142 231.02 544.395 233.374C545.648 235.731 544.752 238.655 542.397 239.908C540.041 241.163 537.116 240.265 535.863 237.91C534.61 235.556 535.506 232.631 537.861 231.378Z" fill="#0088CC"/>
<path d="M556.486 220.107C559.431 218.541 563.088 219.659 564.656 222.604C566.22 225.548 565.1 229.205 562.158 230.77C559.211 232.337 555.553 231.217 553.989 228.273C552.424 225.33 553.54 221.675 556.486 220.107Z" fill="#0088CC"/>
<path d="M576.604 211.639C578.59 210.584 581.056 211.337 582.112 213.322C583.168 215.306 582.413 217.773 580.428 218.827C578.443 219.881 575.979 219.131 574.924 217.144C573.866 215.16 574.621 212.694 576.604 211.639Z" fill="#0088CC"/>
<path d="M596.519 202.783C597.758 202.122 599.3 202.594 599.958 203.834C600.618 205.075 600.147 206.616 598.905 207.276C597.664 207.935 596.124 207.465 595.468 206.224C594.806 204.981 595.277 203.441 596.519 202.783Z" fill="#0088CC"/>
<path d="M615.948 193.025C616.941 192.497 618.173 192.875 618.699 193.868C619.228 194.86 618.85 196.091 617.858 196.619C616.865 197.147 615.635 196.77 615.104 195.777C614.579 194.786 614.956 193.553 615.948 193.025Z" fill="#0088CC"/>
<path d="M635.141 182.822C636.134 182.295 637.367 182.671 637.895 183.663C638.421 184.654 638.043 185.886 637.052 186.414C636.061 186.942 634.829 186.564 634.301 185.573C633.773 184.582 634.151 183.35 635.141 182.822Z" fill="#0088CC"/>
<path d="M486.605 232.189C487.685 231.405 489.195 231.644 489.981 232.723C490.765 233.804 490.525 235.313 489.443 236.097C488.365 236.881 486.856 236.645 486.072 235.563C485.286 234.482 485.526 232.971 486.605 232.189Z" fill="#0088CC"/>
<path d="M503.479 218.434C505.096 217.26 507.363 217.617 508.54 219.234C509.716 220.856 509.356 223.121 507.739 224.295C506.119 225.473 503.853 225.116 502.677 223.496C501.499 221.878 501.861 219.611 503.479 218.434Z" fill="#0088CC"/>
<path d="M520.353 204.681C522.512 203.113 525.532 203.592 527.101 205.75C528.671 207.908 528.191 210.931 526.032 212.498C523.874 214.068 520.852 213.588 519.287 211.428C517.719 209.268 518.196 206.248 520.353 204.681Z" fill="#0088CC"/>
<path d="M538.088 192.107C540.134 190.62 542.998 191.075 544.483 193.12C545.972 195.166 545.517 198.031 543.47 199.517C541.423 201.005 538.561 200.55 537.075 198.503C535.588 196.459 536.04 193.595 538.088 192.107Z" fill="#0088CC"/>
<path d="M556.573 180.565C557.937 179.574 559.846 179.876 560.839 181.24C561.832 182.605 561.526 184.513 560.164 185.504C558.801 186.495 556.89 186.193 555.9 184.831C554.909 183.466 555.211 181.555 556.573 180.565Z" fill="#0088CC"/>
<path d="M575.057 169.023C575.737 168.528 576.693 168.678 577.187 169.361C577.683 170.043 577.53 170.996 576.849 171.492C576.167 171.987 575.212 171.836 574.718 171.154C574.222 170.472 574.372 169.519 575.057 169.023Z" fill="#0088CC"/>
<path d="M592.942 156.657C593.399 156.327 594.033 156.428 594.365 156.883C594.694 157.338 594.594 157.973 594.139 158.304C593.686 158.634 593.05 158.533 592.72 158.078C592.386 157.625 592.489 156.988 592.942 156.657Z" fill="#0088CC"/>
<path d="M610.825 144.292C611.054 144.127 611.371 144.179 611.537 144.404C611.7 144.633 611.65 144.949 611.425 145.114C611.196 145.278 610.879 145.229 610.713 145.001C610.55 144.775 610.6 144.459 610.825 144.292Z" fill="#0088CC"/>
<path d="M469.711 212.618C470.668 211.69 472.197 211.718 473.127 212.677C474.054 213.637 474.026 215.166 473.065 216.091C472.108 217.017 470.579 216.994 469.651 216.033C468.724 215.071 468.75 213.542 469.711 212.618Z" fill="#0088CC"/>
<path d="M484.509 196.647C485.948 195.258 488.241 195.297 489.631 196.735C491.023 198.174 490.979 200.47 489.542 201.859C488.104 203.251 485.808 203.21 484.416 201.771C483.029 200.333 483.071 198.038 484.509 196.647Z" fill="#0088CC"/>
<path d="M499.303 180.68C501.222 178.826 504.28 178.878 506.134 180.799C507.986 182.718 507.934 185.777 506.013 187.631C504.097 189.483 501.036 189.43 499.185 187.51C497.33 185.59 497.384 182.533 499.303 180.68Z" fill="#0088CC"/>
<path d="M514.101 164.71C516.499 162.393 520.321 162.46 522.641 164.86C524.957 167.258 524.889 171.081 522.491 173.4C520.093 175.717 516.27 175.65 513.95 173.25C511.637 170.852 511.703 167.03 514.101 164.71Z" fill="#0088CC"/>
<path d="M531.105 151.026C532.722 149.464 535.3 149.509 536.863 151.126C538.424 152.744 538.38 155.322 536.761 156.883C535.147 158.444 532.568 158.4 531.007 156.783C529.443 155.165 529.49 152.587 531.105 151.026Z" fill="#0088CC"/>
<path d="M547.805 137.024C548.816 136.046 550.429 136.074 551.403 137.087C552.377 138.096 552.351 139.709 551.34 140.685C550.329 141.66 548.716 141.632 547.743 140.622C546.766 139.611 546.791 137.999 547.805 137.024Z" fill="#0088CC"/>
<path d="M564.146 122.655C564.756 122.07 565.719 122.087 566.303 122.693C566.891 123.301 566.874 124.265 566.268 124.852C565.66 125.437 564.694 125.42 564.108 124.814C563.523 124.208 563.539 123.241 564.146 122.655Z" fill="#0088CC"/>
<path d="M573.295 100.835C577.615 96.6658 584.495 96.7834 588.664 101.101C592.835 105.42 592.714 112.301 588.397 116.472C584.08 120.641 577.199 120.52 573.029 116.203C568.857 111.887 568.977 105.006 573.295 100.835Z" fill="#0088CC"/>
<path d="M437.825 213.459C438.238 212.933 438.994 212.841 439.522 213.251C440.047 213.661 440.139 214.42 439.728 214.946C439.32 215.471 438.56 215.565 438.035 215.155C437.507 214.745 437.418 213.984 437.825 213.459Z" fill="#0088CC"/>
<path d="M450.253 195.587C451.075 194.536 452.594 194.349 453.647 195.171C454.697 195.993 454.882 197.511 454.06 198.562C453.242 199.611 451.723 199.801 450.67 198.978C449.619 198.156 449.434 196.636 450.253 195.587Z" fill="#0088CC"/>
<path d="M462.688 177.715C463.92 176.14 466.195 175.858 467.773 177.089C469.349 178.321 469.627 180.599 468.397 182.175C467.164 183.753 464.886 184.033 463.31 182.802C461.732 181.569 461.455 179.29 462.688 177.715Z" fill="#0088CC"/>
<path d="M475.117 159.842C476.761 157.739 479.797 157.366 481.899 159.008C484.002 160.65 484.374 163.688 482.732 165.789C481.09 167.891 478.053 168.265 475.952 166.621C473.847 164.979 473.476 161.944 475.117 159.842Z" fill="#0088CC"/>
<path d="M487.55 141.968C489.603 139.339 493.4 138.873 496.027 140.927C498.654 142.981 499.119 146.777 497.067 149.405C495.013 152.034 491.218 152.499 488.59 150.445C485.962 148.393 485.497 144.598 487.55 141.968Z" fill="#0088CC"/>
<path d="M503.687 126.99C504.552 125.884 506.151 125.685 507.26 126.552C508.366 127.417 508.563 129.016 507.698 130.123C506.833 131.23 505.233 131.426 504.127 130.563C503.019 129.697 502.823 128.097 503.687 126.99Z" fill="#0088CC"/>
<path d="M529.649 92.1046C530.86 90.5562 533.099 90.2804 534.649 91.4914C536.2 92.7024 536.474 94.9396 535.262 96.4908C534.052 98.0406 531.811 98.315 530.261 97.104C528.713 95.893 528.44 93.6544 529.649 92.1046Z" fill="#0088CC"/>
<path d="M538.219 71.2166C541.508 67.0096 547.584 66.2606 551.791 69.5492C556.001 72.8364 556.745 78.9138 553.458 83.1222C550.17 87.3292 544.094 88.0754 539.887 84.7882C535.682 81.4996 534.935 75.4236 538.219 71.2166Z" fill="#0088CC"/>
<path d="M418.797 200.861C419.133 200.281 419.871 200.084 420.45 200.416C421.027 200.75 421.225 201.489 420.89 202.068C420.56 202.643 419.818 202.843 419.239 202.509C418.663 202.175 418.467 201.436 418.797 200.861Z" fill="#0088CC"/>
<path d="M428.619 181.43C429.287 180.275 430.764 179.878 431.92 180.545C433.075 181.213 433.47 182.69 432.804 183.845C432.136 184.999 430.659 185.396 429.503 184.729C428.349 184.061 427.956 182.584 428.619 181.43Z" fill="#0088CC"/>
<path d="M438.444 162.001C439.445 160.269 441.658 159.674 443.391 160.674C445.125 161.673 445.717 163.892 444.719 165.623C443.718 167.357 441.501 167.951 439.768 166.951C438.035 165.95 437.443 163.733 438.444 162.001Z" fill="#0088CC"/>
<path d="M448.265 142.572C449.599 140.262 452.554 139.468 454.864 140.802C457.174 142.136 457.967 145.092 456.633 147.403C455.298 149.713 452.343 150.504 450.033 149.17C447.722 147.837 446.932 144.883 448.265 142.572Z" fill="#0088CC"/>
<path d="M458.09 123.143C459.756 120.254 463.452 119.265 466.339 120.932C469.229 122.599 470.218 126.294 468.55 129.182C466.882 132.07 463.189 133.06 460.299 131.391C457.414 129.725 456.424 126.032 458.09 123.143Z" fill="#0088CC"/>
<path d="M490.195 66.3782C492.024 63.2156 496.067 62.132 499.231 63.9576C502.395 65.7846 503.477 69.8278 501.65 72.9918C499.826 76.1558 495.78 77.2408 492.615 75.4138C489.453 73.5882 488.37 69.5408 490.195 66.3782Z" fill="#0088CC"/>
<path d="M499.301 46.5374C501.688 42.4004 506.981 40.9822 511.117 43.3706C515.255 45.7576 516.672 51.0496 514.284 55.1866C511.897 59.3236 506.606 60.7404 502.466 58.352C498.329 55.9636 496.913 50.673 499.301 46.5374Z" fill="#0088CC"/>
<path d="M398.202 191.03C398.454 190.41 399.155 190.112 399.774 190.359C400.391 190.61 400.691 191.313 400.442 191.933C400.192 192.549 399.487 192.85 398.868 192.601C398.248 192.352 397.952 191.647 398.202 191.03Z" fill="#0088CC"/>
<path d="M405.228 170.422C405.727 169.184 407.134 168.587 408.373 169.086C409.609 169.588 410.207 170.995 409.705 172.232C409.207 173.468 407.8 174.066 406.561 173.566C405.323 173.065 404.727 171.657 405.228 170.422Z" fill="#0088CC"/>
<path d="M412.249 149.814C412.998 147.962 415.11 147.063 416.964 147.811C418.82 148.561 419.716 150.674 418.967 152.527C418.217 154.384 416.104 155.281 414.249 154.533C412.397 153.783 411.5 151.669 412.249 149.814Z" fill="#0088CC"/>
<path d="M419.27 129.209C420.27 126.734 423.085 125.538 425.558 126.538C428.033 127.536 429.227 130.355 428.228 132.826C427.229 135.3 424.413 136.496 421.94 135.495C419.466 134.497 418.272 131.683 419.27 129.209Z" fill="#0088CC"/>
<path d="M426.296 108.601C427.546 105.507 431.066 104.014 434.158 105.263C437.25 106.512 438.742 110.034 437.495 113.126C436.244 116.218 432.726 117.711 429.634 116.462C426.541 115.213 425.049 111.695 426.296 108.601Z" fill="#0088CC"/>
<path d="M446.765 69.9804C447.08 69.1992 447.969 68.8212 448.75 69.1376C449.534 69.4526 449.909 70.343 449.594 71.1242C449.278 71.9054 448.39 72.282 447.608 71.9684C446.825 71.652 446.447 70.7616 446.765 69.9804Z" fill="#0088CC"/>
<path d="M448.775 47.348C450.46 43.1802 455.203 41.167 459.371 42.8526C463.54 44.5368 465.554 49.28 463.869 53.4478C462.187 57.6156 457.441 59.6316 453.273 57.946C449.105 56.2632 447.09 51.5172 448.775 47.348Z" fill="#0088CC"/>
<path d="M457.389 27.3854C458.969 23.478 463.416 21.588 467.322 23.1686C471.234 24.7478 473.121 29.1956 471.542 33.1044C469.964 37.0132 465.515 38.9004 461.606 37.3212C457.697 35.742 455.812 31.2942 457.389 27.3854Z" fill="#0088CC"/>
<path d="M376.437 184.162C376.6 183.513 377.255 183.12 377.903 183.28C378.55 183.442 378.943 184.097 378.782 184.745C378.623 185.391 377.965 185.786 377.318 185.625C376.67 185.464 376.279 184.807 376.437 184.162Z" fill="#0088CC"/>
<path d="M380.529 162.777C380.851 161.483 382.161 160.695 383.459 161.017C384.754 161.34 385.539 162.652 385.216 163.946C384.894 165.238 383.582 166.029 382.286 165.704C380.993 165.382 380.208 164.069 380.529 162.777Z" fill="#0088CC"/>
<path d="M384.616 141.392C385.102 139.453 387.065 138.27 389.008 138.753C390.951 139.237 392.13 141.205 391.647 143.144C391.163 145.088 389.197 146.269 387.253 145.788C385.314 145.302 384.132 143.333 384.616 141.392Z" fill="#0088CC"/>
<path d="M388.699 120.009C389.345 117.419 391.967 115.844 394.555 116.49C397.145 117.134 398.72 119.759 398.075 122.347C397.431 124.936 394.807 126.511 392.219 125.864C389.63 125.219 388.054 122.598 388.699 120.009Z" fill="#0088CC"/>
<path d="M392.789 98.6244C393.595 95.389 396.874 93.4192 400.108 94.2256C403.344 95.0334 405.312 98.3108 404.508 101.546C403.702 104.783 400.423 106.753 397.186 105.945C393.952 105.139 391.985 101.863 392.789 98.6244Z" fill="#0088CC"/>
<path d="M406.697 57.2866C407.037 55.923 408.419 55.0942 409.781 55.433C411.145 55.7732 411.972 57.1536 411.635 58.5172C411.294 59.8794 409.914 60.7096 408.55 60.3694C407.187 60.0306 406.358 58.6502 406.697 57.2866Z" fill="#0088CC"/>
<path d="M407.51 35.0868C408.464 31.2704 412.33 28.9478 416.145 29.8998C419.964 30.8518 422.285 34.7158 421.335 38.5322C420.383 42.3486 416.517 44.6726 412.698 43.722C408.883 42.77 406.559 38.9032 407.51 35.0868Z" fill="#0088CC"/>
<path d="M413.264 14.119C414.148 10.5756 417.737 8.41681 421.282 9.30161C424.827 10.1836 426.983 13.7746 426.101 17.3194C425.217 20.8642 421.626 23.0188 418.082 22.1368C414.538 21.252 412.381 17.6638 413.264 14.119Z" fill="#0088CC"/>
<path d="M358.221 93.4094C358.568 90.0928 361.542 87.6862 364.858 88.0348C368.172 88.3848 370.579 91.357 370.231 94.6736C369.883 97.9902 366.911 100.397 363.593 100.048C360.277 99.6968 357.874 96.7274 358.221 93.4094Z" fill="#0088CC"/>
<path d="M365.227 50.4308C365.434 48.475 367.185 47.054 369.144 47.2598C371.101 47.4656 372.518 49.2198 372.313 51.1756C372.109 53.1314 370.355 54.551 368.399 54.3452C366.44 54.1394 365.022 52.3866 365.227 50.4308Z" fill="#0088CC"/>
<path d="M364.967 28.5474C365.319 25.193 368.325 22.7626 371.679 23.114C375.033 23.4654 377.465 26.4698 377.112 29.8228C376.76 33.1772 373.755 35.6118 370.402 35.2576C367.048 34.9062 364.616 31.9004 364.967 28.5474Z" fill="#0088CC"/>
<path d="M367.746 6.98183C368.069 3.90743 370.825 1.67583 373.896 1.99923C376.972 2.32123 379.204 5.07783 378.88 8.15083C378.558 11.2252 375.803 13.4554 372.73 13.132C369.653 12.8114 367.423 10.0562 367.746 6.98183Z" fill="#0088CC"/>
<path d="M323.258 93.0566C323.141 89.7246 325.75 86.926 329.083 86.8098C332.415 86.6936 335.212 89.3032 335.328 92.6352C335.445 95.9686 332.836 98.7644 329.503 98.8806C326.171 98.9968 323.377 96.3914 323.258 93.0566Z" fill="#0088CC"/>
<path d="M323.198 49.5572C323.11 47.0288 325.09 44.9078 327.617 44.8182C330.145 44.73 332.263 46.7096 332.353 49.2366C332.441 51.765 330.464 53.8846 327.937 53.9728C325.409 54.0624 323.288 52.0842 323.198 49.5572Z" fill="#0088CC"/>
<path d="M321.933 27.8502C321.835 25.0418 324.031 22.6856 326.841 22.589C329.65 22.4896 332.006 24.6876 332.104 27.496C332.202 30.3044 330.005 32.662 327.195 32.76C324.386 32.8566 322.028 30.6586 321.933 27.8502Z" fill="#0088CC"/>
<path d="M321.683 6.10964C321.593 3.58264 323.57 1.45884 326.098 1.37204C328.625 1.28384 330.746 3.26204 330.836 5.79044C330.924 8.31744 328.946 10.437 326.417 10.5266C323.892 10.6148 321.769 8.63524 321.683 6.10964Z" fill="#0088CC"/>
<path d="M298.52 139.966C298.175 137.998 299.488 136.116 301.458 135.769C303.431 135.422 305.308 136.739 305.658 138.708C306.005 140.68 304.688 142.561 302.72 142.908C300.748 143.254 298.868 141.936 298.52 139.966Z" fill="#0088CC"/>
<path d="M293.554 118.77C293.092 116.143 294.845 113.637 297.472 113.175C300.101 112.71 302.607 114.465 303.067 117.093C303.534 119.718 301.778 122.226 299.149 122.688C296.522 123.151 294.018 121.395 293.554 118.77Z" fill="#0088CC"/>
<path d="M288.589 97.5716C288.01 94.2872 290.204 91.1554 293.489 90.5744C296.773 89.9962 299.905 92.19 300.486 95.4744C301.064 98.7588 298.87 101.892 295.583 102.47C292.303 103.048 289.172 100.857 288.589 97.5716Z" fill="#0088CC"/>
<path d="M285.249 76.0886C284.716 73.045 286.748 70.1414 289.792 69.6038C292.837 69.0676 295.738 71.099 296.275 74.144C296.813 77.1876 294.782 80.0912 291.738 80.626C288.692 81.165 285.785 79.1322 285.249 76.0886Z" fill="#0088CC"/>
<path d="M281.977 54.5916C281.487 51.8252 283.338 49.1848 286.103 48.6962C288.872 48.209 291.51 50.0584 291.998 52.8248C292.487 55.5912 290.636 58.2302 287.871 58.7174C285.103 59.206 282.464 57.358 281.977 54.5916Z" fill="#0088CC"/>
<path d="M278.703 33.096C278.264 30.6068 279.927 28.231 282.419 27.7928C284.908 27.3532 287.282 29.0164 287.721 31.507C288.16 33.9976 286.5 36.372 284.009 36.8116C281.517 37.2512 279.141 35.5866 278.703 33.096Z" fill="#0088CC"/>
<path d="M275.93 11.5136C275.588 9.57743 276.882 7.72803 278.819 7.38783C280.756 7.04483 282.602 8.33983 282.945 10.276C283.287 12.2136 281.992 14.0602 280.056 14.4018C278.119 14.7434 276.273 13.4498 275.93 11.5136Z" fill="#0088CC"/>
<path d="M286.352 188.07C286.147 187.433 286.493 186.754 287.127 186.547C287.763 186.341 288.443 186.687 288.649 187.324C288.855 187.956 288.509 188.639 287.875 188.846C287.239 189.053 286.558 188.702 286.352 188.07Z" fill="#0088CC"/>
<path d="M278.487 167.769C278.074 166.501 278.765 165.137 280.038 164.725C281.305 164.314 282.666 165.008 283.076 166.278C283.492 167.544 282.797 168.909 281.529 169.32C280.256 169.733 278.897 169.035 278.487 167.769Z" fill="#0088CC"/>
<path d="M270.619 147.469C270.002 145.566 271.042 143.522 272.942 142.904C274.846 142.286 276.891 143.329 277.51 145.229C278.128 147.133 277.086 149.178 275.185 149.797C273.282 150.413 271.238 149.372 270.619 147.469Z" fill="#0088CC"/>
<path d="M262.754 127.169C261.929 124.631 263.316 121.905 265.853 121.08C268.393 120.256 271.119 121.646 271.943 124.183C272.769 126.72 271.379 129.445 268.839 130.267C266.303 131.095 263.578 129.704 262.754 127.169Z" fill="#0088CC"/>
<path d="M254.886 106.868C253.857 103.697 255.593 100.289 258.764 99.2572C261.934 98.2282 265.343 99.9656 266.376 103.137C267.405 106.309 265.668 109.715 262.497 110.747C259.327 111.775 255.919 110.041 254.886 106.868Z" fill="#0088CC"/>
<path d="M251.492 85.1144C251.058 83.7788 251.79 82.3424 253.125 81.9084C254.463 81.4744 255.897 82.2066 256.331 83.5422C256.766 84.8778 256.034 86.3128 254.7 86.7468C253.363 87.1822 251.928 86.4514 251.492 85.1144Z" fill="#0088CC"/>
<path d="M244.778 64.4406C244.343 63.105 245.075 61.67 246.41 61.2346C247.747 60.8006 249.182 61.5314 249.616 62.8684C250.052 64.204 249.318 65.639 247.984 66.073C246.647 66.507 245.212 65.7762 244.778 64.4406Z" fill="#0088CC"/>
<path d="M238.059 43.7668C237.625 42.4312 238.357 40.9962 239.692 40.5622C241.028 40.1282 242.463 40.859 242.898 42.196C243.331 43.5316 242.6 44.9666 241.265 45.402C239.928 45.8346 238.491 45.1038 238.059 43.7668Z" fill="#0088CC"/>
<path d="M231.344 23.0944C230.909 21.7574 231.641 20.3238 232.977 19.8884C234.312 19.4544 235.749 20.1852 236.184 21.5208C236.617 22.8578 235.886 24.2914 234.549 24.7254C233.213 25.1608 231.777 24.43 231.344 23.0944Z" fill="#0088CC"/>
<path d="M265.267 196.798C264.975 196.196 265.223 195.474 265.822 195.181C266.421 194.89 267.143 195.138 267.436 195.74C267.727 196.337 267.478 197.061 266.882 197.352C266.282 197.646 265.559 197.394 265.267 196.798Z" fill="#0088CC"/>
<path d="M254.652 177.789C254.066 176.59 254.564 175.144 255.763 174.559C256.962 173.974 258.407 174.472 258.992 175.673C259.576 176.869 259.081 178.317 257.881 178.902C256.68 179.487 255.233 178.986 254.652 177.789Z" fill="#0088CC"/>
<path d="M244.035 158.78C243.159 156.982 243.904 154.812 245.701 153.934C247.502 153.058 249.672 153.807 250.547 155.602C251.423 157.402 250.677 159.572 248.879 160.448C247.083 161.326 244.912 160.579 244.035 158.78Z" fill="#0088CC"/>
<path d="M233.424 139.773C232.255 137.375 233.249 134.483 235.647 133.314C238.045 132.143 240.939 133.14 242.106 135.537C243.278 137.935 242.281 140.827 239.882 141.996C237.486 143.167 234.591 142.17 233.424 139.773Z" fill="#0088CC"/>
<path d="M225.493 119.455C224.754 117.939 225.384 116.112 226.899 115.373C228.412 114.635 230.241 115.265 230.98 116.778C231.719 118.294 231.089 120.121 229.573 120.861C228.059 121.598 226.232 120.971 225.493 119.455Z" fill="#0088CC"/>
<path d="M218.246 98.8022C218.124 98.5502 218.229 98.2464 218.481 98.1218C218.735 97.9986 219.038 98.1036 219.16 98.3556C219.285 98.6076 219.18 98.9128 218.926 99.036C218.674 99.1606 218.371 99.0556 218.246 98.8022Z" fill="#0088CC"/>
<path d="M208.72 79.2652C208.597 79.0132 208.699 78.708 208.953 78.5848C209.206 78.4616 209.51 78.5666 209.633 78.8186C209.758 79.072 209.654 79.3758 209.401 79.499C209.147 79.6222 208.845 79.5172 208.72 79.2652Z" fill="#0088CC"/>
<path d="M199.188 59.7282C199.066 59.4762 199.169 59.171 199.423 59.0478C199.675 58.9246 199.98 59.0296 200.103 59.283C200.226 59.535 200.121 59.8402 199.868 59.9634C199.617 60.0852 199.312 59.9802 199.188 59.7282Z" fill="#0088CC"/>
<path d="M188.749 40.6378C188.379 39.879 188.694 38.9648 189.451 38.5966C190.21 38.227 191.123 38.5406 191.493 39.2994C191.864 40.0568 191.547 40.9696 190.79 41.3406C190.034 41.7088 189.12 41.3938 188.749 40.6378Z" fill="#0088CC"/>
<path d="M245.596 208.375C245.224 207.82 245.372 207.07 245.922 206.696C246.475 206.324 247.227 206.469 247.597 207.024C247.973 207.575 247.825 208.327 247.275 208.698C246.722 209.073 245.969 208.926 245.596 208.375Z" fill="#0088CC"/>
<path d="M232.446 191.027C231.697 189.923 231.991 188.42 233.096 187.674C234.205 186.928 235.703 187.222 236.449 188.329C237.195 189.433 236.905 190.935 235.796 191.681C234.689 192.427 233.188 192.132 232.446 191.027Z" fill="#0088CC"/>
<path d="M219.287 173.683C218.17 172.024 218.605 169.772 220.263 168.652C221.923 167.534 224.175 167.973 225.293 169.628C226.413 171.29 225.975 173.543 224.319 174.661C222.66 175.778 220.407 175.34 219.287 173.683Z" fill="#0088CC"/>
<path d="M206.131 156.337C204.64 154.123 205.222 151.12 207.433 149.629C209.643 148.137 212.651 148.722 214.14 150.933C215.633 153.145 215.049 156.146 212.835 157.639C210.623 159.132 207.622 158.547 206.131 156.337Z" fill="#0088CC"/>
<path d="M179.813 121.646C177.576 118.329 178.452 113.824 181.77 111.586C185.088 109.347 189.592 110.223 191.829 113.541C194.068 116.858 193.193 121.362 189.875 123.598C186.557 125.838 182.053 124.963 179.813 121.646Z" fill="#0088CC"/>
<path d="M166.66 104.299C164.05 100.428 165.072 95.1734 168.941 92.561C172.816 89.95 178.066 90.9734 180.678 94.843C183.288 98.7126 182.267 103.967 178.395 106.576C174.525 109.19 169.272 108.168 166.66 104.299Z" fill="#0088CC"/>
<path d="M227.737 222.575C227.291 222.078 227.329 221.313 227.823 220.868C228.32 220.422 229.083 220.462 229.532 220.961C229.976 221.453 229.937 222.218 229.443 222.663C228.946 223.111 228.181 223.069 227.737 222.575Z" fill="#0088CC"/>
<path d="M212.295 207.228C211.4 206.238 211.478 204.709 212.471 203.816C213.465 202.923 214.991 203.004 215.883 203.998C216.776 204.987 216.699 206.513 215.704 207.407C214.712 208.302 213.186 208.218 212.295 207.228Z" fill="#0088CC"/>
<path d="M196.854 191.883C195.514 190.396 195.633 188.105 197.119 186.766C198.608 185.427 200.899 185.549 202.236 187.033C203.574 188.521 203.455 190.813 201.97 192.151C200.484 193.491 198.191 193.369 196.854 191.883Z" fill="#0088CC"/>
<path d="M181.407 176.539C179.625 174.555 179.783 171.5 181.766 169.716C183.747 167.931 186.804 168.091 188.589 170.075C190.374 172.056 190.213 175.111 188.228 176.896C186.248 178.681 183.192 178.52 181.407 176.539Z" fill="#0088CC"/>
<path d="M169.344 158.15C168.792 157.536 168.843 156.593 169.455 156.041C170.066 155.49 171.011 155.54 171.566 156.152C172.116 156.765 172.066 157.709 171.452 158.26C170.839 158.812 169.896 158.761 169.344 158.15Z" fill="#0088CC"/>
<path d="M150.523 145.846C147.848 142.873 148.088 138.289 151.062 135.611C154.034 132.933 158.616 133.174 161.293 136.149C163.971 139.121 163.729 143.703 160.76 146.378C157.783 149.058 153.203 148.82 150.523 145.846Z" fill="#0088CC"/>
<path d="M135.08 130.5C131.958 127.03 132.238 121.684 135.706 118.559C139.176 115.436 144.52 115.718 147.645 119.185C150.767 122.654 150.487 127.999 147.018 131.123C143.55 134.249 138.205 133.967 135.08 130.5Z" fill="#0088CC"/>
<path d="M121.823 113.184C119.341 110.426 119.563 106.18 122.32 103.695C125.079 101.213 129.327 101.436 131.809 104.194C134.293 106.949 134.07 111.198 131.314 113.683C128.554 116.165 124.305 115.941 121.823 113.184Z" fill="#0088CC"/>
<path d="M107.836 96.5314C105.628 94.08 105.824 90.3028 108.277 88.0978C110.726 85.8886 114.503 86.0874 116.711 88.5388C118.917 90.9902 118.72 94.766 116.268 96.9724C113.82 99.1802 110.041 98.9814 107.836 96.5314Z" fill="#0088CC"/>
<path d="M212.023 239.126C211.512 238.696 211.443 237.933 211.871 237.423C212.303 236.912 213.064 236.844 213.575 237.276C214.085 237.702 214.152 238.466 213.724 238.976C213.294 239.487 212.532 239.551 212.023 239.126Z" fill="#0088CC"/>
<path d="M194.594 226.075C193.572 225.219 193.438 223.695 194.296 222.673C195.154 221.651 196.677 221.519 197.699 222.379C198.721 223.233 198.856 224.757 197.996 225.778C197.136 226.803 195.613 226.932 194.594 226.075Z" fill="#0088CC"/>
<path d="M177.169 213.03C175.637 211.743 175.437 209.458 176.721 207.925C178.009 206.392 180.295 206.193 181.825 207.477C183.36 208.765 183.561 211.051 182.275 212.584C180.988 214.116 178.7 214.316 177.169 213.03Z" fill="#0088CC"/>
<path d="M159.739 199.983C157.693 198.267 157.427 195.22 159.142 193.178C160.856 191.134 163.904 190.868 165.948 192.583C167.99 194.296 168.256 197.344 166.54 199.388C164.828 201.431 161.78 201.697 159.739 199.983Z" fill="#0088CC"/>
<path d="M143.794 185.17C142.215 183.844 142.009 181.488 143.334 179.908C144.657 178.331 147.014 178.125 148.594 179.449C150.173 180.775 150.376 183.128 149.051 184.709C147.726 186.285 145.376 186.491 143.794 185.17Z" fill="#0088CC"/>
<path d="M124.884 173.888C121.821 171.317 121.419 166.743 123.992 163.678C126.566 160.611 131.135 160.213 134.198 162.786C137.262 165.357 137.665 169.928 135.092 172.99C132.52 176.058 127.952 176.46 124.884 173.888Z" fill="#0088CC"/>
<path d="M107.457 160.84C103.88 157.842 103.416 152.506 106.414 148.931C109.418 145.354 114.748 144.889 118.325 147.888C121.9 150.889 122.368 156.22 119.365 159.796C116.363 163.373 111.031 163.839 107.457 160.84Z" fill="#0088CC"/>
<path d="M92.3997 144.966C89.8727 142.845 89.5423 139.079 91.6633 136.552C93.7843 134.025 97.5489 133.696 100.077 135.817C102.606 137.936 102.935 141.704 100.815 144.231C98.6941 146.758 94.9239 147.087 92.3997 144.966Z" fill="#0088CC"/>
<path d="M198.766 257.699C198.202 257.344 198.031 256.599 198.381 256.035C198.736 255.469 199.48 255.296 200.047 255.653C200.611 256.004 200.783 256.752 200.432 257.316C200.079 257.881 199.333 258.052 198.766 257.699Z" fill="#0088CC"/>
<path d="M179.691 247.204C178.56 246.498 178.214 245.007 178.923 243.874C179.63 242.745 181.119 242.4 182.252 243.111C183.382 243.814 183.729 245.305 183.02 246.438C182.312 247.568 180.822 247.909 179.691 247.204Z" fill="#0088CC"/>
<path d="M160.617 236.709C158.923 235.649 158.404 233.414 159.465 231.718C160.526 230.02 162.762 229.505 164.457 230.565C166.153 231.626 166.672 233.862 165.612 235.558C164.552 237.254 162.315 237.769 160.617 236.709Z" fill="#0088CC"/>
<path d="M141.544 226.216C139.282 224.801 138.596 221.82 140.007 219.561C141.419 217.297 144.401 216.609 146.665 218.023C148.926 219.436 149.614 222.417 148.198 224.678C146.787 226.941 143.805 227.627 141.544 226.216Z" fill="#0088CC"/>
<path d="M122.902 215.03C120.455 213.501 119.711 210.274 121.239 207.829C122.768 205.383 125.993 204.639 128.439 206.165C130.888 207.696 131.631 210.92 130.102 213.368C128.573 215.813 125.352 216.558 122.902 215.03Z" fill="#0088CC"/>
<path d="M103.396 205.225C100.002 203.105 98.9692 198.633 101.09 195.24C103.213 191.845 107.681 190.814 111.076 192.935C114.469 195.055 115.5 199.525 113.381 202.916C111.258 206.311 106.79 207.346 103.396 205.225Z" fill="#0088CC"/>
<path d="M86.823 190.726C85.073 189.634 84.5424 187.33 85.633 185.583C86.7264 183.834 89.0294 183.302 90.778 184.395C92.5252 185.487 93.0572 187.79 91.9652 189.538C90.8732 191.286 88.5716 191.818 86.823 190.726Z" fill="#0088CC"/>
<path d="M147.526 262.462C145.698 261.647 144.876 259.507 145.688 257.678C146.501 255.849 148.646 255.03 150.47 255.842C152.3 256.656 153.123 258.797 152.31 260.625C151.498 262.454 149.353 263.276 147.526 262.462Z" fill="#0088CC"/>
<path d="M127.176 254.724C124.739 253.638 123.642 250.783 124.727 248.346C125.808 245.907 128.668 244.812 131.106 245.899C133.545 246.982 134.638 249.837 133.552 252.276C132.467 254.715 129.611 255.809 127.176 254.724Z" fill="#0088CC"/>
<path d="M107.156 246.242C104.519 245.069 103.335 241.977 104.507 239.344C105.68 236.709 108.771 235.523 111.406 236.695C114.042 237.868 115.227 240.958 114.055 243.594C112.88 246.228 109.793 247.414 107.156 246.242Z" fill="#0088CC"/>
<path d="M86.4756 239.249C82.8216 237.621 81.1766 233.337 82.8034 229.68C84.4316 226.023 88.7156 224.381 92.3696 226.009C96.0264 227.636 97.6686 231.92 96.0418 235.572C94.415 239.231 90.1338 240.876 86.4756 239.249Z" fill="#0088CC"/>
<path d="M66.8336 229.923C63.4456 228.414 61.921 224.442 63.4302 221.053C64.9366 217.664 68.9084 216.142 72.2992 217.648C75.6858 219.157 77.2118 223.129 75.7026 226.517C74.1934 229.908 70.223 231.431 66.8336 229.923Z" fill="#0088CC"/>
<path d="M46.6702 221.764C42.907 220.087 41.213 215.676 42.8888 211.91C44.5646 208.144 48.9774 206.451 52.742 208.128C56.5066 209.803 58.2034 214.215 56.5262 217.983C54.849 221.747 50.4362 223.441 46.6702 221.764Z" fill="#0088CC"/>
<path d="M27.4233 211.56C24.4105 210.218 23.0539 206.688 24.3979 203.676C25.7363 200.662 29.2671 199.308 32.2799 200.648C35.2927 201.989 36.6465 205.52 35.3067 208.531C33.9641 211.546 30.4347 212.899 27.4233 211.56Z" fill="#0088CC"/>
<path d="M180.6 299.449C179.958 299.264 179.586 298.596 179.769 297.954C179.956 297.312 180.623 296.941 181.266 297.128C181.904 297.31 182.278 297.982 182.092 298.619C181.91 299.261 181.239 299.632 180.6 299.449Z" fill="#0088CC"/>
<path d="M159.372 294.616C158.091 294.249 157.347 292.914 157.715 291.63C158.085 290.346 159.421 289.605 160.704 289.976C161.984 290.34 162.727 291.677 162.359 292.961C161.99 294.245 160.653 294.984 159.372 294.616Z" fill="#0088CC"/>
<path d="M138.144 289.786C136.223 289.233 135.11 287.227 135.66 285.305C136.21 283.381 138.221 282.271 140.14 282.82C142.065 283.373 143.178 285.379 142.628 287.302C142.074 289.225 140.067 290.338 138.144 289.786Z" fill="#0088CC"/>
<path d="M116.915 284.957C114.35 284.22 112.867 281.546 113.602 278.982C114.334 276.416 117.016 274.932 119.579 275.67C122.142 276.403 123.626 279.079 122.887 281.645C122.155 284.21 119.478 285.691 116.915 284.957Z" fill="#0088CC"/>
<path d="M96.3201 277.907C94.3405 277.339 93.1953 275.271 93.7623 273.29C94.3293 271.31 96.3999 270.165 98.3795 270.731C100.359 271.299 101.504 273.367 100.939 275.348C100.37 277.329 98.3039 278.474 96.3201 277.907Z" fill="#0088CC"/>
<path d="M74.4592 275.296C70.6162 274.194 68.3902 270.179 69.4934 266.332C70.5966 262.485 74.609 260.261 78.4548 261.367C82.3006 262.469 84.5238 266.48 83.422 270.325C82.3202 274.172 78.3078 276.396 74.4592 275.296Z" fill="#0088CC"/>
<path d="M53.7069 268.796C50.1425 267.772 48.0803 264.051 49.1009 260.484C50.1257 256.917 53.8469 254.856 57.4127 255.878C60.9771 256.9 63.0393 260.621 62.0173 264.186C60.9953 267.754 57.2741 269.816 53.7069 268.796Z" fill="#0088CC"/>
<path d="M33.0184 262.086C29.8502 261.176 28.0204 257.869 28.9276 254.699C29.8348 251.53 33.1416 249.698 36.3098 250.606C39.4808 251.514 41.3148 254.821 40.4048 257.993C39.4976 261.163 36.1894 262.996 33.0184 262.086Z" fill="#0088CC"/>
<path d="M12.3292 255.377C9.5558 254.582 7.9514 251.688 8.7466 248.916C9.539 246.141 12.4342 244.537 15.209 245.332C17.9824 246.127 19.5854 249.022 18.7888 251.794C17.9964 254.568 15.1026 256.171 12.3292 255.377Z" fill="#0088CC"/>
<path d="M176.047 321.81C175.383 321.714 174.926 321.105 175.015 320.445C175.11 319.784 175.719 319.323 176.384 319.418C177.042 319.508 177.504 320.123 177.41 320.781C177.317 321.443 176.703 321.901 176.047 321.81Z" fill="#0088CC"/>
<path d="M154.351 319.978C153.03 319.796 152.107 318.574 152.293 317.253C152.48 315.931 153.702 315.011 155.021 315.2C156.344 315.382 157.265 316.604 157.077 317.925C156.891 319.246 155.67 320.165 154.351 319.978Z" fill="#0088CC"/>
<path d="M132.653 318.151C130.674 317.871 129.293 316.04 129.571 314.058C129.851 312.077 131.686 310.698 133.663 310.974C135.645 311.252 137.027 313.085 136.75 315.064C136.47 317.047 134.637 318.429 132.653 318.151Z" fill="#0088CC"/>
<path d="M110.962 316.323C108.318 315.949 106.477 313.508 106.848 310.867C107.219 308.224 109.664 306.384 112.306 306.755C114.946 307.125 116.787 309.568 116.413 312.211C116.045 314.853 113.602 316.694 110.962 316.323Z" fill="#0088CC"/>
<path d="M89.7964 310.729C88.5742 310.558 87.7188 309.424 87.8938 308.199C88.0632 306.974 89.1972 306.121 90.4208 306.292C91.6458 306.464 92.4984 307.598 92.3262 308.822C92.154 310.047 91.0228 310.899 89.7964 310.729Z" fill="#0088CC"/>
<path d="M67.574 312.663C63.6148 312.106 60.8512 308.441 61.407 304.479C61.9642 300.514 65.6294 297.756 69.5928 298.313C73.5534 298.871 76.3156 302.534 75.7556 306.494C75.2026 310.457 71.5374 313.221 67.574 312.663Z" fill="#0088CC"/>
<path d="M46.5365 306.159C44.4967 305.872 43.0729 303.985 43.3613 301.942C43.6483 299.901 45.5369 298.48 47.5781 298.767C49.6193 299.053 51.0403 300.941 50.7533 302.981C50.4663 305.022 48.5777 306.445 46.5365 306.159Z" fill="#0088CC"/>
<path d="M25.1162 302.393C23.4852 302.163 22.3456 300.654 22.5766 299.02C22.8062 297.388 24.314 296.25 25.9492 296.479C27.5816 296.709 28.7198 298.218 28.4888 299.852C28.2606 301.486 26.75 302.624 25.1162 302.393Z" fill="#0088CC"/>
<path d="M109.433 348.212C106.765 348.209 104.603 346.048 104.602 343.381C104.602 340.711 106.767 338.548 109.433 338.548C112.1 338.547 114.263 340.711 114.26 343.381C114.263 346.048 112.099 348.211 109.433 348.212Z" fill="#0088CC"/>
<path d="M87.6968 344.126C87.2838 344.126 86.9492 343.79 86.9492 343.378C86.9492 342.968 87.2838 342.633 87.6968 342.632C88.1084 342.633 88.443 342.968 88.443 343.379C88.4444 343.79 88.1084 344.124 87.6968 344.126Z" fill="#0088CC"/>
<path d="M65.959 347.113C63.8954 347.113 62.2266 345.443 62.2266 343.379C62.2266 341.317 63.8954 339.648 65.959 339.648C68.0212 339.648 69.6914 341.319 69.6914 343.379C69.6914 345.442 68.0212 347.113 65.959 347.113Z" fill="#0088CC"/>
<path d="M44.2224 349.352C40.924 349.352 38.25 346.678 38.25 343.378C38.25 340.08 40.924 337.408 44.2224 337.406C47.518 337.408 50.1948 340.081 50.1948 343.378C50.1934 346.678 47.518 349.35 44.2224 349.352Z" fill="#0088CC"/>
<path d="M22.4823 346.366C20.8331 346.364 19.4961 345.027 19.4961 343.379C19.4961 341.73 20.8331 340.393 22.4823 340.393C24.1315 340.393 25.4699 341.73 25.4699 343.379C25.4699 345.029 24.1315 346.364 22.4823 346.366Z" fill="#0088CC"/>
<path d="M0.746204 344.126C0.333204 344.126 -0.00139562 343.791 4.37733e-06 343.379C-0.00139562 342.968 0.333204 342.633 0.746204 342.633C1.1578 342.633 1.4924 342.968 1.4924 343.379C1.4924 343.791 1.1578 344.126 0.746204 344.126Z" fill="#0088CC"/>
<path d="M500.015 319.012C500.679 318.917 501.289 319.376 501.38 320.039C501.473 320.699 501.013 321.31 500.353 321.404C499.693 321.497 499.081 321.034 498.989 320.376C498.894 319.714 499.356 319.105 500.015 319.012Z" fill="#0088CC"/>
<path d="M521.372 314.79C522.693 314.604 523.913 315.525 524.102 316.847C524.286 318.168 523.365 319.388 522.043 319.572C520.726 319.757 519.501 318.842 519.317 317.519C519.13 316.197 520.052 314.975 521.372 314.79Z" fill="#0088CC"/>
<path d="M542.732 310.569C544.712 310.292 546.546 311.671 546.825 313.653C547.103 315.634 545.721 317.468 543.74 317.744C541.758 318.023 539.925 316.641 539.645 314.661C539.365 312.68 540.75 310.848 542.732 310.569Z" fill="#0088CC"/>
<path d="M564.089 306.348C566.731 305.978 569.174 307.817 569.545 310.46C569.918 313.1 568.074 315.546 565.431 315.916C562.792 316.288 560.347 314.444 559.978 311.802C559.605 309.162 561.448 306.719 564.089 306.348Z" fill="#0088CC"/>
<path d="M585.446 302.127C588.748 301.664 591.802 303.965 592.265 307.266C592.73 310.569 590.427 313.624 587.127 314.087C583.822 314.552 580.768 312.25 580.305 308.946C579.844 305.645 582.143 302.592 585.446 302.127Z" fill="#0088CC"/>
<path d="M607.602 303.569C608.439 303.45 609.208 304.035 609.327 304.868C609.443 305.704 608.861 306.475 608.026 306.592C607.193 306.709 606.42 306.128 606.304 305.294C606.187 304.458 606.768 303.685 607.602 303.569Z" fill="#0088CC"/>
<path d="M629.057 300.04C630.169 299.884 631.199 300.66 631.356 301.771C631.51 302.886 630.737 303.915 629.624 304.072C628.511 304.227 627.482 303.453 627.325 302.34C627.167 301.225 627.944 300.198 629.057 300.04Z" fill="#0088CC"/>
<path d="M650.156 293.99C652.938 293.6 655.511 295.539 655.902 298.322C656.293 301.105 654.355 303.678 651.57 304.067C648.789 304.458 646.214 302.52 645.823 299.737C645.433 296.955 647.375 294.382 650.156 293.99Z" fill="#0088CC"/>
<path d="M671.826 291.974C674.052 291.662 676.11 293.213 676.423 295.441C676.735 297.665 675.183 299.725 672.957 300.037C670.732 300.35 668.671 298.799 668.361 296.575C668.047 294.346 669.598 292.288 671.826 291.974Z" fill="#0088CC"/>
<path d="M495.094 296.67C495.738 296.485 496.403 296.855 496.588 297.497C496.771 298.138 496.4 298.808 495.757 298.991C495.119 299.176 494.448 298.805 494.265 298.162C494.083 297.522 494.454 296.855 495.094 296.67Z" fill="#0088CC"/>
<path d="M515.656 289.517C516.937 289.149 518.276 289.891 518.645 291.173C519.013 292.457 518.27 293.793 516.988 294.16C515.707 294.528 514.367 293.787 514 292.505C513.633 291.222 514.376 289.884 515.656 289.517Z" fill="#0088CC"/>
<path d="M536.22 282.365C538.143 281.814 540.151 282.926 540.703 284.85C541.254 286.772 540.14 288.781 538.218 289.331C536.295 289.883 534.286 288.771 533.735 286.849C533.183 284.924 534.298 282.916 536.22 282.365Z" fill="#0088CC"/>
<path d="M556.781 275.212C559.346 274.478 562.022 275.96 562.756 278.524C563.491 281.088 562.01 283.766 559.445 284.5C556.88 285.236 554.205 283.752 553.47 281.187C552.733 278.622 554.219 275.947 556.781 275.212Z" fill="#0088CC"/>
<path d="M577.344 268.061C580.55 267.141 583.896 268.995 584.813 272.199C585.733 275.407 583.879 278.751 580.673 279.67C577.467 280.589 574.122 278.736 573.204 275.528C572.286 272.322 574.136 268.979 577.344 268.061Z" fill="#0088CC"/>
<path d="M598.22 262.003C601.462 261.073 604.843 262.948 605.774 266.189C606.702 269.431 604.828 272.811 601.585 273.741C598.346 274.67 594.966 272.797 594.035 269.556C593.106 266.315 594.979 262.933 598.22 262.003Z" fill="#0088CC"/>
<path d="M619.395 256.99C622.099 256.215 624.915 257.778 625.69 260.478C626.464 263.179 624.901 265.997 622.201 266.771C619.502 267.544 616.685 265.983 615.909 263.283C615.135 260.581 616.697 257.765 619.395 256.99Z" fill="#0088CC"/>
<path d="M640.571 251.975C642.733 251.357 644.984 252.606 645.604 254.766C646.224 256.929 644.975 259.183 642.815 259.802C640.654 260.421 638.401 259.172 637.78 257.012C637.161 254.85 638.409 252.595 640.571 251.975Z" fill="#0088CC"/>
<path d="M661.748 246.964C663.368 246.498 665.058 247.436 665.522 249.056C665.987 250.676 665.049 252.367 663.429 252.832C661.811 253.296 660.12 252.358 659.654 250.737C659.19 249.119 660.127 247.428 661.748 246.964Z" fill="#0088CC"/>
<path d="M506.477 265.286C507.695 264.743 509.124 265.29 509.666 266.51C510.21 267.729 509.66 269.157 508.439 269.699C507.224 270.241 505.795 269.695 505.252 268.475C504.71 267.254 505.26 265.826 506.477 265.286Z" fill="#0088CC"/>
<path d="M525.847 255.34C527.674 254.528 529.816 255.347 530.632 257.177C531.443 259.006 530.621 261.148 528.794 261.961C526.964 262.774 524.822 261.953 524.009 260.126C523.196 258.297 524.019 256.155 525.847 255.34Z" fill="#0088CC"/>
<path d="M545.211 245.396C547.647 244.313 550.503 245.407 551.591 247.845C552.674 250.281 551.578 253.138 549.141 254.225C546.705 255.308 543.847 254.212 542.762 251.776C541.677 249.336 542.775 246.481 545.211 245.396Z" fill="#0088CC"/>
<path d="M564.581 235.452C567.629 234.095 571.199 235.466 572.554 238.512C573.91 241.56 572.538 245.129 569.491 246.484C566.443 247.841 562.874 246.471 561.519 243.424C560.164 240.379 561.533 236.809 564.581 235.452Z" fill="#0088CC"/>
<path d="M583.945 225.506C587.599 223.878 591.884 225.523 593.513 229.177C595.139 232.834 593.493 237.117 589.838 238.743C586.185 240.372 581.903 238.729 580.272 235.073C578.646 231.419 580.29 227.132 583.945 225.506Z" fill="#0088CC"/>
<path d="M605.095 219.568C607.149 218.652 609.557 219.575 610.471 221.628C611.384 223.684 610.458 226.09 608.406 227.004C606.352 227.919 603.947 226.995 603.033 224.941C602.118 222.887 603.041 220.48 605.095 219.568Z" fill="#0088CC"/>
<path d="M625.576 212.118C626.858 211.547 628.363 212.124 628.934 213.408C629.506 214.691 628.93 216.195 627.645 216.766C626.361 217.337 624.859 216.761 624.288 215.477C623.715 214.194 624.292 212.691 625.576 212.118Z" fill="#0088CC"/>
<path d="M645.64 203.743C646.668 203.286 647.872 203.748 648.33 204.774C648.785 205.8 648.324 207.003 647.298 207.459C646.272 207.917 645.066 207.456 644.611 206.429C644.152 205.404 644.614 204.2 645.64 203.743Z" fill="#0088CC"/>
<path d="M494.015 242.567C495.145 241.861 496.636 242.203 497.344 243.335C498.051 244.468 497.705 245.959 496.576 246.665C495.444 247.37 493.955 247.029 493.247 245.897C492.538 244.763 492.885 243.272 494.015 242.567Z" fill="#0088CC"/>
<path d="M511.813 230.023C513.51 228.964 515.746 229.48 516.807 231.176C517.867 232.872 517.349 235.109 515.655 236.167C513.955 237.229 511.72 236.713 510.66 235.017C509.6 233.32 510.117 231.085 511.813 230.023Z" fill="#0088CC"/>
<path d="M529.605 217.482C531.866 216.068 534.848 216.754 536.264 219.017C537.675 221.278 536.987 224.262 534.724 225.674C532.464 227.088 529.482 226.4 528.067 224.136C526.653 221.873 527.341 218.893 529.605 217.482Z" fill="#0088CC"/>
<path d="M547.401 204.938C550.23 203.169 553.957 204.03 555.721 206.857C557.491 209.686 556.63 213.413 553.802 215.18C550.972 216.947 547.248 216.086 545.48 213.258C543.715 210.431 544.573 206.706 547.401 204.938Z" fill="#0088CC"/>
<path d="M567.684 196.381C568.876 195.636 570.446 195.999 571.19 197.19C571.933 198.383 571.573 199.951 570.379 200.696C569.188 201.44 567.62 201.078 566.876 199.886C566.13 198.695 566.493 197.124 567.684 196.381Z" fill="#0088CC"/>
<path d="M586.933 186.157C587.408 185.86 588.035 186.004 588.333 186.48C588.631 186.956 588.486 187.585 588.011 187.883C587.535 188.181 586.907 188.035 586.607 187.559C586.31 187.082 586.456 186.453 586.933 186.157Z" fill="#0088CC"/>
<path d="M605.634 175.069C605.871 174.92 606.184 174.992 606.333 175.231C606.481 175.469 606.411 175.784 606.173 175.932C605.934 176.082 605.62 176.009 605.47 175.771C605.323 175.532 605.396 175.217 605.634 175.069Z" fill="#0088CC"/>
<path d="M624.065 163.551C624.305 163.401 624.618 163.474 624.768 163.712C624.918 163.948 624.844 164.265 624.606 164.413C624.368 164.562 624.053 164.49 623.906 164.251C623.757 164.013 623.827 163.699 624.065 163.551Z" fill="#0088CC"/>
<path d="M478.515 221.805C479.537 220.947 481.062 221.078 481.921 222.102C482.777 223.125 482.644 224.648 481.62 225.505C480.6 226.362 479.077 226.23 478.218 225.208C477.359 224.185 477.495 222.659 478.515 221.805Z" fill="#0088CC"/>
<path d="M494.393 206.905C495.924 205.622 498.211 205.82 499.497 207.353C500.784 208.886 500.584 211.173 499.052 212.457C497.516 213.744 495.231 213.545 493.946 212.013C492.658 210.477 492.86 208.193 494.393 206.905Z" fill="#0088CC"/>
<path d="M510.265 192.009C512.309 190.295 515.357 190.56 517.072 192.604C518.787 194.648 518.518 197.695 516.477 199.41C514.431 201.125 511.382 200.858 509.67 198.814C507.953 196.77 508.222 193.722 510.265 192.009Z" fill="#0088CC"/>
<path d="M526.142 177.111C528.694 174.968 532.506 175.301 534.648 177.855C536.793 180.41 536.46 184.219 533.905 186.364C531.35 188.509 527.54 188.174 525.397 185.619C523.254 183.064 523.587 179.256 526.142 177.111Z" fill="#0088CC"/>
<path d="M543.73 164.255C545.668 162.63 548.559 162.883 550.183 164.819C551.809 166.758 551.555 169.646 549.618 171.272C547.681 172.897 544.791 172.647 543.166 170.709C541.539 168.771 541.792 165.88 543.73 164.255Z" fill="#0088CC"/>
<path d="M561.364 151.452C562.656 150.368 564.582 150.536 565.665 151.829C566.75 153.121 566.579 155.047 565.288 156.131C563.996 157.216 562.069 157.046 560.987 155.754C559.905 154.462 560.072 152.536 561.364 151.452Z" fill="#0088CC"/>
<path d="M460.271 203.4C461.166 202.409 462.693 202.327 463.686 203.221C464.679 204.116 464.757 205.643 463.864 206.632C462.971 207.623 461.445 207.707 460.453 206.812C459.459 205.918 459.381 204.389 460.271 203.4Z" fill="#0088CC"/>
<path d="M473.923 186.437C475.261 184.954 477.552 184.831 479.04 186.171C480.525 187.509 480.644 189.802 479.306 191.286C477.966 192.773 475.676 192.895 474.189 191.556C472.702 190.217 472.586 187.925 473.923 186.437Z" fill="#0088CC"/>
<path d="M487.569 169.476C489.354 167.495 492.41 167.332 494.394 169.119C496.373 170.902 496.533 173.96 494.751 175.942C492.966 177.925 489.91 178.084 487.927 176.299C485.944 174.513 485.784 171.458 487.569 169.476Z" fill="#0088CC"/>
<path d="M501.219 152.513C503.449 150.034 507.269 149.835 509.747 152.065C512.226 154.298 512.425 158.116 510.192 160.594C507.959 163.073 504.145 163.274 501.664 161.042C499.188 158.812 498.988 154.994 501.219 152.513Z" fill="#0088CC"/>
<path d="M517.979 138.358C519.109 137.103 521.04 137.003 522.293 138.13C523.544 139.259 523.645 141.19 522.518 142.443C521.39 143.696 519.459 143.798 518.205 142.67C516.953 141.541 516.851 139.611 517.979 138.358Z" fill="#0088CC"/>
<path d="M547.451 106.389C548.392 105.344 549.999 105.26 551.045 106.201C552.088 107.142 552.172 108.749 551.233 109.795C550.293 110.839 548.683 110.923 547.639 109.983C546.593 109.043 546.511 107.433 547.451 106.389Z" fill="#0088CC"/>
<path d="M556.322 85.1284C560.083 80.9522 566.52 80.6134 570.695 84.3752C574.872 88.1356 575.21 94.5714 571.448 98.7476C567.688 102.927 561.252 103.264 557.074 99.5022C552.898 95.7404 552.559 89.3046 556.322 85.1284Z" fill="#0088CC"/>
<path d="M428.494 206.41C428.871 205.857 429.62 205.71 430.171 206.084C430.726 206.457 430.874 207.208 430.5 207.761C430.125 208.316 429.372 208.46 428.822 208.086C428.269 207.714 428.123 206.963 428.494 206.41Z" fill="#0088CC"/>
<path d="M439.652 187.715C440.396 186.609 441.899 186.315 443.006 187.061C444.111 187.809 444.4 189.311 443.654 190.414C442.911 191.52 441.409 191.814 440.301 191.068C439.195 190.322 438.907 188.818 439.652 187.715Z" fill="#0088CC"/>
<path d="M450.805 169.016C451.923 167.36 454.175 166.919 455.834 168.039C457.493 169.158 457.931 171.412 456.812 173.068C455.692 174.727 453.441 175.167 451.781 174.048C450.12 172.929 449.685 170.677 450.805 169.016Z" fill="#0088CC"/>
<path d="M461.959 150.322C463.45 148.11 466.453 147.526 468.667 149.017C470.874 150.508 471.461 153.513 469.969 155.725C468.478 157.935 465.475 158.519 463.263 157.028C461.049 155.537 460.468 152.533 461.959 150.322Z" fill="#0088CC"/>
<path d="M473.111 131.627C474.976 128.86 478.732 128.131 481.494 129.994C484.261 131.859 484.99 135.614 483.125 138.379C481.259 141.144 477.506 141.873 474.741 140.008C471.977 138.144 471.245 134.392 473.111 131.627Z" fill="#0088CC"/>
<path d="M489.006 116.127C489.478 115.429 490.427 115.244 491.127 115.716C491.826 116.186 492.011 117.135 491.539 117.835C491.067 118.532 490.118 118.719 489.419 118.247C488.721 117.775 488.536 116.826 489.006 116.127Z" fill="#0088CC"/>
<path d="M510.787 78.3776C512.203 76.2804 515.049 75.726 517.145 77.1428C519.24 78.5568 519.795 81.403 518.379 83.4988C516.964 85.596 514.119 86.1504 512.022 84.735C509.926 83.321 509.373 80.4734 510.787 78.3776Z" fill="#0088CC"/>
<path d="M519.151 57.7948C521.976 53.6032 527.673 52.4944 531.865 55.3224C536.059 58.149 537.162 63.8442 534.336 68.0372C531.506 72.2316 525.814 73.339 521.622 70.5096C517.426 67.6816 516.319 61.9892 519.151 57.7948Z" fill="#0088CC"/>
<path d="M408.6 195.119C408.894 194.517 409.615 194.268 410.214 194.562C410.814 194.853 411.064 195.577 410.77 196.178C410.478 196.778 409.755 197.025 409.155 196.732C408.553 196.44 408.307 195.717 408.6 195.119Z" fill="#0088CC"/>
<path d="M417.043 175.053C417.627 173.855 419.074 173.354 420.274 173.94C421.471 174.525 421.97 175.973 421.383 177.17C420.799 178.367 419.354 178.87 418.153 178.283C416.955 177.696 416.456 176.247 417.043 175.053Z" fill="#0088CC"/>
<path d="M425.489 154.983C426.366 153.187 428.534 152.438 430.333 153.315C432.13 154.192 432.877 156.363 432.001 158.161C431.123 159.96 428.953 160.707 427.155 159.831C425.356 158.953 424.612 156.783 425.489 154.983Z" fill="#0088CC"/>
<path d="M433.933 134.918C435.102 132.52 437.993 131.524 440.392 132.693C442.786 133.862 443.786 136.756 442.617 139.153C441.448 141.55 438.553 142.545 436.157 141.378C433.758 140.207 432.761 137.315 433.933 134.918Z" fill="#0088CC"/>
<path d="M442.375 114.852C443.835 111.853 447.451 110.608 450.449 112.069C453.449 113.532 454.692 117.148 453.228 120.145C451.766 123.144 448.153 124.387 445.153 122.926C442.157 121.464 440.912 117.849 442.375 114.852Z" fill="#0088CC"/>
<path d="M465.944 77.9758C466.19 77.4704 466.798 77.2604 467.304 77.5082C467.81 77.7546 468.018 78.3636 467.772 78.869C467.526 79.3744 466.918 79.583 466.414 79.338C465.907 79.0916 465.696 78.4812 465.944 77.9758Z" fill="#0088CC"/>
<path d="M469.985 55.7634C471.71 52.2284 475.974 50.7598 479.509 52.4846C483.044 54.2094 484.514 58.4724 482.79 62.0074C481.068 65.5424 476.802 67.0124 473.265 65.2862C469.728 63.5628 468.259 59.297 469.985 55.7634Z" fill="#0088CC"/>
<path d="M478.603 35.7798C480.572 31.7394 485.448 30.0594 489.488 32.032C493.529 34.0018 495.207 38.8766 493.235 42.9156C491.266 46.9574 486.391 48.636 482.351 46.6648C478.311 44.6936 476.632 39.8202 478.603 35.7798Z" fill="#0088CC"/>
<path d="M387.326 186.705C387.53 186.07 388.212 185.721 388.848 185.928C389.48 186.134 389.83 186.816 389.623 187.452C389.417 188.086 388.734 188.433 388.101 188.226C387.463 188.02 387.119 187.338 387.326 186.705Z" fill="#0088CC"/>
<path d="M392.893 165.659C393.304 164.391 394.667 163.694 395.936 164.108C397.206 164.521 397.898 165.885 397.485 167.152C397.073 168.419 395.711 169.116 394.441 168.704C393.173 168.288 392.48 166.923 392.893 165.659Z" fill="#0088CC"/>
<path d="M398.463 144.61C399.082 142.71 401.125 141.665 403.029 142.285C404.931 142.902 405.973 144.949 405.355 146.85C404.737 148.753 402.693 149.796 400.787 149.178C398.886 148.56 397.846 146.514 398.463 144.61Z" fill="#0088CC"/>
<path d="M404.032 123.565C404.856 121.029 407.581 119.638 410.119 120.463C412.654 121.288 414.046 124.015 413.221 126.55C412.398 129.088 409.669 130.477 407.131 129.653C404.593 128.828 403.206 126.102 404.032 123.565Z" fill="#0088CC"/>
<path d="M409.602 102.519C410.631 99.3468 414.042 97.6108 417.21 98.6412C420.384 99.6716 422.118 103.079 421.089 106.252C420.059 109.424 416.653 111.159 413.479 110.13C410.307 109.098 408.571 105.692 409.602 102.519Z" fill="#0088CC"/>
<path d="M426.842 62.4078C427.189 61.3396 428.336 60.7544 429.406 61.1002C430.475 61.4488 431.06 62.5954 430.712 63.665C430.366 64.7332 429.218 65.3184 428.148 64.9726C427.08 64.624 426.495 63.476 426.842 62.4078Z" fill="#0088CC"/>
<path d="M426.308 39.3764C427.958 34.3028 433.404 31.5252 438.481 33.1744C443.557 34.8236 446.332 40.2738 444.684 45.3474C443.036 50.421 437.588 53.2 432.513 51.5508C427.435 49.903 424.659 44.45 426.308 39.3764Z" fill="#0088CC"/>
<path d="M435.436 19.488C436.652 15.7486 440.671 13.699 444.412 14.9142C448.154 16.1294 450.201 20.1488 448.984 23.8896C447.77 27.6318 443.752 29.68 440.01 28.4634C436.268 27.2482 434.221 23.2302 435.436 19.488Z" fill="#0088CC"/>
<path d="M372.843 116.484C373.308 113.858 375.813 112.102 378.442 112.566C381.067 113.029 382.824 115.536 382.361 118.163C381.896 120.789 379.39 122.543 376.763 122.081C374.134 121.618 372.381 119.111 372.843 116.484Z" fill="#0088CC"/>
<path d="M375.429 94.8654C376.007 91.5824 379.14 89.3886 382.423 89.9682C385.709 90.5464 387.901 93.6796 387.322 96.9654C386.741 100.25 383.612 102.442 380.326 101.864C377.042 101.283 374.849 98.1512 375.429 94.8654Z" fill="#0088CC"/>
<path d="M385.918 52.57C386.212 50.9096 387.794 49.7994 389.454 50.0934C391.116 50.3846 392.223 51.9694 391.931 53.6298C391.64 55.2902 390.055 56.399 388.396 56.1064C386.737 55.8138 385.625 54.229 385.918 52.57Z" fill="#0088CC"/>
<path d="M386.184 30.5438C386.818 26.9472 390.248 24.5448 393.849 25.1776C397.444 25.8132 399.848 29.2432 399.215 32.8398C398.581 36.4364 395.151 38.8402 391.55 38.206C387.952 37.5732 385.549 34.1404 386.184 30.5438Z" fill="#0088CC"/>
<path d="M389.961 9.13645C390.596 5.53985 394.026 3.13604 397.624 3.77164C401.222 4.40444 403.625 7.83725 402.99 11.4338C402.356 15.0318 398.926 17.4356 395.328 16.8C391.728 16.1658 389.326 12.7358 389.961 9.13645Z" fill="#0088CC"/>
<path d="M340.523 92.0458C340.639 88.7124 343.437 86.1042 346.769 86.2204C350.102 86.3366 352.709 89.1338 352.594 92.4672C352.475 95.8006 349.682 98.4074 346.346 98.2926C343.014 98.1736 340.407 95.3792 340.523 92.0458Z" fill="#0088CC"/>
<path d="M344.006 48.6654C344.089 46.4198 345.97 44.66 348.22 44.7384C350.466 44.8154 352.224 46.7012 352.147 48.9482C352.067 51.1938 350.184 52.9522 347.935 52.8738C345.688 52.7954 343.931 50.911 344.006 48.6654Z" fill="#0088CC"/>
<path d="M343.242 26.887C343.35 23.7972 345.94 21.3808 349.032 21.4886C352.122 21.5978 354.54 24.1892 354.429 27.279C354.323 30.3674 351.73 32.7866 348.64 32.6774C345.551 32.5696 343.131 29.9754 343.242 26.887Z" fill="#0088CC"/>
<path d="M344.507 5.18142C344.605 2.37302 346.964 0.173616 349.771 0.273016C352.579 0.371016 354.779 2.72862 354.679 5.53702C354.581 8.34682 352.225 10.5448 349.415 10.4454C346.607 10.3474 344.409 7.99122 344.507 5.18142Z" fill="#0088CC"/>
<path d="M309.042 115.602C308.764 112.948 310.689 110.571 313.343 110.291C315.995 110.012 318.375 111.938 318.652 114.59C318.931 117.244 317.006 119.62 314.353 119.9C311.697 120.18 309.321 118.254 309.042 115.602Z" fill="#0088CC"/>
<path d="M306.513 94.0086C306.218 91.2142 308.246 88.7096 311.041 88.4156C313.835 88.1202 316.34 90.1502 316.632 92.9446C316.925 95.7404 314.899 98.2422 312.105 98.5376C309.309 98.833 306.807 96.8044 306.513 94.0086Z" fill="#0088CC"/>
<path d="M303.734 72.4458C303.412 69.3714 305.644 66.6162 308.718 66.2942C311.794 65.9708 314.546 68.201 314.868 71.2768C315.193 74.3498 312.966 77.105 309.888 77.4284C306.814 77.749 304.057 75.5188 303.734 72.4458Z" fill="#0088CC"/>
<path d="M301.97 50.7738C301.676 47.978 303.703 45.4734 306.497 45.1808C309.295 44.8854 311.796 46.9154 312.089 49.7098C312.384 52.5042 310.357 55.0074 307.563 55.3014C304.766 55.594 302.261 53.5668 301.97 50.7738Z" fill="#0088CC"/>
<path d="M300.201 29.1004C299.938 26.5846 301.761 24.332 304.278 24.0674C306.792 23.8028 309.046 25.627 309.309 28.1428C309.574 30.6572 307.75 32.9126 305.234 33.1772C302.72 33.4418 300.464 31.6162 300.201 29.1004Z" fill="#0088CC"/>
<path d="M298.437 7.42982C298.2 5.19402 299.823 3.18921 302.057 2.95541C304.295 2.72021 306.298 4.34141 306.533 6.57721C306.767 8.81441 305.147 10.8178 302.91 11.0516C300.673 11.2882 298.672 9.66562 298.437 7.42982Z" fill="#0088CC"/>
<path d="M290.53 163.416C290.205 162.123 290.995 160.81 292.29 160.488C293.585 160.167 294.895 160.954 295.217 162.249C295.538 163.54 294.752 164.854 293.46 165.176C292.162 165.498 290.852 164.709 290.53 163.416Z" fill="#0088CC"/>
<path d="M284.1 142.615C283.617 140.676 284.796 138.708 286.739 138.223C288.683 137.74 290.648 138.923 291.133 140.864C291.617 142.806 290.435 144.773 288.494 145.257C286.552 145.741 284.588 144.558 284.1 142.615Z" fill="#0088CC"/>
<path d="M277.673 121.818C277.026 119.23 278.599 116.606 281.191 115.961C283.778 115.317 286.403 116.893 287.046 119.482C287.692 122.07 286.116 124.692 283.529 125.336C280.937 125.982 278.317 124.405 277.673 121.818Z" fill="#0088CC"/>
<path d="M272.16 100.787C271.481 98.0602 273.14 95.298 275.864 94.619C278.591 93.9386 281.352 95.5976 282.034 98.3248C282.712 101.052 281.054 103.811 278.327 104.492C275.601 105.172 272.839 103.515 272.16 100.787Z" fill="#0088CC"/>
<path d="M267.395 79.5718C266.783 77.119 268.277 74.6326 270.731 74.0222C273.184 73.4104 275.669 74.9042 276.282 77.3584C276.894 79.8112 275.401 82.2962 272.946 82.908C270.493 83.5184 268.007 82.026 267.395 79.5718Z" fill="#0088CC"/>
<path d="M262.629 58.3576C262.086 56.1764 263.413 53.9658 265.593 53.4226C267.776 52.8794 269.985 54.2066 270.528 56.3878C271.071 58.5676 269.746 60.7768 267.564 61.32C265.382 61.8646 263.173 60.5374 262.629 58.3576Z" fill="#0088CC"/>
<path d="M257.865 37.142C257.388 35.2338 258.55 33.3018 260.459 32.8244C262.367 32.3498 264.299 33.5104 264.775 35.42C265.254 37.3268 264.092 39.2616 262.183 39.7362C260.272 40.2122 258.34 39.0516 257.865 37.142Z" fill="#0088CC"/>
<path d="M253.103 15.9278C252.695 14.2926 253.69 12.635 255.327 12.2276C256.963 11.8188 258.619 12.8142 259.028 14.4508C259.437 16.0874 258.44 17.7436 256.805 18.151C255.167 18.5584 253.512 17.5644 253.103 15.9278Z" fill="#0088CC"/>
<path d="M275.258 191.446C275.006 190.826 275.303 190.123 275.921 189.874C276.542 189.623 277.246 189.921 277.498 190.54C277.748 191.159 277.447 191.863 276.827 192.114C276.21 192.363 275.507 192.063 275.258 191.446Z" fill="#0088CC"/>
<path d="M265.995 171.744C265.492 170.507 266.088 169.098 267.327 168.598C268.566 168.099 269.973 168.696 270.47 169.933C270.969 171.168 270.372 172.579 269.136 173.078C267.897 173.578 266.49 172.978 265.995 171.744Z" fill="#0088CC"/>
<path d="M256.729 152.039C255.981 150.185 256.875 148.072 258.734 147.322C260.586 146.573 262.7 147.47 263.449 149.325C264.198 151.18 263.303 153.293 261.446 154.045C259.591 154.794 257.479 153.896 256.729 152.039Z" fill="#0088CC"/>
<path d="M247.467 132.339C246.467 129.864 247.66 127.049 250.135 126.048C252.608 125.051 255.424 126.245 256.425 128.719C257.424 131.193 256.227 134.009 253.756 135.009C251.282 136.009 248.465 134.812 247.467 132.339Z" fill="#0088CC"/>
<path d="M239.557 112.09C238.61 109.743 239.744 107.075 242.089 106.128C244.434 105.179 247.101 106.313 248.05 108.658C248.997 111.003 247.863 113.672 245.519 114.619C243.173 115.567 240.504 114.435 239.557 112.09Z" fill="#0088CC"/>
<path d="M234.244 90.7928C233.928 90.0102 234.307 89.1212 235.09 88.8048C235.873 88.4884 236.762 88.8678 237.077 89.6476C237.393 90.4302 237.015 91.3192 236.234 91.6342C235.453 91.952 234.564 91.574 234.244 90.7928Z" fill="#0088CC"/>
<path d="M226.104 70.637C225.788 69.8558 226.166 68.9654 226.948 68.6504C227.731 68.334 228.618 68.712 228.936 69.4946C229.253 70.2758 228.875 71.1648 228.091 71.4798C227.309 71.7948 226.419 71.4182 226.104 70.637Z" fill="#0088CC"/>
<path d="M217.959 50.4826C217.644 49.7 218.02 48.811 218.804 48.4946C219.586 48.1796 220.475 48.5576 220.79 49.3374C221.106 50.1186 220.727 51.009 219.947 51.324C219.166 51.6418 218.274 51.2638 217.959 50.4826Z" fill="#0088CC"/>
<path d="M209.348 30.5172C208.927 29.4756 209.431 28.2898 210.474 27.8684C211.515 27.447 212.701 27.951 213.121 28.9926C213.542 30.0342 213.038 31.2214 211.997 31.6428C210.955 32.0642 209.768 31.5602 209.348 30.5172Z" fill="#0088CC"/>
<path d="M254.769 201.625C254.434 201.046 254.63 200.309 255.208 199.975C255.787 199.641 256.526 199.839 256.862 200.417C257.195 200.995 256.996 201.733 256.418 202.068C255.84 202.402 255.102 202.202 254.769 201.625Z" fill="#0088CC"/>
<path d="M242.856 183.404C242.188 182.249 242.584 180.771 243.739 180.104C244.897 179.438 246.373 179.834 247.036 180.991C247.704 182.143 247.311 183.623 246.156 184.289C245.001 184.955 243.521 184.559 242.856 183.404Z" fill="#0088CC"/>
<path d="M230.939 165.18C229.939 163.449 230.531 161.232 232.265 160.231C233.996 159.232 236.213 159.825 237.212 161.557C238.215 163.29 237.621 165.508 235.888 166.508C234.156 167.51 231.94 166.915 230.939 165.18Z" fill="#0088CC"/>
<path d="M219.026 146.964C217.695 144.651 218.483 141.697 220.794 140.363C223.106 139.028 226.062 139.821 227.395 142.132C228.728 144.442 227.936 147.398 225.626 148.73C223.313 150.065 220.36 149.272 219.026 146.964Z" fill="#0088CC"/>
<path d="M211.018 126.483C210.595 125.754 210.847 124.82 211.576 124.398C212.306 123.977 213.238 124.228 213.661 124.957C214.082 125.686 213.832 126.62 213.101 127.042C212.371 127.464 211.439 127.214 211.018 126.483Z" fill="#0088CC"/>
<path d="M167.983 50.9278C167.703 50.4406 167.871 49.819 168.357 49.5376C168.843 49.2562 169.467 49.4228 169.747 49.9114C170.027 50.3986 169.859 51.0202 169.373 51.3016C168.886 51.5816 168.263 51.4164 167.983 50.9278Z" fill="#0088CC"/>
<path d="M235.898 214.558C235.485 214.031 235.579 213.273 236.104 212.862C236.632 212.45 237.391 212.542 237.802 213.067C238.213 213.595 238.12 214.354 237.594 214.764C237.067 215.179 236.309 215.082 235.898 214.558Z" fill="#0088CC"/>
<path d="M221.564 198.171C220.742 197.12 220.927 195.6 221.98 194.781C223.031 193.96 224.549 194.146 225.368 195.199C226.189 196.248 226.006 197.767 224.955 198.589C223.902 199.41 222.383 199.223 221.564 198.171Z" fill="#0088CC"/>
<path d="M207.229 181.784C205.999 180.209 206.275 177.933 207.854 176.7C209.429 175.468 211.708 175.748 212.939 177.324C214.171 178.9 213.893 181.178 212.314 182.41C210.739 183.642 208.46 183.362 207.229 181.784Z" fill="#0088CC"/>
<path d="M192.896 165.402C191.253 163.297 191.625 160.262 193.728 158.62C195.829 156.978 198.867 157.352 200.51 159.453C202.152 161.554 201.779 164.591 199.675 166.233C197.574 167.877 194.537 167.503 192.896 165.402Z" fill="#0088CC"/>
<path d="M164.223 132.629C161.759 129.476 162.321 124.921 165.475 122.458C168.628 119.993 173.18 120.553 175.646 123.707C178.11 126.86 177.55 131.412 174.396 133.876C171.241 136.34 166.687 135.782 164.223 132.629Z" fill="#0088CC"/>
<path d="M149.891 116.245C147.015 112.566 147.668 107.25 151.348 104.377C155.028 101.501 160.339 102.155 163.213 105.833C166.089 109.511 165.438 114.824 161.757 117.698C158.077 120.572 152.765 119.92 149.891 116.245Z" fill="#0088CC"/>
<path d="M137.286 98.504C134.748 95.2546 135.323 90.5646 138.574 88.025C141.822 85.4896 146.512 86.065 149.05 89.313C151.59 92.5596 151.014 97.2524 147.765 99.7906C144.517 102.329 139.826 101.752 137.286 98.504Z" fill="#0088CC"/>
<path d="M219.01 229.989C218.53 229.524 218.515 228.763 218.981 228.281C219.446 227.802 220.212 227.788 220.689 228.252C221.171 228.715 221.182 229.481 220.718 229.961C220.254 230.443 219.491 230.453 219.01 229.989Z" fill="#0088CC"/>
<path d="M202.536 215.758C201.575 214.833 201.547 213.301 202.475 212.344C203.402 211.383 204.931 211.358 205.889 212.288C206.85 213.212 206.878 214.742 205.95 215.701C205.022 216.658 203.49 216.685 202.536 215.758Z" fill="#0088CC"/>
<path d="M186.058 201.526C184.622 200.137 184.579 197.845 185.969 196.403C187.359 194.965 189.655 194.925 191.093 196.314C192.531 197.704 192.574 199.998 191.182 201.439C189.792 202.878 187.499 202.916 186.058 201.526Z" fill="#0088CC"/>
<path d="M169.585 187.298C167.666 185.443 167.611 182.385 169.465 180.466C171.316 178.548 174.379 178.494 176.295 180.347C178.215 182.199 178.267 185.258 176.416 187.177C174.562 189.098 171.503 189.15 169.585 187.298Z" fill="#0088CC"/>
<path d="M155.746 170.331C154.857 169.471 154.832 168.055 155.69 167.164C156.55 166.272 157.968 166.249 158.858 167.11C159.747 167.969 159.772 169.386 158.913 170.276C158.053 171.167 156.635 171.192 155.746 170.331Z" fill="#0088CC"/>
<path d="M136.63 158.834C133.751 156.054 133.672 151.465 136.453 148.589C139.232 145.708 143.819 145.631 146.697 148.41C149.577 151.189 149.655 155.774 146.876 158.654C144.096 161.533 139.51 161.613 136.63 158.834Z" fill="#0088CC"/>
<path d="M120.155 144.603C116.798 141.359 116.703 136.006 119.947 132.649C123.19 129.289 128.543 129.196 131.9 132.44C135.257 135.681 135.352 141.035 132.106 144.392C128.863 147.752 123.511 147.844 120.155 144.603Z" fill="#0088CC"/>
<path d="M106.24 127.718C103.869 125.426 103.803 121.647 106.095 119.272C108.384 116.901 112.165 116.836 114.538 119.126C116.91 121.416 116.976 125.198 114.685 127.571C112.396 129.941 108.613 130.007 106.24 127.718Z" fill="#0088CC"/>
<path d="M91.6451 111.542C89.8657 109.824 89.8153 106.988 91.5359 105.209C93.2537 103.429 96.0901 103.38 97.8667 105.099C99.6461 106.817 99.6993 109.654 97.9787 111.433C96.2595 113.212 93.4245 113.261 91.6451 111.542Z" fill="#0088CC"/>
<path d="M204.436 247.624C203.893 247.23 203.771 246.477 204.165 245.937C204.557 245.396 205.313 245.276 205.852 245.668C206.393 246.06 206.512 246.816 206.12 247.356C205.727 247.898 204.973 248.016 204.436 247.624Z" fill="#0088CC"/>
<path d="M186.138 235.823C185.059 235.04 184.818 233.528 185.6 232.449C186.387 231.37 187.896 231.132 188.973 231.918C190.051 232.7 190.295 234.212 189.509 235.29C188.725 236.369 187.21 236.606 186.138 235.823Z" fill="#0088CC"/>
<path d="M167.841 224.022C166.225 222.848 165.862 220.583 167.04 218.961C168.217 217.344 170.482 216.985 172.098 218.162C173.718 219.337 174.079 221.603 172.903 223.224C171.726 224.841 169.462 225.198 167.841 224.022Z" fill="#0088CC"/>
<path d="M149.548 212.223C147.389 210.655 146.909 207.635 148.477 205.475C150.046 203.319 153.069 202.84 155.226 204.408C157.384 205.976 157.861 208.999 156.294 211.155C154.726 213.315 151.705 213.793 149.548 212.223Z" fill="#0088CC"/>
<path d="M132.166 199.161C130.165 197.708 129.723 194.907 131.176 192.906C132.63 190.904 135.43 190.462 137.432 191.916C139.434 193.371 139.878 196.171 138.424 198.171C136.97 200.172 134.17 200.616 132.166 199.161Z" fill="#0088CC"/>
<path d="M152.933 248.835C151.169 247.897 150.496 245.703 151.438 243.935C152.376 242.171 154.571 241.497 156.335 242.438C158.103 243.376 158.775 245.57 157.833 247.338C156.896 249.105 154.703 249.775 152.933 248.835Z" fill="#0088CC"/>
<path d="M133.174 239.698C130.818 238.444 129.923 235.519 131.175 233.162C132.429 230.808 135.354 229.914 137.71 231.165C140.066 232.418 140.96 235.344 139.708 237.699C138.455 240.058 135.526 240.95 133.174 239.698Z" fill="#0088CC"/>
<path d="M113.412 230.558C110.467 228.992 109.35 225.334 110.915 222.391C112.48 219.446 116.135 218.329 119.082 219.895C122.027 221.462 123.145 225.116 121.579 228.061C120.015 231.006 116.358 232.124 113.412 230.558Z" fill="#0088CC"/>
<path d="M93.654 221.42C90.1218 219.541 88.7792 215.152 90.658 211.621C92.5368 208.086 96.9244 206.746 100.457 208.625C103.99 210.504 105.33 214.889 103.455 218.421C101.575 221.956 97.1862 223.299 93.654 221.42Z" fill="#0088CC"/>
<path d="M75.4111 209.43C72.8645 208.076 71.8943 204.911 73.2481 202.364C74.6047 199.815 77.7687 198.849 80.3167 200.204C82.8633 201.558 83.8321 204.723 82.4769 207.269C81.1217 209.817 77.9577 210.783 75.4111 209.43Z" fill="#0088CC"/>
<path d="M55.165 201.202C51.5222 199.266 50.1432 194.748 52.0794 191.107C54.0156 187.468 58.532 186.088 62.1734 188.021C65.812 189.955 67.1966 194.475 65.259 198.115C63.3242 201.754 58.8036 203.136 55.165 201.202Z" fill="#0088CC"/>
<path d="M183.304 288.079C182.677 287.851 182.352 287.162 182.582 286.532C182.808 285.905 183.504 285.582 184.129 285.81C184.757 286.038 185.079 286.731 184.851 287.358C184.624 287.988 183.934 288.309 183.304 288.079Z" fill="#0088CC"/>
<path d="M162.468 281.781C161.212 281.327 160.565 279.937 161.021 278.684C161.479 277.43 162.864 276.786 164.118 277.243C165.371 277.698 166.019 279.083 165.562 280.336C165.105 281.59 163.715 282.239 162.468 281.781Z" fill="#0088CC"/>
<path d="M141.623 275.479C139.744 274.795 138.772 272.717 139.458 270.836C140.142 268.957 142.223 267.985 144.099 268.673C145.982 269.356 146.95 271.436 146.267 273.315C145.583 275.195 143.506 276.165 141.623 275.479Z" fill="#0088CC"/>
<path d="M120.783 269.182C118.274 268.269 116.981 265.497 117.895 262.989C118.806 260.483 121.583 259.189 124.089 260.102C126.596 261.013 127.887 263.788 126.975 266.294C126.063 268.803 123.289 270.094 120.783 269.182Z" fill="#0088CC"/>
<path d="M100.479 261.415C98.1552 260.569 96.9568 257.999 97.8024 255.675C98.648 253.351 101.217 252.153 103.544 252.998C105.866 253.845 107.065 256.413 106.219 258.74C105.372 261.064 102.805 262.261 100.479 261.415Z" fill="#0088CC"/>
<path d="M79.1038 256.582C75.3462 255.214 73.4058 251.054 74.775 247.296C76.1442 243.534 80.3008 241.597 84.0612 242.964C87.823 244.334 89.7606 248.49 88.3928 252.251C87.0236 256.011 82.8642 257.951 79.1038 256.582Z" fill="#0088CC"/>
<path d="M58.2655 250.284C53.8779 248.685 51.6155 243.832 53.2101 239.448C54.8089 235.057 59.6585 232.799 64.0475 234.395C68.4337 235.991 70.6961 240.843 69.0973 245.228C67.5013 249.616 62.6489 251.878 58.2655 250.284Z" fill="#0088CC"/>
<path d="M37.4242 243.982C32.4122 242.157 29.8264 236.614 31.652 231.598C33.479 226.586 39.0216 224 44.035 225.824C49.047 227.648 51.6356 233.194 49.81 238.207C47.9844 243.221 42.4376 245.806 37.4242 243.982Z" fill="#0088CC"/>
<path d="M18.0078 233.779C14.5218 232.512 12.7242 228.656 13.9926 225.172C15.2596 221.686 19.1166 219.888 22.6012 221.157C26.0872 222.425 27.8848 226.281 26.615 229.767C25.3466 233.251 21.4924 235.05 18.0078 233.779Z" fill="#0088CC"/>
<path d="M177.162 310.117C176.506 309.978 176.089 309.34 176.231 308.685C176.369 308.032 177.01 307.614 177.663 307.752C178.315 307.891 178.731 308.535 178.592 309.187C178.454 309.842 177.813 310.255 177.162 310.117Z" fill="#0088CC"/>
<path d="M155.645 306.779C154.339 306.503 153.507 305.217 153.783 303.913C154.063 302.607 155.346 301.776 156.648 302.056C157.952 302.333 158.79 303.614 158.508 304.917C158.232 306.223 156.946 307.058 155.645 306.779Z" fill="#0088CC"/>
<path d="M134.131 303.44C132.177 303.024 130.924 301.102 131.342 299.144C131.758 297.188 133.683 295.935 135.636 296.355C137.595 296.769 138.846 298.694 138.431 300.651C138.018 302.607 136.09 303.856 134.131 303.44Z" fill="#0088CC"/>
<path d="M112.618 300.104C110.008 299.548 108.341 296.983 108.895 294.374C109.451 291.764 112.019 290.097 114.628 290.653C117.235 291.207 118.904 293.773 118.347 296.381C117.794 298.992 115.226 300.658 112.618 300.104Z" fill="#0088CC"/>
<path d="M91.7411 293.779C90.1283 293.434 89.0979 291.85 89.4409 290.238C89.7825 288.624 91.3701 287.596 92.9829 287.938C94.5943 288.281 95.6247 289.866 95.2831 291.48C94.9387 293.093 93.3553 294.12 91.7411 293.779Z" fill="#0088CC"/>
<path d="M69.5925 293.427C65.6781 292.596 63.1777 288.746 64.0121 284.833C64.8437 280.917 68.6937 278.419 72.6067 279.252C76.5211 280.084 79.0187 283.93 78.1857 287.844C77.3541 291.759 73.5055 294.259 69.5925 293.427Z" fill="#0088CC"/>
<path d="M48.7503 286.931C45.9265 286.331 44.1233 283.556 44.7253 280.735C45.3245 277.911 48.0993 276.111 50.9245 276.71C53.7441 277.311 55.5473 280.084 54.9453 282.906C54.3461 285.729 51.5713 287.529 48.7503 286.931Z" fill="#0088CC"/>
<path d="M27.4849 282.411C24.6639 281.81 22.8635 279.037 23.4627 276.213C24.0633 273.391 26.8367 271.59 29.6577 272.191C32.4801 272.789 34.2847 275.565 33.6841 278.387C33.0821 281.208 30.3059 283.01 27.4849 282.411Z" fill="#0088CC"/>
<path d="M174.14 332.794C173.473 332.749 172.97 332.177 173.019 331.506C173.067 330.84 173.642 330.338 174.307 330.385C174.973 330.429 175.475 331.01 175.43 331.675C175.382 332.343 174.807 332.84 174.14 332.794Z" fill="#0088CC"/>
<path d="M152.377 332.483C151.045 332.391 150.04 331.236 150.135 329.907C150.228 328.573 151.384 327.572 152.713 327.667C154.041 327.76 155.049 328.913 154.953 330.242C154.86 331.573 153.704 332.58 152.377 332.483Z" fill="#0088CC"/>
<path d="M130.603 332.171C128.61 332.032 127.103 330.302 127.243 328.304C127.382 326.309 129.115 324.803 131.11 324.944C133.109 325.083 134.613 326.816 134.472 328.811C134.333 330.806 132.601 332.311 130.603 332.171Z" fill="#0088CC"/>
<path d="M108.839 331.86C106.176 331.675 104.168 329.365 104.356 326.704C104.541 324.043 106.851 322.035 109.512 322.221C112.172 322.407 114.18 324.716 113.993 327.377C113.809 330.04 111.497 332.046 108.839 331.86Z" fill="#0088CC"/>
<path d="M87.3844 327.013C86.5626 326.956 85.9424 326.242 85.9998 325.42C86.0572 324.598 86.7712 323.978 87.5944 324.034C88.4162 324.093 89.0364 324.806 88.979 325.629C88.9202 326.451 88.209 327.072 87.3844 327.013Z" fill="#0088CC"/>
<path d="M65.2984 331.237C61.307 330.959 58.2942 327.495 58.577 323.505C58.8542 319.511 62.3192 316.502 66.3092 316.782C70.302 317.061 73.3106 320.522 73.0334 324.513C72.7534 328.507 69.2912 331.517 65.2984 331.237Z" fill="#0088CC"/>
</svg>
