<svg width="30" height="30" viewBox="0 0 30 30" fill="none" xmlns="http://www.w3.org/2000/svg">
<path d="M24.375 8.92972C23.3257 8.77099 22.2678 8.67576 21.207 8.64456C20.6313 8.04053 19.8731 7.64231 19.049 7.51111C18.2249 7.37992 17.3805 7.52301 16.6456 7.9184C15.9108 8.31379 15.3261 8.93958 14.9815 9.69959C14.6369 10.4596 14.5515 11.3117 14.7383 12.125C11.582 11.9649 9.19141 10.3438 6.95703 7.93362C6.65234 8.52737 6.07422 10.4219 6.52344 11.7891C7.0569 13.1404 7.9733 14.3066 9.16016 15.1446C8.01806 15.0923 6.89293 14.848 5.83203 14.4219C6.38281 16.2305 8.27344 18.8555 11.2461 19.2657C9.90347 20.3263 8.24228 20.903 6.53125 20.9024C6.22858 20.9059 5.92597 20.8916 5.625 20.8594C7.35925 21.9801 9.38047 22.5756 11.4453 22.5742C18.4258 22.5742 22.2461 16.7578 22.2461 11.711V11.2149L24.375 8.92972Z" stroke="white"/>
</svg>
