<svg width="20" height="20" viewBox="0 0 20 20" fill="none" xmlns="http://www.w3.org/2000/svg">
<path d="M4.63558 6.19482C2.42187 6.6957 1.31502 6.94613 1.05168 7.79295C0.78834 8.63973 1.54293 9.52218 3.05209 11.2869L3.44253 11.7435C3.87139 12.2449 4.08581 12.4957 4.18227 12.8059C4.27874 13.1161 4.24632 13.4507 4.18148 14.1198L4.12246 14.7289C3.89429 17.0835 3.78021 18.2608 4.46963 18.7842C5.15906 19.3075 6.19541 18.8303 8.26812 17.8761L8.80434 17.6291C9.3933 17.3579 9.68778 17.2223 9.99999 17.2223C10.3122 17.2223 10.6067 17.3579 11.1956 17.6291L11.7319 17.8761C13.8046 18.8303 14.8409 19.3075 15.5304 18.7842C16.2198 18.2608 16.1057 17.0835 15.8775 14.7289M16.9479 11.2869C18.4571 9.52218 19.2117 8.63973 18.9483 7.79295C18.685 6.94613 17.5781 6.6957 15.3644 6.19482L14.7917 6.06524C14.1626 5.9229 13.8481 5.85174 13.5956 5.66002C13.3429 5.46831 13.181 5.17773 12.857 4.5966L12.5621 4.06753C11.4222 2.02251 10.8522 1 9.99999 1C9.14778 1 8.57781 2.02252 7.43784 4.06754" stroke="#F3F3F3" stroke-width="1.5" stroke-linecap="round"/>
</svg>
