<svg width="678" height="331" viewBox="0 0 678 331" fill="none" xmlns="http://www.w3.org/2000/svg">
<path d="M177.171 14.1106C176.509 14.1988 175.9 13.741 175.804 13.0816C175.713 12.4194 176.173 11.8104 176.833 11.7166C177.493 11.6242 178.105 12.0862 178.196 12.7428C178.292 13.405 177.829 14.014 177.171 14.1106Z" fill="#0088CC"/>
<path d="M113.099 26.7722C110.454 27.1418 108.013 25.3036 107.642 22.6618C107.269 20.0186 109.113 17.5756 111.756 17.206C114.395 16.8322 116.838 18.6746 117.209 21.3192C117.583 23.9582 115.738 26.3998 113.099 26.7722Z" fill="#0088CC"/>
<path d="M91.7401 30.9932C88.4389 31.4566 85.3827 29.155 84.9193 25.8524C84.4531 22.5526 86.7575 19.4964 90.0601 19.0302C93.3627 18.5668 96.4161 20.8684 96.8795 24.1724C97.3443 27.475 95.0427 30.5256 91.7401 30.9932Z" fill="#0088CC"/>
<path d="M70.1042 33.2122C67.2454 33.614 64.6022 31.6204 64.199 28.7644C63.8014 25.907 65.7908 23.2652 68.6496 22.8634C71.507 22.4616 74.1502 24.4538 74.5506 27.3084C74.951 30.1658 72.9602 32.8104 70.1042 33.2122Z" fill="#0088CC"/>
<path d="M48.8897 38.4552C44.8059 39.0292 41.0301 36.1844 40.4561 32.1006C39.8835 28.0182 42.7283 24.2452 46.8093 23.6712C50.8931 23.0986 54.6661 25.9434 55.2401 30.023C55.8141 34.1082 52.9693 37.8798 48.8897 38.4552Z" fill="#0088CC"/>
<path d="M27.3596 41.4792C23.2814 42.0518 19.5084 39.2084 18.933 35.126C18.359 31.0436 21.2024 27.2706 25.2834 26.6966C29.3644 26.1226 33.1402 28.9673 33.7156 33.0525C34.2924 37.1321 31.4448 40.9052 27.3596 41.4792Z" fill="#0088CC"/>
<path d="M5.10769 39.3316C3.88409 39.5024 2.74869 38.6512 2.57649 37.4262C2.40569 36.1998 3.25689 35.0672 4.48189 34.895C5.70689 34.7228 6.84089 35.5768 7.01309 36.8004C7.18529 38.0268 6.33269 39.1594 5.10769 39.3316Z" fill="#0088CC"/>
<path d="M182.106 36.3888C181.462 36.5708 180.793 36.2026 180.609 35.5628C180.426 34.9202 180.796 34.251 181.441 34.0662C182.079 33.8828 182.753 34.2566 182.932 34.895C183.118 35.5376 182.744 36.2054 182.106 36.3888Z" fill="#0088CC"/>
<path d="M161.542 43.5386C160.263 43.9096 158.923 43.1662 158.555 41.8838C158.188 40.6014 158.93 39.2658 160.214 38.899C161.493 38.5266 162.833 39.27 163.2 40.5524C163.567 41.8376 162.823 43.1732 161.542 43.5386Z" fill="#0088CC"/>
<path d="M140.982 50.6939C139.061 51.2441 137.052 50.134 136.501 48.2104C135.949 46.2882 137.062 44.2805 138.984 43.7289C140.909 43.1787 142.915 44.289 143.467 46.2126C144.019 48.1348 142.906 50.1423 140.982 50.6939Z" fill="#0088CC"/>
<path d="M120.415 57.8466C117.85 58.5802 115.176 57.1004 114.439 54.537C113.702 51.9708 115.188 49.294 117.755 48.559C120.317 47.8212 122.99 49.3052 123.726 51.8714C124.464 54.4362 122.979 57.1116 120.415 57.8466Z" fill="#0088CC"/>
<path d="M99.8543 64.9991C96.6497 65.9189 93.3023 64.0639 92.3839 60.8579C91.4641 57.6561 93.3205 54.3073 96.5251 53.3875C99.7311 52.4691 103.077 54.3227 103.997 57.5301C104.913 60.7347 103.06 64.0765 99.8543 64.9991Z" fill="#0088CC"/>
<path d="M78.3261 68.7749C76.3451 69.3419 74.2773 68.1967 73.7075 66.2143C73.1405 64.2333 74.2871 62.1669 76.2695 61.5999C78.2477 61.0315 80.3169 62.1767 80.8839 64.1563C81.4523 66.1387 80.3085 68.2051 78.3261 68.7749Z" fill="#0088CC"/>
<path d="M36.9429 82.1925C34.1681 82.9863 31.2757 81.3833 30.4805 78.6085C29.6867 75.8351 31.2897 72.9427 34.0617 72.1475C36.8351 71.3523 39.7289 72.9553 40.5255 75.7301C41.3193 78.5035 39.7163 81.3959 36.9429 82.1925Z" fill="#0088CC"/>
<path d="M15.6378 86.7495C13.6568 87.3165 11.589 86.1728 11.0206 84.1918C10.4522 82.2094 11.5988 80.1415 13.5812 79.5731C15.5608 79.0061 17.6286 80.1514 18.1956 82.1338C18.7654 84.112 17.6188 86.1797 15.6378 86.7495Z" fill="#0088CC"/>
<path d="M190.091 57.7668C189.479 58.0356 188.768 57.764 188.495 57.1536C188.225 56.5432 188.496 55.8306 189.11 55.559C189.716 55.2874 190.433 55.5632 190.701 56.1694C190.977 56.7798 190.699 57.4952 190.091 57.7668Z" fill="#0088CC"/>
<path d="M170.721 67.7082C169.503 68.2542 168.074 67.7054 167.534 66.4874C166.99 65.268 167.541 63.84 168.761 63.2996C169.975 62.755 171.406 63.301 171.946 64.5218C172.487 65.7426 171.939 67.1692 170.721 67.7082Z" fill="#0088CC"/>
<path d="M151.355 77.6552C149.528 78.4686 147.386 77.6454 146.572 75.8198C145.757 73.9886 146.584 71.8466 148.408 71.0332C150.238 70.2212 152.382 71.043 153.195 72.8686C154.007 74.697 153.184 76.8404 151.355 77.6552Z" fill="#0088CC"/>
<path d="M131.994 87.6008C129.555 88.6844 126.699 87.591 125.615 85.1536C124.528 82.7148 125.625 79.8588 128.063 78.7738C130.499 77.6874 133.353 78.7836 134.438 81.2238C135.525 83.6612 134.428 86.5144 131.994 87.6008Z" fill="#0088CC"/>
<path d="M112.626 97.5463C109.58 98.9043 106.007 97.5281 104.652 94.4817C103.295 91.4367 104.669 87.8653 107.712 86.5087C110.76 85.1521 114.332 86.5227 115.688 89.5719C117.042 92.6169 115.671 96.1869 112.626 97.5463Z" fill="#0088CC"/>
<path d="M91.2198 102.915C90.09 103.417 88.7656 102.91 88.2644 101.78C87.7618 100.649 88.2686 99.3258 89.3984 98.8232C90.5282 98.322 91.8512 98.8302 92.3538 99.9586C92.8564 101.09 92.3468 102.413 91.2198 102.915Z" fill="#0088CC"/>
<path d="M72.2758 113.802C70.0162 114.808 67.3674 113.792 66.3608 111.534C65.3542 109.273 66.3734 106.627 68.6316 105.622C70.8898 104.614 73.5386 105.631 74.5438 107.89C75.549 110.148 74.534 112.795 72.2758 113.802Z" fill="#0088CC"/>
<path d="M52.1148 121.962C50.2304 122.8 48.0254 121.953 47.1868 120.068C46.3482 118.187 47.1966 115.982 49.0782 115.143C50.9612 114.302 53.1676 115.151 54.0062 117.034C54.8448 118.917 53.9964 121.122 52.1148 121.962Z" fill="#0088CC"/>
<path d="M32.8599 132.167C30.2223 133.34 27.1353 132.156 25.9621 129.518C24.7861 126.882 25.9719 123.794 28.6095 122.62C31.2457 121.446 34.3341 122.632 35.5087 125.269C36.6805 127.904 35.4947 130.992 32.8599 132.167Z" fill="#0088CC"/>
<path d="M200.974 77.826C200.407 78.1774 199.663 78.0066 199.308 77.4424C198.956 76.8754 199.126 76.1306 199.693 75.7764C200.255 75.4236 201.007 75.5958 201.357 76.16C201.712 76.7256 201.537 77.4704 200.974 77.826Z" fill="#0088CC"/>
<path d="M183.182 90.3658C182.049 91.0742 180.558 90.7326 179.851 89.5986C179.144 88.466 179.49 86.9792 180.623 86.2722C181.75 85.561 183.243 85.904 183.948 87.0394C184.656 88.172 184.31 89.663 183.182 90.3658Z" fill="#0088CC"/>
<path d="M165.386 102.911C163.691 103.968 161.455 103.454 160.395 101.758C159.334 100.061 159.852 97.825 161.546 96.7652C163.245 95.7054 165.481 96.2206 166.541 97.9174C167.601 99.6128 167.083 101.851 165.386 102.911Z" fill="#0088CC"/>
<path d="M147.593 115.454C145.329 116.868 142.348 116.182 140.936 113.918C139.519 111.654 140.208 108.672 142.473 107.258C144.734 105.843 147.715 106.532 149.127 108.798C150.543 111.061 149.854 114.04 147.593 115.454Z" fill="#0088CC"/>
<path d="M128.575 126.042C126.828 127.134 124.522 126.601 123.43 124.853C122.338 123.106 122.873 120.802 124.617 119.708C126.366 118.619 128.67 119.148 129.764 120.9C130.853 122.646 130.322 124.947 128.575 126.042Z" fill="#0088CC"/>
<path d="M109.749 136.928C108.349 137.801 106.507 137.375 105.633 135.976C104.76 134.579 105.185 132.735 106.585 131.862C107.983 130.991 109.826 131.415 110.699 132.811C111.571 134.212 111.147 136.053 109.749 136.928Z" fill="#0088CC"/>
<path d="M90.9119 147.815C89.8619 148.469 88.4815 148.149 87.8263 147.101C87.1683 146.052 87.4889 144.67 88.5389 144.017C89.5875 143.361 90.9679 143.679 91.6245 144.729C92.2769 145.778 91.9591 147.158 90.9119 147.815Z" fill="#0088CC"/>
<path d="M72.0847 158.7C71.3875 159.135 70.4649 158.924 70.0267 158.224C69.5913 157.525 69.8041 156.603 70.5027 156.167C71.2013 155.729 72.1225 155.943 72.5607 156.643C72.9975 157.34 72.7847 158.263 72.0847 158.7Z" fill="#0088CC"/>
<path d="M56.4185 174.651C53.2699 176.614 49.1273 175.662 47.1631 172.514C45.1961 169.368 46.1523 165.222 49.2995 163.255C52.4439 161.291 56.5907 162.247 58.5549 165.395C60.5219 168.538 59.5643 172.683 56.4185 174.651Z" fill="#0088CC"/>
<path d="M214.549 96.173C214.036 96.6 213.275 96.5356 212.845 96.026C212.417 95.5136 212.482 94.752 212.995 94.3236C213.503 93.8938 214.27 93.961 214.694 94.4706C215.127 94.9802 215.058 95.7446 214.549 96.173Z" fill="#0088CC"/>
<path d="M198.672 111.069C197.65 111.927 196.127 111.796 195.267 110.775C194.411 109.752 194.544 108.23 195.57 107.372C196.585 106.511 198.112 106.642 198.969 107.667C199.829 108.692 199.691 110.216 198.672 111.069Z" fill="#0088CC"/>
<path d="M182.791 125.968C181.259 127.252 178.973 127.053 177.686 125.521C176.4 123.987 176.604 121.702 178.133 120.417C179.667 119.13 181.954 119.328 183.237 120.862C184.523 122.394 184.324 124.68 182.791 125.968Z" fill="#0088CC"/>
<path d="M166.918 140.865C164.871 142.583 161.825 142.316 160.111 140.273C158.395 138.226 158.663 135.177 160.708 133.465C162.751 131.747 165.796 132.014 167.511 134.061C169.227 136.102 168.959 139.15 166.918 140.865Z" fill="#0088CC"/>
<path d="M150.04 154.568C148.144 156.159 145.318 155.911 143.726 154.017C142.137 152.121 142.386 149.296 144.28 147.703C146.176 146.114 149.001 146.36 150.593 148.257C152.182 150.153 151.934 152.977 150.04 154.568Z" fill="#0088CC"/>
<path d="M131.949 166.825C131.001 167.621 129.587 167.497 128.793 166.55C127.998 165.602 128.123 164.189 129.07 163.395C130.017 162.6 131.428 162.723 132.223 163.67C133.018 164.618 132.897 166.03 131.949 166.825Z" fill="#0088CC"/>
<path d="M114.335 179.655C114.02 179.921 113.55 179.878 113.285 179.564C113.019 179.248 113.06 178.776 113.376 178.511C113.692 178.247 114.164 178.287 114.427 178.604C114.692 178.917 114.653 179.389 114.335 179.655Z" fill="#0088CC"/>
<path d="M85.8299 213.318C82.3537 216.233 77.1723 215.783 74.2575 212.306C71.3399 208.834 71.7977 203.652 75.2711 200.736C78.7445 197.823 83.9259 198.274 86.8393 201.75C89.7555 205.223 89.3005 210.403 85.8299 213.318Z" fill="#0088CC"/>
<path d="M230.537 112.455C230.089 112.949 229.325 112.99 228.829 112.545C228.334 112.097 228.293 111.335 228.741 110.838C229.183 110.342 229.952 110.303 230.443 110.748C230.943 111.191 230.982 111.958 230.537 112.455Z" fill="#0088CC"/>
<path d="M216.886 129.415C215.996 130.407 214.466 130.488 213.473 129.595C212.483 128.702 212.404 127.176 213.298 126.186C214.187 125.191 215.716 125.11 216.706 126.004C217.701 126.899 217.777 128.428 216.886 129.415Z" fill="#0088CC"/>
<path d="M203.24 146.38C201.902 147.865 199.612 147.984 198.123 146.646C196.637 145.305 196.519 143.014 197.856 141.529C199.194 140.042 201.488 139.92 202.972 141.26C204.458 142.597 204.58 144.892 203.24 146.38Z" fill="#0088CC"/>
<path d="M189.594 163.339C187.806 165.325 184.753 165.483 182.77 163.702C180.788 161.916 180.627 158.858 182.413 156.874C184.196 154.892 187.252 154.732 189.234 156.52C191.218 158.304 191.378 161.36 189.594 163.339Z" fill="#0088CC"/>
<path d="M175.941 180.305C173.71 182.783 169.891 182.98 167.411 180.748C164.933 178.518 164.734 174.696 166.965 172.22C169.198 169.742 173.015 169.541 175.496 171.774C177.971 174.006 178.172 177.822 175.941 180.305Z" fill="#0088CC"/>
<path d="M129.486 226.223C128.659 227.143 127.242 227.216 126.323 226.39C125.405 225.56 125.328 224.144 126.158 223.226C126.984 222.306 128.402 222.233 129.321 223.061C130.239 223.888 130.313 225.303 129.486 226.223Z" fill="#0088CC"/>
<path d="M120.488 247.372C116.901 251.352 110.767 251.679 106.782 248.09C102.798 244.504 102.477 238.368 106.063 234.384C109.651 230.402 115.786 230.082 119.77 233.667C123.753 237.25 124.074 243.387 120.488 247.372Z" fill="#0088CC"/>
<path d="M248.636 126.351C248.259 126.904 247.51 127.051 246.959 126.679C246.404 126.302 246.259 125.552 246.634 125C247.005 124.449 247.76 124.302 248.308 124.674C248.864 125.045 249.007 125.797 248.636 126.351Z" fill="#0088CC"/>
<path d="M237.479 145.046C236.734 146.152 235.232 146.447 234.126 145.701C233.02 144.955 232.73 143.452 233.477 142.346C234.219 141.238 235.721 140.945 236.827 141.694C237.935 142.443 238.225 143.945 237.479 145.046Z" fill="#0088CC"/>
<path d="M226.327 163.745C225.207 165.403 222.958 165.84 221.294 164.723C219.635 163.603 219.203 161.351 220.317 159.692C221.44 158.033 223.691 157.594 225.35 158.712C227.006 159.831 227.446 162.085 226.327 163.745Z" fill="#0088CC"/>
<path d="M215.178 182.44C213.683 184.652 210.682 185.235 208.471 183.744C206.258 182.253 205.674 179.249 207.168 177.034C208.657 174.825 211.659 174.241 213.872 175.735C216.083 177.226 216.667 180.23 215.178 182.44Z" fill="#0088CC"/>
<path d="M204.018 201.139C202.155 203.903 198.4 204.631 195.635 202.766C192.869 200.903 192.142 197.147 194.005 194.382C195.872 191.618 199.625 190.889 202.39 192.755C205.152 194.618 205.882 198.37 204.018 201.139Z" fill="#0088CC"/>
<path d="M165.64 253.911C164.488 255.619 162.167 256.07 160.459 254.918C158.749 253.765 158.298 251.447 159.451 249.738C160.601 248.027 162.923 247.578 164.632 248.73C166.343 249.882 166.792 252.2 165.64 253.911Z" fill="#0088CC"/>
<path d="M158.434 275.271C155.436 279.713 149.407 280.89 144.961 277.892C140.519 274.894 139.347 268.862 142.344 264.419C145.342 259.976 151.374 258.803 155.815 261.801C160.259 264.795 161.43 270.829 158.434 275.271Z" fill="#0088CC"/>
<path d="M268.494 137.592C268.198 138.193 267.477 138.443 266.878 138.151C266.277 137.855 266.028 137.134 266.324 136.534C266.615 135.937 267.341 135.688 267.936 135.979C268.537 136.269 268.785 136.996 268.494 137.592Z" fill="#0088CC"/>
<path d="M260.048 157.66C259.467 158.859 258.019 159.359 256.819 158.773C255.622 158.187 255.125 156.743 255.71 155.543C256.29 154.343 257.739 153.843 258.936 154.428C260.14 155.018 260.634 156.464 260.048 157.66Z" fill="#0088CC"/>
<path d="M251.607 177.729C250.729 179.523 248.56 180.271 246.76 179.396C244.962 178.517 244.219 176.347 245.092 174.551C245.97 172.75 248.139 172.004 249.938 172.88C251.735 173.757 252.483 175.93 251.607 177.729Z" fill="#0088CC"/>
<path d="M243.164 197.793C241.992 200.193 239.102 201.19 236.704 200.021C234.304 198.85 233.309 195.958 234.478 193.557C235.647 191.16 238.538 190.163 240.938 191.337C243.337 192.503 244.331 195.397 243.164 197.793Z" fill="#0088CC"/>
<path d="M234.722 217.861C233.262 220.861 229.644 222.103 226.646 220.64C223.651 219.181 222.405 215.562 223.865 212.565C225.328 209.567 228.944 208.323 231.943 209.786C234.939 211.249 236.182 214.862 234.722 217.861Z" fill="#0088CC"/>
<path d="M226.276 237.927C224.523 241.521 220.182 243.019 216.586 241.265C212.988 239.509 211.496 235.171 213.252 231.575C215.007 227.98 219.344 226.485 222.935 228.236C226.535 229.993 228.033 234.331 226.276 237.927Z" fill="#0088CC"/>
<path d="M212.917 255.599C212.195 257.079 210.407 257.695 208.923 256.971C207.441 256.249 206.826 254.461 207.55 252.979C208.273 251.497 210.06 250.883 211.541 251.605C213.024 252.328 213.638 254.115 212.917 255.599Z" fill="#0088CC"/>
<path d="M205.401 276.116C204.137 278.711 201.01 279.787 198.417 278.522C195.824 277.256 194.746 274.13 196.009 271.537C197.273 268.944 200.403 267.866 202.998 269.132C205.59 270.395 206.668 273.524 205.401 276.116Z" fill="#0088CC"/>
<path d="M198.557 296.964C196.569 301.036 191.656 302.733 187.578 300.742C183.502 298.756 181.81 293.839 183.798 289.765C185.784 285.69 190.703 283.998 194.778 285.985C198.852 287.972 200.543 292.888 198.557 296.964Z" fill="#0088CC"/>
<path d="M289.726 145.961C289.515 146.595 288.834 146.944 288.201 146.738C287.567 146.531 287.22 145.851 287.427 145.215C287.632 144.584 288.316 144.236 288.946 144.444C289.582 144.645 289.929 145.331 289.726 145.961Z" fill="#0088CC"/>
<path d="M284.155 167.01C283.743 168.277 282.381 168.972 281.111 168.561C279.844 168.147 279.151 166.786 279.565 165.516C279.971 164.247 281.336 163.551 282.605 163.967C283.876 164.38 284.568 165.743 284.155 167.01Z" fill="#0088CC"/>
<path d="M278.588 188.059C277.969 189.958 275.925 191.002 274.021 190.385C272.117 189.764 271.077 187.72 271.693 185.819C272.313 183.914 274.357 182.872 276.261 183.488C278.161 184.106 279.205 186.155 278.588 188.059Z" fill="#0088CC"/>
<path d="M273.022 209.103C272.195 211.641 269.473 213.031 266.935 212.206C264.396 211.382 263.005 208.653 263.833 206.115C264.656 203.577 267.38 202.191 269.92 203.017C272.458 203.839 273.846 206.567 273.022 209.103Z" fill="#0088CC"/>
<path d="M267.453 230.15C266.424 233.321 263.014 235.057 259.841 234.027C256.672 232.999 254.937 229.589 255.963 226.418C256.996 223.244 260.403 221.508 263.578 222.54C266.746 223.572 268.482 226.978 267.453 230.15Z" fill="#0088CC"/>
<path d="M261.879 251.196C260.641 254.999 256.555 257.085 252.749 255.849C248.943 254.611 246.861 250.522 248.1 246.718C249.336 242.913 253.423 240.829 257.224 242.066C261.033 243.303 263.119 247.393 261.879 251.196Z" fill="#0088CC"/>
<path d="M253.953 271.475C252.931 274.611 249.563 276.328 246.428 275.31C243.289 274.291 241.576 270.921 242.595 267.785C243.614 264.65 246.983 262.934 250.119 263.952C253.252 264.971 254.97 268.339 253.953 271.475Z" fill="#0088CC"/>
<path d="M247.944 292.38C246.797 295.908 243.007 297.839 239.479 296.691C235.951 295.546 234.021 291.757 235.166 288.229C236.31 284.701 240.102 282.769 243.632 283.916C247.157 285.061 249.086 288.852 247.944 292.38Z" fill="#0088CC"/>
<path d="M241.228 313.054C240.079 316.579 236.296 318.515 232.765 317.367C229.236 316.224 227.307 312.432 228.451 308.903C229.597 305.375 233.387 303.446 236.916 304.59C240.443 305.736 242.374 309.526 241.228 313.054Z" fill="#0088CC"/>
<path d="M311.914 151.295C311.795 151.953 311.172 152.394 310.514 152.278C309.857 152.159 309.419 151.536 309.534 150.875C309.647 150.221 310.279 149.78 310.931 149.899C311.592 150.01 312.03 150.641 311.914 151.295Z" fill="#0088CC"/>
<path d="M309.325 172.914C309.095 174.224 307.842 175.104 306.529 174.873C305.216 174.64 304.339 173.387 304.573 172.073C304.797 170.758 306.051 169.88 307.366 170.115C308.683 170.349 309.56 171.602 309.325 172.914Z" fill="#0088CC"/>
<path d="M306.746 194.533C306.395 196.498 304.517 197.817 302.546 197.471C300.575 197.121 299.26 195.241 299.606 193.276C299.953 191.302 301.832 189.984 303.805 190.331C305.773 190.679 307.09 192.562 306.746 194.533Z" fill="#0088CC"/>
<path d="M304.161 216.147C303.696 218.774 301.192 220.528 298.565 220.067C295.935 219.604 294.179 217.097 294.645 214.467C295.106 211.838 297.611 210.087 300.241 210.553C302.868 211.011 304.622 213.52 304.161 216.147Z" fill="#0088CC"/>
<path d="M301.574 237.765C300.996 241.049 297.862 243.242 294.578 242.663C291.294 242.084 289.101 238.951 289.678 235.669C290.258 232.382 293.391 230.189 296.677 230.769C299.958 231.347 302.151 234.48 301.574 237.765Z" fill="#0088CC"/>
<path d="M298.985 259.381C298.29 263.32 294.53 265.951 290.59 265.258C286.649 264.562 284.017 260.803 284.713 256.864C285.409 252.924 289.168 250.292 293.102 250.988C297.046 251.682 299.679 255.44 298.985 259.381Z" fill="#0088CC"/>
<path d="M296.403 280.998C295.592 285.594 291.204 288.666 286.608 287.855C282.008 287.045 278.94 282.659 279.751 278.062C280.563 273.466 284.948 270.395 289.544 271.205C294.14 272.016 297.208 276.402 296.403 280.998Z" fill="#0088CC"/>
<path d="M292.387 302.364C291.602 306.828 287.342 309.81 282.874 309.022C278.408 308.234 275.429 303.976 276.216 299.513C277.001 295.049 281.261 292.064 285.729 292.851C290.193 293.636 293.174 297.898 292.387 302.364Z" fill="#0088CC"/>
<path d="M285.671 323.252C285.168 326.092 282.46 327.992 279.617 327.489C276.778 326.99 274.881 324.278 275.381 321.439C275.882 318.597 278.591 316.698 281.433 317.199C284.273 317.698 286.172 320.411 285.671 323.252Z" fill="#0088CC"/>
<path d="M334.628 153.489C334.6 154.157 334.046 154.679 333.378 154.655C332.709 154.627 332.189 154.074 332.212 153.405C332.235 152.739 332.798 152.215 333.462 152.243C334.127 152.261 334.65 152.824 334.628 153.489Z" fill="#0088CC"/>
<path d="M335.077 175.256C335.034 176.588 333.915 177.633 332.58 177.587C331.248 177.537 330.205 176.42 330.256 175.087C330.295 173.754 331.416 172.708 332.748 172.757C334.086 172.806 335.125 173.926 335.077 175.256Z" fill="#0088CC"/>
<path d="M335.53 197.023C335.458 199.021 333.782 200.585 331.782 200.519C329.778 200.446 328.217 198.768 328.283 196.771C328.356 194.769 330.033 193.204 332.034 193.274C334.032 193.343 335.597 195.023 335.53 197.023Z" fill="#0088CC"/>
<path d="M335.974 218.789C335.88 221.455 333.643 223.542 330.981 223.45C328.312 223.357 326.226 221.117 326.319 218.449C326.409 215.785 328.646 213.697 331.316 213.795C333.98 213.884 336.065 216.124 335.974 218.789Z" fill="#0088CC"/>
<path d="M336.425 240.556C336.307 243.888 333.509 246.495 330.175 246.379C326.845 246.263 324.237 243.466 324.351 240.134C324.469 236.799 327.265 234.191 330.601 234.31C333.932 234.426 336.537 237.222 336.425 240.556Z" fill="#0088CC"/>
<path d="M336.87 262.322C336.732 266.318 333.376 269.45 329.378 269.31C325.378 269.168 322.247 265.812 322.387 261.815C322.532 257.817 325.886 254.687 329.882 254.827C333.881 254.968 337.012 258.322 336.87 262.322Z" fill="#0088CC"/>
<path d="M334.841 284.003C334.725 287.297 331.959 289.876 328.664 289.762C325.366 289.646 322.789 286.88 322.906 283.584C323.02 280.288 325.786 277.711 329.082 277.826C332.376 277.939 334.956 280.706 334.841 284.003Z" fill="#0088CC"/>
<path d="M336.317 305.803C336.159 310.334 332.357 313.881 327.825 313.722C323.292 313.564 319.745 309.764 319.904 305.232C320.06 300.7 323.864 297.151 328.397 297.311C332.929 297.466 336.473 301.273 336.317 305.803Z" fill="#0088CC"/>
<path d="M331.08 327.372C331.007 329.433 329.281 331.044 327.219 330.971C325.158 330.9 323.548 329.171 323.619 327.11C323.692 325.051 325.42 323.439 327.481 323.511C329.541 323.583 331.15 325.312 331.08 327.372Z" fill="#0088CC"/>
<path d="M357.427 152.499C357.491 153.164 357.014 153.761 356.35 153.829C355.682 153.896 355.093 153.416 355.023 152.751C354.949 152.089 355.436 151.494 356.097 151.428C356.762 151.355 357.354 151.84 357.427 152.499Z" fill="#0088CC"/>
<path d="M360.901 173.993C361.044 175.319 360.081 176.511 358.755 176.651C357.426 176.786 356.238 175.826 356.1 174.496C355.955 173.173 356.918 171.98 358.248 171.844C359.577 171.704 360.764 172.67 360.901 173.993Z" fill="#0088CC"/>
<path d="M364.373 195.486C364.582 197.474 363.138 199.256 361.149 199.471C359.157 199.678 357.377 198.232 357.164 196.244C356.957 194.25 358.399 192.471 360.39 192.259C362.379 192.049 364.164 193.495 364.373 195.486Z" fill="#0088CC"/>
<path d="M367.849 216.976C368.126 219.629 366.202 222.008 363.552 222.289C360.896 222.566 358.518 220.639 358.238 217.984C357.959 215.334 359.884 212.955 362.54 212.68C365.192 212.397 367.57 214.325 367.849 216.976Z" fill="#0088CC"/>
<path d="M371.32 238.469C371.669 241.786 369.26 244.756 365.942 245.106C362.628 245.454 359.654 243.047 359.307 239.733C358.958 236.415 361.365 233.442 364.683 233.094C367.998 232.746 370.968 235.152 371.32 238.469Z" fill="#0088CC"/>
<path d="M374.793 259.962C375.21 263.938 372.32 267.505 368.343 267.924C364.361 268.344 360.796 265.454 360.38 261.477C359.963 257.498 362.851 253.932 366.827 253.513C370.807 253.093 374.376 255.982 374.793 259.962Z" fill="#0088CC"/>
<path d="M372.829 282.026C373.001 283.664 371.811 285.134 370.172 285.307C368.531 285.481 367.062 284.29 366.892 282.65C366.719 281.012 367.909 279.541 369.546 279.369C371.188 279.195 372.657 280.385 372.829 282.026Z" fill="#0088CC"/>
<path d="M377.329 303.408C377.631 306.277 375.547 308.85 372.678 309.151C369.807 309.453 367.235 307.371 366.935 304.503C366.633 301.633 368.716 299.06 371.586 298.759C374.453 298.455 377.025 300.539 377.329 303.408Z" fill="#0088CC"/>
<path d="M376.634 325.339C376.765 326.568 375.872 327.671 374.64 327.8C373.412 327.93 372.311 327.037 372.18 325.808C372.052 324.576 372.943 323.474 374.173 323.345C375.403 323.217 376.504 324.11 376.634 325.339Z" fill="#0088CC"/>
<path d="M379.866 148.348C380.023 148.998 379.633 149.653 378.985 149.813C378.334 149.974 377.68 149.582 377.521 148.933C377.358 148.287 377.755 147.629 378.399 147.47C379.047 147.305 379.703 147.703 379.866 148.348Z" fill="#0088CC"/>
<path d="M386.293 169.148C386.616 170.442 385.831 171.755 384.536 172.077C383.239 172.399 381.93 171.611 381.61 170.316C381.281 169.023 382.07 167.709 383.365 167.39C384.665 167.066 385.974 167.856 386.293 169.148Z" fill="#0088CC"/>
<path d="M392.73 189.946C393.209 191.887 392.03 193.855 390.088 194.342C388.145 194.823 386.181 193.638 385.693 191.701C385.212 189.757 386.393 187.79 388.332 187.306C390.274 186.823 392.244 188.007 392.73 189.946Z" fill="#0088CC"/>
<path d="M397.367 211.193C397.766 212.793 396.793 214.413 395.194 214.812C393.594 215.211 391.971 214.236 391.574 212.635C391.175 211.036 392.148 209.416 393.749 209.02C395.348 208.618 396.969 209.595 397.367 211.193Z" fill="#0088CC"/>
<path d="M421.492 317.192C421.59 317.593 421.348 317.997 420.948 318.098C420.547 318.199 420.143 317.954 420.042 317.555C419.942 317.155 420.185 316.749 420.585 316.649C420.985 316.55 421.393 316.795 421.492 317.192Z" fill="#0088CC"/>
<path d="M401.513 141.113C401.761 141.733 401.464 142.436 400.846 142.685C400.224 142.934 399.523 142.636 399.272 142.017C399.021 141.401 399.322 140.693 399.941 140.448C400.559 140.192 401.264 140.496 401.513 141.113Z" fill="#0088CC"/>
<path d="M410.771 160.817C411.271 162.051 410.676 163.463 409.439 163.962C408.2 164.458 406.793 163.863 406.296 162.623C405.792 161.389 406.387 159.978 407.628 159.482C408.865 158.981 410.275 159.58 410.771 160.817Z" fill="#0088CC"/>
<path d="M420.036 180.516C420.782 182.371 419.886 184.484 418.034 185.237C416.176 185.982 414.067 185.086 413.315 183.232C412.567 181.374 413.46 179.263 415.317 178.514C417.17 177.765 419.286 178.661 420.036 180.516Z" fill="#0088CC"/>
<path d="M429.298 200.218C430.296 202.695 429.102 205.509 426.631 206.508C424.156 207.509 421.336 206.31 420.338 203.836C419.337 201.363 420.535 198.548 423.01 197.551C425.48 196.547 428.298 197.749 429.298 200.218Z" fill="#0088CC"/>
<path d="M437.115 220.506C438.04 222.799 436.931 225.408 434.64 226.335C432.348 227.261 429.737 226.153 428.81 223.861C427.887 221.567 428.992 218.959 431.288 218.03C433.58 217.108 436.187 218.217 437.115 220.506Z" fill="#0088CC"/>
<path d="M444.565 240.94C445.336 242.851 444.412 245.027 442.502 245.799C440.591 246.571 438.414 245.648 437.644 243.737C436.872 241.825 437.794 239.649 439.705 238.878C441.619 238.106 443.795 239.03 444.565 240.94Z" fill="#0088CC"/>
<path d="M452.021 261.374C452.638 262.903 451.897 264.643 450.369 265.261C448.84 265.878 447.101 265.139 446.484 263.61C445.866 262.081 446.605 260.343 448.133 259.724C449.662 259.108 451.403 259.846 452.021 261.374Z" fill="#0088CC"/>
<path d="M459.464 281.809C459.926 282.954 459.373 284.259 458.227 284.724C457.079 285.186 455.775 284.634 455.312 283.487C454.849 282.339 455.403 281.033 456.55 280.571C457.693 280.108 459 280.661 459.464 281.809Z" fill="#0088CC"/>
<path d="M466.92 302.243C467.231 303.008 466.861 303.877 466.096 304.186C465.331 304.497 464.462 304.126 464.152 303.362C463.843 302.597 464.213 301.727 464.977 301.417C465.743 301.109 466.611 301.479 466.92 302.243Z" fill="#0088CC"/>
<path d="M421.935 130.935C422.265 131.515 422.071 132.252 421.494 132.587C420.912 132.919 420.175 132.724 419.842 132.146C419.507 131.569 419.708 130.827 420.283 130.497C420.86 130.158 421.6 130.361 421.935 130.935Z" fill="#0088CC"/>
<path d="M433.851 149.159C434.519 150.312 434.126 151.792 432.969 152.459C431.811 153.124 430.336 152.727 429.671 151.57C428.999 150.42 429.396 148.938 430.551 148.275C431.711 147.605 433.188 148.004 433.851 149.159Z" fill="#0088CC"/>
<path d="M445.765 167.377C446.763 169.112 446.171 171.326 444.441 172.33C442.706 173.327 440.491 172.732 439.489 171.003C438.489 169.268 439.084 167.052 440.815 166.05C442.544 165.052 444.766 165.645 445.765 167.377Z" fill="#0088CC"/>
<path d="M457.678 185.599C459.011 187.909 458.221 190.868 455.913 192.199C453.597 193.533 450.642 192.741 449.307 190.428C447.975 188.122 448.766 185.164 451.08 183.834C453.387 182.496 456.344 183.289 457.678 185.599Z" fill="#0088CC"/>
<path d="M469.6 203.822C471.267 206.71 470.273 210.403 467.386 212.072C464.502 213.737 460.805 212.748 459.137 209.864C457.471 206.973 458.46 203.28 461.349 201.611C464.236 199.942 467.929 200.936 469.6 203.822Z" fill="#0088CC"/>
<path d="M479.759 223.052C481.201 225.55 480.347 228.747 477.847 230.191C475.346 231.636 472.15 230.777 470.707 228.28C469.268 225.781 470.122 222.583 472.619 221.143C475.12 219.696 478.317 220.555 479.759 223.052Z" fill="#0088CC"/>
<path d="M489.984 242.252C491.219 244.391 490.485 247.132 488.345 248.368C486.201 249.607 483.463 248.871 482.225 246.73C480.989 244.59 481.723 241.849 483.866 240.611C486.007 239.376 488.747 240.111 489.984 242.252Z" fill="#0088CC"/>
<path d="M500.208 261.45C501.236 263.235 500.625 265.516 498.84 266.549C497.055 267.579 494.773 266.969 493.743 265.184C492.713 263.399 493.323 261.117 495.108 260.084C496.893 259.052 499.176 259.665 500.208 261.45Z" fill="#0088CC"/>
<path d="M510.423 280.65C511.248 282.078 510.759 283.903 509.33 284.728C507.905 285.554 506.076 285.062 505.253 283.636C504.427 282.208 504.917 280.382 506.344 279.556C507.772 278.73 509.599 279.222 510.423 280.65Z" fill="#0088CC"/>
<path d="M440.751 118.014C441.158 118.542 441.07 119.301 440.542 119.71C440.013 120.12 439.255 120.028 438.846 119.503C438.435 118.978 438.529 118.213 439.054 117.809C439.579 117.393 440.339 117.491 440.751 118.014Z" fill="#0088CC"/>
<path d="M455.081 134.403C455.902 135.453 455.72 136.972 454.668 137.792C453.615 138.614 452.097 138.426 451.278 137.374C450.451 136.328 450.638 134.805 451.691 133.987C452.747 133.164 454.264 133.351 455.081 134.403Z" fill="#0088CC"/>
<path d="M469.413 150.787C470.642 152.363 470.365 154.643 468.791 155.876C467.209 157.105 464.934 156.824 463.702 155.253C462.47 153.672 462.749 151.396 464.325 150.163C465.9 148.931 468.181 149.209 469.413 150.787Z" fill="#0088CC"/>
<path d="M483.751 167.171C485.392 169.275 485.019 172.312 482.919 173.954C480.817 175.598 477.777 175.223 476.132 173.118C474.49 171.018 474.865 167.982 476.971 166.341C479.068 164.696 482.106 165.071 483.751 167.171Z" fill="#0088CC"/>
<path d="M498.089 183.557C500.143 186.185 499.674 189.983 497.046 192.038C494.419 194.089 490.623 193.621 488.57 190.996C486.515 188.367 486.983 184.572 489.613 182.517C492.24 180.464 496.034 180.933 498.089 183.557Z" fill="#0088CC"/>
<path d="M512.417 199.942C514.88 203.095 514.32 207.652 511.167 210.116C508.013 212.58 503.459 212.019 500.996 208.867C498.534 205.713 499.094 201.156 502.244 198.698C505.399 196.232 509.956 196.79 512.417 199.942Z" fill="#0088CC"/>
<path d="M524.798 217.857C526.828 220.455 526.369 224.21 523.77 226.24C521.17 228.273 517.418 227.809 515.387 225.212C513.357 222.611 513.817 218.859 516.417 216.831C519.014 214.798 522.769 215.26 524.798 217.857Z" fill="#0088CC"/>
<path d="M537.592 235.445C539.37 237.72 538.967 241.006 536.691 242.781C534.416 244.558 531.133 244.156 529.359 241.881C527.581 239.607 527.984 236.32 530.26 234.543C532.531 232.767 535.817 233.173 537.592 235.445Z" fill="#0088CC"/>
<path d="M550.385 253.036C551.907 254.986 551.563 257.8 549.613 259.325C547.661 260.847 544.848 260.501 543.325 258.551C541.802 256.602 542.146 253.786 544.098 252.263C546.047 250.74 548.862 251.087 550.385 253.036Z" fill="#0088CC"/>
<path d="M457.575 102.602C458.053 103.069 458.068 103.831 457.606 104.311C457.138 104.79 456.375 104.804 455.897 104.341C455.416 103.88 455.402 103.109 455.867 102.635C456.328 102.151 457.096 102.141 457.575 102.602Z" fill="#0088CC"/>
<path d="M474.052 116.836C475.012 117.76 475.039 119.291 474.115 120.25C473.185 121.209 471.656 121.234 470.699 120.306C469.734 119.385 469.707 117.853 470.637 116.896C471.568 115.933 473.095 115.909 474.052 116.836Z" fill="#0088CC"/>
<path d="M490.529 131.065C491.964 132.455 492.007 134.75 490.619 136.191C489.226 137.63 486.932 137.666 485.495 136.28C484.055 134.887 484.012 132.594 485.402 131.153C486.792 129.716 489.09 129.676 490.529 131.065Z" fill="#0088CC"/>
<path d="M507.001 145.295C508.919 147.15 508.974 150.209 507.123 152.125C505.268 154.048 502.206 154.099 500.285 152.244C498.369 150.394 498.314 147.335 500.172 145.417C502.02 143.496 505.082 143.444 507.001 145.295Z" fill="#0088CC"/>
<path d="M523.478 159.527C525.877 161.843 525.942 165.669 523.627 168.07C521.312 170.464 517.486 170.531 515.087 168.217C512.686 165.899 512.619 162.075 514.94 159.676C517.255 157.276 521.079 157.214 523.478 159.527Z" fill="#0088CC"/>
<path d="M539.954 173.758C542.831 176.537 542.912 181.126 540.132 184.003C537.356 186.886 532.765 186.962 529.888 184.183C527.011 181.402 526.93 176.814 529.706 173.94C532.486 171.059 537.077 170.979 539.954 173.758Z" fill="#0088CC"/>
<path d="M556.428 187.989C559.784 191.232 559.878 196.585 556.636 199.942C553.393 203.304 548.04 203.395 544.682 200.152C541.325 196.91 541.23 191.558 544.475 188.201C547.716 184.842 553.068 184.75 556.428 187.989Z" fill="#0088CC"/>
<path d="M572.905 202.222C576.743 205.927 576.846 212.047 573.142 215.883C569.435 219.72 563.318 219.828 559.482 216.122C555.643 212.419 555.536 206.298 559.243 202.46C562.947 198.621 569.067 198.516 572.905 202.222Z" fill="#0088CC"/>
<path d="M585.98 219.976C588.349 222.268 588.419 226.05 586.126 228.421C583.837 230.793 580.054 230.86 577.682 228.568C575.311 226.276 575.245 222.495 577.534 220.123C579.826 217.752 583.608 217.685 585.98 219.976Z" fill="#0088CC"/>
<path d="M472.098 84.9968C472.635 85.3916 472.759 86.1448 472.364 86.6852C471.97 87.2242 471.217 87.346 470.677 86.9512C470.136 86.562 470.019 85.8032 470.412 85.2656C470.8 84.7224 471.559 84.6062 472.098 84.9968Z" fill="#0088CC"/>
<path d="M490.391 96.8002C491.472 97.5814 491.713 99.0934 490.927 100.17C490.143 101.251 488.631 101.487 487.555 100.702C486.47 99.9236 486.232 98.4102 487.018 97.3322C487.805 96.2514 489.314 96.0134 490.391 96.8002Z" fill="#0088CC"/>
<path d="M508.687 108.598C510.303 109.771 510.663 112.039 509.491 113.659C508.311 115.277 506.044 115.633 504.427 114.463C502.81 113.282 502.449 111.016 503.625 109.397C504.8 107.78 507.069 107.421 508.687 108.598Z" fill="#0088CC"/>
<path d="M526.982 120.396C529.141 121.967 529.621 124.985 528.055 127.144C526.485 129.305 523.461 129.783 521.301 128.212C519.145 126.647 518.666 123.624 520.239 121.47C521.8 119.307 524.824 118.829 526.982 120.396Z" fill="#0088CC"/>
<path d="M545.281 132.195C547.978 134.155 548.576 137.935 546.616 140.633C544.656 143.329 540.877 143.927 538.181 141.97C535.482 140.007 534.885 136.23 536.847 133.532C538.805 130.834 542.581 130.239 545.281 132.195Z" fill="#0088CC"/>
<path d="M563.575 143.994C566.81 146.348 567.529 150.881 565.177 154.116C562.826 157.357 558.293 158.073 555.056 155.721C551.821 153.367 551.104 148.834 553.452 145.603C555.804 142.362 560.338 141.642 563.575 143.994Z" fill="#0088CC"/>
<path d="M581.872 155.796C585.646 158.539 586.486 163.828 583.742 167.605C580.998 171.384 575.712 172.22 571.933 169.474C568.157 166.73 567.32 161.445 570.064 157.667C572.81 153.889 578.095 153.055 581.872 155.796Z" fill="#0088CC"/>
<path d="M598.875 169.372C602.211 171.798 602.952 176.466 600.527 179.801C598.102 183.134 593.436 183.875 590.101 181.453C586.766 179.032 586.026 174.36 588.45 171.024C590.871 167.691 595.54 166.953 598.875 169.372Z" fill="#0088CC"/>
<path d="M615.584 183.358C618.251 185.297 618.846 189.031 616.906 191.699C614.967 194.368 611.232 194.958 608.563 193.019C605.896 191.08 605.303 187.347 607.244 184.68C609.182 182.011 612.917 181.423 615.584 183.358Z" fill="#0088CC"/>
<path d="M484.027 65.541C484.615 65.8602 484.84 66.5868 484.527 67.1776C484.21 67.7656 483.482 67.991 482.896 67.676C482.303 67.3652 482.082 66.6288 482.397 66.045C482.704 65.4528 483.439 65.2302 484.027 65.541Z" fill="#0088CC"/>
<path d="M503.785 74.6844C504.964 75.3088 505.412 76.7704 504.786 77.9464C504.157 79.1266 502.697 79.5718 501.521 78.9446C500.339 78.323 499.889 76.8586 500.52 75.684C501.149 74.501 502.612 74.0572 503.785 74.6844Z" fill="#0088CC"/>
<path d="M523.546 83.8208C525.311 84.7602 525.982 86.954 525.045 88.7222C524.102 90.489 521.909 91.1568 520.144 90.223C518.376 89.2794 517.704 87.0856 518.643 85.3188C519.581 83.552 521.781 82.8814 523.546 83.8208Z" fill="#0088CC"/>
<path d="M543.308 92.9586C545.663 94.213 546.557 97.1362 545.307 99.491C544.053 101.85 541.125 102.742 538.768 101.489C536.413 100.24 535.52 97.314 536.777 94.9578C538.023 92.6002 540.95 91.7084 543.308 92.9586Z" fill="#0088CC"/>
<path d="M563.065 102.096C566.007 103.66 567.122 107.32 565.558 110.267C563.991 113.21 560.336 114.327 557.39 112.764C554.445 111.194 553.33 107.542 554.897 104.593C556.459 101.651 560.116 100.535 563.065 102.096Z" fill="#0088CC"/>
<path d="M582.825 111.237C586.354 113.114 587.697 117.505 585.819 121.037C583.941 124.572 579.552 125.912 576.019 124.033C572.49 122.154 571.147 117.764 573.023 114.237C574.902 110.699 579.294 109.357 582.825 111.237Z" fill="#0088CC"/>
<path d="M601.42 122.566C604.329 124.113 605.437 127.73 603.89 130.641C602.343 133.554 598.725 134.659 595.812 133.109C592.901 131.564 591.797 127.946 593.345 125.034C594.893 122.123 598.51 121.019 601.42 122.566Z" fill="#0088CC"/>
<path d="M619.911 134.089C622.096 135.253 622.922 137.963 621.761 140.147C620.601 142.332 617.888 143.161 615.705 141.999C613.522 140.84 612.691 138.125 613.854 135.941C615.013 133.759 617.727 132.93 619.911 134.089Z" fill="#0088CC"/>
<path d="M638.403 145.613C639.859 146.39 640.412 148.196 639.638 149.65C638.864 151.108 637.055 151.661 635.6 150.886C634.144 150.112 633.591 148.305 634.366 146.849C635.137 145.393 636.949 144.841 638.403 145.613Z" fill="#0088CC"/>
<path d="M493.131 44.618C493.755 44.849 494.083 45.5378 493.853 46.165C493.622 46.7922 492.932 47.117 492.306 46.8874C491.681 46.662 491.356 45.9648 491.585 45.3404C491.807 44.7118 492.507 44.3912 493.131 44.618Z" fill="#0088CC"/>
<path d="M513.97 50.9207C515.224 51.3729 515.871 52.759 515.415 54.0134C514.957 55.2678 513.572 55.9117 512.319 55.4539C511.062 55.0045 510.415 53.6144 510.874 52.3614C511.335 51.1042 512.72 50.4615 513.97 50.9207Z" fill="#0088CC"/>
<path d="M534.81 57.2165C536.688 57.9025 537.659 59.9815 536.976 61.8617C536.289 63.7433 534.208 64.7094 532.332 64.0304C530.449 63.3416 529.482 61.264 530.164 59.3838C530.848 57.5036 532.927 56.5305 534.81 57.2165Z" fill="#0088CC"/>
<path d="M555.652 63.5151C558.158 64.4307 559.452 67.2013 558.542 69.7073C557.628 72.2161 554.852 73.5098 552.343 72.5956C549.838 71.687 548.546 68.9135 549.463 66.4061C550.37 63.8959 553.146 62.6051 555.652 63.5151Z" fill="#0088CC"/>
<path d="M576.491 69.8138C579.622 70.9562 581.24 74.424 580.098 77.56C578.957 80.6876 575.489 82.3074 572.36 81.1678C569.224 80.0268 567.607 76.5604 568.749 73.4244C569.889 70.2912 573.354 68.6784 576.491 69.8138Z" fill="#0088CC"/>
<path d="M597.328 76.1152C601.086 77.4844 603.027 81.6438 601.658 85.4028C600.29 89.166 596.13 91.105 592.369 89.7358C588.614 88.368 586.671 84.2072 588.04 80.451C589.408 76.6878 593.569 74.746 597.328 76.1152Z" fill="#0088CC"/>
<path d="M617.017 85.5791C619.656 86.5381 621.017 89.4585 620.058 92.1003C619.096 94.7435 616.177 96.1015 613.536 95.1425C610.895 94.1779 609.535 91.2603 610.496 88.6199C611.456 85.9781 614.375 84.6187 617.017 85.5791Z" fill="#0088CC"/>
<path d="M637.098 93.9694C639.21 94.7394 640.3 97.076 639.528 99.1886C638.758 101.3 636.426 102.39 634.312 101.62C632.201 100.852 631.111 98.5152 631.879 96.4026C632.649 94.29 634.984 93.2036 637.098 93.9694Z" fill="#0088CC"/>
<path d="M657.006 102.84C658.325 103.321 659.008 104.78 658.525 106.099C658.044 107.421 656.585 108.101 655.265 107.621C653.945 107.141 653.263 105.68 653.744 104.36C654.223 103.04 655.683 102.36 657.006 102.84Z" fill="#0088CC"/>
<path d="M499.239 22.6282C499.89 22.771 500.31 23.4094 500.17 24.0618C500.027 24.7142 499.388 25.1314 498.737 24.9914C498.085 24.8542 497.666 24.2088 497.809 23.5592C497.942 22.9054 498.589 22.4924 499.239 22.6282Z" fill="#0088CC"/>
<path d="M520.751 25.9714C522.055 26.2444 522.891 27.5254 522.612 28.8316C522.334 30.1364 521.051 30.968 519.745 30.688C518.442 30.4192 517.606 29.1326 517.886 27.8264C518.167 26.5202 519.45 25.6886 520.751 25.9714Z" fill="#0088CC"/>
<path d="M542.263 29.3034C544.219 29.7206 545.466 31.647 545.053 33.6014C544.636 35.56 542.709 36.806 540.755 36.3944C538.799 35.9772 537.548 34.0536 537.962 32.095C538.378 30.1406 540.304 28.8876 542.263 29.3034Z" fill="#0088CC"/>
<path d="M563.776 32.6423C566.386 33.1995 568.053 35.7643 567.497 38.3725C566.943 40.9821 564.375 42.6509 561.763 42.0923C559.155 41.5421 557.489 38.9745 558.05 36.3635C558.599 33.7539 561.167 32.0893 563.776 32.6423Z" fill="#0088CC"/>
<path d="M585.292 35.98C588.554 36.673 590.634 39.8818 589.942 43.1452C589.247 46.4044 586.039 48.489 582.78 47.7974C579.517 47.1016 577.436 43.897 578.129 40.6294C578.819 37.3702 582.03 35.2926 585.292 35.98Z" fill="#0088CC"/>
<path d="M606.8 39.3176C610.713 40.1534 613.215 44.002 612.381 47.915C611.55 51.8308 607.699 54.3284 603.786 53.4968C599.874 52.6624 597.374 48.8138 598.207 44.9036C599.037 40.9878 602.887 38.486 606.8 39.3176Z" fill="#0088CC"/>
<path d="M628.317 42.6566C632.881 43.6268 635.8 48.1166 634.827 52.6848C633.86 57.253 629.369 60.1664 624.803 59.192C620.236 58.2232 617.322 53.7348 618.292 49.1666C619.262 44.6012 623.753 41.6892 628.317 42.6566Z" fill="#0088CC"/>
<path d="M649.829 45.9928C655.049 47.1044 658.38 52.2367 657.27 57.4559C656.158 62.6737 651.031 66.0072 645.811 64.8956C640.593 63.791 637.259 58.6572 638.37 53.4352C639.477 48.2174 644.611 44.8882 649.829 45.9928Z" fill="#0088CC"/>
<path d="M670.772 52.0029C675.17 52.9409 677.979 57.2599 677.041 61.6587C676.108 66.0561 671.782 68.8617 667.388 67.9279C662.989 66.9927 660.182 62.671 661.117 58.275C662.052 53.8762 666.376 51.0691 670.772 52.0029Z" fill="#0088CC"/>
<path d="M502.221 0.00278378C502.887 0.0545838 503.39 0.62858 503.342 1.29358C503.293 1.96138 502.719 2.4612 502.053 2.4122C501.389 2.3702 500.884 1.78919 500.933 1.12559C500.975 0.459187 501.557 -0.0420162 502.221 0.00278378Z" fill="#0088CC"/>
<path d="M523.992 0.319176C525.32 0.407376 526.325 1.56236 526.232 2.89376C526.136 4.22376 524.983 5.22617 523.654 5.13377C522.323 5.04557 521.315 3.88918 521.413 2.55918C521.504 1.22358 522.659 0.221176 523.992 0.319176Z" fill="#0088CC"/>
<path d="M545.759 0.62719C547.752 0.76859 549.257 2.50039 549.122 4.49539C548.979 6.49319 547.247 7.99537 545.255 7.85957C543.254 7.71677 541.749 5.9864 541.888 3.99C542.028 1.995 543.762 0.48579 545.759 0.62719Z" fill="#0088CC"/>
<path d="M567.368 3.21715C568.77 3.31655 569.828 4.53035 569.731 5.93315C569.632 7.33595 568.415 8.39431 567.013 8.29351C565.611 8.19691 564.556 6.98032 564.655 5.57892C564.75 4.17752 565.967 3.12195 567.368 3.21715Z" fill="#0088CC"/>
<path d="M588.98 5.75117C589.822 5.80997 590.457 6.53938 590.396 7.38078C590.338 8.22218 589.608 8.85778 588.768 8.79898C587.927 8.73878 587.293 8.00937 587.351 7.16937C587.409 6.32657 588.14 5.69377 588.98 5.75117Z" fill="#0088CC"/>
<path d="M66.9632 14.777C63.6732 15.008 60.8186 12.5258 60.589 9.23578C60.3594 5.94438 62.8374 3.08981 66.133 2.86161C69.4216 2.63201 72.2748 5.11 72.5058 8.4C72.7354 11.6928 70.2532 14.5474 66.9632 14.777Z" fill="#0088CC"/>
<path d="M45.331 17.0394C41.6266 17.2998 38.4178 14.5068 38.1574 10.8052C37.897 7.10217 40.6914 3.89199 44.393 3.63299C48.0932 3.37399 51.3034 6.16698 51.5624 9.86578C51.8214 13.5702 49.0312 16.779 45.331 17.0394Z" fill="#0088CC"/>
<path d="M23.7492 20.0452C19.2244 20.3602 15.303 16.9498 14.9852 12.425C14.6688 7.90301 18.0792 3.9802 22.6026 3.661C27.126 3.3432 31.0516 6.75361 31.3694 11.2784C31.6858 15.8018 28.2726 19.726 23.7492 20.0452Z" fill="#0088CC"/>
<path d="M1.59845 14.8582C0.775251 14.9156 0.0612508 14.2954 0.00385077 13.4722C-0.0549492 12.649 0.566651 11.9364 1.38845 11.8804C2.21165 11.8216 2.92425 12.4418 2.98305 13.265C3.04045 14.0868 2.42025 14.8008 1.59845 14.8582Z" fill="#0088CC"/>
<path d="M178.406 25.0711C177.749 25.2111 177.108 24.7995 176.972 24.1429C176.832 23.4891 177.251 22.8479 177.902 22.7107C178.556 22.5707 179.195 22.9908 179.335 23.6432C179.475 24.2956 179.057 24.9339 178.406 25.0711Z" fill="#0088CC"/>
<path d="M157.392 30.7719C156.087 31.0519 154.802 30.2175 154.525 28.9141C154.251 27.6065 155.082 26.3256 156.387 26.0512C157.69 25.774 158.977 26.6042 159.25 27.909C159.53 29.2137 158.694 30.4989 157.392 30.7719Z" fill="#0088CC"/>
<path d="M136.375 36.4741C134.421 36.8885 132.496 35.6397 132.08 33.6825C131.663 31.7253 132.916 29.8018 134.87 29.3888C136.828 28.9716 138.753 30.2203 139.17 32.1775C139.584 34.1347 138.334 36.0583 136.375 36.4741Z" fill="#0088CC"/>
<path d="M115.375 42.175C112.766 42.7294 110.2 41.0634 109.642 38.4538C109.087 35.847 110.755 33.2794 113.364 32.7236C115.972 32.1692 118.539 33.8366 119.093 36.4462C119.65 39.0558 117.981 41.6192 115.375 42.175Z" fill="#0088CC"/>
<path d="M94.357 47.8758C91.095 48.5688 87.8904 46.487 87.196 43.2264C86.5016 39.963 88.5848 36.757 91.8454 36.0626C95.1088 35.3724 98.3162 37.45 99.0106 40.7162C99.7022 43.9768 97.6204 47.1842 94.357 47.8758Z" fill="#0088CC"/>
<path d="M72.7683 50.8704C70.3505 51.387 67.9705 49.8414 67.4581 47.4222C66.9443 45.0016 68.4871 42.6244 70.9077 42.1092C73.3269 41.5954 75.7055 43.1381 76.2193 45.5559C76.7317 47.9779 75.1861 50.3552 72.7683 50.8704Z" fill="#0088CC"/>
<path d="M30.5617 61.369C27.3347 62.055 24.1665 59.997 23.4791 56.77C22.7945 53.5444 24.8511 50.3748 28.0767 49.6874C31.3023 49.0014 34.4733 51.0608 35.1593 54.2864C35.8453 57.512 33.7845 60.683 30.5617 61.369Z" fill="#0088CC"/>
<path d="M8.67422 62.9664C7.06142 63.3094 5.47662 62.2804 5.13222 60.6662C4.78922 59.0562 5.82102 57.47 7.43242 57.127C9.04662 56.7854 10.6314 57.813 10.9744 59.4272C11.3146 61.0386 10.287 62.6248 8.67422 62.9664Z" fill="#0088CC"/>
<path d="M184.87 47.0161C184.243 47.2457 183.55 46.9265 183.323 46.2951C183.095 45.6693 183.418 44.9749 184.046 44.7495C184.671 44.5185 185.364 44.8447 185.593 45.4719C185.822 46.0977 185.497 46.7893 184.87 47.0161Z" fill="#0088CC"/>
<path d="M164.861 55.5842C163.605 56.0448 162.216 55.3966 161.764 54.145C161.306 52.8892 161.953 51.5046 163.206 51.051C164.458 50.5946 165.848 51.2372 166.3 52.4902C166.757 53.7432 166.111 55.1348 164.861 55.5842Z" fill="#0088CC"/>
<path d="M144.84 64.155C142.964 64.8396 140.883 63.8722 140.2 61.9892C139.515 60.109 140.486 58.0314 142.364 57.351C144.247 56.6636 146.325 57.6324 147.008 59.5126C147.694 61.3928 146.724 63.4718 144.84 64.155Z" fill="#0088CC"/>
<path d="M124.834 72.7258C122.328 73.6372 119.554 72.345 118.64 69.8376C117.729 67.3316 119.019 64.5568 121.528 63.644C124.034 62.7326 126.808 64.0261 127.719 66.5321C128.635 69.0423 127.34 71.813 124.834 72.7258Z" fill="#0088CC"/>
<path d="M104.819 81.2938C101.687 82.4362 98.2196 80.8178 97.0814 77.6874C95.939 74.5542 97.556 71.0878 100.691 69.944C103.824 68.8086 107.29 70.4214 108.431 73.5574C109.569 76.6892 107.955 80.1542 104.819 81.2938Z" fill="#0088CC"/>
<path d="M83.3501 85.862C81.8017 86.4262 80.0853 85.6268 79.5253 84.0784C78.9597 82.53 79.7605 80.815 81.3075 80.2508C82.8573 79.6894 84.5681 80.486 85.1323 82.0344C85.6965 83.5842 84.8985 85.2964 83.3501 85.862Z" fill="#0088CC"/>
<path d="M64.7948 98.434C60.4044 100.031 55.5534 97.7676 53.9574 93.3828C52.36 88.9924 54.6252 84.1442 59.01 82.5468C63.3962 80.9508 68.25 83.2146 69.8432 87.598C71.4406 91.9884 69.1768 96.8366 64.7948 98.434Z" fill="#0088CC"/>
<path d="M43.0068 102.134C40.6828 102.98 38.1138 101.783 37.2668 99.4573C36.4226 97.1347 37.6182 94.5643 39.9436 93.7173C42.2648 92.8717 44.8366 94.0687 45.6822 96.3927C46.5306 98.7181 45.3308 101.287 43.0068 102.134Z" fill="#0088CC"/>
<path d="M22.5767 109.565C20.2541 110.412 17.6851 109.213 16.8381 106.89C15.9911 104.567 17.1909 101.997 19.5135 101.151C21.8361 100.306 24.4079 101.504 25.2549 103.827C26.1005 106.152 24.9035 108.721 22.5767 109.565Z" fill="#0088CC"/>
<path d="M194.464 68.0974C193.736 68.4852 192.835 68.2108 192.448 67.48C192.061 66.752 192.341 65.849 193.063 65.4654C193.791 65.0776 194.697 65.3562 195.083 66.0828C195.472 66.8108 195.191 67.7096 194.464 68.0974Z" fill="#0088CC"/>
<path d="M175.272 78.3034C174.544 78.6912 173.638 78.4154 173.253 77.6874C172.866 76.9566 173.143 76.0549 173.871 75.6699C174.596 75.2835 175.503 75.5566 175.887 76.2832C176.275 77.0126 175.999 77.9212 175.272 78.3034Z" fill="#0088CC"/>
<path d="M156.078 88.5094C155.351 88.8944 154.448 88.6186 154.061 87.892C153.676 87.164 153.951 86.261 154.678 85.876C155.406 85.4896 156.31 85.764 156.697 86.4934C157.083 87.2172 156.806 88.123 156.078 88.5094Z" fill="#0088CC"/>
<path d="M136.887 98.7126C136.16 99.1018 135.256 98.8232 134.871 98.098C134.483 97.3686 134.76 96.4655 135.487 96.0777C136.216 95.6927 137.118 95.9672 137.505 96.6966C137.893 97.4246 137.615 98.3276 136.887 98.7126Z" fill="#0088CC"/>
<path d="M117.692 108.919C116.966 109.305 116.061 109.029 115.675 108.303C115.288 107.576 115.564 106.672 116.292 106.284C117.02 105.897 117.923 106.172 118.31 106.901C118.699 107.629 118.419 108.532 117.692 108.919Z" fill="#0088CC"/>
<path d="M98.5021 119.126C97.7727 119.511 96.8684 119.237 96.4834 118.507C96.097 117.779 96.3727 116.876 97.0993 116.49C97.8287 116.101 98.7303 116.378 99.1167 117.104C99.5059 117.834 99.2273 118.738 98.5021 119.126Z" fill="#0088CC"/>
<path d="M79.3063 129.329C78.5797 129.717 77.6739 129.44 77.2889 128.712C76.9011 127.985 77.1769 127.081 77.9049 126.694C78.6329 126.308 79.5359 126.584 79.9223 127.31C80.3115 128.04 80.0329 128.943 79.3063 129.329Z" fill="#0088CC"/>
<path d="M60.8187 140.855C59.3613 141.63 57.5539 141.075 56.7797 139.619C56.0055 138.162 56.5585 136.354 58.0145 135.582C59.4705 134.806 61.2779 135.359 62.0535 136.816C62.8263 138.272 62.2719 140.08 60.8187 140.855Z" fill="#0088CC"/>
<path d="M43.0257 153.693C40.1151 155.24 36.4975 154.137 34.9505 151.225C33.4021 148.315 34.5067 144.698 37.4173 143.151C40.3293 141.602 43.9469 142.706 45.4939 145.617C47.0409 148.529 45.9363 152.146 43.0257 153.693Z" fill="#0088CC"/>
<path d="M206.593 87.1556C206.051 87.5504 205.299 87.4328 204.906 86.891C204.514 86.3492 204.636 85.596 205.173 85.2068C205.712 84.8134 206.47 84.9366 206.86 85.4728C207.254 86.0118 207.132 86.7664 206.593 87.1556Z" fill="#0088CC"/>
<path d="M189.722 100.912C188.642 101.697 187.129 101.459 186.349 100.38C185.564 99.2977 185.803 97.79 186.884 97.0088C187.963 96.2234 189.475 96.4586 190.254 97.5408C191.039 98.6174 190.801 100.132 189.722 100.912Z" fill="#0088CC"/>
<path d="M172.841 114.667C171.225 115.842 168.96 115.485 167.783 113.865C166.605 112.245 166.965 109.983 168.585 108.808C170.203 107.629 172.467 107.989 173.646 109.609C174.823 111.224 174.462 113.49 172.841 114.667Z" fill="#0088CC"/>
<path d="M155.967 128.422C153.81 129.989 150.787 129.51 149.218 127.351C147.653 125.195 148.13 122.171 150.288 120.603C152.448 119.036 155.468 119.514 157.036 121.674C158.604 123.831 158.123 126.854 155.967 128.422Z" fill="#0088CC"/>
<path d="M137.737 140.308C136.071 141.518 133.738 141.148 132.525 139.482C131.314 137.816 131.684 135.479 133.35 134.267C135.019 133.057 137.352 133.426 138.565 135.096C139.777 136.763 139.408 139.097 137.737 140.308Z" fill="#0088CC"/>
<path d="M119.715 152.484C118.379 153.453 116.512 153.159 115.544 151.822C114.573 150.489 114.871 148.621 116.204 147.651C117.538 146.685 119.404 146.976 120.374 148.312C121.344 149.645 121.048 151.512 119.715 152.484Z" fill="#0088CC"/>
<path d="M101.687 164.655C100.684 165.385 99.2829 165.161 98.5563 164.16C97.8297 163.16 98.0523 161.76 99.0519 161.032C100.053 160.306 101.454 160.527 102.179 161.528C102.907 162.527 102.686 163.927 101.687 164.655Z" fill="#0088CC"/>
<path d="M69.5866 194.436C66.2504 196.858 61.5814 196.122 59.1608 192.786C56.7374 189.452 57.4766 184.782 60.8114 182.36C64.1476 179.935 68.8194 180.676 71.24 184.009C73.662 187.345 72.9228 192.011 69.5866 194.436Z" fill="#0088CC"/>
<path d="M221.43 104.574C220.949 105.039 220.187 105.027 219.722 104.545C219.257 104.065 219.273 103.299 219.752 102.84C220.233 102.374 220.998 102.392 221.462 102.869C221.927 103.348 221.91 104.111 221.43 104.574Z" fill="#0088CC"/>
<path d="M206.632 120.543C205.673 121.471 204.141 121.443 203.217 120.487C202.289 119.522 202.317 117.996 203.28 117.072C204.236 116.145 205.768 116.168 206.691 117.13C207.616 118.087 207.594 119.622 206.632 120.543Z" fill="#0088CC"/>
<path d="M191.835 136.514C190.397 137.9 188.103 137.862 186.711 136.423C185.322 134.982 185.363 132.689 186.801 131.303C188.241 129.912 190.534 129.951 191.927 131.39C193.316 132.829 193.273 135.121 191.835 136.514Z" fill="#0088CC"/>
<path d="M177.037 152.482C175.121 154.336 172.06 154.281 170.207 152.363C168.354 150.445 168.408 147.384 170.326 145.53C172.244 143.678 175.305 143.732 177.158 145.65C179.011 147.571 178.957 150.629 177.037 152.482Z" fill="#0088CC"/>
<path d="M160.119 166.254C158.932 167.401 157.042 167.369 155.896 166.18C154.753 164.994 154.782 163.104 155.972 161.956C157.159 160.814 159.046 160.846 160.194 162.033C161.341 163.22 161.306 165.108 160.119 166.254Z" fill="#0088CC"/>
<path d="M143.444 180.279C142.85 180.853 141.905 180.837 141.333 180.244C140.76 179.651 140.777 178.706 141.371 178.133C141.961 177.561 142.908 177.577 143.48 178.168C144.054 178.762 144.038 179.708 143.444 180.279Z" fill="#0088CC"/>
<path d="M112.171 210.48C111.578 211.054 110.633 211.037 110.06 210.445C109.486 209.852 109.504 208.907 110.095 208.334C110.689 207.761 111.635 207.778 112.206 208.37C112.78 208.964 112.765 209.908 112.171 210.48Z" fill="#0088CC"/>
<path d="M101.722 230.951C98.1629 234.387 92.4901 234.289 89.0545 230.73C85.6161 227.172 85.7155 221.498 89.2743 218.064C92.8317 214.626 98.5087 214.725 101.943 218.282C105.378 221.844 105.282 227.514 101.722 230.951Z" fill="#0088CC"/>
<path d="M238.544 119.757C238.131 120.287 237.375 120.378 236.846 119.965C236.322 119.553 236.228 118.796 236.638 118.271C237.049 117.744 237.81 117.653 238.335 118.065C238.866 118.475 238.953 119.232 238.544 119.757Z" fill="#0088CC"/>
<path d="M226.112 137.63C225.29 138.683 223.771 138.869 222.721 138.048C221.668 137.222 221.485 135.708 222.307 134.659C223.127 133.608 224.646 133.416 225.693 134.238C226.746 135.061 226.935 136.583 226.112 137.63Z" fill="#0088CC"/>
<path d="M213.681 155.506C212.45 157.077 210.171 157.36 208.596 156.128C207.018 154.895 206.74 152.618 207.972 151.043C209.202 149.464 211.48 149.187 213.061 150.419C214.636 151.647 214.913 153.924 213.681 155.506Z" fill="#0088CC"/>
<path d="M201.248 173.376C199.605 175.477 196.569 175.851 194.466 174.21C192.365 172.568 191.991 169.529 193.633 167.426C195.275 165.326 198.312 164.952 200.413 166.594C202.52 168.239 202.89 171.275 201.248 173.376Z" fill="#0088CC"/>
<path d="M188.82 191.248C186.768 193.876 182.972 194.342 180.346 192.291C177.716 190.238 177.25 186.441 179.304 183.81C181.358 181.185 185.153 180.718 187.784 182.774C190.409 184.825 190.872 188.621 188.82 191.248Z" fill="#0088CC"/>
<path d="M176.39 209.122C173.928 212.275 169.37 212.835 166.219 210.371C163.064 207.907 162.507 203.354 164.97 200.2C167.434 197.047 171.985 196.487 175.138 198.948C178.294 201.415 178.852 205.969 176.39 209.122Z" fill="#0088CC"/>
<path d="M146.265 240.758C145.25 242.059 143.375 242.29 142.073 241.272C140.774 240.255 140.543 238.382 141.56 237.082C142.575 235.781 144.452 235.55 145.751 236.566C147.05 237.583 147.281 239.46 146.265 240.758Z" fill="#0088CC"/>
<path d="M139.093 262.741C135.398 267.469 128.566 268.309 123.838 264.614C119.108 260.919 118.269 254.085 121.964 249.358C125.661 244.626 132.493 243.788 137.221 247.481C141.95 251.18 142.79 258.01 139.093 262.741Z" fill="#0088CC"/>
<path d="M257.608 132.411C257.272 132.99 256.534 133.19 255.955 132.854C255.378 132.518 255.179 131.781 255.515 131.202C255.847 130.624 256.59 130.428 257.167 130.763C257.745 131.095 257.941 131.832 257.608 132.411Z" fill="#0088CC"/>
<path d="M247.783 151.84C247.117 152.995 245.64 153.391 244.484 152.726C243.329 152.054 242.935 150.58 243.602 149.426C244.269 148.271 245.746 147.872 246.897 148.537C248.052 149.206 248.451 150.688 247.783 151.84Z" fill="#0088CC"/>
<path d="M238.051 171.325C237.019 173.104 234.737 173.722 232.952 172.691C231.167 171.66 230.557 169.376 231.586 167.594C232.616 165.808 234.9 165.196 236.687 166.223C238.47 167.254 239.08 169.536 238.051 171.325Z" fill="#0088CC"/>
<path d="M227.833 190.522C226.597 192.662 223.857 193.397 221.717 192.161C219.575 190.925 218.841 188.184 220.076 186.042C221.315 183.903 224.052 183.166 226.194 184.405C228.337 185.64 229.071 188.38 227.833 190.522Z" fill="#0088CC"/>
<path d="M217.61 209.719C216.17 212.219 212.971 213.073 210.474 211.631C207.973 210.192 207.119 206.991 208.559 204.492C210.003 201.995 213.197 201.138 215.701 202.58C218.198 204.025 219.054 207.22 217.61 209.719Z" fill="#0088CC"/>
<path d="M207.385 228.915C205.738 231.773 202.082 232.754 199.229 231.102C196.372 229.456 195.394 225.805 197.044 222.946C198.691 220.091 202.343 219.111 205.197 220.759C208.057 222.408 209.033 226.061 207.385 228.915Z" fill="#0088CC"/>
<path d="M192.638 245.504C192.225 246.219 191.314 246.464 190.598 246.051C189.883 245.638 189.641 244.727 190.051 244.012C190.464 243.298 191.375 243.053 192.091 243.464C192.806 243.877 193.05 244.79 192.638 245.504Z" fill="#0088CC"/>
<path d="M184.359 265.822C183.121 267.966 180.383 268.699 178.24 267.463C176.099 266.224 175.364 263.486 176.6 261.344C177.838 259.204 180.578 258.467 182.718 259.706C184.86 260.94 185.594 263.682 184.359 265.822Z" fill="#0088CC"/>
<path d="M177.365 286.887C174.891 291.171 169.412 292.641 165.129 290.167C160.844 287.693 159.377 282.213 161.85 277.932C164.323 273.647 169.804 272.178 174.086 274.649C178.372 277.124 179.838 282.601 177.365 286.887Z" fill="#0088CC"/>
<path d="M278.242 142.286C277.991 142.908 277.29 143.207 276.667 142.957C276.049 142.703 275.752 142.001 276.003 141.383C276.251 140.763 276.959 140.468 277.577 140.717C278.194 140.966 278.491 141.669 278.242 142.286Z" fill="#0088CC"/>
<path d="M271.218 162.894C270.721 164.13 269.31 164.73 268.075 164.231C266.835 163.729 266.237 162.32 266.742 161.085C267.239 159.848 268.649 159.247 269.882 159.75C271.119 160.251 271.719 161.661 271.218 162.894Z" fill="#0088CC"/>
<path d="M264.195 183.504C263.446 185.354 261.335 186.255 259.478 185.506C257.622 184.752 256.726 182.643 257.476 180.79C258.225 178.934 260.336 178.035 262.193 178.786C264.049 179.532 264.945 181.644 264.195 183.504Z" fill="#0088CC"/>
<path d="M257.172 204.109C256.171 206.583 253.355 207.778 250.882 206.779C248.408 205.78 247.213 202.961 248.212 200.487C249.212 198.016 252.03 196.82 254.503 197.821C256.976 198.818 258.171 201.635 257.172 204.109Z" fill="#0088CC"/>
<path d="M250.148 224.714C248.897 227.807 245.379 229.3 242.288 228.052C239.193 226.803 237.7 223.283 238.949 220.191C240.199 217.099 243.717 215.606 246.813 216.853C249.903 218.103 251.398 221.623 250.148 224.714Z" fill="#0088CC"/>
<path d="M243.123 245.322C241.627 249.031 237.4 250.827 233.693 249.325C229.981 247.827 228.191 243.604 229.69 239.891C231.188 236.183 235.411 234.389 239.119 235.887C242.832 237.388 244.624 241.613 243.123 245.322Z" fill="#0088CC"/>
<path d="M232.413 264.44C231.487 266.734 228.876 267.841 226.583 266.916C224.29 265.989 223.183 263.379 224.108 261.086C225.035 258.791 227.646 257.683 229.936 258.611C232.232 259.538 233.34 262.147 232.413 264.44Z" fill="#0088CC"/>
<path d="M225.658 285.153C224.42 288.212 220.943 289.689 217.882 288.452C214.826 287.216 213.349 283.738 214.585 280.679C215.82 277.623 219.301 276.143 222.357 277.379C225.414 278.615 226.891 282.099 225.658 285.153Z" fill="#0088CC"/>
<path d="M218.896 305.866C217.353 309.687 213.001 311.535 209.181 309.992C205.361 308.448 203.511 304.097 205.058 300.276C206.6 296.453 210.954 294.606 214.772 296.148C218.595 297.695 220.44 302.044 218.896 305.866Z" fill="#0088CC"/>
<path d="M300.047 149.195C299.885 149.846 299.234 150.24 298.583 150.077C297.936 149.915 297.541 149.26 297.705 148.614C297.866 147.965 298.524 147.573 299.171 147.735C299.818 147.893 300.208 148.548 300.047 149.195Z" fill="#0088CC"/>
<path d="M295.962 170.58C295.64 171.874 294.327 172.662 293.033 172.341C291.737 172.014 290.953 170.706 291.276 169.411C291.598 168.119 292.908 167.328 294.201 167.653C295.496 167.976 296.285 169.289 295.962 170.58Z" fill="#0088CC"/>
<path d="M291.875 191.969C291.391 193.904 289.425 195.089 287.481 194.606C285.539 194.117 284.359 192.151 284.843 190.214C285.33 188.271 287.294 187.089 289.238 187.572C291.178 188.056 292.36 190.022 291.875 191.969Z" fill="#0088CC"/>
<path d="M287.788 213.349C287.142 215.935 284.52 217.512 281.932 216.868C279.342 216.223 277.767 213.599 278.409 211.008C279.057 208.421 281.68 206.846 284.27 207.491C286.86 208.137 288.433 210.762 287.788 213.349Z" fill="#0088CC"/>
<path d="M283.699 234.732C282.893 237.968 279.614 239.939 276.38 239.133C273.142 238.326 271.172 235.047 271.977 231.811C272.786 228.575 276.064 226.605 279.302 227.413C282.537 228.218 284.507 231.497 283.699 234.732Z" fill="#0088CC"/>
<path d="M279.613 256.115C278.648 259.998 274.71 262.363 270.828 261.393C266.946 260.425 264.585 256.494 265.553 252.612C266.519 248.728 270.45 246.365 274.332 247.332C278.217 248.3 280.58 252.234 279.613 256.115Z" fill="#0088CC"/>
<path d="M274.566 277.26C273.567 281.26 269.517 283.696 265.516 282.698C261.515 281.702 259.083 277.651 260.078 273.648C261.075 269.65 265.128 267.217 269.127 268.213C273.128 269.212 275.561 273.262 274.566 277.26Z" fill="#0088CC"/>
<path d="M269.31 298.351C268.313 302.351 264.264 304.784 260.26 303.789C256.263 302.789 253.827 298.742 254.825 294.742C255.821 290.744 259.871 288.306 263.871 289.304C267.87 290.301 270.305 294.354 269.31 298.351Z" fill="#0088CC"/>
<path d="M262.598 319.082C261.802 322.283 258.559 324.23 255.36 323.432C252.16 322.636 250.214 319.393 251.01 316.194C251.808 312.994 255.049 311.044 258.25 311.843C261.447 312.642 263.396 315.883 262.598 319.082Z" fill="#0088CC"/>
<path d="M322.607 153.002C322.538 153.67 321.945 154.15 321.283 154.08C320.616 154.007 320.136 153.413 320.206 152.753C320.275 152.088 320.872 151.607 321.536 151.677C322.198 151.745 322.677 152.34 322.607 153.002Z" fill="#0088CC"/>
<path d="M321.536 174.748C321.398 176.074 320.208 177.037 318.883 176.897C317.553 176.756 316.593 175.57 316.737 174.243C316.876 172.918 318.063 171.949 319.387 172.094C320.714 172.234 321.68 173.425 321.536 174.748Z" fill="#0088CC"/>
<path d="M320.462 196.496C320.25 198.479 318.47 199.927 316.479 199.718C314.487 199.507 313.045 197.725 313.255 195.737C313.463 193.743 315.247 192.301 317.239 192.51C319.227 192.718 320.67 194.501 320.462 196.496Z" fill="#0088CC"/>
<path d="M319.393 218.236C319.114 220.889 316.736 222.814 314.084 222.538C311.43 222.26 309.503 219.881 309.78 217.224C310.062 214.572 312.439 212.646 315.093 212.93C317.746 213.205 319.671 215.585 319.393 218.236Z" fill="#0088CC"/>
<path d="M318.321 239.981C317.974 243.299 315 245.704 311.687 245.356C308.37 245.008 305.963 242.035 306.311 238.72C306.661 235.403 309.63 232.996 312.949 233.346C316.267 233.692 318.673 236.664 318.321 239.981Z" fill="#0088CC"/>
<path d="M317.251 261.723C316.835 265.705 313.267 268.594 309.288 268.173C305.306 267.756 302.424 264.19 302.841 260.208C303.258 256.229 306.823 253.344 310.8 253.761C314.783 254.18 317.67 257.746 317.251 261.723Z" fill="#0088CC"/>
<path d="M315.197 283.367C314.765 287.468 311.09 290.441 306.992 290.01C302.893 289.579 299.919 285.907 300.35 281.807C300.78 277.708 304.455 274.733 308.551 275.166C312.653 275.597 315.627 279.271 315.197 283.367Z" fill="#0088CC"/>
<path d="M314.411 305.144C313.894 310.062 309.487 313.629 304.564 313.116C299.643 312.596 296.076 308.19 296.593 303.268C297.106 298.351 301.518 294.78 306.439 295.298C311.357 295.814 314.927 300.226 314.411 305.144Z" fill="#0088CC"/>
<path d="M307.683 326.292C307.426 328.751 305.221 330.537 302.76 330.28C300.301 330.021 298.515 327.816 298.775 325.356C299.031 322.896 301.236 321.11 303.696 321.367C306.156 321.628 307.941 323.831 307.683 326.292Z" fill="#0088CC"/>
<path d="M345.476 153.632C345.499 154.302 344.98 154.861 344.311 154.885C343.643 154.906 343.084 154.385 343.063 153.72C343.038 153.052 343.56 152.492 344.23 152.468C344.897 152.443 345.453 152.965 345.476 153.632Z" fill="#0088CC"/>
<path d="M347.443 175.315C347.489 176.648 346.445 177.768 345.112 177.813C343.778 177.857 342.664 176.816 342.619 175.483C342.57 174.153 343.613 173.029 344.941 172.985C346.277 172.941 347.398 173.984 347.443 175.315Z" fill="#0088CC"/>
<path d="M349.409 197.002C349.476 198.995 347.913 200.675 345.914 200.746C343.912 200.813 342.234 199.251 342.166 197.252C342.096 195.25 343.659 193.571 345.661 193.501C347.66 193.431 349.337 194.996 349.409 197.002Z" fill="#0088CC"/>
<path d="M351.376 218.679C351.467 221.343 349.381 223.581 346.716 223.677C344.052 223.768 341.813 221.682 341.718 219.015C341.625 216.35 343.714 214.11 346.378 214.022C349.045 213.924 351.281 216.014 351.376 218.679Z" fill="#0088CC"/>
<path d="M353.339 240.359C353.456 243.692 350.847 246.49 347.516 246.606C344.184 246.725 341.387 244.117 341.269 240.783C341.154 237.448 343.76 234.654 347.096 234.536C350.429 234.422 353.224 237.028 353.339 240.359Z" fill="#0088CC"/>
<path d="M355.303 262.041C355.445 266.041 352.314 269.399 348.317 269.535C344.315 269.678 340.962 266.547 340.821 262.549C340.681 258.549 343.81 255.196 347.807 255.055C351.808 254.916 355.163 258.045 355.303 262.041Z" fill="#0088CC"/>
<path d="M353.298 283.864C353.384 286.338 351.449 288.41 348.977 288.497C346.503 288.585 344.431 286.65 344.343 284.178C344.257 281.704 346.191 279.632 348.663 279.544C351.137 279.46 353.209 281.394 353.298 283.864Z" fill="#0088CC"/>
<path d="M356.294 305.511C356.424 309.217 353.525 312.329 349.815 312.46C346.105 312.586 342.994 309.686 342.864 305.978C342.733 302.271 345.636 299.159 349.344 299.029C353.053 298.903 356.165 301.802 356.294 305.511Z" fill="#0088CC"/>
<path d="M353.323 327.366C353.381 329.013 352.09 330.397 350.442 330.455C348.794 330.512 347.412 329.221 347.353 327.573C347.295 325.924 348.587 324.54 350.235 324.484C351.884 324.428 353.266 325.716 353.323 327.366Z" fill="#0088CC"/>
<path d="M368.208 151.073C368.326 151.735 367.889 152.359 367.231 152.475C366.57 152.59 365.947 152.151 365.831 151.497C365.715 150.837 366.156 150.212 366.812 150.094C367.47 149.979 368.092 150.417 368.208 151.073Z" fill="#0088CC"/>
<path d="M373.174 172.271C373.407 173.586 372.526 174.84 371.214 175.07C369.898 175.298 368.649 174.423 368.42 173.111C368.189 171.798 369.064 170.542 370.376 170.313C371.689 170.082 372.946 170.96 373.174 172.271Z" fill="#0088CC"/>
<path d="M378.139 193.473C378.482 195.436 377.167 197.32 375.197 197.667C373.226 198.013 371.346 196.7 371.001 194.727C370.653 192.756 371.967 190.877 373.941 190.529C375.91 190.18 377.787 191.498 378.139 193.473Z" fill="#0088CC"/>
<path d="M383.105 214.668C383.568 217.293 381.813 219.797 379.186 220.263C376.558 220.728 374.051 218.971 373.585 216.343C373.126 213.717 374.88 211.211 377.508 210.749C380.138 210.284 382.64 212.04 383.105 214.668Z" fill="#0088CC"/>
<path d="M386.53 236.135C386.962 238.57 385.334 240.894 382.898 241.322C380.462 241.753 378.141 240.127 377.71 237.689C377.279 235.253 378.905 232.933 381.343 232.502C383.78 232.072 386.104 233.699 386.53 236.135Z" fill="#0088CC"/>
<path d="M388.833 257.8C389.12 259.424 388.035 260.974 386.411 261.261C384.787 261.545 383.238 260.463 382.952 258.836C382.666 257.212 383.749 255.665 385.371 255.378C386.998 255.094 388.548 256.178 388.833 257.8Z" fill="#0088CC"/>
<path d="M391.138 279.468C391.28 280.28 390.74 281.056 389.928 281.197C389.116 281.34 388.342 280.798 388.199 279.986C388.055 279.174 388.597 278.401 389.409 278.257C390.221 278.114 390.996 278.657 391.138 279.468Z" fill="#0088CC"/>
<path d="M397.12 300.486C397.477 302.516 396.122 304.451 394.093 304.811C392.062 305.168 390.127 303.814 389.768 301.784C389.41 299.754 390.765 297.818 392.795 297.459C394.824 297.101 396.76 298.459 397.12 300.486Z" fill="#0088CC"/>
<path d="M398.69 322.283C398.833 323.092 398.289 323.869 397.479 324.012C396.667 324.155 395.893 323.613 395.75 322.801C395.606 321.989 396.149 321.213 396.961 321.072C397.771 320.928 398.546 321.471 398.69 322.283Z" fill="#0088CC"/>
<path d="M390.364 145.376C390.574 146.013 390.229 146.692 389.593 146.898C388.957 147.104 388.277 146.758 388.073 146.124C387.863 145.488 388.214 144.806 388.85 144.599C389.482 144.393 390.16 144.739 390.364 145.376Z" fill="#0088CC"/>
<path d="M398.232 165.676C398.648 166.944 397.952 168.309 396.684 168.72C395.413 169.131 394.053 168.438 393.642 167.168C393.232 165.904 393.922 164.536 395.189 164.126C396.459 163.715 397.828 164.409 398.232 165.676Z" fill="#0088CC"/>
<path d="M406.102 185.979C406.718 187.877 405.676 189.924 403.774 190.544C401.87 191.159 399.827 190.12 399.21 188.217C398.591 186.315 399.633 184.271 401.535 183.651C403.436 183.03 405.479 184.072 406.102 185.979Z" fill="#0088CC"/>
<path d="M413.961 206.276C414.786 208.814 413.396 211.54 410.859 212.365C408.323 213.189 405.596 211.8 404.769 209.262C403.944 206.724 405.336 203.998 407.873 203.175C410.411 202.35 413.138 203.739 413.961 206.276Z" fill="#0088CC"/>
<path d="M419.632 227.29C420.27 229.249 419.195 231.354 417.235 231.991C415.279 232.63 413.174 231.556 412.535 229.596C411.898 227.636 412.971 225.53 414.932 224.893C416.892 224.258 418.995 225.331 419.632 227.29Z" fill="#0088CC"/>
<path d="M425.64 248.195C426.153 249.763 425.293 251.447 423.727 251.955C422.157 252.465 420.474 251.608 419.963 250.039C419.454 248.471 420.312 246.788 421.877 246.278C423.448 245.769 425.131 246.627 425.64 248.195Z" fill="#0088CC"/>
<path d="M431.65 269.1C432.032 270.277 431.387 271.538 430.212 271.921C429.036 272.306 427.774 271.66 427.391 270.484C427.009 269.308 427.655 268.047 428.828 267.665C430.005 267.282 431.267 267.924 431.65 269.1Z" fill="#0088CC"/>
<path d="M437.657 290.003C437.912 290.787 437.482 291.628 436.697 291.883C435.914 292.139 435.071 291.71 434.815 290.926C434.562 290.143 434.99 289.3 435.775 289.045C436.558 288.789 437.402 289.22 437.657 290.003Z" fill="#0088CC"/>
<path d="M443.664 310.908C443.792 311.298 443.576 311.721 443.184 311.849C442.792 311.975 442.371 311.76 442.243 311.367C442.117 310.976 442.331 310.556 442.722 310.428C443.114 310.3 443.535 310.514 443.664 310.908Z" fill="#0088CC"/>
<path d="M411.515 136.651C411.808 137.253 411.561 137.971 410.959 138.265C410.357 138.558 409.637 138.309 409.345 137.711C409.051 137.109 409.305 136.387 409.904 136.093C410.503 135.8 411.221 136.049 411.515 136.651Z" fill="#0088CC"/>
<path d="M422.129 155.659C422.714 156.856 422.216 158.305 421.017 158.889C419.816 159.471 418.371 158.974 417.789 157.774C417.204 156.58 417.699 155.128 418.896 154.547C420.097 153.961 421.548 154.461 422.129 155.659Z" fill="#0088CC"/>
<path d="M432.748 174.67C433.622 176.462 432.877 178.634 431.079 179.511C429.279 180.387 427.11 179.641 426.235 177.843C425.357 176.044 426.104 173.874 427.903 172.997C429.699 172.119 431.867 172.866 432.748 174.67Z" fill="#0088CC"/>
<path d="M443.36 193.673C444.529 196.073 443.529 198.962 441.135 200.134C438.737 201.306 435.843 200.308 434.673 197.91C433.504 195.513 434.502 192.619 436.9 191.451C439.297 190.28 442.191 191.276 443.36 193.673Z" fill="#0088CC"/>
<path d="M453.243 213.039C454.507 215.631 453.429 218.76 450.836 220.023C448.242 221.288 445.116 220.213 443.85 217.617C442.586 215.025 443.661 211.897 446.258 210.631C448.849 209.367 451.977 210.445 453.243 213.039Z" fill="#0088CC"/>
<path d="M462.1 232.903C463.186 235.126 462.262 237.808 460.038 238.89C457.816 239.975 455.136 239.05 454.053 236.828C452.968 234.605 453.89 231.925 456.112 230.842C458.335 229.758 461.016 230.681 462.1 232.903Z" fill="#0088CC"/>
<path d="M470.956 252.769C471.856 254.621 471.089 256.855 469.235 257.758C467.383 258.663 465.148 257.893 464.247 256.04C463.341 254.187 464.112 251.953 465.963 251.052C467.817 250.149 470.05 250.918 470.956 252.769Z" fill="#0088CC"/>
<path d="M479.814 272.633C480.537 274.116 479.921 275.904 478.442 276.626C476.958 277.35 475.173 276.732 474.449 275.251C473.724 273.769 474.34 271.981 475.821 271.258C477.305 270.537 479.093 271.152 479.814 272.633Z" fill="#0088CC"/>
<path d="M488.673 292.499C489.217 293.609 488.755 294.951 487.643 295.492C486.531 296.036 485.192 295.574 484.65 294.463C484.107 293.35 484.567 292.009 485.679 291.466C486.792 290.924 488.13 291.386 488.673 292.499Z" fill="#0088CC"/>
<path d="M431.246 125.068C431.622 125.623 431.474 126.371 430.921 126.743C430.368 127.116 429.618 126.97 429.247 126.419C428.871 125.864 429.02 125.111 429.573 124.739C430.122 124.365 430.873 124.512 431.246 125.068Z" fill="#0088CC"/>
<path d="M444.399 142.412C445.145 143.515 444.854 145.02 443.749 145.767C442.64 146.511 441.142 146.217 440.399 145.11C439.653 144.01 439.941 142.502 441.044 141.761C442.153 141.014 443.658 141.306 444.399 142.412Z" fill="#0088CC"/>
<path d="M457.558 159.761C458.673 161.416 458.236 163.668 456.579 164.788C454.918 165.907 452.667 165.469 451.551 163.811C450.43 162.151 450.868 159.9 452.528 158.78C454.184 157.66 456.436 158.098 457.558 159.761Z" fill="#0088CC"/>
<path d="M470.709 177.103C472.198 179.315 471.615 182.318 469.405 183.81C467.195 185.301 464.189 184.717 462.695 182.507C461.206 180.296 461.791 177.29 464.002 175.799C466.214 174.306 469.218 174.891 470.709 177.103Z" fill="#0088CC"/>
<path d="M483.867 194.449C485.733 197.214 485.001 200.966 482.237 202.831C479.472 204.697 475.719 203.966 473.853 201.204C471.988 198.436 472.719 194.685 475.485 192.818C478.249 190.953 482.002 191.684 483.867 194.449Z" fill="#0088CC"/>
<path d="M495.968 212.506C497.815 215.24 497.093 218.954 494.357 220.798C491.623 222.643 487.914 221.921 486.069 219.187C484.224 216.451 484.946 212.741 487.678 210.897C490.415 209.051 494.126 209.776 495.968 212.506Z" fill="#0088CC"/>
<path d="M507.507 230.947C509.121 233.339 508.488 236.589 506.095 238.202C503.704 239.817 500.459 239.184 498.842 236.792C497.229 234.399 497.862 231.151 500.252 229.538C502.649 227.924 505.892 228.556 507.507 230.947Z" fill="#0088CC"/>
<path d="M519.044 249.386C520.425 251.437 519.887 254.22 517.835 255.604C515.782 256.985 513 256.445 511.616 254.394C510.235 252.346 510.776 249.561 512.825 248.178C514.878 246.793 517.66 247.337 519.044 249.386Z" fill="#0088CC"/>
<path d="M530.578 267.824C531.729 269.532 531.28 271.851 529.57 273.004C527.861 274.158 525.54 273.706 524.389 271.998C523.235 270.287 523.687 267.969 525.395 266.815C527.105 265.664 529.426 266.115 530.578 267.824Z" fill="#0088CC"/>
<path d="M449.164 110.848C449.612 111.346 449.576 112.106 449.078 112.554C448.579 113 447.818 112.963 447.374 112.466C446.924 111.969 446.968 111.206 447.463 110.757C447.958 110.31 448.719 110.354 449.164 110.848Z" fill="#0088CC"/>
<path d="M464.606 126.195C465.498 127.184 465.417 128.713 464.427 129.606C463.434 130.498 461.909 130.418 461.017 129.424C460.124 128.437 460.2 126.906 461.193 126.017C462.186 125.126 463.717 125.203 464.606 126.195Z" fill="#0088CC"/>
<path d="M480.05 141.544C481.383 143.028 481.267 145.319 479.781 146.657C478.29 147.997 476.003 147.876 474.664 146.39C473.327 144.901 473.445 142.612 474.933 141.271C476.417 139.934 478.708 140.055 480.05 141.544Z" fill="#0088CC"/>
<path d="M495.494 156.887C497.275 158.868 497.115 161.923 495.136 163.709C493.153 165.494 490.096 165.333 488.311 163.353C486.526 161.368 486.687 158.313 488.669 156.528C490.653 154.743 493.709 154.903 495.494 156.887Z" fill="#0088CC"/>
<path d="M510.935 172.234C513.168 174.712 512.965 178.528 510.49 180.76C508.01 182.993 504.191 182.792 501.959 180.316C499.729 177.835 499.931 174.02 502.409 171.783C504.887 169.555 508.703 169.753 510.935 172.234Z" fill="#0088CC"/>
<path d="M526.372 187.576C529.052 190.55 528.813 195.136 525.836 197.81C522.865 200.493 518.283 200.249 515.604 197.275C512.925 194.3 513.166 189.721 516.138 187.044C519.115 184.365 523.697 184.607 526.372 187.576Z" fill="#0088CC"/>
<path d="M541.819 202.924C544.944 206.395 544.664 211.742 541.195 214.864C537.726 217.988 532.381 217.707 529.257 214.238C526.132 210.769 526.415 205.423 529.882 202.301C533.355 199.178 538.697 199.457 541.819 202.924Z" fill="#0088CC"/>
<path d="M554.525 220.739C556.73 223.191 556.533 226.965 554.081 229.174C551.628 231.379 547.855 231.183 545.648 228.732C543.44 226.283 543.639 222.505 546.089 220.298C548.54 218.091 552.316 218.289 554.525 220.739Z" fill="#0088CC"/>
<path d="M568.511 237.394C570.443 239.537 570.27 242.843 568.126 244.773C565.983 246.707 562.676 246.532 560.747 244.388C558.814 242.245 558.986 238.937 561.131 237.006C563.278 235.074 566.582 235.246 568.511 237.394Z" fill="#0088CC"/>
<path d="M464.934 94.2759C465.447 94.7085 465.515 95.4659 465.084 95.9769C464.654 96.4893 463.893 96.5565 463.384 96.1281C462.872 95.6969 462.808 94.9353 463.237 94.4229C463.663 93.9105 464.425 93.8475 464.934 94.2759Z" fill="#0088CC"/>
<path d="M482.366 107.324C483.388 108.178 483.521 109.707 482.666 110.726C481.805 111.748 480.284 111.88 479.262 111.021C478.242 110.167 478.104 108.641 478.963 107.624C479.821 106.599 481.35 106.464 482.366 107.324Z" fill="#0088CC"/>
<path d="M499.792 120.372C501.319 121.656 501.522 123.943 500.236 125.475C498.946 127.009 496.663 127.208 495.133 125.922C493.597 124.635 493.397 122.35 494.685 120.814C495.97 119.284 498.255 119.084 499.792 120.372Z" fill="#0088CC"/>
<path d="M517.222 133.416C519.263 135.132 519.529 138.179 517.817 140.223C516.104 142.265 513.054 142.533 511.008 140.819C508.966 139.104 508.702 136.056 510.415 134.014C512.128 131.968 515.177 131.702 517.222 133.416Z" fill="#0088CC"/>
<path d="M534.646 146.465C537.203 148.607 537.535 152.418 535.391 154.972C533.246 157.528 529.437 157.861 526.882 155.718C524.328 153.572 523.997 149.766 526.14 147.207C528.283 144.655 532.093 144.322 534.646 146.465Z" fill="#0088CC"/>
<path d="M552.074 159.51C555.141 162.081 555.543 166.656 552.968 169.718C550.398 172.788 545.827 173.186 542.761 170.614C539.695 168.039 539.296 163.472 541.865 160.409C544.441 157.339 549.01 156.941 552.074 159.51Z" fill="#0088CC"/>
<path d="M569.504 172.56C573.082 175.563 573.548 180.894 570.547 184.471C567.547 188.049 562.218 188.514 558.637 185.514C555.06 182.511 554.595 177.18 557.594 173.604C560.6 170.027 565.93 169.562 569.504 172.56Z" fill="#0088CC"/>
<path d="M586.938 185.605C591.023 189.036 591.556 195.129 588.128 199.22C584.695 203.307 578.602 203.84 574.516 200.41C570.429 196.984 569.891 190.886 573.321 186.798C576.751 182.711 582.848 182.179 586.938 185.605Z" fill="#0088CC"/>
<path d="M602.172 201.261C605.329 203.913 605.742 208.624 603.092 211.781C600.441 214.938 595.732 215.351 592.576 212.701C589.415 210.052 589.002 205.341 591.652 202.181C594.304 199.024 599.014 198.611 602.172 201.261Z" fill="#0088CC"/>
<path d="M478.244 75.67C478.812 76.0242 478.986 76.7662 478.63 77.3318C478.276 77.8988 477.532 78.071 476.967 77.7182C476.398 77.364 476.229 76.6164 476.583 76.0508C476.935 75.4852 477.679 75.3158 478.244 75.67Z" fill="#0088CC"/>
<path d="M497.322 86.1644C498.451 86.87 498.797 88.3638 498.09 89.4908C497.378 90.6234 495.893 90.9692 494.763 90.258C493.633 89.5538 493.283 88.0627 493.992 86.9357C494.7 85.8017 496.193 85.456 497.322 86.1644Z" fill="#0088CC"/>
<path d="M516.4 96.6616C518.091 97.72 518.61 99.9558 517.552 101.651C516.488 103.349 514.255 103.863 512.558 102.803C510.861 101.742 510.346 99.5078 511.407 97.811C512.463 96.1142 514.697 95.599 516.4 96.6616Z" fill="#0088CC"/>
<path d="M535.47 107.152C537.731 108.567 538.418 111.549 537.008 113.81C535.594 116.073 532.611 116.761 530.349 115.349C528.088 113.933 527.399 110.951 528.813 108.693C530.228 106.428 533.209 105.736 535.47 107.152Z" fill="#0088CC"/>
<path d="M554.546 117.649C557.375 119.416 558.235 123.143 556.466 125.968C554.7 128.799 550.974 129.658 548.145 127.891C545.32 126.123 544.46 122.399 546.227 119.566C547.994 116.74 551.718 115.879 554.546 117.649Z" fill="#0088CC"/>
<path d="M573.616 128.143C577.013 130.262 578.046 134.735 575.921 138.127C573.803 141.523 569.332 142.554 565.937 140.433C562.544 138.31 561.513 133.844 563.633 130.451C565.755 127.056 570.227 126.024 573.616 128.143Z" fill="#0088CC"/>
<path d="M592.168 139.476C595.666 141.665 596.727 146.269 594.543 149.765C592.358 153.262 587.755 154.325 584.255 152.139C580.76 149.953 579.696 145.349 581.882 141.854C584.07 138.358 588.673 137.294 592.168 139.476Z" fill="#0088CC"/>
<path d="M609.81 152.261C612.607 154.011 613.457 157.696 611.71 160.493C609.96 163.289 606.278 164.139 603.479 162.39C600.685 160.644 599.832 156.958 601.579 154.161C603.329 151.367 607.013 150.515 609.81 152.261Z" fill="#0088CC"/>
<path d="M627.454 165.047C629.553 166.359 630.191 169.121 628.879 171.217C627.57 173.316 624.805 173.954 622.711 172.642C620.611 171.329 619.971 168.568 621.283 166.473C622.595 164.375 625.357 163.737 627.454 165.047Z" fill="#0088CC"/>
<path d="M488.834 55.391C489.447 55.6626 489.721 56.3751 489.447 56.9855C489.175 57.5973 488.464 57.8718 487.855 57.5988C487.243 57.3272 486.97 56.6104 487.242 56C487.512 55.3896 488.226 55.1208 488.834 55.391Z" fill="#0088CC"/>
<path d="M509.185 63.1288C510.401 63.6678 510.953 65.0986 510.408 66.3152C509.862 67.536 508.439 68.082 507.222 67.5388C506.004 66.997 505.451 65.569 505.994 64.3538C506.537 63.1344 507.97 62.5842 509.185 63.1288Z" fill="#0088CC"/>
<path d="M529.536 70.868C531.359 71.68 532.183 73.8233 531.373 75.6503C530.554 77.4815 528.415 78.3034 526.588 77.4886C524.759 76.6738 523.937 74.5332 524.752 72.7034C525.563 70.875 527.702 70.0532 529.536 70.868Z" fill="#0088CC"/>
<path d="M549.884 78.6044C552.32 79.6894 553.415 82.5454 552.333 84.9828C551.248 87.4202 548.391 88.5164 545.953 87.4328C543.516 86.3478 542.42 83.4904 543.505 81.053C544.591 78.6156 547.446 77.5194 549.884 78.6044Z" fill="#0088CC"/>
<path d="M569.43 88.1412C571.484 89.0554 572.407 91.4634 571.493 93.5158C570.578 95.5696 568.172 96.4936 566.119 95.5808C564.063 94.6652 563.143 92.2614 564.056 90.202C564.97 88.1496 567.375 87.2256 569.43 88.1412Z" fill="#0088CC"/>
<path d="M589.085 97.4469C590.883 98.2449 591.692 100.353 590.891 102.15C590.093 103.947 587.988 104.754 586.191 103.954C584.394 103.152 583.587 101.049 584.387 99.2529C585.185 97.4553 587.29 96.6475 589.085 97.4469Z" fill="#0088CC"/>
<path d="M608.732 106.754C610.274 107.44 610.967 109.245 610.279 110.785C609.596 112.328 607.792 113.018 606.249 112.333C604.709 111.647 604.016 109.843 604.703 108.301C605.391 106.761 607.194 106.068 608.732 106.754Z" fill="#0088CC"/>
<path d="M628.179 116.525C629.208 116.98 629.67 118.185 629.212 119.211C628.754 120.238 627.552 120.7 626.524 120.242C625.498 119.785 625.035 118.583 625.494 117.555C625.95 116.529 627.154 116.068 628.179 116.525Z" fill="#0088CC"/>
<path d="M647.623 126.295C648.136 126.525 648.366 127.127 648.139 127.641C647.912 128.153 647.308 128.384 646.797 128.156C646.283 127.928 646.052 127.324 646.279 126.812C646.51 126.298 647.11 126.066 647.623 126.295Z" fill="#0088CC"/>
<path d="M496.5 33.8379C497.144 34.0213 497.516 34.6877 497.33 35.3289C497.144 35.9729 496.479 36.3454 495.837 36.1592C495.196 35.9758 494.825 35.3038 495.007 34.6612C495.191 34.0186 495.861 33.6531 496.5 33.8379Z" fill="#0088CC"/>
<path d="M517.733 38.6666C519.011 39.0334 519.754 40.3746 519.388 41.6528C519.015 42.938 517.682 43.6772 516.4 43.309C515.12 42.9422 514.374 41.6038 514.742 40.3256C515.109 39.039 516.452 38.2956 517.733 38.6666Z" fill="#0088CC"/>
<path d="M538.961 43.4993C540.878 44.0509 541.995 46.0557 541.442 47.9779C540.889 49.9043 538.884 51.0159 536.962 50.4629C535.039 49.9099 533.926 47.9065 534.477 45.9815C535.027 44.0565 537.032 42.9477 538.961 43.4993Z" fill="#0088CC"/>
<path d="M560.187 48.3252C562.752 49.0616 564.233 51.7384 563.498 54.3046C562.766 56.868 560.088 58.352 557.523 57.617C554.958 56.882 553.477 54.2038 554.212 51.6404C554.947 49.0728 557.622 47.593 560.187 48.3252Z" fill="#0088CC"/>
<path d="M581.415 53.158C584.62 54.0764 586.475 57.4238 585.552 60.6256C584.637 63.8344 581.292 65.6866 578.085 64.771C574.879 63.8484 573.028 60.5066 573.946 57.2964C574.866 54.0918 578.209 52.2382 581.415 53.158Z" fill="#0088CC"/>
<path d="M602.637 57.9894C606.487 59.0912 608.715 63.1064 607.61 66.9508C606.511 70.7994 602.495 73.0226 598.649 71.9208C594.799 70.8148 592.58 66.808 593.68 62.9608C594.783 59.1122 598.797 56.8876 602.637 57.9894Z" fill="#0088CC"/>
<path d="M623.869 62.8208C628.356 64.1074 630.953 68.7918 629.665 73.2788C628.382 77.7672 623.701 80.36 619.209 79.0748C614.723 77.7882 612.129 73.1052 613.416 68.6196C614.708 64.1284 619.385 61.5356 623.869 62.8208Z" fill="#0088CC"/>
<path d="M644.259 70.581C647.77 71.589 649.8 75.25 648.795 78.7612C647.785 82.2724 644.126 84.3024 640.613 83.2944C637.102 82.2906 635.071 78.6254 636.079 75.1156C637.087 71.6044 640.75 69.5744 644.259 70.581Z" fill="#0088CC"/>
<path d="M664.734 78.0416C667.435 78.8158 668.997 81.6298 668.222 84.3332C667.448 87.0324 664.631 88.5962 661.932 87.8192C659.23 87.0478 657.664 84.2282 658.441 81.5276C659.217 78.8256 662.032 77.2646 664.734 78.0416Z" fill="#0088CC"/>
<path d="M522.596 14.6369C523.152 14.7139 523.54 15.2319 523.461 15.7849C523.383 16.3421 522.868 16.7285 522.312 16.6515C521.759 16.5703 521.367 16.0566 521.448 15.5036C521.525 14.945 522.039 14.5571 522.596 14.6369Z" fill="#0088CC"/>
<path d="M544.258 16.6558C545.37 16.8112 546.147 17.8416 545.99 18.9532C545.832 20.0676 544.803 20.8446 543.691 20.685C542.577 20.5282 541.8 19.5006 541.958 18.3862C542.115 17.276 543.144 16.5004 544.258 16.6558Z" fill="#0088CC"/>
<path d="M565.931 18.6718C567.599 18.9084 568.763 20.4511 568.528 22.1213C568.297 23.7901 566.749 24.9549 565.08 24.7211C563.411 24.4887 562.249 22.9418 562.483 21.273C562.718 19.6014 564.261 18.4366 565.931 18.6718Z" fill="#0088CC"/>
<path d="M587.6 20.692C589.824 21.0042 591.375 23.0621 591.065 25.2881C590.751 27.5155 588.693 29.064 586.466 28.7546C584.238 28.4396 582.69 26.3829 583.001 24.1527C583.313 21.9267 585.371 20.3742 587.6 20.692Z" fill="#0088CC"/>
<path d="M609.264 22.7066C612.049 23.0944 613.989 25.6718 613.597 28.4522C613.207 31.2354 610.632 33.1744 607.85 32.7852C605.065 32.3932 603.129 29.8228 603.519 27.0396C603.911 24.2564 606.484 22.3174 609.264 22.7066Z" fill="#0088CC"/>
<path d="M630.931 24.724C634.272 25.1944 636.599 28.2842 636.129 31.6218C635.661 34.9636 632.574 37.2862 629.232 36.82C625.893 36.3496 623.567 33.2626 624.037 29.9236C624.509 26.5818 627.594 24.2578 630.931 24.724Z" fill="#0088CC"/>
<path d="M652.172 29.7654C654.398 30.0804 655.949 32.1342 655.635 34.363C655.32 36.5876 653.265 38.1374 651.039 37.8252C648.814 37.513 647.262 35.455 647.575 33.229C647.888 31.0044 649.947 29.4532 652.172 29.7654Z" fill="#0088CC"/>
<path d="M673.418 34.8068C674.531 34.9622 675.307 35.9926 675.148 37.1056C674.994 38.22 673.964 38.9942 672.848 38.8374C671.738 38.682 670.961 37.6516 671.118 36.5386C671.276 35.427 672.305 34.6514 673.418 34.8068Z" fill="#0088CC"/>
<path d="M363.463 219.216C363.551 220.16 362.872 220.998 361.928 221.094C360.986 221.183 360.147 220.504 360.056 219.565C359.957 218.621 360.65 217.781 361.585 217.692C362.525 217.587 363.365 218.278 363.463 219.216Z" fill="#0088CC"/>
<path d="M395.276 213.461C395.494 214.378 394.941 215.303 394.022 215.53C393.102 215.753 392.176 215.195 391.952 214.276C391.726 213.361 392.291 212.429 393.208 212.208C394.122 211.975 395.052 212.547 395.276 213.461Z" fill="#0088CC"/>
<path d="M346.978 220.384C347.01 221.333 346.274 222.123 345.327 222.149C344.381 222.179 343.593 221.438 343.563 220.496C343.533 219.547 344.277 218.758 345.224 218.729C346.167 218.697 346.953 219.44 346.978 220.384Z" fill="#0088CC"/>
<path d="M379.205 216.885C379.367 217.822 378.744 218.707 377.811 218.863C376.877 219.023 375.992 218.404 375.834 217.473C375.673 216.539 376.301 215.652 377.234 215.494C378.165 215.327 379.044 215.954 379.205 216.885Z" fill="#0088CC"/>
</svg>
