<svg width="118" height="118" viewBox="0 0 118 118" fill="none" xmlns="http://www.w3.org/2000/svg">
<g clip-path="url(#clip0_3245_582)">
<path d="M26.8183 50.9546H5.3637C2.40148 50.9546 0 53.3561 0 56.3183C0 59.2805 2.40148 61.682 5.3637 61.682H26.8183C29.7805 61.682 32.182 59.2805 32.182 56.3183C32.1817 53.3561 29.7803 50.9546 26.8183 50.9546Z" fill="#02A6FF"/>
<path d="M112.635 50.9546H91.1801C88.2179 50.9546 85.8164 53.3561 85.8164 56.3183C85.8164 59.2805 88.2179 61.682 91.1801 61.682H112.635C115.597 61.682 117.998 59.2805 117.998 56.3183C117.998 53.3561 115.597 50.9546 112.635 50.9546Z" fill="#02A6FF" fill-opacity="0.4"/>
<path d="M32.4526 75.2814L17.282 90.4523C15.1873 92.547 15.1873 95.9427 17.282 98.0374C18.3292 99.0847 19.7021 99.6083 21.0748 99.6083C22.4475 99.6083 23.8204 99.0845 24.8672 98.0374L40.0378 82.8666C42.1325 80.7719 42.1325 77.3759 40.0378 75.2814C37.943 73.1869 34.5469 73.1867 32.4526 75.2814Z" fill="#02A6FF" fill-opacity="0.85"/>
<path d="M59.0004 2.68176C56.0382 2.68176 53.6367 5.08325 53.6367 8.04546V18.7726C53.6367 21.7348 56.0382 24.1363 59.0004 24.1363C61.9626 24.1363 64.3641 21.7348 64.3641 18.7726V8.04546C64.3641 5.08325 61.9626 2.68176 59.0004 2.68176Z" fill="#02A6FF" fill-opacity="0.1"/>
<path d="M93.1323 14.5989L77.9617 29.7697C75.8669 31.8644 75.8669 35.2604 77.9617 37.3549C79.0089 38.4022 80.3818 38.926 81.7545 38.926C83.1272 38.926 84.5001 38.4022 85.5469 37.3549L100.717 22.1841C102.812 20.0893 102.812 16.6934 100.717 14.5989C98.6232 12.5041 95.2266 12.5041 93.1323 14.5989Z" fill="#02A6FF" fill-opacity="0.25"/>
<path d="M59.0004 83.1364C56.0382 83.1364 53.6367 85.5378 53.6367 88.5001V109.955C53.6367 112.917 56.0382 115.318 59.0004 115.318C61.9626 115.318 64.3641 112.917 64.3641 109.955V88.5001C64.3641 85.5378 61.9626 83.1364 59.0004 83.1364Z" fill="#02A6FF" fill-opacity="0.7"/>
<path d="M85.5469 75.2815C83.4528 73.1868 80.0562 73.1868 77.9617 75.2815C75.8669 77.3758 75.8669 80.7722 77.9617 82.8667L93.1323 98.0375C94.1795 99.0848 95.5524 99.6084 96.9251 99.6084C98.2975 99.6084 99.6707 99.0845 100.717 98.0375C102.812 95.9428 102.812 92.5468 100.717 90.4523L85.5469 75.2815Z" fill="#02A6FF" fill-opacity="0.55"/>
</g>
<defs>
<clipPath id="clip0_3245_582">
<rect width="118" height="118" fill="white"/>
</clipPath>
</defs>
</svg>
