<svg width="24" height="24" viewBox="0 0 24 24" fill="none" xmlns="http://www.w3.org/2000/svg">
<path d="M21 14.571C21 16.465 18.538 18 15.5 18C12.462 18 10 16.465 10 14.571C10 12.677 12.462 11.143 15.5 11.143C18.538 11.143 21 12.678 21 14.571ZM15.5 19.857C12.462 19.857 10 18.322 10 16.429V18.571C10 20.465 12.462 22 15.5 22C18.538 22 21 20.465 21 18.571V16.429C21 18.322 18.538 19.857 15.5 19.857ZM8.5 8.857C11.538 8.857 14 7.322 14 5.429C14 3.536 11.538 2 8.5 2C5.462 2 3 3.535 3 5.429C3 7.323 5.462 8.857 8.5 8.857ZM8.375 12.857C8.85016 11.8628 9.60906 11.0315 10.556 10.468C9.88353 10.6354 9.193 10.7194 8.5 10.718C5.462 10.714 3 9.179 3 7.286V9.428C3 11.3 5.4 12.811 8.375 12.853V12.857ZM8.5 22C8.8607 21.9997 9.22104 21.9774 9.579 21.933C8.95068 21.3673 8.47882 20.6492 8.209 19.848C5.307 19.753 3 18.261 3 16.429V18.571C3 20.465 5.462 22 8.5 22ZM8 17.556V15.4C5.2 15.24 3 13.787 3 12V14.143C3 15.931 5.2 17.4 8 17.556Z" fill="#D6D6D6"/>
</svg>
