<svg width="108" height="107" viewBox="0 0 108 107" fill="none" xmlns="http://www.w3.org/2000/svg">
<g clip-path="url(#clip0_2539_5182)">
<path d="M22.0747 2.74048H4.77745C2.27222 2.74048 0.453125 4.55958 0.453125 7.0648V90.6684C0.453125 93.1736 2.27222 94.9927 4.77745 94.9927H22.0747H85.4982H102.795C105.301 94.9927 107.12 93.1736 107.12 90.6684V7.0648C107.12 4.55958 105.301 2.74048 102.795 2.74048H85.4982H22.0747ZM3.33601 90.6684V7.0648C3.33601 6.16246 3.87511 5.62336 4.77745 5.62336H20.6333V92.1098H4.77745C3.87511 92.1098 3.33601 91.5707 3.33601 90.6684ZM23.5162 92.1098V5.62336H84.0567V92.1098H23.5162ZM104.237 7.0648V90.6684C104.237 91.5707 103.698 92.1098 102.795 92.1098H86.9396V5.62336H102.795C103.698 5.62336 104.237 6.16246 104.237 7.0648Z" fill="#D6D6D6"/>
<path d="M43.0545 31.8114C42.6134 31.5174 42.0426 31.4886 41.5726 31.7394C41.1085 31.9902 40.8145 32.4774 40.8145 33.0107V67.6053C40.8145 68.1387 41.1085 68.6259 41.5755 68.8767C41.7889 68.9891 42.0224 69.0468 42.2559 69.0468C42.5355 69.0468 42.8123 68.966 43.0545 68.8046L69.0004 51.5073C69.4011 51.2392 69.6433 50.7895 69.6433 50.308C69.6433 49.8266 69.4011 49.3769 69.0004 49.1087L43.0545 31.8114ZM43.6973 64.9127V35.7033L65.6044 50.308L43.6973 64.9127Z" fill="#D6D6D6"/>
<path d="M14.8674 25.8036H9.1016C8.30592 25.8036 7.66016 26.4494 7.66016 27.245C7.66016 28.0407 8.30592 28.6865 9.1016 28.6865H14.8674C15.663 28.6865 16.3088 28.0407 16.3088 27.245C16.3088 26.4494 15.663 25.8036 14.8674 25.8036Z" fill="#D6D6D6"/>
<path d="M9.1016 17.1549H14.8674C15.663 17.1549 16.3088 16.5091 16.3088 15.7134C16.3088 14.9177 15.663 14.272 14.8674 14.272H9.1016C8.30592 14.272 7.66016 14.9177 7.66016 15.7134C7.66016 16.5091 8.30592 17.1549 9.1016 17.1549Z" fill="#D6D6D6"/>
<path d="M14.8674 37.3351H9.1016C8.30592 37.3351 7.66016 37.9808 7.66016 38.7765C7.66016 39.5722 8.30592 40.218 9.1016 40.218H14.8674C15.663 40.218 16.3088 39.5722 16.3088 38.7765C16.3088 37.9808 15.663 37.3351 14.8674 37.3351Z" fill="#D6D6D6"/>
<path d="M14.8674 48.8666H9.1016C8.30592 48.8666 7.66016 49.5123 7.66016 50.308C7.66016 51.1037 8.30592 51.7495 9.1016 51.7495H14.8674C15.663 51.7495 16.3088 51.1037 16.3088 50.308C16.3088 49.5123 15.663 48.8666 14.8674 48.8666Z" fill="#D6D6D6"/>
<path d="M14.8674 60.3982H9.1016C8.30592 60.3982 7.66016 61.044 7.66016 61.8396C7.66016 62.6353 8.30592 63.2811 9.1016 63.2811H14.8674C15.663 63.2811 16.3088 62.6353 16.3088 61.8396C16.3088 61.044 15.663 60.3982 14.8674 60.3982Z" fill="#D6D6D6"/>
<path d="M14.8674 71.9297H9.1016C8.30592 71.9297 7.66016 72.5755 7.66016 73.3711C7.66016 74.1668 8.30592 74.8126 9.1016 74.8126H14.8674C15.663 74.8126 16.3088 74.1668 16.3088 73.3711C16.3088 72.5755 15.663 71.9297 14.8674 71.9297Z" fill="#D6D6D6"/>
<path d="M14.8674 83.4612H9.1016C8.30592 83.4612 7.66016 84.1069 7.66016 84.9026C7.66016 85.6983 8.30592 86.3441 9.1016 86.3441H14.8674C15.663 86.3441 16.3088 85.6983 16.3088 84.9026C16.3088 84.1069 15.663 83.4612 14.8674 83.4612Z" fill="#D6D6D6"/>
<path d="M92.7051 28.6865H98.4709C99.2666 28.6865 99.9123 28.0407 99.9123 27.245C99.9123 26.4494 99.2666 25.8036 98.4709 25.8036H92.7051C91.9094 25.8036 91.2637 26.4494 91.2637 27.245C91.2637 28.0407 91.9094 28.6865 92.7051 28.6865Z" fill="#D6D6D6"/>
<path d="M92.7051 17.1549H98.4709C99.2666 17.1549 99.9123 16.5091 99.9123 15.7134C99.9123 14.9177 99.2666 14.272 98.4709 14.272H92.7051C91.9094 14.272 91.2637 14.9177 91.2637 15.7134C91.2637 16.5091 91.9094 17.1549 92.7051 17.1549Z" fill="#D6D6D6"/>
<path d="M92.7051 40.218H98.4709C99.2666 40.218 99.9123 39.5722 99.9123 38.7765C99.9123 37.9808 99.2666 37.3351 98.4709 37.3351H92.7051C91.9094 37.3351 91.2637 37.9808 91.2637 38.7765C91.2637 39.5722 91.9094 40.218 92.7051 40.218Z" fill="#D6D6D6"/>
<path d="M92.7051 51.7495H98.4709C99.2666 51.7495 99.9123 51.1037 99.9123 50.308C99.9123 49.5123 99.2666 48.8666 98.4709 48.8666H92.7051C91.9094 48.8666 91.2637 49.5123 91.2637 50.308C91.2637 51.1037 91.9094 51.7495 92.7051 51.7495Z" fill="#D6D6D6"/>
<path d="M92.7051 63.2811H98.4709C99.2666 63.2811 99.9123 62.6353 99.9123 61.8396C99.9123 61.044 99.2666 60.3982 98.4709 60.3982H92.7051C91.9094 60.3982 91.2637 61.044 91.2637 61.8396C91.2637 62.6353 91.9094 63.2811 92.7051 63.2811Z" fill="#D6D6D6"/>
<path d="M92.7051 74.8126H98.4709C99.2666 74.8126 99.9123 74.1668 99.9123 73.3711C99.9123 72.5755 99.2666 71.9297 98.4709 71.9297H92.7051C91.9094 71.9297 91.2637 72.5755 91.2637 73.3711C91.2637 74.1668 91.9094 74.8126 92.7051 74.8126Z" fill="#D6D6D6"/>
<path d="M98.4709 83.4612H92.7051C91.9094 83.4612 91.2637 84.1069 91.2637 84.9026C91.2637 85.6983 91.9094 86.3441 92.7051 86.3441H98.4709C99.2666 86.3441 99.9123 85.6983 99.9123 84.9026C99.9123 84.1069 99.2666 83.4612 98.4709 83.4612Z" fill="#D6D6D6"/>
</g>
<defs>
<clipPath id="clip0_2539_5182">
<rect width="106.667" height="106.667" fill="white" transform="translate(0.453125 0.333374)"/>
</clipPath>
</defs>
</svg>
