<svg width="102" height="102" viewBox="0 0 102 102" fill="none" xmlns="http://www.w3.org/2000/svg">
<g clip-path="url(#clip0_3215_5511)">
<path fill-rule="evenodd" clip-rule="evenodd" d="M37.1305 8.53003C27.2114 8.76426 17.7773 12.8692 10.8448 19.9673C3.91227 27.0655 0.03125 36.5938 0.03125 46.5157C0.03125 56.4376 3.91227 65.9659 10.8448 73.064C17.7773 80.1622 27.2114 84.2671 37.1305 84.5013H38.8249V54.3839C38.8249 52.1389 40.5404 49.2584 42.8066 49.2584H74.9996C74.9996 48.0088 75.1267 47.1405 75.1267 46.4627C75.0765 36.4068 71.0552 26.7781 63.9386 19.6733C56.8219 12.5686 47.1864 8.56342 37.1305 8.53003ZM67.4597 43.2646H57.6747C57.4886 35.3764 55.6562 27.6141 52.2951 20.4753C56.4108 22.8451 59.9218 26.1358 62.5528 30.0897C65.1838 34.0435 66.8633 38.553 67.4597 43.2646ZM32.7887 18.2938V43.2646H24.105C24.7616 31.3617 28.5104 21.9579 32.7887 18.2938ZM32.7887 49.7668V74.7164C28.5527 71.0523 24.7616 61.6909 24.105 49.7668H32.7887ZM41.4723 43.2646V18.2938C45.7082 21.9579 49.5206 31.3617 50.1559 43.2646H41.4723ZM21.9447 20.4753C18.6412 27.6331 16.8186 35.3847 16.5862 43.2646H6.73772C7.33236 38.5472 9.01576 34.0326 11.6549 30.0775C14.2941 26.1224 17.8168 22.8351 21.9447 20.4753ZM6.7589 50.8469H16.6074C16.7891 58.7106 18.6067 66.4502 21.9447 73.5727C17.8307 71.2142 14.3188 67.9351 11.6842 63.9923C9.04955 60.0495 7.36375 55.5502 6.7589 50.8469Z" fill="#2E2E2E"/>
<path fill-rule="evenodd" clip-rule="evenodd" d="M96.3053 55.697H50.1973C48.793 55.697 47.4462 56.2549 46.4532 57.2479C45.4602 58.2409 44.9023 59.5876 44.9023 60.9919V86.7252C44.9023 88.1295 45.4602 89.4762 46.4532 90.4692C47.4462 91.4622 48.793 92.0201 50.1973 92.0201H96.3053C97.7096 92.0201 99.0564 91.4622 100.049 90.4692C101.042 89.4762 101.6 88.1295 101.6 86.7252V60.9919C101.6 59.5876 101.042 58.2409 100.049 57.2479C99.0564 56.2549 97.7096 55.697 96.3053 55.697ZM56.4029 86.7252C56.4254 85.9129 56.2877 85.1042 55.9976 84.3452C55.7075 83.5863 55.2706 82.8919 54.712 82.3018C54.1534 81.7117 53.484 81.2375 52.742 80.9063C52.0001 80.575 51.2001 80.3932 50.3879 80.3713H50.2184V67.2187C51.8573 67.2587 53.4453 66.6485 54.6358 65.5215C55.8263 64.3945 56.5225 62.8423 56.5723 61.2037V61.0555H90.0573C90.0572 62.6755 90.6949 64.2304 91.8324 65.3839C92.97 66.5373 94.516 67.1965 96.1359 67.2187H96.3053V80.456C95.4903 80.4363 94.6794 80.5774 93.919 80.8712C93.1585 81.1649 92.4634 81.6057 91.8733 82.1682C91.2833 82.7307 90.8098 83.404 90.4801 84.1496C90.1503 84.8951 89.9706 85.6984 89.9514 86.5134V86.704L56.4029 86.7252Z" fill="#2E2E2E"/>
<path d="M73.2431 82.2986C78.1559 82.2986 82.1385 78.3159 82.1385 73.4031C82.1385 68.4903 78.1559 64.5077 73.2431 64.5077C68.3303 64.5077 64.3477 68.4903 64.3477 73.4031C64.3477 78.3159 68.3303 82.2986 73.2431 82.2986Z" fill="#2E2E2E"/>
</g>
<defs>
<clipPath id="clip0_3215_5511">
<rect width="101.57" height="101.57" fill="white"/>
</clipPath>
</defs>
</svg>
