<svg width="24" height="24" viewBox="0 0 24 24" fill="none" xmlns="http://www.w3.org/2000/svg">
<path d="M12.2108 0C9.66078 0 7.77078 0.78 6.57078 1.98C5.37078 3.18 4.95078 4.68 4.80078 5.82L7.80078 6.21C7.92078 5.46 8.16078 4.71 8.73078 4.14C9.30078 3.57 10.2008 3 12.2108 3C14.1908 3 15.2708 3.48 15.8708 4.02C16.4708 4.56 16.7108 5.22 16.7108 6C16.7108 8.49 15.6908 9.18 14.1908 10.5C12.6908 11.82 10.7108 13.74 10.7108 17.25V18H13.7108V17.25C13.7108 14.76 14.6408 14.07 16.1408 12.75C17.6408 11.43 19.7108 9.51 19.7108 6C19.7108 4.56 19.2008 2.94 17.9408 1.77C16.6508 0.6 14.7308 0 12.2108 0ZM10.7108 21V24H13.7108V21H10.7108Z" fill="#D6D6D6"/>
</svg>
