<svg width="782" height="800" viewBox="0 0 782 800" fill="none" xmlns="http://www.w3.org/2000/svg">
<g clip-path="url(#clip0_3451_6438)">
<path fill-rule="evenodd" clip-rule="evenodd" d="M479.349 1.416C473.819 3.445 459.64 13.999 454.01 20.276C447.008 28.083 442.446 36.177 440.951 43.443C439.847 48.812 439.881 50.938 441.175 57.573C442.013 61.868 443.35 70.222 444.146 76.136C445.546 86.542 446.847 90.449 450.775 96.037C451.97 97.737 452.644 100.436 452.65 103.537C452.663 110.474 457.223 127.458 460.757 133.732C462.414 136.674 463.369 138.833 462.879 138.53C460.833 137.266 437.653 143.968 427.252 148.831C416.215 153.991 409.27 160.152 396.191 176.383C392.202 181.333 386.458 187.86 383.427 190.887C373.771 200.53 368.536 210.25 361.615 231.383C360.354 235.233 357.193 242.665 354.59 247.899C349.495 258.144 346.641 266.498 346.641 271.167C346.641 272.774 344.341 278.655 341.53 284.236C332.692 301.784 331.448 305.899 331.154 318.551C330.858 331.276 330.604 331.845 321.29 340.654C312.017 349.424 305.742 351.409 282.626 352.888C273.559 353.468 262.437 354.212 257.91 354.54C251.585 354.999 249.153 354.798 247.41 353.673C243.367 351.062 235.414 348.883 229.93 348.883C222.447 348.883 216.446 352.208 206.433 361.902C198.247 369.828 188.079 375.967 176.141 380.192C153.329 388.265 147.392 391.337 138.903 399.462L134.641 403.54C134.641 403.54 132.724 408.365 132.502 410.5C132.278 412.645 132.502 415 132.502 415C132.502 421.689 135.109 425.747 135.891 427.147C138.807 432.364 144.07 438.05 148.251 440.5C152.367 442.912 153.412 443.088 160.939 442.636C174.756 441.805 193.148 434.279 202.189 425.756C203.865 424.176 205.568 422.883 205.973 422.883C206.378 422.883 206.424 425.037 206.075 427.671C205.377 432.931 206.882 445.302 209.264 453.883C211.345 461.38 221.292 492.105 223.832 498.883C227.408 508.422 228.409 511.131 232.148 521.383C234.154 526.883 236.619 533.408 237.627 535.883C238.635 538.358 240.448 542.858 241.655 545.883C245.308 555.039 246.57 557.778 254.458 573.677C261.734 588.341 261.993 589.103 260.751 592.177C260.039 593.94 258.855 597.183 258.121 599.383C257.386 601.583 254.686 609.233 252.12 616.383C249.555 623.533 245.064 636.133 242.141 644.383C239.218 652.633 235.198 663.883 233.207 669.383C225.952 689.425 223.389 698.725 224.09 702.463C224.926 706.92 227.842 709.883 231.391 709.883C236.168 709.882 258.597 705.929 260.407 704.768C265.46 701.528 280.556 680.042 284.594 670.342C287.351 663.719 287.641 661.992 287.642 652.203C287.643 643.165 287.13 639.53 284.528 630.133C282.472 622.709 280.942 618.883 280.027 618.883C278.099 618.883 278.273 622.89 280.543 630.775C283.685 641.689 284.946 650.705 284.341 657.925C283.815 664.194 281.782 670.217 279.912 671.043C278.859 671.507 274.305 678.605 272.315 682.883C271.419 684.808 270.645 685.708 270.593 684.883C270.532 683.891 270.232 684.06 269.707 685.383C269.257 686.519 269.335 687.654 269.888 688.011C270.431 688.36 269.162 690.915 267.021 693.784C262.815 699.418 260.973 700.224 249.641 701.397C245.834 701.79 240.987 703.142 237.941 704.659C233.65 706.797 232.321 707.058 230.334 706.153C226.143 704.243 226.201 700.079 230.582 688.086C244.002 651.355 261.993 599.708 262.939 595.199C263.552 592.275 264.411 589.883 264.847 589.883C266.598 589.883 265.356 586.551 259.202 574.74C249.298 555.733 230.622 507.737 218.595 470.383C211.802 449.285 210.302 442.262 210.261 431.366C210.226 421.755 210.351 421.165 213.348 416.809C217.541 410.715 223.922 405.089 229.378 402.675C232.997 401.074 235.527 400.76 242.501 401.042C250.527 401.366 251.794 401.728 260.332 406.137C265.388 408.747 270.189 410.883 271.001 410.883C271.813 410.883 274.837 412.897 277.72 415.358C280.784 417.973 285.908 420.968 290.051 422.566C293.951 424.069 300.516 427.387 304.641 429.94C311.419 434.135 321.216 439.677 339.554 449.689C347.576 454.069 381.763 469.684 387.141 471.425C389.341 472.137 396.091 474.19 402.141 475.988C408.191 477.786 420.341 481.915 429.141 485.163C442.978 490.271 446.366 491.143 454.202 491.612C463.539 492.171 473.199 490.986 481.496 488.264C487.178 486.4 506.701 474.79 506.017 473.682C504.902 471.879 500.926 473.156 492.487 478.027C480.744 484.804 472.858 487.007 460.141 487.062C452.224 487.097 448.891 486.646 444.141 484.896C437.436 482.427 430.483 480.136 407.141 472.706C398.341 469.905 384.841 465.15 377.141 462.141C357.889 454.617 325.566 438.62 311.246 429.531C304.704 425.379 295.529 420.497 290.857 418.682C284.342 416.152 281.657 414.509 279.335 411.633C277.669 409.571 275.649 407.883 274.845 407.883C274.041 407.883 269.278 405.875 264.262 403.422C253.272 398.046 246.613 396.491 237.216 397.105C227.109 397.765 217.074 403.62 210.669 412.594C207.381 417.202 194.499 427.413 187.641 430.849C176.637 436.361 169.758 438.212 159.944 438.3L150.748 438.383L146.573 434.383C144.276 432.183 140.877 428.042 139.019 425.181C136.097 420.682 135.641 419.135 135.641 413.732C135.641 407.491 135.646 407.48 140.875 402.571C148.271 395.627 153.041 392.608 161.641 389.427C181.071 382.241 185.662 380.366 192.712 376.74C197.683 374.184 203.351 369.985 209.212 364.517C220.797 353.711 223.157 352.508 231.584 353.111C235.199 353.37 239.728 354.404 241.649 355.409C243.57 356.414 247.841 357.997 251.141 358.928C254.441 359.858 261.129 361.804 266.003 363.251C270.877 364.699 277.03 365.883 279.677 365.883C282.323 365.883 286.66 366.316 289.315 366.844C298.996 368.773 315.402 370.795 326.141 371.382C340.558 372.172 351.827 374.259 361.931 378.012C380.418 384.88 384.339 386.479 387.662 388.506C392.32 391.348 409.491 397.155 411.245 396.481C414.878 395.087 412.2 392.968 402.891 389.871C392.676 386.474 388.146 384.501 385.641 382.36C384.816 381.655 381.891 380.41 379.141 379.594C365.018 375.403 356.477 369.151 346.508 355.704C343.732 351.959 339.927 345.257 338.051 340.81C334.922 333.39 334.641 331.885 334.641 322.514C334.641 309.325 336.167 303.698 344.579 285.883C348.345 277.908 351.675 270.622 351.98 269.691C352.839 267.067 357.299 264.634 361.412 264.545C366.608 264.433 375.218 268.793 380.957 274.442C385.238 278.656 385.742 279.605 385.497 282.99C385.346 285.084 385.578 287.154 386.013 287.589C387.304 288.88 389.641 284.76 389.641 281.195C389.641 274.607 378.209 265.829 365.227 262.447C360.216 261.142 358.945 261.133 355.348 262.372C353.077 263.154 350.996 263.571 350.723 263.298C350.45 263.025 351.012 261.583 351.972 260.093C353.825 257.216 362.285 240.044 367.595 228.383C372.884 216.769 385.61 194.446 389.137 190.596C390.957 188.61 394.623 184.149 397.284 180.684C405.609 169.843 416.748 158.908 423.599 154.852C431.338 150.271 447.535 144.733 460.419 142.263C469.111 140.597 471.836 138.939 468.186 137.539C464.856 136.261 459.406 122.108 457.673 110.236C457.043 105.917 456.308 100.925 456.041 99.144C455.767 97.323 453.822 93.903 451.598 91.333C448.923 88.243 447.641 85.809 447.641 83.822C447.641 80.091 448.194 80.118 450.174 83.947C453.014 89.438 454.174 87.087 453.784 76.63L453.427 67.051L457.784 64.009C460.18 62.336 463.007 60.352 464.065 59.6C465.304 58.719 465.754 57.62 465.33 56.514C464.568 54.529 463.26 55.023 455.448 60.246C451.018 63.207 450.72 63.692 450.136 68.883C448.975 79.209 449.126 79.438 446.096 62.756C443.933 50.85 444.476 41.945 447.767 35.319C450.836 29.14 462.962 16.256 471.325 10.289C474.93 7.717 481.088 4.349 485.01 2.806L492.141 0L487.641 0.012C485.166 0.019 481.435 0.65 479.349 1.416ZM510.641 0.651C510.641 2.806 515.483 4.601 522.76 5.142C538.153 6.287 546.74 14.705 550.131 31.973C550.932 36.048 552.777 42.753 554.231 46.871C558.699 59.523 556.46 72.878 549.868 72.887C546.353 72.892 541.006 76.157 540.163 78.813C539.627 80.503 539.153 80.692 537.574 79.847C536.511 79.278 535.634 77.816 535.626 76.598C535.617 75.38 535.235 73.791 534.776 73.067C533.821 71.561 528.991 68.883 527.23 68.883C526.579 68.883 524.309 67.103 522.184 64.927C517.653 60.287 514.031 59.234 508.206 60.865C505.028 61.755 502.936 61.77 499.807 60.928C497.516 60.311 495.641 59.566 495.641 59.273C495.641 58.979 496.731 56.859 498.064 54.561C502.127 47.557 511.548 23.624 511.616 20.133C511.63 19.446 511.223 18.883 510.712 18.883C510.201 18.883 509.288 21.265 508.684 24.176C508.08 27.088 505.805 32.364 503.63 35.9C501.455 39.437 498.471 45.165 496.999 48.628C494.872 53.634 493.792 55.029 491.732 55.434C490.307 55.714 486.023 56.882 482.212 58.029C478.401 59.175 473.594 60.091 471.531 60.062C466.54 59.993 464.335 62.436 468.097 63.866C472.167 65.414 476.619 65.098 484.174 62.727L491.044 60.57L494.981 62.836C501.179 66.404 504.166 66.93 509.35 65.37C514.549 63.805 515.279 64.049 519.091 68.615C520.601 70.425 523.514 72.364 525.711 73.022C528.91 73.981 529.805 74.817 530.561 77.555C531.071 79.401 532.647 82.29 534.064 83.974C535.482 85.659 536.641 88.127 536.641 89.46C536.641 91.163 537.198 91.883 538.518 91.883C539.813 91.883 541.052 90.354 542.518 86.948C543.686 84.233 544.641 81.603 544.641 81.103C544.641 79.258 548.386 76.883 551.295 76.883C556.057 76.883 560.641 82.91 560.641 89.169C560.641 94.152 556.987 98.758 550 102.582C545.643 104.967 543.537 106.806 542.75 108.913C542.14 110.547 541.119 113.274 540.482 114.974C539.845 116.674 537.538 120.826 535.357 124.201C532.112 129.221 531.219 131.706 530.444 137.86C529.924 141.998 529.776 147.657 530.117 150.435C530.622 154.562 530.406 155.771 528.938 157.035C527.083 158.634 511.256 165.222 506.391 166.422C502.199 167.455 503.111 168.883 507.964 168.883C513.141 168.883 530.004 161.17 533.167 157.356L535.193 154.912L539.167 156.808C541.353 157.851 545.286 159.622 547.907 160.744C555.992 164.206 577.516 184.245 586.16 196.357C592.657 205.462 596.239 213.192 611.192 250.383C618.711 269.083 626.641 288.779 628.814 294.151C632.908 304.274 633.016 306.329 629.615 309.406C626.922 311.844 627.13 314.552 630.583 322.021C635.179 331.961 637.262 352.867 634.236 358.683C629.614 367.567 616.801 371.882 595.05 371.883C581.833 371.883 577.724 372.976 567.434 379.231C563.195 381.808 558.368 384.188 556.706 384.52C555.045 384.852 553.26 385.637 552.741 386.263C552.221 386.889 551.582 391.448 551.322 396.392C550.732 407.583 548.903 425.954 548.321 426.536C548.082 426.775 545.942 427.964 543.565 429.177C539.251 431.379 539.239 431.401 536.879 441.204C533.955 453.348 534.386 454.286 542.615 453.691C545.67 453.47 550.324 452.246 552.958 450.972C555.591 449.697 557.965 448.873 558.233 449.141C558.501 449.409 559.242 454.856 559.881 461.245C560.987 472.316 560.935 473.193 558.757 479.955C557.044 485.272 555.451 488.04 552.394 491.007C544.066 499.089 524.129 506.202 504.641 508.045C491.202 509.315 416.235 508.59 387.641 506.913C377.466 506.316 361.716 504.943 352.641 503.862C343.566 502.781 332.091 501.938 327.141 501.989L318.141 502.083L324.141 504.024C338.75 508.75 411.075 513.943 460.641 513.825C494.158 513.745 512.831 512.435 523.141 509.439C534.618 506.105 549.297 499.092 554.344 494.532C559.369 489.993 563.189 482.907 564.514 475.67C565.692 469.233 564.522 455.468 562.231 448.819C561.471 446.612 561.063 443.984 561.326 442.979C561.589 441.975 560.881 436.704 559.754 431.268C555.408 410.31 555.341 398.885 559.52 391.102C560.799 388.72 568.204 382.883 569.947 382.883C570.5 382.883 572.57 381.648 574.547 380.138C578.032 377.476 578.64 377.374 594.641 376.764C618.52 375.854 629.296 372.682 633.395 365.357C635.239 362.064 635.877 364.43 634.689 370.153C633.841 374.236 632.285 377.166 628.41 381.975C619.581 392.931 615.656 401.114 606.626 427.383C600.582 444.969 594.884 463.669 592.612 473.383C586.89 497.839 583.194 505.312 571.352 516.375L562.564 524.585L563.504 528.484C565.708 537.62 597.326 625.836 602.289 636.696C604.128 640.718 608.615 652.915 612.261 663.799C618.436 682.232 618.796 683.787 617.514 686.463C615.78 690.08 611.67 691.673 608.178 690.082C605.538 688.879 604.192 686.407 598.272 671.883C596.367 667.208 592.361 657.533 589.371 650.383C583.26 635.774 580.593 628.363 578.034 618.883C575.746 610.41 563.633 580.68 561.104 577.332L559.141 574.732L525.641 575.912C507.216 576.562 491.285 577.548 490.239 578.104C488.404 579.08 488.369 580.145 489.239 608.249C489.735 624.273 490.075 658.893 489.993 685.182C489.884 720.758 490.139 732.884 490.993 732.601C491.75 732.349 492.233 728.163 492.411 720.301C492.637 710.374 492.971 708.167 494.411 707.091C495.945 705.945 496.178 703.219 496.462 683.091C496.763 661.864 496.025 648.51 493.687 632.883C493.152 629.308 492.405 616.707 492.026 604.881C491.428 586.199 491.539 583.212 492.874 582.105C495.243 580.139 556.431 578.211 558.144 580.048C558.828 580.782 560.741 584.758 562.395 588.883C564.048 593.008 568.325 603.371 571.898 611.913C576.507 622.927 578.559 629.2 578.956 633.489C579.353 637.775 581.254 643.589 585.485 653.459C588.768 661.117 592.645 670.533 594.1 674.383C595.555 678.233 597.152 682.283 597.649 683.383C598.145 684.483 599.209 687.035 600.013 689.055C601.985 694.011 605.636 696.245 611.408 696.027C617.091 695.812 620.365 693.787 622.225 689.337C624.289 684.397 624.083 682.589 620.01 669.883C613.432 649.362 608.602 637.535 605.695 634.831C604.086 633.335 602.086 629.613 600.859 625.831C597.79 616.375 576.91 555.947 572.715 544.383C571.519 541.083 569.575 535.496 568.395 531.968L566.251 525.554L568.696 524.031C570.041 523.194 573.845 519.78 577.15 516.446C584.491 509.039 590.769 497.043 593.669 484.883C597.429 469.115 598.785 464.448 606.167 441.883C618.599 403.879 622.407 395.056 630.433 385.651C632.794 382.885 635.339 379.434 636.09 377.982C639.622 371.152 640.528 355.449 638.461 336.867C637.264 326.097 638.173 299.318 640.703 270.883C641.265 264.558 641.818 248.808 641.93 235.883C642.125 213.492 642.024 212.077 639.796 205.892C636.749 197.435 631.207 189.734 624.516 184.659C616.769 178.782 596.5 169.344 584.141 165.858C582.491 165.393 576.416 163.669 570.641 162.028C564.866 160.387 556.731 158.299 552.564 157.387C548.397 156.476 542.547 154.502 539.564 153L534.141 150.269L534.448 141.124C534.748 132.182 534.852 131.833 539.168 125.398C541.595 121.778 544.107 116.919 544.751 114.6C546.008 110.072 548.099 107.796 554.555 103.928C559.658 100.872 563.649 95.239 564.335 90.129C564.907 85.863 562.465 79.84 558.831 76.554C556.908 74.815 556.887 74.545 558.403 71.054C560.857 65.403 560.519 50.524 557.816 45.226C556.666 42.971 554.971 37.009 554.051 31.976C552.838 25.347 551.429 21.25 548.938 17.105C542.143 5.797 537.43 2.815 524.641 1.734C519.966 1.339 514.903 0.708 513.391 0.333C511.767 -0.071 510.641 0.06 510.641 0.651ZM493.947 8.298C490.433 11.322 491.6 12.75 495.908 10.696C497.69 9.846 500.61 8.829 502.395 8.437C507.093 7.405 506.379 5.883 501.197 5.883C497.939 5.883 496.003 6.528 493.947 8.298ZM520.407 32.883C519.062 37.973 518.49 46.883 519.508 46.883C520.789 46.883 521.905 39.624 521.43 34.383C521.118 30.946 520.974 30.735 520.407 32.883ZM544.753 40.383C544.776 41.483 545.388 44.183 546.113 46.383L547.431 50.383L547.501 46.883C547.539 44.958 546.927 42.258 546.141 40.883C544.888 38.692 544.717 38.63 544.753 40.383ZM535.296 64.251C534.882 65.828 534.78 67.355 535.069 67.644C535.874 68.449 536.858 65.229 536.43 63.191C536.149 61.858 535.851 62.137 535.296 64.251ZM458.641 86.261C458.641 88.419 460.951 89.814 466.123 90.781C468.746 91.271 471.267 92.278 471.725 93.019C472.843 94.828 475.141 92.629 474.333 90.523C472.959 86.941 458.641 83.052 458.641 86.261ZM499.891 89.522C497.019 90.554 495.641 91.637 495.641 92.859C495.641 95.055 497.985 96.139 499.486 94.638C500.086 94.038 503.628 93.286 507.358 92.966C513.28 92.457 514.141 92.129 514.141 90.383C514.141 88.676 513.41 88.355 509.141 88.189C506.391 88.082 502.228 88.682 499.891 89.522ZM463.652 97.862C461.188 102.467 465.783 107.817 471.064 106.492C473.206 105.954 473.641 105.266 473.641 102.421C473.641 96.79 466.074 93.337 463.652 97.862ZM501.956 98.89C500.755 99.374 499.246 100.752 498.604 101.951C497.642 103.749 497.78 104.594 499.388 106.758C502.199 110.541 506.784 110.787 509.525 107.303C512.16 103.954 512.184 102.426 509.641 99.883C507.503 97.745 505.455 97.48 501.956 98.89ZM487.641 111.914C487.641 113.724 488.263 115.184 489.184 115.538C491.302 116.351 491.476 115.887 490.462 112.133C489.356 108.039 487.641 107.907 487.641 111.914ZM488.891 130.598C483.852 131.072 483.313 132.56 487.891 133.361C491.528 133.997 496.461 132.91 496.872 131.383C497.179 130.241 494.983 130.026 488.891 130.598ZM574.19 166.989C607.626 176.574 626.236 187.14 633.42 200.62C638.089 209.379 639.023 217.529 638.207 242.383C637.465 264.959 635.288 295.569 634.357 296.5C633.773 297.085 631.657 290.468 631.647 288.024C631.644 287.276 629.587 281.876 627.077 276.024C620.962 261.767 617.957 254.418 610.254 234.883C602.499 215.216 597.002 203.732 591.047 194.756C585.717 186.721 569.889 171.357 562.513 167.058C557.321 164.032 557.245 163.926 560.248 163.905C561.957 163.893 568.231 165.281 574.19 166.989ZM547.046 251.383C547.716 258.91 553.918 277.485 556.777 280.528C559.173 283.079 559.155 283.858 556.191 305.883C553.69 324.459 552.917 335.873 554.096 336.802C554.671 337.255 557.395 338.191 560.15 338.881C564.359 339.937 567.073 339.866 577.15 338.434C583.745 337.497 590.153 336.491 591.391 336.198C594.199 335.534 594.285 332.988 591.645 328.657C589.242 324.717 589.058 319.161 591.227 316.064C594.52 311.362 601.951 307.898 614.272 305.32C619.239 304.281 621.318 304.234 623.259 305.119C626.653 306.665 628.345 304.322 625.84 301.543C622.619 297.968 608.911 300.332 595.696 306.742C588.389 310.286 580.063 317.933 580.961 320.275C581.399 321.416 582.268 321.819 583.468 321.438C585.577 320.769 589.212 324.15 588.18 325.82C587.217 327.377 583.42 327.117 580.85 325.317C579.62 324.456 577.731 322.019 576.651 319.903C574.346 315.384 562.641 286.368 562.641 285.172C562.641 284.722 561.735 282.663 560.628 280.598C559.521 278.532 556.324 270.439 553.522 262.613C547.232 245.037 546.344 243.496 547.046 251.383ZM403.719 253.383C395.363 271.431 394.505 274.524 392.962 292.158C392.635 295.884 391.993 299.165 391.534 299.449C391.075 299.733 389.364 299.274 387.732 298.43C385.08 297.059 384.825 296.522 385.334 293.389C386.063 288.893 384.265 288.753 382.046 293.133C381.141 294.921 379.707 297.173 378.86 298.139C378.013 299.105 377.505 300.032 377.73 300.198C378.932 301.085 393.104 302.819 393.756 302.16C394.179 301.732 394.972 298.595 395.519 295.187C396.065 291.78 396.991 288.097 397.577 287.003C398.162 285.909 398.641 284.143 398.641 283.078C398.641 282.013 400.024 276.471 401.715 270.762C406.893 253.28 407.767 249.761 407.356 248.04C407.119 247.049 405.657 249.196 403.719 253.383ZM367.649 294.813C363.658 295.864 362.457 299.341 363.052 308.122C363.682 317.419 367.225 329.883 369.238 329.883C371.068 329.883 371.054 325.663 369.204 319.315C367.321 312.856 365.512 299.383 366.264 297.424C367.009 295.482 367.979 295.489 371.802 297.466C373.959 298.581 374.74 298.681 374.447 297.802C373.732 295.656 370.254 294.127 367.649 294.813ZM387.641 294.383C387.641 294.658 387.866 294.883 388.141 294.883C388.416 294.883 388.641 294.658 388.641 294.383C388.641 294.108 388.416 293.883 388.141 293.883C387.866 293.883 387.641 294.108 387.641 294.383ZM565.652 307.383C572.355 324.693 575.711 328.986 583.497 330.213C586.773 330.729 588.857 331.773 587.058 331.997C586.554 332.06 585.016 332.254 583.641 332.428C567.432 334.482 565.255 334.615 562.1 333.744C558.853 332.847 558.642 332.532 558.649 328.586C558.658 324.178 560.252 308.746 561.287 303.058C562.022 299.017 562.657 299.646 565.652 307.383ZM386.141 308.677C388.061 310.765 410.145 326.686 410.562 326.282C411.435 325.437 405.936 320.619 397.518 314.853C389.1 309.087 383.947 306.29 386.141 308.677ZM634.626 312.692C634.617 314.172 634.216 316.005 633.735 316.765C632.504 318.708 631.255 314.558 632.08 311.27C632.866 308.139 634.646 309.133 634.626 312.692ZM461.141 317.825C456.376 319.536 448.641 323.646 448.641 324.467C448.641 324.95 456.861 321.73 463.016 318.837C467.305 316.821 468.706 315.779 466.891 315.956C466.478 315.996 463.891 316.837 461.141 317.825ZM541.141 335.411C538.941 336.136 535.251 336.764 532.94 336.806C527.332 336.909 518.641 338.823 518.641 339.956C518.641 341.325 539.398 339.938 544.935 338.199C548.866 336.964 549.519 336.44 548.562 335.288C547.196 333.642 546.474 333.654 541.141 335.411ZM333.03 339.133C334.058 344.599 339.068 354.005 345.067 361.734C348.205 365.776 350.536 369.321 350.246 369.611C349.957 369.901 346.214 369.606 341.93 368.956C337.646 368.305 328.291 367.345 321.141 366.822C300.66 365.323 292.312 364.314 289.957 363.053C288.755 362.409 286.018 361.883 283.874 361.883C279.183 361.883 268.487 359.911 267.27 358.821C266.177 357.843 271.888 357.133 286.822 356.39C306.301 355.422 315.559 351.908 325.564 341.685C328.631 338.551 331.428 335.964 331.78 335.935C332.131 335.906 332.693 337.345 333.03 339.133ZM553.082 344.415C554.15 345.222 555.5 345.869 556.082 345.851C556.665 345.834 556.267 345.159 555.2 344.351C554.132 343.544 552.782 342.897 552.2 342.915C551.617 342.932 552.015 343.607 553.082 344.415ZM565.641 350.2C563.232 351.44 563.153 351.793 563.458 359.877C563.633 364.491 564.211 369.08 564.744 370.075C565.93 372.291 568.771 372.384 572.728 370.338L575.716 368.793L575.037 361.088C574.664 356.85 573.983 352.371 573.524 351.133C572.573 348.565 569.518 348.203 565.641 350.2ZM494.886 355.925C490.896 357.542 480.188 360.911 471.09 363.412C461.992 365.913 453.038 368.68 451.192 369.56C447.607 371.27 445.325 374.895 446.275 377.371C447.113 379.555 447.93 379.241 449.754 376.034C451.482 372.996 450.238 373.435 475.641 366.914C482.516 365.15 491.916 361.946 496.529 359.794C503.004 356.775 506.141 355.883 510.279 355.883C515.475 355.883 517.294 354.731 514.059 353.49C510.249 352.028 501.886 353.09 494.886 355.925ZM381.034 356.465C381.368 357.335 381.641 358.223 381.641 358.439C381.641 359.352 387.571 361.805 388.02 361.078C388.497 360.308 382.426 354.883 381.087 354.883C380.724 354.883 380.7 355.595 381.034 356.465ZM569.935 361.133C570.188 363.746 570.001 365.883 569.518 365.883C569.036 365.883 568.677 363.296 568.72 360.133C568.808 353.685 569.249 354.048 569.935 361.133ZM555.641 364.312C555.641 367.982 556.27 371.139 557.373 373.006C559.093 375.917 559.084 375.955 556.123 378.375C553.899 380.192 553.574 380.82 554.844 380.847C557.237 380.898 561.641 378.762 561.641 377.551C561.641 376.995 560.909 375.732 560.015 374.744C559.075 373.705 558.106 370.209 557.717 366.45C556.854 358.109 555.641 356.86 555.641 364.312ZM282.641 372.228C278.949 374.105 277.571 375.65 274.966 380.833C270.921 388.882 269.883 395.648 272.097 399.539C273.315 401.682 273.568 401.837 273.121 400.166C271.112 392.661 278.565 377.145 285.908 373.548C287.968 372.538 289.399 371.301 289.088 370.798C288.296 369.516 287.726 369.642 282.641 372.228ZM380.641 371.776C380.641 372.831 383.12 373.896 385.473 373.851C386.912 373.824 386.874 373.618 385.2 372.351C383.033 370.712 380.641 370.41 380.641 371.776ZM393.045 376.727C394.13 378.484 400.459 381.422 406.141 382.807C411.985 384.231 415.145 386.851 416.699 391.56C417.632 394.387 418.909 395.449 424.478 398.028C428.143 399.724 432.961 401.687 435.185 402.388C437.409 403.089 440.959 404.838 443.074 406.273C446.27 408.442 448.049 408.883 453.599 408.883C457.272 408.883 462.704 409.603 465.669 410.484C471.625 412.253 478.101 411.842 484.156 409.312C488.569 407.469 490.386 407.975 498.081 413.19C504.109 417.275 511.933 420.404 523.584 423.388C527.128 424.295 532.018 425.714 534.45 426.54C536.917 427.377 540.018 427.754 541.461 427.392L544.047 426.743L541.094 424.89C539.47 423.871 531.086 421 522.462 418.51C510.868 415.162 505.527 413.088 501.962 410.552C499.311 408.666 495.32 406.206 493.094 405.086L489.048 403.05L480.224 405.334C473.301 407.126 470.619 407.412 467.771 406.66C462.629 405.304 451.761 404.039 449.754 404.564C448.824 404.807 447.257 404.116 446.272 403.028C444.837 401.443 444.703 400.635 445.596 398.966C446.848 396.628 448.776 396.326 451.52 398.039C452.973 398.947 455.257 398.735 462.133 397.055C471.396 394.791 482.963 389.962 480.943 389.202C480.284 388.954 475.079 389.919 469.376 391.347C458.692 394.023 443.089 395.417 442.082 393.787C441 392.037 442.792 388.856 445.709 387.348C447.318 386.516 453.474 385.189 459.388 384.401C465.302 383.612 472.278 382.23 474.891 381.331C483.391 378.404 479.515 375.292 470.634 377.915C468.713 378.482 462.54 379.563 456.917 380.317C445.797 381.807 440.058 384.375 439.072 388.3C438.762 389.539 439.437 393.199 440.574 396.433C441.711 399.667 442.641 402.442 442.641 402.598C442.641 404.05 438.071 401.879 430.716 396.934C423.696 392.213 421.427 390.072 419.73 386.566C416.286 379.453 413.283 377.687 407.415 379.326C404.938 380.018 401.319 379.193 394.227 376.319C392.87 375.769 392.526 375.888 393.045 376.727ZM284.884 379.133C281.746 383.051 279.316 389.821 279.232 394.883C279.095 403.148 280.926 402.263 282.815 393.151C283.736 388.71 285.199 383.705 286.065 382.029C286.932 380.353 287.641 378.735 287.641 378.433C287.641 377.424 285.899 377.867 284.884 379.133ZM542.848 382.904C537.85 383.632 519.822 391.397 520.817 392.393C521.072 392.648 524.399 391.94 528.211 390.819C534.473 388.979 538.904 387.828 545.362 386.363C547.365 385.909 550.801 381.71 548.926 382.008C548.494 382.076 545.759 382.48 542.848 382.904ZM476.641 399.468C473.366 400.809 473.333 400.864 476.141 400.321C477.791 400.002 479.569 399.323 480.091 398.812C481.289 397.641 480.944 397.706 476.641 399.468ZM568.044 404.04C566.434 406.644 567.569 425.655 570.094 438.383C571.512 445.533 573.115 455.433 573.656 460.383C574.197 465.333 574.824 470.958 575.05 472.883C575.275 474.808 575.326 470.308 575.162 462.883C574.926 452.206 574.289 447.083 572.113 438.383C569.92 429.613 569.34 424.9 569.252 415.135C569.191 408.399 569.055 402.886 568.95 402.885C568.845 402.884 568.437 403.404 568.044 404.04ZM555.041 421.133C555.425 428.421 556.239 436.368 556.85 438.795C557.874 442.865 557.785 443.348 555.702 445.035C554.459 446.041 550.518 447.767 546.943 448.871C540.745 450.786 537.967 450.782 539.154 448.861C539.455 448.376 540.502 444.716 541.482 440.728C543.135 434.004 543.492 433.419 546.408 432.664C551.556 431.329 552.641 428.719 552.641 417.66C552.641 412.283 553.024 407.883 553.491 407.883C553.959 407.883 554.656 413.845 555.041 421.133ZM273.641 434.239C273.641 435.086 281.67 446.883 282.246 446.883C283.198 446.883 277.712 437.252 275.749 435.478C274.59 434.43 273.641 433.873 273.641 434.239ZM322.141 473.416C316.091 474.115 309.566 475.178 307.641 475.779C304.255 476.836 304.288 476.85 308.641 476.213C311.116 475.852 321.466 475.458 331.641 475.338C347.638 475.149 358.641 473.93 358.641 472.344C358.641 471.421 332.855 472.178 322.141 473.416ZM366.891 472.572C367.854 472.824 369.428 472.824 370.391 472.572C371.354 472.321 370.566 472.115 368.641 472.115C366.716 472.115 365.928 472.321 366.891 472.572ZM297.641 477.883C297.641 478.433 298.118 478.883 298.7 478.883C299.282 478.883 299.481 478.433 299.141 477.883C298.801 477.333 298.325 476.883 298.082 476.883C297.839 476.883 297.641 477.333 297.641 477.883ZM301.641 477.383C301.641 477.658 301.866 477.883 302.141 477.883C302.416 477.883 302.641 477.658 302.641 477.383C302.641 477.108 302.416 476.883 302.141 476.883C301.866 476.883 301.641 477.108 301.641 477.383ZM303.051 491.383C303.293 492.483 303.808 494.958 304.194 496.883C304.58 498.808 305.498 501.248 306.234 502.306C307.444 504.046 307.632 504.07 308.213 502.556C308.566 501.636 308.56 500.321 308.199 499.633C304.676 492.916 302.687 489.728 303.051 491.383ZM307.712 507.383C307.712 508.483 308.355 510.508 309.141 511.883C310.403 514.091 310.57 514.15 310.57 512.383C310.57 511.283 309.927 509.258 309.141 507.883C307.879 505.675 307.712 505.616 307.712 507.383ZM549.891 524.892C545.911 526.738 543.641 528.391 543.641 529.445C543.641 530.748 544.226 530.956 546.391 530.422C551.517 529.158 560.709 524.586 560.346 523.482C559.69 521.486 556.225 521.954 549.891 524.892ZM313.339 527.133C311.766 528.3 311.799 529.071 313.838 538.713C315.581 546.952 315.782 549.428 314.832 550.949C313.486 553.103 313.363 558.026 314.299 572.164C314.886 581.033 315.2 582.198 317.662 584.664C320.462 587.469 322.159 594.427 320.641 596.884C319.727 598.363 317.641 597.353 317.641 595.431C317.641 592.181 312.533 592.698 297.2 597.502C292.768 598.89 287.81 600.537 286.184 601.162C282.961 602.399 275.641 609.215 275.641 610.979C275.641 611.582 274.066 615.394 272.141 619.45C270.216 623.507 266.562 631.901 264.02 638.104C256.944 655.376 253.379 664.048 246.637 680.383C243.233 688.633 240.202 696.454 239.903 697.764C239.002 701.7 241.863 699.817 244.37 694.823C246.425 690.73 259.679 659.647 263.321 650.383C264.185 648.183 265.496 645.033 266.232 643.383C270.27 634.342 274.554 623.555 275.107 621.038C275.454 619.457 277.066 616.892 278.69 615.336C280.519 613.584 281.641 611.491 281.641 609.832C281.641 607.6 282.354 606.882 285.924 605.519C288.28 604.619 290.599 603.883 291.078 603.883C291.556 603.883 294.361 602.741 297.311 601.346C300.26 599.951 305.215 598.339 308.321 597.765C315.425 596.452 317.949 597.628 319.559 603.004C320.205 605.16 321.613 607.473 322.687 608.144C324.097 609.025 324.641 610.48 324.642 613.374C324.646 624.087 333.097 649.09 340.681 660.824C345.725 668.628 347.641 674.543 347.641 682.312C347.641 687.882 347.297 689.04 344.868 691.64C341.992 694.718 335.436 697.085 326.224 698.37C318.335 699.47 313.964 703.13 309.119 712.693C306.521 717.82 306.336 719.808 308.586 718.417C309.179 718.05 311.173 715.418 313.017 712.567C318.204 704.546 320.562 702.835 327.796 701.841C331.286 701.362 338.025 700.081 342.773 698.996C347.52 697.91 355.845 696.759 361.273 696.437C377.747 695.46 398.241 693.251 399.733 692.289C401.195 691.348 385.957 689.722 384.303 690.643C383.41 691.14 377.756 691.21 365.641 690.871L358.141 690.662L363.641 689.292C366.666 688.538 373.172 687.208 378.099 686.335C383.026 685.463 387.737 684.369 388.568 683.904C390.814 682.647 374.279 683.787 366.141 685.451C362.291 686.237 357.453 686.882 355.389 686.882L351.637 686.883L351.986 679.383C352.178 675.258 352.004 671.883 351.6 671.883C351.195 671.883 350.566 670.295 350.202 668.355C349.838 666.415 349.113 665.091 348.59 665.414C348.068 665.737 347.641 665.299 347.641 664.442C347.641 663.585 347.075 662.883 346.384 662.883C341.802 662.883 328.641 625.982 328.641 613.134C328.641 609.717 328.054 607.887 326.391 606.116C324.346 603.939 324.172 602.924 324.484 594.989C324.804 586.831 324.659 586.057 322.271 583.22C319.977 580.493 319.607 578.848 318.663 567.154C317.469 552.372 317.791 550.453 321.316 551.338C322.638 551.669 333.397 551.632 345.224 551.254C364.131 550.65 366.689 550.375 366.411 548.975C366.134 547.574 363.342 547.383 343.197 547.383H320.299L319.442 544.383C318.971 542.733 318.179 539.358 317.683 536.883C317.186 534.408 316.501 531.663 316.161 530.784C315.484 529.033 314.63 528.96 332.641 532.201C337.316 533.042 346.17 534.473 352.315 535.379C362.754 536.919 363.659 536.917 366.053 535.349C368.364 533.835 369.789 533.788 380.537 534.873C392.759 536.106 396.641 535.755 396.641 533.415C396.641 531.915 390.292 530.256 381.141 529.365C377.841 529.044 373.454 528.539 371.391 528.244C368.144 527.779 367.641 527.972 367.641 529.678C367.641 530.763 366.817 531.865 365.81 532.129C363.84 532.644 342.811 530.042 328.141 527.468C317.264 525.56 315.512 525.52 313.339 527.133ZM468.897 533.84C465.032 534.779 462.641 536.587 462.641 538.573C462.641 539.568 462.012 539.818 460.619 539.376C459.488 539.017 455.633 539.747 451.869 541.032C445.934 543.059 443.372 543.315 430.141 543.205C421.891 543.136 411.991 542.542 408.141 541.886C404.291 541.229 399.766 540.471 398.085 540.201C396.095 539.881 394.597 540.232 393.787 541.207C392.181 543.143 392.873 543.516 401.78 545.52C411.948 547.807 445.822 547.768 453.141 545.46C457.945 543.946 458.195 543.962 459.513 545.883C460.831 547.804 464.641 548.712 464.641 547.106C464.641 546.678 463.927 545.309 463.054 544.063C461.868 542.369 461.748 541.459 462.579 540.458C463.895 538.872 476.233 536.883 484.755 536.883C489.961 536.883 490.742 536.643 490.453 535.133C490.167 533.636 488.818 533.359 481.13 533.218C476.186 533.127 470.681 533.407 468.897 533.84ZM534.534 533.323C533.609 534.248 514.662 536.828 504.239 537.448C494.551 538.024 493.071 538.362 490.95 540.483C488.977 542.456 488.754 543.226 489.665 544.928C490.742 546.94 491.273 546.973 513.454 546.396C525.932 546.071 538.556 545.559 541.508 545.258L546.875 544.71L546.297 541.153C545.515 536.332 542.11 532.883 538.133 532.883C536.396 532.883 534.776 533.081 534.534 533.323ZM420.369 536.605C422.144 536.826 425.294 536.829 427.369 536.613C429.443 536.396 427.991 536.216 424.141 536.211C420.291 536.207 418.593 536.384 420.369 536.605ZM541.437 539.455C541.726 541.472 541.091 541.561 517.605 542.823C500.257 543.755 493.172 543.814 492.392 543.034C490.782 541.424 492.469 541.131 507.641 540.383C515.066 540.017 524.516 539.119 528.641 538.387C538.535 536.632 541.064 536.843 541.437 539.455ZM363.641 541.251C363.641 545.24 364.852 546.539 366.604 544.427C368.259 542.434 367.502 538.472 365.391 538.07C363.993 537.803 363.641 538.443 363.641 541.251ZM473.391 544.545C474.079 544.823 475.204 544.823 475.891 544.545C476.579 544.268 476.016 544.041 474.641 544.041C473.266 544.041 472.704 544.268 473.391 544.545ZM389.141 547.938C388.041 548.381 383.259 548.774 378.513 548.813C372.475 548.862 369.543 549.297 368.742 550.261C367.079 552.266 369.325 552.547 381.855 551.905C392.701 551.348 396.648 550.001 392.998 548.101C391.974 547.568 390.244 547.495 389.141 547.938ZM434.641 553.44C434.641 556.643 463.062 567.438 464.666 564.843C465.547 563.417 464.821 560.654 463.74 561.322C462.891 561.847 454.639 559.109 444.641 554.984C436.127 551.472 434.641 551.242 434.641 553.44ZM462.641 554.801C462.641 555.856 462.929 557.469 463.28 558.385C463.79 559.714 464.09 559.781 464.765 558.717C466.167 556.505 465.779 552.883 464.141 552.883C463.316 552.883 462.641 553.746 462.641 554.801ZM384.814 581.633C382.917 583.254 382.65 585.453 381.199 611.383C380.338 626.783 379.635 643.026 379.637 647.478C379.64 654.054 379.298 655.884 377.812 657.228C375.381 659.428 369.372 659.373 367.448 657.133C364.958 654.234 364.833 652.763 366.23 642.874C368.001 630.334 368.135 587.062 366.414 583.284L365.187 580.592L345.665 581.286C334.928 581.668 325.696 582.428 325.15 582.974C322.8 585.324 327.637 585.864 345.348 585.23L363.554 584.578L363.848 614.48C364.069 637.012 363.833 644.929 362.891 646.598C361.401 649.239 361.263 652.531 362.608 653.363C363.14 653.692 363.321 655.231 363.011 656.784C362.199 660.844 366.669 663.883 373.451 663.883C377.662 663.883 379.087 663.352 382.473 660.524C386.076 657.514 386.335 657.006 384.969 655.64C383.615 654.285 383.035 651.358 382.443 642.883C382.347 641.508 382.847 634.533 383.553 627.383C384.26 620.233 385.137 607.987 385.503 600.169C385.881 592.092 386.643 585.481 387.267 584.857C388.01 584.114 394.474 583.86 407.253 584.071L426.141 584.384L434.141 588.336C438.541 590.51 447.044 594.335 453.036 596.836C459.029 599.337 464.274 602.058 464.692 602.883C465.11 603.708 465.884 608.345 466.411 613.187C467.185 620.289 467.083 622.801 465.881 626.187C464.995 628.685 464.394 633.924 464.395 639.133C464.397 643.946 464.312 647.883 464.207 647.883C464.102 647.883 455.269 648.795 444.578 649.91C433.888 651.025 420.249 652.356 414.27 652.867C401.063 653.996 394.746 654.904 394.223 655.748C393.792 656.443 396.374 656.355 420.141 654.864C434.483 653.964 448.12 652.297 460.391 649.941L464.641 649.125L464.724 653.254C464.77 655.525 464.999 658.508 465.232 659.883C465.466 661.258 465.873 668.908 466.138 676.883C466.403 684.858 467.118 694.44 467.728 698.176C468.337 701.912 468.559 706.075 468.22 707.426C467.669 709.621 467.044 709.897 462.372 710.011C459.495 710.081 456.016 710.293 454.641 710.482C453.266 710.67 450.341 710.877 448.141 710.941C440.331 711.168 415.725 714.866 385.641 720.335C348.385 727.108 331.735 730.757 314.509 735.923C296.91 741.2 296.466 741.158 301.836 734.724C309.127 725.988 310.417 724.883 313.346 724.873C314.883 724.867 326.242 723.968 338.588 722.876C363.573 720.665 383.827 717.675 390.641 715.192C396.047 713.222 398.411 711.428 394.242 712.458C391.995 713.014 391.524 712.882 392.148 711.871C392.763 710.876 392.384 710.737 390.547 711.283C386.877 712.374 355.272 716.432 335.641 718.333C326.016 719.265 315.249 720.672 311.715 721.459C305.655 722.809 304.902 723.31 298.516 730.241C292.438 736.836 291.109 737.769 285.558 739.326C281.841 740.369 275.335 741.126 269.257 741.222C257.947 741.402 251.276 739.606 246.391 735.065C241.991 730.975 242.686 728.117 250.245 719.223C257.712 710.436 257.191 707.969 249.462 715.517C243.835 721.012 240.639 726.477 240.645 730.593C240.65 734.459 243.933 739.465 247.76 741.444C260.124 747.838 273.632 749.173 293.085 745.924C300.204 744.734 306.309 743.588 306.652 743.376C307.406 742.91 320.165 739.42 331.141 736.678C343.452 733.602 359.017 730.766 402.141 723.739C415.891 721.499 429.166 719.265 431.641 718.775C434.116 718.285 437.266 717.682 438.641 717.435C440.016 717.188 443.616 716.474 446.641 715.848C449.666 715.222 453.603 714.704 455.389 714.698C457.175 714.691 458.412 714.322 458.138 713.878C457.314 712.545 467.248 711.603 469.488 712.801C470.6 713.396 471.707 713.883 471.947 713.883C473.419 713.883 473.506 703.026 472.176 685.509C471.335 674.44 470.161 659.026 469.567 651.257C468.926 642.882 468.772 630.059 469.189 619.757C469.841 603.63 469.757 602.226 468.016 600.2C466.985 599 459.391 595.106 451.141 591.549C442.891 587.991 433.666 583.915 430.641 582.491C425.326 579.989 424.499 579.902 406.002 579.893C389.212 579.884 386.611 580.098 384.814 581.633ZM268.47 590.388C267.762 591.096 271.324 603.966 272.575 605.217C274.591 607.233 274.88 600.852 273.006 595.683C271.261 590.868 269.751 589.106 268.47 590.388ZM311.185 606.811C310.484 607.946 314.223 609.26 315.648 608.378C316.212 608.03 316.415 607.326 316.098 606.814C315.354 605.61 311.929 605.608 311.185 606.811ZM352.641 632.383C352.641 632.658 352.866 632.883 353.141 632.883C353.416 632.883 353.641 632.658 353.641 632.383C353.641 632.108 353.416 631.883 353.141 631.883C352.866 631.883 352.641 632.108 352.641 632.383ZM385.641 644.383C384.923 645.248 384.826 645.883 385.412 645.883C385.97 645.883 386.686 645.208 387.003 644.383C387.319 643.558 387.422 642.883 387.232 642.883C387.042 642.883 386.326 643.558 385.641 644.383ZM385.641 647.383C385.641 647.658 385.866 647.883 386.141 647.883C386.416 647.883 386.641 647.658 386.641 647.383C386.641 647.108 386.416 646.883 386.141 646.883C385.866 646.883 385.641 647.108 385.641 647.383ZM260.641 670.383C260.641 670.658 260.866 670.883 261.141 670.883C261.416 670.883 261.641 670.658 261.641 670.383C261.641 670.108 261.416 669.883 261.141 669.883C260.866 669.883 260.641 670.108 260.641 670.383ZM393.974 682.55C394.341 682.916 394.941 682.916 395.308 682.55C395.674 682.183 395.374 681.883 394.641 681.883C393.908 681.883 393.608 682.183 393.974 682.55ZM257.641 690.383C257.641 690.658 257.866 690.883 258.141 690.883C258.416 690.883 258.641 690.658 258.641 690.383C258.641 690.108 258.416 689.883 258.141 689.883C257.866 689.883 257.641 690.108 257.641 690.383ZM404.141 691.883C404.481 692.433 404.957 692.883 405.2 692.883C405.443 692.883 405.641 692.433 405.641 691.883C405.641 691.333 405.164 690.883 404.582 690.883C404 690.883 403.801 691.333 404.141 691.883ZM410.141 691.883C410.481 692.433 410.984 692.883 411.259 692.883C411.534 692.883 411.481 692.433 411.141 691.883C410.801 691.333 410.298 690.883 410.023 690.883C409.748 690.883 409.801 691.333 410.141 691.883ZM345.641 706.383C345.641 706.658 345.866 706.883 346.141 706.883C346.416 706.883 346.641 706.658 346.641 706.383C346.641 706.108 346.416 705.883 346.141 705.883C345.866 705.883 345.641 706.108 345.641 706.383ZM396.641 710.383C396.641 710.658 396.866 710.883 397.141 710.883C397.416 710.883 397.641 710.658 397.641 710.383C397.641 710.108 397.416 709.883 397.141 709.883C396.866 709.883 396.641 710.108 396.641 710.383ZM581.391 716.545C582.079 716.823 583.204 716.823 583.891 716.545C584.579 716.268 584.016 716.041 582.641 716.041C581.266 716.041 580.704 716.268 581.391 716.545ZM472.685 721.633C472.709 723.696 473.118 728.743 473.593 732.849C474.966 744.712 477.768 745.69 498.641 741.592C511.703 739.028 538.966 734.08 543.641 733.426C546.116 733.08 553.091 731.932 559.141 730.876C577.432 727.684 594.809 724.926 600.919 724.245C606.561 723.616 608.633 722.614 606.726 721.436C606.205 721.114 605.523 721.265 605.209 721.773C604.384 723.107 600.441 721.847 600.987 720.423C601.339 719.506 600.317 719.519 596.615 720.48C593.958 721.169 590.897 721.501 589.814 721.218C588.732 720.935 586.863 721.229 585.661 721.872C583.849 722.842 583.225 722.73 581.996 721.212C581.116 720.125 580.328 719.819 580.054 720.456C579.8 721.046 578.226 721.329 576.557 721.084C574.364 720.762 573.681 720.222 574.096 719.14C574.545 717.97 574.175 717.8 572.406 718.364C571.16 718.761 567.441 719.467 564.141 719.932C560.841 720.398 557.466 720.957 556.641 721.174C555.816 721.392 554.016 721.856 552.641 722.206C550.404 722.775 525.82 728.007 502.521 732.873C493.05 734.851 490.994 735.716 488.401 738.808C486.129 741.517 482.37 741.445 479.282 738.633C477.286 736.816 476.697 735.094 476.223 729.69C475.354 719.806 472.59 713.51 472.685 721.633ZM619.454 719.566C620.175 719.855 621.038 719.819 621.37 719.487C621.702 719.155 621.112 718.919 620.058 718.962C618.893 719.01 618.656 719.247 619.454 719.566ZM573.37 722.487C573.038 722.819 572.175 722.855 571.454 722.566C570.656 722.247 570.893 722.01 572.058 721.962C573.112 721.919 573.702 722.155 573.37 722.487ZM610.454 722.566C611.175 722.855 612.038 722.819 612.37 722.487C612.702 722.155 612.112 721.919 611.058 721.962C609.893 722.01 609.656 722.247 610.454 722.566ZM470.141 737.883C470.481 738.433 470.984 738.883 471.259 738.883C471.534 738.883 471.481 738.433 471.141 737.883C470.801 737.333 470.298 736.883 470.023 736.883C469.748 736.883 469.801 737.333 470.141 737.883Z" fill="#2E2E2E"/>
</g>
<defs>
<clipPath id="clip0_3451_6438">
<rect width="782" height="800" fill="white"/>
</clipPath>
</defs>
</svg>
