<svg width="20" height="20" viewBox="0 0 20 20" fill="none" xmlns="http://www.w3.org/2000/svg">
<path fill-rule="evenodd" clip-rule="evenodd" d="M2.83073 9.69313C2.83073 13.8352 6.1886 17.1931 10.3307 17.1931C13.0714 17.1931 15.4712 15.7222 16.7797 13.5252C13.9403 14.441 10.5767 13.9625 8.31889 11.7048C6.04321 9.42905 5.6049 6.07034 6.55573 3.24432C4.33901 4.56627 2.83073 6.99131 2.83073 9.69313ZM17.6557 11.3211C18.3436 10.9186 19.379 11.3742 19.1665 12.1424C18.0952 16.0158 14.5451 18.8598 10.3307 18.8598C5.26812 18.8598 1.16406 14.7557 1.16406 9.69313C1.16406 5.49083 4.11265 1.88226 8.0126 0.833535C8.78262 0.626465 9.22029 1.6617 8.80329 2.34134C7.25009 4.87235 7.35982 8.38863 9.49737 10.5262C11.6098 12.6387 15.1136 12.8087 17.6557 11.3211Z" fill="#2E2E2E"/>
</svg>
