<svg width="20" height="20" viewBox="0 0 20 20" fill="none" xmlns="http://www.w3.org/2000/svg">
<g clip-path="url(#clip0_3452_8964)">
<mask id="mask0_3452_8964" style="mask-type:luminance" maskUnits="userSpaceOnUse" x="0" y="0" width="20" height="20">
<path d="M20 0H0V20H20V0Z" fill="white"/>
</mask>
<g mask="url(#mask0_3452_8964)">
<path d="M10.0013 0C10.4616 0 10.8346 0.373096 10.8346 0.833333V3.33333C10.8346 3.79357 10.4616 4.16667 10.0013 4.16667C9.54105 4.16667 9.16797 3.79357 9.16797 3.33333V0.833333C9.16797 0.373096 9.54105 0 10.0013 0Z" fill="#2E2E2E"/>
<path fill-rule="evenodd" clip-rule="evenodd" d="M5.83203 9.99967C5.83203 7.69849 7.69751 5.83301 9.9987 5.83301C12.2999 5.83301 14.1654 7.69849 14.1654 9.99967C14.1654 12.3008 12.2999 14.1663 9.9987 14.1663C7.69751 14.1663 5.83203 12.3008 5.83203 9.99967ZM9.9987 7.49967C8.61795 7.49967 7.4987 8.61892 7.4987 9.99967C7.4987 11.3804 8.61795 12.4997 9.9987 12.4997C11.3794 12.4997 12.4987 11.3804 12.4987 9.99967C12.4987 8.61892 11.3794 7.49967 9.9987 7.49967Z" fill="#2E2E2E"/>
<path d="M17.0693 4.10716C17.3947 3.78172 17.3947 3.25409 17.0693 2.92865C16.7439 2.60321 16.2162 2.60321 15.8908 2.92865L14.123 4.69642C13.7976 5.02185 13.7976 5.5495 14.123 5.87493C14.4485 6.20036 14.9761 6.20036 15.3016 5.87493L17.0693 4.10716Z" fill="#2E2E2E"/>
<path d="M19.9987 10.0003C19.9987 10.4606 19.6256 10.8337 19.1654 10.8337H16.6654C16.2051 10.8337 15.832 10.4606 15.832 10.0003C15.832 9.54008 16.2051 9.16699 16.6654 9.16699H19.1654C19.6256 9.16699 19.9987 9.54008 19.9987 10.0003Z" fill="#2E2E2E"/>
<path d="M15.8908 17.0712C16.2162 17.3967 16.7439 17.3967 17.0693 17.0712C17.3947 16.7458 17.3947 16.2182 17.0693 15.8927L15.3016 14.125C14.9761 13.7995 14.4485 13.7995 14.123 14.125C13.7976 14.4504 13.7976 14.9781 14.123 15.3035L15.8908 17.0712Z" fill="#2E2E2E"/>
<path d="M10.0013 19.9997C9.54105 19.9997 9.16797 19.6266 9.16797 19.1663V16.6663C9.16797 16.2061 9.54105 15.833 10.0013 15.833C10.4616 15.833 10.8346 16.2061 10.8346 16.6663V19.1663C10.8346 19.6266 10.4616 19.9997 10.0013 19.9997Z" fill="#2E2E2E"/>
<path d="M2.92767 15.8928C2.60223 16.2182 2.60223 16.7458 2.92767 17.0713C3.25311 17.3967 3.78075 17.3967 4.10618 17.0713L5.87395 15.3035C6.19938 14.978 6.19938 14.4504 5.87395 14.1249C5.54852 13.7995 5.02087 13.7995 4.69544 14.1249L2.92767 15.8928Z" fill="#2E2E2E"/>
<path d="M0 10.0003C0 9.54008 0.373096 9.16699 0.833333 9.16699H3.33333C3.79357 9.16699 4.16667 9.54008 4.16667 10.0003C4.16667 10.4606 3.79357 10.8337 3.33333 10.8337H0.833333C0.373096 10.8337 0 10.4606 0 10.0003Z" fill="#2E2E2E"/>
<path d="M4.10619 2.92865C3.78074 2.60321 3.25311 2.60321 2.92767 2.92865C2.60224 3.25408 2.60224 3.78172 2.92767 4.10716L4.69544 5.87493C5.02088 6.20036 5.54852 6.20036 5.87395 5.87493C6.19939 5.54948 6.19939 5.02185 5.87395 4.69641L4.10619 2.92865Z" fill="#2E2E2E"/>
</g>
</g>
<defs>
<clipPath id="clip0_3452_8964">
<rect width="20" height="20" fill="white"/>
</clipPath>
</defs>
</svg>
