<svg width="100" height="100" viewBox="0 0 100 100" fill="none" xmlns="http://www.w3.org/2000/svg">
<path d="M20.2703 7H4.05405C1.70541 7 0 8.70541 0 11.0541V89.4324C0 91.7811 1.70541 93.4865 4.05405 93.4865H20.2703H79.7297H95.9459C98.2946 93.4865 100 91.7811 100 89.4324V11.0541C100 8.70541 98.2946 7 95.9459 7H79.7297H20.2703ZM2.7027 89.4324V11.0541C2.7027 10.2081 3.20811 9.7027 4.05405 9.7027H18.9189V90.7838H4.05405C3.20811 90.7838 2.7027 90.2784 2.7027 89.4324ZM21.6216 90.7838V9.7027H78.3784V90.7838H21.6216ZM97.2973 11.0541V89.4324C97.2973 90.2784 96.7919 90.7838 95.9459 90.7838H81.0811V9.7027H95.9459C96.7919 9.7027 97.2973 10.2081 97.2973 11.0541Z" fill="#EDEDED"/>
<path d="M39.9359 34.2541C39.5224 33.9784 38.9873 33.9514 38.5467 34.1865C38.1116 34.4216 37.8359 34.8784 37.8359 35.3784V67.8108C37.8359 68.3108 38.1116 68.7676 38.5495 69.0027C38.7495 69.1081 38.9684 69.1622 39.1873 69.1622C39.4495 69.1622 39.7089 69.0865 39.9359 68.9352L64.2603 52.7189C64.6359 52.4676 64.863 52.046 64.863 51.5946C64.863 51.1433 64.6359 50.7216 64.2603 50.4703L39.9359 34.2541ZM40.5386 65.2865V37.9027L61.0765 51.5946L40.5386 65.2865Z" fill="#EDEDED"/>
<path d="M13.5146 28.6216H8.10916C7.36322 28.6216 6.75781 29.227 6.75781 29.973C6.75781 30.7189 7.36322 31.3243 8.10916 31.3243H13.5146C14.2605 31.3243 14.8659 30.7189 14.8659 29.973C14.8659 29.227 14.2605 28.6216 13.5146 28.6216Z" fill="#EDEDED"/>
<path d="M8.10916 20.5135H13.5146C14.2605 20.5135 14.8659 19.9081 14.8659 19.1621C14.8659 18.4162 14.2605 17.8108 13.5146 17.8108H8.10916C7.36322 17.8108 6.75781 18.4162 6.75781 19.1621C6.75781 19.9081 7.36322 20.5135 8.10916 20.5135Z" fill="#EDEDED"/>
<path d="M13.5146 39.4324H8.10916C7.36322 39.4324 6.75781 40.0378 6.75781 40.7838C6.75781 41.5297 7.36322 42.1351 8.10916 42.1351H13.5146C14.2605 42.1351 14.8659 41.5297 14.8659 40.7838C14.8659 40.0378 14.2605 39.4324 13.5146 39.4324Z" fill="#EDEDED"/>
<path d="M13.5146 50.2433H8.10916C7.36322 50.2433 6.75781 50.8487 6.75781 51.5946C6.75781 52.3406 7.36322 52.946 8.10916 52.946H13.5146C14.2605 52.946 14.8659 52.3406 14.8659 51.5946C14.8659 50.8487 14.2605 50.2433 13.5146 50.2433Z" fill="#EDEDED"/>
<path d="M13.5146 61.0541H8.10916C7.36322 61.0541 6.75781 61.6595 6.75781 62.4054C6.75781 63.1514 7.36322 63.7568 8.10916 63.7568H13.5146C14.2605 63.7568 14.8659 63.1514 14.8659 62.4054C14.8659 61.6595 14.2605 61.0541 13.5146 61.0541Z" fill="#EDEDED"/>
<path d="M13.5146 71.8649H8.10916C7.36322 71.8649 6.75781 72.4703 6.75781 73.2162C6.75781 73.9622 7.36322 74.5676 8.10916 74.5676H13.5146C14.2605 74.5676 14.8659 73.9622 14.8659 73.2162C14.8659 72.4703 14.2605 71.8649 13.5146 71.8649Z" fill="#EDEDED"/>
<path d="M13.5146 82.6757H8.10916C7.36322 82.6757 6.75781 83.2811 6.75781 84.027C6.75781 84.773 7.36322 85.3784 8.10916 85.3784H13.5146C14.2605 85.3784 14.8659 84.773 14.8659 84.027C14.8659 83.2811 14.2605 82.6757 13.5146 82.6757Z" fill="#EDEDED"/>
<path d="M86.4881 31.3243H91.8935C92.6394 31.3243 93.2448 30.7189 93.2448 29.973C93.2448 29.227 92.6394 28.6216 91.8935 28.6216H86.4881C85.7421 28.6216 85.1367 29.227 85.1367 29.973C85.1367 30.7189 85.7421 31.3243 86.4881 31.3243Z" fill="#EDEDED"/>
<path d="M86.4881 20.5135H91.8935C92.6394 20.5135 93.2448 19.9081 93.2448 19.1621C93.2448 18.4162 92.6394 17.8108 91.8935 17.8108H86.4881C85.7421 17.8108 85.1367 18.4162 85.1367 19.1621C85.1367 19.9081 85.7421 20.5135 86.4881 20.5135Z" fill="#EDEDED"/>
<path d="M86.4881 42.1351H91.8935C92.6394 42.1351 93.2448 41.5297 93.2448 40.7838C93.2448 40.0378 92.6394 39.4324 91.8935 39.4324H86.4881C85.7421 39.4324 85.1367 40.0378 85.1367 40.7838C85.1367 41.5297 85.7421 42.1351 86.4881 42.1351Z" fill="#EDEDED"/>
<path d="M86.4881 52.946H91.8935C92.6394 52.946 93.2448 52.3406 93.2448 51.5946C93.2448 50.8487 92.6394 50.2433 91.8935 50.2433H86.4881C85.7421 50.2433 85.1367 50.8487 85.1367 51.5946C85.1367 52.3406 85.7421 52.946 86.4881 52.946Z" fill="#EDEDED"/>
<path d="M86.4881 63.7568H91.8935C92.6394 63.7568 93.2448 63.1514 93.2448 62.4054C93.2448 61.6595 92.6394 61.0541 91.8935 61.0541H86.4881C85.7421 61.0541 85.1367 61.6595 85.1367 62.4054C85.1367 63.1514 85.7421 63.7568 86.4881 63.7568Z" fill="#EDEDED"/>
<path d="M86.4881 74.5676H91.8935C92.6394 74.5676 93.2448 73.9622 93.2448 73.2162C93.2448 72.4703 92.6394 71.8649 91.8935 71.8649H86.4881C85.7421 71.8649 85.1367 72.4703 85.1367 73.2162C85.1367 73.9622 85.7421 74.5676 86.4881 74.5676Z" fill="#EDEDED"/>
<path d="M91.8935 82.6757H86.4881C85.7421 82.6757 85.1367 83.2811 85.1367 84.027C85.1367 84.773 85.7421 85.3784 86.4881 85.3784H91.8935C92.6394 85.3784 93.2448 84.773 93.2448 84.027C93.2448 83.2811 92.6394 82.6757 91.8935 82.6757Z" fill="#EDEDED"/>
</svg>
