<svg width="100" height="100" viewBox="0 0 100 100" fill="none" xmlns="http://www.w3.org/2000/svg">
<path d="M88.5829 11.8145H11.4171C8.52172 11.8145 5.74491 12.9635 3.69755 15.0087C1.65019 17.0539 0.5 19.8277 0.5 22.72V76.909C0.5 79.8013 1.65019 82.5752 3.69755 84.6204C5.74491 86.6655 8.52172 87.8145 11.4171 87.8145H88.5829C91.4783 87.8145 94.2551 86.6655 96.3025 84.6204C98.3498 82.5752 99.5 79.8013 99.5 76.909V22.72C99.5 19.8277 98.3498 17.0539 96.3025 15.0087C94.2551 12.9635 91.4783 11.8145 88.5829 11.8145ZM11.4171 15.9464H88.5829C90.3813 15.9464 92.106 16.6601 93.3776 17.9304C94.6493 19.2007 95.3637 20.9236 95.3637 22.72V27.597H4.6363V22.72C4.6363 20.9236 5.35071 19.2007 6.62236 17.9304C7.89401 16.6601 9.61874 15.9464 11.4171 15.9464ZM88.5829 83.6826H11.4171C9.61874 83.6826 7.89401 82.969 6.62236 81.6987C5.35071 80.4284 4.6363 78.7055 4.6363 76.909V31.729H95.3637V76.909C95.3637 77.7985 95.1883 78.6793 94.8475 79.5011C94.5068 80.323 94.0073 81.0697 93.3776 81.6987C92.748 82.3276 92.0005 82.8266 91.1778 83.167C90.3551 83.5074 89.4734 83.6826 88.5829 83.6826Z" fill="#EDEDED"/>
<path d="M10.5506 23.7138C10.8937 23.7441 11.2379 23.6694 11.5376 23.4997C11.8374 23.33 12.0785 23.0732 12.229 22.7634C12.3796 22.4536 12.4325 22.1053 12.3807 21.7648C12.3289 21.4243 12.1749 21.1075 11.939 20.8564C11.7032 20.6054 11.3967 20.4319 11.06 20.3589C10.7234 20.286 10.3725 20.317 10.0539 20.4479C9.73531 20.5788 9.46398 20.8034 9.27588 21.092C9.08777 21.3806 8.99176 21.7195 9.00055 22.0638C9.01122 22.4812 9.1751 22.88 9.46096 23.1843C9.74682 23.4886 10.1347 23.6771 10.5506 23.7138Z" fill="#EDEDED"/>
<path d="M14.8031 23.7138C15.1433 23.7237 15.4788 23.6311 15.7659 23.4482C16.053 23.2653 16.2785 23.0004 16.4133 22.6878C16.5482 22.3752 16.586 22.0293 16.522 21.695C16.458 21.3606 16.2951 21.0532 16.0544 20.8124C15.8137 20.5717 15.5063 20.4088 15.1719 20.3448C14.8375 20.2808 14.4917 20.3187 14.1791 20.4535C13.8665 20.5883 13.6016 20.8139 13.4186 21.101C13.2357 21.3881 13.1432 21.7235 13.1531 22.0638C13.1656 22.4974 13.3435 22.9098 13.6503 23.2166C13.957 23.5233 14.3694 23.7012 14.8031 23.7138Z" fill="#EDEDED"/>
<path d="M19.0023 23.7138C19.3426 23.7237 19.678 23.6311 19.9651 23.4482C20.2522 23.2653 20.4777 23.0004 20.6126 22.6878C20.7474 22.3752 20.7853 22.0293 20.7213 21.695C20.6573 21.3606 20.4944 21.0532 20.2536 20.8124C20.0129 20.5717 19.7055 20.4088 19.3711 20.3448C19.0368 20.2808 18.6909 20.3187 18.3783 20.4535C18.0657 20.5883 17.8008 20.8139 17.6179 21.101C17.4349 21.3881 17.3424 21.7235 17.3523 22.0638C17.3649 22.4974 17.5427 22.9098 17.8495 23.2166C18.1562 23.5233 18.5686 23.7012 19.0023 23.7138Z" fill="#EDEDED"/>
<path d="M55.0021 51.6646L53.0521 56.0646L51.0521 51.6646C51.0521 51.6646 51.0521 51.6646 50.7021 51.3146C50.3521 50.9646 50.7021 51.0146 50.3021 50.9146C50.3021 50.9146 49.9521 50.9146 49.7521 50.9146C49.5587 50.8417 49.3454 50.8417 49.1521 50.9146C49.1521 50.9146 48.8521 51.2146 48.7521 51.3146C48.6521 51.4146 48.4521 51.3146 48.3521 51.6646L46.4021 56.0646L44.4521 51.6646C44.3815 51.4494 44.266 51.2515 44.1133 51.0843C43.9605 50.917 43.774 50.784 43.566 50.6942C43.358 50.6044 43.1334 50.5598 42.9068 50.5633C42.6803 50.5668 42.4572 50.6184 42.2521 50.7146C42.0706 50.7956 41.907 50.9118 41.7708 51.0566C41.6346 51.2013 41.5286 51.3717 41.4588 51.5578C41.389 51.7439 41.3569 51.9419 41.3643 52.1405C41.3718 52.3391 41.4186 52.5343 41.5021 52.7146L45.0021 60.7146C45.1695 61.0057 45.411 61.2472 45.7021 61.4146H46.3021H46.9021C47.2115 61.2545 47.471 61.0123 47.6521 60.7146L49.6021 56.2646L51.6021 60.7146C51.7695 61.0057 52.011 61.2472 52.3021 61.4146C52.5157 61.4656 52.7384 61.4656 52.9521 61.4146H53.5521C53.8432 61.2472 54.0847 61.0057 54.2521 60.7146L57.6521 53.1646C57.804 52.7926 57.8055 52.3761 57.6563 52.003C57.507 51.6298 57.2187 51.3293 56.8521 51.1646C56.5338 51.0191 56.1747 50.9894 55.8368 51.0807C55.499 51.172 55.2037 51.3786 55.0021 51.6646Z" fill="#EDEDED"/>
<path d="M72.0978 51.6645L70.1478 56.0645L68.1478 51.6645C68.1478 51.6645 67.8978 51.6645 67.7978 51.3145C67.6978 50.9645 67.7978 51.0145 67.3978 50.9145C67.2045 50.8416 66.9912 50.8416 66.7978 50.9145C66.7978 50.9145 66.4478 50.9145 66.2478 50.9145C66.2478 50.9145 65.9978 51.1645 65.8478 51.3145C65.6978 51.4645 65.5478 51.3145 65.4978 51.6645L63.4978 56.0645L61.5478 51.6645C61.4669 51.483 61.3506 51.3194 61.2059 51.1833C61.0611 51.0471 60.8908 50.941 60.7047 50.8712C60.5186 50.8015 60.3205 50.7693 60.1219 50.7768C59.9233 50.7842 59.7282 50.831 59.5478 50.9145C59.362 50.9908 59.1933 51.1036 59.0519 51.2463C58.9104 51.389 58.7991 51.5586 58.7245 51.7452C58.6499 51.9317 58.6135 52.1314 58.6175 52.3322C58.6215 52.5331 58.6658 52.7311 58.7478 52.9145L62.0478 60.7145C62.2152 61.0056 62.4567 61.2471 62.7478 61.4145H63.3478C63.5615 61.4655 63.7842 61.4655 63.9978 61.4145C64.3991 61.2975 64.7506 61.0515 64.9978 60.7145L66.9978 56.2645L68.9478 60.7145C69.1152 61.0056 69.3567 61.2471 69.6478 61.4145C69.8621 61.4605 70.0836 61.4605 70.2978 61.4145H70.8978C71.2031 61.2485 71.4612 61.0077 71.6478 60.7145L74.9978 52.9145C75.0798 52.7311 75.1242 52.5331 75.1282 52.3322C75.1322 52.1314 75.0958 51.9317 75.0212 51.7452C74.9466 51.5586 74.8352 51.389 74.6938 51.2463C74.5524 51.1036 74.3837 50.9908 74.1978 50.9145C74.0128 50.8146 73.8088 50.7548 73.5992 50.7388C73.3895 50.7229 73.1788 50.7512 72.9808 50.8219C72.7828 50.8926 72.6019 51.0042 72.4497 51.1493C72.2976 51.2945 72.1777 51.47 72.0978 51.6645Z" fill="#EDEDED"/>
<path d="M37.801 51.6646L35.851 56.0646L33.901 51.6646C33.7902 51.5377 33.6539 51.4354 33.501 51.3646C33.4455 51.1088 33.3044 50.8795 33.101 50.7146C32.9076 50.6417 32.6943 50.6417 32.501 50.7146C32.501 50.7146 32.151 50.7146 31.951 50.7146L31.551 51.1146C31.551 51.1146 31.251 51.1146 31.201 51.4646L29.201 55.8646L27.251 51.4646C27.1752 51.2486 27.051 51.0528 26.8879 50.8922C26.7248 50.7316 26.527 50.6104 26.3099 50.538C26.0927 50.4656 25.8618 50.4439 25.6349 50.4745C25.4081 50.5051 25.1912 50.5873 25.001 50.7146C24.6344 50.8793 24.346 51.1798 24.1968 51.553C24.0475 51.9261 24.049 52.3426 24.201 52.7146L27.751 60.7146C27.9184 61.0057 28.1599 61.2473 28.451 61.4146H29.051C29.2647 61.4656 29.4873 61.4656 29.701 61.4146H30.001C30.219 61.2226 30.39 60.9831 30.501 60.7146L32.501 56.2646L34.451 60.7146C34.6184 61.0057 34.8599 61.2473 35.151 61.4146H35.751H36.351C36.7156 61.2789 37.0297 61.0346 37.251 60.7146L40.601 53.1646C40.7736 52.9825 40.8978 52.7599 40.9622 52.5173C41.0265 52.2747 41.0289 52.0198 40.9692 51.776C40.9095 51.5322 40.7896 51.3073 40.6204 51.1219C40.4513 50.9364 40.2383 50.7964 40.001 50.7146C39.7959 50.6184 39.5727 50.5668 39.3462 50.5633C39.1197 50.5598 38.895 50.6044 38.6871 50.6942C38.4791 50.784 38.2925 50.917 38.1398 51.0843C37.987 51.2516 37.8716 51.4494 37.801 51.6646Z" fill="#EDEDED"/>
</svg>
