<svg width="17" height="18" viewBox="0 0 17 18" fill="none" xmlns="http://www.w3.org/2000/svg">
<path d="M16.2 11.3139C16.2 13.0185 13.9842 14.4 11.25 14.4C8.5158 14.4 6.3 13.0185 6.3 11.3139C6.3 9.6093 8.5158 8.2287 11.25 8.2287C13.9842 8.2287 16.2 9.6102 16.2 11.3139ZM11.25 16.0713C8.5158 16.0713 6.3 14.6898 6.3 12.9861V14.9139C6.3 16.6185 8.5158 18 11.25 18C13.9842 18 16.2 16.6185 16.2 14.9139V12.9861C16.2 14.6898 13.9842 16.0713 11.25 16.0713ZM4.95 6.1713C7.6842 6.1713 9.9 4.7898 9.9 3.0861C9.9 1.3824 7.6842 0 4.95 0C2.2158 0 0 1.3815 0 3.0861C0 4.7907 2.2158 6.1713 4.95 6.1713ZM4.8375 9.7713C5.26515 8.87651 5.94815 8.12836 6.8004 7.6212C6.19518 7.77188 5.5737 7.84745 4.95 7.8462C2.2158 7.8426 0 6.4611 0 4.7574V6.6852C0 8.37 2.16 9.7299 4.8375 9.7677V9.7713ZM4.95 18C5.27463 17.9998 5.59894 17.9796 5.9211 17.9397C5.35561 17.4306 4.93094 16.7843 4.6881 16.0632C2.0763 15.9777 0 14.6349 0 12.9861V14.9139C0 16.6185 2.2158 18 4.95 18ZM4.5 14.0004V12.06C1.98 11.916 0 10.6083 0 9V10.9287C0 12.5379 1.98 13.86 4.5 14.0004Z" fill="#F3F3F3"/>
</svg>
