<svg width="20" height="221" viewBox="0 0 20 221" fill="none" xmlns="http://www.w3.org/2000/svg">
<mask id="path-1-outside-1_3114_1091" maskUnits="userSpaceOnUse" x="-1" y="-2" width="22" height="224" fill="black">
<rect fill="white" x="-1" y="-2" width="22" height="224"/>
<path d="M11.2158 21H8.75488V-0.00585938H11.2158V21ZM18.6719 61H15.2441L7.12891 51.3906C6.82617 51.0293 6.64062 50.7852 6.57227 50.6582H6.51367V61H4.05273V39.9941H6.51367V49.8672H6.57227C6.70898 49.6523 6.89453 49.4131 7.12891 49.1494L14.9805 39.9941H18.042L9.0332 50.0723L18.6719 61ZM11.2158 101H8.75488V79.9941H11.2158V101ZM18.1592 139.564C16.0498 140.756 13.7061 141.352 11.1279 141.352C8.12988 141.352 5.70312 140.385 3.84766 138.451C2.00195 136.518 1.0791 133.959 1.0791 130.775C1.0791 127.523 2.10449 124.857 4.15527 122.777C6.21582 120.688 8.82324 119.643 11.9775 119.643C14.2627 119.643 16.1816 120.014 17.7344 120.756V123.48C16.0352 122.406 14.0234 121.869 11.6992 121.869C9.3457 121.869 7.41699 122.68 5.91309 124.301C4.40918 125.922 3.65723 128.021 3.65723 130.6C3.65723 133.256 4.35547 135.346 5.75195 136.869C7.14844 138.383 9.04297 139.14 11.4355 139.14C13.0762 139.14 14.4971 138.812 15.6982 138.158V132.27H11.0986V130.043H18.1592V139.564ZM19.3311 181H16.6064L14.3799 175.111H5.47363L3.37891 181H0.639648L8.69629 159.994H11.2451L19.3311 181ZM13.5742 172.899L10.2783 163.949C10.1709 163.656 10.0635 163.188 9.95605 162.543H9.89746C9.7998 163.139 9.6875 163.607 9.56055 163.949L6.29395 172.899H13.5742ZM8.96582 221H6.50488V199.994H8.96582V221Z"/>
</mask>
<path d="M11.2158 21H8.75488V-0.00585938H11.2158V21ZM18.6719 61H15.2441L7.12891 51.3906C6.82617 51.0293 6.64062 50.7852 6.57227 50.6582H6.51367V61H4.05273V39.9941H6.51367V49.8672H6.57227C6.70898 49.6523 6.89453 49.4131 7.12891 49.1494L14.9805 39.9941H18.042L9.0332 50.0723L18.6719 61ZM11.2158 101H8.75488V79.9941H11.2158V101ZM18.1592 139.564C16.0498 140.756 13.7061 141.352 11.1279 141.352C8.12988 141.352 5.70312 140.385 3.84766 138.451C2.00195 136.518 1.0791 133.959 1.0791 130.775C1.0791 127.523 2.10449 124.857 4.15527 122.777C6.21582 120.688 8.82324 119.643 11.9775 119.643C14.2627 119.643 16.1816 120.014 17.7344 120.756V123.48C16.0352 122.406 14.0234 121.869 11.6992 121.869C9.3457 121.869 7.41699 122.68 5.91309 124.301C4.40918 125.922 3.65723 128.021 3.65723 130.6C3.65723 133.256 4.35547 135.346 5.75195 136.869C7.14844 138.383 9.04297 139.14 11.4355 139.14C13.0762 139.14 14.4971 138.812 15.6982 138.158V132.27H11.0986V130.043H18.1592V139.564ZM19.3311 181H16.6064L14.3799 175.111H5.47363L3.37891 181H0.639648L8.69629 159.994H11.2451L19.3311 181ZM13.5742 172.899L10.2783 163.949C10.1709 163.656 10.0635 163.188 9.95605 162.543H9.89746C9.7998 163.139 9.6875 163.607 9.56055 163.949L6.29395 172.899H13.5742ZM8.96582 221H6.50488V199.994H8.96582V221Z" fill="#0088CC"/>
<path d="M11.2158 21V22H12.2158V21H11.2158ZM8.75488 21H7.75488V22H8.75488V21ZM8.75488 -0.00585938V-1.00586H7.75488V-0.00585938H8.75488ZM11.2158 -0.00585938H12.2158V-1.00586H11.2158V-0.00585938ZM11.2158 20H8.75488V22H11.2158V20ZM9.75488 21V-0.00585938H7.75488V21H9.75488ZM8.75488 0.994141H11.2158V-1.00586H8.75488V0.994141ZM10.2158 -0.00585938V21H12.2158V-0.00585938H10.2158ZM18.6719 61V62H20.8873L19.4218 60.3385L18.6719 61ZM15.2441 61L14.4801 61.6452L14.7798 62H15.2441V61ZM7.12891 51.3906L6.36238 52.0328L6.3649 52.0358L7.12891 51.3906ZM6.57227 50.6582L7.45274 50.1841L7.16956 49.6582H6.57227V50.6582ZM6.51367 50.6582V49.6582H5.51367V50.6582H6.51367ZM6.51367 61V62H7.51367V61H6.51367ZM4.05273 61H3.05273V62H4.05273V61ZM4.05273 39.9941V38.9941H3.05273V39.9941H4.05273ZM6.51367 39.9941H7.51367V38.9941H6.51367V39.9941ZM6.51367 49.8672H5.51367V50.8672H6.51367V49.8672ZM6.57227 49.8672V50.8672H7.12121L7.41593 50.4041L6.57227 49.8672ZM7.12891 49.1494L7.87632 49.8138L7.88221 49.8071L7.88799 49.8004L7.12891 49.1494ZM14.9805 39.9941V38.9941H14.5207L14.2214 39.3432L14.9805 39.9941ZM18.042 39.9941L18.7875 40.6606L20.2772 38.9941H18.042V39.9941ZM9.0332 50.0723L8.28765 49.4058L7.69588 50.0678L8.28325 50.7338L9.0332 50.0723ZM18.6719 60H15.2441V62H18.6719V60ZM16.0081 60.3548L7.89291 50.7454L6.3649 52.0358L14.4801 61.6452L16.0081 60.3548ZM7.89543 50.7484C7.74947 50.5742 7.63842 50.4361 7.55886 50.3314C7.47068 50.2154 7.44763 50.1746 7.45274 50.1841L5.69179 51.1323C5.81762 51.366 6.07508 51.6899 6.36239 52.0328L7.89543 50.7484ZM6.57227 49.6582H6.51367V51.6582H6.57227V49.6582ZM5.51367 50.6582V61H7.51367V50.6582H5.51367ZM6.51367 60H4.05273V62H6.51367V60ZM5.05273 61V39.9941H3.05273V61H5.05273ZM4.05273 40.9941H6.51367V38.9941H4.05273V40.9941ZM5.51367 39.9941V49.8672H7.51367V39.9941H5.51367ZM6.51367 50.8672H6.57227V48.8672H6.51367V50.8672ZM7.41593 50.4041C7.51547 50.2476 7.66494 50.0516 7.87632 49.8138L6.3815 48.4851C6.12412 48.7746 5.9025 49.057 5.7286 49.3303L7.41593 50.4041ZM7.88799 49.8004L15.7396 40.6451L14.2214 39.3432L6.36982 48.4984L7.88799 49.8004ZM14.9805 40.9941H18.042V38.9941H14.9805V40.9941ZM17.2964 39.3277L8.28765 49.4058L9.77876 50.7387L18.7875 40.6606L17.2964 39.3277ZM8.28325 50.7338L17.9219 61.6615L19.4218 60.3385L9.78316 49.4108L8.28325 50.7338ZM11.2158 101V102H12.2158V101H11.2158ZM8.75488 101H7.75488V102H8.75488V101ZM8.75488 79.9941V78.9941H7.75488V79.9941H8.75488ZM11.2158 79.9941H12.2158V78.9941H11.2158V79.9941ZM11.2158 100H8.75488V102H11.2158V100ZM9.75488 101V79.9941H7.75488V101H9.75488ZM8.75488 80.9941H11.2158V78.9941H8.75488V80.9941ZM10.2158 79.9941V101H12.2158V79.9941H10.2158ZM18.1592 139.564L18.651 140.435L19.1592 140.148V139.564H18.1592ZM3.84766 138.451L3.1243 139.142L3.12612 139.144L3.84766 138.451ZM4.15527 122.777L3.44319 122.075L3.44317 122.075L4.15527 122.777ZM17.7344 120.756H18.7344V120.125L18.1656 119.854L17.7344 120.756ZM17.7344 123.48L17.2 124.326L18.7344 125.296V123.48H17.7344ZM5.91309 124.301L5.17998 123.621L5.91309 124.301ZM5.75195 136.869L5.0148 137.545L5.01697 137.547L5.75195 136.869ZM15.6982 138.158L16.1766 139.036L16.6982 138.752V138.158H15.6982ZM15.6982 132.27H16.6982V131.27H15.6982V132.27ZM11.0986 132.27H10.0986V133.27H11.0986V132.27ZM11.0986 130.043V129.043H10.0986V130.043H11.0986ZM18.1592 130.043H19.1592V129.043H18.1592V130.043ZM17.6674 138.694C15.7177 139.795 13.5452 140.352 11.1279 140.352V142.352C13.8669 142.352 16.3819 141.717 18.651 140.435L17.6674 138.694ZM11.1279 140.352C8.36666 140.352 6.21278 139.472 4.56919 137.759L3.12612 139.144C5.19347 141.298 7.89311 142.352 11.1279 142.352V140.352ZM4.57101 137.761C2.93598 136.048 2.0791 133.754 2.0791 130.775H0.0791016C0.0791016 134.164 1.06792 136.987 3.1243 139.142L4.57101 137.761ZM2.0791 130.775C2.0791 127.754 3.02271 125.35 4.86738 123.479L3.44317 122.075C1.18627 124.364 0.0791016 127.293 0.0791016 130.775H2.0791ZM4.86735 123.479C6.72495 121.595 9.06872 120.643 11.9775 120.643V118.643C8.57776 118.643 5.70669 119.78 3.44319 122.075L4.86735 123.479ZM11.9775 120.643C14.1601 120.643 15.9216 120.998 17.3031 121.658L18.1656 119.854C16.4417 119.03 14.3652 118.643 11.9775 118.643V120.643ZM16.7344 120.756V123.48H18.7344V120.756H16.7344ZM18.2687 122.635C16.3859 121.445 14.1824 120.869 11.6992 120.869V122.869C13.8644 122.869 15.6844 123.368 17.2 124.326L18.2687 122.635ZM11.6992 120.869C9.08756 120.869 6.88635 121.781 5.17998 123.621L6.64619 124.981C7.94763 123.578 9.60384 122.869 11.6992 122.869V120.869ZM5.17998 123.621C3.47636 125.457 2.65723 127.814 2.65723 130.6H4.65723C4.65723 128.229 5.342 126.387 6.64619 124.981L5.17998 123.621ZM2.65723 130.6C2.65723 133.432 3.40529 135.789 5.0148 137.545L6.48911 136.193C5.30565 134.902 4.65723 133.079 4.65723 130.6H2.65723ZM5.01697 137.547C6.63389 139.3 8.81324 140.14 11.4355 140.14V138.14C9.2727 138.14 7.66299 137.466 6.48694 136.191L5.01697 137.547ZM11.4355 140.14C13.2101 140.14 14.802 139.785 16.1766 139.036L15.2199 137.28C14.1921 137.84 12.9423 138.14 11.4355 138.14V140.14ZM16.6982 138.158V132.27H14.6982V138.158H16.6982ZM15.6982 131.27H11.0986V133.27H15.6982V131.27ZM12.0986 132.27V130.043H10.0986V132.27H12.0986ZM11.0986 131.043H18.1592V129.043H11.0986V131.043ZM17.1592 130.043V139.564H19.1592V130.043H17.1592ZM19.3311 181V182H20.7875L20.2643 180.641L19.3311 181ZM16.6064 181L15.6711 181.354L15.9155 182H16.6064V181ZM14.3799 175.111L15.3153 174.758L15.0709 174.111H14.3799V175.111ZM5.47363 175.111V174.111H4.76797L4.53147 174.776L5.47363 175.111ZM3.37891 181V182H4.08457L4.32107 181.335L3.37891 181ZM0.639648 181L-0.294032 180.642L-0.814924 182H0.639648V181ZM8.69629 159.994V158.994H8.0088L7.76261 159.636L8.69629 159.994ZM11.2451 159.994L12.1784 159.635L11.9317 158.994H11.2451V159.994ZM13.5742 172.899V173.899H15.0081L14.5126 172.554L13.5742 172.899ZM10.2783 163.949L9.33944 164.293L9.33992 164.295L10.2783 163.949ZM9.95605 162.543L10.9424 162.379L10.8032 161.543H9.95605V162.543ZM9.89746 162.543V161.543H9.04805L8.91063 162.381L9.89746 162.543ZM9.56055 163.949L8.62311 163.601L8.62116 163.606L9.56055 163.949ZM6.29395 172.899L5.35456 172.557L4.86445 173.899H6.29395V172.899ZM19.3311 180H16.6064V182H19.3311V180ZM17.5418 180.646L15.3153 174.758L13.4445 175.465L15.6711 181.354L17.5418 180.646ZM14.3799 174.111H5.47363V176.111H14.3799V174.111ZM4.53147 174.776L2.43674 180.665L4.32107 181.335L6.4158 175.446L4.53147 174.776ZM3.37891 180H0.639648V182H3.37891V180ZM1.57333 181.358L9.62997 160.352L7.76261 159.636L-0.294032 180.642L1.57333 181.358ZM8.69629 160.994H11.2451V158.994H8.69629V160.994ZM10.3119 160.353L18.3978 181.359L20.2643 180.641L12.1784 159.635L10.3119 160.353ZM14.5126 172.554L11.2167 163.604L9.33992 164.295L12.6358 173.245L14.5126 172.554ZM11.2172 163.605C11.1437 163.405 11.0482 163.013 10.9424 162.379L8.96966 162.707C9.07875 163.362 9.1981 163.908 9.33944 164.293L11.2172 163.605ZM9.95605 161.543H9.89746V163.543H9.95605V161.543ZM8.91063 162.381C8.81758 162.949 8.71786 163.346 8.62312 163.601L10.498 164.297C10.6571 163.869 10.782 163.329 10.8843 162.705L8.91063 162.381ZM8.62116 163.606L5.35456 172.557L7.23333 173.242L10.4999 164.292L8.62116 163.606ZM6.29395 173.899H13.5742V171.899H6.29395V173.899ZM8.96582 221V222H9.96582V221H8.96582ZM6.50488 221H5.50488V222H6.50488V221ZM6.50488 199.994V198.994H5.50488V199.994H6.50488ZM8.96582 199.994H9.96582V198.994H8.96582V199.994ZM8.96582 220H6.50488V222H8.96582V220ZM7.50488 221V199.994H5.50488V221H7.50488ZM6.50488 200.994H8.96582V198.994H6.50488V200.994ZM7.96582 199.994V221H9.96582V199.994H7.96582Z" fill="#0088CC" mask="url(#path-1-outside-1_3114_1091)"/>
</svg>
