<svg width="30" height="30" viewBox="0 0 30 30" fill="none" xmlns="http://www.w3.org/2000/svg">
<g clip-path="url(#clip0_3188_5359)">
<path d="M19.7975 11.9794L19.415 13.8794C19.29 14.505 18.6887 14.995 18.0462 14.995H16.7512V23.75C16.7512 24.44 16.2256 25 15.5319 25H13.645C12.9512 25 12.3869 24.4387 12.3869 23.7494V14.995H11.7581C11.0644 14.995 10.5 14.4344 10.5 13.7444V11.8687C10.5 11.1794 11.0644 10.6181 11.7581 10.6181H12.3869V8.75186C12.3869 6.69749 14.0594 5.02561 16.1225 5.00811C16.1356 5.00749 16.1469 5.00061 16.1606 5.00061H18.6769C19.0237 5.00061 19.2512 5.27999 19.2512 5.62499V8.74999C19.2512 9.09561 19.0237 9.37749 18.6769 9.37749H16.7894L16.7887 10.6181H18.6756C19.0294 10.6181 19.3556 10.7675 19.5694 11.0275C19.7837 11.2869 19.8669 11.6344 19.7975 11.9794ZM16.1837 11.8687C16.175 11.8694 16.1681 11.8737 16.1594 11.8737C15.8119 11.8731 15.53 11.5931 15.5306 11.2481V11.2437L15.5319 8.75186C15.5319 8.40624 15.8131 8.12686 16.1606 8.12686H18.0475V6.25124H16.185C16.1744 6.25124 16.1656 6.25686 16.1544 6.25686C14.7706 6.25686 13.645 7.37624 13.645 8.75186V11.2531C13.645 11.5987 13.3631 11.8787 13.0156 11.8787C12.9987 11.8787 12.9844 11.87 12.9675 11.8687H11.7581V13.7444H13.0156C13.3631 13.7444 13.645 14.0244 13.645 14.37C13.645 14.4025 13.6312 14.43 13.6262 14.4612V23.75L15.5319 23.7494V14.3762C15.5319 14.3737 15.5306 14.3719 15.5306 14.37C15.5306 14.0244 15.8119 13.7444 16.1594 13.7444H18.0462C18.0919 13.7444 18.1731 13.6787 18.1812 13.635L18.5369 11.8687H16.1837Z" fill="white"/>
</g>
<defs>
<clipPath id="clip0_3188_5359">
<rect width="9.31625" height="20" fill="white" transform="translate(10.5 5)"/>
</clipPath>
</defs>
</svg>
