<svg width="40" height="38" viewBox="0 0 40 38" fill="none" xmlns="http://www.w3.org/2000/svg">
<rect x="11.6798" y="8.29828" width="9.73553" height="9.73553" transform="rotate(-45 11.6798 8.29828)" stroke="#0088CC" stroke-width="2"/>
<rect x="21.3827" y="8.28827" width="3.9876" height="3.9876" transform="rotate(135 21.3827 8.28827)" stroke="#0088CC"/>
<rect x="1.41421" y="18.5669" width="9.73553" height="9.73553" transform="rotate(-45 1.41421 18.5669)" stroke="#0088CC" stroke-width="2"/>
<rect x="11.1171" y="18.5569" width="3.9876" height="3.9876" transform="rotate(135 11.1171 18.5569)" stroke="#0088CC"/>
<rect x="11.6798" y="28.8354" width="9.73553" height="9.73553" transform="rotate(-45 11.6798 28.8354)" stroke="#0088CC" stroke-width="2"/>
<rect x="21.3827" y="28.8254" width="3.9876" height="3.9876" transform="rotate(135 21.3827 28.8254)" stroke="#0088CC"/>
<mask id="path-7-inside-1_3114_1074" fill="white">
<path d="M38.6604 17.2276C38.0513 17.2276 37.5373 17.6376 37.3767 18.1957H32.0323L30.5449 16.7085H34.1316C34.2922 17.2666 34.8064 17.6766 35.4153 17.6766C36.1524 17.6766 36.7519 17.0769 36.7519 16.3399C36.7519 15.6028 36.1524 15.0032 35.4153 15.0032C34.8063 15.0032 34.292 15.4131 34.1316 15.9713H29.8077L28.8273 14.9909L25.2539 18.5643L28.8273 22.1377L29.8077 21.1572H34.1315C34.2921 21.7153 34.8063 22.1253 35.4152 22.1253C36.1522 22.1253 36.7517 21.5256 36.7517 20.7886C36.7517 20.0516 36.1522 19.452 35.4152 19.452C34.8061 19.452 34.2919 19.8619 34.1315 20.42H30.5449L32.0321 18.9327H37.3765C37.5371 19.4909 38.0512 19.9007 38.6602 19.9007C39.3973 19.9007 39.997 19.3012 39.997 18.5641C39.9971 17.8271 39.3974 17.2276 38.6604 17.2276ZM35.4155 15.7402C35.746 15.7402 36.0149 16.0091 36.0149 16.3397C36.0149 16.6703 35.746 16.9392 35.4155 16.9392C35.0849 16.9392 34.816 16.6703 34.816 16.3397C34.816 16.0091 35.0849 15.7402 35.4155 15.7402ZM35.4155 20.1892C35.746 20.1892 36.0149 20.458 36.0149 20.7886C36.0149 21.1191 35.746 21.3881 35.4155 21.3881C35.0849 21.3881 34.816 21.1191 34.816 20.7886C34.816 20.458 35.0849 20.1892 35.4155 20.1892ZM28.8275 21.0953L26.2965 18.5643L28.8275 16.0333L31.3584 18.5643L28.8275 21.0953ZM38.6604 19.1637C38.3299 19.1637 38.061 18.8949 38.061 18.5643C38.061 18.2338 38.3299 17.9648 38.6604 17.9648C38.991 17.9648 39.2599 18.2338 39.2599 18.5643C39.2599 18.8947 38.991 19.1637 38.6604 19.1637Z"/>
</mask>
<path d="M38.6604 17.2276C38.0513 17.2276 37.5373 17.6376 37.3767 18.1957H32.0323L30.5449 16.7085H34.1316C34.2922 17.2666 34.8064 17.6766 35.4153 17.6766C36.1524 17.6766 36.7519 17.0769 36.7519 16.3399C36.7519 15.6028 36.1524 15.0032 35.4153 15.0032C34.8063 15.0032 34.292 15.4131 34.1316 15.9713H29.8077L28.8273 14.9909L25.2539 18.5643L28.8273 22.1377L29.8077 21.1572H34.1315C34.2921 21.7153 34.8063 22.1253 35.4152 22.1253C36.1522 22.1253 36.7517 21.5256 36.7517 20.7886C36.7517 20.0516 36.1522 19.452 35.4152 19.452C34.8061 19.452 34.2919 19.8619 34.1315 20.42H30.5449L32.0321 18.9327H37.3765C37.5371 19.4909 38.0512 19.9007 38.6602 19.9007C39.3973 19.9007 39.997 19.3012 39.997 18.5641C39.9971 17.8271 39.3974 17.2276 38.6604 17.2276ZM35.4155 15.7402C35.746 15.7402 36.0149 16.0091 36.0149 16.3397C36.0149 16.6703 35.746 16.9392 35.4155 16.9392C35.0849 16.9392 34.816 16.6703 34.816 16.3397C34.816 16.0091 35.0849 15.7402 35.4155 15.7402ZM35.4155 20.1892C35.746 20.1892 36.0149 20.458 36.0149 20.7886C36.0149 21.1191 35.746 21.3881 35.4155 21.3881C35.0849 21.3881 34.816 21.1191 34.816 20.7886C34.816 20.458 35.0849 20.1892 35.4155 20.1892ZM28.8275 21.0953L26.2965 18.5643L28.8275 16.0333L31.3584 18.5643L28.8275 21.0953ZM38.6604 19.1637C38.3299 19.1637 38.061 18.8949 38.061 18.5643C38.061 18.2338 38.3299 17.9648 38.6604 17.9648C38.991 17.9648 39.2599 18.2338 39.2599 18.5643C39.2599 18.8947 38.991 19.1637 38.6604 19.1637Z" fill="#0088CC"/>
<path d="M37.3767 18.1957V19.6957H38.506L38.8182 18.6105L37.3767 18.1957ZM32.0323 18.1957L30.9717 19.2564L31.411 19.6957H32.0323V18.1957ZM30.5449 16.7085V15.2085H26.9233L29.4843 17.7692L30.5449 16.7085ZM34.1316 16.7085L35.5731 16.2937L35.2609 15.2085H34.1316V16.7085ZM34.1316 15.9713V17.4713H35.2612L35.5733 16.3856L34.1316 15.9713ZM29.8077 15.9713L28.747 17.0319L29.1864 17.4713H29.8077V15.9713ZM28.8273 14.9909L29.888 13.9302L28.8273 12.8696L27.7666 13.9302L28.8273 14.9909ZM25.2539 18.5643L24.1932 17.5036L23.1326 18.5643L24.1932 19.625L25.2539 18.5643ZM28.8273 22.1377L27.7666 23.1984L28.8274 24.2591L29.8881 23.1983L28.8273 22.1377ZM29.8077 21.1572V19.6572H29.1863L28.7469 20.0966L29.8077 21.1572ZM34.1315 21.1572L35.573 20.7424L35.2608 19.6572H34.1315V21.1572ZM34.1315 20.42V21.92H35.2611L35.5731 20.8344L34.1315 20.42ZM30.5449 20.42L29.4842 19.3593L26.9235 21.92H30.5449V20.42ZM32.0321 18.9327V17.4327H31.4108L30.9715 17.8721L32.0321 18.9327ZM37.3765 18.9327L38.8181 18.518L38.5058 17.4327H37.3765V18.9327ZM39.997 18.5641L38.497 18.5638V18.5641H39.997ZM28.8275 21.0953L27.7668 22.1559L28.8275 23.2166L29.8881 22.1559L28.8275 21.0953ZM26.2965 18.5643L25.2358 17.5036L24.1752 18.5643L25.2358 19.625L26.2965 18.5643ZM28.8275 16.0333L29.8881 14.9727L28.8275 13.912L27.7668 14.9727L28.8275 16.0333ZM31.3584 18.5643L32.4191 19.625L33.4798 18.5643L32.4191 17.5036L31.3584 18.5643ZM39.2599 18.5643H37.7599H39.2599ZM38.6604 15.7276C37.361 15.7276 36.2746 16.6012 35.9352 17.781L38.8182 18.6105C38.8078 18.6465 38.7875 18.674 38.7629 18.6928C38.7359 18.7136 38.6983 18.7276 38.6604 18.7276V15.7276ZM37.3767 16.6957H32.0323V19.6957H37.3767V16.6957ZM33.0929 17.135L31.6055 15.6477L29.4843 17.7692L30.9717 19.2564L33.0929 17.135ZM30.5449 18.2085H34.1316V15.2085H30.5449V18.2085ZM32.6901 17.1232C33.0296 18.3031 34.1162 19.1766 35.4153 19.1766V16.1766C35.4534 16.1766 35.4909 16.1906 35.5179 16.2113C35.5423 16.2301 35.5627 16.2575 35.5731 16.2937L32.6901 17.1232ZM35.4153 19.1766C36.981 19.1766 38.2519 17.9051 38.2519 16.3399H35.2519C35.2519 16.2487 35.3237 16.1766 35.4153 16.1766V19.1766ZM38.2519 16.3399C38.2519 14.7746 36.981 13.5032 35.4153 13.5032V16.5032C35.3237 16.5032 35.2519 16.431 35.2519 16.3399H38.2519ZM35.4153 13.5032C34.1162 13.5032 33.0293 14.3765 32.69 15.5569L35.5733 16.3856C35.5628 16.422 35.5423 16.4496 35.5177 16.4684C35.4907 16.4892 35.4532 16.5032 35.4153 16.5032V13.5032ZM34.1316 14.4713H29.8077V17.4713H34.1316V14.4713ZM30.8683 14.9106L29.888 13.9302L27.7666 16.0516L28.747 17.0319L30.8683 14.9106ZM27.7666 13.9302L24.1932 17.5036L26.3146 19.625L29.888 16.0516L27.7666 13.9302ZM24.1932 19.625L27.7666 23.1984L29.888 21.077L26.3146 17.5036L24.1932 19.625ZM29.8881 23.1983L30.8684 22.2178L28.7469 20.0966L27.7666 21.0771L29.8881 23.1983ZM29.8077 22.6572H34.1315V19.6572H29.8077V22.6572ZM32.6899 21.5719C33.0294 22.7518 34.1161 23.6253 35.4152 23.6253V20.6253C35.4532 20.6253 35.4907 20.6393 35.5177 20.66C35.5422 20.6788 35.5626 20.7063 35.573 20.7424L32.6899 21.5719ZM35.4152 23.6253C36.9809 23.6253 38.2517 22.3538 38.2517 20.7886H35.2517C35.2517 20.6974 35.3235 20.6253 35.4152 20.6253V23.6253ZM38.2517 20.7886C38.2517 19.2231 36.9806 17.952 35.4152 17.952V20.952C35.3238 20.952 35.2517 20.88 35.2517 20.7886H38.2517ZM35.4152 17.952C34.1163 17.952 33.0292 18.825 32.6898 20.0056L35.5731 20.8344C35.5546 20.8987 35.4959 20.952 35.4152 20.952V17.952ZM34.1315 18.92H30.5449V21.92H34.1315V18.92ZM31.6055 21.4807L33.0928 19.9934L30.9715 17.8721L29.4842 19.3593L31.6055 21.4807ZM32.0321 20.4327H37.3765V17.4327H32.0321V20.4327ZM35.935 19.3475C36.2745 20.5275 37.3611 21.4007 38.6602 21.4007V18.4007C38.7412 18.4007 38.7997 18.4543 38.8181 18.518L35.935 19.3475ZM38.6602 21.4007C40.2255 21.4007 41.497 20.1298 41.497 18.5641H38.497C38.497 18.4725 38.5691 18.4007 38.6602 18.4007V21.4007ZM41.497 18.5645C41.4973 16.9985 40.2256 15.7276 38.6604 15.7276V18.7276C38.5693 18.7276 38.4969 18.6558 38.497 18.5638L41.497 18.5645ZM35.4155 17.2402C34.9171 17.2402 34.5149 16.8371 34.5149 16.3397H37.5149C37.5149 15.1812 36.575 14.2402 35.4155 14.2402V17.2402ZM34.5149 16.3397C34.5149 15.8423 34.9171 15.4392 35.4155 15.4392V18.4392C36.575 18.4392 37.5149 17.4982 37.5149 16.3397H34.5149ZM35.4155 15.4392C35.9134 15.4392 36.316 15.8418 36.316 16.3397H33.316C33.316 17.4987 34.2565 18.4392 35.4155 18.4392V15.4392ZM36.316 16.3397C36.316 16.8376 35.9134 17.2402 35.4155 17.2402V14.2402C34.2565 14.2402 33.316 15.1807 33.316 16.3397H36.316ZM35.4155 21.6892C34.9176 21.6892 34.5149 21.2865 34.5149 20.7886H37.5149C37.5149 19.6296 36.5745 18.6892 35.4155 18.6892V21.6892ZM34.5149 20.7886C34.5149 20.2912 34.9171 19.8881 35.4155 19.8881V22.8881C36.575 22.8881 37.5149 21.947 37.5149 20.7886H34.5149ZM35.4155 19.8881C35.9134 19.8881 36.316 20.2907 36.316 20.7886H33.316C33.316 21.9476 34.2565 22.8881 35.4155 22.8881V19.8881ZM36.316 20.7886C36.316 21.287 35.9128 21.6892 35.4155 21.6892V18.6892C34.257 18.6892 33.316 19.6291 33.316 20.7886H36.316ZM29.8881 20.0346L27.3572 17.5036L25.2358 19.625L27.7668 22.1559L29.8881 20.0346ZM27.3572 19.625L29.8881 17.094L27.7668 14.9727L25.2358 17.5036L27.3572 19.625ZM27.7668 17.094L30.2978 19.625L32.4191 17.5036L29.8881 14.9727L27.7668 17.094ZM30.2978 17.5036L27.7668 20.0346L29.8881 22.1559L32.4191 19.625L30.2978 17.5036ZM38.6604 17.6637C39.1583 17.6637 39.561 18.0664 39.561 18.5643H36.561C36.561 19.7233 37.5014 20.6637 38.6604 20.6637V17.6637ZM39.561 18.5643C39.561 19.0617 39.1588 19.4648 38.6604 19.4648V16.4648C37.5009 16.4648 36.561 17.4058 36.561 18.5643H39.561ZM38.6604 19.4648C38.1625 19.4648 37.7599 19.0622 37.7599 18.5643H40.7599C40.7599 17.4053 39.8194 16.4648 38.6604 16.4648V19.4648ZM37.7599 18.5643C37.7599 18.066 38.1628 17.6637 38.6604 17.6637V20.6637C39.8191 20.6637 40.7599 19.7234 40.7599 18.5643H37.7599Z" fill="#0088CC" mask="url(#path-7-inside-1_3114_1074)"/>
<mask id="path-9-inside-2_3114_1074" fill="white">
<path d="M34.0383 21.6523H31.606L28.8309 24.4274L22.9676 18.5641L28.8309 12.701L31.606 15.4761H34.0384L28.8309 10.2686L20.5352 18.5641L28.8309 26.8597L34.0383 21.6523Z"/>
</mask>
<path d="M34.0383 21.6523L35.4525 23.0665L38.8667 19.6523H34.0383V21.6523ZM31.606 21.6523V19.6523H30.7775L30.1918 20.238L31.606 21.6523ZM28.8309 24.4274L27.4167 25.8416L28.8309 27.2558L30.2451 25.8416L28.8309 24.4274ZM22.9676 18.5641L21.5534 17.1499L20.1392 18.5641L21.5534 19.9783L22.9676 18.5641ZM28.8309 12.701L30.2451 11.2868L28.8309 9.8726L27.4167 11.2868L28.8309 12.701ZM31.606 15.4761L30.1918 16.8903L30.7775 17.4761H31.606V15.4761ZM34.0384 15.4761V17.4761H38.8668L35.4526 14.0619L34.0384 15.4761ZM28.8309 10.2686L30.2451 8.85434L28.8309 7.44014L27.4167 8.85433L28.8309 10.2686ZM20.5352 18.5641L19.121 17.1499L17.7067 18.5641L19.121 19.9783L20.5352 18.5641ZM28.8309 26.8597L27.4167 28.2739L28.8309 29.6881L30.2451 28.2739L28.8309 26.8597ZM34.0383 19.6523H31.606V23.6523H34.0383V19.6523ZM30.1918 20.238L27.4167 23.0131L30.2451 25.8416L33.0202 23.0665L30.1918 20.238ZM30.2451 23.0131L24.3818 17.1499L21.5534 19.9783L27.4167 25.8416L30.2451 23.0131ZM24.3818 19.9783L30.2451 14.1152L27.4167 11.2868L21.5534 17.1499L24.3818 19.9783ZM27.4167 14.1152L30.1918 16.8903L33.0202 14.0619L30.2451 11.2868L27.4167 14.1152ZM31.606 17.4761H34.0384V13.4761H31.606V17.4761ZM35.4526 14.0619L30.2451 8.85434L27.4167 11.6828L32.6242 16.8903L35.4526 14.0619ZM27.4167 8.85433L19.121 17.1499L21.9494 19.9783L30.2451 11.6828L27.4167 8.85433ZM19.121 19.9783L27.4167 28.2739L30.2451 25.4454L21.9494 17.1499L19.121 19.9783ZM30.2451 28.2739L35.4525 23.0665L32.624 20.238L27.4167 25.4454L30.2451 28.2739Z" fill="#0088CC" mask="url(#path-9-inside-2_3114_1074)"/>
</svg>
