<svg width="18" height="18" viewBox="0 0 18 18" fill="none" xmlns="http://www.w3.org/2000/svg">
<g clip-path="url(#clip0_3150_3965)">
<path d="M10.6859 4.92292C9.72619 4.36774 8.61188 4.04999 7.42344 4.04999C3.81978 4.04999 0.898438 6.97133 0.898438 10.575C0.898438 11.6187 1.14352 12.6053 1.5793 13.4802C1.6951 13.7127 1.73365 13.9785 1.6665 14.2294L1.27787 15.6819C1.10916 16.3124 1.68601 16.8892 2.31655 16.7206L3.76904 16.3319C4.01996 16.2648 4.2857 16.3034 4.5182 16.4191C5.39309 16.8549 6.37964 17.1 7.42344 17.1C11.0271 17.1 13.9484 14.1787 13.9484 10.575C13.9484 9.38654 13.6307 8.27223 13.0755 7.31249" stroke="#F3F3F3" stroke-width="1.5" stroke-linecap="round"/>
<path d="M13.9312 11.25C13.9839 11.2271 14.0361 11.2032 14.0878 11.1786C14.3746 11.0416 14.6964 10.9904 15.0009 11.0756L15.378 11.1811C16.1433 11.3951 16.8434 10.6632 16.6387 9.86324L16.5378 9.46909C16.4563 9.15077 16.5053 8.8144 16.6363 8.51462C16.9335 7.83435 17.0992 7.07802 17.0992 6.28125C17.0992 5.22646 16.8089 4.24255 16.3072 3.41207M7.19922 4.20791C7.97585 2.26519 9.811 0.900024 11.9512 0.900024C12.9718 0.900024 13.9231 1.21048 14.7232 1.74597" stroke="#F3F3F3" stroke-width="1.5" stroke-linecap="round"/>
<path d="M4.5 10.8H4.50753M7.42112 10.8H7.42865M10.3425 10.8H10.35" stroke="#F3F3F3" stroke-width="1.5" stroke-linecap="round" stroke-linejoin="round"/>
</g>
<defs>
<clipPath id="clip0_3150_3965">
<rect width="18" height="18" fill="white"/>
</clipPath>
</defs>
</svg>
