<svg width="12" height="18" viewBox="0 0 12 18" fill="none" xmlns="http://www.w3.org/2000/svg">
<path d="M5.5575 0C3.645 0 2.2275 0.585 1.3275 1.485C0.4275 2.385 0.1125 3.51 0 4.365L2.25 4.6575C2.34 4.095 2.52 3.5325 2.9475 3.105C3.375 2.6775 4.05 2.25 5.5575 2.25C7.0425 2.25 7.8525 2.61 8.3025 3.015C8.7525 3.42 8.9325 3.915 8.9325 4.5C8.9325 6.3675 8.1675 6.885 7.0425 7.875C5.9175 8.865 4.4325 10.305 4.4325 12.9375V13.5H6.6825V12.9375C6.6825 11.07 7.38 10.5525 8.505 9.5625C9.63 8.5725 11.1825 7.1325 11.1825 4.5C11.1825 3.42 10.8 2.205 9.855 1.3275C8.8875 0.45 7.4475 0 5.5575 0ZM4.4325 15.75V18H6.6825V15.75H4.4325Z" fill="#F3F3F3"/>
</svg>
