<svg width="137" height="200" viewBox="0 0 137 200" fill="none" xmlns="http://www.w3.org/2000/svg">
<path fill-rule="evenodd" clip-rule="evenodd" d="M44.1877 0.378797C45.667 0.921578 49.4601 3.7449 50.9661 5.42407C52.8393 7.51253 54.0597 9.67778 54.4596 11.6215C54.7549 13.0578 54.7458 13.6265 54.3997 15.4015C54.1755 16.5504 53.8178 18.7852 53.6049 20.3673C53.2304 23.151 52.8823 24.1962 51.8315 25.691C51.5119 26.1458 51.3316 26.8678 51.33 27.6974C51.3265 29.5531 50.1066 34.0965 49.1612 35.7749C48.718 36.5619 48.4625 37.1395 48.5936 37.0584C49.1409 36.7203 55.3418 38.5131 58.1242 39.814C61.0768 41.1944 62.9346 42.8426 66.4334 47.1845C67.5005 48.5087 69.0371 50.2548 69.8479 51.0645C72.431 53.6441 73.8315 56.2444 75.6829 61.8977C76.0202 62.9276 76.8658 64.9158 77.5622 66.3159C78.9251 69.0566 79.6886 71.2914 79.6886 72.5404C79.6886 72.9703 80.3039 74.5435 81.0559 76.0365C83.4201 80.7308 83.7529 81.8316 83.8316 85.2162C83.9108 88.6202 83.9787 88.7725 86.4703 91.129C88.951 93.475 90.6296 94.0061 96.8134 94.4017C99.2389 94.5569 102.214 94.7559 103.425 94.8436C105.117 94.9664 105.768 94.9127 106.234 94.6117C107.316 93.9132 109.443 93.3303 110.91 93.3303C112.912 93.3303 114.517 94.2198 117.196 96.8131C119.386 98.9334 122.106 100.576 125.299 101.706C131.402 103.865 132.99 104.687 135.261 106.861L136.401 107.952C136.401 107.952 136.914 109.242 136.973 109.814C137.033 110.387 136.973 111.017 136.973 111.017C136.973 112.807 136.276 113.892 136.067 114.267C135.287 115.662 133.879 117.184 132.76 117.839C131.659 118.484 131.38 118.531 129.366 118.41C125.67 118.188 120.75 116.175 118.331 113.895C117.883 113.472 117.427 113.126 117.319 113.126C117.211 113.126 117.198 113.702 117.292 114.407C117.478 115.814 117.076 119.124 116.439 121.419C115.882 123.425 113.221 131.644 112.541 133.457C111.585 136.009 111.317 136.734 110.317 139.476C109.78 140.947 109.121 142.693 108.851 143.355C108.582 144.017 108.097 145.221 107.774 146.03C106.796 148.479 106.459 149.212 104.349 153.465C102.402 157.388 102.333 157.592 102.665 158.414C102.856 158.886 103.172 159.754 103.369 160.342C103.565 160.931 104.288 162.977 104.974 164.89C105.66 166.802 106.862 170.173 107.644 172.38C108.426 174.587 109.501 177.597 110.034 179.068C111.974 184.429 112.66 186.917 112.472 187.917C112.249 189.109 111.469 189.902 110.519 189.902C109.241 189.902 103.241 188.844 102.757 188.534C101.405 187.667 97.3671 181.919 96.2869 179.324C95.5494 177.553 95.4718 177.091 95.4716 174.472C95.4713 172.054 95.6085 171.082 96.3046 168.568C96.8546 166.582 97.2639 165.559 97.5087 165.559C98.0244 165.559 97.9779 166.63 97.3706 168.74C96.5301 171.659 96.1928 174.071 96.3546 176.003C96.4953 177.68 97.0392 179.291 97.5394 179.512C97.8211 179.636 99.0394 181.535 99.5717 182.679C99.8114 183.194 100.018 183.435 100.032 183.214C100.049 182.949 100.129 182.994 100.269 183.348C100.39 183.652 100.369 183.956 100.221 184.051C100.076 184.144 100.415 184.828 100.988 185.595C102.113 187.103 102.606 187.318 105.637 187.632C106.656 187.737 107.952 188.099 108.767 188.505C109.915 189.077 110.271 189.146 110.802 188.904C111.923 188.393 111.908 187.279 110.736 184.071C107.146 174.245 102.333 160.429 102.08 159.223C101.916 158.441 101.686 157.801 101.569 157.801C101.101 157.801 101.433 156.909 103.08 153.75C105.729 148.665 110.725 135.826 113.942 125.833C115.76 120.189 116.161 118.31 116.172 115.396C116.181 112.824 116.148 112.667 115.346 111.501C114.224 109.871 112.517 108.366 111.058 107.72C110.09 107.292 109.413 107.208 107.547 107.283C105.4 107.37 105.061 107.467 102.777 108.646C101.425 109.345 100.14 109.916 99.9232 109.916C99.706 109.916 98.897 110.455 98.1258 111.113C97.3062 111.813 95.9354 112.614 94.8271 113.041C93.7838 113.443 92.0276 114.331 90.9241 115.014C89.1109 116.136 86.4901 117.619 81.5845 120.297C79.4385 121.469 70.2931 125.646 68.8544 126.112C68.2659 126.302 66.4602 126.851 64.8417 127.332C63.2233 127.813 59.973 128.918 57.6189 129.787C53.9173 131.153 53.011 131.387 50.9148 131.512C48.417 131.662 45.8329 131.345 43.6133 130.616C42.0933 130.118 36.8707 127.012 37.0537 126.716C37.3519 126.233 38.4156 126.575 40.6731 127.878C43.8145 129.691 45.9241 130.28 49.326 130.295C51.4439 130.304 52.3355 130.184 53.6062 129.715C55.3999 129.055 57.2599 128.442 63.5042 126.454C65.8583 125.705 69.4697 124.433 71.5295 123.628C76.6796 121.615 85.3264 117.336 89.1572 114.905C90.9073 113.794 93.3617 112.488 94.6115 112.002C96.3543 111.326 97.0726 110.886 97.6938 110.117C98.1395 109.565 98.6798 109.114 98.8949 109.114C99.11 109.114 100.384 108.576 101.726 107.92C104.666 106.482 106.447 106.066 108.961 106.23C111.665 106.407 114.349 107.973 116.063 110.374C116.942 111.606 120.388 114.338 122.223 115.257C125.167 116.732 127.007 117.227 129.632 117.25L132.092 117.273L133.209 116.203C133.824 115.614 134.733 114.506 135.23 113.741C136.012 112.537 136.134 112.124 136.134 110.678C136.134 109.009 136.132 109.006 134.733 107.692C132.755 105.835 131.479 105.027 129.178 104.176C123.981 102.254 122.752 101.752 120.866 100.782C119.537 100.099 118.02 98.9754 116.453 97.5126C113.353 94.6219 112.722 94.3001 110.468 94.4614C109.501 94.5306 108.289 94.8073 107.775 95.0761C107.261 95.345 106.119 95.7684 105.236 96.0175C104.353 96.2663 102.564 96.7868 101.26 97.1739C99.9564 97.5613 98.3104 97.878 97.6023 97.878C96.8945 97.878 95.7343 97.9939 95.024 98.1351C92.4342 98.6511 88.0454 99.192 85.1726 99.3491C81.3159 99.5604 78.3013 100.119 75.5984 101.123C70.6529 102.96 69.604 103.388 68.715 103.93C67.4689 104.69 62.8755 106.244 62.4063 106.063C61.4344 105.69 62.1508 105.124 64.6411 104.295C67.3737 103.386 68.5855 102.859 69.2557 102.286C69.4764 102.097 70.2588 101.764 70.9945 101.546C74.7726 100.425 77.0574 98.7523 79.7242 95.155C80.4668 94.1532 81.4847 92.3603 81.9865 91.1707C82.8236 89.1858 82.8988 88.7832 82.8988 86.2763C82.8988 82.7481 82.4905 81.2428 80.2402 76.4771C79.2328 74.3437 78.342 72.3946 78.2604 72.1455C78.0306 71.4436 76.8375 70.7927 75.7372 70.7689C74.3472 70.7389 72.0439 71.9053 70.5087 73.4165C69.3635 74.5438 69.2286 74.7976 69.2942 75.7032C69.3346 76.2633 69.2725 76.8171 69.1562 76.9334C68.8108 77.2788 68.1856 76.1767 68.1856 75.223C68.1856 73.4606 71.2438 71.1124 74.7166 70.2077C76.0572 69.8586 76.3972 69.8562 77.3594 70.1876C77.9669 70.3968 78.5236 70.5084 78.5966 70.4353C78.6697 70.3623 78.5193 69.9765 78.2625 69.5779C77.7668 68.8083 75.5037 64.2146 74.0832 61.0951C72.6683 57.9883 69.264 52.0166 68.3204 50.9867C67.8336 50.4554 66.8529 49.262 66.141 48.3351C63.914 45.435 60.9342 42.5098 59.1014 41.4247C57.0312 40.1993 52.6983 38.7178 49.2517 38.057C46.9264 37.6114 46.1975 37.1678 47.1739 36.7933C48.0647 36.4514 49.5226 32.6653 49.9862 29.4894C50.1548 28.334 50.3514 26.9986 50.4228 26.5222C50.4961 26.0351 51.0164 25.1202 51.6114 24.4327C52.327 23.606 52.6699 22.9549 52.6699 22.4234C52.6699 21.4253 52.522 21.4325 51.9923 22.4568C51.2326 23.9257 50.9223 23.2968 51.0266 20.4994L51.1221 17.9369L49.9566 17.1232C49.3156 16.6756 48.5593 16.1449 48.2763 15.9437C47.9449 15.708 47.8245 15.414 47.9379 15.1182C48.1418 14.5872 48.4917 14.7193 50.5815 16.1165C51.7665 16.9086 51.8463 17.0384 52.0025 18.427C52.3131 21.1893 52.2727 21.2506 53.0832 16.788C53.6619 13.603 53.5166 11.2208 52.6362 9.44825C51.8152 7.79529 48.5714 4.34867 46.3342 2.75243C45.3698 2.06439 43.7225 1.16341 42.6733 0.750638L40.7656 0L41.9695 0.00321014C42.6315 0.00508272 43.6296 0.173883 44.1877 0.378797ZM35.8167 0.17415C35.8167 0.750638 34.5214 1.23082 32.5747 1.37555C28.4569 1.68185 26.1598 3.93376 25.2526 8.55315C25.0384 9.64327 24.5448 11.4369 24.1558 12.5385C22.9606 15.9231 23.5596 19.4957 25.323 19.4981C26.2633 19.4995 27.6937 20.3729 27.9192 21.0834C28.0626 21.5355 28.1894 21.5861 28.6118 21.36C28.8961 21.2078 29.1308 20.8167 29.1329 20.4909C29.1353 20.165 29.2375 19.74 29.3603 19.5463C29.6158 19.1434 30.9078 18.427 31.3789 18.427C31.5531 18.427 32.1603 17.9508 32.7288 17.3687C33.9409 16.1275 34.9098 15.8458 36.4681 16.2821C37.3182 16.5202 37.8779 16.5242 38.7149 16.299C39.3278 16.1339 39.8294 15.9346 39.8294 15.8562C39.8294 15.7776 39.5378 15.2105 39.1812 14.5957C38.0943 12.7221 35.574 6.3197 35.5559 5.38582C35.5521 5.20203 35.661 5.05143 35.7977 5.05143C35.9344 5.05143 36.1786 5.68864 36.3402 6.46737C36.5018 7.24636 37.1104 8.65775 37.6922 9.60367C38.274 10.5499 39.0723 12.0822 39.4661 13.0086C40.0351 14.3477 40.324 14.7209 40.8751 14.8292C41.2563 14.9042 42.4023 15.2166 43.4218 15.5234C44.4413 15.83 45.7272 16.0751 46.2791 16.0673C47.6142 16.0488 48.2041 16.7024 47.1977 17.0849C46.1089 17.499 44.918 17.4145 42.8969 16.7802L41.0591 16.2032L40.0059 16.8094C38.3479 17.7639 37.5488 17.9046 36.162 17.4872C34.7712 17.0686 34.576 17.1339 33.5562 18.3553C33.1523 18.8395 32.373 19.3582 31.7853 19.5342C30.9295 19.7908 30.6901 20.0144 30.4878 20.7469C30.3514 21.2407 29.9298 22.0135 29.5508 22.464C29.1714 22.9148 28.8614 23.575 28.8614 23.9316C28.8614 24.3872 28.7124 24.5798 28.3593 24.5798C28.0128 24.5798 27.6814 24.1708 27.2892 23.2596C26.9767 22.5333 26.7213 21.8298 26.7213 21.696C26.7213 21.2025 25.7195 20.5671 24.9413 20.5671C23.6674 20.5671 22.4411 22.1794 22.4411 23.8538C22.4411 25.1868 23.4186 26.4189 25.2877 27.4419C26.4532 28.0799 27.0166 28.5719 27.2271 29.1355C27.3903 29.5726 27.6635 30.3021 27.8339 30.7569C28.0043 31.2117 28.6214 32.3224 29.2049 33.2252C30.0729 34.5681 30.3118 35.2329 30.5191 36.8792C30.6582 37.9861 30.6978 39.5 30.6066 40.2431C30.4715 41.3472 30.5293 41.6706 30.922 42.0087C31.4183 42.4365 35.6522 44.1988 36.9536 44.5199C38.075 44.7962 37.831 45.1782 36.5328 45.1782C35.1479 45.1782 30.6368 43.1149 29.7907 42.0946L29.2487 41.4408L28.1856 41.948C27.6009 42.227 26.5487 42.7008 25.8476 43.0009C23.6848 43.927 17.9268 49.2877 15.6144 52.5278C13.8764 54.9635 12.9182 57.0314 8.91811 66.9804C6.90668 71.9829 4.78531 77.2518 4.20401 78.6889C3.10881 81.3969 3.07993 81.9466 3.98973 82.7698C4.71014 83.422 4.6545 84.1464 3.73077 86.1444C2.5013 88.8035 1.94406 94.3961 2.75356 95.9519C3.98999 98.3285 7.41762 99.4828 13.2363 99.4831C16.772 99.4831 17.8712 99.7755 20.6239 101.449C21.7579 102.138 23.0491 102.775 23.4938 102.864C23.9381 102.952 24.4156 103.162 24.5544 103.33C24.6935 103.497 24.8645 104.717 24.934 106.04C25.0919 109.033 25.5811 113.948 25.7368 114.103C25.8008 114.167 26.3732 114.485 27.0091 114.81C28.1632 115.399 28.1664 115.405 28.7977 118.027C29.5799 121.276 29.4646 121.527 27.2633 121.368C26.446 121.309 25.201 120.981 24.4964 120.64C23.792 120.299 23.157 120.079 23.0853 120.151C23.0136 120.222 22.8153 121.679 22.6444 123.388C22.3485 126.35 22.3624 126.585 22.9451 128.394C23.4033 129.816 23.8295 130.556 24.6473 131.35C26.8751 133.512 32.2085 135.415 37.4218 135.908C41.0168 136.248 61.0714 136.054 68.7206 135.605C71.4426 135.446 75.6559 135.078 78.0836 134.789C80.5112 134.5 83.5809 134.274 84.9051 134.288L87.3127 134.313L85.7076 134.832C81.7996 136.097 62.4518 137.486 49.1923 137.454C40.2261 137.433 35.2308 137.082 32.4728 136.281C29.4025 135.389 25.4757 133.513 24.1256 132.293C22.7814 131.079 21.7595 129.183 21.405 127.247C21.0899 125.525 21.4029 121.843 22.0157 120.064C22.2191 119.474 22.3282 118.771 22.2578 118.502C22.1875 118.234 22.3769 116.823 22.6784 115.369C23.841 109.763 23.8589 106.706 22.741 104.624C22.3988 103.987 20.4179 102.426 19.9516 102.426C19.8037 102.426 19.2499 102.095 18.7211 101.691C17.7888 100.979 17.6261 100.952 13.3457 100.789C6.95778 100.545 4.07506 99.6968 2.97853 97.7373C2.48524 96.8564 2.31456 97.4893 2.63237 99.0203C2.85922 100.113 3.27547 100.896 4.31207 102.183C6.67393 105.114 7.72392 107.303 10.1396 114.33C11.7564 119.034 13.2807 124.037 13.8885 126.636C15.4192 133.178 16.4079 135.177 19.5758 138.136L21.9267 140.333L21.6752 141.376C21.0856 143.82 12.6274 167.419 11.2998 170.324C10.8078 171.4 9.60748 174.662 8.63213 177.574C6.98024 182.505 6.88394 182.921 7.2269 183.637C7.69075 184.605 8.79024 185.031 9.72438 184.605C10.4306 184.283 10.7907 183.622 12.3744 179.737C12.884 178.486 13.9556 175.898 14.7555 173.985C16.3902 170.077 17.1037 168.095 17.7883 165.559C18.4003 163.292 21.6407 155.339 22.3172 154.443L22.8424 153.748L31.804 154.063C36.7329 154.237 40.9946 154.501 41.2745 154.65C41.7653 154.911 41.7747 155.196 41.542 162.714C41.4093 167 41.3183 176.262 41.3403 183.294C41.3694 192.811 41.3012 196.055 41.0728 195.979C40.8702 195.912 40.741 194.792 40.6934 192.689C40.633 190.033 40.5436 189.443 40.1584 189.155C39.748 188.849 39.6857 188.119 39.6097 182.735C39.5292 177.056 39.7266 173.484 40.3521 169.304C40.4952 168.347 40.695 164.976 40.7964 161.813C40.9564 156.815 40.9267 156.016 40.5696 155.72C39.9358 155.194 23.5673 154.678 23.1091 155.17C22.9261 155.366 22.4143 156.43 21.9719 157.533C21.5297 158.637 20.3855 161.409 19.4297 163.694C18.1967 166.64 17.6478 168.318 17.5416 169.466C17.4354 170.612 16.9269 172.168 15.795 174.808C14.9168 176.857 13.8796 179.376 13.4904 180.405C13.1012 181.435 12.674 182.519 12.541 182.813C12.4083 183.107 12.1237 183.79 11.9086 184.33C11.3811 185.656 10.4044 186.254 8.86032 186.195C7.34004 186.138 6.4642 185.596 5.96663 184.406C5.41449 183.084 5.4696 182.601 6.55919 179.202C8.31888 173.712 9.61095 170.548 10.3886 169.825C10.819 169.425 11.3541 168.429 11.6823 167.417C12.5033 164.888 18.0889 148.722 19.2112 145.629C19.5311 144.746 20.0511 143.252 20.3668 142.308L20.9404 140.592L20.2863 140.184C19.9265 139.961 18.9089 139.047 18.0247 138.155C16.0609 136.174 14.3815 132.965 13.6057 129.712C12.5999 125.494 12.2371 124.245 10.2623 118.209C6.93663 108.042 5.91795 105.682 3.7709 103.166C3.13931 102.426 2.45848 101.503 2.25758 101.115C1.31273 99.2875 1.07037 95.0868 1.62332 90.1159C1.94353 87.2348 1.70036 80.0711 1.02356 72.4644C0.873215 70.7724 0.725281 66.5591 0.695312 63.1015C0.643158 57.1116 0.670166 56.7331 1.26619 55.0785C2.0813 52.8162 3.56384 50.7561 5.35378 49.3985C7.42618 47.8263 12.8484 45.3015 16.1546 44.369C16.596 44.2446 18.2211 43.7834 19.766 43.3444C21.3109 42.9054 23.4871 42.3469 24.6018 42.1029C25.7165 41.8592 27.2814 41.3311 28.0794 40.9293L29.5302 40.1987L29.448 37.7523C29.3678 35.3602 29.34 35.2669 28.1854 33.5454C27.5361 32.5771 26.8641 31.2772 26.6919 30.6569C26.3556 29.4456 25.7962 28.8367 24.0692 27.802C22.7041 26.9845 21.6364 25.4776 21.4529 24.1106C21.2999 22.9694 21.9531 21.3581 22.9253 20.4791C23.4397 20.0139 23.4453 19.9417 23.0398 19.0078C22.3833 17.4961 22.4737 13.5158 23.1968 12.0985C23.5045 11.4952 23.9579 9.90034 24.204 8.55396C24.5285 6.78062 24.9054 5.68463 25.5718 4.57579C27.3895 1.55077 28.6503 0.753046 32.0715 0.463865C33.3221 0.358198 34.6765 0.189398 35.081 0.0890814C35.5155 -0.0189933 35.8167 0.0160507 35.8167 0.17415ZM40.2825 2.21981C41.2226 3.02877 40.9104 3.41078 39.7579 2.86131C39.2812 2.63392 38.5001 2.36186 38.0226 2.257C36.7658 1.98093 36.9568 1.57377 38.3431 1.57377C39.2146 1.57377 39.7325 1.74632 40.2825 2.21981ZM33.2042 8.79659C33.564 10.1582 33.717 12.5418 33.4447 12.5418C33.102 12.5418 32.8034 10.5999 32.9305 9.19786C33.014 8.27842 33.0525 8.22198 33.2042 8.79659ZM26.6913 10.8029C26.6852 11.0972 26.5215 11.8195 26.3275 12.408L25.9749 13.478L25.9562 12.5418C25.946 12.0268 26.1097 11.3045 26.32 10.9367C26.6552 10.3506 26.701 10.334 26.6913 10.8029ZM29.2212 17.1879C29.3319 17.6098 29.3592 18.0183 29.2819 18.0956C29.0666 18.3109 28.8033 17.4495 28.9178 16.9043C28.993 16.5477 29.0727 16.6224 29.2212 17.1879ZM49.7273 23.0758C49.7273 23.6531 49.1093 24.0263 47.7258 24.285C47.0241 24.4161 46.3497 24.6855 46.2272 24.8837C45.9281 25.3676 45.3134 24.7794 45.5295 24.216C45.8971 23.2577 49.7273 22.2174 49.7273 23.0758ZM38.6924 23.9482C39.4607 24.2243 39.8294 24.514 39.8294 24.8409C39.8294 25.4283 39.2023 25.7183 38.8008 25.3168C38.6403 25.1563 37.6927 24.9551 36.6949 24.8695C35.1107 24.7333 34.8804 24.6456 34.8804 24.1785C34.8804 23.7219 35.0759 23.636 36.2179 23.5916C36.9536 23.563 38.0673 23.7235 38.6924 23.9482ZM48.3868 26.1792C49.046 27.4111 47.8167 28.8423 46.404 28.4879C45.831 28.3439 45.7146 28.1599 45.7146 27.3988C45.7146 25.8925 47.7389 24.9688 48.3868 26.1792ZM38.14 26.4542C38.4613 26.5837 38.865 26.9524 39.0367 27.2731C39.2941 27.7541 39.2571 27.9801 38.827 28.559C38.075 29.571 36.8485 29.6368 36.1152 28.7048C35.4103 27.8089 35.4039 27.4002 36.0842 26.7199C36.6561 26.1479 37.204 26.0771 38.14 26.4542ZM41.9695 29.9383C41.9695 30.4225 41.8031 30.8131 41.5567 30.9078C40.9901 31.1253 40.9435 31.0011 41.2148 29.9969C41.5107 28.9017 41.9695 28.8664 41.9695 29.9383ZM41.6351 34.9365C42.9831 35.0633 43.1272 35.4614 41.9026 35.6756C40.9296 35.8458 39.61 35.555 39.5001 35.1465C39.4179 34.841 40.0054 34.7835 41.6351 34.9365ZM18.8166 44.6715C9.87204 47.2356 4.89365 50.0622 2.97185 53.6682C1.72284 56.0114 1.47298 58.1916 1.69127 64.8403C1.88976 70.8797 2.47214 79.0682 2.72119 79.3173C2.87741 79.4737 3.44347 77.7036 3.44614 77.0498C3.44695 76.8497 3.99722 75.4052 4.66867 73.8397C6.3045 70.0258 7.10838 68.0598 9.16902 62.834C11.2436 57.5728 12.7141 54.5007 14.3071 52.0995C15.733 49.9501 19.9671 45.84 21.9403 44.69C23.3292 43.8805 23.3496 43.8521 22.5462 43.8465C22.089 43.8433 20.4107 44.2146 18.8166 44.6715ZM26.0779 67.2479C25.8987 69.2615 24.2396 74.2305 23.4748 75.0445C22.8338 75.727 22.8386 75.9354 23.6315 81.8273C24.3006 86.7966 24.5074 89.85 24.192 90.0985C24.0381 90.2197 23.3094 90.4701 22.5724 90.6547C21.4465 90.9372 20.7205 90.9182 18.0247 90.5351C16.2605 90.2844 14.5463 90.0153 14.2151 89.9369C13.4639 89.7593 13.4409 89.0782 14.1472 87.9196C14.79 86.8656 14.8392 85.3793 14.259 84.5508C13.3781 83.293 11.3902 82.3664 8.09416 81.6767C6.76543 81.3988 6.20927 81.3862 5.69003 81.6229C4.78209 82.0365 4.32947 81.4097 4.99959 80.6663C5.86124 79.71 9.5283 80.3424 13.0635 82.0571C15.0182 83.0052 17.2455 85.0508 17.0052 85.6773C16.8881 85.9826 16.6556 86.0904 16.3346 85.9885C15.7704 85.8095 14.798 86.714 15.0741 87.1607C15.3317 87.5772 16.3474 87.5077 17.0349 87.0261C17.364 86.7958 17.8693 86.1439 18.1582 85.5778C18.7748 84.3689 21.9061 76.6068 21.9061 76.2869C21.9061 76.1665 22.1484 75.6157 22.4446 75.0633C22.7407 74.5106 23.5959 72.3456 24.3455 70.2521C26.0282 65.5503 26.2657 65.1381 26.0779 67.2479ZM64.4196 67.7829C66.6549 72.611 66.8844 73.4384 67.2972 78.1557C67.3847 79.1525 67.5564 80.0302 67.6792 80.1061C67.802 80.1821 68.2597 80.0593 68.6963 79.8335C69.4057 79.4668 69.474 79.3231 69.3378 78.485C69.1428 77.2823 69.6238 77.2448 70.2174 78.4165C70.4595 78.8949 70.8431 79.4973 71.0697 79.7557C71.2962 80.0141 71.4321 80.2621 71.3719 80.3065C71.0504 80.5438 67.2592 81.0077 67.0848 80.8314C66.9716 80.7169 66.7595 79.8777 66.6132 78.966C66.4671 78.0546 66.2194 77.0694 66.0626 76.7767C65.9061 76.484 65.778 76.0116 65.778 75.7267C65.778 75.4418 65.408 73.9593 64.9557 72.432C63.5705 67.7554 63.3367 66.814 63.4466 66.3536C63.51 66.0885 63.9011 66.6629 64.4196 67.7829ZM74.0687 78.866C75.1364 79.1471 75.4577 80.0773 75.2985 82.4263C75.13 84.9133 74.1822 88.2476 73.6437 88.2476C73.1541 88.2476 73.1579 87.1187 73.6528 85.4205C74.1565 83.6927 74.6404 80.0885 74.4392 79.5644C74.2399 79.0449 73.9805 79.0468 72.9578 79.5757C72.3807 79.8739 72.1718 79.9007 72.2502 79.6656C72.4415 79.0915 73.3719 78.6824 74.0687 78.866ZM68.7206 78.7509C68.7206 78.8245 68.6604 78.8847 68.5869 78.8847C68.5133 78.8847 68.4531 78.8245 68.4531 78.7509C68.4531 78.6774 68.5133 78.6172 68.5869 78.6172C68.6604 78.6172 68.7206 78.6774 68.7206 78.7509ZM21.1006 82.2286C19.3075 86.8592 18.4097 88.0076 16.3268 88.3359C15.4505 88.4739 14.893 88.7532 15.3742 88.8131C15.5091 88.83 15.9205 88.8819 16.2883 88.9284C20.6244 89.4779 21.2068 89.5135 22.0508 89.2805C22.9194 89.0405 22.9758 88.9562 22.974 87.9006C22.9716 86.7214 22.5452 82.5932 22.2683 81.0716C22.0717 79.9906 21.9018 80.1588 21.1006 82.2286ZM69.1219 82.5747C68.6083 83.1333 62.7006 87.3924 62.589 87.2843C62.3555 87.0582 63.8265 85.7694 66.0784 84.2269C68.3303 82.6844 69.7088 81.9362 69.1219 82.5747ZM2.64923 83.6488C2.65164 84.0447 2.75891 84.5351 2.88757 84.7384C3.21689 85.2581 3.55101 84.148 3.33031 83.2684C3.12004 82.4308 2.64388 82.6967 2.64923 83.6488ZM49.0585 85.0219C50.3332 85.4797 52.4024 86.5791 52.4024 86.7988C52.4024 86.928 50.2035 86.0666 48.5569 85.2927C47.4096 84.7534 47.0348 84.4746 47.5203 84.522C47.6308 84.5327 48.3229 84.7576 49.0585 85.0219ZM27.6576 89.7264C28.2461 89.9204 29.2332 90.0883 29.8514 90.0996C31.3516 90.1271 33.6766 90.6392 33.6766 90.9422C33.6766 91.3085 28.1238 90.9374 26.6426 90.4722C25.591 90.1419 25.4164 90.0017 25.6724 89.6935C26.0378 89.2532 26.2309 89.2564 27.6576 89.7264ZM83.3297 90.7221C83.0547 92.1843 81.7145 94.7005 80.1097 96.7681C79.2702 97.8494 78.6467 98.7977 78.7242 98.8753C78.8016 98.9529 79.8029 98.874 80.9489 98.7001C82.0949 98.5259 84.5975 98.2691 86.5102 98.1292C91.9891 97.7282 94.2223 97.4583 94.8523 97.121C95.1738 96.9487 95.906 96.808 96.4795 96.808C97.7344 96.808 100.596 96.2804 100.921 95.9889C101.214 95.7272 99.6859 95.5373 95.6909 95.3385C90.4801 95.0796 88.0034 94.1395 85.327 91.4048C84.5065 90.5664 83.7583 89.8743 83.6641 89.8666C83.5702 89.8588 83.4199 90.2438 83.3297 90.7221ZM24.4632 92.1351C24.1775 92.351 23.8164 92.524 23.6607 92.5192C23.5047 92.5147 23.6112 92.3341 23.8966 92.118C24.1823 91.9021 24.5435 91.729 24.6992 91.7338C24.8551 91.7384 24.7486 91.9189 24.4632 92.1351ZM21.1035 93.6826C21.748 94.0144 21.7691 94.1088 21.6875 96.2713C21.6407 97.5056 21.4861 98.7333 21.3435 98.9994C21.0262 99.5922 20.2662 99.6171 19.2077 99.0698L18.4083 98.6565L18.59 96.5953C18.6898 95.4616 18.8719 94.2634 18.9947 93.9322C19.2491 93.2453 20.0664 93.1484 21.1035 93.6826ZM40.0313 95.2141C41.0987 95.6467 43.9632 96.548 46.397 97.217C48.8309 97.886 51.2262 98.6263 51.72 98.8617C52.679 99.3191 53.2895 100.289 53.0353 100.951C52.8112 101.535 52.5926 101.451 52.1047 100.594C51.6424 99.7808 51.9752 99.8983 45.1796 98.1538C43.3405 97.6819 40.8258 96.8248 39.5918 96.2491C37.8597 95.4415 37.0205 95.2029 35.9135 95.2029C34.5235 95.2029 34.0369 94.8947 34.9023 94.5628C35.9215 94.1716 38.1588 94.4557 40.0313 95.2141ZM70.4881 95.3586C70.3987 95.5913 70.3257 95.8289 70.3257 95.8867C70.3257 96.1309 68.7394 96.7871 68.6193 96.5926C68.4916 96.3867 70.1157 94.9354 70.4739 94.9354C70.571 94.9354 70.5774 95.1259 70.4881 95.3586ZM19.9548 96.6073C19.8872 97.3064 19.9372 97.878 20.0664 97.878C20.1953 97.878 20.2914 97.186 20.2799 96.3398C20.2563 94.6149 20.1383 94.712 19.9548 96.6073ZM23.7786 97.4578C23.7786 98.4395 23.6104 99.2841 23.3153 99.7835C22.8552 100.562 22.8576 100.572 23.6497 101.22C24.2447 101.706 24.3316 101.874 23.9919 101.881C23.3517 101.895 22.1736 101.323 22.1736 100.999C22.1736 100.851 22.3694 100.513 22.6086 100.248C22.86 99.9705 23.1192 99.0353 23.2233 98.0297C23.4542 95.7984 23.7786 95.4643 23.7786 97.4578ZM96.8094 99.5754C97.797 100.078 98.1657 100.491 98.8625 101.877C99.9446 104.031 100.222 105.841 99.63 106.881C99.3042 107.455 99.2365 107.496 99.3561 107.049C99.8935 105.041 97.8998 100.891 95.9354 99.9285C95.3843 99.6583 95.0015 99.3274 95.0847 99.1928C95.2966 98.8499 95.4491 98.8836 96.8094 99.5754ZM70.5932 99.4545C70.5932 99.7367 69.9301 100.022 69.3006 100.01C68.9157 100.002 68.9258 99.9472 69.3736 99.6083C69.9533 99.1698 70.5932 99.0891 70.5932 99.4545ZM67.275 100.779C66.9848 101.249 65.2917 102.035 63.7717 102.405C62.2083 102.786 61.363 103.487 60.9473 104.747C60.6977 105.503 60.3561 105.787 58.8663 106.477C57.8859 106.931 56.597 107.456 56.0021 107.644C55.4071 107.831 54.4574 108.299 53.8916 108.683C53.0367 109.263 52.5608 109.381 51.0761 109.381C50.0935 109.381 48.6404 109.574 47.8472 109.809C46.2539 110.283 44.5215 110.173 42.9017 109.496C41.7212 109.003 41.2351 109.138 39.1766 110.533C37.5641 111.626 35.4711 112.463 32.3543 113.261C31.4062 113.504 30.0981 113.884 29.4475 114.104C28.7875 114.328 27.958 114.429 27.572 114.332L26.8802 114.159L27.6701 113.663C28.1046 113.39 30.3474 112.622 32.6544 111.956C35.756 111.061 37.1847 110.506 38.1384 109.828C38.8476 109.323 39.9152 108.665 40.5107 108.365L41.5931 107.821L43.9536 108.432C45.8056 108.911 46.523 108.988 47.2849 108.786C48.6605 108.424 51.5678 108.085 52.1047 108.226C52.3535 108.291 52.7727 108.106 53.0361 107.815C53.42 107.391 53.4559 107.175 53.217 106.728C52.8821 106.103 52.3663 106.022 51.6322 106.48C51.2436 106.723 50.6326 106.666 48.7931 106.217C46.3152 105.611 43.2209 104.319 43.7612 104.116C43.9375 104.05 45.3299 104.308 46.8556 104.69C49.7137 105.406 53.8876 105.779 54.157 105.343C54.4465 104.875 53.9671 104.024 53.1868 103.62C52.7563 103.398 51.1095 103.043 49.5275 102.832C47.9454 102.621 46.0792 102.251 45.3802 102.011C43.1064 101.228 44.1432 100.395 46.519 101.097C47.0329 101.248 48.6843 101.538 50.1885 101.739C53.1632 102.138 54.6985 102.825 54.9622 103.875C55.0452 104.206 54.8646 105.185 54.5604 106.051C54.2563 106.916 54.0075 107.658 54.0075 107.7C54.0075 108.088 55.23 107.507 57.1976 106.185C59.0755 104.922 59.6825 104.349 60.1365 103.411C61.0578 101.508 61.8611 101.036 63.4309 101.474C64.0935 101.659 65.0616 101.439 66.9588 100.67C67.3218 100.523 67.4138 100.554 67.275 100.779ZM96.2094 101.423C97.0488 102.471 97.6989 104.282 97.7213 105.636C97.758 107.847 97.2682 107.61 96.7628 105.173C96.5165 103.985 96.1251 102.646 95.8934 102.197C95.6615 101.749 95.4718 101.316 95.4718 101.235C95.4718 100.965 95.9378 101.084 96.2094 101.423ZM27.2009 102.431C28.5379 102.626 33.3607 104.703 33.0945 104.97C33.0263 105.038 32.1363 104.849 31.1165 104.549C29.4413 104.056 28.256 103.749 26.5284 103.357C25.9926 103.235 25.0734 102.112 25.575 102.192C25.6906 102.21 26.4222 102.318 27.2009 102.431ZM44.9121 106.862C45.7882 107.221 45.797 107.236 45.0458 107.091C44.6044 107.005 44.1288 106.824 43.9892 106.687C43.6687 106.374 43.761 106.391 44.9121 106.862ZM20.4607 108.085C20.8914 108.782 20.5878 113.868 19.9123 117.273C19.533 119.185 19.1041 121.834 18.9594 123.158C18.8147 124.482 18.647 125.987 18.5865 126.502C18.5263 127.017 18.5127 125.813 18.5565 123.827C18.6197 120.97 18.7901 119.6 19.3722 117.273C19.9589 114.927 20.114 113.666 20.1376 111.054C20.1539 109.252 20.1902 107.777 20.2183 107.776C20.2464 107.776 20.3556 107.915 20.4607 108.085ZM23.9392 112.658C23.8364 114.608 23.6187 116.734 23.4552 117.383C23.1813 118.472 23.2051 118.601 23.7623 119.052C24.0948 119.321 25.1491 119.783 26.1055 120.078C27.7635 120.591 28.5067 120.59 28.1891 120.076C28.1086 119.946 27.8285 118.967 27.5663 117.9C27.1242 116.101 27.0286 115.945 26.2486 115.743C24.8714 115.386 24.5812 114.687 24.5812 111.729C24.5812 110.291 24.4787 109.114 24.3538 109.114C24.2286 109.114 24.0422 110.708 23.9392 112.658ZM99.217 116.164C99.217 116.391 97.0691 119.546 96.9151 119.546C96.6604 119.546 98.1279 116.97 98.6531 116.496C98.9631 116.215 99.217 116.066 99.217 116.164ZM86.2427 126.644C87.8611 126.831 89.6066 127.116 90.1216 127.277C91.0274 127.559 91.0186 127.563 89.8541 127.393C89.192 127.296 86.4232 127.191 83.7013 127.159C79.4219 127.108 76.4785 126.782 76.4785 126.358C76.4785 126.111 83.3765 126.313 86.2427 126.644ZM74.2715 126.419C74.0139 126.486 73.5928 126.486 73.3352 126.419C73.0776 126.351 73.2884 126.296 73.8034 126.296C74.3183 126.296 74.5291 126.351 74.2715 126.419ZM92.7967 127.839C92.7967 127.986 92.6691 128.107 92.5134 128.107C92.3577 128.107 92.3045 127.986 92.3954 127.839C92.4864 127.692 92.6137 127.572 92.6787 127.572C92.7437 127.572 92.7967 127.692 92.7967 127.839ZM91.7267 127.706C91.7267 127.779 91.6665 127.839 91.5929 127.839C91.5193 127.839 91.4591 127.779 91.4591 127.706C91.4591 127.632 91.5193 127.572 91.5929 127.572C91.6665 127.572 91.7267 127.632 91.7267 127.706ZM91.3495 131.451C91.2847 131.745 91.147 132.407 91.0437 132.922C90.9404 133.437 90.6949 134.09 90.498 134.373C90.1743 134.838 90.124 134.845 89.9686 134.44C89.8741 134.194 89.8757 133.842 89.9723 133.658C90.9148 131.861 91.4468 131.008 91.3495 131.451ZM90.1026 135.731C90.1026 136.025 89.9306 136.567 89.7203 136.935C89.3827 137.525 89.338 137.541 89.338 137.069C89.338 136.774 89.5101 136.233 89.7203 135.865C90.0579 135.274 90.1026 135.258 90.1026 135.731ZM25.3168 140.415C26.3815 140.909 26.9888 141.351 26.9888 141.633C26.9888 141.981 26.8323 142.037 26.2531 141.894C24.8819 141.556 22.4229 140.333 22.52 140.038C22.6955 139.504 23.6224 139.629 25.3168 140.415ZM88.5973 141.014C89.0181 141.326 89.0093 141.533 88.4638 144.112C87.9975 146.316 87.9438 146.978 88.1979 147.385C88.558 147.962 88.5909 149.279 88.3405 153.061C88.1835 155.433 88.0995 155.745 87.4408 156.405C86.6918 157.155 86.2379 159.016 86.6439 159.674C86.8884 160.069 87.4465 159.799 87.4465 159.285C87.4465 158.415 88.8129 158.554 92.9147 159.839C94.1003 160.21 95.4266 160.651 95.8616 160.818C96.7238 161.149 98.682 162.972 98.682 163.444C98.682 163.605 99.1033 164.625 99.6183 165.71C100.133 166.795 101.111 169.041 101.791 170.7C103.684 175.321 104.637 177.641 106.441 182.01C107.351 184.217 108.162 186.31 108.242 186.66C108.483 187.713 107.718 187.209 107.047 185.873C106.498 184.778 102.952 176.463 101.978 173.985C101.747 173.397 101.396 172.554 101.199 172.113C100.119 169.694 98.9727 166.808 98.8248 166.135C98.732 165.712 98.3008 165.026 97.8663 164.61C97.377 164.141 97.0769 163.581 97.0769 163.137C97.0769 162.54 96.8862 162.348 95.9311 161.983C95.3009 161.743 94.6805 161.546 94.5524 161.546C94.4245 161.546 93.6741 161.24 92.885 160.867C92.0961 160.494 90.7706 160.063 89.9397 159.909C88.0393 159.558 87.3641 159.873 86.9334 161.311C86.7606 161.887 86.3839 162.506 86.0966 162.686C85.7194 162.921 85.5739 163.311 85.5736 164.085C85.5725 166.951 83.3118 173.639 81.283 176.778C79.9337 178.866 79.4211 180.448 79.4211 182.527C79.4211 184.017 79.5131 184.326 80.1629 185.022C80.9323 185.845 82.6861 186.478 85.1504 186.822C87.2608 187.116 88.4301 188.096 89.7262 190.654C90.4212 192.025 90.4707 192.557 89.8688 192.185C89.7102 192.087 89.1767 191.383 88.6834 190.62C87.2959 188.474 86.6651 188.017 84.7299 187.751C83.7963 187.623 81.9935 187.28 80.7234 186.99C79.4535 186.699 77.2264 186.391 75.7744 186.305C71.3674 186.044 65.885 185.453 65.4859 185.195C65.0948 184.944 69.1711 184.509 69.6136 184.755C69.8525 184.888 71.365 184.907 74.6059 184.816L76.6122 184.76L75.1409 184.394C74.3317 184.192 72.5913 183.836 71.2732 183.603C69.9552 183.369 68.695 183.077 68.4727 182.952C67.8718 182.616 72.2951 182.921 74.4721 183.366C75.5021 183.577 76.7963 183.749 77.3484 183.749L78.3521 183.749L78.2588 181.743C78.2074 180.639 78.254 179.737 78.362 179.737C78.4704 179.737 78.6386 179.312 78.736 178.793C78.8334 178.274 79.0273 177.92 79.1672 178.006C79.3069 178.093 79.4211 177.975 79.4211 177.746C79.4211 177.517 79.5725 177.329 79.7574 177.329C80.9831 177.329 84.5038 167.458 84.5038 164.021C84.5038 163.106 84.6609 162.617 85.1057 162.143C85.6528 161.561 85.6993 161.289 85.6159 159.167C85.5303 156.984 85.5691 156.777 86.2079 156.018C86.8216 155.289 86.9205 154.849 87.1731 151.72C87.4925 147.766 87.4063 147.253 86.4634 147.489C86.1097 147.578 83.2316 147.568 80.0677 147.467C75.0098 147.305 74.3255 147.232 74.3999 146.857C74.474 146.483 75.2209 146.431 80.6099 146.431H86.7354L86.9647 145.629C87.0907 145.187 87.3025 144.285 87.4352 143.623C87.5682 142.96 87.7514 142.226 87.8424 141.991C88.0235 141.523 88.2519 141.503 83.4338 142.37C82.1832 142.595 79.8146 142.978 78.1708 143.22C75.3782 143.632 75.1361 143.632 74.4957 143.212C73.8775 142.807 73.4963 142.795 70.621 143.085C67.3515 143.415 66.313 143.321 66.313 142.695C66.313 142.294 68.0115 141.85 70.4595 141.611C71.3423 141.526 72.5158 141.39 73.0677 141.312C73.9363 141.187 74.0709 141.239 74.0709 141.695C74.0709 141.985 74.2913 142.28 74.5607 142.351C75.0877 142.489 80.7132 141.792 84.6376 141.104C87.5473 140.594 88.016 140.583 88.5973 141.014ZM46.9837 142.809C48.0176 143.06 48.6572 143.543 48.6572 144.075C48.6572 144.341 48.8255 144.408 49.1982 144.289C49.5007 144.193 50.532 144.389 51.5389 144.732C53.1266 145.275 53.8119 145.343 57.3514 145.314C59.5584 145.295 62.2067 145.136 63.2366 144.961C64.2666 144.785 65.4771 144.582 65.9267 144.51C66.4591 144.425 66.8598 144.518 67.0765 144.779C67.5061 145.297 67.321 145.397 64.9383 145.933C62.2182 146.545 53.1565 146.534 51.1986 145.917C49.9135 145.512 49.8466 145.516 49.494 146.03C49.1414 146.544 48.1222 146.787 48.1222 146.357C48.1222 146.243 48.3132 145.877 48.5468 145.543C48.864 145.09 48.8961 144.847 48.6738 144.579C48.3218 144.155 45.0212 143.623 42.7415 143.623C41.3488 143.623 41.1399 143.558 41.2172 143.154C41.2937 142.754 41.6546 142.68 43.7112 142.642C45.0338 142.618 46.5065 142.693 46.9837 142.809ZM29.425 142.67C29.6725 142.918 34.741 143.608 37.5293 143.774C40.1209 143.928 40.5169 144.018 41.0843 144.586C41.6121 145.113 41.6717 145.319 41.428 145.775C41.1399 146.313 40.9979 146.322 35.0642 146.167C31.7262 146.08 28.3491 145.943 27.5594 145.863L26.1237 145.716L26.2783 144.765C26.4875 143.475 27.3984 142.552 28.4622 142.552C28.9269 142.552 29.3603 142.605 29.425 142.67ZM59.9655 143.548C59.4907 143.607 58.648 143.608 58.0929 143.55C57.5381 143.492 57.9265 143.444 58.9565 143.443C59.9864 143.442 60.4406 143.489 59.9655 143.548ZM27.5784 144.311C27.5011 144.85 27.671 144.874 33.9537 145.212C38.5945 145.461 40.4898 145.477 40.6985 145.268C41.1292 144.837 40.6779 144.759 36.6192 144.559C34.6329 144.461 32.105 144.221 31.0015 144.025C28.3547 143.555 27.6782 143.612 27.5784 144.311ZM75.1409 144.791C75.1409 145.858 74.817 146.206 74.3483 145.641C73.9056 145.107 74.1081 144.048 74.6728 143.94C75.0468 143.869 75.1409 144.04 75.1409 144.791ZM45.7815 145.672C45.5975 145.747 45.2965 145.747 45.1127 145.672C44.9287 145.598 45.0793 145.537 45.4471 145.537C45.8149 145.537 45.9653 145.598 45.7815 145.672ZM68.3194 146.58C68.6136 146.698 69.8929 146.804 71.1625 146.814C72.7777 146.827 73.5621 146.943 73.7763 147.201C74.2212 147.738 73.6204 147.813 70.2685 147.641C67.367 147.492 66.3112 147.132 67.2876 146.623C67.5615 146.481 68.0243 146.461 68.3194 146.58ZM56.1476 148.052C56.1476 148.909 48.5446 151.796 48.1155 151.102C47.8799 150.721 48.0741 149.982 48.3633 150.16C48.5904 150.301 50.7979 149.568 53.4725 148.465C55.7501 147.525 56.1476 147.464 56.1476 148.052ZM48.6572 148.416C48.6572 148.698 48.5802 149.13 48.4863 149.375C48.3499 149.73 48.2696 149.748 48.0891 149.463C47.714 148.872 47.8178 147.903 48.256 147.903C48.4767 147.903 48.6572 148.134 48.6572 148.416ZM69.4769 155.594C69.9844 156.027 70.0558 156.616 70.4439 163.552C70.6743 167.672 70.8623 172.017 70.8618 173.208C70.861 174.967 70.9525 175.457 71.35 175.816C72.0003 176.405 73.6078 176.39 74.1225 175.791C74.7886 175.015 74.822 174.622 74.4483 171.976C73.9746 168.622 73.9387 157.046 74.3991 156.035L74.7273 155.315L79.9497 155.501C82.822 155.603 85.2917 155.806 85.4377 155.952C86.0664 156.581 84.7724 156.726 80.0345 156.556L75.1642 156.382L75.0855 164.381C75.0264 170.408 75.0896 172.526 75.3416 172.973C75.7402 173.679 75.7771 174.56 75.4173 174.782C75.2749 174.87 75.2265 175.282 75.3095 175.697C75.5267 176.784 74.3309 177.597 72.5166 177.597C71.3901 177.597 71.0089 177.454 70.1031 176.698C69.1393 175.893 69.07 175.757 69.4354 175.391C69.7976 175.029 69.9528 174.246 70.1112 171.979C70.1368 171.611 70.0031 169.745 69.8142 167.832C69.6251 165.92 69.3905 162.644 69.2926 160.552C69.1915 158.392 68.9876 156.623 68.8207 156.456C68.6219 156.257 66.8927 156.189 63.4742 156.246L58.4214 156.33L56.2813 157.387C55.1043 157.968 52.8296 158.992 51.2267 159.661C49.6235 160.33 48.2204 161.058 48.1086 161.278C47.9968 161.499 47.7897 162.739 47.6487 164.035C47.4417 165.935 47.469 166.607 47.7905 167.512C48.0275 168.181 48.1883 169.582 48.188 170.976C48.1875 172.263 48.2102 173.316 48.2383 173.316C48.2664 173.316 50.6293 173.56 53.4893 173.859C56.349 174.157 59.9976 174.513 61.5971 174.65C65.1301 174.952 66.82 175.195 66.9599 175.42C67.0752 175.606 66.3845 175.583 60.0265 175.184C56.1898 174.943 52.5418 174.497 49.2592 173.867L48.1222 173.649L48.1 174.753C48.0877 175.361 48.0265 176.159 47.9641 176.527C47.9015 176.894 47.7926 178.941 47.7218 181.074C47.6509 183.208 47.4596 185.771 47.2964 186.77C47.1335 187.77 47.0741 188.883 47.1648 189.245C47.3122 189.832 47.4794 189.906 48.7292 189.936C49.4988 189.955 50.4295 190.012 50.7973 190.062C51.1652 190.113 51.9476 190.168 52.5362 190.185C54.6254 190.246 61.2078 191.235 69.2557 192.698C79.2221 194.51 83.6762 195.486 88.2843 196.868C92.9923 198.28 93.111 198.269 91.6745 196.547C89.7241 194.21 89.379 193.915 88.5954 193.912C88.1843 193.91 85.1456 193.67 81.8429 193.378C75.1591 192.786 69.7409 191.987 67.9181 191.322C66.4719 190.795 65.8395 190.315 66.9548 190.591C67.5559 190.74 67.6819 190.704 67.515 190.434C67.3504 190.168 67.4518 190.131 67.9432 190.277C68.925 190.568 77.3797 191.654 82.6313 192.163C85.2061 192.412 88.0864 192.788 89.0317 192.999C90.6529 193.36 90.8543 193.494 92.5626 195.348C94.1886 197.112 94.5441 197.362 96.029 197.778C97.0234 198.057 98.7638 198.26 100.39 198.286C103.415 198.334 105.2 197.853 106.507 196.639C107.684 195.544 107.498 194.78 105.476 192.401C103.478 190.05 103.618 189.39 105.685 191.409C107.19 192.879 108.045 194.341 108.044 195.442C108.042 196.476 107.164 197.816 106.14 198.345C102.833 200.055 99.2194 200.413 94.0155 199.543C92.1111 199.225 90.4779 198.919 90.3862 198.862C90.1845 198.737 86.7713 197.804 83.8351 197.07C80.5417 196.247 76.3779 195.489 64.8417 193.609C61.1634 193.01 57.6122 192.412 56.9501 192.281C56.288 192.15 55.4454 191.988 55.0775 191.922C54.7097 191.856 53.7467 191.665 52.9374 191.498C52.1282 191.33 51.075 191.192 50.5973 191.19C50.1195 191.188 49.7886 191.09 49.8619 190.971C50.0823 190.614 47.4248 190.362 46.8256 190.683C46.5281 190.842 46.232 190.972 46.1678 190.972C45.774 190.972 45.7507 188.068 46.1065 183.382C46.3315 180.421 46.6456 176.297 46.8045 174.219C46.9759 171.979 47.0171 168.548 46.9056 165.792C46.7312 161.478 46.7536 161.103 47.2194 160.561C47.4952 160.24 49.5267 159.198 51.7336 158.246C53.9406 157.295 56.4084 156.204 57.2176 155.823C58.6395 155.154 58.8607 155.131 63.8089 155.128C68.3004 155.126 68.9962 155.183 69.4769 155.594ZM100.6 157.936C100.79 158.125 99.8368 161.568 99.5022 161.903C98.9629 162.442 98.8855 160.735 99.3869 159.352C99.8537 158.064 100.258 157.593 100.6 157.936ZM89.1735 162.329C89.361 162.633 88.3608 162.984 87.9796 162.748C87.8287 162.655 87.7744 162.467 87.8592 162.33C88.0583 162.008 88.9745 162.007 89.1735 162.329ZM78.0836 169.17C78.0836 169.243 78.0234 169.304 77.9498 169.304C77.8762 169.304 77.816 169.243 77.816 169.17C77.816 169.096 77.8762 169.036 77.9498 169.036C78.0234 169.036 78.0836 169.096 78.0836 169.17ZM69.2557 172.38C69.4477 172.611 69.4737 172.781 69.3169 172.781C69.1676 172.781 68.9761 172.601 68.8913 172.38C68.8068 172.159 68.7792 171.979 68.83 171.979C68.8809 171.979 69.0724 172.159 69.2557 172.38ZM69.2557 173.183C69.2557 173.256 69.1955 173.316 69.1219 173.316C69.0483 173.316 68.9882 173.256 68.9882 173.183C68.9882 173.109 69.0483 173.049 69.1219 173.049C69.1955 173.049 69.2557 173.109 69.2557 173.183ZM102.695 179.335C102.695 179.409 102.634 179.469 102.561 179.469C102.487 179.469 102.427 179.409 102.427 179.335C102.427 179.262 102.487 179.202 102.561 179.202C102.634 179.202 102.695 179.262 102.695 179.335ZM67.0265 182.59C66.9283 182.688 66.7678 182.688 66.6696 182.59C66.5717 182.492 66.652 182.412 66.8481 182.412C67.0441 182.412 67.1244 182.492 67.0265 182.59ZM103.497 184.686C103.497 184.759 103.437 184.819 103.363 184.819C103.29 184.819 103.23 184.759 103.23 184.686C103.23 184.612 103.29 184.552 103.363 184.552C103.437 184.552 103.497 184.612 103.497 184.686ZM64.3067 185.087C64.2157 185.234 64.0884 185.354 64.0234 185.354C63.9584 185.354 63.9054 185.234 63.9054 185.087C63.9054 184.94 64.033 184.819 64.1887 184.819C64.3444 184.819 64.3976 184.94 64.3067 185.087ZM62.7016 185.087C62.6107 185.234 62.4761 185.354 62.4025 185.354C62.329 185.354 62.3432 185.234 62.4341 185.087C62.5251 184.94 62.6596 184.819 62.7332 184.819C62.8068 184.819 62.7926 184.94 62.7016 185.087ZM79.9561 188.966C79.9561 189.039 79.8959 189.1 79.8224 189.1C79.7488 189.1 79.6886 189.039 79.6886 188.966C79.6886 188.892 79.7488 188.832 79.8224 188.832C79.8959 188.832 79.9561 188.892 79.9561 188.966ZM66.313 190.036C66.313 190.109 66.2528 190.17 66.1793 190.17C66.1057 190.17 66.0455 190.109 66.0455 190.036C66.0455 189.962 66.1057 189.902 66.1793 189.902C66.2528 189.902 66.313 189.962 66.313 190.036ZM16.8902 191.684C16.7062 191.759 16.4052 191.759 16.2214 191.684C16.0374 191.61 16.188 191.549 16.5558 191.549C16.9237 191.549 17.074 191.61 16.8902 191.684ZM45.9704 193.045C45.9639 193.597 45.8545 194.947 45.7275 196.046C45.3602 199.219 44.6106 199.481 39.0268 198.385C35.5326 197.699 28.2394 196.375 26.9888 196.2C26.3267 196.108 24.4608 195.8 22.8424 195.518C17.9493 194.664 13.3007 193.926 11.6662 193.744C10.1569 193.576 9.60266 193.308 10.1128 192.993C10.2522 192.907 10.4346 192.947 10.5186 193.083C10.7393 193.44 11.7941 193.103 11.6481 192.722C11.5539 192.476 11.8273 192.48 12.8176 192.737C13.5284 192.921 14.3473 193.01 14.637 192.934C14.9264 192.859 15.4264 192.937 15.7479 193.109C16.2327 193.369 16.3996 193.339 16.7284 192.933C16.9638 192.642 17.1746 192.56 17.2479 192.73C17.3158 192.888 17.7369 192.964 18.1834 192.898C18.77 192.812 18.9527 192.668 18.8417 192.378C18.7216 192.065 18.8206 192.02 19.2938 192.171C19.6271 192.277 20.622 192.466 21.5048 192.59C22.3876 192.715 23.2904 192.865 23.5111 192.923C23.7318 192.981 24.2134 193.105 24.5812 193.199C25.1796 193.351 31.7561 194.75 37.9889 196.052C40.5225 196.581 41.0725 196.813 41.7661 197.64C42.3739 198.365 43.3795 198.345 44.2056 197.593C44.7395 197.107 44.8971 196.646 45.0239 195.201C45.2564 192.557 45.9958 190.872 45.9704 193.045ZM6.70792 192.492C6.51505 192.57 6.28418 192.56 6.19536 192.471C6.10655 192.382 6.26439 192.319 6.54634 192.331C6.85799 192.344 6.92139 192.407 6.70792 192.492ZM19.0359 193.274C19.1247 193.363 19.3556 193.372 19.5485 193.295C19.762 193.21 19.6986 193.146 19.3869 193.133C19.1049 193.122 18.9471 193.185 19.0359 193.274ZM9.11552 193.295C8.92265 193.372 8.69179 193.363 8.60297 193.274C8.51416 193.185 8.67198 193.122 8.95395 193.133C9.26559 193.146 9.329 193.21 9.11552 193.295ZM46.6509 197.392C46.56 197.54 46.4254 197.66 46.3518 197.66C46.2783 197.66 46.2924 197.54 46.3834 197.392C46.4743 197.245 46.6089 197.125 46.6825 197.125C46.7561 197.125 46.7419 197.245 46.6509 197.392Z" fill="#2E2E2E"/>
</svg>
