<svg width="21" height="302" viewBox="0 0 21 302" fill="none" xmlns="http://www.w3.org/2000/svg">
<mask id="path-1-outside-1_3114_1093" maskUnits="userSpaceOnUse" x="-1" y="-1" width="23" height="304" fill="black">
<rect fill="white" x="-1" y="-1" width="23" height="304"/>
<path d="M17.7637 21.1211C16.2109 21.9414 14.2773 22.3516 11.9629 22.3516C8.97461 22.3516 6.58203 21.3896 4.78516 19.4658C2.98828 17.542 2.08984 15.0176 2.08984 11.8926C2.08984 8.5332 3.10059 5.81836 5.12207 3.74805C7.14355 1.67773 9.70703 0.642578 12.8125 0.642578C14.8047 0.642578 16.4551 0.930664 17.7637 1.50684V4.12891C16.2598 3.28906 14.5996 2.86914 12.7832 2.86914C10.3711 2.86914 8.41309 3.6748 6.90918 5.28613C5.41504 6.89746 4.66797 9.05078 4.66797 11.7461C4.66797 14.3047 5.36621 16.3457 6.7627 17.8691C8.16895 19.3828 10.0098 20.1396 12.2852 20.1396C14.3945 20.1396 16.2207 19.6709 17.7637 18.7334V21.1211ZM18.833 62H15.9033L12.3877 56.1113C12.0654 55.5645 11.7529 55.1006 11.4502 54.7197C11.1475 54.3291 10.835 54.0117 10.5127 53.7676C10.2002 53.5234 9.8584 53.3477 9.4873 53.2402C9.12598 53.123 8.71582 53.0645 8.25684 53.0645H6.23535V62H3.77441V40.9941H10.0439C10.9619 40.9941 11.8066 41.1113 12.5781 41.3457C13.3594 41.5703 14.0332 41.917 14.5996 42.3857C15.1758 42.8545 15.625 43.4404 15.9473 44.1436C16.2695 44.8369 16.4307 45.6523 16.4307 46.5898C16.4307 47.3223 16.3184 47.9961 16.0938 48.6113C15.8789 49.2168 15.5664 49.7588 15.1562 50.2373C14.7559 50.7158 14.2676 51.126 13.6914 51.4678C13.125 51.7998 12.4854 52.0586 11.7725 52.2441V52.3027C12.124 52.459 12.4268 52.6396 12.6807 52.8447C12.9443 53.04 13.1934 53.2744 13.4277 53.5479C13.6621 53.8213 13.8916 54.1338 14.1162 54.4854C14.3506 54.8271 14.6094 55.2275 14.8926 55.6865L18.833 62ZM6.23535 43.2207V50.8379H9.5752C10.1904 50.8379 10.7568 50.7451 11.2744 50.5596C11.8018 50.374 12.2559 50.1104 12.6367 49.7686C13.0176 49.417 13.3154 48.9922 13.5303 48.4941C13.7451 47.9863 13.8525 47.4199 13.8525 46.7949C13.8525 45.6719 13.4863 44.7979 12.7539 44.1729C12.0312 43.5381 10.9814 43.2207 9.60449 43.2207H6.23535ZM16.2988 102H5.16602V80.9941H15.8301V83.2207H7.62695V90.208H15.2148V92.4199H7.62695V99.7734H16.2988V102ZM20.415 142H17.6904L15.4639 136.111H6.55762L4.46289 142H1.72363L9.78027 120.994H12.3291L20.415 142ZM14.6582 133.899L11.3623 124.949C11.2549 124.656 11.1475 124.188 11.04 123.543H10.9814C10.8838 124.139 10.7715 124.607 10.6445 124.949L7.37793 133.899H14.6582ZM17.3096 163.221H11.2451V182H8.78418V163.221H2.73438V160.994H17.3096V163.221ZM11.2158 222H8.75488V200.994H11.2158V222ZM19.0527 240.994L11.2744 262H8.56445L0.947266 240.994H3.68652L9.50195 257.649C9.6875 258.187 9.8291 258.807 9.92676 259.51H9.98535C10.0635 258.924 10.2246 258.294 10.4688 257.62L16.4014 240.994H19.0527ZM16.2988 302H5.16602V280.994H15.8301V283.221H7.62695V290.208H15.2148V292.42H7.62695V299.773H16.2988V302Z"/>
</mask>
<path d="M17.7637 21.1211C16.2109 21.9414 14.2773 22.3516 11.9629 22.3516C8.97461 22.3516 6.58203 21.3896 4.78516 19.4658C2.98828 17.542 2.08984 15.0176 2.08984 11.8926C2.08984 8.5332 3.10059 5.81836 5.12207 3.74805C7.14355 1.67773 9.70703 0.642578 12.8125 0.642578C14.8047 0.642578 16.4551 0.930664 17.7637 1.50684V4.12891C16.2598 3.28906 14.5996 2.86914 12.7832 2.86914C10.3711 2.86914 8.41309 3.6748 6.90918 5.28613C5.41504 6.89746 4.66797 9.05078 4.66797 11.7461C4.66797 14.3047 5.36621 16.3457 6.7627 17.8691C8.16895 19.3828 10.0098 20.1396 12.2852 20.1396C14.3945 20.1396 16.2207 19.6709 17.7637 18.7334V21.1211ZM18.833 62H15.9033L12.3877 56.1113C12.0654 55.5645 11.7529 55.1006 11.4502 54.7197C11.1475 54.3291 10.835 54.0117 10.5127 53.7676C10.2002 53.5234 9.8584 53.3477 9.4873 53.2402C9.12598 53.123 8.71582 53.0645 8.25684 53.0645H6.23535V62H3.77441V40.9941H10.0439C10.9619 40.9941 11.8066 41.1113 12.5781 41.3457C13.3594 41.5703 14.0332 41.917 14.5996 42.3857C15.1758 42.8545 15.625 43.4404 15.9473 44.1436C16.2695 44.8369 16.4307 45.6523 16.4307 46.5898C16.4307 47.3223 16.3184 47.9961 16.0938 48.6113C15.8789 49.2168 15.5664 49.7588 15.1562 50.2373C14.7559 50.7158 14.2676 51.126 13.6914 51.4678C13.125 51.7998 12.4854 52.0586 11.7725 52.2441V52.3027C12.124 52.459 12.4268 52.6396 12.6807 52.8447C12.9443 53.04 13.1934 53.2744 13.4277 53.5479C13.6621 53.8213 13.8916 54.1338 14.1162 54.4854C14.3506 54.8271 14.6094 55.2275 14.8926 55.6865L18.833 62ZM6.23535 43.2207V50.8379H9.5752C10.1904 50.8379 10.7568 50.7451 11.2744 50.5596C11.8018 50.374 12.2559 50.1104 12.6367 49.7686C13.0176 49.417 13.3154 48.9922 13.5303 48.4941C13.7451 47.9863 13.8525 47.4199 13.8525 46.7949C13.8525 45.6719 13.4863 44.7979 12.7539 44.1729C12.0312 43.5381 10.9814 43.2207 9.60449 43.2207H6.23535ZM16.2988 102H5.16602V80.9941H15.8301V83.2207H7.62695V90.208H15.2148V92.4199H7.62695V99.7734H16.2988V102ZM20.415 142H17.6904L15.4639 136.111H6.55762L4.46289 142H1.72363L9.78027 120.994H12.3291L20.415 142ZM14.6582 133.899L11.3623 124.949C11.2549 124.656 11.1475 124.188 11.04 123.543H10.9814C10.8838 124.139 10.7715 124.607 10.6445 124.949L7.37793 133.899H14.6582ZM17.3096 163.221H11.2451V182H8.78418V163.221H2.73438V160.994H17.3096V163.221ZM11.2158 222H8.75488V200.994H11.2158V222ZM19.0527 240.994L11.2744 262H8.56445L0.947266 240.994H3.68652L9.50195 257.649C9.6875 258.187 9.8291 258.807 9.92676 259.51H9.98535C10.0635 258.924 10.2246 258.294 10.4688 257.62L16.4014 240.994H19.0527ZM16.2988 302H5.16602V280.994H15.8301V283.221H7.62695V290.208H15.2148V292.42H7.62695V299.773H16.2988V302Z" fill="#0088CC"/>
<path d="M17.7637 21.1211L18.2308 22.0053L18.7637 21.7238V21.1211H17.7637ZM17.7637 1.50684H18.7637V0.854494L18.1666 0.591622L17.7637 1.50684ZM17.7637 4.12891L17.2761 5.00199L18.7637 5.83271V4.12891H17.7637ZM6.90918 5.28613L6.17812 4.60381L6.17591 4.60619L6.90918 5.28613ZM6.7627 17.8691L6.02552 18.5449L6.03007 18.5498L6.7627 17.8691ZM17.7637 18.7334H18.7637V16.9557L17.2444 17.8788L17.7637 18.7334ZM17.2966 20.2369C15.9262 20.9608 14.1644 21.3516 11.9629 21.3516V23.3516C14.3903 23.3516 16.4957 22.922 18.2308 22.0053L17.2966 20.2369ZM11.9629 21.3516C9.21045 21.3516 7.09732 20.4763 5.51596 18.7832L4.05435 20.1484C6.06675 22.303 8.73877 23.3516 11.9629 23.3516V21.3516ZM5.51596 18.7832C3.92365 17.0784 3.08984 14.8146 3.08984 11.8926H1.08984C1.08984 15.2206 2.05292 18.0056 4.05435 20.1484L5.51596 18.7832ZM3.08984 11.8926C3.08984 8.749 4.02784 6.3001 5.83756 4.44667L4.40658 3.04943C2.17333 5.33662 1.08984 8.3174 1.08984 11.8926H3.08984ZM5.83756 4.44667C7.6561 2.5842 9.95448 1.64258 12.8125 1.64258V-0.357422C9.45958 -0.357422 6.63101 0.771265 4.40658 3.04943L5.83756 4.44667ZM12.8125 1.64258C14.7169 1.64258 16.2186 1.9192 17.3607 2.42205L18.1666 0.591622C16.6915 -0.0578766 14.8925 -0.357422 12.8125 -0.357422V1.64258ZM16.7637 1.50684V4.12891H18.7637V1.50684H16.7637ZM18.2512 3.25582C16.5901 2.32818 14.7607 1.86914 12.7832 1.86914V3.86914C14.4386 3.86914 15.9294 4.24995 17.2761 5.00199L18.2512 3.25582ZM12.7832 1.86914C10.123 1.86914 7.89014 2.76951 6.17812 4.60381L7.64023 5.96845C8.93603 4.5801 10.6192 3.86914 12.7832 3.86914V1.86914ZM6.17591 4.60619C4.47344 6.44219 3.66797 8.85864 3.66797 11.7461H5.66797C5.66797 9.24292 6.35663 7.35273 7.64245 5.96607L6.17591 4.60619ZM3.66797 11.7461C3.66797 14.4926 4.42216 16.7957 6.02554 18.5449L7.49985 17.1934C6.31026 15.8957 5.66797 14.1168 5.66797 11.7461H3.66797ZM6.03007 18.5498C7.64582 20.289 9.76308 21.1396 12.2852 21.1396V19.1396C10.2565 19.1396 8.69207 18.4767 7.49532 17.1885L6.03007 18.5498ZM12.2852 21.1396C14.5464 21.1396 16.5587 20.6356 18.2829 19.588L17.2444 17.8788C15.8827 18.7062 14.2427 19.1396 12.2852 19.1396V21.1396ZM16.7637 18.7334V21.1211H18.7637V18.7334H16.7637ZM18.833 62V63H20.6359L19.6813 61.4705L18.833 62ZM15.9033 62L15.0447 62.5126L15.3357 63H15.9033V62ZM12.3877 56.1113L11.5261 56.619L11.5291 56.6239L12.3877 56.1113ZM11.4502 54.7197L10.6597 55.3323L10.6674 55.342L11.4502 54.7197ZM10.5127 53.7676L9.89705 54.5556L9.90291 54.5602L9.90884 54.5647L10.5127 53.7676ZM9.4873 53.2402L9.1788 54.1915L9.19395 54.1964L9.20925 54.2008L9.4873 53.2402ZM6.23535 53.0645V52.0645H5.23535V53.0645H6.23535ZM6.23535 62V63H7.23535V62H6.23535ZM3.77441 62H2.77441V63H3.77441V62ZM3.77441 40.9941V39.9941H2.77441V40.9941H3.77441ZM12.5781 41.3457L12.2874 42.3025L12.2946 42.3047L12.3018 42.3068L12.5781 41.3457ZM14.5996 42.3857L13.962 43.1562L13.9685 43.1615L14.5996 42.3857ZM15.9473 44.1436L15.0382 44.5602L15.0404 44.565L15.9473 44.1436ZM16.0938 48.6113L15.1544 48.2684L15.1513 48.2769L16.0938 48.6113ZM15.1562 50.2373L14.3969 49.5865L14.3893 49.5956L15.1562 50.2373ZM13.6914 51.4678L14.1971 52.3305L14.2016 52.3278L13.6914 51.4678ZM11.7725 52.2441L11.5206 51.2764L10.7725 51.4711V52.2441H11.7725ZM11.7725 52.3027H10.7725V52.9526L11.3663 53.2165L11.7725 52.3027ZM12.6807 52.8447L12.0523 53.6227L12.0686 53.6358L12.0854 53.6483L12.6807 52.8447ZM14.1162 54.4854L13.2735 55.0237L13.2823 55.0375L13.2915 55.0509L14.1162 54.4854ZM14.8926 55.6865L14.0415 56.2116L14.0442 56.216L14.8926 55.6865ZM6.23535 43.2207V42.2207H5.23535V43.2207H6.23535ZM6.23535 50.8379H5.23535V51.8379H6.23535V50.8379ZM11.2744 50.5596L10.9425 49.6162L10.937 49.6182L11.2744 50.5596ZM12.6367 49.7686L13.3047 50.5129L13.315 50.5034L12.6367 49.7686ZM13.5303 48.4941L14.4485 48.8902L14.4512 48.8838L13.5303 48.4941ZM12.7539 44.1729L12.094 44.9242L12.0993 44.9289L12.1048 44.9335L12.7539 44.1729ZM18.833 61H15.9033V63H18.833V61ZM16.7619 61.4874L13.2463 55.5987L11.5291 56.6239L15.0447 62.5126L16.7619 61.4874ZM13.2492 55.6036C12.9101 55.0281 12.5718 54.5237 12.233 54.0975L10.6674 55.342C10.9341 55.6775 11.2208 56.1008 11.5262 56.619L13.2492 55.6036ZM12.2406 54.1072C11.8955 53.6619 11.5223 53.2779 11.1166 52.9705L9.90884 54.5647C10.1476 54.7455 10.3994 54.9963 10.6598 55.3323L12.2406 54.1072ZM11.1283 52.9796C10.7181 52.659 10.2622 52.4235 9.76536 52.2797L9.20925 54.2008C9.45457 54.2718 9.68233 54.3879 9.89705 54.5556L11.1283 52.9796ZM9.79581 52.289C9.31659 52.1336 8.7995 52.0645 8.25684 52.0645V54.0645C8.63214 54.0645 8.93536 54.1125 9.1788 54.1915L9.79581 52.289ZM8.25684 52.0645H6.23535V54.0645H8.25684V52.0645ZM5.23535 53.0645V62H7.23535V53.0645H5.23535ZM6.23535 61H3.77441V63H6.23535V61ZM4.77441 62V40.9941H2.77441V62H4.77441ZM3.77441 41.9941H10.0439V39.9941H3.77441V41.9941ZM10.0439 41.9941C10.8768 41.9941 11.6222 42.1004 12.2874 42.3025L12.8688 40.3889C11.9911 40.1222 11.047 39.9941 10.0439 39.9941V41.9941ZM12.3018 42.3068C12.9649 42.4974 13.5124 42.784 13.962 43.1561L15.2372 41.6153C14.554 41.05 13.7539 40.6432 12.8544 40.3846L12.3018 42.3068ZM13.9685 43.1615C14.4208 43.5294 14.7771 43.9906 15.0382 44.5602L16.8563 43.7269C16.4729 42.8903 15.9308 42.1796 15.2307 41.61L13.9685 43.1615ZM15.0404 44.565C15.2891 45.1 15.4307 45.7657 15.4307 46.5898H17.4307C17.4307 45.539 17.25 44.5739 16.8541 43.7221L15.0404 44.565ZM15.4307 46.5898C15.4307 47.219 15.3344 47.7752 15.1544 48.2684L17.0331 48.9543C17.3023 48.2169 17.4307 47.4255 17.4307 46.5898H15.4307ZM15.1513 48.2769C14.9768 48.7689 14.7256 49.2031 14.397 49.5865L15.9155 50.8881C16.4072 50.3144 16.781 49.6647 17.0362 48.9457L15.1513 48.2769ZM14.3893 49.5956C14.0667 49.9811 13.6673 50.3194 13.1812 50.6077L14.2016 52.3278C14.8679 51.9326 15.445 51.4505 15.9232 50.879L14.3893 49.5956ZM13.1857 50.6051C12.7076 50.8853 12.1551 51.1112 11.5206 51.2764L12.0243 53.2119C12.8156 53.006 13.5424 52.7143 14.1971 52.3305L13.1857 50.6051ZM10.7725 52.2441V52.3027H12.7725V52.2441H10.7725ZM11.3663 53.2165C11.652 53.3435 11.8771 53.4811 12.0523 53.6227L13.309 52.0668C12.9765 51.7982 12.5961 51.5745 12.1786 51.3889L11.3663 53.2165ZM12.0854 53.6483C12.2834 53.7949 12.4782 53.9766 12.6685 54.1986L14.187 52.8971C13.9085 52.5722 13.6053 52.2852 13.2759 52.0412L12.0854 53.6483ZM12.6685 54.1986C12.8681 54.4316 13.0702 54.7055 13.2735 55.0237L14.9589 53.947C14.713 53.562 14.4561 53.211 14.187 52.8971L12.6685 54.1986ZM13.2915 55.0509C13.5145 55.3762 13.7644 55.7625 14.0415 56.2116L15.7436 55.1614C15.4543 54.6926 15.1866 54.2781 14.9409 53.9198L13.2915 55.0509ZM14.0442 56.216L17.9847 62.5295L19.6813 61.4705L15.7409 55.1571L14.0442 56.216ZM5.23535 43.2207V50.8379H7.23535V43.2207H5.23535ZM6.23535 51.8379H9.5752V49.8379H6.23535V51.8379ZM9.5752 51.8379C10.2919 51.8379 10.9739 51.7296 11.6119 51.5009L10.937 49.6182C10.5397 49.7606 10.089 49.8379 9.5752 49.8379V51.8379ZM11.6063 51.5029C12.2461 51.2778 12.8172 50.9502 13.3046 50.5128L11.9688 49.0243C11.6945 49.2705 11.3574 49.4703 10.9425 49.6163L11.6063 51.5029ZM13.315 50.5034C13.8034 50.0525 14.1809 49.5106 14.4485 48.8902L12.6121 48.098C12.45 48.4738 12.2317 48.7815 11.9584 49.0338L13.315 50.5034ZM14.4512 48.8838C14.7248 48.2373 14.8525 47.536 14.8525 46.7949H12.8525C12.8525 47.3039 12.7655 47.7354 12.6093 48.1045L14.4512 48.8838ZM14.8525 46.7949C14.8525 45.4332 14.3961 44.2596 13.403 43.4122L12.1048 44.9335C12.5765 45.3361 12.8525 45.9106 12.8525 46.7949H14.8525ZM13.4138 43.4215C12.4436 42.5693 11.1208 42.2207 9.60449 42.2207V44.2207C10.8421 44.2207 11.6189 44.5069 12.094 44.9242L13.4138 43.4215ZM9.60449 42.2207H6.23535V44.2207H9.60449V42.2207ZM16.2988 102V103H17.2988V102H16.2988ZM5.16602 102H4.16602V103H5.16602V102ZM5.16602 80.9941V79.9941H4.16602V80.9941H5.16602ZM15.8301 80.9941H16.8301V79.9941H15.8301V80.9941ZM15.8301 83.2207V84.2207H16.8301V83.2207H15.8301ZM7.62695 83.2207V82.2207H6.62695V83.2207H7.62695ZM7.62695 90.208H6.62695V91.208H7.62695V90.208ZM15.2148 90.208H16.2148V89.208H15.2148V90.208ZM15.2148 92.4199V93.4199H16.2148V92.4199H15.2148ZM7.62695 92.4199V91.4199H6.62695V92.4199H7.62695ZM7.62695 99.7734H6.62695V100.773H7.62695V99.7734ZM16.2988 99.7734H17.2988V98.7734H16.2988V99.7734ZM16.2988 101H5.16602V103H16.2988V101ZM6.16602 102V80.9941H4.16602V102H6.16602ZM5.16602 81.9941H15.8301V79.9941H5.16602V81.9941ZM14.8301 80.9941V83.2207H16.8301V80.9941H14.8301ZM15.8301 82.2207H7.62695V84.2207H15.8301V82.2207ZM6.62695 83.2207V90.208H8.62695V83.2207H6.62695ZM7.62695 91.208H15.2148V89.208H7.62695V91.208ZM14.2148 90.208V92.4199H16.2148V90.208H14.2148ZM15.2148 91.4199H7.62695V93.4199H15.2148V91.4199ZM6.62695 92.4199V99.7734H8.62695V92.4199H6.62695ZM7.62695 100.773H16.2988V98.7734H7.62695V100.773ZM15.2988 99.7734V102H17.2988V99.7734H15.2988ZM20.415 142V143H21.8715L21.3483 141.641L20.415 142ZM17.6904 142L16.7551 142.354L16.9994 143H17.6904V142ZM15.4639 136.111L16.3992 135.758L16.1549 135.111H15.4639V136.111ZM6.55762 136.111V135.111H5.85195L5.61545 135.776L6.55762 136.111ZM4.46289 142V143H5.16855L5.40506 142.335L4.46289 142ZM1.72363 142L0.789952 141.642L0.26906 143H1.72363V142ZM9.78027 120.994V119.994H9.09279L8.84659 120.636L9.78027 120.994ZM12.3291 120.994L13.2623 120.635L13.0157 119.994H12.3291V120.994ZM14.6582 133.899V134.899H16.0921L15.5966 133.554L14.6582 133.899ZM11.3623 124.949L10.4234 125.293L10.4239 125.295L11.3623 124.949ZM11.04 123.543L12.0264 123.379L11.8872 122.543H11.04V123.543ZM10.9814 123.543V122.543H10.132L9.99462 123.381L10.9814 123.543ZM10.6445 124.949L9.70709 124.601L9.70514 124.606L10.6445 124.949ZM7.37793 133.899L6.43854 133.557L5.94843 134.899H7.37793V133.899ZM20.415 141H17.6904V143H20.415V141ZM18.6258 141.646L16.3992 135.758L14.5285 136.465L16.7551 142.354L18.6258 141.646ZM15.4639 135.111H6.55762V137.111H15.4639V135.111ZM5.61545 135.776L3.52073 141.665L5.40506 142.335L7.49978 136.446L5.61545 135.776ZM4.46289 141H1.72363V143H4.46289V141ZM2.65731 142.358L10.714 121.352L8.84659 120.636L0.789952 141.642L2.65731 142.358ZM9.78027 121.994H12.3291V119.994H9.78027V121.994ZM11.3959 121.353L19.4818 142.359L21.3483 141.641L13.2623 120.635L11.3959 121.353ZM15.5966 133.554L12.3007 124.604L10.4239 125.295L13.7198 134.245L15.5966 133.554ZM12.3012 124.605C12.2277 124.405 12.1322 124.013 12.0264 123.379L10.0536 123.707C10.1627 124.362 10.2821 124.908 10.4234 125.293L12.3012 124.605ZM11.04 122.543H10.9814V124.543H11.04V122.543ZM9.99462 123.381C9.90156 123.949 9.80185 124.346 9.70711 124.601L11.582 125.297C11.7411 124.869 11.866 124.329 11.9683 123.705L9.99462 123.381ZM9.70514 124.606L6.43854 133.557L8.31732 134.242L11.5839 125.292L9.70514 124.606ZM7.37793 134.899H14.6582V132.899H7.37793V134.899ZM17.3096 163.221V164.221H18.3096V163.221H17.3096ZM11.2451 163.221V162.221H10.2451V163.221H11.2451ZM11.2451 182V183H12.2451V182H11.2451ZM8.78418 182H7.78418V183H8.78418V182ZM8.78418 163.221H9.78418V162.221H8.78418V163.221ZM2.73438 163.221H1.73438V164.221H2.73438V163.221ZM2.73438 160.994V159.994H1.73438V160.994H2.73438ZM17.3096 160.994H18.3096V159.994H17.3096V160.994ZM17.3096 162.221H11.2451V164.221H17.3096V162.221ZM10.2451 163.221V182H12.2451V163.221H10.2451ZM11.2451 181H8.78418V183H11.2451V181ZM9.78418 182V163.221H7.78418V182H9.78418ZM8.78418 162.221H2.73438V164.221H8.78418V162.221ZM3.73438 163.221V160.994H1.73438V163.221H3.73438ZM2.73438 161.994H17.3096V159.994H2.73438V161.994ZM16.3096 160.994V163.221H18.3096V160.994H16.3096ZM11.2158 222V223H12.2158V222H11.2158ZM8.75488 222H7.75488V223H8.75488V222ZM8.75488 200.994V199.994H7.75488V200.994H8.75488ZM11.2158 200.994H12.2158V199.994H11.2158V200.994ZM11.2158 221H8.75488V223H11.2158V221ZM9.75488 222V200.994H7.75488V222H9.75488ZM8.75488 201.994H11.2158V199.994H8.75488V201.994ZM10.2158 200.994V222H12.2158V200.994H10.2158ZM19.0527 240.994L19.9905 241.341L20.4894 239.994H19.0527V240.994ZM11.2744 262V263H11.9705L12.2122 262.347L11.2744 262ZM8.56445 262L7.62435 262.341L7.86336 263H8.56445V262ZM0.947266 240.994V239.994H-0.479074L0.00716627 241.335L0.947266 240.994ZM3.68652 240.994L4.63063 240.664L4.39656 239.994H3.68652V240.994ZM9.50195 257.649L10.4471 257.323L10.4461 257.32L9.50195 257.649ZM9.92676 259.51L8.93627 259.647L9.05605 260.51H9.92676V259.51ZM9.98535 259.51V260.51H10.8609L10.9766 259.642L9.98535 259.51ZM10.4688 257.62L11.409 257.961L11.4106 257.956L10.4688 257.62ZM16.4014 240.994V239.994H15.6964L15.4595 240.658L16.4014 240.994ZM18.115 240.647L10.3366 261.653L12.2122 262.347L19.9905 241.341L18.115 240.647ZM11.2744 261H8.56445V263H11.2744V261ZM9.50455 261.659L1.88736 240.653L0.00716627 241.335L7.62435 262.341L9.50455 261.659ZM0.947266 241.994H3.68652V239.994H0.947266V241.994ZM2.74242 241.324L8.55785 257.979L10.4461 257.32L4.63063 240.664L2.74242 241.324ZM8.55676 257.976C8.71664 258.439 8.84544 258.993 8.93627 259.647L10.9172 259.372C10.8128 258.62 10.6584 257.934 10.4471 257.323L8.55676 257.976ZM9.92676 260.51H9.98535V258.51H9.92676V260.51ZM10.9766 259.642C11.0435 259.14 11.1843 258.581 11.4089 257.961L9.52856 257.279C9.26494 258.007 9.08348 258.707 8.99412 259.378L10.9766 259.642ZM11.4106 257.956L17.3432 241.33L15.4595 240.658L9.52691 257.284L11.4106 257.956ZM16.4014 241.994H19.0527V239.994H16.4014V241.994ZM16.2988 302V303H17.2988V302H16.2988ZM5.16602 302H4.16602V303H5.16602V302ZM5.16602 280.994V279.994H4.16602V280.994H5.16602ZM15.8301 280.994H16.8301V279.994H15.8301V280.994ZM15.8301 283.221V284.221H16.8301V283.221H15.8301ZM7.62695 283.221V282.221H6.62695V283.221H7.62695ZM7.62695 290.208H6.62695V291.208H7.62695V290.208ZM15.2148 290.208H16.2148V289.208H15.2148V290.208ZM15.2148 292.42V293.42H16.2148V292.42H15.2148ZM7.62695 292.42V291.42H6.62695V292.42H7.62695ZM7.62695 299.773H6.62695V300.773H7.62695V299.773ZM16.2988 299.773H17.2988V298.773H16.2988V299.773ZM16.2988 301H5.16602V303H16.2988V301ZM6.16602 302V280.994H4.16602V302H6.16602ZM5.16602 281.994H15.8301V279.994H5.16602V281.994ZM14.8301 280.994V283.221H16.8301V280.994H14.8301ZM15.8301 282.221H7.62695V284.221H15.8301V282.221ZM6.62695 283.221V290.208H8.62695V283.221H6.62695ZM7.62695 291.208H15.2148V289.208H7.62695V291.208ZM14.2148 290.208V292.42H16.2148V290.208H14.2148ZM15.2148 291.42H7.62695V293.42H15.2148V291.42ZM6.62695 292.42V299.773H8.62695V292.42H6.62695ZM7.62695 300.773H16.2988V298.773H7.62695V300.773ZM15.2988 299.773V302H17.2988V299.773H15.2988Z" fill="#0088CC" mask="url(#path-1-outside-1_3114_1093)"/>
</svg>
