<svg width="107" height="107" viewBox="0 0 107 107" fill="none" xmlns="http://www.w3.org/2000/svg">
<g clip-path="url(#clip0_2464_5098)">
<path d="M106.669 13.4817C106.719 10.4573 105.624 7.66873 103.585 5.62977C102.479 4.52361 100.685 4.52361 99.5792 5.62991C98.473 6.73621 98.4729 8.52972 99.5792 9.63588C100.523 10.5794 101.029 11.9115 101.004 13.3869C100.981 14.7945 100.448 16.1536 99.5792 17.0225C97.7769 18.8248 79.8114 34.5972 65.7805 46.8695L62.3416 43.4309C72.5846 31.7112 85.2959 17.2196 90.2678 11.7172L91.3989 12.8484C92.5052 13.9547 94.2988 13.9548 95.4048 12.8487C96.5113 11.7425 96.5114 9.94903 95.4053 8.84273L92.1929 5.63005C91.6617 5.09879 90.9411 4.80022 90.1899 4.80022H90.1897C89.4384 4.80022 88.718 5.09865 88.1868 5.62977C86.4629 7.35345 75.9188 19.3293 66.4047 30.1863C63.8461 26.3136 60.4286 22.9821 56.3636 20.4248C50.4222 16.687 43.4955 14.7918 35.7754 14.7918C34.0771 14.7918 32.3969 14.8988 30.7819 15.1103C29.2306 15.3134 28.1377 16.7354 28.3407 18.2867C28.5438 19.8379 29.9656 20.9307 31.5169 20.7278C32.8892 20.5482 34.322 20.4571 35.7753 20.4571C47.53 20.4571 57.3903 25.727 62.5035 34.6411C57.7322 40.0933 53.6327 44.7893 51.6558 47.0552C48.1266 47.536 45.4932 48.9803 43.6364 51.4569C41.91 53.7594 41.1533 56.5093 40.3522 59.4208C39.3862 62.9313 38.3874 66.5614 35.539 69.4096C34.7288 70.2198 34.4864 71.4381 34.9249 72.4967C35.3634 73.5552 36.3964 74.2454 37.542 74.2454C45.1655 74.2454 51.2077 72.6204 55.501 69.4158C59.37 66.5278 61.6762 62.4275 62.2215 57.5038C69.5203 51.1293 100.967 23.6461 103.585 21.0285C105.497 19.1171 106.621 16.3663 106.669 13.4817ZM61.5057 50.6069C60.6545 51.3506 59.8293 52.0715 59.0359 52.7643L56.4495 50.178C57.1417 49.3848 57.8625 48.5589 58.606 47.7074L61.5057 50.6069ZM52.1122 64.8758C49.884 66.5391 46.9187 67.6476 43.2588 68.1904C44.5042 65.6862 45.2028 63.1471 45.8146 60.9236C47.1275 56.1523 47.9272 53.7576 51.1624 52.9029L56.3927 58.1332C55.8169 60.9174 54.384 63.18 52.1122 64.8758Z" fill="#2B2B2B"/>
<path d="M21.937 23.4549C22.3496 23.4549 22.7687 23.3642 23.1651 23.1731C23.4193 23.0505 23.6805 22.93 23.9411 22.8151C25.3723 22.1833 26.0204 20.5109 25.3886 19.0797C24.7568 17.6486 23.0845 17.0005 21.6532 17.6322C21.3349 17.7727 21.0158 17.92 20.7046 18.07C19.2955 18.7494 18.7039 20.4426 19.3832 21.8517C19.8716 22.8644 20.8832 23.4549 21.937 23.4549Z" fill="#2B2B2B"/>
<path d="M42.4061 77.393C40.8431 77.3777 39.5594 78.6293 39.5417 80.1936C39.4194 91.0833 37.7755 95.9415 28.3577 95.9415C23.0782 95.9415 17.5375 92.0793 13.1565 85.3455C8.32579 77.92 5.66534 68.2795 5.66534 58.1996C5.66534 45.1136 9.61692 34.2254 16.7922 27.5409C17.9369 26.4745 18.0003 24.682 16.934 23.5373C15.8676 22.3926 14.0751 22.3292 12.9304 23.3955C8.70395 27.3331 5.43377 32.4492 3.21055 38.6017C1.0801 44.4974 0 51.0911 0 58.1996C0 69.3633 2.98606 80.1012 8.40779 88.4349C13.8537 96.806 21.1254 101.607 28.3577 101.607C35.2752 101.607 40.0966 99.1727 42.6875 94.3721C44.912 90.25 45.1542 84.925 45.2066 80.2573C45.2242 78.6929 43.9704 77.4104 42.4061 77.393Z" fill="#2B2B2B"/>
<path d="M56.3453 35.4423C56.3453 30.2387 52.1118 26.0051 46.9082 26.0051C41.7044 26.0051 37.4707 30.2387 37.4707 35.4423C37.4707 40.6461 41.7044 44.8798 46.9082 44.8798C52.1118 44.8796 56.3453 40.6461 56.3453 35.4423ZM43.136 35.4423C43.136 33.3624 44.8281 31.6705 46.9082 31.6705C48.9881 31.6705 50.68 33.3624 50.68 35.4423C50.68 37.5223 48.9881 39.2144 46.9082 39.2144C44.8281 39.2143 43.136 37.5222 43.136 35.4423Z" fill="#2B2B2B"/>
<path d="M24.4178 48.2715C29.6216 48.2715 33.8551 44.0379 33.8551 38.8343C33.8551 33.6305 29.6216 29.397 24.4178 29.397C19.214 29.397 14.9805 33.6305 14.9805 38.8343C14.9805 44.0379 19.214 48.2715 24.4178 48.2715ZM24.4178 35.0623C26.4977 35.0623 28.1898 36.7544 28.1898 38.8343C28.1898 40.9142 26.4977 42.6061 24.4178 42.6061C22.3379 42.6061 20.6458 40.9142 20.6458 38.8343C20.6458 36.7544 22.338 35.0623 24.4178 35.0623Z" fill="#2B2B2B"/>
<path d="M26.6246 60.5173C26.6246 55.3135 22.3911 51.0798 17.1873 51.0798C11.9836 51.0798 7.75 55.3135 7.75 60.5173C7.75 65.7209 11.9836 69.9545 17.1873 69.9545C22.3911 69.9545 26.6246 65.7209 26.6246 60.5173ZM17.1873 64.2891C15.1074 64.2891 13.4153 62.5972 13.4153 60.5173C13.4153 58.4373 15.1074 56.7452 17.1873 56.7452C19.2672 56.7452 20.9593 58.4373 20.9593 60.5173C20.9593 62.597 19.2672 64.2891 17.1873 64.2891Z" fill="#2B2B2B"/>
<path d="M27.1032 92.036C32.307 92.036 36.5407 87.8024 36.5407 82.5988C36.5407 77.3952 32.307 73.1616 27.1032 73.1616C21.8996 73.1616 17.666 77.3952 17.666 82.5988C17.666 87.8024 21.8996 92.036 27.1032 92.036ZM27.1032 78.827C29.1832 78.827 30.8753 80.5189 30.8753 82.5988C30.8753 84.6787 29.1832 86.3706 27.1032 86.3706C25.0235 86.3706 23.3314 84.6787 23.3314 82.5988C23.3314 80.5189 25.0235 78.827 27.1032 78.827Z" fill="#2B2B2B"/>
</g>
<defs>
<clipPath id="clip0_2464_5098">
<rect width="106.67" height="106.67" fill="white"/>
</clipPath>
</defs>
</svg>
